/* XPM */
static char *result[] = {
/* columns rows colors chars-per-pixel */
"64 64 153 2 ",
"   c #060606",
".  c #0B0703",
"X  c #0D0A05",
"o  c #0D0D0C",
"O  c #140C04",
"+  c #130E0B",
"@  c #14110D",
"#  c #1B130C",
"$  c #1F180F",
"%  c #141414",
"&  c #1A1612",
"*  c #1D1A14",
"=  c #1C1C1C",
"-  c #21160B",
";  c #231A0E",
":  c #241D13",
">  c #291E13",
",  c #231E18",
"<  c #262115",
"1  c #2C2215",
"2  c #26211A",
"3  c #2D241A",
"4  c #2E291E",
"5  c #332516",
"6  c #312816",
"7  c #382816",
"8  c #32261A",
"9  c #382618",
"0  c #342A1D",
"q  c #392C1E",
"w  c #3C301F",
"e  c #1D1F20",
"r  c #242424",
"t  c #2C2621",
"y  c #2C2925",
"u  c #27272A",
"i  c #272928",
"p  c #2C2C2C",
"a  c #352C22",
"s  c #3A2E23",
"d  c #322E2B",
"f  c #382E28",
"g  c #2F302F",
"h  c #373024",
"j  c #3B3225",
"k  c #33322D",
"l  c #3C3429",
"z  c #3F392B",
"x  c #2F2F31",
"c  c #2F3232",
"v  c #333333",
"b  c #3A3634",
"n  c #373837",
"m  c #3C3934",
"M  c #373739",
"N  c #3B3B3B",
"B  c #423526",
"V  c #433827",
"C  c #42362A",
"Z  c #443A2C",
"A  c #4A3D2E",
"S  c #413730",
"D  c #453C32",
"F  c #4A3E31",
"G  c #443E39",
"H  c #503E32",
"J  c #3E403F",
"K  c #4B412F",
"L  c #51402F",
"P  c #454036",
"I  c #4D4233",
"U  c #45423D",
"Y  c #4D443A",
"T  c #514535",
"R  c #594737",
"E  c #524837",
"W  c #524639",
"Q  c #554A3B",
"!  c #5A4C3D",
"~  c #5C513F",
"^  c #434343",
"/  c #4C4741",
"(  c #4D4944",
")  c #4B4B4A",
"_  c #544C43",
"`  c #5A4E41",
"'  c #534E49",
"]  c #5D5243",
"[  c #555149",
"{  c #5B544C",
"}  c #535353",
"|  c #595753",
" . c #585858",
".. c #615445",
"X. c #605847",
"o. c #625649",
"O. c #655A4A",
"+. c #695D4D",
"@. c #635C51",
"#. c #695F53",
"$. c #625E59",
"%. c #6C6253",
"&. c #64615A",
"*. c #69655D",
"=. c #736759",
"-. c #746B5C",
";. c #666563",
":. c #6A6662",
">. c #6C6A64",
",. c #616368",
"<. c DimGray",
"1. c #726C64",
"2. c #726F6A",
"3. c #7B7261",
"4. c #75716C",
"5. c #7A766D",
"6. c #7A7773",
"7. c #7D7A76",
"8. c #7E7C79",
"9. c #80796E",
"0. c #827D75",
"q. c #817D79",
"w. c #88847E",
"e. c #858481",
"r. c #8E8B87",
"t. c #928D84",
"y. c #918D8A",
"u. c #96938F",
"i. c #9A968F",
"p. c #989693",
"a. c #9F9D98",
"s. c #A5A19A",
"d. c #A5A4A2",
"f. c #A9A7A1",
"g. c #A6A8A5",
"h. c #ADAAA5",
"j. c #A2A6A9",
"k. c #AEACAD",
"l. c #B0ACA7",
"z. c #B3AFAB",
"x. c #B5B1AB",
"c. c #B7B4B1",
"v. c #B9B5B1",
"b. c #BEBCB5",
"n. c #BBBBBB",
"m. c #C1BDB9",
"M. c #C2C0BA",
"N. c #BDC1C2",
"B. c #C4C3C4",
"V. c #C6C8C7",
"C. c #CBD0CC",
"Z. c #D6D5D3",
"A. c #DAD8D9",
/* pixels */
"} N ^ i M i n g u r N M % n = p r p ^ ) p p N d N = p x v G p ^ M p r i ) u r r r i y p N n v = = = N i ) M p N i v v p v N g p ",
"N v N N b v N y ^ N ^ p p ^ N } v u v v i n p v = N ) ^ u M v J v v y v v p r N N v M ^ p M v N p r v r ^ d p N i v M p d M v J ",
"v v r ^ N u N y v g y M N n J u i n N x ) N g u v N J u g N n N p N N N v n p v v u N p ^ v p i N r r =  .u M v J v v g v i M v ",
"M n p r u r M v = n v M v v M d N r r p g = % N } g N p } N i i N u v N v ( M e ^ ^ N v p N r = ) = = % ) v b i r v p v v n M d ",
"p v v J ^ M u J ^ i ^ p ) p i p i r r r n r = ^ } N n b ( ) N ^ J ) ^ ) ) N ( n r N N c e v v i r % r n | p p M n M N r v r M y ",
"M g r = = % e r p = o o r = = o % u % o % d G D t T _ Y W F I Z P F W W W Y l a Z y % % % % = o   r N u e % = % N % % u % u p u ",
"n J b p g N g U g x p v v r ) ^ v v M ^ / F Q I f 0 F W ] I I A A E Q ..Z j > I Y K F ^ n i i g r v v p i p p u v J u v r r i p ",
"N g = g u M v ^ ^ M M N G N u u o v p G ] E I I A ; ` I E F I A I A E I ! 0 a W F I ] *.| } c ^ ^ M v ^ ) g ^ N J ) N % % @ = p ",
"v ^ ^ J N g g v N r g J v n v r p ( Z P T ~ E A I 6 I T ! A I A A I T Q I 1 W Z I ~ ! T ~ , N i x p n x r p i N M p c = x p g % ",
"g v M M v J } v v n p v N ^ N p G Y < I E K I I I a f ` ] F F Z A A Q ~ E < I K K I Q Q ; Z P U J v r v u u g N d v y v g r p % ",
"M b v v b u M N p g = N g i g Y F T E ; Q K ..K I Y a T W W Y F I I Q I Z D F A ] E ! ; P I Q A ( v y p b N p M p v x g d y e r ",
"p J = b v N v p ^ ^ u d M b _ Q E I A Q 1 E ~ ! I a # : - : : 3 3 1 a 1 : 3 Z Q X.! 0 I I Z I E T { J v v v M p x x v J p v u x ",
"u = = u J p v = ^ N = ) r Y E I ! ! I I V q I 1 , @ 2 3 j 2 3 8 3 l C C a , 3 , P V 0 Y F I Q ~ E Q ) N b g p d y y u = u r = v ",
"% = x , = % = g = = N ^ C l Q E F F K A F , $ - 1 l a a ! a S Z 8 C a I f j 0 3 1 $ z K I I F Q E C l m = = u u u i r u g c N M ",
"N M p r x M y r n r p / F 6 1 I [ W ..Q F : : a l h f 1 E 0 a a 3 4 3 I a a j I 1 : Z T ~ ~ ` Q q < Z I ) p x N J N ^ n e g p N ",
") M v J g ^ v v J ^ ( F I E 0 : C Z Q Y : , j 0 j j h 3 E 4 t.a : q./ A a f j F 1 a : Z ~ Z D : 3 I I I F ) b g v J M p b M M b ",
"J x v r ^ J r p v ' V R T F W C ; F ' ; , j Z 0 j Z D 5 R t Z f 3 D 4 T 0 Z V Z 9 C f : F ` ; f Y I I Q A +.^ d v n N v J p v v ",
"v N d r N v u N ^ I ~ ! F F I I F 3 - 3 l s I 7 Z Z s 1 ! a 3 l 4 3 0 K 3 a z A 9 F j s > : Z I I K I Q ! K Y n p n v v v v g n ",
"^ v u v g g r p Z ! I ` I K T A Q 2 O Q Z j A 0 Z l f 1 ! a 8 Z 3 0 a I 8 j w Z 8 C Z s T , P A I I I Q I Q E ) p N v N M v g ^ ",
"^ p n r r N N d ] A I E I ] ! W , @ 8 ! s 0 I 7 j j j 6 ! B s A 6 j j I 0 j j V 9 Z 0 s T ; 0 I E o.I I E I I { v p p N p g N g ",
"o o = e = = v f ] O.W I W I Q C # f 5 ! j 3 F 7 j P z 1 ! a 3 a 3 1 a I 3 l Z Z 8 Z 3 j R 5 > f Y Q Z E j O...A n g u N d e = = ",
"^ p J } N J ^ W I F -.W j W W : t j B W l 8 T q j h j 1 E < 5.a < >.m K a j j V 9 Z 0 j T T 8 1 I ` C s 3.T T A C n p n M M M y ",
") p N % N n / Q I I F ` %.j a & f s V ! a a F 9 Z h l 6 ! 3 @.j < O.Z I 0 l s A 7 Z a q R A a : f j E %.A T A E Z i e r g u r % ",
") g n <.n i G ! K Y z E I Q , 3 j s A Q 0 0 F 5 I a l 0 ! 0 1 f 3 ; f L a j 0 ! 8 Z s 0 T T q j , Z ] E B E E T F N r b M v r % ",
"r v M u r g / ! ! I I I I f # j q w V ! 0 q j 5 H 8 f 6 ! s 0 T 6 0 q H s a 6 E 1 B s 0 T H q a 3 8 Z T T I Q R Y N v v v v i % ",
"p v g v i n m ` ! F I E W 1 2 j a s V ! q 0 l 5 T 8 j 3 ! 0 5 A 5 8 q T 8 f 9 Q 1 f 0 q T H 0 a a 1 V ` F I E ~ Y N v v v v x % ",
"M N d v c n U A I ` I E Q a # : s 9 Z R C f j 5 Z 0 D 1 R j 3 s 4 a 3 T 0 D 6 T 5 j j l T K 0 3 f ; E ! A ` W B ` N M v i v r % ",
"^ v u r p k d B B Z Z Z B : Y @.F 9 A Q l j l 5 F C D 3 ! f t.f < 0.( A 3 D Z F 3 j l C T A 5 ] t.# j B B Z j B F M r i i % o = ",
"^ b g g p u G ..O.] { E ..0 : : C 9 Z ! B j f 8 V C a 9 R f S f 3 Z 4 I f a j I 1 j l Z E F 6 m G : ` I ..] +...` g d p u v v b ",
"= v N = J d m W I A I K K 3 # < Z > q I 0 8 8 : s 5 a 3 F 3 > S 4 < 3 F 0 0 8 B - 3 3 0 Z B : j : 2 P I H F I T H J c J p N N N ",
"i ^ N n r g ( Y I T K I Q a ( $.;.4.w.i.z.v.v.z.m.k.u.q.2.<.' { t ( :.*.7.r.a.b.x.c.x.b.s.y.7.:.2.h P E T F W H _ J g v v v n n ",
") p r e = r ( ] ..A ] ] I t y B.M v x e g.N i = v.^ u x r j.;.G 3 b N.r p x e n.r i % V.p x p r Z.Z j ....I ! ..` J N v n M N J ",
"p ^ p p v r ( A K Q I E Q 3 + r @ % % % , * @ . k % @ & + i & 4 < X v . & & @ y + & . k # % % X d : F ` B Q E B ] U N U p % n p ",
"G v M g x c D j j A C z Z > W a a j 8 Q l f F s I l h a ` a h Q 6 j j I l h b W 8 D l j Y f f a l : C C j I j B I N N n ^ e r e ",
"p N i p n p ( #.=.+.=.! ] 0 & s q s 6 E l s s q F C j 0 _ s 3 f 3 3 s L B j C E 5 j a j E 9 s 5 3 < ! Q %.%.-.+.O.p e p i r g v ",
"v v r p i r U T K Z I Z I 4 d l 0 q 0 ! Z F E 6 C C f s ! f O.f 1 { b T s a Z T 6 I Z Z E q a f @.: S F I Z A K F c = e r r i p ",
"e u e = o ^ [ I A K K A W a G ` l 0 q Q Z 3 T 0 Z F f 0 R a 9.a < 1.P K l j Z A 9 A 1 Z W 9 t S 5.: I F I I I K W = = % o % % i ",
"N p g p p v ( ..~ K ! O.Q 3 X 3 l 0 q ! C 8 W 9 D C f 0 ! a > j 3 1 f I s l j I 5 T 0 B W B a C 3 1 Z ] ] I ! X.Q M J v = r g v ",
"n v v p i r ( I I E I ! I 8 a j Z 0 5 ! 0 l ! 0 a F h 8 ! s 0 Y 0 0 a T a h Z B 9 W l 0 R 5 a A a 3 F ` F Y E A ..M y v u p N p ",
"b i v i v g U I K Q I I W 3 D a F w > ! 0 B T 5 j Z l 3 ! 0 j Y 8 l 0 T a j Z V 9 A l s Q 5 s Z f 1 F W C ` Z Z ` G n N v n n = ",
"p u r r r r _ O.%.o.%.Q Q 1 3 0 Z a < ~ w a T 7 C a j 9 Q q j Z 8 f q A s j 0 I 5 A j q Q 5 s C 3 : I I #.O.%.O._ ) N c r = r g ",
"r v n i u r ( F A Z Z K I 4 : 1 z 0 5 ! 0 j E 9 A s j q Q 0 D a 1 G s T l f j F 9 A j 0 W 8 a s P : I Z A A F A I r p r ^ N v o ",
"v ^ M ^ M ) [ E F F I Z E 3 ^ $.a a 0 ` a f I 0 Z f j 0 Q 3 t.a : 0._ A j j j I 8 F l a Q s a P t.: I F T A I E Y r % o r % v ) ",
"N r r % = N @.` o.I E ] E a # $ l a 0 ! 0 Z F 7 A f l q ! q 3 s 1 t 0 I j l j A 7 V F 5 R s t j 3 3 Z ] ` F Q ! Q N v g n p v n ",
"r i u M u i { T Q I E ! E 6 1 a F a 6 E j Z A 9 Z j A s R j 3 Z 6 3 B T V C j T 7 V P 0 L w 0 Z 3 3 Z ] Q I W E ..N N v N N n i ",
"M n p g v g | H Q ] I Q E 4 l t l 3 ; F s 3 j ; a 8 f > F 1 8 Q 1 f 8 Z 3 f a l - 0 4 0 Z : 4 l 0 1 Q ! Z ] W A ] M M v v v d p ",
"v y M d v r { A I I Y Z Z : ) :.>.4.q.p.v.v.z.l.n.f.y.q.1.2.| { 3 ) >.>.6.e.p.m.l.x.h.M.s.y.8.;.8.3 C j I E I I W N n p p n n r ",
"J g e v y v ' W I I E A ! a y B.M c x e k.^ u , n.( u d i d.,.G 3 v B.i v p r n.r p = C.i v p e A.j I T E E E I I N y v v u u e ",
"p p g v N v ' W F I I F I 8 + = @ + % @ + & & + r @ + o o , @ 2 1 @ r . @ % @ , X *   y @ @ % X i : Z A W F A T I d v i p p n ( ",
"% = e = % = ' W T E T W Q a @ a l j 3 ] a f S q F a l a ` B 3 j 5 2 C T j f a W 3 z h j Q a l h a 3 F Q W I E E ` i r e r % o   ",
"v N N M c } @.` ..I E o.I 3 S _ j 0 1 Q q q j 5 A 0 s 9 ! 0 5.0 < 1.F A j B 9 A 6 j 0 q W 3 0 l 5.$ z ] ] A ] ~ ! n b v i M J ^ ",
") v b ^ p ( $.A E E W E Q 8 k l j a 9 ` s s l 5 V a l s E 6 &.f < &.C I s j 0 F 6 j j q Q 0 0 l >.: I ! Z ~ ~ B { ^ = } N J N ) ",
"g x u ^ v v / f s j Z q j : . a l a 8 ` s s f 5 Z s f 0 E 0 4 h 6 : a A j j 0 F 1 j j s E s 0 j < $ a j B j j B F N g g v n v n ",
"g g N v N g _ ..+.] O.W ] a f s j 0 0 Q s s l 5 Z a j 0 ! s 0 I 6 0 B T f j 0 F 6 j a s E q a s 0 3 ` E O.] O...` M M n x p M n ",
"N N M J b p ' T A Z E A F 3 f Z j a 8 ! j 0 l 5 V s j 8 ! 0 q Z 1 0 0 I 0 j 0 H 1 j s s E 0 a 0 j < Z Z W F Z I I N N n v N x v ",
"r u , e p r ' T K K E T E s + ; 0 0 > Q j 0 a 5 C f j 1 ! 0 3 a 0 a 1 L 1 j h T 1 j a q W 5 0 0 a 1 Y E T I Y T ! ^ r n N N v b ",
"= e r r x e _ o...Q o.o.T > / o.1 l s Q q j j 8 Z s a 3 W y t.a < 0.Y F 3 f a H 5 j j s T B f b t.$ l ] +.E ....] ^ N r r p p e ",
"u p M x x N @.A T ! Z Q Q 8 , 2 C C 0 ! s C l 9 C a f 1 ! a z f < D a K 1 j a H 1 l l 0 E s Z l F ; I ~ B E ! B ] N v p n J x G ",
"y p p N x b ( f a j D D D a + 2 , s 3 D 3 a f a Z 3 3 , F j > f t 0 h G , j 0 F & 8 2 : l : f t # $ a S l I G f j } J N x G u J ",
"M M G p N J M u i r p p r M g p u u p p u M b r , u r r e p N v v i p p i v p c u i x G r i v y v p e N p N p d i n N p r r p g ",
"d r p x J g g g p y u u p p p x g b v u p p y u r v x i p x g x g g p p N u v r i u v r g M r r M u = r N v J M g x e r e g p p ",
"r u b u p N p g x n b g p p r r v i p v r n x r u p i p p x x x x u r g r p v p N u b u g g i i p i d p u v p M r b N v u v c g ",
"M v J p y M b p u v p v n g v i y u r p p x p p r i v i y p u x g p ) g g p n p p d v v u v v v v r N N g g v M x u g c v p M b ",
"J ^ r g e e % = = i u p = r p p M N u g p v v g r r n p r r x p y v p p p g g N i r x v M d r p i r M N d i r p b r p y u e v ) "
};
