/* XPM */
static char *result[] = {
/* columns rows colors chars-per-pixel */
"64 64 109 2 ",
"   c #060606",
".  c #0D0D0C",
"X  c #110F0D",
"o  c #0F100F",
"O  c #181007",
"+  c #12110E",
"@  c #1D150D",
"#  c #110F10",
"$  c #0F1110",
"%  c #111111",
"&  c #191511",
"*  c #1B1914",
"=  c #191718",
"-  c #1C1C1B",
";  c #251B0E",
":  c #241D15",
">  c #291F13",
",  c #231F1C",
"<  c #272017",
"1  c #2B2216",
"2  c #25221D",
"3  c #2A231C",
"4  c #2F2818",
"5  c #312719",
"6  c #332A1E",
"7  c #382C1E",
"8  c #252424",
"9  c #2A2622",
"0  c #2C2A25",
"q  c #2C2C2C",
"w  c #332C24",
"e  c #392E23",
"r  c #312D29",
"t  c #3C3225",
"y  c #33312D",
"u  c #3D3429",
"i  c #3F392F",
"p  c #302F30",
"a  c #343333",
"s  c #383736",
"d  c #3A3935",
"f  c #3B3B3B",
"g  c #423526",
"h  c #433826",
"j  c #423629",
"k  c #453B2C",
"l  c #493D2E",
"z  c #453D32",
"x  c #4A3E31",
"c  c #423F3A",
"v  c #3F413E",
"b  c #4C402F",
"n  c #474036",
"m  c #4D4233",
"M  c #44413D",
"N  c #4D453B",
"B  c #4F4A3D",
"V  c #514535",
"C  c #514836",
"Z  c #524639",
"A  c #554A3B",
"S  c #5A4D3E",
"D  c #5B503F",
"F  c #434242",
"G  c #4A4641",
"H  c #4D4A44",
"J  c #4B4B4B",
"K  c #534D45",
"L  c #5A4E41",
"P  c #524E4A",
"I  c #5D5243",
"U  c #54504B",
"Y  c #5C554B",
"T  c #4F5150",
"R  c #515151",
"E  c #595554",
"W  c #585858",
"Q  c #615544",
"!  c #635846",
"~  c #625648",
"^  c #665B4E",
"/  c #6B5D4D",
"(  c #605A54",
")  c #6A5E52",
"_  c #605E5C",
"`  c #6D6254",
"'  c #716555",
"]  c #73665A",
"[  c #76695C",
"{  c #786E5E",
"}  c #7C715F",
"|  c #676767",
" . c #686767",
".. c #696866",
"X. c #666769",
"o. c #6A6A69",
"O. c #7A7B76",
"+. c #7C7C7C",
"@. c #837769",
"#. c #7F7F81",
"$. c #838382",
"%. c #8B8B8B",
"&. c #93928E",
"*. c #949494",
"=. c #999997",
"-. c #979998",
";. c #9C9C9C",
":. c #A09F9B",
">. c #A5A4A1",
/* pixels */
"R f F q f q a p 8 8 f a = a - p 8 p F J p q f p s - q p a f p F s q 8 8 F q 8 8 8 q q q f a a - - - v q J a p f 8 a a q a f p q ",
"f a f f a a f q F f F p p F f T p q a p q a q a - f J F 8 f a v p a q a a p 8 f f a a F p s p s p 8 p 8 F a q f q a a q p f a v ",
"p s 8 F f 8 f 8 a p q a F a F 8 q a f p J f p q a f v 8 p f a f p f f f f a p p p q f q v p p q f 8 - - W 8 f a v a a p a q a a ",
"f a q 8 q 8 s a - a a a a a a p f 8 8 q p - $ f T p f q R f q 0 f 8 a v a F f - F F f a q f 8 - J - - = J a a 8 8 a q p a a f p ",
"q a a v v f q F F q F q T q q q q - q 8 a 8 * f T a 0 8 a f 8 a q f a f a q f q 8 v v q 8 p a 8 8 $ 8 f W q p f a a f 8 a 8 f q ",
"f p 8 - = % - 8 q - $ . - 8 = . = 8 $ . = = p K 2 F K H N N N N c N N N J P U d 3 a . = % = - $   8 f 8 - = - % f $ = q = 8 q 8 ",
"a v a q a f p v p q q a a 8 F F a p f v F H k V m > j k I A C x j V V D N x 6 5 C b n F s 8 8 p q a p q q q q 8 a F q a 8 8 q q ",
"f p - a q s a F J a a f v f q q $ a - - M I Z x N 5 u Z S N x V g m m S A A 1 t n C A H o.T a F F s a F J p F f f T f $ % $ = q ",
"a F F f f p p p f - p v p a a 8 q c M B m S A V z x e Z V x x x j m x Z m L 1 n b C S A m i f 0 q q a p 8 q q f f q p = p q p $ ",
"p a s f a F T a a a p a v v f q F M w e S V V b x x ; z ~ Z V x j m l Q C w 6 m n m m A A : i F F p q p q 8 p f p p q a p 8 p $ ",
"s f a a s q f f p p = f p q q F k V m 6 7 I N D l x u L L L z V j m V S D e n l b A B I ; l m n J p q q a f p a q a p p q q 8 8 ",
"q v - a a f a q F J 8 p a p J J S Z z V t 7 b D S k e > e e e j t j j t t ; u m A I l 1 l m V m M J F a p a a q p p p F q p q q ",
"8 - - q F q a - v f = R % f G V Q S V j N 4 I > j 9 & & & & + & X X @ % + < 1 6 t D l 7 m m A S A m K f a a q p q q q - 8 8 = a ",
"% - p - - % = p = - v s T r V x S l x V m j > 1 @ & X X % % # % % X % # % + @ 2 2 4 1 n m z m m m A k d - - q 8 8 8 8 8 p a f f ",
"f a p 8 q s q 8 f 8 8 v z g 5 x A A A S m u z 0 % # # % % $ % % % % # % % # % + * : : m m D C C A k 4 N T q p v v v J a - p p f ",
"J f a f p F a p F F f j V V e > t b l D N < M - + % % % % + % % + + % % % % % % + + 0 e C D l A 4 ; l z f T a q a v a p a a f a ",
"F p p 8 F F 8 q p a ~ k Z x A x 1 5 A N ; : 0 , X % % % % % % $ # % + % $ % $ o % + 9 2 e A m ; e A V m V V K r a a f a v p a a ",
"a f p 8 f a 8 f q c m Z Z x x x x 5 w : : r 8 , % % % % % + # % % % % + % + % % + o 9 9 , e 4 u l z k m V A z G p s a s p a p a ",
"F a q a p p 8 q F V A L S V x V l A @ : 9 r 0 , % % $ % % % % % % % % % % % % % % o 0 2 0 2 6 A x x x A D C A N p f a s s a p F ",
"F q a 8 8 f f $ x k V A x x Q x V > : u 9 q 9 , % % % % % X % % % $ $ % % % % $ + o 0 9 9 w < u x A S l C m m m f p q f q p f a ",
". . = 8 - - p a Z ] g x A m I A k O 0 y 9 r y 3 % % % # % % % % % % % % $ % % % + . d 2 9 y < 0 l I V S A j l ' v p 8 F q - - - ",
"F p v T f v v T x x ` ) g l A m @ 9 3 0 9 0 a , % % % % # % % % # % $ # % % % % % o s 8 9 y 3 2 e A Z k t @.S l N v p a a f s p ",
"J q f = f a F c x V m C ^ t k i @ r 9 r 9 r 0 , % % $ % $ % # % % % % % $ % % % % o 0 8 0 r 9 9 > k e m ) z x V N a - 8 a 8 8 % ",
"J p s o.a q s N V C m m m / N & 0 r 9 r 0 w 9 3 % % $ % # % % $ $ # % % % + + $ % o q 2 9 y 3 r , 3 ) Z x V V b A M 8 s s s 8 % ",
"8 a s 8 8 p F k C C m k V l e , y w 9 r 9 w y 2 + % $ % % % # % % % % % % $ % % % . 0 2 3 y 0 0 3 8 w V b k V C N H a a a a q $ ",
"q p a a q a a n / C m b S k < y r r 9 r 2 f f 2 + X $ + % $ % % # % # % $ % $ # % . f a 0 r 3 q 9 9 > Z A V l ! I K a a a a p = ",
"f f p a p s v n h Z C k I z : f 0 w 3 y f 8 a * + % % % # % % # % $ % % % # % % % + a 8 f M 9 w y 9 0 V A x C V k H f p q p 8 = ",
"F a 8 8 q p * u l k Z j m k : 8 r 0 8 J a 2 0 3 . % $ + % % % % % % % # % % % % % + 0 - 2 f a 0 y y 3 m b k C h k B , q q $ . - ",
"F a p p p 8 p Y ' { ` [ A S , 9 r c F q 8 q 9 2 . % $ % % % % $ % % # % % % % + % . 0 8 2 q y J 2 2 r I I [ ` } ` F p q 8 a a a ",
"- a f - F p 8 z l l j l l l 2 9 f F 8 2 8 w 9 8 + % % % % % % % $ % % % o % % $ % X 0 8 0 8 2 v a 8 9 z m k u k n J p v p s f f ",
"q F f a 8 p f N Z V l V z x 3 q 9 0 - y 9 w 9 2 + % % % # $ % # # % % $ # % % % % + 0 3 9 y 2 8 q a 3 Z l m m m m H p a p a s s ",
"F p 8 8 - 8 f J Q A b I Q k 3 F - 2 9 q 0 r 0 , % % % % % % % % % % % % $ % % # % . q 8 3 q 9 8 - c 2 V I D b I D H f s s s f F ",
"p F q q a 8 a S V N C l S l < y 2 r 3 y 9 r r 2 % % % % % % % % # % % X % % % % % . q 9 9 r 9 0 2 d 3 N S x m C l U f v q % f p ",
"f a a p p p 0 A h Z S k S N 3 8 r y 0 r 0 r r , % % % % $ % # % $ % % % % $ % # % . d 2 0 0 9 r 8 2 9 A V m S m m K f f F - 8 - ",
"p f 8 p s q s K D Q I L k z : f 9 r 0 y 0 r r 2 # % % % % % $ % % % # % % % % % % o q 3 0 r 9 r 9 9 3 m V I A ! A M , q q q p a ",
"a a 8 q q 8 s z b l l l k V 2 y 2 r w r 0 9 0 , # % % % # % % # % % $ % % % $ # % % 0 2 0 r 9 0 d r 3 N z l l l z N - - - - q p ",
"- 8 8 = # F F n S x k C k m < 2 9 r 0 r 9 w 9 , $ % % % $ % % % % $ % % # % % # % % 0 8 0 0 0 0 0 q 3 A k m l b n f - % . $ % p ",
"f q p q q a f Z S C z S L z 3 9 8 r 0 r 0 0 r , % % % % $ % $ % % % # % $ % $ # % . a 8 0 w 0 0 2 2 3 A D C b S A F v a - 8 a a ",
"a p p p 9 8 f L A A C S L k < 9 9 y 0 y 9 r r 8 % % $ % % % $ $ % % % % % % % % % % d 8 0 r 9 0 8 8 < N D A b S A K q a q q f q ",
"s q p q a q a I g A I g I Z 3 8 0 0 4 y 9 r 9 q . % % % % % $ $ % # $ % % % % % $ $ 9 3 0 r 0 r 2 9 0 S A m D C m U a f a s a - ",
"p 8 8 8 8 8 f v h g l g t e : f 9 r 0 y 0 0 y d o = = = - = = = = = = = = - = % = % a 8 0 r 9 0 9 9 < t t k h t u K s a 8 - q q ",
"8 a a q 8 8 f A S I A S N A , s 9 w 9 e 9 f 9 0 q q q 8 q 8 q q q 8 8 q 8 q q q q q 8 p 9 r 9 0 a 0 0 A V D D D A M q 8 v f p . ",
"a F s F f J F N A l k C l k < 9 9 0 0 y M 8 F - M f f f f f v f f f f v f f f f f f y q d 0 9 0 r r 3 N b b b b m f = o 8 = a J ",
"f 8 8 = = f J N A n m C A l 3 9 9 0 0 F q 2 2 0 E R R J T T T R R T T T R R R J R R 8 - 9 J d 0 2 2 0 A C m b C m H a p a p p f ",
"8 q q s q 8 f I Q A m Q I j 1 8 3 c F q 8 9 0 9 .. .| | | | | | X.X.|  .| | | |  .o.8 8 , v y a 8 8 3 C I D b I L P f a f f a q ",
"a a q p a p M Y g A L g I N 2 0 a F 8 8 2 r r 9 +.+.+.+.O.+.+.+.+.+.+.+.+.+.+.+.+.#.0 2 9 2 8 F d 8 4 B C b D b v J f a p a p q ",
"p q s p a 8 F m g t z g u u , r r 2 - 0 0 w y 3 *.%.%.%.$.%.%.%.%.%.%.%.%.%.%.%.%.&.q q 2 y , a 0 a 2 u t u b t t B a q p a a 8 ",
"v p , p q a H Y / [ ' ' A S 3 F - 9 0 r 2 r 0 9 :.*.-.*.=.=.-.=.*.*.-.*.*.*.*.*.=.;., 8 9 r q , , F 9 ! D ] / [ ` K q a p q 8 8 ",
"q p p a f a F m m k l b l l : q 0 y 2 y 2 w r 9 >.;.;.;.-.;.;.-.;.;.;.;.;.-.;.;.;.>.8 0 9 r 9 9 2 p 2 n m k l l m M a 8 a q f F ",
"$ - 8 - = - s C V m V V V z 2 f 2 q 9 y 2 q 9 2 =.*.*.*.*.*.*.*.*.*.*.-.*.*.*.&.*.=.8 9 9 r 9 r 0 2 0 A b m C l b M 8 - 8 % . . ",
"a f s s a T T L ! I b ! I j 1 0 9 w 9 y 3 q 9 E $.+.#.#.#.+.#.#.#.#.+.@.#.+.#.#.#.$.r 9 9 r 0 0 a y 3 C ! C N ! D K a s q a v v ",
"J s a F p F R I h A C l S b < 8 0 0 3 r 0 0 M o...| X.X.| X.X.X.X.X.X.| X.X.X.X.| | _ 9 9 r 3 0 2 0 3 C m b C b k Y - T f v f J ",
"p p 8 F a a f N g g x k m k : 2 9 0 9 r 8 a W T U T T T R R R R T T T T T T R R J R E v 2 r 9 0 8 2 3 b n b l u i J p a a a a s ",
"p p f a f a v Y / ] ) ' A Z 2 q 0 q 0 q q F v F F F F v F F v v F v v v v v F v F v F F y q 9 r 4 8 8 D B ' ! [ ^ T s s p q f a ",
"f f f F a q T n l k k l j l < a q q 8 p f a a a s s s a a a a f s a a s s a a a a a s s f q q q 8 2 2 b b b u b z K a a a f a a ",
"8 8 - - q 8 f G V l z C m m < f 8 q 8 q p q q p p q p p p q p p p p p p q p p p p q p a q p 8 q v 2 0 C b m b k m K q s f s a s ",
"- - 8 8 p 8 y B Q I S Q Q k > 9 q q 8 8 q 8 q 8 8 8 q 8 8 8 q 8 8 8 q q 8 q q 8 8 8 8 8 8 8 8 q r r 3 A I I A I L U s 8 0 q q - ",
"q p a q q v G L l S A x S k , 0 q 8 - 8 8 - - 8 8 - 8 - 8 8 - 8 8 8 - 8 - - - - 8 - 8 8 8 8 8 8 8 8 9 B S m A Z x U a q s v p v ",
"q p q f a a J J k V V k A A , 3 - - - - - - - - - - = - - - - - = - 8 - - - - - 8 = - - - - - - - 2 < A m m H N k ( F f p f q f ",
"f a v q f v f a d d d p q f a f a a a a a f v a q a a a q a f f s p a p p f a f p p s J q a f a s f q F s F f s f f f q q 8 q p ",
"q 8 p p v p p q p q q 8 p q q p p a a q q q 8 q 8 p p q q p p a p p q q f 8 a 8 q 8 a 8 p a q - f 8 - 8 f p v a p p - 8 - p q q ",
"8 8 a q q f q p p a a p q q 8 , a 8 p a q a q 8 8 q q q q q p q p 8 8 p 8 q p p s q s 8 p p q q q q p p q a q f 8 s v a q p p p ",
"f a v q p s a q 8 a p a a p a q q 8 8 q q q q q 8 q p q q q q q p q J p p q a p q q a a q p a a p 8 f f p p a a p 8 p p a q f a ",
"v v 8 p - - = = - q 8 p - 8 q p a f q p p a a q 8 8 a q 8 8 q q q p q q p p p f q 8 p a a p 8 q q 8 a f p 8 8 p s 8 q q q - s F "
};
