/* XPM */
static char *result[] = {
/* columns rows colors chars-per-pixel */
"64 74 187 2 ",
"   c #010000",
".  c #0B0201",
"X  c #0D0A02",
"o  c #0C0B0A",
"O  c #140100",
"+  c #1C0201",
"@  c #110D03",
"#  c #110E0C",
"$  c #151105",
"%  c #1B1506",
"&  c #1D1905",
"*  c #14110F",
"=  c #1E1808",
"-  c #161514",
";  c #1F1F1F",
":  c #1C1714",
">  c #250201",
",  c #2C0301",
"<  c #2D0902",
"1  c #270901",
"2  c #330402",
"3  c #3B0502",
"4  c #330C02",
"5  c #3E0801",
"6  c #231B06",
"7  c #221B09",
"8  c #231E1B",
"9  c #2C2203",
"0  c #2C230B",
"q  c #31270A",
"w  c #3A2309",
"e  c #342A0C",
"r  c #392D0E",
"t  c #3F300D",
"y  c #29221E",
"u  c #3F3210",
"i  c #2B2724",
"p  c #312D2B",
"a  c #392E29",
"s  c #3D322D",
"d  c #37302D",
"f  c #373534",
"g  c #3C3B3B",
"h  c #430401",
"j  c #4B0401",
"k  c #4C0901",
"l  c #460B02",
"z  c #540501",
"x  c #540902",
"c  c #5B0B02",
"v  c #5D0702",
"b  c #630401",
"n  c #6D0201",
"m  c #640C02",
"M  c #6D0C02",
"N  c #710201",
"B  c #7C0000",
"V  c #710E02",
"C  c #7A0C02",
"Z  c #681A08",
"A  c #731102",
"S  c #7A1403",
"D  c #781C04",
"F  c #462B0D",
"G  c #42340C",
"H  c #423612",
"J  c #4D3B12",
"K  c #5F3E12",
"L  c #783411",
"P  c #40342F",
"I  c #413D3B",
"U  c #404100",
"Y  c #524214",
"T  c #5D4C19",
"R  c #794913",
"E  c #69551B",
"W  c #745D1C",
"Q  c #78611A",
"!  c #4F4039",
"~  c #4D4846",
"^  c #4B4949",
"/  c #4A4543",
"(  c #5C4B43",
")  c #514945",
"_  c #5C5B5B",
"`  c #66524A",
"'  c #6A564D",
"]  c #705B52",
"[  c #756158",
"{  c #696868",
"}  c #736761",
"|  c #7A6D67",
" . c #726F6E",
".. c #776861",
"X. c #7E716B",
"o. c #727272",
"O. c #787574",
"+. c #840301",
"@. c #8C0501",
"#. c #840B02",
"$. c #8B0D02",
"%. c #940501",
"&. c #9C0200",
"*. c #930C02",
"=. c #9B0D02",
"-. c #851303",
";. c #8C1303",
":. c #961102",
">. c #9A1304",
",. c #951C04",
"<. c #9E1904",
"1. c #A40100",
"2. c #AB0301",
"3. c #A40C02",
"4. c #AD0E02",
"5. c #B50C02",
"6. c #B50B02",
"7. c #A41303",
"8. c #AD1203",
"9. c #A61904",
"0. c #B51303",
"q. c #BD1303",
"w. c #B41804",
"e. c #BB1A04",
"r. c #8B260B",
"t. c #982705",
"y. c #A52506",
"u. c #A82005",
"i. c #BF2D07",
"p. c #C11503",
"a. c #C41C04",
"s. c #C91E05",
"d. c #C32105",
"f. c #CC2406",
"g. c #C52B07",
"h. c #CF2C07",
"j. c #D12706",
"k. c #D52A07",
"l. c #D53107",
"z. c #DB3107",
"x. c #DE3408",
"c. c #954F15",
"v. c #876B1F",
"b. c #886A1C",
"n. c #916F25",
"m. c #A37C2B",
"M. c #8C766C",
"N. c #837D7B",
"B. c #897A72",
"V. c #B2882F",
"C. c #C29433",
"Z. c #D6DD00",
"A. c #948279",
"S. c #9B887F",
"D. c #8E8A89",
"F. c #8C8582",
"G. c #9D8A82",
"H. c #938D8B",
"J. c #9B908B",
"K. c #9D9996",
"L. c #A49289",
"P. c #A69A95",
"I. c #AC9B94",
"U. c #AD9F99",
"Y. c #B2A49E",
"T. c #AFA7A3",
"R. c #AEADAD",
"E. c #AEA8A6",
"W. c #B3AFAE",
"Q. c #B9ACA7",
"!. c #BDB0AB",
"~. c #B6B0AE",
"^. c #C0B2AC",
"/. c #C4BDB9",
"(. c #C7C1BE",
"). c #CDC6C3",
"_. c #CBC8C6",
"`. c #D0C7C3",
"'. c #D7D5D5",
"]. c #E1DCDA",
"[. c #E4E0DE",
"{. c #E5E4E4",
"}. c #EAE7E6",
"|. c #EDEAE9",
" X c #FCFCFC",
".X c #F4F2F1",
"XX c None",
/* pixels */
"XXXXXXXXXXXXXXXXXXXXXXXXXXXXXXXXXXXXXXXXXXXXXXXXXXXXXXXXXXXXXXXXXXXXXXXXXXXXXXXXXXXXXXXXXXXXXXXXXXXXXXXXXXXXXXXXXXXXXXXXXXXXXXXX",
"XXXXXXXXXXXXXXXXXXXXXXXXXXXXXXXXXXXXXXXXXXXXXXXXXXXXXXXXXXXXXXXXXXXXXXXXXXXXXXXXXXXXXXXXXXXXXXXXXXXXXXXXXXXXXXXXXXXXXXXXXXXXXXXX",
"XXXXXXXXXXXXXXXXXXXXXXXXXXXXXXXXXXXXXXXXXXXXXXXXXXXXXXXXXXXXXXXXXXXXXXXXXXXXXXXXXXXXXXXXXXXXXXXXXXXXXXXXXXXXXXXXXXXXXXXXXXXXXXXX",
"XXXXXXXXXXXXXXXXXXXXXXXXXXXXXXXXXXXXXXXXXXXXXXXXXXXXXXXXXXXXXXXXXXXXXXXXXXXXXXXXXXXXXXXXXXXXXXXXXXXXXXXXXXXXXXXXXXXXXXXXXXXXXXXX",
"XXXXXXXXXXXXXXXXXXXXXXXXXXXXXXXXXXXXXXXXXXXXXXXXXXXXXXXXXXXXXXXXXXXXXXXXXXXXXXXXXXXXXXXXXXXXXXXXXXXXXXXXXXXXXXXXXXXXXXXXXXXXXXXX",
"XXXXXXXXXXXXXXXXXXXXXXXXXXXXXXXXXXXXXXXXXXXXXXXXXXXXXXXXXXXXXXXXXXXXXXXXXXXXXXXXXXXXXXXXXXXXXXXXXXXXXXXXXXXXXXXXXXXXXXXXXXXXXXXX",
"XXXXXXXXXXXXXXXXXXXXXXXXXXXXXXXXXXXXXXXXXXXXXXXXXXXXXXXXXXXXXXXXXXXXXXXXXXXXXXXXXXXXXXXXXXXXXXXXXXXXXXXXXXXXXXXXXXXXXXXXXXXXXXXX",
"XXXXXXXXXXXXXXXXXXXXXXXXXXXXXXXXXXXXXXXXXXXXXXXXXXXXXXXXXXXXXXXXXXXXXXXXXXXXXXXXXXXXXXXXXXXXXXXXXXXXXXXXXXXXXXXXXXXXXXXXXXXXXXXX",
"XXXXXXXXXXXXXXXXXXXXXXXXXXXXXXXXXXXXXXXXXXXXXXXXXXXXXXXXXXXXXXXXXXXXXXXXXXXXXXXXXXXXXXXXXXXXXXXXXXXXXXXXXXXXXXXXXXXXXXXXXXXXXXXX",
"XXXXXXXXXXXXXXXXXXXXXXXXXXXXXXXXXXXXXXXXXXXXXXXXXXXXXXXXXXXXXXXXXXXXXXXXXXXXXXXXXXXXXXXXXXXXXXXXXXXXXXXXXXXXXXXXXXXXXXXXXXXXXXXX",
"XXXXXXXXXXXXXXXXXXXXXXXXXXXXXXXXXXXXXXXXXXXXXXXXXXXXXXXXXXXXXXXXXXXXXXXXXXXXXXXXXXXXXXXXXXXXXXXXXXXXXXXXXXXXXXXXXXXXXXXXXXXXXXXX",
"XXXXXXXXXXXXXXXXXXXXXXXXXXXXXXXXXXXXXXXXXXXXXXXXXXXXXXXXXXXXXXXXXXXXXXXXXXXXXXXXXXXXXXXXXXXXXXXXXXXXXXXXXXXXXXXXXXXXXXXXXXXXXXXX",
"XXXXXXXXXXXXXXXXXXXXXXXXXXXXXXXXXXXXXXXXXXXXXXXXXXXXXXXXXXXXXXXXXXXXXXXXXXXXXXXXXXXXXXXXXXXXXXXXXXXXXXXXXXXXXXXXXXXXXXXXXXXXXXXX",
"XXXXXXXXXXXXXXXXXXXXXXXXXXXXXXXXXXXXXXXXXXXX+ > O     XXXXXXXXXXXXXX. O .     XXXXXXXXXXXXXXXXXXXXXXXXXXXXXXXXXXXXXXXXXXXXXXXXXX",
"XXXXXXXXXXXXXXXXXXXXXXXXXXXXXXXXXXXXXXXX  . +.1.z   XXXXXXXXXX    O 3 M 2 . XXXXXXXXXXXXXXXXXXXXXXXXXXXXXXXXXXXXXXXXXXXXXXXXXXXX",
"XXXXXXXXXXXXXXXXXXXXXXXXXXXXXXXXXXXXXXO m 7.1.j . XXXXXXXXXX  O h m m 2 . XXXXXXXXXXXXXXXXXXXXXXXXXXXXXXXXXXXXXXXXXXXXXXXXXXXXXX",
"XXXXXXXXXXXXXXXXXXXXXXXXXXXXXXXXXXXX, @.4.2.j + XXXXXXXXXX  5 c x 5 2 . XXXXXXXXXXXXXXXXXXXXXXXXXXXXXXXXXXXXXXXXXXXXXXXXXXXXXXXX",
"XXXXXXXXXXXXXXXXXXXXXXXXXXXXXXXXXX3 #.s.2.j + XXXXXXXXXX  + x M z > O XXXXXXXXXXXXXXXXXXXXXXXXXXXXXXXXXXXXXXXXXXXXXXXXXXXXXXXXXX",
"XXXXXXXXXXXXXXXXXXXXXXXXXXXXXXXX3 #.a.p.1.O XXXXXXXXXX  O h m m h >   XXXXXXXXXXXXXXXXXXXXXXXXXXXXXXXXXXXXXXXXXXXXXXXXXXXXXXXXXX",
"XXXXXXXXXXXXXXXXXXXXXXXXXXXXXX> N 5.e.%.1.O XXXXXXXXXX  + 5 m k > O   XXXXXXXXXXXXXXXXXXXXXXXXXXXXXXXXXXXXXXXXXXXXXXXXXXXXXXXXXX",
"XXXXXXXXXXXXXXXXXXXXXXXXXXXX  z %.1.@.C 1.O XXXXXXXX7 $ X   5 5 + X $ . XXXXXXXXXXXXXXXXXXXXXXXXXXXXXXXXXXXXXXXXXXXXXXXXXXXXXXXX",
"XXXXXXXXXXXXXXXXXXXXXXXXXXXX. B 1.@.M C 1.+ XXXX  q v.E q X     @ e Y 9 . XXXXXXXXXXXXXXXXXXXXXXXXXXXXXXXXXXXXXXXXXXXXXXXXXXXXXX",
"XXXXXXXXXXXXXXXXXXXXXXXXXX  +.1.@.A M C 1.O XX    X Y V.E T = $ %         XXXXXXXXXXXXXXXXXXXXXXXXXXXXXXXXXXXXXXXXXXXXXXXXXXXXXX",
"XXXXXXXXXXXXXXXXXXXXXXXXXX  @.1.$.M m j q.O XX  @ r Y J V.W r.k 1 M $.>     XXXXXXXXXXXXXXXXXXXXXXXXXXXXXXXXXXXXXXXXXXXXXXXXXXXX",
"XXXXXXXXXXXXXXXXXXXXXXXX. N 1.@.C V c h q.O XX  r v.n.0 u r.w.#.S g.f.*.c O   XXXXXXXXXXXXXXXXXXXXXXXXXXXXXXXXXXXXXXXXXXXXXXXXXX",
"XXXXXXXXXXXXXXXXXXXXXXXXO &.1.#.M V c h q.x +   r E J @ + v #.>.8.j.x.j.7.3 2 1 XXXXXXXXXXXXXXXXXXXXXXXXXXXXXXXXXXXXXXXXXXXXXXXX",
"XXXXXXXXXXXXXXXXXXXXXXO 3 1.%.C V V c h 6.*.>   = e 7   , , c $.8.a.j.x.j.#.M 5   XXXXXXXXXXXXXXXXXXXXXXXXXXXXXXXXXXXXXXXXXXXXXX",
"XXXXXXXXXXXXXXXXXXXXXX+ #.1.C A V V c 3 +.0.k .   % J r > + k m ;.p.s.x.k.w.-.5   XXXXXXXXXXXXXXXXXXXXXXXXXXXXXXXXXXXXXXXXXXXXXX",
"XXXXXXXXXXXXXXXXXXXXXX> 1.1.C M V M x , 2 4.$.,   X t m.@   , m ;.9.i.g.w.$.V h   XXXXXXXXXXXXXXXXXXXXXXXXXXXXXXXXXXXXXXXXXXXXXX",
"XXXXXXXXXXXXXXXXXXXXXX, 1.V A M V x , 2 , 4.2.h       . 6 X C q.#.> . < m 8.;.5   XXXXXXXXXXXXXXXXXXXXXXXXXXXXXXXXXXXXXXXXXXXXXX",
"XXXXXXXXXXXXXXXXXXXXXX> 1.V M V M x , , 2 M 4.3.j   O c .   , #.a.t.& Z.9 2 > . XXXXXXXXXXXXXXXXXXXXXXXXXXXXXXXXXXXXXXXXXXXXXXXX",
"XXXXXXXXXXXXXXXXXXXXXX, 5.V V V V x > . . 3 V &.+.2   +       k -.,.t.U -.*.5   XXXXXXXXXXXXXXXXXXXXXXXXXXXXXXXXXXXXXXXXXXXXXXXX",
"XXXXXXXXXXXXXXXXXXXXXX, 0.C V M v < O XXXXO c C @.$.z     2 + > x S ,.C d.<.5   XXXXXXXXXXXXXXXXXXXXXXXXXXXXXXXXXXXXXXXXXXXXXXXX",
"XXXXXXXXXXXXXXXXXXXXXX< d.V V c , O XXXXXX  3 m *.6.*.+ x C x , , c V =.u.c > XXXXXXXXXXXXXXXXXXXXXXXXXXXXXXXXXXXXXXXXXXXXXXXXXX",
"XXXXXXXXXXXXXXXXXXXXXX4 l.A V 3 .   XXXXXX. + z #.%.$.A a.6.*.h + 2 k k x + XXXXXXXXXXXXXXXXXXXXXXXXXXXXXXXXXXXXXXXXXXXXXXXXXXXX",
"XXXXXXXXXXXXXXXXXXXXXX4 l.A m >   XXXXXX  , + 3 x k c x.x.a.2.n 3 2 O . , + O XXXXXXXXXXXXXXXXXXXXXXXXXXXXXXXXXXXXXXXXXXXXXXXXXX",
"XXXXXXXXXXXXXXXXXXXXXX4 l.A 3 . XXXXXXXX  , m <   > -.x.x.a.2.@.C A M 2 2 c 4   XXXXXXXXXXXXXXXXXXXXXXXXXXXXXXXXXXXXXXXXXXXXXXXX",
"XXXXXXXXXXXXXXXXXXXXXX4 l.A 3 . XXXXXXXX  c M <   > C a.q.2.#.A #.1.&.M M M ,   XXXXXXXXXXXXXXXXXXXXXXXXXXXXXXXXXXXXXXXXXXXXXXXX",
"XXXXXXXXXXXXXXXXXXXXXX4 l.A + XXXXXXXXXX  m k O . x 4.2.#.z m @.&.1.1.&.C @.h   XXXXXXXXXXXXXXXXXXXXXXXXXXXXXXXXXXXXXXXXXXXXXXXX",
"XXXXXXXXXXXXXXXXXXXXXX4 l.A O XXXXXXXXXX  + , O , C q.5.j 2 N 3.p.s.5.5.C 3.j   XXXXXXXXXXXXXXXXXXXXXXXXXXXXXXXXXXXXXXXXXXXXXXXX",
"XXXXXXXXXXXXXXXXXXXXXX< d.x O XXXXXXXXXX    . + x 3.p.0.> > @.a.f.0.:.:.z c 2 XXXXXXXXXXXXXXXXXXXXXXXXXXXXXXXXXXXXXXXXXXXXXXXXXX",
"XXXXXXXXXXXXXXXXXXXXXX, 4.>   XXXXXXXXXX    : < V p.5.C . > b <.9.@.$.$.b +   XXXXXXXXXXXXXXXXXXXXXXXXXXXXXXXXXXXXXXXXXXXXXXXXXX",
"XXXXXXXXXXXXXXXXXXXXXX, 3..   XXXXXXXXXX  . r F Z 3.3.3   + 2 m -.>.5.=.@.> ; p XXXXXXXXXXXXXXXXXXXXXXXXXXXXXXXXXXXXXXXXXXXXXXXX",
"XXXXXXXXXXXXXXXXXXXXXX> &.  XXXXXXXXXXXX  > . Y K v &.M .   k =.s.z.g.5 , . O. .  * ; ; 8 - o XXXXXXXXXXXXXXXXXXXXXXXXXXXXXXXXXX",
"XXXXXXXXXXXXXXXXXXXXXX, &.  XXXXXXXXXXXX  , .   e L 1.&..   N 1.2.p.q.q.+   O. .y S. X X XU.s       XXXXXXXXXXXXXXXXXXXXXXXXXXXX",
"XXXXXXXXXXXXXXXXXXXXXX  +   XXXXXXXXXXXX    XXXXX 4 ;.h.m O x >.s.z.j.S O ! S.T.W.!.B.p W.[.{./.A.`   XXXXXXXXXXXXXXXXXXXXXXXXXX",
"XXXXXXXXXXXXXXXXXXXXXXXX  XXXXXXXX        XXXXXXXXO c x.8.R w x 7.s.w.> N.(.).Y.| f 8 XXf / ^ g p 8     XXXXXXXXXXXXXXXXXXXXXXXX",
"XXXXXXXXXXXXXXXXXXXXXXXX  XXXXXX  g N.s             5 a.x F $ + 3 k h   ~ J.!.B.8                       XXXXXXXXXXXXXXXXXXXXXXXX",
"XXXXXXXXXXXXXXXXXXXXXXXX  XXXXXX  { }.P.a $ 7 0 = X > 0.. = 0 = = = o o.o.P.!.H._ _ _ o.o.o. .{ ~ ) a # XXXXXXXXXXXXXXXXXXXXXXXX",
"XXXXXXXXXXXXXXXXXXXXXXXXXXXXXXXX  { .X/.( 7 r H q $ > 0.w u H 0 0 e - R.W.).).T.D.D.D.R.R.R.R.K.X.| ( * XXXXXXXXXXXXXXXXXXXXXXXX",
"XXXXXXXXXXXXXXXXXXXXXXXXXXXXXXXX  _ ~.(             + <.b.0 X O 1 +     8 ..I.} o                     XXXXXXXXXXXXXXXXXXXXXXXXXX",
"XXXXXXXXXXXXXXXXXXXXXXXXXXXXXXXX        XXXXXXXXXXXX    6 Y = D x.y.    E.|.].U.( o   XXo o o o   .     XXXXXXXXXXXXXXXXXXXXXXXX",
"XXXXXXXXXXXXXXXXXXXXXXXXXXXXXXXXXXXXXXXXXXXXXXXXXXXXXX    X l u.x.y.    [ M.L.^./.T.] o H.'.}._.G.'   XXXXXXXXXXXXXXXXXXXXXXXXXX",
"XXXXXXXXXXXXXXXXXXXXXXXXXXXXXXXXXXXXXXXXXXXXXXXXXXXXO c B B =.q.;.< +   : ` I.N.~ L.]._.}.!.G...i : XXXXXXXXXXXXXXXXXXXXXXXXXXXX",
"XXXXXXXXXXXXXXXXXXXXXXXXXXXXXXXXXXXXXXXXXXXXXXXXXXXX. j #.b v z 2 + O   XXy F. .o d _ _ _ I i i XXXXXXXXXXXXXXXXXXXXXXXXXXXXXXXX",
"XXXXXXXXXXXXXXXXXXXXXXXXXXXXXXXXXXXXXXXXXXXXXXXXXXXX. + M x 3 O O > O   XXXX^ g             XXXXXXXXXXXXXXXXXXXXXXXXXXXXXXXXXXXX",
"XXXXXXXXXXXXXXXXXXXXXXXXXXXXXXXXXXXXXXXXXXXXXXXXXXXXXX  x C m > . + + @ XXXX    XXXXXXXXXXXXXXXXXXXXXXXXXXXXXXXXXXXXXXXXXXXXXXXX",
"XXXXXXXXXXXXXXXXXXXXXXXXXXXXXXXXXXXXXXXXXXXXXXXXXXXXXX  + %.8.Z $ o 6 & 6 $ . XXXXXXXXXXXXXXXXXXXXXXXXXXXXXXXXXXXXXXXXXXXXXXXXXX",
"XXXXXXXXXXXXXXXXXXXXXXXXXXXXXXXXXXXXXXXXXXXXXXXXXXXXXXXX  $.c.v.Y 7 Q   Q G X   XXXXXXXXXXXXXXXXXXXXXXXXXXXXXXXXXXXXXXXXXXXXXXXX",
"XXXXXXXXXXXXXXXXXXXXXXXXXXXXXXXXXXXXXXXXXXXXXXXXXXXXXXXX      X     .           XXXXXXXXXXXXXXXXXXXXXXXXXXXXXXXXXXXXXXXXXXXXXXXX",
"XXXXXXXXXXXXXXXXXXXXXXXXXXXXXXXXXXXXXXXXXXXXXXXXXXXXXXXXXXXXXXXXXXXXXXXXXXXXXXXXXXXXXXXXXXXXXXXXXXXXXXXXXXXXXXXXXXXXXXXXXXXXXXXX",
"XXXXXXXXXXXXXXXXXXXXXXXXXXXXXXXXXXXXXXXXXXXXXXXXXXXXXXXXXXXXXXXXXXXXXXXXXXXXXXXXXXXXXXXXXXXXXXXXXXXXXXXXXXXXXXXXXXXXXXXXXXXXXXXX",
"XXXXXXXXXXXXXXXXXXXXXXXXXXXXXXXXXXXXXXXXXXXXXXXXXXXXXXXXXXXXXXXXXXXXXXXXXXXXXXXXXXXXXXXXXXXXXXXXXXXXXXXXXXXXXXXXXXXXXXXXXXXXXXXX",
"XXXXXXXXXXXXXXXXXXXXXXXXXXXXXXXXXXXXXXXXXXXXXXXXXXXXXXXXXXXXXXXXXXXXXXXXXXXXXXXXXXXXXXXXXXXXXXXXXXXXXXXXXXXXXXXXXXXXXXXXXXXXXXXX",
"XXXXXXXXXXXXXXXXXXXXXXXXXXXXXXXXXXXXXXXXXXXXXXXXXXXXXXXXXXXXXXXXXXXXXXXXXXXXXXXXXXXXXXXXXXXXXXXXXXXXXXXXXXXXXXXXXXXXXXXXXXXXXXXX",
"XXXXXXXXXXXXXXXXXXXXXXXXXXXXXXXXXXXXXXXXXXXXXXXXXXXXXXXXXXXXXXXXXXXXXXXXXXXXXXXXXXXXXXXXXXXXXXXXXXXXXXXXXXXXXXXXXXXXXXXXXXXXXXXX",
"XXXXXXXXXXXXXXXXXXXXXXXXXXXXXXXXXXXXXXXXXXXXXXXXXXXXXXXXXXXXXXXXXXXXXXXXXXXXXXXXXXXXXXXXXXXXXXXXXXXXXXXXXXXXXXXXXXXXXXXXXXXXXXXX",
"XXXXXXXXXXXXXXXXXXXXXXXXXXXXXXXXXXXXXXXXXXXXXXXXXXXXXXXXXXXXXXXXXXXXXXXXXXXXXXXXXXXXXXXXXXXXXXXXXXXXXXXXXXXXXXXXXXXXXXXXXXXXXXXX",
"XXXXXXXXXXXXXXXXXXXXXXXXXXXXXXXXXXXXXXXXXXXXXXXXXXXXXXXXXXXXXXXXXXXXXXXXXXXXXXXXXXXXXXXXXXXXXXXXXXXXXXXXXXXXXXXXXXXXXXXXXXXXXXXX",
"XXXXXXXXXXXXXXXXXXXXXXXXXXXXXXXXXXXXXXXXXXXXXXXXXXXXXXXXXXXXXXXXXXXXXXXXXXXXXXXXXXXXXXXXXXXXXXXXXXXXXXXXXXXXXXXXXXXXXXXXXXXXXXXX",
"XXXXXXXXXXXXXXXXXXXXXXXXXXXXXXXXXXXXXXXXXXXXXXXXXXXXXXXXXXXXXXXXXXXXXXXXXXXXXXXXXXXXXXXXXXXXXXXXXXXXXXXXXXXXXXXXXXXXXXXXXXXXXXXX",
"XXXXXXXXXXXXXXXXXXXXXXXXXXXXXXXXXXXXXXXXXXXXXXXXXXXXXXXXXXXXXXXXXXXXXXXXXXXXXXXXXXXXXXXXXXXXXXXXXXXXXXXXXXXXXXXXXXXXXXXXXXXXXXXX",
"XXXXXXXXXXXXXXXXXXXXXXXXXXXXXXXXXXXXXXXXXXXXXXXXXXXXXXXXXXXXXXXXXXXXXXXXXXXXXXXXXXXXXXXXXXXXXXXXXXXXXXXXXXXXXXXXXXXXXXXXXXXXXXXX",
"XXXXXXXXXXXXXXXXXXXXXXXXXXXXXXXXXXXXXXXXXXXXXXXXXXXXXXXXXXXXXXXXXXXXXXXXXXXXXXXXXXXXXXXXXXXXXXXXXXXXXXXXXXXXXXXXXXXXXXXXXXXXXXXX"
};
