/* XPM */
static char *result[] = {
/* columns rows colors chars-per-pixel */
"64 74 187 2 ",
"   c #010000",
".  c #0B0201",
"X  c #0D0A02",
"o  c #0C0B0A",
"O  c #140100",
"+  c #1C0201",
"@  c #110D03",
"#  c #110E0C",
"$  c #151105",
"%  c #1B1506",
"&  c #1D1905",
"*  c #14110F",
"=  c #1E1808",
"-  c #161514",
";  c #1F1F1F",
":  c #1C1714",
">  c #250201",
",  c #2C0301",
"<  c #2D0902",
"1  c #270901",
"2  c #330402",
"3  c #3B0502",
"4  c #330C02",
"5  c #3E0801",
"6  c #231B06",
"7  c #221B09",
"8  c #231E1B",
"9  c #2C2203",
"0  c #2C230B",
"q  c #31270A",
"w  c #3A2309",
"e  c #342A0C",
"r  c #392D0E",
"t  c #3F300D",
"y  c #29221E",
"u  c #3F3210",
"i  c #2B2724",
"p  c #312D2B",
"a  c #392E29",
"s  c #3D322D",
"d  c #37302D",
"f  c #373534",
"g  c #3C3B3B",
"h  c #430401",
"j  c #4B0401",
"k  c #4C0901",
"l  c #460B02",
"z  c #540501",
"x  c #540902",
"c  c #5B0B02",
"v  c #5D0702",
"b  c #630401",
"n  c #6D0201",
"m  c #640C02",
"M  c #6D0C02",
"N  c #710201",
"B  c #7C0000",
"V  c #710E02",
"C  c #7A0C02",
"Z  c #681A08",
"A  c #731102",
"S  c #7A1403",
"D  c #781C04",
"F  c #462B0D",
"G  c #42340C",
"H  c #423612",
"J  c #4D3B12",
"K  c #5F3E12",
"L  c #783411",
"P  c #40342F",
"I  c #413D3B",
"U  c #404100",
"Y  c #524214",
"T  c #5D4C19",
"R  c #794913",
"E  c #69551B",
"W  c #745D1C",
"Q  c #78611A",
"!  c #4F4039",
"~  c #4D4846",
"^  c #4B4949",
"/  c #4A4543",
"(  c #5C4B43",
")  c #514945",
"_  c #5C5B5B",
"`  c #66524A",
"'  c #6A564D",
"]  c #705B52",
"[  c #756158",
"{  c #696868",
"}  c #736761",
"|  c #7A6D67",
" . c #726F6E",
".. c #776861",
"X. c #7E716B",
"o. c #727272",
"O. c #787574",
"+. c #840301",
"@. c #8C0501",
"#. c #840B02",
"$. c #8B0D02",
"%. c #940501",
"&. c #9C0200",
"*. c #930C02",
"=. c #9B0D02",
"-. c #851303",
";. c #8C1303",
":. c #961102",
">. c #9A1304",
",. c #951C04",
"<. c #9E1904",
"1. c #A40100",
"2. c #AB0301",
"3. c #A40C02",
"4. c #AD0E02",
"5. c #B50C02",
"6. c #B50B02",
"7. c #A41303",
"8. c #AD1203",
"9. c #A61904",
"0. c #B51303",
"q. c #BD1303",
"w. c #B41804",
"e. c #BB1A04",
"r. c #8B260B",
"t. c #982705",
"y. c #A52506",
"u. c #A82005",
"i. c #BF2D07",
"p. c #C11503",
"a. c #C41C04",
"s. c #C91E05",
"d. c #C32105",
"f. c #CC2406",
"g. c #C52B07",
"h. c #CF2C07",
"j. c #D12706",
"k. c #D52A07",
"l. c #D53107",
"z. c #DB3107",
"x. c #DE3408",
"c. c #954F15",
"v. c #876B1F",
"b. c #886A1C",
"n. c #916F25",
"m. c #A37C2B",
"M. c #8C766C",
"N. c #837D7B",
"B. c #897A72",
"V. c #B2882F",
"C. c #C29433",
"Z. c #D6DD00",
"A. c #948279",
"S. c #9B887F",
"D. c #8E8A89",
"F. c #8C8582",
"G. c #9D8A82",
"H. c #938D8B",
"J. c #9B908B",
"K. c #9D9996",
"L. c #A49289",
"P. c #A69A95",
"I. c #AC9B94",
"U. c #AD9F99",
"Y. c #B2A49E",
"T. c #AFA7A3",
"R. c #AEADAD",
"E. c #AEA8A6",
"W. c #B3AFAE",
"Q. c #B9ACA7",
"!. c #BDB0AB",
"~. c #B6B0AE",
"^. c #C0B2AC",
"/. c #C4BDB9",
"(. c #C7C1BE",
"). c #CDC6C3",
"_. c #CBC8C6",
"`. c #D0C7C3",
"'. c #D7D5D5",
"]. c #E1DCDA",
"[. c #E4E0DE",
"{. c #E5E4E4",
"}. c #EAE7E6",
"|. c #EDEAE9",
" X c #FCFCFC",
".X c #F4F2F1",
"XX c None",
/* pixels */
"XXXXXXXXXXXXXXXXXXXXXXXXXXXXXXXXXXXXXXXXXXXXXXXXXXXXXXXXXXXXXXXXXXXXXXXXXXXXXXXXXXXXXXXXXXXXXXXXXXXXXXXXXXXXXXXXXXXXXXXXXXXXXXXX",
"XXXXXXXXXXXXXXXXXXXXXXXXXXXXXXXXXXXXXXXXXXXXXXXXXXXXXXXXXXXXXXXXXXXXXXXXXXXXXXXXXXXXXXXXXXXXXXXXXXXXXXXXXXXXXXXXXXXXXXXXXXXXXXXX",
"XXXXXXXXXXXXXXXXXXXXXXXXXXXXXXXXXXXXXXXXXXXXXXXXXXXXXXXXXXXXXXXXXXXXXXXXXXXXXXXXXXXXXXXXXXXXXXXXXXXXXXXXXXXXXXXXXXXXXXXXXXXXXXXX",
"XXXXXXXXXXXXXXXXXXXXXXXXXXXXXXXXXXXXXXXXXXXXXXXXXXXXXXXXXXXXXXXXXXXXXXXXXXXXXXXXXXXXXXXXXXXXXXXXXXXXXXXXXXXXXXXXXXXXXXXXXXXXXXXX",
"XXXXXXXXXXXXXXXXXXXXXXXXXXXXXXXXXXXXXXXXXXXXXXXXXXXXXXXXXXXXXXXXXXXXXXXXXXXXXXXXXXXXXXXXXXXXXXXXXXXXXXXXXXXXXXXXXXXXXXXXXXXXXXXX",
"XXXXXXXXXXXXXXXXXXXXXXXXXXXXXXXXXXXXXXXXXXXXXXXXXXXXXXXXXXXXXXXXXXXXXXXXXXXXXXXXXXXXXXXXXXXXXXXXXXXXXXXXXXXXXXXXXXXXXXXXXXXXXXXX",
"XXXXXXXXXXXXXXXXXXXXXXXXXXXXXXXXXXXXXXXXXXXXXXXXXXXXXXXXXXXXXXXXXXXXXXXXXXXXXXXXXXXXXXXXXXXXXXXXXXXXXXXXXXXXXXXXXXXXXXXXXXXXXXXX",
"XXXXXXXXXXXXXXXXXXXXXXXXXXXXXXXXXXXXXXXXXXXXXXXXXXXXXXXXXXXXXXXXXXXXXXXXXXXXXXXXXXXXXXXXXXXXXXXXXXXXXXXXXXXXXXXXXXXXXXXXXXXXXXXX",
"XXXXXXXXXXXXXXXXXXXXXXXXXXXXXXXXXXXXXXXXXXXXXXXXXXXXXXXXXXXXXXXXXXXXXXXXXXXXXXXXXXXXXXXXXXXXXXXXXXXXXXXXXXXXXXXXXXXXXXXXXXXXXXXX",
"XXXXXXXXXXXXXXXXXXXXXXXXXXXXXXXXXXXXXXXXXXXXXXXXXXXXXXXXXXXXXXXXXXXXXXXXXXXXXXXXXXXXXXXXXXXXXXXXXXXXXXXXXXXXXXXXXXXXXXXXXXXXXXXX",
"XXXXXXXXXXXXXXXXXXXXXXXXXXXXXXXXXXXXXXXXXXXXXXXXXXXXXXXXXXXXXXXXXXXXXXXXXXXXXXXXXXXXXXXXXXXXXXXXXXXXXXXXXXXXXXXXXXXXXXXXXXXXXXXX",
"XXXXXXXXXXXXXXXXXXXXXXXXXXXXXXXXXXXXXXXXXXXXXXXXXXXXXXXXXXXXXXXXXXXXXXXXXXXXXXXXXXXXXXXXXXXXXXXXXXXXXXXXXXXXXXXXXXXXXXXXXXXXXXXX",
"XXXXXXXXXXXXXXXXXXXXXXXXXXXXXXXXXXXXXXXXXXXXXXXXXXXXXXXXXXXXXXXXXXXXXXXXXXXXXXXXXXXXXXXXXXXXXXXXXXXXXXXXXXXXXXXXXXXXXXXXXXXXXXXX",
"XXXXXXXXXXXXXXXXXXXXXXXXXXXXXXXXXXXXXXXXXXXXXXXXXX    . O . XXXXXXXXXXXXXX    O + + XXXXXXXXXXXXXXXXXXXXXXXXXXXXXXXXXXXXXXXXXXXX",
"XXXXXXXXXXXXXXXXXXXXXXXXXXXXXXXXXXXXXXXXXXXXXXXXXXXX. 2 M 3 O     XXXXXXXXXX  z 1.B .   XXXXXXXXXXXXXXXXXXXXXXXXXXXXXXXXXXXXXXXX",
"XXXXXXXXXXXXXXXXXXXXXXXXXXXXXXXXXXXXXXXXXXXXXXXXXXXXXX. 2 m m h +   XXXXXXXXXX. j 2.3.m O XXXXXXXXXXXXXXXXXXXXXXXXXXXXXXXXXXXXXX",
"XXXXXXXXXXXXXXXXXXXXXXXXXXXXXXXXXXXXXXXXXXXXXXXXXXXXXXXX. 2 3 x x 5   XXXXXXXXXX+ j 2.8.+., XXXXXXXXXXXXXXXXXXXXXXXXXXXXXXXXXXXX",
"XXXXXXXXXXXXXXXXXXXXXXXXXXXXXXXXXXXXXXXXXXXXXXXXXXXXXXXXXXO > x V x +   XXXXXXXXXX> j 2.s.#.3 XXXXXXXXXXXXXXXXXXXXXXXXXXXXXXXXXX",
"XXXXXXXXXXXXXXXXXXXXXXXXXXXXXXXXXXXXXXXXXXXXXXXXXXXXXXXXXX  > h m m l O   XXXXXXXXXXO 1.p.a.#.3 XXXXXXXXXXXXXXXXXXXXXXXXXXXXXXXX",
"XXXXXXXXXXXXXXXXXXXXXXXXXXXXXXXXXXXXXXXXXXXXXXXXXXXXXXXXXX  O > k m h +   XXXXXXXXXXO 1.&.e.0.N > XXXXXXXXXXXXXXXXXXXXXXXXXXXXXX",
"XXXXXXXXXXXXXXXXXXXXXXXXXXXXXXXXXXXXXXXXXXXXXXXXXXXXXXXXX $ X + 3 5   X $ 6 XXXXXXXXO 1.C @.1.%.x   XXXXXXXXXXXXXXXXXXXXXXXXXXXX",
"XXXXXXXXXXXXXXXXXXXXXXXXXXXXXXXXXXXXXXXXXXXXXXXXXXXXXX. 6 Y q @     X q E b.0   XXXXO 1.C M @.1.B . XXXXXXXXXXXXXXXXXXXXXXXXXXXX",
"XXXXXXXXXXXXXXXXXXXXXXXXXXXXXXXXXXXXXXXXXXXXXXXXXXXXXX        $ $ = T E C.J X     XXO 2.C V M @.1.+.  XXXXXXXXXXXXXXXXXXXXXXXXXX",
"XXXXXXXXXXXXXXXXXXXXXXXXXXXXXXXXXXXXXXXXXXXXXXXXXXXX  . > ;.M 1 k r.W V.J Y e X   XX+ 5.k c V $.2.+.  XXXXXXXXXXXXXXXXXXXXXXXXXX",
"XXXXXXXXXXXXXXXXXXXXXXXXXXXXXXXXXXXXXXXXXXXXXXXXXX  O x *.f.g.S C w.r.H 6 n.v.r   XXO q.h c V V @.&.N . XXXXXXXXXXXXXXXXXXXXXXXX",
"XXXXXXXXXXXXXXXXXXXXXXXXXXXXXXXXXXXXXXXXXXXXXXXX, < h 7.j.x.j.w.=.-.v O @ J W r   O x q.h c V V #.2.1.. XXXXXXXXXXXXXXXXXXXXXXXX",
"XXXXXXXXXXXXXXXXXXXXXXXXXXXXXXXXXXXXXXXXXXXXXX  5 M -.f.x.k.p.7.#.x < ,   7 e %   > *.6.h v V V C %.1.3 + XXXXXXXXXXXXXXXXXXXXXX",
"XXXXXXXXXXXXXXXXXXXXXXXXXXXXXXXXXXXXXXXXXXXXXX  5 $.w.k.x.s.p.:.M k > > r J %   . j q.+.3 v V V M C 2.#.+ XXXXXXXXXXXXXXXXXXXXXX",
"XXXXXXXXXXXXXXXXXXXXXXXXXXXXXXXXXXXXXXXXXXXXXX  5 V ;.0.g.i.8.;.m ,   @ m.G X   , $.8., , x M V V C &.2.> XXXXXXXXXXXXXXXXXXXXXX",
"XXXXXXXXXXXXXXXXXXXXXXXXXXXXXXXXXXXXXXXXXXXXXX  5 :.7.m 2   > #.q.C X 6         h 2.4.2 , < x V V V V 1.> XXXXXXXXXXXXXXXXXXXXXX",
"XXXXXXXXXXXXXXXXXXXXXXXXXXXXXXXXXXXXXXXXXXXXXXXX. > 2 9 Z.& t.e.#.>   X c O   j 1.8.V , 2 , x V M V V 1.> XXXXXXXXXXXXXXXXXXXXXX",
"XXXXXXXXXXXXXXXXXXXXXXXXXXXXXXXXXXXXXXXXXXXXXXXX  5 *.-.U t.t.-.j .     +   2 +.&.V 3 . . > x M A M V 6., XXXXXXXXXXXXXXXXXXXXXX",
"XXXXXXXXXXXXXXXXXXXXXXXXXXXXXXXXXXXXXXXXXXXXXXXX  5 9.d.V <.S x > + 2     z @.*.C c O XXXXO , c V V V q.> XXXXXXXXXXXXXXXXXXXXXX",
"XXXXXXXXXXXXXXXXXXXXXXXXXXXXXXXXXXXXXXXXXXXXXXXXXX1 c u.=.V v , > x #.x + %.6.$.m 3   XXXXXXO 2 c M V d.4 XXXXXXXXXXXXXXXXXXXXXX",
"XXXXXXXXXXXXXXXXXXXXXXXXXXXXXXXXXXXXXXXXXXXXXXXXXXXX+ x k k 2 + h *.5.a.A -.%.#.x + . XXXXXX  . 3 V A l.4 XXXXXXXXXXXXXXXXXXXXXX",
"XXXXXXXXXXXXXXXXXXXXXXXXXXXXXXXXXXXXXXXXXXXXXXXXXXO + > . O 2 5 N 2.a.x.x.c k x 5 + ,   XXXXXX  + m A l.4 XXXXXXXXXXXXXXXXXXXXXX",
"XXXXXXXXXXXXXXXXXXXXXXXXXXXXXXXXXXXXXXXXXXXXXXXX  < v 2 2 M V V $.2.a.x.x.-.>   < m ,   XXXXXXXXO 3 A l.4 XXXXXXXXXXXXXXXXXXXXXX",
"XXXXXXXXXXXXXXXXXXXXXXXXXXXXXXXXXXXXXXXXXXXXXXXX  < V M M &.1.#.V #.2.q.p.-.>   , M v   XXXXXXXX. 3 A l.4 XXXXXXXXXXXXXXXXXXXXXX",
"XXXXXXXXXXXXXXXXXXXXXXXXXXXXXXXXXXXXXXXXXXXXXXXX  h @.C 1.1.1.1.@.m z #.2.4.x O + l m   XXXXXXXXXX+ A l.4 XXXXXXXXXXXXXXXXXXXXXX",
"XXXXXXXXXXXXXXXXXXXXXXXXXXXXXXXXXXXXXXXXXXXXXXXX  j 3.C 5.5.a.q.3.N 2 k 4.q.C > . , >   XXXXXXXXXXO A l.4 XXXXXXXXXXXXXXXXXXXXXX",
"XXXXXXXXXXXXXXXXXXXXXXXXXXXXXXXXXXXXXXXXXXXXXXXXXX2 x x =.:.e.f.p.+., > 0.p.3.x + .     XXXXXXXXXXO x a.4 XXXXXXXXXXXXXXXXXXXXXX",
"XXXXXXXXXXXXXXXXXXXXXXXXXXXXXXXXXXXXXXXXXXXXXXXXXX  + b ;.@.@.9.<.M >   C 0.q.N < :     XXXXXXXXXX  + 4., XXXXXXXXXXXXXXXXXXXXXX",
"XXXXXXXXXXXXXXXXXXXXXXXXXXXXXXXXXXXXXXXXXXXXXXXXp 8 > @.=.6.:.-.m 2 +   3 =.3.D F r .   XXXXXXXXXX    4.> XXXXXXXXXXXXXXXXXXXXXX",
"XXXXXXXXXXXXXXXXXXXXXXXXXXXXXXXXXXo - 8 ; ; o o  .O.. , 5 g.z.s.=.k   . M &.v Y Y . >   XXXXXXXXXXXX. &.> XXXXXXXXXXXXXXXXXXXXXX",
"XXXXXXXXXXXXXXXXXXXXXXXXXXXX      s P. X X XS.y  .O.  + q.p.p.2.2.n   . &.1.L e   . >   XXXXXXXXXXXX  &.> XXXXXXXXXXXXXXXXXXXXXX",
"XXXXXXXXXXXXXXXXXXXXXXXXXXo ` B./.[.{.E.p B.!.~.T.S.! O C h.z.s.=.z O m h.;.4 X XXXX    XXXXXXXXXXXX  + . XXXXXXXXXXXXXXXXXXXXXX",
"XXXXXXXXXXXXXXXXXXXXXXXX    8 p I ^ / f XX8 f | Y.)./.N.> w.a.>.x w R 8.z.c O XXXXXXXX        XXXXXXXX  XXXXXXXXXXXXXXXXXXXXXXXX",
"XXXXXXXXXXXXXXXXXXXXXXXX                      8 B.!.J.^   l k 5 + $ F x a.5 .           P N.g   XXXXXX  XXXXXXXXXXXXXXXXXXXXXXXX",
"XXXXXXXXXXXXXXXXXXXXXXXX# a ) ) {  . .o. ._ _ _ H.^.P.o.o.# = = & 0 7 . 8., X 7 0 7 $ a P.|.{   XXXXXX  XXXXXXXXXXXXXXXXXXXXXXXX",
"XXXXXXXXXXXXXXXXXXXXXXXX- ( | X.K.R.R.R.R.D.D.D.T.(.).W.R.- e 0 0 H u w 0.> @ q H r 7 ( /..X{   XXXXXXXXXXXXXXXXXXXXXXXXXXXXXXXX",
"XXXXXXXXXXXXXXXXXXXXXXXXXX                    o } I...8     + 1 O X 0 b.>.>             ( W._   XXXXXXXXXXXXXXXXXXXXXXXXXXXXXXXX",
"XXXXXXXXXXXXXXXXXXXXXXXX      o o o o o XXo o ( U.].|.E.    y.x.D = Y 6     XXXXXXXXXXXX        XXXXXXXXXXXXXXXXXXXXXXXXXXXXXXXX",
"XXXXXXXXXXXXXXXXXXXXXXXXXX. ' G._.|.'.H.o ] T.(.!.L.M.[     y.x.y.l .     XXXXXXXXXXXXXXXXXXXXXXXXXXXXXXXXXXXXXXXXXXXXXXXXXXXXXX",
"XXXXXXXXXXXXXXXXXXXXXXXXXXXX- i [ G.!.|._.].L.) N.U.` :   + 4 -.0.3.#.B x O XXXXXXXXXXXXXXXXXXXXXXXXXXXXXXXXXXXXXXXXXXXXXXXXXXXX",
"XXXXXXXXXXXXXXXXXXXXXXXXXXXXXXXXy i g _ _ _ d o o.F.i XX  O + 2 z b b C j . XXXXXXXXXXXXXXXXXXXXXXXXXXXXXXXXXXXXXXXXXXXXXXXXXXXX",
"XXXXXXXXXXXXXXXXXXXXXXXXXXXXXXXXXXXX            f ^ XXXX  O > O O 3 x M + . XXXXXXXXXXXXXXXXXXXXXXXXXXXXXXXXXXXXXXXXXXXXXXXXXXXX",
"XXXXXXXXXXXXXXXXXXXXXXXXXXXXXXXXXXXXXXXXXXXXXXXX    XXXXX + > . > n C x   XXXXXXXXXXXXXXXXXXXXXXXXXXXXXXXXXXXXXXXXXXXXXXXXXXXXXX",
"XXXXXXXXXXXXXXXXXXXXXXXXXXXXXXXXXXXXXXXXXXXXXXXXXX. @ & 6 = X % Z 7.@.>   XXXXXXXXXXXXXXXXXXXXXXXXXXXXXXXXXXXXXXXXXXXXXXXXXXXXXX",
"XXXXXXXXXXXXXXXXXXXXXXXXXXXXXXXXXXXXXXXXXXXXXXXX  X G Q   Q 6 Y v.c.#.  XXXXXXXXXXXXXXXXXXXXXXXXXXXXXXXXXXXXXXXXXXXXXXXXXXXXXXXX",
"XXXXXXXXXXXXXXXXXXXXXXXXXXXXXXXXXXXXXXXXXXXXXXXX      .         X   .   XXXXXXXXXXXXXXXXXXXXXXXXXXXXXXXXXXXXXXXXXXXXXXXXXXXXXXXX",
"XXXXXXXXXXXXXXXXXXXXXXXXXXXXXXXXXXXXXXXXXXXXXXXXXXXXXXXXXXXXXXXXXXXXXXXXXXXXXXXXXXXXXXXXXXXXXXXXXXXXXXXXXXXXXXXXXXXXXXXXXXXXXXXX",
"XXXXXXXXXXXXXXXXXXXXXXXXXXXXXXXXXXXXXXXXXXXXXXXXXXXXXXXXXXXXXXXXXXXXXXXXXXXXXXXXXXXXXXXXXXXXXXXXXXXXXXXXXXXXXXXXXXXXXXXXXXXXXXXX",
"XXXXXXXXXXXXXXXXXXXXXXXXXXXXXXXXXXXXXXXXXXXXXXXXXXXXXXXXXXXXXXXXXXXXXXXXXXXXXXXXXXXXXXXXXXXXXXXXXXXXXXXXXXXXXXXXXXXXXXXXXXXXXXXX",
"XXXXXXXXXXXXXXXXXXXXXXXXXXXXXXXXXXXXXXXXXXXXXXXXXXXXXXXXXXXXXXXXXXXXXXXXXXXXXXXXXXXXXXXXXXXXXXXXXXXXXXXXXXXXXXXXXXXXXXXXXXXXXXXX",
"XXXXXXXXXXXXXXXXXXXXXXXXXXXXXXXXXXXXXXXXXXXXXXXXXXXXXXXXXXXXXXXXXXXXXXXXXXXXXXXXXXXXXXXXXXXXXXXXXXXXXXXXXXXXXXXXXXXXXXXXXXXXXXXX",
"XXXXXXXXXXXXXXXXXXXXXXXXXXXXXXXXXXXXXXXXXXXXXXXXXXXXXXXXXXXXXXXXXXXXXXXXXXXXXXXXXXXXXXXXXXXXXXXXXXXXXXXXXXXXXXXXXXXXXXXXXXXXXXXX",
"XXXXXXXXXXXXXXXXXXXXXXXXXXXXXXXXXXXXXXXXXXXXXXXXXXXXXXXXXXXXXXXXXXXXXXXXXXXXXXXXXXXXXXXXXXXXXXXXXXXXXXXXXXXXXXXXXXXXXXXXXXXXXXXX",
"XXXXXXXXXXXXXXXXXXXXXXXXXXXXXXXXXXXXXXXXXXXXXXXXXXXXXXXXXXXXXXXXXXXXXXXXXXXXXXXXXXXXXXXXXXXXXXXXXXXXXXXXXXXXXXXXXXXXXXXXXXXXXXXX",
"XXXXXXXXXXXXXXXXXXXXXXXXXXXXXXXXXXXXXXXXXXXXXXXXXXXXXXXXXXXXXXXXXXXXXXXXXXXXXXXXXXXXXXXXXXXXXXXXXXXXXXXXXXXXXXXXXXXXXXXXXXXXXXXX",
"XXXXXXXXXXXXXXXXXXXXXXXXXXXXXXXXXXXXXXXXXXXXXXXXXXXXXXXXXXXXXXXXXXXXXXXXXXXXXXXXXXXXXXXXXXXXXXXXXXXXXXXXXXXXXXXXXXXXXXXXXXXXXXXX",
"XXXXXXXXXXXXXXXXXXXXXXXXXXXXXXXXXXXXXXXXXXXXXXXXXXXXXXXXXXXXXXXXXXXXXXXXXXXXXXXXXXXXXXXXXXXXXXXXXXXXXXXXXXXXXXXXXXXXXXXXXXXXXXXX",
"XXXXXXXXXXXXXXXXXXXXXXXXXXXXXXXXXXXXXXXXXXXXXXXXXXXXXXXXXXXXXXXXXXXXXXXXXXXXXXXXXXXXXXXXXXXXXXXXXXXXXXXXXXXXXXXXXXXXXXXXXXXXXXXX",
"XXXXXXXXXXXXXXXXXXXXXXXXXXXXXXXXXXXXXXXXXXXXXXXXXXXXXXXXXXXXXXXXXXXXXXXXXXXXXXXXXXXXXXXXXXXXXXXXXXXXXXXXXXXXXXXXXXXXXXXXXXXXXXXX",
"XXXXXXXXXXXXXXXXXXXXXXXXXXXXXXXXXXXXXXXXXXXXXXXXXXXXXXXXXXXXXXXXXXXXXXXXXXXXXXXXXXXXXXXXXXXXXXXXXXXXXXXXXXXXXXXXXXXXXXXXXXXXXXXX"
};
