/* XPM */
static char *result[] = {
/* columns rows colors chars-per-pixel */
"64 64 146 2 ",
"   c #1E251E",
".  c #20271F",
"X  c #1F2521",
"o  c #1F2823",
"O  c #232623",
"+  c #242B24",
"@  c #292D26",
"#  c #252C2A",
"$  c #2A2E2C",
"%  c #293126",
"&  c #27312D",
"*  c #2C322C",
"=  c #2B2F30",
"-  c #263031",
";  c #2D3332",
":  c #2F3833",
">  c #313533",
",  c #343B34",
"<  c #383E34",
"1  c #343B3A",
"2  c #393E3B",
"3  c #3A4034",
"4  c #36413A",
"5  c #3C433C",
"6  c #40453E",
"7  c #3C4441",
"8  c #3E4944",
"9  c #414643",
"0  c #434A43",
"q  c #4A4D46",
"w  c #434B4A",
"e  c #4A4F4A",
"r  c #4A5247",
"t  c #47514A",
"y  c #4C534B",
"u  c #4E584F",
"i  c #51564D",
"p  c #52594E",
"a  c #4B5453",
"s  c #4D5952",
"d  c #525751",
"f  c #535B54",
"g  c #595E56",
"h  c #545B59",
"j  c #5A5F59",
"k  c #546052",
"l  c #5C6557",
"z  c #566159",
"x  c #5C635C",
"c  c #5F685F",
"v  c #60665C",
"b  c #616D5D",
"n  c #5C6462",
"m  c #5F6A66",
"M  c #5F6968",
"N  c #616763",
"B  c #646C64",
"V  c #686F67",
"C  c #646D6B",
"Z  c #6A6F69",
"A  c #667264",
"S  c #697365",
"D  c #677368",
"F  c #6B746B",
"G  c #6E796C",
"H  c #70766D",
"J  c #737C6E",
"K  c #6C7472",
"L  c #6E7A71",
"P  c #6F7978",
"I  c #717771",
"U  c #737D73",
"Y  c #787E74",
"T  c #747D7A",
"R  c #7A7F7C",
"E  c #77806F",
"W  c #768275",
"Q  c #7B8375",
"!  c #76827A",
"~  c #7B857B",
"^  c #7D897D",
"/  c #80877B",
"(  c #818B7D",
")  c #7C8582",
"_  c #7E8A82",
"`  c #828D83",
"'  c #888E86",
"]  c #838E89",
"[  c #859185",
"{  c #899385",
"}  c #869887",
"|  c #899A87",
" . c #86938A",
".. c #89958C",
"X. c #8C998E",
"o. c #919B8D",
"O. c #879691",
"+. c #899691",
"@. c #879A92",
"#. c #8D9B93",
"$. c #8E9E99",
"%. c #919D94",
"&. c #919F99",
"*. c #8EA197",
"=. c #8FA199",
"-. c #92A196",
";. c #99A196",
":. c #94A39C",
">. c #99A59D",
",. c #95A99F",
"<. c #99A99E",
"1. c #A0AB9F",
"2. c #969FA1",
"3. c #95A6A1",
"4. c #99A7A1",
"5. c #96A9A2",
"6. c #9BACA4",
"7. c #94AAAA",
"8. c #9CAEA9",
"9. c #9EB0A7",
"0. c #9EB1AA",
"q. c #A2ACA4",
"w. c #A3AEAA",
"e. c #A8AFA9",
"r. c #A2B0A6",
"t. c #A3B3AC",
"y. c #A9B5AD",
"u. c #AAB9AE",
"i. c #A3B6B1",
"p. c #AAB6B2",
"a. c #A5B9B3",
"s. c #ACB9B4",
"d. c #AEBDBA",
"f. c #B2B7B3",
"g. c #B1BDB6",
"h. c #B2BDBA",
"j. c #AFC1BD",
"k. c #B5C2BD",
"l. c #B8C3BF",
"z. c #AFC0C0",
"x. c #B6C4C2",
"c. c #BBC5C4",
"v. c #BDC9C5",
"b. c #BBC6C8",
"n. c #BECBCA",
"m. c #C1CCCB",
/* pixels */
"h.X.6.4.y.k.p.4.>.6.< v.t.y.0 y.y.w.#.t.#.# k.s.e.+.e.g.y.e.r.` c./ y.w.q.w.q.y.w.i.i y.y.q.>.%.f.p.p.s.&.+ y.y.y.; t.g.t.p.g.+.",
">.*.4.:.<.,.$.[  .{ x ` / ` f [  ...`  . .7 ] ^ ..y.{ ` X.[ / / p.#.>.%.:.:.X.{ ` { < ` { / ` ` { +._ { [ ; ] ~ X.5 #...&.X.{ >.",
"e.:.>.:.$.-.+.#...X.H 1.:.X.F $.#.`  . .` 1 ` %._ 6 ] >.%.%.J ` q.&.o.#.;.{ ` Q ( ` g ( X.' ` { X. ... . .& ^ %.` y.k.:.:.#. .#.",
"t.%.-.:.#.&. .`  . .B X.:.* #.+.{ X. .#.t.> Y [ X.e.:.Q { -.-.W 6.#.%.' X.o.( ( / %.5 { { ` o.+. .X. .X.>.# ..6.:.,.` n.4.:.5.X.",
":.&.[ { ....{ ` { %.6 o.&  .X.3.:.+.{ ! &.&.:.5.q.Y >.` %.>.X.` w.%.X.X.` v Q ( A %.S Q J [ { -.&. . . .X.7 | 5.6.6.0.1 h.6.+.6.",
"y.w.4.Q  .&.%. .+.:.Y m.X.:.#.>.&.X...X.8.; <.$.X.* 6 p.-.X.o.-.u.{ o.Q  .( J ' { %.& %. .6. .4.-. .[  .9.: ,.-.3.5.*.F ( Z q.q.",
">.o.^ ^ ` ! ..T G x.b 6.*.&.<.w.5.$...:.6.7 w.[ D % r.;.^ X.J ^ q.X.Q ' { { [ X.-.%.J ;.{ { #.6.:.$. .>.6.> 5.:.5.6.{ x.,...@.y ",
"h.U X.Q  .r.y.F *.:., y.6.-.,.6.:.6.#...t.a -.X.` -.o.q.[ o.( ;.c.( o.o.%.{ -.( >.X.6 -.<.X.o.4.-.4.X.-.{ > 6.:.:.y.q.g.O.>.&...",
">.( :.' +.h x.` #.-.H 6.0.0.*.:.&.:.$.X.X.> t.| %.$.( y.[ { { J r.J { { ` %.>.Q  .^ 5 X.9.{  .#.:.-.$.f s.4 9.<.0.i.&.l.:.*.#.X.",
"y.>. .{ U -.q.w.t.3.v 6.3.6.-.&.{ 6.&.#.6.> :.>.X.#.:.v -.:.#.D k.o.Y / Q ' q.i.r.-.  <.:.-.*.%.S :.` w.:.L 6.0.t.t.r.h.0.9.:.^ ",
"d v p + p b J G D ^ $ B 0 , U H B b x 5 , ; I Y V y p i < I g 5 R * @ @ f , p 0 g x * B i i 5 f v l * 5 x @ 0 y 0 B 3 D c ~ c , ",
"h.y.%.&.>.y.6.n.-.t.r t.-.G h.#.5.#.:.*.X.7  .%...t.:.<.J ..#.o.h.0 Q { %.-.#.! ~ 6.f :.6.^ v.#.#.4.:.#. .w  .-.k.3.6.i.3.$.&.q.",
"k.+.&...#.r.t.<.D 0.* 5.,.S #.X.$.#.+.*.-.o ^ X.-.:.y.<.o.f.*.W B h.Q I ( 6.3.:.-.>.x >.%.%.s. .`  .+.#.-.f &.X.,.6.i.0.:.$.&.+.",
"g...{ &.&.5.a.a.y.d.. q.G s.$.&.:.6.6.X.6.; 5.*.X.>.,.<.:.>.: ^ &.] { o.S 6.8.i.i.0.* u.<. .; X.o.6.4.@.:.m -.>.-.>.t.3.6.6.:.! ",
"y.&.4.*.8.6.a.t.t.5.> I # 6.X.+.:.r.6.:.t.h -.*.6.6.3.-.6.:.%.N y.&.o.' ' %.6.5.0.0.8 ,.<.:.Y ..-.a.#.:.6.I 6.*.3.6.6.6.6.6.w.#.",
"t.-.X.:.#.9.8.8.s.5., y.:.@.0.-.5.5.6.$.6.7 6.[ #.-.5.6.t.6.6. .g.&.%.o.>.6.5.w.d.#.g t.:.[ ~ y.6.<.6.:.-.N :.` ..,.8.6.6.5.6.[ ",
"q.{ :.-.t.*.5.3.q.5.F X.( X.$.3.9.0.+.-.0.w :.[ -. .%.:.#.#.X...i.>.6.:.6.6.3.:.t.q.Z `  .&.D _ :.9.$.^ C K ..( -.+.:.+.#.{ &._ ",
"s.<.,.5.5.6.t.,.%.&.i W ....*.&.*.0.i.w.t.n .... .:.$.{ &.+.4.q.<.<.t.7.0.8.t.q.-.<.2 X.#.+.q. .+ ..h.t.y.p. ...] 6.+. .*.[ q.` ",
"u.<.9.i.i.<...#.&.X.f 4.:.! #.4.4.6.,.>.8.; 3.X.,.-.:.%.{ X.:.[ t.6.0.0.i.8.:.5.-._ g x.&.o.&.h.o.1.:.>.&.; 8.3.%.-.*.:. .` %.6.",
"d.9.i.6.a.#.6.X.b [ f 4.&.&.:.>.-.:.:.#.t.O.-.>.:.#. .X.&.<.%.` s.6.i.9.i.i.t.O. .+.r 4.-.#.%.s %.6.` :.6.&.r a.:. .[ &.+.%.' { ",
"s.w.:.:.t.0.-. .` { Z #.:.t.-.&.W #.] >.D n <.:.:. .&.-.:.>.>.D s.3.0.6.t.0.t.+.X.` X 6.4.8.X. .Q ~  .<.s.3.5.K s.{ >.%.6.4.:.v ",
"+ f ; = x 7 * , O 2 > 9 1 h # O 7 $ ; ; C & ~ $ h w n # 7 + , ; # # t 7 # 1 n 1 > w $ s 7 e @ w > x >   # @ # 7 1 + $ / 9 9 a 2 ",
"h.` %.+...:.>.,.:.{ 0 8.+.+.,.#.{ ]  .+.$.9 :.&.+...#.-.#. .6.>.v.[ ..+.m.,.3.6.:.$.e p. .#.8.'  ._ _ Q ` = 3.8.#.+.%.$.#. .6.h.",
"s._ 6.{ _ :.%.6.%.8.I $. .[ -...#.#.#.! &.$ 8.6.3...+.5.4.] :.%.s. .<.$.k =.+.6.y.8.g #. .F o...#.#.| G :.$ 8.i.-.`  .5.,. .3...",
"t.{ { ..f { :.3.,.3.s #.<.&.&.$.#.#.&...-.; *.3.#.X.D 4.:.[ :.t.s. .#.#. .g.:.#.:.5.f +.` X.` %.[ $.$.{ &.+ $.*.,. .$.5.:.` :.t.",
"8.{ >.] ` ( ~ 6.9.,.6 h.$.6.:.3.:.+.+...+.P 4.8.:.` $.$.$.[ ,.g.s.*.+. . .U & 6.5. .< &.` %.| %.X.+. . . .& -.3.8.X.#.-.&.%.# S ",
"s.{ &.` ` {  .6.0.:.V  .t.:.>.5.$.O.,.+.&.g  .,.-.:.+. .` O.&. .s.:.3.+.@.~ & @ d._ @ 5.X.&.:.` ` [ 6.&.X.$ y.f 1 ` %.( p.@.X.; ",
"s.o.%.X. .( %.%.t.,.Z ,.5.3.3.5.,.[ $.5.*.a ,.=.$.:.#.#.:...$.:.c.3.,.:.X.l $.3.6._ f q.%.{ X.-.:.` 6.:.:.5 5.$.:.C i.f.:.G +.q.",
"m.` +.[ G #.^ #.3.t.@ & :.:.:.:.5.3.t.0.*.s @...[ $. .-.6.3.+.B v.#...&.~ ~ #.,.9.0.5 6.^ &.-.` #.X.t.t.&.+ #. ._ ..~ p.3.,.+.^ ",
"h.Y -.3.:.6.#.-.5.:.7 ^ X.5.:.+.&.6.t.3.#.1 :.:.$. .3.6.0.<.` ] s.~ 3.5.#.6 *.-.9.i.< 3.( $.:.+.:...0.5.D > %.X.$. .G k.t.9...G ",
"q.:.:.5.5.9.5.7.#., w ` S 2.:.:.#.X.U ..+.+ 3.:.&.[ #.%.-.F h...p.:.5.6.:.F ,.$.*.t.@ #...:.:.&.$.$.O.G 6.f -...3.@.#.g.6.8.6.y.",
"/ H ` ` ..! +.! ..z t [ ` q., X.J >. .` J # | :.~  .D ! J r %.{ %. .#._ s.S q.t.%.W q ^ D X.W _ q.q.Y +.^ 8 F ~ ) ..U %.~ [ Y I ",
"t.d.t.k.s.t.g.%.k.g.y h.s.s.#.m.s.s.w.y.s.7 s.t.G v.s.w.y.q.&.%.b.4.s.s.h.a.a.p.@.s.0 n.y.y.s.t.y.h.s.w.q.$ %.:.s.g.#.@ >.p.s.&.",
"p.8.8.0.8.6.4.X.` ( $ ~ ( X.' s... .[  ._ $ ..` Q &.X.&.%./ ' U s.:.0.8.0.9.:.+... .w ..W ..X.{ { #.[ ` ^ a ' ` X.] @.X.; :.{ :.",
"h.8.6.t.$.>.%.#.<.6 + >.%.X.#.s.*.[  .[ ] ; ..:.%.o...6.X.%.^ Q s.6.8.i.0.#.$.+.....* p.#.X.X.{ #. .[  .X.f ..#.` [ O.q.&. .p.w.",
"s.6.,.3.#.X.-. .` X.O $.:.#.&.! ^ _ +.&.q.#  .8...%.o.Q { %.:.` d.8.3.5.6.3.:.X.] ..g >.#.-.%._ ` { X.:.&.! 3.5.&.3.:.X.#.4._ ..",
"s.6.,.3.` ^ W W +.$.% [ &.:. .:.f.+.&.#.3.w 3.8.4.y :.#.o.o.3.-.t.0.7.#.@.....O.+.$.y  .#.#.X.&.-.'  .X.:.! :.8.0.9.6.:.:.6.0.L ",
"s.6.:.] [ { { ^ -.$.x 3.@.:.:.4.I &.$.&.6.; 8.5.:.* k.r.X.-.,.[ 6.} #._ $...:. .:.$.D 4.%.#.-.o.( ` [ | 0.T 0.3.5.3.i.9.9.6.6.9.",
"h.:.:. .X.>.[ [ :.3.D :.:.:.<.9.3.$ w.5.q.] 5.-.&.8 0 &.p f V <.8.:.-...$.6.=.:.5.6.5 8.:.:.q.#.:. .( 6.5.8.8.3.0.3.8.9.8.:.:.q.",
"s.,.:.:.( [ $.-.-.:.g :.3.X.6.3.s s.F _ Y , d.:.:.W s.-.%.{ [ #.6.3.%.:.-.7.=.:.#.:.x 6.6.:.>.( o.o.{ #.9.p.:.4.X.9.3.3.$.=.,...",
"s.O.#...{ &.&.&.X.:.t >.6.<.X.%.&.,.! %.&.7 t.6.i.r.s.<.X.:.{ X.* q.:.+.@.4.t.*.*.@.@ 3.r.9...[ { X.%.%.:.6._ @.:.5...0.3.,.#.! ",
"x.3.:..._ | %.:.,.-.x <.,.>.#.X. .k.k.&.q.P 6.i.i.6.s.r.9.5.>.-.s.<.h.#. .,.t.5.0.3.% 9.6.5.#.X.` ' X.%.+.B z 4.i.0.-.9.i.,.,.G ",
"r x i . N c l $ ; @ $ c V 3 x V 0 . d . O $ C @ * x 5 B 6 . y 0 Y V + n B x 6 _ 5 & ; H O * 5 x f i $ $ , , I < j y B # H 5 O @ ",
"c.6.#.&.-.X.6.;.: F x n.X.@.v.&.%.#.4.>. .O #.c #.5.6.u.X.{ ` g.n.>.&.:.:.3.8.U :.9.0 v.%.c. .X.#.#.6.:.+.= +...y 5.1 k.q.k.:.6.",
"s.] *.@.3.a.0.a.{ 8.B &.6.%.h.O.X.$.$. .%.# %.s.#.6.t.-.[ ^ >.y.p.%.:.$.,.t.i.v.6.a.f 3.G :.$.+.#.+.@.$.:.O y.#.*.5. .6.5.3.-.-.",
"g...$.9.<.a.a.a.i.k.d 4 _ i.:.:.3.$.8.O.4.$ 1 :.-.:.6.-.#.8.:.[ p.+.:.<.5.0.! d.a.a.D t.s.+.:.&.&.w.3.#.,.# 6.` W d.3.6.@.3.-. .",
"s.&.6.3.0.0.a.i.i.t.n 6.,.+.*.*.:.t.0.,.8.C +.&.$.,.>.:.:.-.<.q.h.&. .6.0.9.W i.a.0.7 s 3.5.6.:.,.0.6.3.0.1 t.,.q.-.9.6.=.0.i.#.",
"d.3.*.,.t.0.7.a.a.6.i :.4.#.-.:.0.5.@.8.w.) s.` } ~ ;.#.t.-.:.e.N :.&.<.a.5.L j.a.5.0 9.3.$.:.5.5.7.9.t.t.; 3.` X.3.0.,.0.<.0.,.",
"s.,.6.$.0.8.3.a.a.8.F s.O.-...#.0.0.8.3.9.w :.( 4.@.:.&. .X.( ` g.>.{ k.0.:.w.i.9.6.5 X.+.:.:.3.9.0.a.5.8.1 #.] %. .3.&.$.#.*.5.",
"v.4.6.8.5.i.a.0.0.0.Z @.#.:.$.*.9.t.j.0.4.7 5.[ +.:.$.#.X.#.<.>.h.:.6.! t.:.w.6.0.0.z &.-.$.+.X.6.0.d._ s.= +. ...<.3. .&.+.6.6.",
"+.t.i.i.7.,.5.6.3.3.U 6.%.[ [ $.5.8.8.8.8.a L s.j.:.4.+.^ Q 3.>.g.6.8.5.t.L i.6.5.8.v 3.$.#.X.-.5.6.O.x.y.1 5.X.%.#.$.:.O.+.&.X.",
"x.G z.5.i.0.6.#.#.$.F 9.:.[ $.,.3.:.3.6.0.- i.$.k.h.4.:.:.5...o.k.0.a.0.i.:.a +.@.@.1 4.:.:.&.-.3.s.n 7.0.a 6.5...#.@.:.*.4.U ` ",
"x.y.t.q.i.0.8.#.[ :.5 v.<.>.:.>.{  .] :.r.# 6.3.s #.y s.5.3.#.r v.6.q.0.8.8.B ` q.:.X y.8.t.<.6.` v.O.3.5.! 8.3.#.` >.:.5.! i.X.",
"7 , 1 5 T ] y B z 7 * ) Q ] M 7 n ! #.) # ; h ; > L ; 1 m n 2 B & w.C C ] 1 C :.+.C ; s $ * K w h B z 4 f = q.O.n D $ C K #.s $ ",
"y.H d.` 8 :.:.6.6.%.< +.t ] $... . . .+.+.1 $.:. ...:.<.@.X.>.e.8 k.X...O.,.$.>.:.@.O +.h  .#.#.^ ^  .! ..P &...+.X.q.&.+.{ 4.+.",
"c. .<.%.@ { ` $.4.:.y , +.#.:.[ ..X. .) &.; 9.8.6.+...:.:.! :.y.y.[ w.+...-. .<.5.~ t , 6.X.:.( ` ..%.W :.n t.6.5.X.+.:.:.] :.<.",
"k...+.$.5 _ :.-.3.5.% #.5.&.:. .#.#... .:.#  .4.=.] +.3.:.[ ,...k...+.#. .#.,.5.<.F F 7 6...$. .` #. .` %.C $.5.:.! X.5.<.` :._ ",
"k.:.3. .W ..:.:.<.,.  $.&.:.:.>.,.+... .@.N 3.:.3...#.:.&._ 3.~ d.,.$... ...$.,.i.5.+ 5._ 3.*.<.#.#... .%._ :.6.* y.$.:.:.[ :. .",
"s.Y :.#. .q.:.0.8.3.u 6.6.,.:.<.} +.#.*.#.2 3.6.3.3.#.{ [ O.:._ s.:.3.#.#. .6.t.a.5.G %.-.,.5.&.[ X.:.$.+.T 8 x.4.:.#. ...+.&.^ ",
"2 ^ X.%.X.q.#.~ ] > B 6.:.:.:.3.6. .7.5.3.K 6.:.=.-.*.+.,.+.#.^ i.:.$.-.$...U p.5.a.0 <.<.o. .#.:. .3.0.:.D :.:.&...-.+...:.+.>.",
"n.q.* #.[ k.X.y.:.8.F 5.:.$.$.-.>.:.6.6.:.5 +...[ +. .5.8.:.$.<.k.K @.:. .$.& 3.0.0.f 5.:.#.-. .%.>.0.4 x h.#.+. .$.O.:.6.:. .&.",
"#.[ 6.%.k.X.-.#.:.8.g :.$.&.:.X.-.:.8.:.$.: :.:.:.X.3.i.t.5...A t...:.6.:.-.F *.3.0.& >.*.o.[ X. .<.+ ,.$.p.:.:.$...:.5.6.,. .%.",
"y.:.:.6.$.[ :.*.$.t.B &. .$.#.:.$.@.` O. .L 6.:.,.+.:.5.6.t.:.E g.*.#.6.6.&.: n :.d.g ..` :.-.&.[ ! $. . .! 3.:.#.X.X.5.3.6.:.W ",
"#.[ ;.` { t.6.^ ! ~ i >.X.^ >.r.~ `  .U I # 6._ 6.Y &.:.:._ D W s.&.:.<.t.&.:.:.! %.+ %.G W ^ ! ( t.^ ^ D y.%.^ 6.q.` ^ _ ] { { "
};
