/* XPM */
static char *download1710562996[] = {
/* columns rows colors chars-per-pixel */
"64 66 53 1 ",
"  c #030305",
". c #080705",
"X c #060807",
"o c #090907",
"O c #060609",
"+ c #08070B",
"@ c #07090B",
"# c #0B0B0C",
"$ c #100E0F",
"% c #0E100F",
"& c #11120F",
"* c #0E0E11",
"= c #100F13",
"- c #0F1113",
"; c #131314",
": c #161817",
"> c #191917",
", c #161619",
"< c #18171C",
"1 c #16191B",
"2 c #1A1A1C",
"3 c #1E201D",
"4 c #20201E",
"5 c #1D1E21",
"6 c #201F24",
"7 c #1F2023",
"8 c #222224",
"9 c #262826",
"0 c #292927",
"q c #252529",
"w c #28272C",
"e c #26292C",
"r c #2A2A2C",
"t c #2E302F",
"y c #30312E",
"u c #2D2D31",
"i c #302F34",
"p c #2E3034",
"a c #2F3438",
"s c #333335",
"d c #393937",
"f c #353539",
"g c #38373C",
"h c #36383C",
"j c #3A3A3D",
"k c #3D3D41",
"l c #413E44",
"z c #3E4144",
"x c #424245",
"c c #454449",
"v c #48474D",
"b c #49494C",
"n c #4E4D52",
/* pixels */
"X#4*8rd5qu0r5#;#5*,*OOq0u1u78,#o X528ey85u0q6X*;<;2;#+qsu,ea5=**",
"#5*6d26*5h2O8s8%#<h57q,@qqe*q*s+#2*8r5r 6h2+6s5 <2i<w8>.q5wO5*kO",
"s6gdggxlczbbbjxxfukkkhjdkkshuhshh7kjjxbxcxbgbjbxiijjjkjhkkhhssah",
"882=O#,O2*-+#+#;p=5*5*=;OOO#   Oq87# ;<X<;;O;+>*u;5#2;#+#   O  O",
"qu7<<1,X;5 *#2+&u5O<;+88 2-8#r5 6w65;2<+,<X;+8 ;q;;;;%82@8,0#u2 ",
"euq; *r;r#Or2rr0e5*@8%; O18-o:-uss5;##r>2;#82wsqe5#%r#<; ;u-+2 q",
"+k,,,r;*<8,03q##up##;d+757-7#;,5*f=<60;#,8>q2qO#eu*#>s#228-1-,;5",
"5,5=5**OOX    @ O,-#,+#*5,8,,1-1655;2;= O X   X  *##:@=+7,71-,*5",
"< 4j*;8<5,uu7skkigdssyjsws8222ds5 6h;28,e*fq0fsjqdsgdrjrsu88;8qr",
"$w3o< >2,55ee= #8,qo;#r.024r2, -O88,8 ;O=wu<h;O;5>r#;,8O558q;;<X",
"22q28g25f555--5*,##28;<#,uy2###2,2q82j5qu<<5;;8O<##22 4$<su,;oO<",
"8;5;#Oqyw,ue,,;*X+q,40s45u0rq;>;5;5;*#0pe5uq;;;O##92q0d28urdq;;&",
"#2g;qr>+q5u 5-uO*2O2d4ro5k8=4q4+;*p1r8;@eqqO8-0#*2#qr20 5s2o404X",
"sujgjkjdhfhhufshs;xjjjbcckckclxciikkjkjhkkfhrhsjj6gjkjblxjbxbxcl",
"u78#2;-;O  OO   qq6#+#;X;;*#;#;:u=5*5;##O O+ XX+582#X+2+-;;#==;;",
"u-;;;#q, 5;q*55 qr73222@&2 ,+5Xou**,;#82 5,q-e8O7eq822&o;2+##2 #",
"iu;#9>qX#5r;+2Ouwwe; &r;6#*i>8rys8;#q,2# 8i2+; 0uuq* ;s;y#*u2rrs",
"er;+2s#25552;,=8+i;<#r##255i2r oe0;+2d+2,2;8;262*h,;<0;#28;r60 =",
" **+2+=;2<8;;<,26<5;55+X*O      O*;+;##;5<q<;2;25,5;,*#+#O      ",
"uhsdgdjqhu8;;2d0;#2g<<q;w,a5wggxucydiydsur82;2ry<;5f+<6<8,uq8jdg",
"8>8&;29 w,6w>& o+25#8 ;*5eees,# 820#;30Oq528;; #O88*6 ;;55aes;+ ",
">>;2>.;o5sw>#  ;65w8<jq8a75=;*7#,;;22#2#<u05#oo;258q2d22w55,=;0X",
"+.8200s9<i902#;;2<<*##qsu<8e2;*##*q;9rdq5u002#;;2=2,O#8su5ee,;#O",
"*wX8r<0 wg> 2y;X;,s5q82Oe8q*e@u*,5;8g20 7j212d> #5f=685#e5u*<OhO",
"sqkggjcxxlnlngkxsgxhjxdjjkssuhphh5agkgclxkxbnllluqkkgckhkkkauhha",
"8q5*X#;#2;*#$$#;i=5=2;#** @OO O@885# =<.;;&+;#&;e*5;,;#*+OO  O O",
"5rq,,8;X;2 =#8 ;u-##;+98 1;q#e>@7ew5=52+;<X*#q.Ou**;;#02O,51+q< ",
"esq, =s;q;$h<88rf5 #2;q+#8s<#;%rusa*X#r+u#+r20dua65#0,8;@5u;O* p",
"*l,<<0;#;45u5w +eu;X1h#285;2;;>2+a,;qu&o;2,028 +wa5*;i+;q9%2*;;2",
"5<5;,,*O#.       -;%2##;q;51-1;2825;;;+  X X     **+2+#;2;72,1-5",
"=O,s*,6<6;s5rfsjejhsdrjrpp8228us;+<s+,6=6;gwrhfkugujsuj0spq836rr",
"*5,#<O-*66uar,OO8;0X;#q e1qs2%#;+r8$6 ==18u2s<@Xq08;;;r;q286>2-#",
"86882h82u75=;-5X;>#2;+>#2ui4;##;66r84g22pq71;*e+;;%:2#2+2rs8#oX>",
"622;+*7se5eu5-;@X%8,40s82ury8#>;<,6<=+8hq1uu,;-@##32qsd86i0sq;<#",
";2h,qq;Oe,u 8*u*#7;0g2r 6sr#2g6+=<s;8q&#u1q-7-p #1#8r2w 5g2#rg8 ",
"srjjjjkhkkazehukk7gydglcjcxxcxblgskljskzzjfjtajks8kjbxxcblnkbjxx",
"i25;5*#*  @O XX 8q2# *,=<;$#;#=&r*,&2##*@O + @o@qe5-O,,O;;;#&*;;",
"0;;,,#02 555#t4Oqe02,,5O=2X2+2+#s@*;;#02O312#r> ruq<*<<#;2+;X6X;",
"u7;*852  1u,@;#euer2X#r*wo=q68dhuqo+3#5# 7t1@>#qrq5;#2r,8O2r288u",
"e8;*>h@55812;;;5*r;12r;;>42w8r ow6;;2s#857;2;;;2*h5,2q;#;5,060 #",
" O;#2+$;5;8<;;*275<,2,#O+OO     O=*#;X#;7,8,;,;8q;2;<2#++X      ",
"shjsssgruuq<,5sw1 2j,5q56=ae8hgkikjddigwsrq;;6ur;O2dO2q;q,k7eksk",
"82s;#42Xr52e22OOOr,-8+==5qeau2 +2;8=;;9+u>23*;o#X82$6 <<56squ;O ",
";;=22#2#,p0;*OX,6287;k65u555*;q#>=;<2X2+2uu2#o ;5688<g82s555==8+",
"++q,6rs8,u004+#*5,2##o8dq;qe1<*#XX8<50s42u0q2###5=2###4de,eu5-@@",
"#6X8rq8X;h;O2r;X-1j1qr; q5u*5Oh*Or*qu5q+2f;X4s> #;k26q;;e5uO5+f@",
"j8djggbcclbxbkzzsdxkglhhkhhkhhkshqkkljccjkkccxxxshkghhszzkskrkhh",
"qq2+ #>X&;&+;#;;u<5;4;+$@X+X   O5w<#X#;#;:;#&#;;u*2=2-@,*O  O  O",
"5u71;<<X>2+; q+#p**;;#q;+2>q+02O6i8<;2< ;2 ;X8+#u,*;&#q2O2;5#q2 ",
"qp7*X;soro+s20ria71@215# qr%+*@0wiw,##r*8=Xs22q0u<;;0;8+ 8s#;, u",
"Oh,*20;#;4;r28 +uu##2d#2q8;2#=#2+f<,4r**34;w88OOeu**2i#222;8=#;5",
"5=5,2;#+++ X     #-+;+#,2;9:,,;56=6=2,+O+        **#,+;;518,=,,5",
"<+5j+,w<u*se8sgj0cfsfugrrsw2;20s,O<g*55=5;h8uhxgqxsjssdwqhq486rr",
"#82+>X#=85rur;+ r28=$>0 r2882# #+8,;5 ==,6ewh< O82q;2;q+u,094;.;",
"58802h6<u522;28@==;2< 3$2ur8&o#<58887k85uq55*-qO;#;>2#>>2rr3#o+2",
"5;2;+*wu55ps1%+#+.9>4ru>5urs6;&;<#5,O*7aq5uu1;;#.#8>80s45srt4#;;",
"#<k;0r;Oq5e*5@w=@e*5u2rX6g8.8d2.#;s18r>*q,q@5-8**5O28,2X5f8#2g4 ",
"hfkjkjjjkkfkwkfakekfkjxllkblcjcjkukhhkgsjjkjpspfh7hhjdbxlkbcblck",
"w<<;<=#=@  O   O875*+;;X&;oo#.;>r;5*2;*#o+X@  O#5q5# +;+,=#+&#;;",
"s*#;;;q2O5;q@65O7u72<;2 &2X<#2##u5*,;#q2+6,q#r1O8s0222<+,5 =+4X#",
"r8< 8;5X 2r7 ,Oeqse; +u*2;+sww8sp8;o222# ;0*#; euuq*X#w2q$#iq0rs",
"qr#O,h+277-,*,-5Oh,,28;#;8;q5q +ur*o2rX258,2;;;2@k;180;=22284w +",
"O#;-,##;2;71;,;5526=2>=#X   O    *;+2+*;2:8-;1*55,5;22*O+. X X  ",
"ufsdspjspe55-5ue= 5g*=q=6;d8wfskqkshsrjree8212eq, 5k+=52q2g5uifl",
"8,0>229 i228#; $+82%8X,X26e5u,#+828#>;q#r5:72;X# qq+9 ;#5qerh;# ",
"2-%;2X>+2i0<#oX&27r52j87u55<,-8#;#;;>#2;2r0>#@ %42882x88r825;,5@"
};
