/* XPM */
static char *_50d3f76e8dc4a75cda25b3b961e951bIzLTWuhNAUwMh4JT[] = {
/* columns rows colors chars-per-pixel */
"64 64 149 2 ",
"   c #0B0706",
".  c #0B0906",
"X  c #0D0D0B",
"o  c #110F0D",
"O  c #12110E",
"+  c #0D0E10",
"@  c #110F10",
"#  c #141413",
"$  c #181615",
"%  c #1A1916",
"&  c #161618",
"*  c #191718",
"=  c #1D1C1B",
"-  c #211E1C",
";  c #22211E",
":  c #1E1E20",
">  c #211F20",
",  c #242422",
"<  c #292725",
"1  c #2A2926",
"2  c #272729",
"3  c #292728",
"4  c #272928",
"5  c #2D2C2B",
"6  c #302B27",
"7  c #312E2C",
"8  c #33312E",
"9  c #38332F",
"0  c #2E2E30",
"q  c #312F30",
"w  c #353433",
"e  c #393633",
"r  c #3D3936",
"t  c #3C3B37",
"y  c #3E3A37",
"u  c #3C3835",
"i  c #3A3936",
"p  c #363639",
"a  c #393738",
"s  c #393738",
"d  c #37383A",
"f  c gray22",
"g  c #393939",
"h  c #3A3839",
"j  c #3A3A38",
"k  c #3B3A38",
"l  c #3B3B39",
"z  c #3B393A",
"x  c #3A3A3A",
"c  c gray23",
"v  c #3C3B39",
"b  c #3C3A3B",
"n  c #3D3C38",
"m  c #3E3D39",
"M  c #3C3C3A",
"N  c #3D3C3A",
"B  c #3D3D3B",
"V  c #3E3D3B",
"C  c #3D3B3C",
"Z  c #3C3C3C",
"A  c gray24",
"S  c #3E3E3C",
"D  c #3F3E3C",
"F  c #3F3F3D",
"G  c #3F3D3E",
"H  c #3E3E3E",
"J  c #3F3F3F",
"K  c #3C3C3A",
"L  c #403C39",
"P  c #403F3D",
"I  c #433F3C",
"U  c #423E3D",
"Y  c #413E3C",
"T  c #3F413E",
"R  c #3E403E",
"E  c #41423D",
"W  c #40403E",
"Q  c #41403E",
"!  c #42413F",
"~  c #44403D",
"^  c #45413E",
"/  c #44403F",
"(  c #42413E",
")  c #3E3E41",
"_  c #413F40",
"`  c #413F40",
"'  c #3F4141",
"]  c gray25",
"[  c #414340",
"{  c #424240",
"}  c #434240",
"|  c #434142",
" . c gray26",
".. c #444341",
"X. c #444243",
"o. c #444442",
"O. c #454442",
"+. c #464543",
"@. c #444444",
"#. c gray27",
"$. c #474644",
"%. c #474745",
"&. c #444342",
"*. c #484443",
"=. c #494542",
"-. c #484745",
";. c #494644",
":. c #494844",
">. c #494846",
",. c #494947",
"<. c #4A4947",
"1. c #4B4A46",
"2. c #4A4846",
"3. c #454548",
"4. c #494748",
"5. c #4A4A48",
"6. c #4C4B49",
"7. c #4C4D48",
"8. c #4D4C4A",
"9. c #4C4C4A",
"0. c #4E4D4B",
"q. c #4F4E4C",
"w. c #4F4D4E",
"e. c #4E4E4E",
"r. c #4C4B4A",
"t. c #534F4C",
"y. c #534F4E",
"u. c #514E4C",
"i. c #4E504D",
"p. c #50504E",
"a. c #52514F",
"s. c #52514E",
"d. c #4E4E50",
"f. c #4F5150",
"g. c #515151",
"h. c #555450",
"j. c #535352",
"k. c #585756",
"l. c #5A5957",
"z. c #595758",
"x. c #57585A",
"c. c #5D5958",
"v. c #5B5B5B",
"b. c #5E605F",
"n. c #60605E",
"m. c #62615D",
"M. c #615F60",
"N. c #646462",
"B. c #636462",
/* pixels */
"i i k N N N D v N 1 $ 8 { w e e e k p k k k D c k k { , 5 7 k i e N N v e i r N N i w ; - - w e e k i w k v e r ^ 7 # < { w i i ",
"k k D N N D N N N 1 # w D k k e f D Z Z D D D D ) c D = 5 w v i { O.W W <.h.<.N N N w , - = 5 P N k N D P P L 8 P 7 o < w i i v ",
"N P P N N v v N w 1 O w e D k k k c D c D D { ' ' c 1 , 5 , k v e.D P r.8.D p.<.W W k , % $ 7 c...W { ....-.^ ^ r 5 # < e k i v ",
"8.O.$.v v 8.e e w < = w e $.k 5 C e w e.{ { { D Z 1 i * , <.v v w P D P W P W -.O.D { , - = ;.^ $.<.8.w N 5 u.^ L 7 # e w N W ..",
"N < 5 8 < < 5 1 5 w * e D w 5 5 1 <.$.{ $.$.' k 5 e e % , N v e N N D D N <.k w v 5 1 , # = 8 u.<.8 e i w 5 N <.8 w # O.5 ; O...",
", 5 7 7 8 w 5 < 5 e % e w u.a e 8 8 g.D 1 w D 1 1 C 1 o , 8 i 1 5 5 5 < 1 < 1 = , ; ; * X ; = - , = = = - 8 5 5 5 ; # = 1 = , , ",
"# $ 5 ; = < 1 5 7 < O 1 ; 1 , w = = % $ # * * , < 7 , # ; ; - ; = = # $ # $ # # # X X X X X X o o X o = = = < , 1 o X $ # $ $ % ",
"o # # $ $ $ $ % $ O O % % % # % # # X . . . X # # % # # # # # o o O . X > 2 q f k v i i # 1 7 5 1 , - X O w e i w 5 < , % # O X ",
"# X # % = * = - = - # o - ; - - o < w 5 N i w 5 5 # # ; < < ; , 5 1 = % k w w w w w W v 1 8 ^ P P 5 1 O 5 <.W O.O.<.$.N k i i 8 ",
", # w 7 w 5 7 5 5 8 1 - 1 7 7 8 X 8.N.p.i i 8.D e.5 ; < < , < , < 5 , X e 5 w 5 w w w w , 5 5 7 7 7 1 # { N w 8 m.e w e w { W 8.",
", $ 5 < 5 5 1 5 w 1 , < 8 7 1 8 # 8 w i e w e e W , , 7 8 5 7 8 q q , # k e w e e k i w < 7 7 e 8 8 < # 5 w w w e w e 8 w w w i ",
", , w 5 5 8 7 7 7 e ; < 8 w 7 8 # 8 i k N N N N k < 1 w w w w e w w , # e k D D .._ P N , , ;.r e r w o < w w e w w e k 8 8 w 1 ",
"= , w q w w w e D 1 $ 8 e e e 5 # D O.5.{ R { D $.5 5 w w 8 w i k D , # D $.D k D P w $., , L r r L u O 1 w k i N R D k P v w 5 ",
"# , a e 7 w e < N 1 # w v e 8 8 $ <.w { w l N W { 1 5 e 7 i N i w k , # 1 k * < 1 - N 5 - ; v L v r 7 O N w i i $.{ W D { N P , ",
"@ w 7 5 w , w w 1 w X = , ; - ; o , 5.i 5 { R D i , < * , ; = = < , > . * = ; ; = % = - o < v e 8 8 - o , , 5 , , , , <.i P e , ",
"X # # - * $ $ = = $ X # # X % $ O = , < < = % O $ O # # # # O o X # < < 1 < ; = = = = $ o $ % $ # # O X O = % = ; = * % % O = $ ",
"< 1 5 , = * $ X = = , 1 2 q $., k e q # 1 e D <.g.8.k r.-.{ $.- * D h.k.v.x.r.8.h.p.h.8.v $ . * < 5 w w w 5 < = = X . . ; w 8 7 ",
"v -.r e D i 5 = $.e e e p e w D k e P o w 8.w 8 w 7 C w w 8 D , $ 5 e w w w w w 8 e k w O.< , v 5.r.' j.e.B.8.g.8 7 % ^ ..-.u.1.",
"i i k v N N 5 , 2 ) w k c f k k f Z 5 # N e v e w e e a e e w < # 1 { e e a a a v N N i 5 < , W N N i.W ' R $.W D 5 ; s.e e N e ",
"N N v W k k 5 , p D $.k ' D D D { D 5 # < k v v { e a k P i k i # w x.k a D k a i e D e W ; , v D O.{ R @.@.O.W <.7 - ^ e e N i ",
"{ O.O...{ k e , @.c 4.{ { { { { ' k w # w W D P C _ k { D D D 1 X < g.{ { e M.5.N i w i D - , W 5.{ k o.$.$.$.O.W 5 ; ;.W N O.v ",
"W $.W ..{ e k , * k { @.D k k e w e 1 * 5 { a $.k a D D P _ N 5 X , D 5 g.D k k D w k v P ; , 5 8 <.{ k D O.5.O.W e 1 5 w O.{ D ",
"w 1 1 e 5 5 5 = 3 C w w w e , w w k , * 5 8 ; , C C { { v $.e 1 X = , -., w , ; 8 7 , ; , % = w w 5 8 8 w w 8 w e < , 5 w w 5 5 ",
"$ * $ * * * = * * , $ $ < = * > e k , $ = = = < = w - < , - ; ; X = ; = = = * % $ = = o # O O * = = % % * = ; , , ; % = = * $ $ ",
"# # X . . . $ $ # O X X X X O X o X ; = o X X X X # # # O O X O # o O o O # $ * = = - ; ; ; ; - X o X * * * $ $ $ @ # * $ * , = ",
"z.5.1 # v { { { N D N i k N e 5 X N r.i k e W D e D v ; # = = = = = % . $ 5 = = ; , 1 1 1 6 7 7 1 o = k $.D c 3.$.$.@.$.@.g.v.g.",
"D g.q * u.w i N w N L L L ....r X w w w e O.w w w k 5.w # , < 1 1 1 , X ; < 1 1 1 5 7 8 e e r L , # = D D c ) @.k.3.D D { D ) c ",
"D r.w * D i D { u.W P L P v P k X 1 w i i e e k i N i 8 # , 7 5 8 7 8 $ ; <.7 w w w e r r L L L < % = k w ) @.j.{ ) k k c c D p ",
") 5.e # v N i O.N W W W k N W v * 1 k k f e k k k k { 7 O 1 w 7 e w w = = h.e w e e N N P P L u.1 % = 5 v.{ @.{ @.) D D ) { ) @.",
"c $.e $ 8 7 k k O.W W k D { e 7 = 5 { { w $.D k e C { q X w i e e i k 1 X = e k v W N P w v P P , = < e.) D { { D ) { 3.p w w f ",
"c 5 , # < w w 7 i i 8 5 5 w e w = 2 5 5 $.5.{ D { D D w X 5 N N v i v w X , $.W v e N D { i k { 1 = = d.{ f ) ) ) c w p 0 p e p ",
"5 < = X * = = = 7 5 5 7 1 ; < , * - 1 , < < k e w { D 5 # $.{ N k O.N v = = h.e i D 1 w { ....P e % < @.Z k ) p p p p p @.f D w ",
"* X # & $ # # X + $ $ # X # O O o O o X # = 5 w 5 1 < < # , 5 5 1 5 k 5 = * = * * * * , = : 5 2 = O * % , e , , 1 { 1 , 0 = : = ",
"# * = > : = * & : + X = , w r r e e r r r . X O X $ # # X X # # # # X # , 1 1 , * # X # # # $ = O . X X $ , * * * * * $ & $ X + ",
"2 2 5 5 0 5 5 5 5 = $ i 1.1.^ ;.e u e ~ ^ ; X = ; , 1 5 1 1 1 5 5 # 5 $.f.g.j.p $.5.$.@.k w 1 , # - 1 = = % $ * * # O . . # : , ",
"p f p p w p w w w 5 # w 8 8 e e r 9 9 7 L - X < D e N e i k w w w $ , x.w w w p w w c d.f.v.b.1 = 1 < , 1 1 1 1 1 5 1 = $ < 0 w ",
"3.) ) p p @.Z Z D 5 $ 5 e e 8 e 9 u 6 u v - o 1 ..e i e i e i i e * 1 3.c c c e c c c d.{ ) e.1 = w 5 7 1 7 e e 7 w i - X 1 @.' ",
"3.@.@.3.' p 3.' { w # 5 L e e 8 u u r u v ; O 1 { w v D N P i i P * , D ) Z ) @.) ) { @.c p 3.1 = w 8 e k v v L v L 8., X 1 f.{ ",
"5 e x.e.2 j.$.@.5.5 # 1 1 r r r L 9 2.e ..e $ 5 { W ....D { N N 5 * < { @.$.c 3.@.@.e c ) c w 5 - W i N N { ;.^ ;.^ w ; X < D 2 ",
": , : > 0 , 5 w w w = , 7 r e 1 9 1.u u r ; - 1 k.P W 7 1 v W 8.1 = < e.k c Z 0 0 w ) { ) e.$.1 = N 1 N e 5 1.^ 8 e 8 , X = , , ",
"$ $ * * = = , 3 < ; % ; , N w 8 e e 7 7 1 < X 1 1 7 3 a k , @.e w = * , w 5 , , w { e 5.$.< < = O w 5 , , , ; = ; < e = # , = * ",
"= o X X # $ $ = % * X X O # $ # O $ $ % % = o O = * * > = * # # $ X $ # , , # $ # # * $ , * = # O $ = # X . X o # # * X # # = * ",
"5 1 $ = % % $ # O X * - ; = $ % $ $ # # # 1 P e k c e w w e D k w , o . X X X X . X X . % , < < 1 1 5 5 1 1 < X X X = < e w w w ",
"i 5 O = , ; ; , = X O.p...8.k k.-.$.O.D O { k e.5.$.e k e.e e f { 1 O k w e 8 8 w , # 8 k.k k { N P -.O.$.5.w 5 # < 5.w w w w e ",
"i 7 # , 7 5 5 5 < X w w w w 8 e <.w N 1 @ 0 5 1 w w e w e e ' e k < # i 6 1 7 7 1 w % ; D N w D N v { D { D k w $ , W N v i w i ",
"N 5 $ w w w w 7 ..X 8 i e i e v i i i 5 # w w 5 5 p p c D e p D N 1 % i e 8 7 9 8 8 - % e W D w D D ..W { { $.w ; , $.W W W W v ",
"$.5 % < P v e e 8 o 7 v v v k N i i w 5 $ w e e p k c c D k D k $.1 , w e 9 7 e 9 8 - $ 7 v _ 4...1.5.$.5.e.k.w , ; -.<.W O.O.W ",
"8.8 # O.....L r < o 7 1.v i N v v i 5 , > k D { { { D k 5.{ { e D 1 < e r e r e e e - o 1 e a @.-.O.p.<.e.5.k w , , 5.r.<.;.r N ",
"..w O W W W v 8.5 X 1 e e ..w 7 e L 8 % < e 8 W $.i , w w D * = < , ; 1 8 7 < - v 7 ; . = 8 w e a w e w e e w 1 , * 5 D 1 N e.i ",
"8 < O = $ % % = ; . = % = = ; 7 1 , - o o = * = ; ; < = * * * * > $ % # ; ; - % $ $ % X = % * , < , , < < < 0 e * * e < , < 7 1 ",
", ; X # # $ # # #   o # X X o o X # X X o X X X X X X O X X X X X X X X O o O O O = ; ; O o X X X # $ $ * , < = X X # # $ # % = ",
"# % , 5 5 5 w e w e 8.N W D e , X X < 1 1 w 5 1 = % , v e.8.{ O.O.{ W w % , W O.O.i W P h.-.@.{ k e 5 , X . @ # O o X X X X O o ",
"O , e v 7 ^ 7 7 7 ;.w 7 r e ;.r ; ; e 1 5 7 7 7 9 % ; W e 8 e e w i w i ; , ^ p.e h.p.l.8.N k N W i i { < = < O.i 8 e 8 7 1 1 < ",
"O * , 7 w w e e r r e e e u.L 7 , = w e w w 7 w 8 - , 5 w 8 v L W i r i ; = <.e i i k i k i k D D R <.k < , w 5 5 5 7 8 7 w e < ",
"# = ; 7 r r e e e e r r 1...v < = - I e 8 8 e e < ; ; 1 ;.e v L r L W W 5 = W i k { W { O.$.R N { W N k < * w 8 8 w u e 8 e u < ",
"# % 5 v L v L L r r P L P ^ r 1.* * e v L r u L < - 1 8.L r L L P e ^ W 8 O w h.N O.{ { O.$.W o.W <.N k 5 $ N i i n L L L e r 7 ",
"= = { i N W W P P v -.-.-.P ..< $ % e r < L e v e ; 1 8.w e P N ^ P W W 8 $ e ..k $.$.O.O.W O.{ k i k w 8 # p.N e L L L P r r 8 ",
"= % 1 1 D W l.W L v P I w W ..< # $ ; r 7 5 7 r 1 , 8 w W W w 8 e L r 8.= $ 8 O.$.{ <.g.8 $.< D { { D 8 = # 1 i 7 u...^ 7 ^ e 8 ",
"- # , , , .., 8 1 5 8 D e 5 O.= O $ w e P 8 8 7 8 , # w 5 ; - - = ; = = O % 1 w w 5 1 1 1 ; 5 { W i w = % # , , 7 < 1 e , 5 5 e ",
"X . O = % = ; = = = - , , = ; $ X o , < - - $ % = = X . X . X O o X o # o X # % $ # # # = $ % , , , , * o O O X $ % = O = = = - ",
"1 1 5 1 5 5 1 ; X X X X X X X X X X X X O O O # * 5 O X = 1 w w w 7 5 5 1 = , - = $ X . . X X X X # # # # # O O . . . . # = = 1 ",
"O.O.<.<.-.-.O.v.5 o X < w i { e.5.N O.u.r.$.<.W w h.w O 7 k N B.O.8.O.W w W D k e w 5 = = * 5 w k k 8 5 7 7 1 1 , ; o 1 w <...O.",
"7 5 W ^ s.w 8 O.^ < = e N $.5 1 1 7 5 5 @.w 5 7 8 w W $ 5 P e.v k e N i 1 r.v O.p.O.W w = 5 ..w 8 k 8 i w w i ;.L r O i O.w 5 w ",
"8 P w i i N e 8 m.1 % 8 5.7 w w w 0 e 8 w w w w 5 w r.= 5 N i v D e k v k e i N N N e , - , v e e e 8 w 8 w 8 8 u.e O 1 8.8 8 w "
};
