/* XPM */
static char *result[] = {
/* columns rows colors chars-per-pixel */
"64 64 241 2 ",
"   c #020202",
".  c gray1",
"X  c #040404",
"o  c #040505",
"O  c gray2",
"+  c #060606",
"@  c #060607",
"#  c #070707",
"$  c gray3",
"%  c #080909",
"&  c #090909",
"*  c gray4",
"=  c #0B0B0B",
"-  c #0C0C0C",
";  c #0D0C0D",
":  c gray5",
">  c #0E0E0E",
",  c #0F0F0E",
"<  c gray6",
"1  c #101010",
"2  c #111010",
"3  c #111111",
"4  c gray7",
"5  c #121312",
"6  c #131312",
"7  c #121313",
"8  c #131313",
"9  c gray8",
"0  c #141514",
"q  c #141515",
"w  c #151515",
"e  c #161616",
"r  c #161617",
"t  c gray9",
"y  c #181818",
"u  c #191818",
"i  c #191819",
"p  c #181919",
"a  c #191919",
"s  c gray10",
"d  c #1B1B1A",
"f  c #1A1A1B",
"g  c #1B1A1B",
"h  c #1B1B1B",
"j  c gray11",
"k  c #1D1D1C",
"l  c #1C1C1D",
"z  c #1C1D1D",
"x  c #1D1D1D",
"c  c #1E1E1E",
"v  c #1E1F1E",
"b  c #1F1F1E",
"n  c #1E1E1F",
"m  c #1F1E1F",
"M  c gray12",
"N  c #202020",
"B  c #202120",
"V  c #212120",
"C  c gray13",
"Z  c #222222",
"A  c #232222",
"S  c #222322",
"D  c #232322",
"F  c #222223",
"G  c #232223",
"H  c #232323",
"J  c gray14",
"K  c #252424",
"L  c #242524",
"P  c #252524",
"I  c #242425",
"U  c #252425",
"Y  c #252525",
"T  c gray15",
"R  c #272626",
"E  c #262726",
"W  c #272726",
"Q  c #272627",
"!  c #262727",
"~  c #272727",
"^  c #282828",
"/  c #292828",
"(  c #282928",
")  c #292928",
"_  c #292829",
"`  c #282929",
"'  c gray16",
"]  c #2A2A2A",
"[  c #2B2A2A",
"{  c #2A2B2A",
"}  c #2B2B2A",
"|  c #2A2A2B",
" . c #2B2A2B",
".. c #2A2B2B",
"X. c gray17",
"o. c #2C2C2C",
"O. c #2D2C2C",
"+. c #2C2D2C",
"@. c #2D2D2C",
"#. c #2C2C2D",
"$. c #2D2C2D",
"%. c #2C2D2D",
"&. c #2D2D2D",
"*. c gray18",
"=. c #2F2E2E",
"-. c #2E2F2E",
";. c #2F2F2E",
":. c #2E2E2F",
">. c #2F2E2F",
",. c #2E2F2F",
"<. c #2F2F2F",
"1. c gray19",
"2. c #313030",
"3. c #303130",
"4. c #303031",
"5. c #313031",
"6. c #303131",
"7. c #313131",
"8. c #323232",
"9. c #333232",
"0. c #333332",
"q. c #333233",
"w. c #323333",
"e. c gray20",
"r. c #343434",
"t. c #353434",
"y. c #353534",
"u. c #343435",
"i. c #353435",
"p. c #343535",
"a. c #353535",
"s. c gray21",
"d. c #373636",
"f. c #363736",
"g. c #363637",
"h. c #373637",
"j. c #363737",
"k. c #373737",
"l. c gray22",
"z. c #393838",
"x. c #383938",
"c. c #393938",
"v. c #383839",
"b. c #393839",
"n. c #383939",
"m. c #393939",
"M. c #3A3A3A",
"N. c #3B3B3A",
"B. c #3A3A3B",
"V. c gray23",
"C. c #3C3C3C",
"Z. c #3D3C3C",
"A. c #3C3D3C",
"S. c #3D3D3C",
"D. c #3C3C3D",
"F. c #3D3C3D",
"G. c #3C3D3D",
"H. c gray24",
"J. c #3E3E3E",
"K. c #3F3E3E",
"L. c #3F3F3E",
"P. c #3E3E3F",
"I. c #3F3F3F",
"U. c gray25",
"Y. c #404140",
"T. c #414140",
"R. c #404041",
"E. c #414041",
"W. c #404141",
"Q. c #414141",
"!. c gray26",
"~. c #434242",
"^. c #434342",
"/. c #424243",
"(. c #424343",
"). c #434343",
"_. c #444444",
"`. c #454444",
"'. c #444544",
"]. c #444445",
"[. c #454445",
"{. c gray27",
"}. c #464646",
"|. c #474746",
" X c #464647",
".X c gray28",
"XX c #484848",
"oX c #484948",
"OX c #494948",
"+X c #494849",
"@X c #484949",
"#X c #494949",
"$X c gray29",
"%X c #4A4B4A",
"&X c #4B4A4B",
"*X c #4B4B4B",
"=X c #4C4C4C",
"-X c #4C4D4C",
";X c #4D4D4C",
":X c #4D4C4D",
">X c gray30",
",X c #4E4E4E",
"<X c #4E4F4E",
"1X c #4E4E4F",
"2X c gray31",
"3X c #505050",
"4X c #515051",
"5X c #515151",
"6X c gray32",
"7X c #525352",
"8X c #535352",
"9X c #535253",
"0X c #525353",
"qX c #535353",
"wX c gray33",
"eX c #555454",
"rX c #555555",
"tX c #565656",
"yX c #565756",
"uX c gray34",
"iX c #585858",
"pX c #595858",
"aX c gray35",
"sX c #5A5A5A",
"dX c #5B5B5B",
"fX c gray36",
"gX c #5D5C5D",
"hX c #5D5D5D",
"jX c gray37",
"kX c #5F5F5F",
"lX c #606060",
"zX c #616061",
"xX c #606161",
"cX c gray38",
"vX c #626262",
"bX c #656565",
"nX c #676667",
"mX c #676767",
"MX c #6A6A6A",
"NX c #6F6F6F",
"BX c #717171",
/* pixels */
"XX.Xo.l.s.XXk.s.r.C.#XI.^ T s.r.' U.l.#Xl.{.Z j ^ - a.3 I.l.8.3XqX8.5.a.5X*.T w.x H o.M.Z J.J w M X.T e XX^ V._.C l.k.8.7.l.V.*.",
"e.V.1.J.m.6..XV.I.C.^ C.).7.Y }._.k.!.^ n.M.s.W e.X.l.tXm.1XC.] J Z <.m.e.^ x M.2Xk >XM.).a.*.M.] M.r.t I.1.J.Y U.s.I.7.] 8.!.m.",
"7.' N s.$X7.X.1.' N $XoX#XN _.J XXX.&.!.=XJ.$X&.Q.).#X1 G 7.Q.~ .Xa.m._.~ V.X.T }.[ qXI.XXM.e.H.H *XJ C qXa.*.] F.k.s.tXo.a.m.1.",
"I.#X*XJ h x y ^ 8 ] l.Q.8.3.c.&.x.H Z.1.1.X.V.J.J.C.H M.jX{.&.N $X^ ~ =Xs.).9XC x.' ).&.C._.Z 9 3XC m.s .Xs X.x e r.e.1.I.o.a.7.",
"M.c Y 8.m.Y 7..XXX!.x k.K.1.=XX.J.] 1.8.x '   P.NX~ s.1.~ {.J a.' ~ X.$XQ.^ r.] J Y >Xu.h o.T Y Z = J l.fXm.}.m.E k.1.s.X.^ r.] ",
"c J Y 8 8.& : 1.& Z O $ !.e.t > H x c 2 h Z 1 5X: # e 4 X.Z ^ ) J J h &.*.r.6X.X- &.= C : J j < : {.' C j ^ c 9 sXJ U 8.h r.Z C ",
"_.s.C M.>XM.#X3X5XC.I.$X2X~ 1.] 3 h H y s.H _.,XJ.1.q.^ C ' ' _ N W c N ^ ' ' ' ! a.J C ~ c C T J ^ h }.N 1.Z H h H ' 7.$XU.C X.",
"$Xe.a.I.r.XX3X=Xv.Q.aXl.^ u <.' + k.e 4 . * X # X * X . . O X s s $ T O k.a J j H.T 1.cX*XXX7.C.*.3Xs !. X~ {.Y iXa.8.> 9 & 1 *.",
"w l.7.l.T C.}.1.V.&.X.#XN J l.J h h s.C.1.1.C.j r.a.=X~ r.&.=XH eX,XZ o.H c qXX.&.J ~ <.C ' *XQ Y H ~ /.o.s.M ] *.8.^ s r.r.&.~ ",
"k.H.1.v.}.<.Y &.U.V.~ M.=XF _.M.J.T 1._.e.Q.' J s.J.!.1.' c &.1.C l.s.7.h e &.7.M T J x ).8.p.v.) ` Z C.8.8.>XZ r.8.a.m.o.*.T 9 ",
"] s.o..X&.=XT 8.X.I.> V.#X*.M j ,Xl.Y ] C M.s J.a #Xs.T r.<.I.*X .M.H.*.1.$ *Xj c m.~ Y k.J.].&.X.c o.J Q._.] m X.^ ~ J s.H.- X.",
"L I.H.m.J.l.V.!.>Xk.9 o.kXh iXV..XQ.N s.Z J.L M._.C.H qXI.$Xm.J.lX=XJ XXw H.Z kX~ t e.y Z ~ T r.^ T y a.7.p.r.o.&.' 8.1.&.' m.&.",
"l.~ c C.V.T a.x C.m.9 &Xs M.1.T j e.k.e.).q.V.C.U.C J.1.J ^ 7.C.=X] s.T > 1 x X.' J ] *.^ ^ ' ] <.a.8.7.s.H.1.1.a.~ 7.Z H e.a | ",
"O 8 H a x j y *.}.0 h wX8 : = M 8 h O + o : - + . + # * X O . . X $ t M.* C ] c ^ I &.H ] T c m.~ 7.X.X.o.R l.j c t 1.X.&.H.<.k.",
"+X*XU.sX- >XU.e.sX;X>X!.- j $XzXm.F.V.t N k.H a &.Z c x.1.1.m.2X-XC.{.{.kXXX9 h w 8 1 >Xk.*X^ aXH.Q.~ &.c 7.).t ] < Y 8 I.X.<.Z ",
"}..X<.s.r.C.X.' U.*.!.^ s.~ x M.c M.7.,X<.Z a.m.f.1 < 5XV.u.*.o.x l.*.N M.c c 8.s.!.1.] k.T <.=X7.rXo.2Xi.m.8.r.o.y.m.<.a.*.1.k.",
"U.T ~ s 8XJ m.H.M.N <XX.N 6X' 1.V.J s.3X8.Z.s h h C.7.~ k.<.T .X,X*.8.*.J N m.M.' I.!.M.&.] l.j V.7.}.I.V.1.m.*.u.o.8.7.m.Q.V.e.",
"H W.y ' N m.x M.m.k.~ 7.I.C.~.Z ] M J C.l.4 x r.# ' 7.s..XI.X.&.1.h *.Z j 1.I.C.X.T ^ 8.C <.U.Y N X.5.o.*.*.k.x s.a.k. .7.8.7.a.",
"$XG.o.e.' K c Q.J._.H.s.I.s =Xl.o.l.m.*.~ ] r.c w c m.' a.~ X.8.] M.Z r.8.C 6XuX8.>X{.r.h #.H !.M x w.7.{.Y.&.e.).J.^ e.8.l.7.s.",
"{.^ ).s H M *.< ~ X.H.l.7.I.V.Y *.J k.M J a.a V.C.V.7.' <.s.k.Z #X8.5X%X2X4 I.~ C.J.k.o.&.7.8 ' Q.J {.= C.H.r.*.X.8.` r.a.*.).).",
"4 > 9 ~ M C N X.J Z $ ] ~ : h j 5.h 4 C H N O }.s $Xi < $ 4 = > ; = & & + X : : 3 < # 8 3 = < *.r.+ *.Q.!.# 4 3 w X.] *.&.N b Y ",
"7.T lXk.J.,Xs.^ Y &.a.I.>XJ.=X).C.>Xr.I.C.Q.M.M.a.3XU.!.a.a.r.m.&.H T Y X.Y T s T j 8.<.<.1.=.' 7.4 uXH.m.r.0.T e.&.!.M.r.M.1.0.",
"5X8 V.x Q.7.W ,X=Xa r.*.H X.N J.XXY }.iXH m.] 7.a.H.J.{.=X!.}.m.8.mXZ Y - 6Xa.iX7._.y : h.s._.8.o.^ a.o.e.M.6Xa.s.7..X.X#X2.a.a ",
"*XQ.XXM.I.e.e.a.M.bXiXtXk.C ~ m.o.k.&.l.C c Z 8.T K.&.) X.<.Y ] H ~ I.U.1.M <.U.o.{.s.e.a.l.k.r.H.o.l.V.7.a.r.$Xv.T J C.7.M.7.e ",
"j C 1.*.1.l.' 1.I.k.H k.e.H X.C.* X.] a.^ 8.<.}.Z ^ z Z ^ &.H ,Xs.M.Z 1..X1 C J *.Q.$.Y 7.s.C.s.X.o.8.' l.C C.J.V.r.e.V.7.r.`.1 ",
"l.8.] l.o.C.~ 8.s C ~ uX*.V.C.J.Z ~ Y ^ k.l.~ a.' <.J.' J ^ H Z Q.&.e.H ^ X M.8.*.H V.k.] I.^ M.*.~ e.s.] <.k.m._ ] *.4.V.M.D O ",
"}.] a.k.r.1.] o.C.m.8 j XXX.e.{.d B t Y r.^ ^ {.' a.*.j l.1.H H.J.o.l.$X- ).s.C.e.*.l.k.m.X.r.<.C.j *.N X.] r.s.C.J V.C.a.V.l.1 ",
"}.a.H Z w ~ O 3 h h X &.t C s T 7.M.V.^.m.C.L 1.e.=Xm.U.e.m.^ H 7.T r.C : C Z J 7.r._.m.H.a.I.M.H.r.*.m.X.P < < j e.C.,.c - > H ",
"{.j *.8.~ J Y ' ~ k.k.s.~ o.M.j ^ ] G ~ C C ] C X.' _.N M s.k.D.o.~ o.! J ~ 7.o.X.1.' e.h Y M c X.M j ] Z Z o.M.*.J o.X.T m.1.m.",
"U.m.J >X_.m.U.I.$XuXwXI.}.s.7.8.<.U.r.1 - o.T OXJ ~ *.).m.a.H 3 t 1 3 w V.h #Xs.1 I.I..X7 ' * 1 3 l.=X7.' H l.J.a.I.H.k.5XC.{.Q.",
"k.!.H o.^ 8.] r.r.T r.N V.*.J.>Xk.8.] ~ *.e.H I.l.r.8.C.H.m.x Z N <.M a !.m.7.J.vXw.1.8.a r.4 ^ _.h 8.a 7.M.#Xk.r.l.,X8._.M.l.C.",
"XX*.XX*.t M ~ ] <.] l.=XXXs.H >XB.9 h ).s.r.H XX=Xr.J ' J.6XC.M.<.~ ^ k.d.V.m.7.=.1.<.H.u.k.s 1.).9 H.] m.r.1.l.L.{.H.*.s.1.m._.",
"Y H 1.<.N C l.y C.1.k.] V.7.1.m.s o.T k.iX~.3 k.*.T *X1.m.C.&.Y <.X.{ J _.k.7.8.<.V.N.8.k.m.C.N <.s.m._.s.1.C.}.8.8.}.!.8.+ m.o.",
"*.<.C.H 8.X.M.^ s.X.<.e.H.Y o._.V.C.$X=X<.^ e a.r.a.r.e.^ e.s.~ T M.V.J.I.] ` k.M.J { a.l.l.k.k.m.3 d.xX%.^ C.m.I.k.U.e.&.o.v w ",
"{.] H !.8.] <.] wX).*.M 7.X.Y *Xc X.~ ] ^ h C 7.).C.a.l.l.X.h 9 t 1.s.X.k.M.*.' 8.t o.1.Y N J < ~ 9 s.m.e T k.k.I.s ~ C.Q.g <.gX",
"8.1.x J T Z N H ~ N > w C 4 j @.s.C.m.] 1.l.X.a.r.I.X.J o.H J J C T <.*.r.X.*.Z l._.x C Z T ] <.e.s.M ' h 8.Y ;.Z $.q M ' $.1.7.",
"4 6 w g H ).5XY a XX' &.qXfXn.= C $X.XQ.J.{.T V.C.e.9 ^ 8 < < t s k.&.a x C.H r.e.1.# = $ r 1 N V.h N o.8.r.< : = X & - * 4 * <.",
"] M U.<.^ .XJ.~ k.Y C.~ J .X] J.V.8.uXC.s.8.V.a.7.Q._.c.m.r.s.V.8.k.C.m.<.[.s.* c Y a.o.J.N s h J.<.=Xk.T s.I.o.o.V.&.C.] J s.e.",
"X.8.^ Y &.H H ^ o.J.Z e N J.1.I.V.a.r.T e.V.s.Z H.s ' ] 7.] M.V.<.m.k.<.C.^ 1.^ &.8.g.C.<.a.V.^ ] I.V.!.7.] k.s.r.XXC H &.8.[ 7.",
"1.V.] Z k.X.~ :.J Y C.9 T a..Xs.C.X.&.m.1.*.o.Q.a.<.#Xe.m.m.J.k.h.r.8.<.<.e.7.x bXa.~ o.e X.J.s.I.M <.7.L.I.] *.I.6.o.k.o.C.s.t ",
"C ' *.Z M.] o.Y J >X5 w ] Z .XI.] a.m.*.r.e.s.e.J ~ s.m.X.C.1.r.' R.C.I.~ ' C.] o._.Z 8.*.y U.J I.M C a.b.!.k.m.k.Y.C.k.T 9.X.1.",
"..tXq.H.-.H J.k.] ' s.I.6XX.T J N J o.U.X.I.*.k.l.e.{.U.] 7.r.s.^ {.r.H.<.k.!.e ' ' jXC.C #.8.U.M.<.!.r.8.Y o.M H.C ] x 4 C.U.% ",
"$X,XpXiXwXXX$X*.@X7.l.#Xa.sXq Y N # > : = > : - e < 1 $ 8 : - , = 1 : 1 4 V._..Xr.> < : 7.8 > # > * & - : * # N s k.- Z M.a.&.{.",
"m.s J > 1 7.H.qX4 J N 9 w w w $ V.I.}.>X=X7.l.7.] Y ' Z ~ C ( *.X.T T e.X.] T Y w M.] k.(.<.<.] V.J Y &.M.7.m.V.&.Q.!.<.$XJ.8X_.",
"X.~ s.o.Z H ^ _.m.k.J.C.&.M.C.a.s.}.:XJ.>X1.Q.] s.M C.=X&.J.{.7XI.&.I.2Xs.m.Q.qXJ.a.1.^ s.{.*.e.v.l.5Xe s.o.Q.m.m.*XX.8.C.u.I.&.",
"r.' H s.' m.k.r.l.J 8.7.H.f ] *.Y l.m.!.m.8.*.J z.B.Q.Q.1.s.U.e.k.X.k.*.e.e.X.l.1.M.Q.<.C Y l.!.k.T U.r.C.0XU.7.1.^ 4.*.o.I.8.J.",
"] r.k.Y 8.&.H a.] Q l.r.V.X.a.8.l.U.V.m.l.C.r.Y o.I.U.1.r.M.V.s.r.l.1.a.r.I.^ a.e.V.e.x.x 4X8.s.s.a V.x ' M.' l.~ ' T 7.7.m.k.o.",
".Xo.' ^ 7.m.7.' 7.] m.C.H.1.8.k.H.J.m.Q.[ r.C s.8 XXV.&.#X*.a.J.m.s.Y V.o.^ e.a.<.8.k.8.-XM.1.I.:.e m.w ' 8.&.' V.` T m.#.l.^ o.",
"Z ] T o.l.M.a.r.<.&.*.' s.I.*.~ 1.>.a.U.*.l.1.} x ^ k.s.H V.k.V.M.k.l.&.!.m.V.C.J.Q.a.M.<.X.r.k.).1 <.X.1.5.J.r.H c I r.Y e.a.Z.",
"c 3 4 c 8 X.a.r.a.n w e 1 4 > 3 : > < > : 6.e.' h x Z T e M K j l.- - ~ &.y * = # - V.*.$ 7.* : & 8 s J : * 3 - < j < 3 ' 7.t 3 ",
"l.1.Q.X.7.C.I.*..XV.).3 x r.^ V.o.H o.a.o.7.M.H.C.J.I.g.*.Y r.r.*.s.m.7.] 7.9 ] N 7.7.T J H.8.r.m.V.s.^ V.s.J._.<.M.J.7.M.&.V.M.",
"lXQ.k.I.*.*.C XX#XX.J ~ H #X' <.8.h 6.H.).=XV.7.{.Q.+.=X~ H.#X.XE.5X).k.*.3 m.: 9 > !.s.o.J.t _.^ I.J.I.,XV.v.H.,XV.s.BX<.).{.k.",
"&.<.[ XX{.&.t <.~ s 3 c s.<.C.I.*.l.' X.H.H.7.J e.m.C.C.7.8.&.m.l.e.5.C.h.bX7.Y J M.V.T m.2XM.8.*.k.T _.r.Q.u.V.8.J.1.<.7.m.7.V.",
"V.^ V.M.A.^ 6.Y Y ' J w o.X.~ '.&.3X=X8.<.s.k.&.r.' l.l.H M.V.l.m.y.&.m.7.*.).M.o.*Xs.J.!.<.e.G.' &.M.s.o.8.*.s.H V.M.e.o.l.I.s.",
"J.I.M.M.Y 8.' *.a ,X~ x {.k.M.r.8.*.).7.7.k.s.m.] r.1.o.s.M.*.<.m.r.l.] ' V.@ C ' C.^ ^ 1.k.k.J V.l ' ~ H.a.).T m.1.r.*.m.8.>XX.",
"Z Y N ^ *.] x ^ X.k.y C.l.o.s.<.] ' M.*.6XO.n.R.V.J.] m.8.C ' J.C.o.*.U.M.&.> 3 M I.,.k.X.l.s.XX8.#XJ.e.X.{.S Q.U.).H k.M.e.#Xl.",
"M H / ' o.~ 3 a._.U.T &.X.: j N x 8.X.j s M 1.T &.x j Z j 1.C.l.] 7.8.l.o.A MX*.a ] s.&.8.] ^ !.J.s.l.8.s.e.t J I.m.U.s.r.Y T.H ",
"` *.e.8.<.e.-.V.1.&.o.|.U.y.uX] 8.w o.C h &.~ a.J 8.Q.T ^ V.J.l.m.e.S.&.s.U.H.1.Z w nXl.wXyX] J t 4 a w ^ <.J 7.X.^ s.hX#XaXH.> ",
"C.Z a h M *.s.K._.o.~ C &.<.*.j.' a.>XXXj sX>XV.M m.C.C.XX5X#XV.{.Q.h.kX1.U.o.c.iXa.H m.s.r.C.*.H.Y X._.9 U.&.U.Q.}.l.^ J Y H E ",
"&.A.^ *.).!.~ ' o.' h 7.T }.l.#.N a.] ^ ~ 8.T H Z ] *.^ T ' m.<.<.Y M.X.X.' 1.*.J o.m.Q.T <.] <.Y ^ ~ 7.&.V.h *.o.<.).7.Y T m.' ",
"' ^ <.J L.&.' 7.e.H H J *.o.Y r.8.a.k.o.1.] ^ ' X.Q.~ <.&.).8.7.3.Q.o.H s.V o.T N <.s.' l.*.J x C.X.8.' a.m m.r.H.).M ~ C 8.o.N ",
"Z 7.8.%.X.N o.*.8.' k.l.&.V.~ ' ] U ^ q.c o.1.N ~ ^ *.X.8.8.o.X.:.~ e a.V.s.^ <.{.o.l.H.o.o.m.s.8.Z r.Z k.v J.c 1.r.] 8.7.k.7.o.",
"8.] 2XX.1.I.o.8.C 1.e.<.7.I.&.X.l.C s T l.o.e.] ^ H X.^ ' 8.*.~ [ Q I.t.o.*.Y ] 1.e.C.<.] T ] *.7.h XXc.C M.X.8.r.] l.o.s.J Y 7.",
"=XdXc ..a p j s j w.] e.e ^ s.Y m.X.Y k.X.m.k.' H N a.o.] H 1.Y ~ r.o.^ X.~ &.H.Y a o.s.$Xl.m.Y o.S M m.X.<.X.s.r.I.7.^ <.&.J.J."
};
