/* XPM */
static char *result[] = {
/* columns rows colors chars-per-pixel */
"64 64 247 2 ",
"   c #050505",
".  c #0C0C0C",
"X  c #0D0D14",
"o  c #141414",
"O  c #10151F",
"+  c #1C1C1C",
"@  c #221C1D",
"#  c #18182C",
"$  c #261D22",
"%  c #2F1633",
"&  c #1B2531",
"*  c #242424",
"=  c #27272A",
"-  c #2B2B2C",
";  c #342B2C",
":  c #2A2B34",
">  c #342E35",
",  c #2D3135",
"<  c #333333",
"1  c #37363A",
"2  c #3B3B3B",
"3  c #501938",
"4  c #452E37",
"5  c #42363C",
"6  c #120547",
"7  c #0D144E",
"8  c #190C54",
"9  c #09195B",
"0  c #171556",
"q  c #27094B",
"w  c #320849",
"e  c #2E114C",
"r  c #39174D",
"t  c #270B53",
"y  c #231355",
"u  c #341356",
"i  c #12264B",
"p  c #1A2656",
"a  c #283448",
"s  c #383644",
"d  c #2A2B52",
"f  c #2A3855",
"g  c #021462",
"h  c #021B65",
"j  c #0B1B65",
"k  c #021C6A",
"l  c #0A1969",
"z  c #151665",
"x  c #031B75",
"c  c #131B79",
"v  c #291969",
"b  c #38196F",
"n  c #072467",
"m  c #01226A",
"M  c #162F69",
"N  c #022374",
"B  c #032C73",
"V  c #01237C",
"C  c #072A7A",
"Z  c #172575",
"A  c #073679",
"S  c #19347B",
"D  c #2F316C",
"F  c #4D1451",
"G  c #55195A",
"H  c #651A52",
"J  c #761D53",
"K  c #473D45",
"L  c #543053",
"P  c #672B4D",
"I  c #6B245C",
"U  c #752459",
"Y  c #69375C",
"T  c #773459",
"R  c #4C1D63",
"E  c #751F60",
"W  c #522869",
"Q  c #5A3A67",
"!  c #682666",
"~  c #673A67",
"^  c #773767",
"/  c #753A64",
"(  c #76306D",
")  c #633A76",
"_  c #3A4249",
"`  c #38475A",
"'  c #0D437D",
"]  c #2C426E",
"[  c #434343",
"{  c #49474C",
"}  c #4B4B4B",
"|  c #4E4956",
" . c #535353",
".. c #5A5A5A",
"X. c #6E4E5C",
"o. c #594469",
"O. c #5D4473",
"+. c #66456A",
"@. c #7B5963",
"#. c #654474",
"$. c #795272",
"%. c #51617C",
"&. c #656565",
"*. c #706B74",
"=. c #843457",
"-. c #88315A",
";. c #90386A",
":. c #90506F",
">. c #A94A7B",
",. c #91667B",
"<. c #AB677C",
"1. c #011F89",
"2. c #361D83",
"3. c #022384",
"4. c #04278A",
"5. c #0E328A",
"6. c #022693",
"7. c #2C308A",
"8. c #431D80",
"9. c #472983",
"0. c #6C3A8F",
"q. c #194A84",
"w. c #18558E",
"e. c #255589",
"r. c #2E5190",
"t. c #346798",
"y. c #1455AF",
"u. c #2754A8",
"i. c #396DA7",
"p. c #4B4A8D",
"a. c #6A4F97",
"s. c #486D96",
"d. c #594DAD",
"f. c #7657A8",
"g. c #4B6BA9",
"h. c #477AA6",
"j. c #5578A9",
"k. c #5779B6",
"l. c #706EB2",
"z. c #7A78BD",
"x. c #3477D1",
"c. c #5278D1",
"v. c #7476CD",
"b. c #924E86",
"n. c #AB5386",
"m. c #B75B96",
"M. c #976B93",
"N. c #B97389",
"B. c #B86A9B",
"V. c #AC7392",
"C. c #945EA4",
"Z. c #966DB0",
"A. c #9879BA",
"S. c #AB6BA8",
"D. c #A776A8",
"F. c #AA77BA",
"G. c #B777B5",
"H. c #C15C8D",
"J. c #CD6A8E",
"K. c #C4788D",
"L. c #C86897",
"P. c #DA6C98",
"I. c #C97A98",
"U. c #DC7495",
"Y. c #D67799",
"T. c #DC7A9A",
"R. c #E46E8E",
"E. c #ED6D8D",
"W. c #F26D8E",
"Q. c #E4758D",
"!. c #EC728E",
"~. c #F1728E",
"^. c #E46C91",
"/. c #E56997",
"(. c #ED6D93",
"). c #EA6D9B",
"_. c #F46D93",
"`. c #F66D99",
"'. c #E47494",
"]. c #EC7394",
"[. c #E97996",
"{. c #E3749B",
"}. c #ED759A",
"|. c #E4799B",
" X c #F37294",
".X c #F4739A",
"XX c #F77598",
"oX c #F3799B",
"OX c #D86EA5",
"+X c #C97AA6",
"@X c #CE74AC",
"#X c #D777A7",
"$X c #DC7AA4",
"%X c #E475A4",
"&X c #EB75A3",
"*X c #E37AA2",
"=X c #E878A9",
"-X c #F476A6",
";X c #E27BB0",
":X c #877DC5",
">X c #977AC5",
",X c #A77EC2",
"<X c #B17FC4",
"1X c #5989B7",
"2X c #6784B6",
"3X c #6C95B8",
"4X c #3D8BEA",
"5X c #3C94EE",
"6X c #5984C6",
"7X c #4F8BDA",
"8X c #5787D9",
"9X c #6685C7",
"0X c #7293CD",
"qX c #6689D7",
"wX c #77AAD3",
"eX c #558AE6",
"rX c #4992ED",
"tX c #6F97EC",
"yX c #73AFFF",
"uX c #B4829C",
"iX c #BA85A7",
"pX c #B282AA",
"aX c #A882B5",
"sX c #C8859B",
"dX c #D7839B",
"fX c #D582A8",
"gX c #C485B0",
"hX c #F989AD",
"jX c #FF9BB6",
"kX c #FFA2BA",
"lX c #9284C7",
"zX c #AE88C4",
"xX c #8AAED9",
"cX c #8BB7F5",
"vX c #D698CE",
"bX c #FFA5C5",
"nX c #98C6F1",
"mX c #B0D3F8",
"MX c #BEE2F8",
"NX c #CDDEF0",
"BX c #C8E4EC",
"VX c #C7E8FB",
"CX c #D7E9F8",
"ZX c #CDF3FF",
"AX c #D7FAFF",
"SX c #EAFAFF",
"DX c #F5FFFF",
/* pixels */
"{ [ - 2 < } < < < 2 } 2 - * < < - [ < } < [ * + * . < o 2 2 < }  .< < <  .; * < + * - 2 * 2 * o + - * o [ - 2 [ * 2 < < < < 2 - ",
"< 2 < 2 < < } 2 [ 2 * 2 [ < = [ [ < [ - 2 2 < - < - 2  .2  .2 = * * < 2 < * @ 2  .+ } 2 [ < - 2 - 2 < + [ < 2 * [ < 2 < - < [ 2 ",
"< - @ < } < - < - * } } } + [ * } - - [ } [ } - [ [ } . * , 5 > :.N.<.:.; [ ; - [ =  .[ } 2 < 2 * } * *  .< - - 2 2 <  .- < 2 - ",
"2 } } * + + o = o = < [ < < 2 - 2 * 2 - - - 2 2 2 2 * 2 @.N.I.T.Q. XXX}.T.dXsX<.@.; 2 - 2 [ * o  .* < + [ + - + o < < < [ - < < ",
"2 + * < 2 * < [ [ [ + 2 2 < } - 2 - - < + *   2 *.- @.K.U.'.'.]. X X(. X!.'.[.Q.U.T.dXN.* - * * *   * < ..2 [ 2 * 2 < < - - < - ",
"+ * * o <   . < . *     [ < o . * + + o + * o } @.uXT.'.(.E..X X]. X!.}.~.~. X.X_.}.[.Q.T.K.@ o . [ - * + - * o ..* * - + < * @ ",
"[ < * 2 } 2 }  . .2 2 } } * < - o + * o < * <.U.Q.!.[.].oXoXE._.!. X].].(. X_..X.X(.(.(. X}.U.:.- * @ [ + - * * + * - < } [ + - ",
"} < < [ < } } } 2 2 ..2 - + - -   2 o o :.K.Q. X~.W.XX!.(.!. X X X~.].Q.oX X(.}.).).).-X(.-X&XI.uX} + [ [ - [ * ..< < . o   o - ",
"o 2 < 2 * 2 [ < 2 - - } * * < * + o 5 I.'.!.oX!._.`._.`..X XE. XW.~.[.].'.(.}.'.T.Y.fX#X#X#X#X+XiXuX; [ - < + - - < * + < < - * ",
"< 2 - 2 [ < * - [ 2 * 2 } * [ 2 2 V.P.}.]. X!.!.~.W._._.E.].oX!.~.~.!.!.oX}.^.H.-.T T / ^ Y / ^ T uXuXK < < } * < < < 2 - < * o ",
"- < - [ < } = < - [ . 2 } - * + N.*X{.R.[.Q.Q.kXjXhXoXoX(.E.!.~.~.~.!.].].}.U.J.T P +.L O.+.L Q Y Y X.M.[ [ - + - * * * < 2 . - ",
"* [ 2 2 2 2 2 [ } < o - ..+ ..N.{. XR.[.[.kXkXQ.[.!.^.^.}.XX~.W.XX X X X(.].|.*XfXT +.+.o.Q O.O.~ Y Y { < < < - - - < < < - 2 - ",
"2 * + 2 2 * < + 2 2 o } + 2 @.U.(.E. XkXkX]./.).&X%X=X=X).).XXXXW.W. X X_.`.XX(.dXfXT / Q Q ) Q ~ Y { K < [ - < < - < * * < + - ",
"  o * + + + + - [ o +  .o . Y.R.E.XXjX'.{.%X;XOXm.H J B.;XP._.(. X_._._.W.W._._.(.&X+X^ / #.L aXM.*.- - - * 2 + + o - - - 2 < < ",
"} } [ ... } [ < ..} } [ . + J..X).bX&X).=XL.( R t 8 y u G >.OX-X}.].]. XW.!.XX~.oX'.#X:.+.Q ~ L | [ * ; + < [ + - . * o 2 - - * ",
"[ } - < < 2 - * [ < [ = < 4 '..XbXOX%XOX;.G w 8 0 l 9 j y w E OX%X]..X]. X~.~.W.E..XT.I./ ~ O.#.s ..- } < 2 < < - < 2 < < - < < ",
"[ * = +  .* 2 2 2 * } - * <.|.hX-XP.;X! w 8 7 0 g k k k 9 0 t G >.&X X~. X_.!. X!.!.XX/.B.~ o.o.+.> { 5 2 < < - < - < < 2 2 2 < ",
"* 2 o - + 2 + 2 2 < * < 2 uXU.hX).;X! e 6 g j h k k k k h j g t F m.U. X`..X X!.[.E.W.XX#X( Q o.Q > < - - ; 2 + 2 < < - < < < < ",
"} 2 - < - * + [ [ [ 2 < 2 K.bXU.).n.w 0 Z j N k k k h m h m k l v R $X&X-X(.(..X XW.`.`.&Xn.#.) Q +.< - [ [ - < [ 2 - < < 2 < < ",
"[ - [ + * * - . = - 5 2 < dXhX|.=XE y Z A 5.A B B h 9 n m A A C c t I OX).}.oX X~._.`._._.Y.) Q o.o.[ . 2 2 < < - < * < < - [ [ ",
"o . o * + * + - * *   = @.fXU.%Xm.F ] w.t.j.i.w.q.B B A ' e.t.u.w.7.r >.-X-X{.R. X_.`.`. XU./ ) Q o.= _ [   o . o - - - - * + * ",
"< * &.2 2  .< - * - < [ N.jX^.$X( D t.3XmXCXmX1Xw.' ' q.h.wXxXxX6Xt.p Q P._..X[. XXX`.(. X|.T Q Q o.$.2 2 < < * < - [ 2 < 2 < < ",
" .. 2 + 2 < *  .} + < - Y.hX(.#X0.W 3XAXSXSXCXAX1Xw.q.j.mXSXAXMXZX3Xs.e m..X[.].].}.&X>.(.|.:.Y Q Q D.- < 2  .< 2 < } [ } < < o ",
"} [ [ 2 [ < < < 2 &... .U.hX_.OXW r.mXCXCXSXNXVXwXi.i.xXSXDXSXBXMXZXs.f U {.].!.~.(.&X;./.Y.:.+.+.Q uX2 < < < } < * * 2 - 2 < o ",
"+ + < - < < - < 2 < * < Y.-X_.OXD t.xXVXBXVXBXVXnXi.1XmXSXCXCXBXBXAX1X] G OX}.!.~.[.#X-.{.Y.b.+.Q +.V.- 2 + 2 2 2 < < 2 < < [ o ",
"2 < - < - 2 * < + * * ..Y.oX`.n.b D j.nXZXZXVXZXwXt.1XZXZXBXBXBXZXZXh.S e b.&XW.~.'.+X=.%X*X$.+.~ +.gX< - < 2 2 - - - < 2 2 *   ",
"[ - < 2 < < - - 2 2 o + T.(./.L.u M q.g.0XwXxX0Xh.' ' 1XZXZXAXAXmX6Xt.5.8 ! P.XXW. X#X=.{.*X~ L Q +.V.- - - < < 2 * 2 2 < 2 < o ",
"[ < * * o -   . + +   - Y.{.`.P.R z M ' w.w.i.e.' ' ' ] 1X3X0X2Xi.r.A k v R #XXX`.(.<.-.'.$X~ a.+.pX5 < - * . o + < 2 - + . . * ",
"[ + < < * * * - * 2 2 < sXU.^.OXG q j h B B B B ' A N B q.' q.7.5.B B j z u OX).).P.=.:.'.%X~ Q ~ pX+ * * * - 2 - * - - * 2 < 2 ",
"[ 2 * } [ 2 2 [ }  . .2 @.dX'.{.>.F 8 g h m h k n n k N n n n C N x k 9 l q >.-X%XL.=.K.|.J.( ) iXX.} < * * < 2 < [ 2 2  .2 [ 2 ",
"< [ * - - < - < < * < @ 2 <.dX{.OXE t z g h g j m g x l m h m g g n m h 8 F L./.+X:.=.dXY.-.^ n.uX* < o < 2 } 2 < 2 } < [ 2 2 2 ",
"} - } - o + * - < - 2 } [ < $ dXOXL.! t 8 z h h 9 m j g j m k m l 9 9 7 q ! @XOXn.T L.dXY.T ,.V.[ o 2 - 2 < - 2 2 [ 2 < < - 2 [ ",
"* * < - * + 2 o 2 - < - 2 < < 2 N.I.#XU G q z l g j z g h m h h l 8 0 r J #X#XB.( :.P.*X:.,.X.@ - < 2 [ < < 2 [ < < [ [ <   2 - ",
"< - 2 * < - 2 - 2 - < < 2 * - [ 1 4 sX+X@X0.R u t 8 y y 8 0 0 q e u R ;.T.$Xn.^ :.gX@X+XM.s 2 < 2 o < &.- - 2 2 [ < [ < - - @ o ",
"[ - * [ < * - -  .[ < + < - * } + = = % Z.G.;XH.;.U J J I I U U >.OX;XdXuX:.;.b.pXaXl.l.k.& * X - o < 2 o * 2 < [ o * 2 [ + - ..",
"< < + * * * * * * * . o * . + - 1 2 r.9 t F ;./.*XP.;XOX#XOX$X*X%XOX#XB.Y O.aXA.a.lXk.6X9X: = - < < + - + < * < * - o * - - < < ",
". o o + * [ } * + } * -  ...2 . * g.n k z t w :.H Y b.M.B.fXfXiX@X<XZ.p.j.j.8X8XeX7X8X6XO o o + 2 + * - < < . . .     .   o   < ",
"- + [ - - } [ * < * 2 - * } = 2 s 1XS c 1.6 n.+XT L L H H H L e z.0XqX8X6XeX4XrXrXx.C 7 _ + + + 2 - } < * < [ - - 2 - 2 - * < < ",
"- - - * - * * - - [ * o * 2 - [ s %.a i 9 # fX|.|.Y.T 3 P G W qXnX7XrX4XeXeX7X4.x x x j < < 2 - - 2 2 _ < - < < < } * * - < - < ",
"< 2 - * < - * - * * 2 o * < } < 2 - - : 9 6 +X%XT.fXuXiXpXaXv.tXeXrX5X4X6.1.x 1.4.1.3.M + - 2 < 2 * < < [ 2 - - 2 < - 2 - 2 < o ",
"* * - * 2 - - * * } o o - * [ [ - 1 2 , 7 8 F.pXpXF.aXF.aXlXg.c.7Xu.k x V 3.6.6.6.1.6.h , o [ * [ + * < < [ 2 < 2 2 2 < * < - < ",
"-  .< 2 - * [ < = - < [  .= = * * * - [ f y >X,XA.>XzXA.lXz.u.i.tXg k N B 3.6.6.1.6.4.A * - < [ 2 - [ < < * - * 2 * - + o 2 [   ",
"} } .... .} } - [ < < } < ..o * + . . X X # zXZ.>X:X>X:XlXlXz.lXv.v.Z C V 5.3.4.4.3.3.k - o .   . . . . . .   + + < . * 2 < - [ ",
"2 + * . . < 2  .o * * o o o o . 2 2 [ } | % Z.,XF.Z.,XzXZ.aXF.D.G.,X6 Z N C 3.V V 1.5.n [ < - - 2 * * - 2 < 2 2 - [ [ < } 2  .[ ",
"- * < - * * * [ 2 2 2 2 - 2 2 < 1 _ ` _ | s ~ @XY.{.Y.P.OXOX).).P.#XF.v c 3.k N 3.x x j 1 [ - < < 2 } o < - [ 2 2 } - < 2 < [ - ",
"< - * 2 - 2 2 < < * < < 2 + - < cX6X6X] a s F @X{..X{.*XP./././.P.L.G.u Z c.yXyXyXeXV j * * 2 [ 2 * [ < 2  .2 < < * < - - [ < 2 ",
"- < < * < - * < - * 2 < 2 - 1 , wXtXnXA 1X` r R zXG.G.G.S.V.S.S.C.C.Z.0.Z eXeX4XrXrXx M +  ., < < + 2 + - 2 * 2 * - * < - 2 < - ",
"[ - - * < 2 - - < - < 2 2 < , , eXy.y.B i.a b b Z.>X>XF.D.C.d.d.v.v.f.v.2.7.eXrX4Xx.3.7 } 2 - [ < o 2 o - < - * 2 - * 2 - 2 - - ",
"* - - - 2 2 < < < - - - < 2 - - 7XrXyXA j.a v v z >XF.S.B.S.v.6.cXtXcXr.8.8.5.x.rXV n a - - < < [ o - - < < 2 < * + * < * < < 2 ",
"@ . o + o - < < < + o + o o . . k.7Xt.X O 1 0 Z 9 r.zX@XB.! d.6.1.x tXd.9.8.c 3.C B j - . < . .   o + * . . o . . + . o - < + o ",
"2 - [ - < 2 2 - } 2 [ . + < - 2 - _ , < - , p l 9Xt.K G.@Xb.d.u.cXcXc.7.0.8.7.1.n M ] * * 2 < < 2 2 < - 2 < [ [ < 2 2 < 2 - 2 2 ",
"..[ 2 2 - - * } } - * * * [ - < < + , 2 [ } p 7.k._ - +.b.C.f.v c 5.v.d.f.b c C # 2X_ < - 2 + [ * 2 [ 2 } 2 2 2 } 2 < *.- [ [ < ",
"- < - [ [ < + - * + o * 2 - 2 [ - 2 = - 2 _ 7 9X, 2 2 2 K ,.<.B.) vXR Z.O.D 9 i * 2 2 * 2  .2 - < < * [ < [ < 2 < 2 < < < 2 - 2 ",
"2 - 2 2 2 * < * * * * o - - * [ -  .} < - & 2X, < = 2 < * > :.:.M.M.M.Q 1 p d 1 - } < [ [ - < 2 - - 2 < - < - < * 2 2 < - 2 [ < ",
"2 2 2 2 * < * - + } * + [ < 2 < < - [ , < _ ` 2 - < < - < 1 ; < 1 s 4 : : v X * - 2 * - < < < * 2 + - * 2 2 [ * < < < - < < } - ",
"* * * * < - + - - 2 + 2 2 - < < - * 2 ,  .= 2 K 2 2 - 2 < * = 2 2 - - K & , . o + 2 , 1 - 2 < } < } 2 < - [ * [ 2 [ * < 2 < } 2 ",
"+ * - * - * o < [ [ - - - o + @ + < - + + + ; * - + + * + < 2 2 - > < 1 & * &., + - < - < - - [ [ < 2 < < < o * [ 2 [ < < * [ * ",
"- - < < < < - 2 < - - [ 2 < ..- < o - * + - = 1 - < _ * * 2 2 < 1 < 2 = < [ 2 < * o &.2  . .- * o o o o - < * - - * < ..} ..2 . ",
"2 * + + + - < [ [ - * + - < - < - < } } * &.*.| 1  .9X] }  .{ 2 [ [ < ..; [ - 2 ..< * 2 < < 2 - 2 * - [ o [ - [ [ [ 2 - * * * * ",
"- 2 * < [ [ * - - - + < * [ 2 - @ < = = 3X2Xl.f.f.v.qXt.f - 2 > < * 2 = - * < - * - < [ * < - - * - * < - 2 + < - - [ < * * 2 - ",
"- - - * 2 - - < < * * * - - * < < < 2 - 1X6XqX9Xl.r.] : - _ < f }  .2 - s.i ; = * - < - 2 - * + 2 - < * < * 2 < 2 [ + - * < - + ",
"* - < - - * - - < * 2 < < 2 * - - * * < + f M i = = , - < < xX2Xz.a.a.l.qXj.` ; [ - 2 2 - - 2 < < * < * < + 2 + < < - < < < < - ",
"< -  .- < 2 - < * - < < < [ - - 2 + + = < - , - = * - = = < k.8XqXc.9Xg.] a = = < < 2 - - * - - < + } 2 @ 2 - < < - < - 2 * * < ",
"} ..+ - + o + + + < * < o * 2 * 2 - * < - 2 2 * * * < - = * s C u.5.M i & - - 2 * + - < } 2 2 * - * + < - < - < < 2 < - - - 2 2 "
};
