/* XPM */
static char *result[] = {
/* columns rows colors chars-per-pixel */
"64 64 229 2 ",
"   c #070707",
".  c #0C0C0C",
"X  c #100F12",
"o  c #141414",
"O  c #1E1318",
"+  c #1C1C1C",
"@  c #0C0C34",
"#  c #242424",
"$  c #282728",
"%  c #2C2C2C",
"&  c #2A2C38",
"*  c #2E3035",
"=  c #343434",
"-  c #37353C",
";  c #3B3B3B",
":  c #4B2D38",
">  c #040B4E",
",  c #181B46",
"<  c #080851",
"1  c #061659",
"2  c #19135D",
"3  c #25145B",
"4  c #3B115A",
"5  c #1B295A",
"6  c #302E51",
"7  c #33325D",
"8  c #021564",
"9  c #0A1664",
"0  c #011B66",
"q  c #09156F",
"w  c #021C6A",
"e  c #091968",
"r  c #171866",
"t  c #061876",
"y  c #021C74",
"u  c #031C7C",
"i  c #331762",
"p  c #231B72",
"a  c #03236D",
"s  c #00286F",
"d  c #032572",
"f  c #052877",
"g  c #062D7A",
"h  c #172679",
"j  c #103575",
"k  c #2D266E",
"l  c #343162",
"z  c #511849",
"x  c #47175A",
"c  c #64165E",
"v  c #78165B",
"b  c #53364E",
"n  c #79335B",
"m  c #4F1963",
"M  c #553864",
"N  c #563E6E",
"B  c #5A3E6E",
"V  c #512572",
"C  c #5B3E72",
"Z  c #593E75",
"A  c #7A256C",
"S  c #643C67",
"D  c #6B3D6C",
"F  c #723D6B",
"G  c #434343",
"H  c #484647",
"J  c #4B4B4B",
"K  c #525252",
"L  c #5A5A5A",
"P  c #56416E",
"I  c #5A416D",
"U  c #564371",
"Y  c #5A4171",
"T  c #6F426C",
"R  c #654272",
"E  c #764979",
"W  c #656565",
"Q  c #8C1455",
"!  c #84155A",
"~  c #891759",
"^  c #951657",
"/  c #8C1D64",
"(  c #94316E",
")  c #B2336A",
"_  c #824D5E",
"`  c #914E66",
"'  c #834974",
"]  c #8E5277",
"[  c #98547C",
"{  c #AE4E78",
"}  c #B95A7E",
"|  c #956174",
" . c #C5457C",
".. c #F6527C",
"X. c #041E88",
"o. c #011E96",
"O. c #022485",
"+. c #012489",
"@. c #092989",
"#. c #122784",
"$. c #0A3583",
"%. c #0A3985",
"&. c #0A3A85",
"*. c #113689",
"=. c #042898",
"-. c #0A3495",
";. c #13349A",
":. c #2F2A89",
">. c #0B35A2",
",. c #3B3DA2",
"<. c #793A81",
"1. c #633796",
"2. c #0D428B",
"3. c #15478F",
"4. c #174E95",
"5. c #1A5799",
"6. c #2B5092",
"7. c #20629E",
"8. c #144AAE",
"9. c #1D5AA3",
"0. c #1856BD",
"q. c #2057B1",
"w. c #2767A7",
"e. c #2D70AB",
"r. c #3175AE",
"t. c #387BB4",
"y. c #76538F",
"u. c #4A6AB9",
"i. c #6B68B5",
"p. c #124CC2",
"a. c #1A54C4",
"s. c #1F6ED2",
"d. c #2E72D4",
"f. c #2474D8",
"g. c #3B7DE2",
"h. c #4A78D0",
"j. c #7076C2",
"k. c #874F88",
"l. c #A55784",
"z. c #B65987",
"x. c #A44892",
"c. c #BA5A9C",
"v. c #BB6481",
"b. c #A76797",
"n. c #B86896",
"m. c #A652AB",
"M. c #9779BB",
"N. c #AA6AAA",
"B. c #BA71AA",
"V. c #A977B5",
"C. c #CF548D",
"Z. c #D75787",
"A. c #EB5A86",
"S. c #F45985",
"D. c #CB6689",
"F. c #DB678E",
"G. c #D36D8D",
"H. c #CB6A96",
"J. c #D86A95",
"K. c #CB7396",
"L. c #DA7398",
"P. c #E7668B",
"I. c #F3668B",
"U. c #EC738F",
"Y. c #E56B94",
"T. c #ED6C94",
"R. c #EB6798",
"E. c #EC6E99",
"W. c #F46995",
"Q. c #F26D94",
"!. c #F26D99",
"~. c #E57397",
"^. c #ED7295",
"/. c #ED7499",
"(. c #F17194",
"). c #F2749B",
"_. c #C579AB",
"`. c #D078B1",
"'. c #F37FA4",
"]. c #8A7FCA",
"[. c #917FC3",
"{. c #3C82B7",
"}. c #4F8DBD",
"|. c #1396F9",
" X c #2989E8",
".X c #3787EB",
"XX c #3A93ED",
"oX c #368CF6",
"OX c #2F97FB",
"+X c #3594F5",
"@X c #3697F6",
"#X c #3B93F4",
"$X c #3496FB",
"%X c #4C8FC1",
"&X c #5897C5",
"*X c #6AA5CA",
"=X c #7DB4D7",
"-X c #4889E7",
";X c #439AE8",
":X c #4491F7",
">X c #56A3F4",
",X c #52ABF8",
"<X c #6CB9F2",
"1X c #72BCFD",
"2X c #73C3FF",
"3X c #7BC3FE",
"4X c #D481BB",
"5X c #EF88AA",
"6X c #FA9AB6",
"7X c #FAA3BE",
"8X c #8782C4",
"9X c #8682CB",
"0X c #8880CA",
"qX c #8D82C9",
"wX c #88B9D9",
"eX c #F8A7C3",
"rX c #95C0DB",
"tX c #93C9F5",
"yX c #A8D2E8",
"uX c #B4D4E9",
"iX c #CAE3EE",
"pX c #CDE3F2",
"aX c #CEE8F7",
"sX c #D2E5F2",
"dX c #D8EAF4",
"fX c #DCF3FC",
"gX c #E2F2FA",
"hX c #EAF9FE",
"jX c #F8FDFE",
/* pixels */
"H H - ; % H = ; % G G ; # # % = % ; = G ; G % $ # . ; # ; = = G G % % % H % # % # # % ; # = % o # $ # + J % ; G + = ; = % ; ; % ",
"; ; = G ; ; G % ; ; % ; G = # J G ; H % = - = % % % ; K ; G ; = % % = = = # % ; J + G = ; = = = % ; = + G % ; $ ; = ; = % ; ; = ",
"% % + - ; = = % % # H J H # G # G % % G H G H % G G K : D.^.~.} J = ; G $ % % # G % K ; J ; = ; % G # + K = % % G = = K % = ; % ",
"= G J # # # + # + % = ; = = ; % = # ; = = % = { F.^.(.U.(./.U.(.(.U.U.[ = H J # ; % G % ; H # o J # ; + J + % + + = % % G % ; % ",
"= # % % = % = G H ; % = ; $ ; % = # % ; G.^.(.(.(.(.(.(.(.(.(.(.(.(.(.U.U.D.= % % % G ; + % $ # #   # % K ; G = % = = ; % # = % ",
"# = # + % . X % + # .   G % o . + $ Y.^.(.(.(.(.(.(.(.(.(.(.(.(.(.(.(.(.(.(.U.D.X %   + X + + o   ; % # + # o o L # # ; + = # $ ",
"G = # = J ; G J J ; ; G J # = = D.Q.Q.(.(.Q.(.(.(.(.(.^.(.(.(.(.(.(.(.(.(.(.(.(.^.G.# # $ + + $ # % + G # % $ # # + % = G G # % ",
"; = = G = G G J = G H ; % # % L.T.T.Q.Q.(.(.(.^.(.(.(.(.(.(.(.(.(.(.(.(.(.(.(.(.(.(.^.G.G J = ; = G + ; G % G % K ; = . o   o % ",
"# ; = ; % ; G = ; % % J # # ^.T.Q.Q.T.E.Q.Q.^.(.(.).(.(.(.(.(.(.(.(.(.(.(.(./.(.(.(.(.(.Q.| G # # # # G % = # % % = % + = = $ # ",
"% ; % = G = % = ; ; # ; J U.G.D B C B Y P Y I I [ U.(.(.(.(.(.(.(.(.U.^.^.^.(.).(.(.(.(.(.(.^.- % $ # G % % G # = = = ; % % % o ",
"% ; % ; = K # = = ; . = D.F B N B P U N I U U U L.(.(.(.(.(.(.(.(.(.).(.U./.5X7X7X/.(.(.Q.Q.T.^.% # % # = ; % % % % $ # % = o # ",
"= ; G ; = = = ; G ; + $ S B N N B P B U U U I ~.(.(.(.(.(.(.(.(.(.(.(.(.(.(.(.(.^.7XeX'.Q.Q.Q.Q.(.$ # = = = = % % = % ; = % = % ",
"= # + G ; # = # ; ; . G D B B B C U Y U Y I /.(.(.(.(.(.(.(.(.(.(.(.(.(.(.!.(.(.Q.(.).eXeX^.(.W.^.v.= = = G = = = # % # # = + % ",
"  X # + + + o % H o # K o o [ n.K.M Y Y Y L.(.(.(.(.(.(.(.(.(.(.(.(.(.).Z.Q Q  .E.(.W.(.5XeX/.(.Q.I.% % % % = + # + % % % ; % ; ",
"J K ; J + J ; = K H G G o o G K : Y I I [ Q.(.(.(.(.(.(.(.(.(.).(.T.) v 2 a 0 9 x ^ Y.(.T./.eX/.Q.Q.# % + % G # # o + # = # % % ",
"G ; = % ; = % % ; = ; % = $ # ; R C P I Q.(.(.(.(.(.(.(.(.(.(.).U.v 9 0 a 1 0 0 8 8 m ^ T.T.!.7XE.Q._ K = ; % = % = ; % = = = = ",
"; % % # J $ = = = # G = # J % F I C I D.T.(.(.(.(.(.(.(.(.(.Q.) c 0 0 0 0 0 0 a 8 0 w r ~ W.!./.6XT.J.G ; = = % = % = = = ; = = ",
"% G + % % ; # = ; = % % ; G - Z N Y R ^.Q.!.(.(.(.(.(.(.(.U.Z.x 0 a 0 0 0 0 0 0 w 0 8 8 2 ^ W.W.5X'.^.$ = = = # = ; = = = = = = ",
"J ; % = % % # G ; H ; = G + T N I Y z.Q.!.(.(.(.(.(.(.Q.(./.v w w 0 0 0 0 0 0 0 w a w w w 3  .E.Q.7XY.= G : % = G ; % = = = = = ",
"G % G + % + = o # % ; = = ; I N C P Y.Q.(.Q.(.(.(.(.(.(.(.^ w f g g f a a 0 0 a g g &.$.g a / !.W.5XQ.O ; = = = $ = # = = % G G ",
". . o # + + # $ # + . # # X B N Y I ^.^.(.(.(.(.(.(.(.U.{ p g 4.7.w.9.2.g s s %.5.e.t.r.9.*.p Z.Q.T.'.z.=   o o + $ # = # # + # ",
"; = L = G K = $ % = G G J ] N P P S Q.(.Y.(.(.(.(.(.^.(.A &.w.%XwXwX*Xt.4.j &.7.}.uXfXyX&Xw.*.( W.Q.6XJ.; - = % = = ; ; ; ; % = ",
"K + ; + G = # G G + ; - % H.C N I ' !.T.{ (.(.(.(.(.U.C.k 7.*XaXsXdXjXuX{.4.4.}.dXdXjXjXhX&X4.( Q.T.6XW.= = J ; = = ; G G % = + ",
"G G H ; = = = = = W J J ; J.B P Y [ ^.(.' !.(.(.(.^.T./ 2.t.pXiXsXgXjXjX=Xe.e.=XdXsXhXdXdXyXq.V T.I.5X!.= = = G ; $ % ; = ; % o ",
"# # = % % = % % G = # = % Y.I P Y l.T.^.S ^.(.(.(.(.!.m 3.}.fXpXiXsXdXhXiXt.r.rXiXaXpXiXaXwX5.k P.Q.5X!.; % ; ; ; = = = = ; ; o ",
"= % % = % = % = # # # K = Q.I I Y ] ^.T.I Q.(.(.(.(.) a 2.t.hXdXsXsXsXgXfXt.r.*XgXpXaXgXyXu.3.i  .W.).Q.$ % = ; $ $ % = ; = # . ",
"G % = ; = = % % ; = # # K P.R P N T Q.Q.I /.(.(.(.(.~ a $.5.%XuXhXjXhXgX}.7.4.e.&XwXwX&Xe.4.g i Z.Q./.(.% % = ; = % ; ; % = % . ",
"; % # # # #   o o + . # . b K.P P S Q.^.R z.(.(.(.!.c e s &.5.r.}.&X&Xt.w.2.$.2.9.9.w.5.2.g a 4 R.W.^.^.% % o . # % % % # o . # ",
"G # % % $ # # # % = = = # % ~.T C Y Q.(.' T Q.(.(.Y.i 0 0 a g &.3.4.4.2.g d a d d g g d a 0 9 v Q.I.R.Y.# + % ; = # % % # ; = = ",
"= = # K J ; G ; J K J ; G ; ` L.C I G.Q.L.Y L.(.).) e 0 0 0 0 a a a a w a 0 0 0 0 0 0 0 8 8 2 ) Q.T.T.} # # = ; = ; ; G K ; G G ",
"= G # % % G % = % % % # ; % ; G.z.I F Q.(.I R ).!.F.3 w 0 0 0 0 0 0 0 a 0 0 0 0 0 0 0 0 8 9 ! Q.W.T.L.+ = G G = ; ; G = G = ; ; ",
"G % J % # + % % % % ; ; J % % G G.[ Z E.!.J.I [ (.(.! 0 0 0 0 0 0 0 0 0 0 0 0 0 0 0 0 0 r v R.Q.T.: = % ; = ; ; ; ; ; ; = = ; G ",
"% # = = % # = # ; = ; % ; = % = % T [ ' Q.(.] P n.U.^.! 2 0 0 0 0 0 0 0 0 0 0 0 a 0 9 m Q T.Q.v.* ; = ; = = G G = = ; G % . = % ",
"= % G % % # = % = % = = = % % ; ; : J b.T.!.(.E P l.~.(.) v 4 8 w 0 0 0 0 9 0 9 3 c ^ !.^.J.- * = o ; L % % ; ; ; ; G = = $ # + ",
"G % + G % = = % K G % # % % # G + $ # |.u.C.W.Q.[ P E /.(.(.P. .~ Q ! v ~ ~ Q )  .).R.H.$ # $ . # o = ; + # ; = G o % ; G # % J ",
"= % # + # # # # % +   o # o + % = ; ; OX|.|.-Xy.G.L.T I n.!.(.(.(.(.^.(.(.(.I.T.L.( p 8 t q.& % = ; + % # % # = # % + + # % % = ",
"+ o o # # G G $ # G % ; J L = . o H = G XXoXOX+XOX-Xi.k.E n.Y./.^.(.~.F.} { S 7 ] @ 1 f d y +X& % + $ = % % + . .   . . . . . = ",
"% # ; % # G % % % # % = # J # ; ; ; J ; 8 y .X+X@X@X$XOX@X#XXXh.5 7 7 7 l 7 7 F (.} > u y =.OXXXG ; ; G $ = = % % = ; = + % = % ",
"% = % # $ # # % % ; % + # ; = ; = = = % X.O.w 1 f .X@X$X@X@X@XtX;X7 7 7 7 M J.Q.(.^.> u u = .XXX% ; ; ; = = = = = G # % % = % % ",
"= = % # ; % # % # # = o % = G = ; % = = +.+.+.O.y 0 8 g #X$XOX;X>Xb.K.^.).(.(.I.I.Q.@ w + % G % ; # % = - ; % % ; = % = % ; = + ",
"# % % # = % % # # G o + $ # G ; = = = % O.+.+.+.O.+.+.y 8 8 4.#X@Xu.V.B._._._._._.`.> e % + ; # G # # = ; ; = = ; ; ; = $ = # = ",
"% K % ; % # ; = % % % ; K # % # # # = G g +.+.+.+.O.+.O.O.O.q 9Xu.8.9X0X9X].0X0X0XqX1 - % % = ; = = G = = % % # ; # % + + ; G   ",
"H J K L K K G # ; % - J = K + + + . . . +.+.+.+.+.+.O.O.+.O.j.0X9X8X9X9X0X0X].].].]., . % X . o . . . . .     # # % . # = = ; G ",
"= # + o o = = H + % + o + o + o = ; G G +.+.+.O.O.O.+.O.O.< [.M.[.M.[.qX8X].].[.[.M.& ; G % = * = % # % ; % ; = % ; ; = G ; H ; ",
"% # = % # # # G ; ; G ; % ; G = = G J ; @.u w 0 w t O.O.g D.R.Q.I.I.Q.U.Y.(.!.!.R.n = % - G * ; G = K + = % G ; ; J % ; ; = G % ",
"= % # = % ; = = = # % = ; + % % $ ; ; G +.t XX,X<X1X.Xh 3 ..I.S.I.I.I.R.Q.(.!.!.P.x ; & a.+X@X3X= # G = ; J G % = # % % % ; = ; ",
"% = = # = % # = # % = = = % - = ; ; - ; u d @X$X$X$X-Xp <.n.m.C.C.c.N.V.V.V.B.J.z m = OX>.1X:X>X= # G o % ; % ; % # % = = ; = % ",
"; % % % % = = % = % ; ; G % = % ; ; = G e O.d.@X$X#X#.V c.h.OXd.d.1.c.V.M.].9X*Xr x ; f.=.0.a.@X- # = o % = % % ; % % = % = % $ ",
"# % $ % = = % ; % = = # = ; = # = % = ; , +.w $Xd.#.:.c 1.3X,X1X=..Xc.N.M.].9Xy p 6 = g.=.1X>X-X; o = # = = = = # # % = % = = ; ",
"o o o + o # = = = + o o o o . o . o . o X @.+.O.+.#.:.! ,.XXo.o.X.s.1.S.P.W.6.y t 3 = % X p..XXX. o + % . . + . . + o . # % o . ",
"= % G % = ; ; = J ; G o + = % ; % # % = % -.-.u X.#.k ( ,.+X2X1Xp.s.<.P.R.b 7.-Xh r % % # ; 6.; = ; = % ; ; ; G = ; ; = ; % ; ; ",
"L G ; ; = = # G J % # # # G % % = + = = G -.:X* +.@.:.x.1.+X>.=.p x.c.N.y.# ; -X;.t ; * % G % H % ; G G J G ; G J G = K % G G ; ",
"$ = $ G ; = + ; % + o + ; % ; ; % ; % % ; 6 = $ 1 @.h ( A.;.tXp.Z.Z.H.M ; K = % :Xt * # = J ; % = = $ G = ; % ; = ; = % = ; = ; ",
"G % G = ; # % % # $ = o ; % % ; % G G % = = ; % = u #.- ` ..Z...S.A.% : % = L = % oX8 - G = ; = # = = = = ; = ; $ ; ; = = = ; = ",
"; G ; ; % = % = + J $ # G ; ; = % % G % % ; ; = $ = @.@ = = : b ; - ; % % % . # % 6.*.% % ; = % ; # % $ ; = G $ ; = = % = = G % ",
"# # + % % % + # % ; + ; = % % = % # ; = J % = G ; ; , q = # % : ; % % ; = = X o $ ; - = # ; = G = G ; ; % ; # ; G ; # = ; = G ; ",
"+ # $ # % % o = G ; # % % . + # # = % # + + = # % # + u + % ; ; $ % = ; % $ W % + $ * # % $ # G ; = = = = % o # ; ; ; = = # ; + ",
"% % = = % = % ; = % $ G G ; K $ = + % + + % # = $ % G % 1 ; ; = ; ; 6 % = G ; = # + K - L K = % + o + o = = # % % % = K G K ; # ",
"= # + + # = G G ; = = = % % = = # % H J $ J J ; + G = * ; G H - ; ; % J 3.:Xn.l.B.4Xu.* ; % G % = = % J # ; % = ; ; = G % # # % ",
"; ; $ = ; = % % % # + = % ; = % % % % % % % $ # # % % # # % - % % % = 4.s.:X-Xy.y.i.+XtX# % $ % = % % % % ; # = % = ; % # # = % ",
"# # % # ; % % = = # # $ % % # = % ; ; % = % $ $ % G j -X`.l.n.B.6.G % # 5 8.0. XOXOXOXXX; % # # = % = # = # = = ; ; # % # = % # ",
"# = = % % + % % = % ; = = ; # % $ # # = + % = + $ 8.oX@Xi.k.k.j.+X3Xo = = : $ % 5 4.@.6 % % = = = # = # = + G + % = % = % = = % ",
"= $ J % % ; % % # % = % = ; % % = # + $ ; % = % # $ *.8.f.$X@XOX+XXXG = % % # % = % % = % % % = = + J ; # = % = % % ; % = % % = ",
"G K # # + + + + + = % = o # = % ; % % = $ ; - $ # # - * $ d $.0.-.6 % % % % % ; % # % = G = = % % # # = = # % = = = = # = # = = "
};
