/* XPM */
static char *result[] = {
/* columns rows colors chars-per-pixel */
"64 64 231 2 ",
"   c #070707",
".  c #0C0C0C",
"X  c #100F12",
"o  c #141414",
"O  c #1E1318",
"+  c #1C1C1C",
"@  c #0C0C34",
"#  c #242424",
"$  c #282728",
"%  c #2C2C2C",
"&  c #2A2C38",
"*  c #2E3035",
"=  c #343434",
"-  c #37353C",
";  c #3B3B3B",
":  c #4B2D38",
">  c #040B4E",
",  c #181B46",
"<  c #080851",
"1  c #061659",
"2  c #18135D",
"3  c #25145B",
"4  c #3B115A",
"5  c #1B295A",
"6  c #302E51",
"7  c #33325D",
"8  c #021564",
"9  c #0A1664",
"0  c #011B66",
"q  c #09156E",
"w  c #021C6A",
"e  c #091968",
"r  c #171866",
"t  c #061776",
"y  c #021C74",
"u  c #031D7C",
"i  c #331762",
"p  c #231B72",
"a  c #03236D",
"s  c #00286F",
"d  c #032572",
"f  c #052877",
"g  c #062D7A",
"h  c #172679",
"j  c #103575",
"k  c #343162",
"l  c #511849",
"z  c #46175A",
"x  c #64165E",
"c  c #78165B",
"v  c #52364E",
"b  c #79335B",
"n  c #4F1963",
"m  c #701865",
"M  c #553864",
"N  c #563E6E",
"B  c #5A3E6E",
"V  c #512573",
"C  c #5B3E72",
"Z  c #593E75",
"A  c #7A256C",
"S  c #643C67",
"D  c #6B3D6C",
"F  c #723D6B",
"G  c #3D424D",
"H  c #434343",
"J  c #494647",
"K  c #4B4B4B",
"L  c #5A4655",
"P  c #525252",
"I  c #5A5A5A",
"U  c #56416E",
"Y  c #5A416D",
"T  c #564371",
"R  c #5A4171",
"E  c #6F426D",
"W  c #654272",
"Q  c #764979",
"!  c #656565",
"~  c #8C1455",
"^  c #84155A",
"/  c #891759",
"(  c #951657",
")  c #9E205C",
"_  c #8C1D64",
"`  c #94316E",
"'  c #B2336A",
"]  c #824D5E",
"[  c #914E66",
"{  c #834A74",
"}  c #8E5277",
"|  c #98547C",
" . c #AE4E79",
".. c #B95A7E",
"X. c #956174",
"o. c #C5457C",
"O. c #F6527C",
"+. c #041E88",
"@. c #011E96",
"#. c #022485",
"$. c #012489",
"%. c #092989",
"&. c #122784",
"*. c #0A3583",
"=. c #0A3985",
"-. c #0B3985",
";. c #113689",
":. c #042898",
">. c #0A3495",
",. c #13349A",
"<. c #2F2A88",
"1. c #0B35A2",
"2. c #3B3DA2",
"3. c #633796",
"4. c #0D428B",
"5. c #15478F",
"6. c #174E95",
"7. c #1A5799",
"8. c #2C5092",
"9. c #20629E",
"0. c #144AAD",
"q. c #1D5AA2",
"w. c #1856BD",
"e. c #2057B1",
"r. c #2767A7",
"t. c #2D70AB",
"y. c #3175AF",
"u. c #387BB4",
"i. c #76538F",
"p. c #4A69BA",
"a. c #6B68B5",
"s. c #124CC2",
"d. c #1A54C4",
"f. c #2A5FC2",
"g. c #1F6ED2",
"h. c #2E73D4",
"j. c #2474D8",
"k. c #3B7DE2",
"l. c #4A78D0",
"z. c #7076C2",
"x. c #81348F",
"c. c #874F88",
"v. c #A55784",
"b. c #B65987",
"n. c #A44892",
"m. c #BA5A9C",
"M. c #A76797",
"N. c #B86896",
"B. c #A652AA",
"V. c #9779BB",
"C. c #AA6AAA",
"Z. c #BA71AA",
"A. c #A977B5",
"S. c #CE548D",
"D. c #D75788",
"F. c #EB5A86",
"G. c #F45985",
"H. c #CB6689",
"J. c #DB678E",
"K. c #D36D8D",
"L. c #CB6A96",
"P. c #D96A95",
"I. c #CA7396",
"U. c #DB7398",
"Y. c #E8668B",
"T. c #F4668B",
"R. c #EC738F",
"E. c #E56C94",
"W. c #ED6C94",
"Q. c #EB6798",
"!. c #EC6E99",
"~. c #F46895",
"^. c #F26D94",
"/. c #F26E99",
"(. c #E57397",
"). c #ED7295",
"_. c #ED7499",
"`. c #F17194",
"'. c #F1749B",
"]. c #C579AB",
"[. c #D078B1",
"{. c #F37FA4",
"}. c #8A7FCA",
"|. c #907FC3",
" X c #3C82B7",
".X c #4F8DBD",
"XX c #1396F9",
"oX c #2989E9",
"OX c #3787EB",
"+X c #3A93ED",
"@X c #368CF6",
"#X c #2F97FB",
"$X c #3594F5",
"%X c #3697F6",
"&X c #3B93F4",
"*X c #3495FB",
"=X c #4C8FC0",
"-X c #5897C5",
";X c #6AA5CA",
":X c #7DB4D7",
">X c #4889E7",
",X c #439AE8",
"<X c #4491F7",
"1X c #56A3F4",
"2X c #52ABF8",
"3X c #6CB9F2",
"4X c #72BCFD",
"5X c #72C3FF",
"6X c #7BC3FE",
"7X c #EF88A9",
"8X c #FA9AB6",
"9X c #FBA3BE",
"0X c #8782C4",
"qX c #8682CA",
"wX c #8880CA",
"eX c #8D82C9",
"rX c #88BADA",
"tX c #F8A7C3",
"yX c #95C0DB",
"uX c #93C9F5",
"iX c #A8D2E8",
"pX c #B4D4E9",
"aX c #CAE3EE",
"sX c #CDE3F2",
"dX c #CEE8F7",
"fX c #D2E5F2",
"gX c #D8EAF4",
"hX c #DCF3FC",
"jX c #E2F2FA",
"kX c #EAF9FE",
"lX c #F9FDFE",
/* pixels */
"% ; ; * = ; = + H ; % K + $ # # o % ; # ; # # % = # % H % % % H H = % ; # = . # # % H ; H = ; % = % # # ; H ; % ; ; H % ; = K H ",
"= ; = % = ; = ; % = % ; + = ; = = = = ; = H + J = % # = = = % % = ; J ; I ; % % % = ; = % H ; H K $ ; ; ; = ; ; = ; ; ; H = ; ; ",
"% ; = % P = ; ; % % = I + # H % ; = ; K ; P % H # % % $ H ; = L ..(.(.H.: P H H = H H J H % % H # ; # H K H # % % = = ; = + % = ",
"% ; % H % % = + + % + J # ; + K o # H ; % H % ; + P H = X.R.R.`.R.`.).`.`.`.`.J. .= % = = ; # = % ; = = ; = = o # + # # $ K H = ",
"% = # % ; = = % = ; ; P % #   $ # $ $ + = J % % % = H.R.`.`.`.`.`.`.`.`.`.`.`.`.`.`.'.K.; % # = % ; % ; = % ; H H = % = % % # % ",
"$ $ = + ; # # I o o # + # = ;   X + + X +   % . H.R.`.`.`.`.`.`.`.`.`.`.`.`.`.`.`.`.).^._.W.% + o o % H   X # + % . o % + # = # ",
"% # ; H = % # # # $ % # H + $ # $ # # $ # $ K.`.R.'.`.`.`.`.`.`.`.`.`.`.`.`.`.`.`.`.^.^.`.).~...% = # K H ; ; K P H ; J = # = H ",
"% X   + . = ; P % H % H ; + H = - = J H K.).`.`.'.R.`.`.`.`.).`.`.`.`.`.`.`.`.`.`.`.`.`.`.^.^.^.(.= + % ; J ; ; J J H = ; = = H ",
"# % = = + % = % % # ; % H # # $ # J [ `.`.'.`.`.`.).`.`.`.`.`.`.`.).`.`.`.`.`.).R.).`.`.!.`.^.^.W.W.# % J % % = = H ; % ; = ; + ",
"o % % % = = % = $ H % % ; # % % ; (.`.`.^.`.`.).`.)._.).).).`.`.`.`.`.`.`.`._.v.Y Y R U C C C N S K.R.K ; $ ; H = % = H = % ; % ",
"# + = % % % % % % % ; = $ % # $ W.^.^.W.`.`._.9X9X7X_.).`.`.`.`.`.`.`.`.`.`.`.K.Y T U U U U N N U N E H.= . ; = = # P = ; % ; % ",
"% = % = = % % = % = = % = # $ ^.W.^.^.~.{.tX9X_.`.`.`.`.`.`.`.`.`.`.`.`.`.`.`.`.(.Y T U U U R N N N Y Y % o ; H = = = ; ; H ; = ",
"% + = # # % # ; = % H ; = = ..R.^.^.).tXtX_.^.^.`.`.`.`.`.`.`.`.`.`.`.`.`.`.`.`.`._.W T T U Z C N N B D H . H ; # = + ; H + + ; ",
"= = ; % % = o + + = $ % $ % ^.`.`._.tX7X^.^.`.~.o.( ~ J._.W.`.`.`.`.`.`.`.`.`.`.`._.P.Y R U M P.L.} o o P # o H % o + + + # o   ",
"% % # % + # + # # : * + % $ ^.^._.tX'.`.`.Y./ z 1 0 1 2 c ' '.`.R.`.`.`.`.`.`.`.`.`.`.| R N W ; P H O o H H J P = = K + K ; K K ",
"= = = = * = = % = = = - P ] ^.).9X/.)./.( n e 0 w 0 0 a 0 r c E.`.`.`.`.`.`.`.`.`.`.`.^.Y U C W ; # $ = % = = H % % ; ; = = H H ",
"= = ; = = = % = * = = ; H U.W.8X_.^.~.~ r e 0 8 0 0 0 0 0 0 0 x  .W.`.`.`.`.`.`.`.`.`.`.H.Y N C E % P $ = ; # = = = # K # % $ ; ",
"= = = = = = = = # = % = # ).{.7X~.^.( 2 0 0 0 0 0 0 0 0 0 0 0 0 z D.`.`.`.`.`.`.`.`././.`.R R N C - ; ; = % = ; = # H % % o J % ",
"= = = = = % ; H = % : H = (.8X/.^. .3 e w a w w 0 0 0 0 0 0 0 w 9 c _.`.`.`.`.`.`.`.`.^.^.b.R R C F + H = ; H ; H # % % = % ; K ",
"H H % = = # = % = = = ; O ^.7X`.^._ y f -.-.g g a a 0 a d g g g a y ~ `.`.`.`.`.`.`.`.^.^.W.U C N B ; = = ; % $ o = + % + H % H ",
"# + # $ = # % + + o . = ..7XW.~.D.p -.q.t.u.t.6.*.s d g 5.q.r.9.6.g p o.`.`.`.`.`.`.`.`.).).B U N N X # $ . + # $ # + + $ o . . ",
"= = ; = ; ; = = % = = ; J.8XW.^.` ;.r.-XiXhXpX.X7.=.g 7.u.;XrXrX-X9.j A ).^.`.`.`.^.).W.`.`.S U U N } K H H % % $ = K K ; I % ; ",
"+ % % H H ; = = = K = = ~.8XW.^.` 6.-XkXlXlXgXhX.X6.6.u.pXlXgXsXdX;X9.h S.R.`.`.`.`.`. .^./.{ U N T L.% = ; # H H $ % ; o ; + P ",
"o % ; = ; % % = H = - * ~.7X^.^.3.q.iXgXgXkXfXgX:Xt.t.rXlXlXjXsXaXdX X4._ `.`.`.`.^.).{ ^.).| T N C P.; K K I ; ; = = ; H J ; K ",
"o ; = = = = = ; ; ; % ; '.{.~.Y.i q.rXfXsXdXsXaXyXy.p.aXkXgXfXaXsXhX.X4.n '.`.`.`.`.`.S ).`.v.N Y B (.% ; # = ; % % = % = % $ + ",
". # = ; % = % % = ; = # ^.'.~.o.i 4..XyXhXdXsXhX;Xt. XhXjXdXfXfXgXkXu.4.a ' `.`.`.^.^.Y ^.).} U U Y ).= K # $ + % % = % = % = ; ",
". % = % ; ; % = ; = % % /._.T.D.i %.5.y.-XrXrX-Xt.7.9..XhXkXkXjXpX.X7.*.w / `.`.`.)._.R ^.^.E N B W Y.P # $ = ; % % = = ; = % ; ",
"# . o % % % % # . o % % W.~.W.Q.4 y *.-.6.r.r.7.4.j 4.9. X-X;X.Xy.7.*.s w x '.`.)._.b.W ).^.S U C K.J . # . + + o   # # # + = ; ",
"= = ; # % % # % ; % # # R.W.W.Q.c 1 0 a d g g f s d s =.4.6.6.5.=.g s w 0 i J.^.`.^.E { `.^.R C D (.% $ = = = $ % # # # % % # ; ",
"H H ; P H ; H = ; = # # ..W.W.~.' 2 0 0 e 8 0 0 w w 0 w w a s a a w 0 0 0 9  ./.`.U.R U.W.K.U C U.[ - H ; K P K ; H ; K P # = ; ",
"; ; = H = H ; ; = H H = + U.W.~.~.^ 9 e 0 9 0 0 0 w w 0 0 0 0 w 0 0 0 w w 3 F./.`.W Y `.^.E Y ..K.; * ; # % # = = % ; % % # H = ",
"H ; = = ; ; ; ; ; = = ; # = : W.^.W.c 9 0 0 0 0 0 0 0 0 0 0 0 0 0 0 0 0 0 ^ ).W.| W P.^./.Z | K.H % % K ; ; % % % % + % % K % H ",
"% =   = ; H = ; H ; = = ; = = % H.^.^.~ n 0 0 0 0 0 0 0 0 0 0 0 0 0 0 2 / W.).N.U } `.R.{ v.E % = = = = % ; = ; # = # % = = # % ",
"+ + % = = H = H ; ; % % I ; + = * = P.W.Q.( x 3 9 0 e 0 0 0 0 e 0 4 c ' `._.v.U Q ^.^.W.M.J ; ; ; % % ; = = % = % = # = % ; = = ",
"P = + ; ; % o ; = ; % + ; = o # . # + # L._.W.D.' ~ ~ ~ c ^ ~ / o.Y.^.`.).Q U } R.^.S.l.oX$ $ + H # % % # % H P % % % % H # % H ",
"% % % % + + % # = # % + % # ; % % & f.t 8 p ` E.(.T.`.`.`.).`.^.W.`.`.N.Y W U.U.i.>XXXXX$X- = - % o o # o   # # # # # $ # + % = ",
"= . . . .     . o o = % = # # % & $Xy u u 8 @ } M S  . .J.(.)._._._.b.Q c.a.,X*X$X#X$XOXG = H o . = I J ; = ; # # H H # + o o + ",
"= = % + = ; = = % = = # H ; = H +X#X:.u +.> ..R.S 7 7 k k 7 7 5 l.,X&X$X%X%X*X$X#XOXy 8 ; K ; ; ; % K % = % # = % % H # % ; # = ",
"% = = % % # ; = = = = = ; ; ; = +XOX= u y @ `.`.`.U.M 7 7 7 7 ,XuX%X#X$X*X$XOXf 1 8 g $.% * = ; ; = ; + o # ; % % # # % # # % % ",
"o = = % = = = ; % % ; ; = % # ; % ; % + 0 @ `.`.^.`.^.^.(.I.M.1X,X#X*X+Xd 9 8 y $.$.$.$.; % % ; = H = % + = # # = # % ; # % ; = ",
"= $ = # = ; ; ; = = ; ; ; # # ; # ; + % q , [.].].].].].Z.A.p.&X%Xq.8 8 y #.#.$.$.$.$.#.% ; = % ; ; # % + o H # # % % = # = # # ",
". ; ; + + % # ; + % % = = H = = H = % % = 1 wXqXwXwXwX0XqXqX0.p.qX8 $.$.$.$.$.$.$.$.$.$.; % % # % % # P ; % % % = ; # % ; % P % ",
"H ; = = # . % # #     .     . o o . o % . < wXwXwXwXwXqX0X0X0X0XwXz.#.$.$.$.$.$.$.$.$.$.. o   # + + P = K = % ; # J P K I P P J ",
"; K ; H = = ; % = ; = ; % % % = % % % H : & V.eX|.}.}.0XeXeX|.V.|.V.< $.#.$.#.$.#.$.$.$.J ; ; * o + o + o + % + H = = o o + + = ",
"% ; = ; ; % K ; ; ; % = + P = ; ; & H = % ; b R.`.`.`.).).'.~.T.T.^.H.&.%.#.t 0 a w u +.: P ; ; = H ; % ; H = ; H % + $ % ; # # ",
"; = H % = % # = = H K ; = H # = 5X#X@Xd.* ; 4 E.`.`.`.`.T.T.G.Q.T.G.Y.3 h OX4X3X2X&Xt +.H ; ; % % % + ; = = # ; = = ; % = # % = ",
"% ; ; % = % $ % = % ; % + H # = 1X,X5X1.$X= z l [.].A.A.A.C.m.S.S.B.M.A p >X*X*X%X$Xd d ; ; ; = = = % = = = % # = # % = # = = % ",
"$ % = % = % % ; % % = % o = # 6 <Xd.w.:.j.= z h z.}.}.V.V.m.3.h.h.#Xl.m.V &.<X%X%Xh.$.e ; = ; ; = = = ; ; = % = % = = % % % % ; ",
"; = = $ = % # # = ; = = # = o ; <X1X4X:.k.* i h w qXqXV.C.m.OX:.4X2X4X3.m p &.k.@Xw %., ; = % = # = ; = # % = % ; % = = % % % # ",
"o o % # . o + . . o . . % + o . +XOXw.. % % 3 h y <.'.^.O.3.g.+.@.@.,X2.^ <.%.$.$.%.#.X o . o . o . o o + + # % = = # o + o o o ",
"; ; % = = ; ; % H ; ; ; % = ; = ; 8.; # % % r h OX9.v W.G.x.g.s.4X5X$X8.) <.&.+.#.%.>.% = % % % = % = + o ; ; K = H ; = % H % = ",
"H H H % P ; ; P H ; H K ; H H % H # H % = : y ,.>X; # i.C.m.n.p @.1.$X3.n.<.&.$.& <X4.H = = + = = % H # # # % K H # % ; ; ; ; I ",
"; % ; = % = ; = ; = ; = H # = = % : K ; $ % t ,X% = P = L L.D.D.d.uX:.F.` &.%.1 # = 6 6 % % = % = ; % ; # o + % ; + = ; H % = % ",
"; ; = = = ; ; % = = ; = = = = % ; ; = ; ; 8 @X% = I = % ; % F.G.G.S.O.` * &.f = % ; = ; % H H % ; % % = o = $ # % % # ; = ; % J ",
"% H = = % ; = = # H = ; # % # ; % = - % $ 5.9.% + . = % % ; = ; v : - = # $.= % ; = = % % H % % = ; ; H # # H + = % % % ; ; H ; ",
"= H = ; = # H ; ; # H % ; ; H = H = - $ * - 6 # + . = = H % % ; : $ # = a , ; ; ; ; = K = = % # = % % ; ; + ; % # + % % % + # # ",
"# ; # = = ; ; ; + o = = = ; = ; H $ # % $ = $ + = ! % % ; = % % = ; = + f + # % # = + + # % = # # + . % = # ; H = o % % $ # # + ",
"# H P H K = % % = # % = o o o o # = P I = P + $ = ; : = % ; = ; ; ; = 1 $ ; = % = # % + + % + = % P ; ; ; % % = ; % = % = = % % ",
"% # % # H = ; ; = = ; + K % = ; % H $ ; = p.[.m.v.C.<X5.K = = ; ; J H ; = = ; # ; K K % K K % # = = % % = = = ; H H = # + + # = ",
"# = # # % ; = % = + ; = % # % = % % % $ uX#Xz.i.i.=X@Xg.6.= % % % ; % # # # % # # % % % % % % % % = ; $ = # # $ % = = ; % $ ; ; ",
"+ % = + % # ; ; = ; + = % = % = # # % ; +X@X*X#XoXd.1.5 # % H 8.Z.m.v.[.>X;.H % % # % % % ; = % = # % % $ # # = = % % ; # = # # ",
"= = = = = # = = + H + ; # = # = = ; % % - %.0.5 & % ; ; = o 6X%Xa.c.c.a.%X@Xe.$ # % % # = # % % % # ; = = = % = % % # % % = = # ",
"= % # ; = ; # % ; % = + ; K + = % % % % = % % % % # = % = H &X#X#X%X$Xj.0.&.$ # % % % = % + # = % % ; = = = = # % % ; % % K $ = ",
"; = # = # % ; ; = # # = = # + = % = = H = * # % ; % % % # % 6 1.d.-.d % % = # # % ; ; % = # % ; % = $ o % $ = + + + o + # # P H "
};
