/* XPM */
static char *result[] = {
/* columns rows colors chars-per-pixel */
"64 64 235 2 ",
"   c #040405",
".  c #090706",
"X  c #060609",
"o  c #09060C",
"O  c #06090B",
"+  c #0B0B0C",
"@  c #15090C",
"#  c #0F110F",
"$  c #10110E",
"%  c #0E0E11",
"&  c #090815",
"*  c #110F14",
"=  c #1C0B13",
"-  c #071012",
";  c #0E1113",
":  c #131314",
">  c #181916",
",  c #161619",
"<  c #19161C",
"1  c #16191B",
"2  c #1B1B1C",
"3  c #24151C",
"4  c #20211E",
"5  c #1D1E21",
"6  c #14162A",
"7  c #0A1032",
"8  c #260D21",
"9  c #2A1723",
"0  c #201F23",
"q  c #381B2A",
"w  c #1F2124",
"e  c #1E202A",
"r  c #192332",
"t  c #222224",
"y  c #262926",
"u  c #25262A",
"i  c #29272B",
"p  c #26292B",
"a  c #2A2A2C",
"s  c #37242E",
"d  c #2F322E",
"f  c #282736",
"g  c #2D2D31",
"h  c #332E34",
"j  c #2F3134",
"k  c #2F3739",
"l  c #323235",
"z  c #353539",
"x  c #38383B",
"c  c #3A3A3D",
"v  c #452538",
"b  c #44343F",
"n  c #0A1151",
"m  c #161459",
"M  c #2D1558",
"N  c #152A59",
"B  c #242B49",
"V  c #323441",
"C  c #3D3D41",
"Z  c #32325E",
"A  c #031463",
"S  c #081767",
"D  c #021B66",
"F  c #06116F",
"G  c #021C69",
"H  c #191664",
"J  c #061775",
"K  c #021C72",
"L  c #031D7A",
"P  c #271964",
"I  c #321B69",
"U  c #0B2667",
"Y  c #03226D",
"T  c #17226A",
"R  c #022672",
"E  c #052C79",
"W  c #172679",
"Q  c #0C3677",
"!  c #353362",
"~  c #541949",
"^  c #47175D",
"/  c #7A1659",
"(  c #403F44",
")  c #763551",
"_  c #481A65",
"`  c #621661",
"'  c #533763",
"]  c #563E6E",
"[  c #593E6E",
"{  c #512576",
"}  c #593E71",
"|  c #653D6A",
" . c #743E69",
".. c #732B72",
"X. c #424144",
"o. c #464549",
"O. c #4A494D",
"+. c #56416E",
"@. c #59416E",
"#. c #564272",
"$. c #5A4271",
"%. c #6D436D",
"&. c #654372",
"*. c #7B4A76",
"=. c #8A1558",
"-. c #961658",
";. c #91305B",
":. c #871B65",
">. c #95326E",
",. c #B2336A",
"<. c #8E4E75",
"1. c #9A547C",
"2. c #A45277",
"3. c #B35077",
"4. c #C4437A",
"5. c #D04F7E",
"6. c #F5517C",
"7. c #051E88",
"8. c #001C97",
"9. c #231683",
"0. c #022485",
"q. c #0B2884",
"w. c #012489",
"e. c #132784",
"r. c #0B3985",
"t. c #042B97",
"y. c #113495",
"u. c #2F2683",
"i. c #0C38A4",
"p. c #2F3FA4",
"a. c #6A368F",
"s. c #0E438B",
"d. c #12478F",
"f. c #174C96",
"g. c #1A5799",
"h. c #2B4395",
"j. c #21619E",
"k. c #184EAD",
"l. c #215EA5",
"z. c #2667A7",
"x. c #2D71AC",
"c. c #2E6FB4",
"v. c #397BB5",
"b. c #785A97",
"n. c #4964BA",
"m. c #676AB6",
"M. c #154CC1",
"N. c #1755C5",
"B. c #1F71D4",
"V. c #2F71D2",
"C. c #3B7AE8",
"Z. c #536BC0",
"A. c #7077C4",
"S. c #963A8C",
"D. c #8C4F8A",
"F. c #A55684",
"G. c #B55986",
"H. c #A05292",
"J. c #BB5A99",
"K. c #BA6589",
"L. c #A86894",
"P. c #B96997",
"I. c #B158A5",
"U. c #967ABB",
"Y. c #B372AB",
"T. c #A579B5",
"R. c #C75587",
"E. c #D65686",
"W. c #D6518E",
"Q. c #E85785",
"!. c #F45A84",
"~. c #C96389",
"^. c #D7678C",
"/. c #CD6B97",
"(. c #D86B95",
"). c #DC7297",
"_. c #E7638C",
"`. c #F86288",
"'. c #F16A8D",
"]. c #F1718F",
"[. c #E46C94",
"{. c #ED6C94",
"}. c #ED6B98",
"|. c #F26D95",
" X c #F16D99",
".X c #EE7294",
"XX c #E37299",
"oX c #EC7399",
"OX c #F17194",
"+X c #F2749A",
"@X c #C479AB",
"#X c #CF78AE",
"$X c #EE7EA0",
"%X c #897FC9",
"&X c #3B81B8",
"*X c #4989BC",
"=X c #1297F6",
"-X c #2D86EC",
";X c #3988E9",
":X c #3B95EE",
">X c #368CF3",
",X c #2E97FA",
"<X c #3494F4",
"1X c #3797F7",
"2X c #3A94F4",
"3X c #3495FA",
"4X c #4F89CC",
"5X c #5897C5",
"6X c #72AACE",
"7X c #478BE8",
"8X c #4597F0",
"9X c #54A6F6",
"0X c #6FBBFB",
"qX c #6EC3FF",
"wX c #78C3FE",
"eX c #9482BF",
"rX c #EC87A7",
"tX c #F388AB",
"yX c #F99CB7",
"uX c #F7A5BE",
"iX c #8A81C4",
"pX c #8582CB",
"aX c #8880CA",
"sX c #86B9DA",
"dX c #F7A7C2",
"fX c #95C0DA",
"gX c #91CBF4",
"hX c #AED3E9",
"jX c #CDE3F2",
"kX c #CEE8F8",
"lX c #D2E5F3",
"zX c #D3EAF4",
"xX c #D9EBF4",
"cX c #E6F5FC",
"vX c #F8FDFE",
/* pixels */
"+ 5 : 5 l t t : 5 z 0 + t d t $ + < z 5 5 i > + y u u ; y : a + % < $ t a t a + t l 0 + t l 2 O 2 4 g < i y > + i 0 g o 5 : C X ",
"l t z z x z ( c X.C o.o.O.x ( X.z g C x x z c c c x l x h l z z z y c x c c O.c X.X.o.x o.c X.X.l h x c x x x z C c l l g z g z ",
"0 0 2 * O + , o 2 : : O + O % , g < 5 % 2 : ; : + o 8 ) ~.oX.X~.) i 0 +   > > O , , % X : + , * g : 5 + 2 : * + . X             ",
"u g t , , < , X , 2   : % < . $ g : + 2 : + v 3.(.+XOX+XOXOXOX].OX.X{.K.= 2 2 O , , X : + 4 . : t : : , > + t 2 o t , i * a 2   ",
"g g i : . + y : i + O i 2 a a i g 5 % 3 XXOX.XOXOXOXOXOXOXOXOXOXOXOXOX.XoX^.i , 2 : + t 2 i l t u 5 + $ a + < $   : a : O 2   y ",
"& l , , < y : % , t < y 4 t + + a v [.{..XOXOXOXOXOXOXOXOXOXOXOXOXOXOXOXOX.X'.^.3 w 2 y < i . + u g $ + 2 a * 2 5 w : < : : : 5 ",
"5 , 5 < < : % + O         . O . ^.|.|.OXOXOXOXOXOXOXOXOXOXOXOXOXOXOX.XOXOXOXOX.X.X).+       .     % # + : + $ + 5 1 w 1 : : % 5 ",
", X 2 z : : 0 < 5 , p a y k b [.|.oX|.|.OXOXOXOXOXOXOXOXOXOXOXOXOXOXOXOXOXOXOXOXOXOX{.^.a l l c a l l z l d x a j g t t , t t g ",
"; y 3 + <   > 2 , 0 5 u u = }.{.|.|.|. X|.OXOXOXOX.XOXOXOXOXOXOXOXOXOXOX]..X.XOXOXOX+XOX|.K.. $ 3 , i $ : , 2 . 5 5 t y , : <   ",
"2 w y 2 t z 2 t z w 5 5 < {.^.| [ } [ @.#.$.@.+.F..XOXOXOXOX.XOXOXOX.X]..X.XOXOXOXOXOXOX|.oXoX@ , * + 2 2 . t : 5 g a 2 : .   > ",
"2 : 4 : * . t a a , f g ~. .} [ ] +.+.+.+.+.+.#./.].OXOXOXOXOXOXOX.XOX.XOX+XrXuXyXoXOXOX|.|.|.{.9 # 0 2 y y c > 0 g a l y : , $ ",
"+ 5 z , y a > + i 5 g o | [ [ [ +.$.+.+.+.#.@.XXOXOX.XOXOXOXOXOXOXOXOXOXOXOXOXOX+XyXdXrX|.|.|.|.oX3 : y a 2 a . 5 j 5 + t a 4 . ",
"l g c x c c x z x z z b | } } } $.+.+.+.$.$.oXOX].OXOXOXOXOXOXOXOXOX.XOXOX+XOX].OX+X+XdXdXOX|.|.{.^.l c c ( o.c ( c o.X.o.( X.X.",
"d w 5 : 2 : : : X     X X q J././.' $.$.#.).OXOXOXOXOXOXOXOXOXOXOXOXOX.XE.-.=.4.{.OX|.OXrXdXoX|.|.|.5 +   + > + : : : + : : : : ",
"g : % : , + y :   2 , t + w 2 O ~ $.@.@.1.OXOXOXOXOXOXOXOXOXOXOXOX.X,./ m D D S ^ -._.+X{.oXuX+X{.|.q w 2 2 : + : > + : ; < . + ",
"g a : + t 2 t O # 2 a , O , X g %.[ @.@.OXOXOXOXOXOXOXOXOXOXOX].[.=.A D Y D D D D S _ -.{.|.oXuX|.|.2.:   : d > a + + a 2 a a h ",
"p a * O 2 d * 2 5 5 2 5 : , *  .} } @.^.|. XOXOXOXOXOXOXOXOXOX4.` D D D D D D D D D D H -.|.|. XyXoX[.: , y : : 2 3 , a 2 a   + ",
"X % $ $ 2 + * : 5 1 t : ; : v } ] $.$.OX{.OXOXOXOXOXOXOXOXOX5.^ D D D D D D D D D D D D H -.|. XrX+X X, , * . . % O           . ",
"g z d l c z c t k g t , : >  .} ] #.G.|.|.+XOXOXOXOXOXOXOXoX` S D D D D D Y D D G G G G A M 4.|. XyX}.z % < 5 < t , g u y x z x ",
"y < t : : 2 t . y , 3 y 2 : $.] ] #.}.{.OXOXOXOXOXOXOXOXOX-.Y R E Q E Y Y D Y Y E r.r.r.E K :.|.|.tX|.v 2   , , 1 e g p h : +   ",
": > : 2 > . > + 5 l i < # q ] ] +.@.{.oXOX|.OXOXOXOXOX].3.T Q f.z.z.g.s.E R R r.f.x.v.z.l.r.T Q.|.|.$XR.5 j 2 5 a w 5 1 : * y   ",
"+ + 4 2 y y d t < g y u 2 1.] ] +.| |.OX{.oXOXOXOXOXOX+X:.r.z.5XsXsX6Xv.d.r.r.g.5XhXxXhX5Xz.y.>. X'.yX_.& & t g g 6 p u , : % . ",
"* i o t a 2 i   g z < + 2 /.[ ] @.<. XOX2.|.OXOXOXOXOXR.W j.5XzXjXxXvXhX*Xg.g.5XxXxXvXvXvX4Xl.:.'.'.yX}.w t 0 + p u p * 1 o l o ",
"l t x x x c X.( X.C o.C O.).[ +.] 1.{.{.<.OXOXOXOXOXOX:.r.&XkXjXjXcXvXvX6Xx.x.6XlXzXcXxXlXhXl.{ |.|.tX}.x ( c z C C C l g j z j ",
"t i 5 % O $ , + 2 : $ $ : }.+.+.] F.oX{.%..XoXOXOXOXOX_ d.*XcXjXjXlXxXcXjXv.x.sXjXjXjXjXjXsXj.I _.'.tX X8 : * $ X   X       X o ",
"5 a u , , 5 ,   > 2   * + '.@.] } <.|.OX@.OX|.OXOXOX,.Y s.&XcXxXlXlXjXcXcXv.x.6XcXkXjXcXfXv.d.I E.|.+X|.9 + y 2 X , 2 2 + y 1 X ",
"u l u , . : g , y : * l > [.&.[ [ %.|.OX$.oXOXOXOX|.-.G Q g.5XhXcXvXvXcX*Xz.g.z.5XsXsX5Xv.g.q.I E.'.OX Xs 2 0 : % 2 a , X :   f ",
"* x , , 2 y : + : 4 3 a 3 <.(.} @.@.|.|.$.G.OXOXOX+X` G R r.g.x.*X5X5Xv.z.s.Q s.g.z.l.g.r.E Y M }.}.|.|.3 a + : t w : < % : ; 2 ",
"5 5 < , , , % X + O   X     oX&.} $.|.OX<.&.].OXOX^.M G G Y E r.d.f.f.s.Q R R R R Q E R G D A / `.'.}.'.2 O $ : 2 < t 2 , , : w ",
"* X 2 l $ , 5 , 5 : g w a z 3.XX} @.(.|.).#.(.OX|.4.D D D Y D Y Y Y Y Y G G D D D D D D D D H ,.}.}.}.R.l a z a l g y t w t y a ",
"& < 2 + , O : : t 5 f j p , O ^.G.$.%.|.OX@.%.oX|.E.P D D D D D D D D D D G G D D D S D D S =.}.|.[.).< : : y : i 5 t 4 > > * O ",
"t 0 t t 2 j t < g t 5 , , ; 1 . ^.1.}  XOX(.$.1.].OX=.Y D D D D D D D D D D D D D D D S S / |.{.'.;.* , < $ 2 + 5 i a 0 $ +   > ",
"t 2 2 , + : t l p 5 p p 2 ; : O . 1.F.<.OXOX<.#.K..XXX=.m G D D D D D D D D D D D D S _ =.|.|.^.+ + 5 2 y a z 3 w j y a i , , + ",
": 2 l < t t , O u 2 f o w ; d ; + 5 = K.{.OXOX*.+.F..X.X,.=.M S D D D D D D D D P ` -.}.{.[.h   # , ; t a 0 i O w z t : a z t   ",
"l a c x c x z z z z l c g k g z c 5 V =Xn.R. XOX1.+.*.+XOX.X_.4.=.=.=./ =.=.=.,.E.OX[.^.V x c x l i x x o.( X.X.X.X.O.c O.c X.c ",
"j 2 < , w % % : X O + X   O O o w u 4 1X=X=X;XD.).).&.@.P. X].OX.XOX.XOXOXOX'.|.XX>.H F F N.U @ u y 2 , + , , o , , : + : : > : ",
"a : : , , + y , X 5 5 5 O a 4 O u p i U 2X,X,X<X,X7Xm.D.*.G.oX].oXoX.X(.5.2.| ! 1.7 A L L R <XN y g t 1 : < , % , < + : . 5   : ",
"g w : % t 5 ,     1 a , O , % p g p y 6 A K C.,X,X1X1X,X3X1X2XC.N Z Z Z Z Z Z  .+X3.n K R t.,X>Xg u 5 , % , a , 5 X 2 a 2 t y a ",
"p w : ; 2 d + 2 4 w 2 2 : : : 5 % i > 6 w.7.D A E ;X1X3X1X3X1XgX8XZ Z Z Z ' (.OX{.OX7 L 7.7 ;X<X- z 5 , < y : % , 2 < y 0 t   + ",
"  + : + 2 % ; : w , e 1 , : : 2 w 5 < 6 w.w.0.w.K A A E :X1X,X8X9XL./..XOXOX.X|.}.}.7 K 6 < : t w 1 < : , < % O O   X .         ",
"g z c l l l z y g i i , , 2 a a <   2 V w.w.w.w.0.w.0.K D A k.:X,Xn.eX@X@X@X@X@X@X#Xn J : 2 a a : O 2 d + < t < t < l t p V z x ",
"t 2 d : $ 2 0 . i 5 , i 2 2 .   + a > $ w.w.w.w.w.w.w.w.0.0.A pXn.k.iXiXiXaXaXaXaXaXm 6 ; : O + O w 3 * 5   < 2 5 t j t g : +   ",
": : : < 2 * 2 + , g a > ; . X , 5 5 w w w.w.w.0.w.w.w.0.w.7.A.iXpXpXpXaXaXaXaXiX%X%Xn 2 $ .   ; 2 t t t 2 l y 2 l t 5 t : ; t O ",
"+ O t , 2 a l 4 < g y y 2 + $ : 2 , 2 ; w.w.w.w.0.0.w.0.0.n U.%XeXU.eXiXpXiXiXiX%XU.B y 2 + # # > : 2 : + * 4 l a < p f < : + + ",
"& 5 O y a y t + 1 k > + 4 d > O : 1 z 2 7.L G D D J 0.0.e.E.|.|.'.'.'.]..X].OXOX`.) 5 O y B N   ; : x 5 w y : : u 5 g + 5 % f + ",
"x t l c z x o.X.X.b X.c X.c b c l z ( c 7.J 1X9X0X0X;XW P _.!.Q.!.`.'.|.'.oXOX.X_._ c W N.>X3XwXk l c z z l l c C C l c a c z z ",
"u i < % . + 2 . : : * + : ; , > g , 6 , L R 2X1X3X1X7Xu...P.I.R.R.I.Y.Y.T.T.Y.#X~ _ 1 3Xt.qX8X9XB : 5 : 2 : + , + O   X .   O O ",
"5 a t > : < >   > 2 O : O 4 O + l & * * L 0.V.3X3X2Xe.{ R.V.,XV.V.a.I.U.U.pXpXpXH _ & B.t.N.N.1X! , + : ; % y < O 1 , 5 + t 2 X ",
"u g e % O : d + y + + h 2 y g a j y : + n w.K <XV.q.u.` a.wX9XwXt.2XJ.I.%X%XpXK W M   C.t.0X9XC.N 1 : : t > 0 +   t g + : ,   a ",
"O l , % , i : + > 2 : a 2 t X + a a ; O 7 w.w.w.w.e.u./ p.8X8.8.8.B.{ !.`. Xh.F W P < u r M.>X>Xg j + ; 2 a * 2 2 2 : 5 % * , 2 ",
"5 : 5 , < , + O + .   X           & % + 7 y.t.R w.e.u.;.p.3XqXqXM.B.S.Q.{. .c.>XJ P X   . 7 V.X   ; ; + , + ; , 2 , t , * , , 2 ",
", + 5 x + < t < i : g i t d z z a ( l d z y.2Xm w.e.u.H.a.<Xi.8.9.F.J.T.b.> u ;Xi.J k 0 h h X.z p c l c l d z y a z i w 4 t a a ",
"+ t 2 + > . * : t 5 g a a : + X y 5 w : , T r O S q.W >.Q.y.wXN.Q.W.W.%.5 X * ; 2XJ f f z 1 X X t 2 t : 2 > t + g , y t 3 : + # ",
"5 t 4 t 2 l 0 < f 5 5 5 : 2 5 O : : , , > . 2 + , L e.f ,.!.W.6.!.Q.q t t l t 2 f 3XF 5 : ; t O , # , > > + 2 > 2 a a 2 ; + + 2 ",
"< , 2 , O * i a 5 < g g < # + + X o t 2 t y d 2 5 f q.m 2 = ) ) 3 % 4 , + % 5 z e c.y.g , : : + X + t , t y d w 5 l d a 4 $ : $ ",
": 2 c < y i : O u t a ; < & u : % y * 4 a t a . 0 z m L t d > X + : j 2 5 a < * 0 < u % 5 ; w % + 2 X 2 t 2 3 O 5 l 4 $ 4 l 4 . ",
"z x c c C C c x ( C z c g z z l z u x c C c X.X.( ( o.L o.C X.C C g C x ( o.L o.C X.C C g C l l x y z z b z o.( o.C o.X.O.C o.C ",
"i < < : < : % * O   X + o   O O 5 w 5 : + : : X : : + & A + : > a , 5 : : + & A + : > a , 5 X & 5 i 5 ; X O > + , , $ + : $ : : ",
"g : & $ : : y < X < , t + t , O w g e 2 , , 2 . $ >   < & 5 & + g 5 % 1 >   < & 5 & + g 5 % 1 o e j i , > 2 < O : <   : + 2 . + ",
"g t :   0 , 2 X   < a w   , + u i k p ,   + a # 2 : % g i f w d j 5 * i.: % g i f w d j 5 * X i a g y $ X # i 2 u + + g y i a h ",
"u y % O < l + 2 4 w 1 ; % ; : 5 & l : : 2 t , + * t i.7X#X2.K.Y.h.a : O t i.7X#X2.K.Y.h.a : : 2 % z 1 1 t y , $ 2 2 < y 5 u X o ",
"  & : $ , + % : 2 : w 2 : , 1 5 5 5 5 : 2 > + & . k.>X2Xm.D.D.A.3XwX: O k.>X2Xm.D.D.A.3XwX: ; < 5 , 5 : < 2 + O O X     X       ",
"g l l l h a x l k t w 2 : w p u ;   5 z * : 0 : 5 , y.k.B.<X<X3X3X:Xd z , y.k.B.<X<X3X3X:Xd a y :   5 x % * 5 < y 2 z 2 g l g ( ",
"y > y 2 > 2 y O g 2 2 t + :   % % t < $ 0 O , o 5 0 u 5 B 0.t.M.i.U y ; 0 u 5 B 0.t.M.i.U y O + . t u % t X : % 0 t i a z , %   "
};
