/* XPM */
static char *result[] = {
/* columns rows colors chars-per-pixel */
"64 64 24 1 ",
"  c #060606",
". c #0C0C0C",
"X c #141414",
"o c #1C1C1C",
"O c #242424",
"+ c #2C2C2C",
"@ c #343434",
"# c #3B3B3B",
"$ c #434343",
"% c #4B4B4B",
"& c #535353",
"* c #5A5A5A",
"= c #616161",
"- c #BE1414",
"; c #C80F15",
": c #C01313",
"> c #D14D36",
", c #D84937",
"< c #DB4739",
"1 c #D74A3A",
"2 c #D94938",
"3 c #9F1642",
"4 c #A11542",
"5 c #FEF2F2",
/* pixels */
"%$@@+%@#+$$#oO+@+##%#$+OO.#o##@$$+++%+o+OOO#+#+XO+OO%+#$o##@@##+",
"##@#@#$@##+#$@+%$#$O@##+O+#&#$#+++@@@O+#$O$@#@+@+#+o#@@+#@#@+@#@",
"+++##@+++O$$$O#O#O+#$#$+#$%o+@$+$@##O@+@#+%#$@##+#OO&@++#@#%@@#+",
"#$$+O+O+o+##@@#+@O#+++@#$#o#&#@o$++$@$%O#+$+@#OX%O@o%o+OO@+@@@@@",
"@oO@@+#$$$O@$+$+#O+@OO.#=+#+@$O#+++$#@@+O+$#o+OOO.O+&###+@@#+O@+",
"O+OX@.X+XO. @@X.oOo.ooo& .oX+o+OoOo++@%#.+.o.OoX.#@OoOXX&OO@o@OO",
"$@O#$#$%%#@$%O++oOOo#+$%##@+O+O+O+oO+O+++#+O+oOOo+o#O++OOO+@$#O+",
"#@##@#$$@$%#+O@O @o...  . .....Xo.o.@o+o#o@*%%@###o$$+$+&#@XX .+",
"O#+#+#$@@++%O+@+O+@@@+@o#+#O@@%+%%O+OO%+++O+O+$O+OO@+@O@@@+o@@+o",
"+$@@$@++##O#$+$@#+@#@#+O@##@+O@@+#@@OX@@OO+o#@@#+OO@++$O+@@@++@X",
"+@@#+%O@@$.@$+Oo%#++O@O#O$@O@+#$@##++X$oO@O+@#$+OO+O##++++OO@#XO",
"@#$@##@#%@X+%O%#$#+@O#O#$#+%#%##&$O$o#+&Oo@O+O+@+Oo#+@@+@+@@++@+",
"@o+#@O+O#@X%X$++O+$+$@%##+#++++#%@@OXoo+OO+@+O++@@@@@#+@@++oO@o+",
".XOoooX+$XO%OX.oXO .  .           X#.OOoOO+OOOo@O++O+O+ooo+++#@#",
"%%#%o%@@&%%$Xo$*###oO#Oo++O#@@#%$##$&%ooooX$@#+&#$O+o@$oOXOo+O++",
"%#@#@#++$+#O@+o#o@@$@+@@@XX$##+++@+O#+o+@$@+@+@%+&+%@#@@+@@@@@@@",
"#O+O%O@@@+$+O%+@#+@%+#Oo@#@+#+O##@@+OO@#O#$#O+@O#+$$#@@+@+@+###@",
"+$oO+#O@@@++@#@O+O+##oO+.++@$#++@O++oO##+O+@+@#OO+@+@+@O@@#+@@@@",
"%#+@++O##$#@#O$#@@@@++11<,1<@O+@+@O@,,2211#@o+O#OO++$#@@$#+@#@@@",
"$+$o+O+X@@#@+#@++O++O@<<<<<1+@#+#@$#<<12<<#++@oO@O#.@##@+++#@+##",
"..XOooO+Oo.O+.Xo+oXO1,------<<.X..<<------,1X..+@.+##.XXX+O++OoO",
"#+*#$&@+O+$$%$%$$%##,,------1>@@+O>1:---:-,1++++@X&@#@@+@@##@#@@",
"&o$o$++$$O$@O@+$#+,<---------:1,11::--------<,$@++@+@@%+@@#$$O@o",
"$$$$@@@@@*%%#OO#+@11---------:,,11:---------,,@@#@#@@@@$@++###+X",
"oO+++@+@#@O#+O+$o+----5555:-----::------------@#++@+#+@##@@@@#$X",
"#+@@+@++OOO%@@@#O+----5555-:------------------+#@+@@O+#@+++@@@O.",
"$+@#@@++##OO%O@$oO----55-:;--:----------------@+@O@+++@##+##@@+.",
"#@oOoO XXX.OXOX+@@----55----------:-----------#@#@@@+OX.o+@+O..O",
"$O+@+OO+O@@@++#OO+----::----------------------OoOoo+OO+@+O++O#@@",
"#@O$%#$#$%%@#@@+#$-------------------------:-;.XX@$+O+@##$##&#$$",
"@$O++#+@@+@O#+#%+@33-------:----------------34o+#o@o@$$@##$@$###",
"$+$OOo+++O@$%@O%@O33----------------:-------34O##X@+#@@@#$##@+@$",
"++@+OO#o###+##@@O@+#33-----------------:--33@##++##@@@#$#@#$+.@+",
"@+#O@+@+@++@@++###$#33--------------------33@@@@@X#&++###@$@@+oo",
"#@O#+@@+&#@O#+O$OOO+3433----------------4343OOO.Oo@#oO##$o+##o+&",
"@+OOOOOO+X.XoXoO+#+@4333-::----------:--3334OO++@@OOO+O+OOXoO+@@",
"XXXOO$$Oo$+#$*@.o$#$@%3333------------3333.X.X.O@oO++@XX.......@",
"+O#+O$#+@O@+O$+###%#@@3333:--:----:--:3444@@#+oO$@$#O@@@+@@@OO@@",
"+++O+OO+O#OoO$@##@@+@@@O333333----333333@@@#@##++##$@@@@@$++@+++",
"@#+O@+O@OO#XO#$##++#@++%333334----333333*@O@O+#+#O@+##++#@+#@#@X",
"O++O#O+OO$Xo+O##+@#@@@@@O+433333333333@@+#O@+o#O#OO@#$@@###@+++@",
"+&@#+O#@O+@#&O+OOO+$+#@###333333333333#oO@*#O@#$@@$@@++O#O+oo##.",
"%%&*&%$+$+#%#&oOo ......X...34333333X#$%@...+X.........oO@.O@@#$",
"#oo.X@#$oOoXXXo.##$$$@#++OOO44333344+O++o@+#$+@+@+++@+#@+##@$$%#",
"O+@+OOO#@#$#+@##@$$#$##+@O#%+$3334#&#@#%#@+@#%+##@%o#@#@@%+##@#+",
"#OO@+#@##O@@#o+++####++O@@##+@4434#+@#@@@##@++##@O#@@%#@@O@++#+#",
"O##O@+O@+O###+#@@#@@###++#$+#$#@@#@@@#O@@#@#O$@@@O#o+#+@+O+@@@#+",
"#++++@@+@+@##+@@####+@O@X$#+%O@##@O#++@@+@@+$@@$+o#X+@++#++@+@+O",
"O+O+@#+@+@++@#@O@+@#@@@+o+@@O@###@#@$###$#@@@+@@#X@+@+#@OO+@O@@#",
"oXXoX+@@+OXo.X.X..X..O++oOO+ooOo@..O+o.. .@+.@...Xo+..X..oXXO+X.",
"@@#+@##@$$#Xo@+#+++@@@##$##@++@@+@#@+@oOO@+++$+@##@+#@##+##+#@##",
"&#@#+@+$$#+O+*+@+++#$%#@##+%+$*$$%$#+o$..o$+@#+$+###$%@@#$@=#$$$",
"+@+$#@o@+oXo#@##+@++#@@O+###+@+@@@@#@&@@+#@O#$#@@@O#@$@#@#@++@@#",
"$+###O++O++X@++#+%%@@@#@@+@@O##@#@+#@+&@+%@##@@#++#@@@@#O##@+##@",
"#$##+++@o$OO%##@@+#@@@@@O@++@#@@#@#++@ OO#++@#@+#+++###O#+@+@@$@",
"OOoO++OO+#o#@++@O+@@%@@$##+@@OO##++##@.XO#@@O#@$@###+#O##$O##@$@",
"oOO+++X@$#O@+XoOO@+Ooo@O+OoOo@#@+@@@++=@oO@+@O+##@@+@+oo###++O#o",
"+@+@+@+#@@+$$#&O@o+ooO+@O@#OO##@#@#+@##@+o&@%&@OXXoX+@o+++@&$&#O",
"@OOoO@#$#+@+++@@++%$O%%@O##@#%%###@&@$@@&@+@#+#+#++$o#+###@#O+O+",
"@#++##+++OO++##+O++++@OOO++OO+#@@O#++++@O+@#+++@++O@@#O++@$+OO@O",
"++++#@++++OO@+O@+@@+++O@O$+++#+@@#+O@O++o+@+@@OO#+++@O@@##O+O@+O",
"o+@O+O++@+@@+#OO+O+@O+@o+O++@+++++X@@#++$+@#++##@O@O@O$O@@+@@@+@",
"@+%++#+@O+@++#++@OoO@+@+OO++O@+++O$@++O++@+@++++@o$#O@+@+O#+@++@",
"$&O+oXooo@+@X+@+#@O@+##+OO@++O@O+++++++#+O+@$#@++O+@+++@@@@O++@#"
};
