/* XPM */
static char *result[] = {
/* columns rows colors chars-per-pixel */
"64 64 77 1 ",
"  c #040405",
". c #080607",
"X c #060807",
"o c #0A0A07",
"O c #060609",
"+ c #08070C",
"@ c #06090A",
"# c #0B0B0C",
"$ c #100D0E",
"% c #0E100F",
"& c #11110F",
"* c #0E0E11",
"= c #100F13",
"- c #0E1113",
"; c #131314",
": c #141917",
"> c #1A1A17",
", c #161619",
"< c #18161B",
"1 c #16191B",
"2 c #1B1B1C",
"3 c #201E1F",
"4 c #162117",
"5 c #1E201F",
"6 c #20201F",
"7 c #1D1D21",
"8 c #201E24",
"9 c #1E2124",
"0 c #222224",
"q c #262827",
"w c #292926",
"e c #252529",
"r c #28272C",
"t c #27282B",
"y c #2A2A2C",
"u c #302B2F",
"i c #2E302F",
"p c #2D2D31",
"a c #302F33",
"s c #392E36",
"d c #2E3134",
"f c #2E3C37",
"g c #2E3D3D",
"h c #323234",
"j c #3A3637",
"k c #363835",
"l c #353539",
"z c #39363C",
"x c #36393B",
"c c #3A3A3D",
"v c #3E403D",
"b c #3D3D41",
"n c #413F45",
"m c #3D4044",
"M c #424145",
"N c #464549",
"B c #49494B",
"V c #BF150E",
"C c #BE1414",
"Z c #BC151A",
"A c #BA191D",
"S c #9F173F",
"D c #9D193F",
"F c #C2140E",
"G c #C11313",
"H c #C11218",
"J c #D64A37",
"K c #D84B36",
"L c #DB463B",
"P c #D74A39",
"I c #D9493A",
"U c #9E1642",
"Y c #9B1843",
"T c #A11542",
"R c #A11448",
"E c #FFEFF9",
"W c #FDF3F2",
/* pixels */
"#7;7h00;7z6#0d0&*1l7701#tet-e;p##2*0y8r@0l7#0h2@>2h2ye>$t9r+7;c@",
"h0zhzlvvMbNNBzmvdpbzbzzlxzhzphhzx0bzcbNMMMNlNcMnhhclzblhbcllhhal",
"002=@#,+2;*+#@=;d,7*7-;;#. +   @9e7* >>O;<;@;@<;p=8#>;-*O.     .",
"ey0,,,,.;7O==,.;r7@1-+07.2-0*y7@7p77;,<+<;+;#8 ;0,;;,#0>@8,r$y1 ",
"ppe;.*r;r#@t>rrry7*#2;;XX19;X;;tda7;=#y,2;#0<tiee7##y;,& ;t;+2 9",
"*d,,<e;-,0<e6e##yp#*;h#259;9-;;7*l;,00;@<020>w+@ep&#2r;220;2;;19",
"7,7,<;*+@.O  XoXo,&#,;#;210>,1;2872,2,=.+ + + . O*##;o;#7191-,-7",
",O7l;;0<2<ep0hccizlhlyzayd0,27hy2+9z;<0;t=hwrhkcyhhjkyzylp00;0ey",
"&e6#> >,<87t9=+#0<w#;;w@y20w,>O;+00,0.;@,0p7h;+;0,y=;>2@770t;;<.",
"27020l70l977;;7;<##<2&>&,yy2&##21<e02k7ep211;*9@;=$22@6;7py2;o@;",
"0;5;*@eyy1pt,,,#+@0,6rh69pwie$,;7;7;-#tpe7pt>;;@##0>wtj,8pyhe;>$",
"*2j;ey,#e9r+7,r@&,@7l6i#7zr;6e6#;*h2t0,*rte+0;t#;2;0y>w.7p7#0w3o",
"hpbzcbzkllzzpdldd1bzMcNNMmMbNcMMapbblbclbblztlhlz9lcccBvncNMNMNc",
"p77*2;;;X  O   +e07*o#&o;;$#;*;>p,7=7-##  o@ X@#702#+@,#;;;#&;;;",
"p,*;>#e, 2;0*77 0p92,2,#;,O,#2Xop**,,o01 1,e-e9@9ee72>;@&>+-#2++",
"ay;#010@#2y,O,Opetq; &w;6**p,0tip7=*912* 7y2X,.0tp0;.;u>y#&y2yrh",
"ty;@2h=27222;,=7#a<<=w=$222y2r %te1o2a#,;2<0;<22,l,;,e;&>0;r7t *",
" *&%>#;;720,=1>37<8=7<+ *+.  . .X;;$,#;,826<,2<27171,*@#++ O    ",
"pjhkklcezy0;;2kw;#>j7,IJPIKKwkcMandjLKIPII64,>uy,;1d+2820,pe0clc",
"e,0;;26.0<0w<; @@28=0OLLILLLh:o.02w%KLIPIP88;< oo88=7.;;20pph;# ",
";>;>2@>@7ar>#. ;98r6JPCCCCCCLL9=,%JICCCCCCII#o+;280e7h>7t97,==t+",
"oo0>wwh0,peq2$&&22,*IPGCCCCCKI;##;IPCCCCCCII7o;;,;<;+#0hd7re>;#+",
"=r@8y>w yz2o2u<@<,LLHGCCCCGCCGLPILCCGCCCCCCCIL2.#7l,8e2*r9t*7 h+",
"henlzcNnMnBNBzcvhlPJCGCCCCCCCGPPPICCCCCCCCCGIPvchyzbzMczbbblplll",
"0e7*+#>#,;;#;#$;p=HCGCEWWWFCCGGGCCHCCCCCCCCCCC&>e=7;,;#;+O   O +",
"7p01;8;.;2 ;#3@;y=CCCCWWWWCCCCCCCCCCCCCCCCCCCH#+p*=;;&r, 721#87O",
"rpe,O;p,e;;h<03yh7CCCCWWGCACCCCCCCCCCCCCCCCCHGuyp0,#e,9;#7p,+* r",
"=b,12w;#;62y8e+@erHCCCWWCCCCGZCCCCCCCCCCCCCCCG +pp,;,y#;97*7*,*7",
"777;,,*O@.OO     ,CCCCCCACCCCCCCCCCCCCCCCCCCCG o +**<+;;,,62,,;9",
"= ,h=,710;p9yllcyxCGCCCCCCCCCCCCCCCCCCCCCCCGGVxcpbhchyjrlae079ry",
"*7,*,@;=08ppe,*@9:UUGCCCCCCCCCCCCCCCCCCCCCCHSS#@qe0;;>y;e706>>;@",
"78882h02a821,*1X&1SSCCCCCCCCCCCCCCCCCCCCCFCCTY0o;;;;>;>#7yy0=@o;",
"922,*;9d97tt7->@X&61RSFCCCCCCCCCCCCCCCCCCCUS1--X#*91eyj07prie;>#",
";2h200:X97pX9*y-%2;rUTHGCCCCCCCCCCCCCCCHVVTU9;dX-;-0r8wO7z7;rj0X",
"hpzccbczbbdbpzdxb2zhSTUUFCCCCCCCCCCCCCCFUDRUilxcl0zcBMMNNMBcBbMb",
"p22,7*#;@ *  X.O9e2%UTUTFHHCCCCCCCCCCCGFSTSU X#@0y2;+,,#;;;*;;;;",
"y,,,1#e1@777#r6+etq2;,TUUUCCCCCCCCCCCFUUUT,8#t1Oyp02*1,#;2#;.0X;",
"p9-+60,. ,y:@;;eptq2O-TTUTFCCCZCCGCCCFUTYUy1o2#0te7,*2r,0#,r,00y",
"t0,#,h@77917;;;7*e,,2y-=TUTUUUZCCVYUUSUU18,7;,;7*x7<<0=#;2,e20.@",
" +;%1#*,9,91;,;2917,,<#+TTUUUUGCCGUUUTUU9,71-,,0911=11=+@. O   .",
"hzckhllyay8<<>yr7 ,z,2079=RUUUTUYRUUTUftsyw;;7yy;.2l#,e<e2l7pbpc",
"92u>#22or72e72.+*e,;0#;;7eUUUUUUTUUUTT0@y<32*;o#@86#7.,,77d0p=* ",
";;&>,;2#,pw>=o.<7199;z79p797TUUUUTUT<X3#2yy2&o ;2000,z02a777;-7+",
"@@0<0rh0,aew2o#;7,2-##0ht,t0TTTUTTTT3eh37ptw2##&>;2;#*0kp1pp1;%+",
"*9+0reqo;l<@3y;@;1x1er;oe9p-2+RUUU-0p7q#7l,@6i, *;c22w;;t7t+7*p*",
"x0lcjxNMNcNMBcMbhlMbcvzxczxxzjTUUDgcMzMNxbbMMnnbllblzllcmblbtblz",
"ee7#.;,o;>;@&$;<p12;0;#;#X+@o.X@7y2*X#,#;;;%;;;;p;<=2;*,#@     +",
"7p0;;;>.<>@;@0+*p*-;;#e;X520#e,X7pe<;;2o;< >o2o$p,*;-*01@1,7*07 ",
"ep7*+;hoy#@a2ruyd97*9:2+.er;O$#wrar,#;e*3;@p220tp7=,q;8#.0p**,.t",
"+l1*>y;o;3;y>0.#tp@#1d;2001;*=;,*a<,6e;*23<e06@.0p+*3y$272;7=*;2",
"7,7,<;#+o+ .  .  **o;+#;2>0>,=;28,7=2,*++.O     O#*#;@=>218,;;17",
",+7z@<e2r;yy0ilkrMhkhpcryhr,;7yi= <l*17=2;h0ahnxyclchahteze000yr",
"#02#>o==87ppr;#Xr20;;>q@p2062% $+0,,7O;=18ypl1 O0,w;,,0$p1qq2;o;",
"206e2h02p777;19+;;;,>.>&1yr0&o#>78077l07pe77-;8+;;;;,%,><rw3&@#>",
"2;0;+;ey77dp1%##++0>0wu27pyh5&&;<*7,*=7d97tp1;,+o#8>qwh37aiy6o;;",
";,c,tr;@e7e*1*e,*e=8y3y@0z0oeh2o#,d27t2=e79#2;9**2O20>2@8l6;3k3.",
"zlcccbccbbzbplhlbelzbcMvMMBcNbMbcpbczxzhcbbcdzldc0xxcjNnnnNMNbNb",
"e<2;<;=;+O++OO.+077=+;;o;;#ooo;;y<2;2,;#o+X# O *9e2#.@>o;,&#;&;;",
"p;+=;;0,O,,8+0,@7p9,1,> &>.<#7**p2=;;;0,+720#t1Xepe2,2<@,,.;#6+#",
"p9, 8,3@ 7e7.,@etdt, @y*2;ohyr0id8;+,2,# ;t-#;.etd0;.;e<0=#yeryy",
"ee*O2lo,29->-;-7#d7,20;#;2;r20 +pr;o2p@,20:2;;;5*l,10w;;,2206t +",
"O*;-,#*;510,;,,7927*2,;+.   .    *;o,#&;2,9-;>-2717,<1=O#O .    ",
"ylkhaycdh092-7te; 2z=;0,0;h0plhxyzllhycytqw212rq;O7z**72e>l3ppab",
"0>w,>,eXp720%;.-*02*8@,O77e0y,*+070#>;0;y716,;+#X00*0O;*0etyl,*."
};
