/* XPM */
static char *result[] = {
/* columns rows colors chars-per-pixel */
"64 64 77 1 ",
"  c #040405",
". c #080607",
"X c #060807",
"o c #0A0A07",
"O c #060609",
"+ c #08070B",
"@ c #06090A",
"# c #0B0B0C",
"$ c #0E100F",
"% c #11110E",
"& c #0E0E11",
"* c #100F13",
"= c #0E1113",
"- c #131314",
"; c #1A1517",
": c #151817",
"> c #191917",
", c #161619",
"< c #19171B",
"1 c #17191B",
"2 c #1A1B1C",
"3 c #201E1F",
"4 c #162117",
"5 c #1E201F",
"6 c #20201E",
"7 c #1D1E21",
"8 c #201F24",
"9 c #1E2023",
"0 c #222224",
"q c #272927",
"w c #292927",
"e c #252529",
"r c #28272C",
"t c #27282C",
"y c #2A2A2C",
"u c #362D2F",
"i c #2E302F",
"p c #2D2D31",
"a c #312F33",
"s c #382D36",
"d c #2E3134",
"f c #2E3D38",
"g c #323235",
"h c #383837",
"j c #353539",
"k c #38373C",
"l c #36393B",
"z c #3A3A3D",
"x c #3D3D41",
"c c #403F44",
"v c #3C4143",
"b c #424145",
"n c #464549",
"m c #48474D",
"M c #49494B",
"N c #4D4C52",
"B c #BD140F",
"V c #BE1414",
"C c #BB181C",
"Z c #8E0636",
"A c #870C33",
"S c #8B0A33",
"D c #930835",
"F c #9D173F",
"G c #C1140E",
"H c #C11413",
"J c #DF4537",
"K c #D94936",
"L c #DC4739",
"P c #D74A39",
"I c #D9483A",
"U c #9F1642",
"Y c #9B1844",
"T c #9D1449",
"R c #A11542",
"E c #FDF3F3",
"W c #FEF1F8",
/* pixels */
"#7-7g00-3k8#0u9%&<g7701#t0r=r-i#&1&7r0y#8j8&0g2#<2g2tq>#r9r&7-x+",
"g0kgllxxbzMbMlvbgpxxzkkjlkgkpggjj0xkzxbxbcngnzbcgpzhzzkgxljgpgag",
"002*O+,+2--#+#&-p,7&7=--&XO+ XO+0e7& ,<#:,-O-#--p-7&<--#OO  O   ",
"er0,><< :2 *#2 -t7+1=+07 >-9#t7+9p77:<>#,:O*#8 -0--->#0<X0,r*r2 ",
"ppe- &r-r#Xr2rrrr7&@2-: X19-X>=rgg7-##r,2-&0<rgrt7##y*<% -r-#2 0",
"&g<,,r-=<0<r6q##rp&&:d#259=5&--2*g-,8q:+,72q2q otr%#2y-229-<=-:9",
"7,7,2-&+XOO  .# #:-#<##-7,0>,1=2777,2<# # X      &&%-#$#9191=-=7",
",O7g&,8<7,rrqglzghgggplgtg0<27gd7+0g-<8,r*gtyggzrjaggulygp00:0rr",
"%r3$< ><,87t9=+&0<q#:*yXr26y<>##O78,6.-+,0p7g,X-21r%-15.77qq--< ",
"22020g70g977,=7&,+#<2->o<yi2$##<,7r8<k00p2<1--7#>-$<<#6%7py<-..>",
"0-2-*#0yp<pt,,-&#+0,6yg57pryq$<:7-2-=#tdt7pe>=- +#0<wwh28prgq-:%",
"&2h-qr>#e9t@7-t+#2+7g6u$7kw,3q6#-&g2t0>&ttr+9-r#-2-qy>r.8p0#0w2#",
"gpxkzxlkjjjkpgggj1xlbznbbvbxbxbbgpxxjxzgvxjkrjgkk9klzzMzbznbncbb",
"p77&2---   OO  +907&.#- --*#:#->p,7=7&+&O  # XX&702# #<#---#%---",
"p,&-:#q1 2:0&77 0p95<2>#-2O:#2 ot=*,,#01 ::e=q7+9er25>-.%<##&2 #",
"gr-#010+#2r,@<+rty0% %w-3&*y<0tid7*&912# 7y2X:O0pp0-.-y>r$&y2yra",
"er%#2i*27722-<-7#p,>-r#%572p2tO$rr,o2i&<<><8:<32&g1=,q-->6-r7r &",
"O&-#<#--720--,>37<8-27+ &+ O X   --#-&&-0<0<-<:2777<,&++++      ",
"dgghhhzqkr0>-2gw-#2g1<8,ZSIIPLlvubghaaLKKP64;<yy,,<g#<8<e,perzhz",
"q>0-:20 e-0w,- ##28#qO-&SSIIIL& 02q=-2KPIP80-- ##07&8 -:28ppg-+ ",
":>%22.;#7ar<#  -07t9,kSSPPVVVHLL,-->JPVVVVII#.o-<2807g27t771&*r#",
"#.02wwg7<aq03#%-<<<&+*SSIIVVVVKL#=0-LPVVVVPP2#:-2-7-+&0pd7te:-& ",
"#r+0y2w yk2#2i<.:,g9SASSHVVVVHHVIPLIVVHVVHVV8g> #7g-707&t9t=<+g+",
"gechlzbcccMbMhzzghxkSSSSHVHVVHHVLLPPVVVVVVVVNbbzgrxxkcxhxxxgdjjg",
"8e7&##-#<:$#%#-:p-7*ASSSVHEEEWHHVVHVVVVVVVVV=$%:r*2-<-*$+O   O +",
"7pe,,2: :< -&7 -y*&*SSSSHVEEEEVVVVVVVVVVVVVVo0##p&*:-#w<O7<7+0,@",
"rpe,#-p,0:*g<00rd7 #SSASVVEEBVVVVVVVVVVVVVVV9qdyp8<#r,8*+7p-+& t",
"*x,,<w-#-22u2rO#rr=#SSSSVGEEVVVVVVVVVVHVVVVV20 +pp,*,y#:97=7&,=7",
"7<2:,-&O# +O     ==$SSSSVVGVCVVVVVVVVVVVVVVV     +&&<#$-<<82-<-7",
"*+<g-<7<8:p9pggzpxhgSSSSVVVVVVVVVVVVVVVVVVVVrhhzpxgzgyhrgpq070rp",
"&7,#,#=&87ppr,+X5:r#SSSSVVVVVVHVVHVVVVVVVVVVg2+#0q0-->y*r7q3:>-#",
"88082p07a02<-=7X=>$>SSSAVVVVVVVVVVVVVVVVVGHH-&q#--*:2%2#7ry0## :",
"872,+=9d97tr7=1XX#5<SSSATUHVVVVVVVVVVVVVVHUF,--X&#71qyg07yqpr-:#",
"-2g2rq:X97yO9&y=$9-rSSSSRUHVVVVVVVVVVVVHBVRU9-pX&,=0r0r.8h7-rh0+",
"gylzzzlkvxdvplglx2hshlSSSSUUGVVVVVVVVVVHYFhlyllzg0zlMbbbmbMxMxcx",
"a22,7&&-@O#O X +002$ *SSSSRRHVVVVVVVVVHGFY + +#o0t7-+,,+---&$*:-",
"r--<>#q<O777#r0Ortt7:,SSSSRURTVVVVVVVHRFRU22&q< pp0<&,,&-2#-.8.-",
"p9-&021  ,t:+-$rytt2 =SZASUUUYHVVVVVHGURYYr1o1$qt07,+7r,8+2y20qy",
"r0-&<g#77922--:7&e-,2r--ZSSSUUUTVVVGFRRU17-7---2&g7,20-&-2:020 #",
" +-#1#==9101---29711<<#@SZASUUUUHVVGURUU7191-,,0e17=<<&+#. +    ",
"gjzggghypre2<2yr7 <k:2077,ZZSSUURYYRRFftsrw::2yr: <g#<0<0<j9txdz",
"97i:%22.r72022.++e:-8#--7eAASSUURURRUR0#r<22#:###85-7 <<78pep-& ",
"---<<-2&,pw-*..>9209:k77d997SSUUUUUUUU3#2pi2$. -2800<k02p777-=7+",
"#X0:6rg8<awq2##-7,2=##0g9799SZUUURUYRRs87yrq2##%2$2-##8gp<pp1-#+",
"&7Oqrq0+,g<#3y-#-<l1qr:#09y&2@SSRUURy70$7g2#6u< #-z79q::r7t+7@d&",
"x0gzlhnncxMcMxzxgjvxkzkgxjxxlkDSURRRvznbzxzbbxbxkgzkkggzvvgxpxkj",
"0t2# %<.-:&#%#,<p<2-7,#-&O+# .O@0r2###<#-:-#----p-2*2-#,&@ OO  +",
"7p01-<> >>#-#0+&p&&-:+q-X5>0#q,O7pr1%:> -1 :X2##p,&-%#r1O1,2&07 ",
"ed7&#-iow##i2ryud07#717+ 0r-+&#qear,#*r&2-Xp22qrt<,-q:8#.0p#-, r",
"+d7&<r-#-3-y20 oep&@1d&20q::&&->&a<,0w&&28,q02#Oep+&2r#222-8#--7",
"7-7,<,###+ .    O&##-##,2:0<---28,7*2,&+#OO      #-#-#=>7,8:&:,7",
",+7k+,0<r-yr9dhhycgigphrygr<-7ru*O<j&<8=7-g0agzkyvgzgggtrkr780yr",
"&8<#>.*-e7epy:#Or78-%>q.y200># #+0<,7O-&<7rrg2OO020-<>0#p1qq2:.-",
"2000<g02p777-17@--:<2X2%2yrq%##>77077k07pe97=-9#-*:><#<><rw3%##<",
"2-7-#-qr77pd2=## +q>6wi27pri6-%-<&7,+=7d97py1--+.#6<qwu27aiy6#-%",
"&2x<ty-+e7e&<&e-&q*0y6y.0k0oqg2o#,d27p2&e7e+2-9&*2O20:2#8g6%3h6 ",
"jkzzzzzlxxkxpjkdkexlxzbbccnznznzzpxkkzkgxxzzgjdjx0kkzgbbccnbmxnx",
"e<<-<-**+O+++  +907&+--.-:$o#o-<r<2*2-*#oo@+ XO&902&##>.,<##-%-:",
"p-+*:*q<O,-7+0,@7p91<:< $>.>#2&#p7*::=0<#<<0&t1O9d02<><+-2O-#3.#",
"p0, 8:<# 7p7O-#redt, #r#2*#ayy0id7-#<22o :r=#- rtdq- -r20&&rqryy",
"et&X2g#<29:1=-=9+g<,20:#-3>q20 +pr-.2pO<2012-:-2&j1<0q:*<2<q7r +",
"++=--#*-5,9>-,,7917=2<*+.   #    =-#:+*-219=:1=27<7=2<& oO O    ",
"yjggppzgd09>-9r0-O2k*-e-8,a0pgglrzgggrlyt0q2,>qq-O7x+-72r2g0paax",
"0>w2:<q@p720#-X=&02*2#,@27r7y,*+020%>-0-y716<-##O00&0O-=90ryg,& "
};
