/* XPM */
static char *result[] = {
/* columns rows colors chars-per-pixel */
"64 64 41 1 ",
"  c #BD1111",
". c #BD1212",
"X c #BE1212",
"o c #BE1313",
"O c #BE1413",
"+ c #BE1414",
"@ c #BE1415",
"# c #BE1515",
"$ c #BF1617",
"% c #BF1717",
"& c #B7141E",
"* c #BB1419",
"= c #BA141A",
"- c #B8141E",
"; c #A71638",
": c #A3163D",
"> c #A4163C",
", c #C11917",
"< c #C11918",
"1 c #C11A18",
"2 c #C41F1C",
"3 c #C42A2A",
"4 c #C52B2B",
"5 c #C52C2C",
"6 c #C62F2F",
"7 c #D23D31",
"8 c #D54335",
"9 c #D84939",
"0 c #D84A3A",
"q c #9F1643",
"w c #A01641",
"e c #A01642",
"r c #A01643",
"t c #CD4747",
"y c #F0C0C0",
"u c #F1C1C1",
"i c #F8D9D9",
"p c #F8DADA",
"a c #F9DEDE",
"s c #FFF2F2",
"d c None",
/* pixels */
"dddddddddddddddddddddddddddddddddddddddddddddddddddddddddddddddd",
"dddddddddddddddddddddddddddddddddddddddddddddddddddddddddddddddd",
"dddddddddddddddddddddddddddddddddddddddddddddddddddddddddddddddd",
"dddddddddddddddddddddddddddddddddddddddddddddddddddddddddddddddd",
"dddddddddddddddddddddddddddddddddddddddddddddddddddddddddddddddd",
"dddddddddddddddddddddddddddddddddddddddddddddddddddddddddddddddd",
"dddddddddddddddddddddddddddddddddddddddddddddddddddddddddddddddd",
"dddddddddddddddddddddddddddddddddddddddddddddddddddddddddddddddd",
"dddddddddddddddddddddddddddddddddddddddddddddddddddddddddddddddd",
"dddddddddddddddddddddddddddddddddddddddddddddddddddddddddddddddd",
"dddddddddddddddddddddddddddddddddddddddddddddddddddddddddddddddd",
"dddddddddddddddddddddddddddddddddddddddddddddddddddddddddddddddd",
"dddddddddddddddddddddddddddddddddddddddddddddddddddddddddddddddd",
"dddddddddddddddddddddddddddddddddddddddddddddddddddddddddddddddd",
"dddddddddddddddddddddddddddddddddddddddddddddddddddddddddddddddd",
"dddddddddddddddddddddddddddddddddddddddddddddddddddddddddddddddd",
"dddddddddddddddddddddddddddddddddddddddddddddddddddddddddddddddd",
"dddddddddddddddddddddddddddddddddddddddddddddddddddddddddddddddd",
"dddddddddddddddddddddd999999dddddddd999999dddddddddddddddddddddd",
"dddddddddddddddddddddd888888dddddddd888888dddddddddddddddddddddd",
"dddddddddddddddddddd0821111280dddd0821111280dddddddddddddddddddd",
"dddddddddddddddddddd87<o++o<78dddd87<o++o<78dddddddddddddddddddd",
"dddddddddddddddddd082,o..X+#<280082<#++++#<280dddddddddddddddddd",
"dddddddddddddddddd87,$4664%+o<7887<o++++++o<78dddddddddddddddddd",
"dddddddddddddddddd11o4yipu5X+#1111#++++++++#11dddddddddddddddddd",
"dddddddddddddddddd++.6isau5X++++++++++++++++++dddddddddddddddddd",
"dddddddddddddddddd++.6pat3%+++++++++++++++++++dddddddddddddddddd",
"dddddddddddddddddd++X4uu3 ++++++++++++++++++++dddddddddddddddddd",
"dddddddddddddddddd+++%55%+++++++++++++++++++++dddddddddddddddddd",
"dddddddddddddddddd=*@+XX+++++++++++++++++++@*=dddddddddddddddddd",
"dddddddddddddddddd:;*O++++++++++++++++++++O*;:dddddddddddddddddd",
"ddddddddddddddddddq:-*@++++++++++++++++++@*-:qdddddddddddddddddd",
"dddddddddddddddddddd:;*O++++++++++++++++O*;:dddddddddddddddddddd",
"ddddddddddddddddddddr:&*@++++++++++++++@*&:rdddddddddddddddddddd",
"ddddddddddddddddddddew:;*O++++++++++++O*;:wedddddddddddddddddddd",
"ddddddddddddddddddddeer:&*@++++++++++@*&:reedddddddddddddddddddd",
"ddddddddddddddddddddddew:;*O++++++++O*;:wedddddddddddddddddddddd",
"ddddddddddddddddddddddeer:&*=*@++@*=*&:reedddddddddddddddddddddd",
"ddddddddddddddddddddddddew:>:;*OO*;:>:wedddddddddddddddddddddddd",
"ddddddddddddddddddddddddeeeer:&**&:reeeedddddddddddddddddddddddd",
"ddddddddddddddddddddddddddeeew:>>:weeedddddddddddddddddddddddddd",
"ddddddddddddddddddddddddddeeeeeeeeeeeedddddddddddddddddddddddddd",
"ddddddddddddddddddddddddddddeeeeeeeedddddddddddddddddddddddddddd",
"ddddddddddddddddddddddddddddeeeeeeeedddddddddddddddddddddddddddd",
"ddddddddddddddddddddddddddddddeeeedddddddddddddddddddddddddddddd",
"ddddddddddddddddddddddddddddddeeeedddddddddddddddddddddddddddddd",
"dddddddddddddddddddddddddddddddddddddddddddddddddddddddddddddddd",
"dddddddddddddddddddddddddddddddddddddddddddddddddddddddddddddddd",
"dddddddddddddddddddddddddddddddddddddddddddddddddddddddddddddddd",
"dddddddddddddddddddddddddddddddddddddddddddddddddddddddddddddddd",
"dddddddddddddddddddddddddddddddddddddddddddddddddddddddddddddddd",
"dddddddddddddddddddddddddddddddddddddddddddddddddddddddddddddddd",
"dddddddddddddddddddddddddddddddddddddddddddddddddddddddddddddddd",
"dddddddddddddddddddddddddddddddddddddddddddddddddddddddddddddddd",
"dddddddddddddddddddddddddddddddddddddddddddddddddddddddddddddddd",
"dddddddddddddddddddddddddddddddddddddddddddddddddddddddddddddddd",
"dddddddddddddddddddddddddddddddddddddddddddddddddddddddddddddddd",
"dddddddddddddddddddddddddddddddddddddddddddddddddddddddddddddddd",
"dddddddddddddddddddddddddddddddddddddddddddddddddddddddddddddddd",
"dddddddddddddddddddddddddddddddddddddddddddddddddddddddddddddddd",
"dddddddddddddddddddddddddddddddddddddddddddddddddddddddddddddddd",
"dddddddddddddddddddddddddddddddddddddddddddddddddddddddddddddddd",
"dddddddddddddddddddddddddddddddddddddddddddddddddddddddddddddddd",
"dddddddddddddddddddddddddddddddddddddddddddddddddddddddddddddddd"
};
