/* XPM */
static char *result[] = {
/* columns rows colors chars-per-pixel */
"64 64 72 1 ",
"  c #040405",
". c #080607",
"X c #060807",
"o c #090907",
"O c #060609",
"+ c #08070B",
"@ c #06090A",
"# c #0B0B0C",
"$ c #0D100E",
"% c #11110E",
"& c #0E0E11",
"* c #100F13",
"= c #0F1114",
"- c #0F1813",
"; c #131314",
": c #1B1617",
"> c #151817",
", c #191917",
"< c #161619",
"1 c #19171C",
"2 c #17191B",
"3 c #1B1B1C",
"4 c #201E1F",
"5 c #1E201F",
"6 c #20201E",
"7 c #1D1E21",
"8 c #201F24",
"9 c #261E28",
"0 c #1F2024",
"q c #222224",
"w c #262926",
"e c #282926",
"r c #252529",
"t c #28272C",
"y c #27292C",
"u c #2A2A2C",
"i c #2E302F",
"p c #2D2D31",
"a c #302F33",
"s c #2E3134",
"d c #323234",
"f c #383836",
"g c #353539",
"h c #38373C",
"j c #37383B",
"k c #3A3A3D",
"l c #3D3D41",
"z c #403F44",
"x c #3D4243",
"c c #424145",
"v c #464549",
"b c #48474D",
"n c #49494B",
"m c #4D4C52",
"M c #BE1414",
"N c #BA1518",
"B c #860C31",
"V c #8B0A33",
"C c #930835",
"Z c #9D163E",
"A c #C1140E",
"S c #C11313",
"D c #D84A36",
"F c #DB473B",
"G c #D64A3A",
"H c #D9493A",
"J c #9E1642",
"K c #9A1846",
"L c #9C1649",
"P c #A11543",
"I c #FDF2F4",
"U c #FDF5F8",
/* pixels */
"#7;7dqq%8g6#qdq#&<g77r,&yrr=r;s##3=8uqtXqg7&qd3#>3d3tr3#e0t+7;k+",
"dqhdjgllcxvvnjxcgpljkgfgjjdhpddgg0khklvcczvgvkvcpdkghkgglkgddddg",
"q83*O#<+3;;++#*;p<7=7=;=&.O+.. +rq7& ,:@;<;O;#;&p;7&<;&&#.   . .",
"ruq<<2<.;3.*#3.%p<+2;+q7 3=0#r7+0p77<,<@<>O;#8.;q<*;>&q,O7<y&u< ",
"ppr;.&t;u+#r3tttp7#+3;;.X20;@>=yaa7*&&u<3;&q2wdrr7+#u%,; ;u;@3 0",
"+g<<2r;*,q,t6r##up#&<s#350;5#;<3&g;<8q;#<q,r3r.#rt%#3u%33q=2;;20",
"7<7<3;&++OO  o#Xo<;#2##;7<0><2;3877<3<#O+OO . . O&#%:#;#7272=<=7",
"<O7g*;837<rurdjjijddddgdydq337dp7+qd;18<r*druddkuddgdujugpqq<qru",
"%r4#< ,,<77yr=+&q1r#>&tot34t3,.*O8q<q.;+<rp3d;+%7,t*;,3#77qt>;<.",
"38q38g7qg877==7=,+&,3;,%<ui3###3<3rq,g7rp3<3;;0#<&%33#3;7pu3;..>",
"8;3>*#qup7yy<<<+.+q<6td60peir%,;7;7;=#ysy7pr>;;X##q3eef,7pudr;;;",
"#3f;rt,#q7y+7<y+&,#7g6i#7gt<6r6#;&d3wr<#yyr+0;r&*3;qu,r.7s7#6e4o",
"dplgkkkgggjgpsgds<xhlkvcclclcxccdpllglkglldgpgdgg7gkkknlzkvcnzvk",
"pq7&3;;>X  OO  Oqr7&o#;.;>*#;#;>p<7=7=+&O @# @o#qq7#.#,#;;;#%;;;",
"p<*;>#r2 3>q&77 ry03,3,#*3O>+7X#y=*<<+q> 2>q$r0@7rq73,;#*,###3.&",
"pu;%q2q+#3t<+<+truw% ;t;4&*u,qyus7*&0,3& 7u3#;.qypr;o;u,t#;u3utp",
"rp;#,p&37833;<;8#a<<;u%#333p7r $rt<#3a#:<7,q<,33<j<=<r>%34<r7t #",
" &%#,&;;31q<*<<3718;73+ &O .  O o**#>**-81q,<1<:7<7<>&.++. O   .",
"pgdffgkrgpq>;3fe;&,d319<VVVVGGHFdzdfFDGGpw93;3ui<><g&181r1pyrhgk",
"r,q;;3q.r<4e<; #.38#qO;&VVVVHFFFq3w$DHFDr73q:; #.q8&3.;>3qpyd;# ",
";:%33o>#7at,#. ;q7t8<dVVVVGGSMMMFDGGMMMMFFy0%.o;37qq7d38y07<**t.",
"#oq3eei01are3#%;31,&&&VVVVHHMMMMDFGFMMMMHGer3#;;3;1<+&qus7yr>;&.",
"&t#qu3t.tg3#4e3o><g7rqVVVVMSMMMSMMMMSMMSMM6,8d3 #7g*7r7*y0y&7+d+",
"drkjjkccczncmjkkdgxgkcVVVVMMSMMMSMMMMMMMMMcbnzzkdtklhckglllsssgg",
"qr7&.#>#3;*%*#%;u;7*3;VVVVMSUIIISMMMMMMMMM%#;$%>r*3;<>&&+O   + +",
"7ur<<7> >< *&7O;p*&*<#VVVVMMIIIINSMMMMMMMSo##6##p&*>;#t,O732+q<O",
"rpr<O;p<q;*d3q6ts7 #,;VVVVMMIIMMMMMMMMMMMM#e6riupq1#r<8;+7p<+& y",
"*l<<3e;#>44u7r.#yy;@,gVVVVMSIIMMMMMMMMMMMM;t3r #pa<*<u+:00=3&<=7",
"773<<;&O#.+ O    =>#2%VVVVMMAMMMMMMMMMMMMM .     +*&<#*;3,q3<2<7",
"*O<d;<718;p7uggjskfdguVVVBMSMMMMMMMSMMSSSMdtujfkplpkaiftgurq78tu",
"&7<&<.=&88ppr<+@3>t#%$VVVBLLSMMMMMMMMMMSJZp7d,+#qrq;;>u*r7q6>>=+",
"87qq3dq7pq7<<&7@;3$,;oVVVVPPMMMMMMMMMMMMPP73>&r#;;;<,;3#7uuq$#.:",
"873<+=0sy2yp3=2@##q,4ed0VVVVMMMMMMNSSMMSy7yp--=@##0,rufq7uepr>>#",
";3d3rw>+02pOq=u=&7;uj3yOVVVVMMMMMMSNMMSSy30<7<p@=;&rt0t.qg7*tjq.",
"dijkkljgllsxpjsjk7jifjcbVVVVMMMMMMMMMMMSxlgjpgljdrkknccvvcnlnlcl",
"a13>7&=&OO#  @.O0r3#.*<&VVVVAMMMSMMMMMSS+X + +@@rr7;+<<+;;;&%*>;",
"u<*<<#r2O777+u4.ryr3<<7 VVVVJKMMMMMMMMJL 323$r,Oypq2&<3+;3#;.8.;",
"p7;&q7,. <w>#;=ypyy3O&t&VVVVJPSMMMMMSMPP.qu<#2=qyr7<+7t<8#,t3qqu",
"uq;&,d+77073=;;7&r;<3u;;,8VVVVJLSMMAPP&787<3=;;7&g7<3q;&>3<r3q #",
" +;#<&=-0<02<<&307323,++&.VVVVJJSMMAPL&;020<;<<q0<<<13&OO. O   .",
"dgkdddftatq<<3pt7 ,g<3r77<VVVVPJPLJJPPfrdtr;;7ut>O,d#<r1q2sryhpk",
"q3d<%33.t71t43..+r>;8#;*7rVVVVLLJJJJPPq#u343&>.##84;7.<,78srp<&O",
";;$,,;3#<pe>%..>03q0<g87p007VVVVPJJP,@4#2pu3%. ;37q73gr3a777;=7+",
"+#q<7udq<are4##;7<3=##qd070rVVVVPJPJ4rdq7ute3##%3;3;#&6dp<pp2=##",
"&7Orurr#;g<#4u>#;<l<re,.r0p=3@VVZPJJu7q#7g,#8u, #;k3qr;;y7p+7&p&",
"hrdkghncclnznlkldgxlklggkjjjjhCVJPPJlkcvkllcczzzgglgjddlxlslulgg",
"rr3&.#:.;>&#%#<<p<3;7<#;#@#+.. +7u3#O#<#;>%$;;;;p;1*3;#<#@ O+  +",
"7pq2;,> >:#;#q+&p&&;>#q>@32q#w>#7pr3;:,@;2 >o3##p<&;=#r2+2<3&q3O",
"rs0&+>doe##p3tuisr2#0>7# qu;.*#rtat<#%r&8;#i33ryp<<<e>8#.qp#*< u",
"+s<&,t;#;3;u3q #yp&#2s;<8q<>&*%<&a1<qt*&33>rq3#Oqp+&3t#333;q&*;7",
"7<7<1<###. .    .#*#;+#>3<q:<;;58<7*3<&+#..     O#*#;##:71q<*><7",
"<+7k+<q1t;uuqddftcaidpkyupu,;3uu* 1g&<8=3;gquglgulgjddgtrgr880ut",
"#q,#:#*;r7rpt>#Ot3q;;,q.p7qq,% %+q<<7+;&<7ttg2..q,q;,<q#p2eq3;#%",
"3qqq<d83p777><7+;;><,o3;2utq%##,78q77gq7pr07=;0#;;>>3#3>3uu4%##3",
"3>7;+;ru77ps2=##++q,qei,7pui4;%;<&7<&&7g77yp2;;+.#42qui47pie6#;%",
";,l<yt;#r7t&<&r;&r;6u5uoqgq#qd3o#<p77r7=77r&3;0&&3O3q,4.8gq%6d6.",
"dgkkklkhllhkaggdhrlklkclccvlvkckkplgghgdkklksdsgjrjjkgvczzncvlvl",
"t71;<*&<+O++OO@+7q7&+;;o%;#o##;>u17;7;*%o##+X@O&qr3# #,#<<##;%;;",
"p<+*<*q,+<<8#r<+0p022;, %,.:#3&&p3*>;*q3#32r#r<+qpr,,3<+<,O*#3.#",
"p7< 8>3# <p7 >@rrsr<.#t&3;#auuqis8;.,33+ ;t=#>.rysr;.*r1q&&urtua",
"rr&O,g#<30>;&;=0+g<<3q;&;3,r3q +pu;o3p#<3r;3;;>3&j<<qe>&,3,qqt .",
"O&==>+&;3;r,;<;7037=3<&+.   .   O#=#<+&;3>0=>>=38<7<31&.+O..    ",
"ugddspjsdr02;7yr;O7g;*q<7<dqpgdkuhdgdtkutyr223wq<+7j&&73r3g7ppal",
"q,e3,,r@p73q$;.$#q3*7#<O77rqu<&+q3q#:>q;u3>q,;##Oqq&qO;&0ryug<&."
};
