/* XPM */
static char *result[] = {
/* columns rows colors chars-per-pixel */
"64 64 121 2 ",
"   c #0D0D0C",
".  c #110F0D",
"X  c #0F100D",
"o  c #11110E",
"O  c #110F11",
"+  c #151413",
"@  c #191615",
"#  c #171815",
"$  c #1A1916",
"%  c #171618",
"&  c #191718",
"*  c #1C1C1B",
"=  c #211E1D",
"-  c #1F201B",
";  c #22211E",
":  c #28241F",
">  c #1E1F20",
",  c #221F20",
"<  c #242422",
"1  c #292624",
"2  c #2B2926",
"3  c #262729",
"4  c #292728",
"5  c #2D2C2B",
"6  c #302927",
"7  c #312E2C",
"8  c #2F322E",
"9  c #34312E",
"0  c #38332E",
"q  c #2D2F30",
"w  c #312F30",
"e  c #2F3131",
"r  c #353433",
"t  c #393633",
"y  c #373936",
"u  c #3B3936",
"i  c #363738",
"p  c #393738",
"a  c #3C3C3A",
"s  c #731433",
"d  c #781735",
"f  c #7B1B3A",
"g  c #403C37",
"h  c #413E3B",
"j  c #3E413E",
"k  c #42413E",
"l  c #4B413E",
"z  c #3F3F41",
"x  c #413F40",
"c  c #3F4141",
"v  c #444342",
"b  c #494643",
"n  c #474845",
"m  c #4A4946",
"M  c #474749",
"N  c #47484A",
"B  c #4C4B4A",
"V  c #504F4C",
"C  c #52514E",
"Z  c #4E4E51",
"A  c #545453",
"S  c #595654",
"D  c #595856",
"F  c #575759",
"G  c #5C5C5B",
"H  c #605D5A",
"J  c #666665",
"K  c #686564",
"L  c #686867",
"P  c #736F6D",
"I  c #71716F",
"U  c #797775",
"Y  c #7D7C7B",
"T  c #A31717",
"R  c #A81717",
"E  c #A51817",
"W  c #A61A1B",
"Q  c #A91B1A",
"!  c #BE1515",
"~  c #BA1419",
"^  c #8D163B",
"/  c #851C3D",
"(  c #94163E",
")  c #901A3E",
"_  c #A1163F",
"`  c #86213F",
"'  c #B03F32",
"]  c #B83F31",
"[  c #C01716",
"{  c #C01817",
"}  c #C01A1A",
"|  c #C11F20",
" . c #C22121",
".. c #C42929",
"X. c #B74134",
"o. c #B24539",
"O. c #B94639",
"+. c #C34436",
"@. c #CC4637",
"#. c #C54639",
"$. c #CA4738",
"%. c #C34A3C",
"&. c #CF4839",
"*. c #D54637",
"=. c #D54738",
"-. c #871E40",
";. c #9C1641",
":. c #941A41",
">. c #9A1842",
",. c #A01741",
"<. c #8B2344",
"1. c #868583",
"2. c #8C8B8A",
"3. c #918F8E",
"4. c #969494",
"5. c #9A9896",
"6. c #9D9B9A",
"7. c #F8DBDB",
"8. c #F9E1E0",
"9. c #FCEBEA",
"0. c #FFF2F2",
/* pixels */
"u u a a h a j a h 5 $ 5 k t y y i a i i a a a a i a v < 5 9 u u y a a a u u a a g u t : - ; 7 u a u t t u u t u h 2 @ 5 k t y u ",
"u u a a a a a a a 5 # 5 a u i y i a a a z a z a a a a < 2 8 u i v b k k b A m k h g 9 < * $ 7 h a u a a k a u t g 1 + 2 9 t u a ",
"a a v a a a a a t 5 # 5 y a u a a a a a a j c c c i 5 < 5 1 u u N j k B B j C n k k t : * * 0 S v v v v b b k h u 1 @ 5 u u y u ",
"B b b a u m u y 9 2 * 8 r v u e a u i B c v v a a 5 y * < v a a t a a a h a v b k g j ; * * k v b n m u y 9 B j g 1 $ t r a k v ",
"a 5 2 9 3 1 5 5 5 9 = r a r 5 5 2 M M k v c c a 2 i t + < a u t a a a a a v a t y 8 2 ; + * y B v 7 t t 8 9 h b 9 5 - a 5 2 v k ",
"< 2 5 9 8 9 5 1 2 t = 7 r m p y e e N a 5 e a 5 5 u 5 o < 9 t 5 5 5 5 1 2 2 1 - < ; * * o = $ ; < * = ; < 5 5 5 2 ; + ; < - ; < ",
"+ + 3 < * 1 1 5 5 2 + 1 < 1 < 5 - * % + + # * > 3 5 1 O = * ; ; - * + + # + + + o o .       . o o   + $ * ; < < 1 . X # # + # # ",
"O + + # + # + $ + + o $ $ $ @ $ + + O         + + % @ + + + + o o o     < 3 e i y t t r @ 2 7 6 1 < * o $ r u y r 5 1 < # + X + ",
"o o + # * $ * * * ; @ O = = , = o < 9 8 u y 8 8 5 + + - 1 1 ; ; 2 2 ; * p r w w r w x p 1 r h h a 2 1 + 8 b j v k b k u y y y 9 ",
"; + 2 e 9 5 7 5 2 r 2 = 1 7 0 7 + b H C a u n j B 8 ; 1 1 < 1 < 2 5 > + r q w q r i r r < 5 7 6 7 5 < # k a r y S t 9 y t k k m ",
"< $ 2 2 5 5 5 5 9 5 < < 0 7 2 7 + 5 y y y r r y k 2 < 5 8 5 8 5 8 9 < O i r y i i p p i 1 7 0 t 0 7 1 # 5 t t t y 9 0 9 0 8 t u ",
": < 9 5 5 7 7 7 5 y 1 1 6 t 7 7 $ 5 y a a a j a a 1 1 r r r 9 t r t > O r a a a x x h a 1 2 h t t u 5 + 1 r r r 9 y y u 9 9 9 2 ",
"* < 8 9 w r w y a 7 * 6 t t t 6 $ y v B k j k a n 5 5 y r r t y u a < O z M z a x h r h < < h g g g 0 + 5 t y a a a j y j t 9 2 ",
"+ ; 9 t w w t 5 t 7 & 6 t t 0 r $ v y j t a a j j 2 5 t 5 y y t r i < O 5 r * 1 4 , a 5 = < g u g t 1 @ y t u u b j k k j j y : ",
"O 5 5 5 w 1 q r 5 5 + $ 1 = = = o ; n i 5 j j a y < < * < < * * 1 < >   * * > ; = % , = . 1 g t 9 7 = . ; < 5 < < < 5 k y y 9 ; ",
"  + % * * % % * * * . . + . $ $ + * < 1 1 - * # $ o + + + + + X   % 3 1 2 3 < * > = $ $ o % * @ @ @ o . + * * - - * $ * * # - * ",
"1 1 5 1 > = % . * > < 1 3 5 z 1 y r w % 1 y a v B B u m b a v ; * a V S D A m B C V C m t @   * 2 q r q e 8 1 - * X . o : 0 7 6 ",
"g v h t a t 7 = a i y y y y i u i i a % r N t 9 r r a r 9 r a < % 5 t w r r t t t y a u k < < a m n v A C G B B 8 1 ; h k b V l ",
"t t a u a a r < 3 u i i a i i a i a r + p u o.&.=.&.&.#.t y r 1 + 5 x i &.&.&.&.&.O.a y 5 1 2 j j j N c c c b j y 7 5 m t u u u ",
"h h h h a a 7 ; r a v z a z a z c a e + 1 a +.*.=.=.=.=.h u u t + r S u =.=.*.*.*.#.h u a ; 1 a j v c v c n k v k 5 1 k u u a u ",
"v v v v v u y 1 u z M v z c z v z a r % ' =.} ! ! [ ! [ @.#.a 5 O 3 %.@.! [ [ ! ! { &.o.a ; 1 h n k j v M n n v j 5 5 k h h v u ",
"h v v c v p y 1 * y c c z a u i e i 3 * O.*.[ ! ! ! ! ! *.*.h 5 O 1 =.*.[ ! ! ! ! [ *.#.a * < 8 r n j a j v n j j t 2 5 t v k a ",
"r 2 2 r 9 5 2 > < i r r r i 3 8 r i ' $.} [ ! ! ! ! ! ! [ [ *.$.+.@.! ! ! ! ! ! ! ! ! { *.X.; 0 9 8 5 9 8 r 9 t 9 1 : 9 9 9 5 5 ",
"$ * $ $ * $ $ * % > % + < * & * r y ] *.[ ! } } { { ! ! ! [ *.*.*.*.! ! ! ! ! ! ! ! ! { *.X.o $ * * $ $ @ * ; ; < * * * = * + + ",
"+ + O       + + + o o . . o o +   + T ! ! ! 7.9.9.9.| ! ! ! [ ! [ [ ! ! ! ! [ ! ! ! ! ! [ E ; = O   + & * * + % # o + & & - - > ",
"F N w + r a h k a a u t t a t 5 + r W ! ! ! 8.0.9.9.| ! [ ! ! ! ! [ ! ! ! ! ! ! ! ! ! [ ! R 7 7 < + > i z z a z v M z M M Z F Z ",
"z Z i * v u u u t a a h h k k u + 7 E ! ! ! 8.0...} ! ! ! ! ! ! ! ! ! ! ! ! ! ! ! ! ! ! ! R u g ; + 3 z z z z M Z M z z c z z a ",
"z N u > y u a v B b k h g h h a + < W ! ! ! 7.9. .! ! ! ! ! ! ! ! [ ! ! ! ! ! ! ! ! ! ! ! R h g < * > i i z M Z j a a a z i z i ",
"c N i * r a u v j k k a a a a a $ 4 W ! ! ! ~ } ! ! ! ! ! ! ! ! ! ! ! ! ! ! ! ! ! ! ! ! ! Q h m < $ < u A z M z x z z z z z z z ",
"z M a * 5 5 u u k k h a a v t 9 , 5 W ! ! ! ! ! ! ! } ! ! ! ! ! ! ! ! ! ! ! ! ! ! ! ! ! ! Q h h < * 2 N z z z z z z z z e e i z ",
"i q 3 + > r 9 8 y u r 8 5 9 t r , 3 -.,.~ ! ! ! ! ! ! ! ! ! ! ! ! ! ! [ ! ! ! ! ! ! ! ~ ;.) a a 2 * 3 B z a z a a i i i q i i i ",
"2 < * + * * * * 2 5 5 5 5 < 1 < * * f ( ~ ! ! ! ! ! ! ! ! ! ! ! ! ! ! ! ! ! ! ! ! ! ! ~ ;.<.k a r * 3 v z p a i i i i i x p i q ",
"% + O % % O + O O + @ O O O @ + o o o . ^ ,.~ ! ! ! ! ! ! ! ! ! ! ! ! [ ! ! [ ! ~ ~ ,.^ , , q 3 $ + & * 1 e < < 8 u < < 3 > > * ",
"+ % > > > > > & , O . = : 6 g g 0 0 t u :.,.~ ! ! ! ! ! ! ! ! ! ! ! ! ! ! ! ! ! ~ ~ ,.:.+ + & * O       @ ; * % * * % % & + X   ",
"3 3 3 q q 3 q 3 6 , @ 0 h m h h g g 0 k :.;._ _ ~ ! ! ! ! ! ! ! ! ! ! ! ! ! ! ! ,.,.;.:.a e q > + - 1 * = $ @ $ & + O     % > > ",
"i i i i e i e q r 5 + 6 g g g t g 0 9 7 ` ;.,.,.~ ! ! ! ! ! ! ! ! ! ! ! ! ! ! ! ,.,.>.-.Z G F 4 = 3 1 1 1 1 2 2 2 5 1 * % 3 e e ",
"c c z z i z z z z q % 4 t 0 7 0 0 g 6 0 u : ( _ _ ,.! ! ! ! ! ! ! ! ! ! ! ~ _ _ ;.:.z Z v c N 3 ; 8 5 5 7 7 t t 7 0 r * + e M z ",
"M c c c z p M z z i * 1 g t 0 0 0 0 g g g : s ( ;.,.~ ! ! ! ! ! ! ! ! ! ! ~ _ ( >.-.z z a i M 3 = r r t u u u a h k v > + e N c ",
"q i Z N q M N M N w & 1 6 u t t g t l 0 l 9 * 5 >.,.;.,.,.,.~ ! ! ~ _ ,.,.;._ ;.z M e z z i r 5 < a u a h j k l l h 9 - + 5 i 5 ",
"> > > > q 3 q r r w , 1 7 u t 6 0 l g 0 u 1 * 2 <.;.,.,.,.,.~ ! ! ~ ,.,.,.;.;./ q i z z z Z c 3 < u 8 u t t b h t 0 5 - O > 3 > ",
"& % % % * > < 3 1 - * * < t t 7 0 t 6 9 6 : . : 5 w :.;.,.,.,.,._ _ ,.,.,.;., < r z i M v 3 1 * # 9 5 < < > < * ; 2 9 * + - * * ",
"> +   O + + % * * $ X   + + + @ + + # = = $ o o * * d ;.,.,.,.,.;.,.,.,.( / + + + + % * , % * + + # * +     O   + @ +   + # * * ",
"q 5 * * * * # + o . $ ; = * * * * @ + + + 2 a y u a r r ;.;.,.,.,.,.,.;.. .             $ 1 1 4 1 5 5 5 2 1 <     o ; 2 t 9 e e ",
"y 5 + * ; * ; < ; o u N v m u B b k k g + h y B N v i i <.;.,.,.,.;.;./ 9 0 7 9 7 = + r V a i x y j b v v M r 2 + 5 b t r r r y ",
"u w & = 2 6 2 2 1 o 5 y r r r i n t a 5 + 5 5 5 y r i i r t >.;.;.;.@ t 7 6 6 6 7 7 * 1 k u r a j u k k h h u 5 $ 4 h a u u y t ",
"h w = 2 9 0 0 7 k + 2 D t t y u p u t 5 + 8 r 8 q i y u a p -.;.;./ * t 0 9 0 0 6 0 = $ t h a r a k v k v h v 5 ; 5 v h h k z u ",
"u u a a h a j a h 5 $ 5 k t y y i a i i a a a a i a v < 5 9 u u y a a a u u a a g u t : - ; 7 u a u t t u u t u h 2 @ 5 k t y u ",
"u u a a a a a a a 5 # 5 a u i y i a a a z a z a a a a < 2 8 u i v b k k b A m k h g 9 < * $ 7 h a u a a k a u t g 1 + 2 9 t u a ",
"a a v a a a a a t 5 # 5 y a u a a a a a a j c c c i 5 < 5 1 u u N j k B B j C n k k t : * * 0 S v v v v b b k h u 1 @ 5 u u y u ",
"B b b a u m u y 9 2 * 8 r v u e a u i B c v v a a 5 y * < v a a t a a a h a v b k g j ; * * k v b n m u y 9 B j g 1 $ t r a k v ",
"a 5 2 9 3 1 5 5 5 9 = r a r 5 5 2 M M k v c c a 2 i t + < a u t a a a a a v a t y 8 2 ; + * y B v 7 t t 8 9 h b 9 5 - a 5 2 v k ",
"< 2 5 9 8 9 5 1 2 t = 7 r m p y e e N a 5 e a 5 5 u 5 o < 9 t 5 5 5 5 1 2 2 1 - < ; * * o = $ ; < * = ; < 5 5 5 2 ; + ; < - ; < ",
"+ + 3 < * 1 1 5 5 2 + 1 < 1 < 5 - * % + + # * > 3 5 1 O = * ; ; - * + + # + + + o o .       . o o   + $ * ; < < 1 . X # # + # # ",
"O + + # + # + $ + + o $ $ $ @ $ + + O         + + % @ + + + + o o o     < 3 e i y t t r @ 2 7 6 1 < * o $ r u y r 5 1 < # + X + ",
"o o + # * $ * * * ; @ O = = , = o < 9 8 u y 8 8 5 + + - 1 1 ; ; 2 2 ; * p r w w r w x p 1 r h h a 2 1 + 8 b j v k b k u y y y 9 ",
"; + 2 e 9 5 7 5 2 r 2 = 1 7 0 7 + b H C a u n j B 8 ; 1 1 < 1 < 2 5 > + r q w q r i r r < 5 7 6 7 5 < # k a r y S t 9 y t k k m ",
"< $ 2 2 5 5 5 5 9 5 < < 0 7 2 7 + 5 y y y r r y k 2 < 5 8 5 8 5 8 9 < O i r y i i p p i 1 7 0 t 0 7 1 # 5 t t t y 9 0 9 0 8 t u ",
": < 9 5 5 7 7 7 5 y 1 1 6 t 7 7 $ 5 y a a a j a a 1 1 r r r 9 t r t > O r a a a x x h a 1 2 h t t u 5 + 1 r r r 9 y y u 9 9 9 2 ",
"* < 8 9 w r w y a 7 * 6 t t t 6 $ y v B k j k a n 5 5 y r r t y u a < O z M z a x h r h < < h g g g 0 + 5 t y a a a j y j t 9 2 ",
"+ ; 9 t w w t 5 t 7 & 6 t t 0 r $ v y j t a a j j 2 5 t 5 y y t r i < O 5 r * 1 4 , a 5 = < g u g t 1 @ y t u u b j k k j j y : ",
"O 5 5 5 w 1 q r 5 5 + $ 1 = = = o ; n i 5 j j a y < < * < < * * 1 < >   * * > ; = % , = . 1 g t 9 7 = . ; < 5 < < < 5 k y y 9 ; ",
"  + % * * % % * * * . . + . $ $ + * < 1 1 - * # $ o + + + + + X   % 3 1 2 3 < * > = $ $ o % * @ @ @ o . + * * - - * $ * * # - * ",
"1 1 5 1 > = % . * > < 1 3 5 z 1 y r w % 1 y a v B B u m b a v ; * a V S D A m B C V C m t @   * 2 q r q e 8 1 - * X . o : 0 7 6 ",
"g v h t a t 7 = a i y y y y i u i i a % r N t 9 r r a r 9 r a < % 5 t w r r t t t y a u k < < a m n v A C G B B 8 1 ; h k b V l ",
"t t a u a a r < 3 u i i a i i a i a r + p u o.&.=.&.&.#.t y r 1 + 5 x i &.&.&.&.&.O.a y 5 1 2 j j j N c c c b j y 7 5 m t u u u ",
};
