/* XPM */
static char *result[] = {
/* columns rows colors chars-per-pixel */
"70 70 158 2 ",
"   c #000000",
".  c #080202",
"X  c #02060A",
"o  c #0C0B0A",
"O  c #130102",
"+  c #190304",
"@  c #100909",
"#  c #060D14",
"$  c #0A141D",
"%  c #131313",
"&  c #1B1B1B",
"*  c #181716",
"=  c #230507",
"-  c #2A0506",
";  c #3F0608",
":  c #22190B",
">  c #371300",
",  c #261E17",
"<  c #30251B",
"1  c #091826",
"2  c #071C32",
"3  c #122336",
"4  c #132639",
"5  c #222222",
"6  c #2D2D2D",
"7  c #3D342A",
"8  c gray20",
"9  c #460000",
"0  c #5E0000",
"q  c #530000",
"w  c #4E0E13",
"e  c #660300",
"r  c #7E0000",
"t  c #650D11",
"y  c #740F15",
"u  c #641318",
"i  c #781319",
"p  c #413218",
"a  c #533D1C",
"s  c #45302A",
"d  c #423D37",
"f  c #584428",
"g  c #5D4834",
"h  c #725629",
"j  c #0A2C4D",
"k  c #1A334C",
"l  c #0B3055",
"z  c #1E3D5B",
"x  c #113E6B",
"c  c #214060",
"v  c #24486B",
"b  c #274E74",
"n  c #285077",
"m  c #2A527B",
"M  c #4C4C4C",
"N  c #5A5A5A",
"B  c #755D46",
"V  c #645C55",
"C  c #6D6B6A",
"Z  c #796F65",
"A  c #737272",
"S  c #880000",
"D  c #9A0000",
"F  c #8D171F",
"G  c #A00000",
"H  c #BD0000",
"J  c #882D00",
"K  c #841920",
"L  c #9D1D27",
"P  c #901B23",
"I  c #A11B25",
"U  c #A21E28",
"Y  c #AD2029",
"T  c #B3222B",
"R  c #CD0203",
"E  c #C60000",
"W  c #D50000",
"Q  c #DB0D00",
"!  c #D71F1F",
"~  c #E21B00",
"^  c #E01500",
"/  c #EA2900",
"(  c #F33D00",
")  c #EA4D00",
"_  c #FA4B00",
"`  c #F74400",
"'  c #FE5400",
"]  c #894F4C",
"[  c #8A6F54",
"{  c #86715B",
"}  c #B3843E",
"|  c #AC855E",
" . c #9F8164",
".. c #968A7E",
"X. c #AC8A67",
"o. c #B79776",
"O. c #CB9949",
"+. c #FE894F",
"@. c #DDA24C",
"#. c #EDAE51",
"$. c #C5986B",
"%. c #C59D75",
"&. c #C8A078",
"*. c #FBCF69",
"=. c #2C5680",
"-. c #2D5884",
";. c #2E5B88",
":. c #326495",
">. c #336699",
",. c #34699E",
"<. c #376EA4",
"1. c #386FA6",
"2. c #3B75AF",
"3. c #3D78B2",
"4. c #9D9083",
"5. c gray58",
"6. c #9A9A9A",
"7. c gray53",
"8. c #AF9F8E",
"9. c #B8A99A",
"0. c #A4A4A4",
"q. c #AFAFAF",
"w. c #BCA5A6",
"e. c #B3B1AE",
"r. c #B6B6B6",
"t. c #BBBBBB",
"y. c #E68480",
"u. c #FF938E",
"i. c #C5A98E",
"p. c #C5AB92",
"a. c #C5B29F",
"s. c #FFB394",
"d. c #C5B3A1",
"f. c #FFB9B2",
"g. c #F6C696",
"h. c #FFCC99",
"j. c #FFD2A6",
"k. c #FFC5B8",
"l. c #FFDAB4",
"z. c #C5C5C5",
"x. c #CCCCCC",
"c. c #D5D5D5",
"v. c #DBDBDB",
"b. c #EFDBC7",
"n. c #E6C9C9",
"m. c #F6E2CD",
"M. c #FFE6CE",
"N. c #FFE1C4",
"B. c #FDE7D1",
"V. c #FFEAD5",
"C. c #E6E6E6",
"Z. c #ECECEC",
"A. c #FFE9E5",
"S. c #FFF3EB",
"D. c #F3F3F3",
"F. c #FDF8F5",
"G. c #FEFEFD",
"H. c None",
/* pixels */
"H.H.H.H.H.H.H.H.H.H.H.H.H.H.H.H.H.H.H.H.H.H.H.H.H.H.H.H.H.H.H.H.H.H.H.H.H.H.H.H.H.H.H.H.H.H.H.H.H.H.H.H.H.H.H.H.H.H.H.H.H.H.H.H.H.H.H.H.H.H.",
"H.H.H.H.H.H.H.H.H.H.H.H.H.H.H.H.H.H.H.H.H.H.H.H.H.H.H.H.H.H.H.H.H.H.H.H.H.H.H.H.H.H.H.H.H.H.H.H.H.H.H.H.H.H.H.H.H.H.H.H.H.H.H.H.H.H.H.H.H.H.",
"H.H.H.H.H.H.H.H.H.H.H.H.H.H.H.H.H.H.H.H.H.H.H.H.H.H.H.H.H.H.H.H.H.H.H.H.H.H.H.H.H.H.H.H.H.H.H.H.H.H.H.H.H.H.H.H.H.H.H.H.H.H.H.H.H.H.H.H.H.H.",
"H.H.H.H.H.H.H.H.H.H.H.H.H.H.H.H.H.H.H.H.H.H.H.H.H.H.H.H.H.H.H.H.H.H.H.H.H.H.H.H.H.H.H.H.H.H.H.H.H.H.H.H.H.H.H.H.H.H.H.H.H.H.H.H.H.H.H.H.H.H.",
"H.H.H.H.H.H.H.H.H.H.H.H.H.H.H.H.H.H.H.H.H.H.H.H.H.H.H.H.H.H.H.H.H.H.H.H.H.H.H.H.H.H.H.H.H.H.H.H.H.H.H.H.H.H.H.H.H.H.H.H.H.H.H.H.H.H.H.H.H.H.",
"H.H.H.H.H.H.H.H.H.H.H.H.H.H.H.H.H.H.H.H.H.H.H.H.H.H.H.H.    H.H.H.H.H.H.H.H.H.H.H.H.H.H.H.H.H.H.H.H.H.H.H.H.H.H.H.H.H.H.H.H.H.H.H.H.H.H.H.H.",
"H.H.H.H.H.H.H.H.H.H.H.H.H.H.H.H.H.H.H.H.H.H.H.H.H.H.H.  r E 0     H.H.H.H.H.H.H.H.H.H.H.H.H.H.H.H.H.H.H.H.H.H.H.H.H.H.H.H.H.H.H.H.H.H.H.H.H.",
"H.H.H.H.H.H.H.H.H.H.H.H.H.H.H.H.H.H.H.H.H.H.H.H.H.H.  W ' ' ' ^ W   H.H.H.H.H.H.H.H.H.H.H.H.H.H.H.H.H.H.H.H.H.H.H.H.H.H.H.H.H.H.H.H.H.H.H.H.",
"H.H.H.H.H.H.H.H.H.H.H.H.H.H.H.H.H.H.H.H.H.H.H.H.H.  ! G.G.G.G.' ' W   H.H.H.H.H.H.H.H.H.H.H.H.H.H.H.H.H.H.H.H.H.H.H.H.H.H.H.H.H.H.H.H.H.H.H.",
"H.H.H.H.H.H.H.H.H.H.H.H.H.H.H.H.H.H.H.H.H.H.H.H.H.  D.G.F.G.G.G.S.' W   H.H.H.H.H.H.H.H.H.H.H.H.H.H.H.H.H.H.H.H.H.H.H.H.H.H.H.H.H.H.H.H.H.H.",
"H.H.H.H.H.H.H.H.H.H.H.H.H.H.H.H.H.H.H.H.H.H.H.H.  w.D.D.D.F.F.G.G.G.' W   H.H.H.H.H.H.H.H.H.H.H.H.H.H.H.H.H.H.H.H.H.H.H.H.H.H.H.H.H.H.H.H.H.",
"H.H.H.H.H.H.H.H.H.H.H.H.H.H.H.H.H.H.H.H.H.H.H.H.  D.D.D.D.D.D.D.D.G.F.' D           H.H.H.H.H.H.H.H.H.H.H.H.H.H.H.H.H.H.H.H.H.H.H.H.H.H.H.H.",
"H.H.H.H.H.H.H.H.H.H.H.H.H.H.H.H.H.H.H.H.H.H.H.H.  D.D.D.D.D.D.D.D.D.G.S.` O - ' ' Q   H.H.H.H.H.H.H.H.H.H.H.H.H.H.H.H.H.H.H.H.H.H.H.H.H.H.H.",
"H.H.H.H.H.H.H.H.H.H.H.H.H.H.H.H.H.H.H.H.H.H.H.H.  Z.D.Z.D.D.Z.D.D.D.D.F.S.(   > ' / q H.H.H.H.H.H.H.H.H.H.H.H.H.H.H.H.H.H.H.H.H.H.H.H.H.H.H.",
"H.H.H.H.H.H.H.H.H.H.H.H.H.H.H.H.H.H.H.H.H.H.H.H., Z.Z.Z.D.Z.Z.D.D.D.D.D.D.G.' O   H L   H.H.H.H.H.H.H.H.H.H.H.H.H.H.H.H.H.H.H.H.H.H.H.H.H.H.",
"H.H.H.H.H.H.H.H.H.H.H.H.H.H.H.H.H.H.H.H.H.H.H.H.A c.Z.Z.Z.Z.Z.Z.Z.D.Z.D.Z.D.G.' Q .   H.H.H.H.H.H.H.H.H.H.H.H.H.H.H.H.H.H.H.H.H.H.H.H.H.H.H.",
"H.H.H.H.H.H.H.H.H.H.H.H.H.H.H.H.H.H.H.H.H.H.H.    8 x.C.Z.Z.Z.Z.Z.Z.Z.Z.Z.D.Z.F.k.' W .   H.H.H.H.H.H.H.H.H.H.H.H.H.H.H.H.H.H.H.H.H.H.H.H.H.",
"H.H.H.H.H.H.H.H.H.H.H.H.H.H.H.H.H.H.H.H.H.H.H.+ Y u     x.v.Z.Z.Z.Z.Z.Z.Z.Z.Z.Z.D.G.+.' W .   H.H.H.H.H.H.H.H.H.H.H.H.H.H.H.H.H.H.H.H.H.H.H.",
"H.H.H.H.H.H.H.H.H.H.H.H.H.H.H.H.H.H.H.H.H.H.    K F T U     7.x.Z.C.Z.Z.Z.Z.Z.Z.Z.Z.Z.+.' ' W     H.H.H.H.H.H.H.H.H.H.H.H.H.H.H.H.H.H.H.H.H.",
"H.H.H.H.H.H.H.H.H.H.H.H.H.H.H.H.H.H.H.H.H.  D e   . L L Y T @   * x.c.Z.C.Z.Z.Z.Z.Z.Z.Z.~ ' ' _ ;   H.H.H.H.H.H.H.H.H.H.H.H.H.H.H.H.H.H.H.H.",
"H.H.H.H.H.H.H.H.H.H.H.H.H.H.H.H.H.H.H.    W _ ' ' )     P L U T i X   z.x.c.Z.C.C.Z.Z.C.W W ~ ' ' S   H.H.H.H.H.H.H.H.H.H.H.H.H.H.H.H.H.H.H.",
"H.H.H.H.H.H.H.H.H.H.H.H.H.H.H.H.H.H.    W ' ' ' ' ' ' '     = L U T Y     A x.x.x.c.Z.n.W W W W L L   H.H.H.H.H.H.H.H.H.H.H.H.H.H.H.H.H.H.H.",
"H.H.H.H.H.H.H.H.H.H.H.H.H.H.H.H.H.H.  W ( ' ' ' ' ' ' ' ' ' J     L L Y Y =   o x.x.x.L L L L L L L y H.H.H.H.H.H.H.H.H.H.H.H.H.H.H.H.H.H.H.",
"H.H.H.H.H.H.H.H.H.H.H.H.H.H.H.H.H.  W W ' ' ' ' ' ' ' ' ' ' ' ' '   X i L Y T K     w.L L L L L L L - H.H.H.H.H.H.H.H.H.H.H.H.H.H.H.H.H.H.H.",
"H.H.H.H.H.H.H.H.H.H.H.H.H.H.H.H.H.  W W W ' ' ' ' ' ' ' ' ' / W W W W +   = L K T L     w L L L L L   H.H.H.H.H.H.H.H.H.H.H.H.H.H.H.H.H.H.H.",
"H.H.H.H.H.H.H.H.H.H.H.H.H.H.H.H.H.  W W W W W W W W W W W W W W W W W W W S     K K L T ;   K L y   H.H.H.H.H.H.H.H.H.H.H.H.H.H.H.H.H.H.H.H.",
"H.H.H.H.H.H.H.H.H.H.H.H.H.H.H.H.H.  F W W W W W W W W W W W W W W W W W W I L       u K K Y X     H.H.H.H.H.H.H.H.H.H.H.H.H.H.H.H.H.H.H.H.H.",
"H.H.H.H.H.H.H.H.H.H.H.H.H.H.H.H.H.H.  = L W W W W W W W W W W W W R U L y     *.#.#.:   + +   H.H.H.H.H.H.H.H.H.H.H.H.H.H.H.H.H.H.H.H.H.H.H.",
"H.H.H.H.H.H.H.H.H.H.H.H.H.H.H.H.H.H.H.H.    t L L L L L L L L L i .     a   #.#.#.#.#.#.}   H.H.H.H.H.H.H.H.H.H.H.H.H.H.H.H.H.H.H.H.H.H.H.H.",
"H.H.H.H.H.H.H.H.H.H.H.H.H.H.H.H.H.H.H.H.H.H.  o                 p o h #.#.  #.#.#.#.#.#.  H.H.H.H.H.H.H.H.H.H.H.H.H.H.H.H.H.H.H.H.H.H.H.H.H.",
"H.H.H.H.H.H.H.H.H.H.H.H.H.H.H.H.H.H.H.H.H.H.H.C V         V.m.  O.d.5         #.#.        H.H.H.H.H.H.H.H.H.H.H.H.H.H.H.H.H.H.H.H.H.H.H.H.H.",
"H.H.H.H.H.H.H.H.H.H.H.H.H.H.H.H.H.H.H.H.H.H.  * 5.% V.V.b.V.V.V.b.  N G.  m.V.f @.d V.G.  H.H.H.H.H.H.H.H.H.H.H.H.H.H.H.H.H.H.H.H.H.H.H.H.H.",
"H.H.H.H.H.H.H.H.H.H.H.H.H.H.H.H.H.H.H.H.H.H.  o & & 9.V.V.V.V.V.V.. & *     V.4.. h.h.V.S.  H.H.H.H.H.H.H.H.H.H.H.H.H.H.H.H.H.H.H.H.H.H.H.H.",
"H.H.H.H.H.H.H.H.H.H.H.H.H.H.H.H.H.H.H.H.H.H.e.5 & & V.V.k.u.f.V.V.  & &   d.V.V.M.h.h.h.V.  H.H.H.H.H.H.H.H.H.H.H.H.H.H.H.H.H.H.H.H.H.H.H.H.",
"H.H.H.H.H.H.H.H.H.H.H.H.H.H.H.H.H.H.H.H.H.  5 r.& o d.u.F.u.u.u.V.Z & &   4.V.V.h.h.h.h.V.  H.H.H.H.H.H.H.H.H.H.H.H.H.H.H.H.H.H.H.H.H.H.H.H.",
"H.H.H.H.H.H.H.H.H.H.H.H.H.H.H.H.H.H.H.H.H.H.  F.    @ u.u.u.u.u.  V.      V.V.B.h.h.h.V.V.  H.H.H.H.H.H.H.H.H.H.H.H.H.H.H.H.H.H.H.H.H.H.H.H.",
"H.H.H.H.H.H.H.H.H.H.H.H.H.H.H.H.H.H.H.H.H.H.  u.n.B.o u.u.u.u.y.V V.V.V.u.f.A.h.h.N.V.9.  H.H.H.H.H.H.H.H.H.H.H.H.H.H.H.H.H.H.H.H.H.H.H.H.H.",
"H.H.H.H.H.H.H.H.H.H.H.H.H.H.H.H.H.H.H.H.H.H.H.H.] [ h.h.X.[ &.l.V.V.B.j.u.u.s.[     H.H.H.H.H.H.H.H.H.H.H.H.H.H.H.H.H.H.H.H.H.H.H.H.H.H.H.H.",
"H.H.H.H.H.H.H.H.H.H.H.H.H.H.H.H.H.H.H.H.H.H.H.H.H.      7 h.h.h.h.g.o.o       H.  H.H.H.H.H.H.H.H.H.H.H.H.H.H.H.H.H.H.H.H.H.H.H.H.H.H.H.H.H.",
"H.H.H.H.H.H.H.H.H.H.H.H.H.H.H.H.H.H.H.H.H.H.H.H.H.H.H.H.        . & c >.>.    c.G.r.  H.H.H.H.H.H.H.H.H.H.H.H.H.H.H.H.H.H.H.H.H.H.H.H.H.H.H.",
"H.H.H.H.H.H.H.H.H.H.H.H.H.H.H.H.H.H.H.H.H.H.H.H.H.H.H.  z.1   G.G.  >.>.# G.A G.G.G.t.  H.H.H.H.H.H.H.H.H.H.H.H.H.H.H.H.H.H.H.H.H.H.H.H.H.H.",
"H.H.H.H.H.H.H.H.H.H.H.H.H.H.H.H.H.H.H.H.H.H.H.H.H.H.  z.r.:.z z z -.>.>.o G.c.C.G.G.G.N H.H.H.H.H.H.H.H.H.H.H.H.H.H.H.H.H.H.H.H.H.H.H.H.H.H.",
"H.H.H.H.H.H.H.H.H.H.H.H.H.H.H.H.H.H.H.H.H.H.H.H.H.H.  z.. 3 3 3 3 3 3 3 . G.  C.C.G.G.  H.H.H.H.H.H.H.H.H.H.H.H.H.H.H.H.H.H.H.H.H.H.H.H.H.H.",
"H.H.H.H.H.H.H.H.H.H.H.H.H.H.H.H.H.H.H.H.H.H.H.H.H.  a.    2.2.2.2.2.2.  m r.D.% C.v.o V.  H.H.H.H.H.H.H.H.H.H.H.H.H.H.H.H.H.H.H.H.H.H.H.H.H.",
"H.H.H.H.H.H.H.H.H.H.H.H.H.H.H.H.H.H.H.H.H.H.H.H.  8.d.a.  2.2.2.2.2.1.  >.:.  r.8 , M.V.V.  H.H.H.H.H.H.H.H.H.H.H.H.H.H.H.H.H.H.H.H.H.H.H.H.",
"H.H.H.H.H.H.H.H.H.H.H.H.H.H.H.H.H.H.H.H.H.H.H.H.  a.d.X.4 2.2.2.2.2.1.  >.>.>.=.    h.V.V.o H.H.H.H.H.H.H.H.H.H.H.H.H.H.H.H.H.H.H.H.H.H.H.H.",
"H.H.H.H.H.H.H.H.H.H.H.H.H.H.H.H.H.H.H.H.H.H.H.  a.a.d.f c 2.2.2.2.2.<.  >.>.>.=.    h.V.V.V.  H.H.H.H.H.H.H.H.H.H.H.H.H.H.H.H.H.H.H.H.H.H.H.",
"H.H.H.H.H.H.H.H.H.H.H.H.H.H.H.H.H.H.H.H.H.H.H.  a.d.p.< b 3.2.2.2.2.>.# >.>.=.=.  H.o.M.V.V.  H.H.H.H.H.H.H.H.H.H.H.H.H.H.H.H.H.H.H.H.H.H.H.",
"H.H.H.H.H.H.H.H.H.H.H.H.H.H.H.H.H.H.H.H.H.H.H.  z.d.a.g 4 #           >.>.;.=.=.    h.V.V.G.  H.H.H.H.H.H.H.H.H.H.H.H.H.H.H.H.H.H.H.H.H.H.H.",
"H.H.H.H.H.H.H.H.H.H.H.H.H.H.H.H.H.H.H.H.H.H.H.. d.d.d.$.  m =.=.-.-.=.=.:.>.:.$   o h.V.V.V.  H.H.H.H.H.H.H.H.H.H.H.H.H.H.H.H.H.H.H.H.H.H.H.",
"H.H.H.H.H.H.H.H.H.H.H.H.H.H.H.H.H.H.H.H.H.H.H.  %.p.$., 2   n =.=.=.=.k 2.>.>.=.H.   .h.j.g.  H.H.H.H.H.H.H.H.H.H.H.H.H.H.H.H.H.H.H.H.H.H.H.",
"H.H.H.H.H.H.H.H.H.H.H.H.H.H.H.H.H.H.H.H.H.H.H.H.  o B   x x X         n ,.>.>.=.  H.        H.H.H.H.H.H.H.H.H.H.H.H.H.H.H.H.H.H.H.H.H.H.H.H.",
"H.H.H.H.H.H.H.H.H.H.H.H.H.H.H.H.H.H.H.H.H.H.H.H.H.H.H.2 x x x l j H.H.>.:.>.>.=.  H.H.H.H.H.H.H.H.H.H.H.H.H.H.H.H.H.H.H.H.H.H.H.H.H.H.H.H.H.",
"H.H.H.H.H.H.H.H.H.H.H.H.H.H.H.H.H.H.H.H.H.H.H.H.H.H.    X j l l   H.H.c v b m m   H.H.H.H.H.H.H.H.H.H.H.H.H.H.H.H.H.H.H.H.H.H.H.H.H.H.H.H.H.",
"H.H.H.H.H.H.H.H.H.H.H.H.H.H.H.H.H.H.H.H.H.H.H.H.H.H.  q.z.0.      H.H.  C.Z.C.v.  H.H.H.H.H.H.H.H.H.H.H.H.H.H.H.H.H.H.H.H.H.H.H.H.H.H.H.H.H.",
"H.H.H.H.H.H.H.H.H.H.H.H.H.H.H.H.H.H.H.H.H.H.H.                            .       H.H.H.H.H.H.H.H.H.H.H.H.H.H.H.H.H.H.H.H.H.H.H.H.H.H.H.H.H.",
"H.H.H.H.H.H.H.H.H.H.H.H.H.H.H.H.H.H.H.H.H.H.  0.z.z.q.q.  0 G   C.G.F.C.C.  R W s   H.H.H.H.H.H.H.H.H.H.H.H.H.H.H.H.H.H.H.H.H.H.H.H.H.H.H.H.",
"H.H.H.H.H.H.H.H.H.H.H.H.H.H.H.H.H.H.H.H.H.  6.q.t.q.q.q.0.    C.D.F.C.C.C.x.  W C.  H.H.H.H.H.H.H.H.H.H.H.H.H.H.H.H.H.H.H.H.H.H.H.H.H.H.H.H.",
"H.H.H.H.H.H.H.H.H.H.H.H.H.H.H.H.H.H.H.H.H.  q.q.r.q.q.q.6.5.  C.C.C.C.C.C.x.A 9 D   H.H.H.H.H.H.H.H.H.H.H.H.H.H.H.H.H.H.H.H.H.H.H.H.H.H.H.H.",
"H.H.H.H.H.H.H.H.H.H.H.H.H.H.H.H.H.H.H.H.H.                                            H.H.H.H.H.H.H.H.H.H.H.H.H.H.H.H.H.H.H.H.H.H.H.H.H.H.H.",
"H.H.H.H.H.H.H.H.H.H.H.H.H.H.H.H.H.H.H.H.H.M q.z.q.q.q.q.q.6 z.C.G.C.C.C.C.C.C.C.x.M   H.H.H.H.H.H.H.H.H.H.H.H.H.H.H.H.H.H.H.H.H.H.H.H.H.H.H.",
"H.H.H.H.H.H.H.H.H.H.H.H.H.H.H.H.H.H.H.H.                                              H.H.H.H.H.H.H.H.H.H.H.H.H.H.H.H.H.H.H.H.H.H.H.H.H.H.H.",
"H.H.H.H.H.H.H.H.H.H.H.H.H.H.H.H.H.H.H.H.H.H.H.H.H.H.H.H.H.H.H.H.H.H.H.H.H.H.H.H.H.H.H.H.H.H.H.H.H.H.H.H.H.H.H.H.H.H.H.H.H.H.H.H.H.H.H.H.H.H.",
"H.H.H.H.H.H.H.H.H.H.H.H.H.H.H.H.H.H.H.H.H.H.H.H.H.H.H.H.H.H.H.H.H.H.H.H.H.H.H.H.H.H.H.H.H.H.H.H.H.H.H.H.H.H.H.H.H.H.H.H.H.H.H.H.H.H.H.H.H.H.",
"H.H.H.H.H.H.H.H.H.H.H.H.H.H.H.H.H.H.H.H.H.H.H.H.H.H.H.H.H.H.H.H.H.H.H.H.H.H.H.H.H.H.H.H.H.H.H.H.H.H.H.H.H.H.H.H.H.H.H.H.H.H.H.H.H.H.H.H.H.H.",
"H.H.H.H.H.H.H.H.H.H.H.H.H.H.H.H.H.H.H.H.H.H.H.H.H.H.H.H.H.H.H.H.H.H.H.H.H.H.H.H.H.H.H.H.H.H.H.H.H.H.H.H.H.H.H.H.H.H.H.H.H.H.H.H.H.H.H.H.H.H.",
"H.H.H.H.H.H.H.H.H.H.H.H.H.H.H.H.H.H.H.H.H.H.H.H.H.H.H.H.H.H.H.H.H.H.H.H.H.H.H.H.H.H.H.H.H.H.H.H.H.H.H.H.H.H.H.H.H.H.H.H.H.H.H.H.H.H.H.H.H.H.",
"H.H.H.H.H.H.H.H.H.H.H.H.H.H.H.H.H.H.H.H.H.H.H.H.H.H.H.H.H.H.H.H.H.H.H.H.H.H.H.H.H.H.H.H.H.H.H.H.H.H.H.H.H.H.H.H.H.H.H.H.H.H.H.H.H.H.H.H.H.H.",
"H.H.H.H.H.H.H.H.H.H.H.H.H.H.H.H.H.H.H.H.H.H.H.H.H.H.H.H.H.H.H.H.H.H.H.H.H.H.H.H.H.H.H.H.H.H.H.H.H.H.H.H.H.H.H.H.H.H.H.H.H.H.H.H.H.H.H.H.H.H.",
"H.H.H.H.H.H.H.H.H.H.H.H.H.H.H.H.H.H.H.H.H.H.H.H.H.H.H.H.H.H.H.H.H.H.H.H.H.H.H.H.H.H.H.H.H.H.H.H.H.H.H.H.H.H.H.H.H.H.H.H.H.H.H.H.H.H.H.H.H.H."
};
