/* XPM */
static char *result[] = {
/* columns rows colors chars-per-pixel */
"70 70 163 2 ",
"   c #000000",
".  c #0A0303",
"X  c #0B0B0B",
"o  c #080706",
"O  c #120202",
"+  c #190405",
"@  c #140F07",
"#  c #180D0D",
"$  c #16120E",
"%  c #050D14",
"&  c #09121B",
"*  c #1A1A1A",
"=  c #1C1A17",
"-  c #210607",
";  c #280507",
":  c #340000",
">  c #390B0E",
",  c #241F1A",
"<  c #0D1A28",
"1  c #071C32",
"2  c #112132",
"3  c #2C2C2C",
"4  c #342D27",
"5  c #37322D",
"6  c #3A3530",
"7  c #3F3C3A",
"8  c #450000",
"9  c #480000",
"0  c #580507",
"q  c #450D12",
"w  c #780000",
"e  c #67131A",
"r  c #79151C",
"t  c #672200",
"y  c #43332A",
"u  c #473A2C",
"i  c #58442F",
"p  c #5D4E3E",
"a  c #765728",
"s  c #0A2C4D",
"d  c #0B3055",
"f  c #1F3E5E",
"g  c #183048",
"h  c #203F5F",
"j  c #113E6B",
"k  c #1F405F",
"l  c #25496D",
"z  c #214060",
"x  c #274D73",
"c  c #2B547D",
"v  c #285077",
"b  c #4B4B4B",
"n  c #4B4844",
"m  c #534141",
"M  c #545453",
"N  c #615952",
"B  c #757575",
"V  c #800000",
"C  c #9C0000",
"Z  c #81141C",
"A  c #90161E",
"S  c #A20000",
"D  c #BE0000",
"F  c #A9161E",
"G  c #9D3300",
"H  c #831920",
"J  c #8D1B22",
"K  c #941B23",
"L  c #9D1D27",
"P  c #A31D26",
"I  c #A71E28",
"U  c #AA2028",
"Y  c #B3222B",
"T  c #CB0000",
"R  c #D50000",
"E  c #D80C07",
"W  c #DE1300",
"Q  c #E21B00",
"!  c #EC2D00",
"~  c #EE3300",
"^  c #F13800",
"/  c #D04500",
"(  c #EF4F00",
")  c #F94900",
"_  c #F64400",
"`  c #FE5400",
"'  c #FE6215",
"]  c #81654A",
"[  c #FE7F41",
"{  c #AF875F",
"}  c #918579",
"|  c #B49577",
" . c #C59446",
".. c #FE8B52",
"X. c #DAA24C",
"o. c #EDAE51",
"O. c #C5986B",
"+. c #C59F78",
"@. c #FEA578",
"#. c #F8CD68",
"$. c #2C5680",
"%. c #2E5A86",
"&. c #2F5D8B",
"*. c #30608F",
"=. c #326496",
"-. c #336699",
";. c #34699E",
":. c #376DA3",
">. c #3B75AF",
",. c #3E78B3",
"<. c #407CB7",
"1. c #9D9083",
"2. c #959595",
"3. c #999999",
"4. c gray53",
"5. c #AA9C8E",
"6. c #B1A294",
"7. c gray64",
"8. c #AFAFAF",
"9. c #AAA7A4",
"0. c #BDBDBD",
"q. c #BAB8B6",
"w. c #FF938E",
"e. c #FF9C92",
"r. c #EA8782",
"t. c #C5A688",
"y. c #C4AF9B",
"u. c #C5AE97",
"i. c #E7BA8C",
"p. c #FFB38E",
"a. c #FFA09C",
"s. c #E7BC91",
"d. c #C3ADAF",
"f. c #C5B2A0",
"g. c #CBBFBF",
"h. c #E4B0B0",
"j. c #FFB5B2",
"k. c #EFC296",
"l. c #FFCC99",
"z. c #D9C7B5",
"x. c #D8C6B4",
"c. c #FEC2A4",
"v. c #FFD3A7",
"b. c #FFD9B3",
"n. c #FFD7B8",
"m. c #C5C5C5",
"M. c #CCCCCC",
"N. c #DDDDDD",
"B. c #D5D5D5",
"V. c #D6CCCC",
"C. c #EDDAC6",
"Z. c #F9DDC9",
"A. c #FFDBD9",
"S. c #FEE2CB",
"D. c #FBE2C9",
"F. c #FFEAD5",
"G. c #FEE5D9",
"H. c #E6E6E6",
"J. c #ECECEC",
"K. c #F3F3F3",
"L. c #FEFEFE",
"P. c #FFF9F3",
"I. c None",
/* pixels */
"I.I.I.I.I.I.I.I.I.I.I.I.I.I.I.I.I.I.I.I.I.I.I.I.I.I.I.I.I.I.I.I.I.I.I.I.I.I.I.I.I.I.I.I.I.I.I.I.I.I.I.I.I.I.I.I.I.I.I.I.I.I.I.I.I.I.I.I.I.I.",
"I.I.I.I.I.I.I.I.I.I.I.I.I.I.I.I.I.I.I.I.I.I.I.I.I.I.I.I.I.I.I.I.I.I.I.I.I.I.I.I.I.I.I.I.I.I.I.I.I.I.I.I.I.I.I.I.I.I.I.I.I.I.I.I.I.I.I.I.I.I.",
"I.I.I.I.I.I.I.I.I.I.I.I.I.I.I.I.I.I.I.I.I.I.I.I.I.I.I.I.I.I.I.I.I.I.I.I.I.I.I.I.I.I.I.I.I.I.I.I.I.I.I.I.I.I.I.I.I.I.I.I.I.I.I.I.I.I.I.I.I.I.",
"I.I.I.I.I.I.I.I.I.I.I.I.I.I.I.I.I.I.I.I.I.I.I.I.I.I.I.I.I.I.I.I.I.I.I.I.I.I.I.I.I.I.I.I.I.I.I.I.I.I.I.I.I.I.I.I.I.I.I.I.I.I.I.I.I.I.I.I.I.I.",
"I.I.I.I.I.I.I.I.I.I.I.I.I.I.I.I.I.I.I.I.I.I.I.I.I.I.I.I.I.I.I.I.I.I.I.I.I.I.I.I.I.I.I.I.I.I.I.I.I.I.I.I.I.I.I.I.I.I.I.I.I.I.I.I.I.I.I.I.I.I.",
"I.I.I.I.I.I.I.I.I.I.I.I.I.I.I.I.I.I.I.I.I.I.I.I.I.I.I.I.I.I.I.I.I.I.I.I.I.I.I.I.I.I.I.I.I.I.I.I.I.I.I.I.I.I.I.I.I.I.I.I.I.I.I.I.I.I.I.I.I.I.",
"I.I.I.I.I.I.I.I.I.I.I.I.I.I.I.I.I.I.I.I.I.I.I.I.I.I.I.I.I.I.I.I.I.I.I.I.I.    . w :   I.I.I.I.I.I.I.I.I.I.I.I.I.I.I.I.I.I.I.I.I.I.I.I.I.I.I.",
"I.I.I.I.I.I.I.I.I.I.I.I.I.I.I.I.I.I.I.I.I.I.I.I.I.I.I.I.I.I.I.I.I.I.I.I.  V R ` ` ` R   I.I.I.I.I.I.I.I.I.I.I.I.I.I.I.I.I.I.I.I.I.I.I.I.I.I.",
"I.I.I.I.I.I.I.I.I.I.I.I.I.I.I.I.I.I.I.I.I.I.I.I.I.I.I.I.I.I.I.I.I.I.I.  R ` ` L.L.L.L.E   I.I.I.I.I.I.I.I.I.I.I.I.I.I.I.I.I.I.I.I.I.I.I.I.I.",
"I.I.I.I.I.I.I.I.I.I.I.I.I.I.I.I.I.I.I.I.I.I.I.I.I.I.I.I.I.I.I.I.I.I.  R ` ..L.L.L.L.K.K.  I.I.I.I.I.I.I.I.I.I.I.I.I.I.I.I.I.I.I.I.I.I.I.I.I.",
"I.I.I.I.I.I.I.I.I.I.I.I.I.I.I.I.I.I.I.I.I.I.I.I.I.I.I.I.I.I.I.I.I.  D ` c.L.L.L.K.K.K.L.V.  I.I.I.I.I.I.I.I.I.I.I.I.I.I.I.I.I.I.I.I.I.I.I.I.",
"I.I.I.I.I.I.I.I.I.I.I.I.I.I.I.I.I.I.I.I.I.I.I.I.I.I.I.I.          : _ p.L.K.K.K.K.K.K.K.K.  I.I.I.I.I.I.I.I.I.I.I.I.I.I.I.I.I.I.I.I.I.I.I.I.",
"I.I.I.I.I.I.I.I.I.I.I.I.I.I.I.I.I.I.I.I.I.I.I.I.I.I.I.  D ` ` S   Q @.L.K.K.K.K.K.K.K.J.K.  I.I.I.I.I.I.I.I.I.I.I.I.I.I.I.I.I.I.I.I.I.I.I.I.",
"I.I.I.I.I.I.I.I.I.I.I.I.I.I.I.I.I.I.I.I.I.I.I.I.I.I.I.. Q ` /   W @.L.K.K.K.K.K.K.K.K.K.K.o I.I.I.I.I.I.I.I.I.I.I.I.I.I.I.I.I.I.I.I.I.I.I.I.",
"I.I.I.I.I.I.I.I.I.I.I.I.I.I.I.I.I.I.I.I.I.I.I.I.I.I.  A R     ) G.K.K.K.K.K.J.J.K.K.J.J.J.m I.I.I.I.I.I.I.I.I.I.I.I.I.I.I.I.I.I.I.I.I.I.I.I.",
"I.I.I.I.I.I.I.I.I.I.I.I.I.I.I.I.I.I.I.I.I.I.I.I.I.I.I.    R ` L.K.K.K.J.J.K.J.K.J.J.J.J.H.g.  I.I.I.I.I.I.I.I.I.I.I.I.I.I.I.I.I.I.I.I.I.I.I.",
"I.I.I.I.I.I.I.I.I.I.I.I.I.I.I.I.I.I.I.I.I.I.I.I.I.    R ` [ L.K.K.J.J.J.J.J.J.J.J.J.J.M.7.    I.I.I.I.I.I.I.I.I.I.I.I.I.I.I.I.I.I.I.I.I.I.I.",
"I.I.I.I.I.I.I.I.I.I.I.I.I.I.I.I.I.I.I.I.I.I.I.    R ` ' L.J.J.J.J.J.J.J.J.J.J.J.J.M.3   O U O I.I.I.I.I.I.I.I.I.I.I.I.I.I.I.I.I.I.I.I.I.I.I.",
"I.I.I.I.I.I.I.I.I.I.I.I.I.I.I.I.I.I.I.I.I.    R ` ` ' K.J.J.J.J.J.J.J.J.H.J.N.M.    e Y K H ;   I.I.I.I.I.I.I.I.I.I.I.I.I.I.I.I.I.I.I.I.I.I.",
"I.I.I.I.I.I.I.I.I.I.I.I.I.I.I.I.I.I.I.I.  . ^ ` ` ~ J.J.J.J.J.J.J.H.H.H.M.B     P Y L L q   . 8   I.I.I.I.I.I.I.I.I.I.I.I.I.I.I.I.I.I.I.I.I.",
"I.I.I.I.I.I.I.I.I.I.I.I.I.I.I.I.I.I.I.  9 ` ` ^ R R J.J.H.J.H.J.N.M.M.X   ; Y Y L L .   t ` ` ~ R   I.I.I.I.I.I.I.I.I.I.I.I.I.I.I.I.I.I.I.I.",
"I.I.I.I.I.I.I.I.I.I.I.I.I.I.I.I.I.I.I.  L L R R R R h.H.H.M.M.M.m.    J Y L L K     ( ` ` ` ` ` ` R   I.I.I.I.I.I.I.I.I.I.I.I.I.I.I.I.I.I.I.",
"I.I.I.I.I.I.I.I.I.I.I.I.I.I.I.I.I.I.I.0 L L L L L L L M.M.M.7     U Y L L +   . ` ` ` ` ` ` ` ` ` ! R   I.I.I.I.I.I.I.I.I.I.I.I.I.I.I.I.I.I.",
"I.I.I.I.I.I.I.I.I.I.I.I.I.I.I.I.I.I.I.  L L L L L L L d.    q Y U L L     G ` ` ` ` ` ` ` ` ` ` ` ` R R   I.I.I.I.I.I.I.I.I.I.I.I.I.I.I.I.I.",
"I.I.I.I.I.I.I.I.I.I.I.I.I.I.I.I.I.I.I.  L L L L L r     J Y H L e     R R R R ) ` ` ` ` ` ` ` ` ` ^ R R   I.I.I.I.I.I.I.I.I.I.I.I.I.I.I.I.I.",
"I.I.I.I.I.I.I.I.I.I.I.I.I.I.I.I.I.I.I.I.  r L L   - U U H H .   : R R R R R R R R R R R Q Q E R R R R R   I.I.I.I.I.I.I.I.I.I.I.I.I.I.I.I.I.",
"I.I.I.I.I.I.I.I.I.I.I.I.I.I.I.I.I.I.I.I.I.      U J H r       L I R R R R R R R R R R R R R R R R R R L   I.I.I.I.I.I.I.I.I.I.I.I.I.I.I.I.I.",
"I.I.I.I.I.I.I.I.I.I.I.I.I.I.I.I.I.I.I.I.I.I.I.  - >   X o.o.#.    K P F R R R R R R R R R R R R R F Z   I.I.I.I.I.I.I.I.I.I.I.I.I.I.I.I.I.I.",
"I.I.I.I.I.I.I.I.I.I.I.I.I.I.I.I.I.I.I.I.I.I.I.I.  a o.o.o.o.o.o.. @     - A P P L L P P L L L L +     I.I.I.I.I.I.I.I.I.I.I.I.I.I.I.I.I.I.I.",
"I.I.I.I.I.I.I.I.I.I.I.I.I.I.I.I.I.I.I.I.I.I.I.I.I.  o.o.o.o.o.o.  o.o. .  X                     I.I.I.I.I.I.I.I.I.I.I.I.I.I.I.I.I.I.I.I.I.I.",
"I.I.I.I.I.I.I.I.I.I.I.I.I.I.I.I.I.I.I.I.I.I.I.I.I.        o.o.        7 C.X.  5.F.        6.9.I.I.I.I.I.I.I.I.I.I.I.I.I.I.I.I.I.I.I.I.I.I.I.",
"I.I.I.I.I.I.I.I.I.I.I.I.I.I.I.I.I.I.I.I.I.I.I.I.I.  L.F.5 X. .C.C.  L.3.  N F.F.F.1.F.F.o m.3 I.I.I.I.I.I.I.I.I.I.I.I.I.I.I.I.I.I.I.I.I.I.I.",
"I.I.I.I.I.I.I.I.I.I.I.I.I.I.I.I.I.I.I.I.I.I.I.I.  P.F.l.l.@ 5 F.    * *   F.F.F.F.F.F.x.* * o   I.I.I.I.I.I.I.I.I.I.I.I.I.I.I.I.I.I.I.I.I.I.",
"I.I.I.I.I.I.I.I.I.I.I.I.I.I.I.I.I.I.I.I.I.I.I.I.  F.l.l.l.S.F.F.D.. * *   F.F.S.e.Z.F.F.* * , 9.I.I.I.I.I.I.I.I.I.I.I.I.I.I.I.I.I.I.I.I.I.I.",
"I.I.I.I.I.I.I.I.I.I.I.I.I.I.I.I.I.I.I.I.I.I.I.I.  F.l.l.l.l.F.F.}   * * n F.w.w.w.L.w.z.X * q.M   I.I.I.I.I.I.I.I.I.I.I.I.I.I.I.I.I.I.I.I.I.",
"I.I.I.I.I.I.I.I.I.I.I.I.I.I.I.I.I.I.I.I.I.I.I.I.  F.F.l.l.l.F.F.F.      F.  w.w.w.w.w..     L.  I.I.I.I.I.I.I.I.I.I.I.I.I.I.I.I.I.I.I.I.I.I.",
"I.I.I.I.I.I.I.I.I.I.I.I.I.I.I.I.I.I.I.I.I.I.I.I.I.  z.F.b.l.l.A.j.w.C.F.F.5 w.w.w.w.w.  z.a.w.  I.I.I.I.I.I.I.I.I.I.I.I.I.I.I.I.I.I.I.I.I.I.",
"I.I.I.I.I.I.I.I.I.I.I.I.I.I.I.I.I.I.I.I.I.I.I.I.I.I.I.I.    s.e.w.w.n.F.F.F.l.u   4 i.l.s.r.# I.I.I.I.I.I.I.I.I.I.I.I.I.I.I.I.I.I.I.I.I.I.I.",
"I.I.I.I.I.I.I.I.I.I.I.I.I.I.I.I.I.I.I.I.I.I.I.I.I.I.I.I.I.I.        p k.l.l.l.l.l.|       I.I.I.I.I.I.I.I.I.I.I.I.I.I.I.I.I.I.I.I.I.I.I.I.I.",
"I.I.I.I.I.I.I.I.I.I.I.I.I.I.I.I.I.I.I.I.I.I.I.I.I.I.I.  M L.4.o   ;.$.<             I.I.I.I.I.I.I.I.I.I.I.I.I.I.I.I.I.I.I.I.I.I.I.I.I.I.I.I.",
"I.I.I.I.I.I.I.I.I.I.I.I.I.I.I.I.I.I.I.I.I.I.I.I.I.I.I.2.L.L.L.3 L.< =.=.  L.L.  & m.  I.I.I.I.I.I.I.I.I.I.I.I.I.I.I.I.I.I.I.I.I.I.I.I.I.I.I.",
"I.I.I.I.I.I.I.I.I.I.I.I.I.I.I.I.I.I.I.I.I.I.I.I.I.I.b L.L.L.H.B.L.X -.=.l 2 2 2 =.0.m.  I.I.I.I.I.I.I.I.I.I.I.I.I.I.I.I.I.I.I.I.I.I.I.I.I.I.",
"I.I.I.I.I.I.I.I.I.I.I.I.I.I.I.I.I.I.I.I.I.I.I.I.I.    L.L.H.H.  L.o h f f f f h f X m.  I.I.I.I.I.I.I.I.I.I.I.I.I.I.I.I.I.I.I.I.I.I.I.I.I.I.",
"I.I.I.I.I.I.I.I.I.I.I.I.I.I.I.I.I.I.I.I.I.I.I.I.I.  F.  H.H.* J.N.h   >.,.,.,.,.,.    f.  I.I.I.I.I.I.I.I.I.I.I.I.I.I.I.I.I.I.I.I.I.I.I.I.I.",
"I.I.I.I.I.I.I.I.I.I.I.I.I.I.I.I.I.I.I.I.I.I.I.I.  F.F.S.  n 0.o %.=.  ;.:.:.:.:.:.  f.f.f.  I.I.I.I.I.I.I.I.I.I.I.I.I.I.I.I.I.I.I.I.I.I.I.I.",
"I.I.I.I.I.I.I.I.I.I.I.I.I.I.I.I.I.I.I.I.I.I.I.I.6 F.F.l.    v -.-.-.  :.>.>.>.>.,.< { f.f.o I.I.I.I.I.I.I.I.I.I.I.I.I.I.I.I.I.I.I.I.I.I.I.I.",
"I.I.I.I.I.I.I.I.I.I.I.I.I.I.I.I.I.I.I.I.I.I.I.  F.F.S.l.    c =.=.-.  :.>.>.>.>.>.k i u.f.f.  I.I.I.I.I.I.I.I.I.I.I.I.I.I.I.I.I.I.I.I.I.I.I.",
"I.I.I.I.I.I.I.I.I.I.I.I.I.I.I.I.I.I.I.I.I.I.I.  F.F.b.u I.  $.%.;.-.% -.>.>.>.>.,.x , +.f.f.  I.I.I.I.I.I.I.I.I.I.I.I.I.I.I.I.I.I.I.I.I.I.I.",
"I.I.I.I.I.I.I.I.I.I.I.I.I.I.I.I.I.I.I.I.I.I.I.X L.F.F.s.    $.$.=.-.=.            g $ t.f.m.= I.I.I.I.I.I.I.I.I.I.I.I.I.I.I.I.I.I.I.I.I.I.I.",
"I.I.I.I.I.I.I.I.I.I.I.I.I.I.I.I.I.I.I.I.I.I.I.  F.F.F.l.    & =.=.=.$.%.&.&.%.$.$.  O.f.f.f.4 I.I.I.I.I.I.I.I.I.I.I.I.I.I.I.I.I.I.I.I.I.I.I.",
"I.I.I.I.I.I.I.I.I.I.I.I.I.I.I.I.I.I.I.I.I.I.I.  l.v.l.,   I.$.-.=.,.g %.$.$.$.$.  & $ O.u.t.  I.I.I.I.I.I.I.I.I.I.I.I.I.I.I.I.I.I.I.I.I.I.I.",
"I.I.I.I.I.I.I.I.I.I.I.I.I.I.I.I.I.I.I.I.I.I.I.I.        I.  $.-.=.;.v           j j   ] y   I.I.I.I.I.I.I.I.I.I.I.I.I.I.I.I.I.I.I.I.I.I.I.I.",
"I.I.I.I.I.I.I.I.I.I.I.I.I.I.I.I.I.I.I.I.I.I.I.I.I.I.I.I.I.  $.=.=.-.-.I.I.s d j j j 1 I.I.I.I.I.I.I.I.I.I.I.I.I.I.I.I.I.I.I.I.I.I.I.I.I.I.I.",
"I.I.I.I.I.I.I.I.I.I.I.I.I.I.I.I.I.I.I.I.I.I.I.I.I.I.I.I.I.  $.v v l z I.I.  d d s o     I.I.I.I.I.I.I.I.I.I.I.I.I.I.I.I.I.I.I.I.I.I.I.I.I.I.",
"I.I.I.I.I.I.I.I.I.I.I.I.I.I.I.I.I.I.I.I.I.I.I.I.I.I.I.I.I.  N.H.J.H.  I.I.      9.m.8.  I.I.I.I.I.I.I.I.I.I.I.I.I.I.I.I.I.I.I.I.I.I.I.I.I.I.",
"I.I.I.I.I.I.I.I.I.I.I.I.I.I.I.I.I.I.I.I.I.I.I.I.I.I.I.I.I.                                    I.I.I.I.I.I.I.I.I.I.I.I.I.I.I.I.I.I.I.I.I.I.I.",
"I.I.I.I.I.I.I.I.I.I.I.I.I.I.I.I.I.I.I.I.I.I.I.I.I.I.I.I.  y R T   H.H.L.L.H.  C 0 . 8.8.m.m.7.  I.I.I.I.I.I.I.I.I.I.I.I.I.I.I.I.I.I.I.I.I.I.",
"I.I.I.I.I.I.I.I.I.I.I.I.I.I.I.I.I.I.I.I.I.I.I.I.I.I.I.I.  H.R   M.H.H.H.L.J.H.    7.8.8.8.0.8.3.  I.I.I.I.I.I.I.I.I.I.I.I.I.I.I.I.I.I.I.I.I.",
"I.I.I.I.I.I.I.I.I.I.I.I.I.I.I.I.I.I.I.I.I.I.I.I.I.I.I.I.  C 8 B M.H.H.H.H.H.H.  2.3.8.8.8.8.8.8.  I.I.I.I.I.I.I.I.I.I.I.I.I.I.I.I.I.I.I.I.I.",
"I.I.I.I.I.I.I.I.I.I.I.I.I.I.I.I.I.I.I.I.I.I.I.I.I.I.I.                                            I.I.I.I.I.I.I.I.I.I.I.I.I.I.I.I.I.I.I.I.I.",
"I.I.I.I.I.I.I.I.I.I.I.I.I.I.I.I.I.I.I.I.I.I.I.I.I.I.I.  b M.H.H.H.H.H.H.H.L.J.m.3 8.8.8.8.8.m.8.b I.I.I.I.I.I.I.I.I.I.I.I.I.I.I.I.I.I.I.I.I.",
"I.I.I.I.I.I.I.I.I.I.I.I.I.I.I.I.I.I.I.I.I.I.I.I.I.I.I.                                              I.I.I.I.I.I.I.I.I.I.I.I.I.I.I.I.I.I.I.I.",
"I.I.I.I.I.I.I.I.I.I.I.I.I.I.I.I.I.I.I.I.I.I.I.I.I.I.I.I.I.I.I.I.I.I.I.I.I.I.I.I.I.I.I.I.I.I.I.I.I.I.I.I.I.I.I.I.I.I.I.I.I.I.I.I.I.I.I.I.I.I.",
"I.I.I.I.I.I.I.I.I.I.I.I.I.I.I.I.I.I.I.I.I.I.I.I.I.I.I.I.I.I.I.I.I.I.I.I.I.I.I.I.I.I.I.I.I.I.I.I.I.I.I.I.I.I.I.I.I.I.I.I.I.I.I.I.I.I.I.I.I.I.",
"I.I.I.I.I.I.I.I.I.I.I.I.I.I.I.I.I.I.I.I.I.I.I.I.I.I.I.I.I.I.I.I.I.I.I.I.I.I.I.I.I.I.I.I.I.I.I.I.I.I.I.I.I.I.I.I.I.I.I.I.I.I.I.I.I.I.I.I.I.I.",
"I.I.I.I.I.I.I.I.I.I.I.I.I.I.I.I.I.I.I.I.I.I.I.I.I.I.I.I.I.I.I.I.I.I.I.I.I.I.I.I.I.I.I.I.I.I.I.I.I.I.I.I.I.I.I.I.I.I.I.I.I.I.I.I.I.I.I.I.I.I.",
"I.I.I.I.I.I.I.I.I.I.I.I.I.I.I.I.I.I.I.I.I.I.I.I.I.I.I.I.I.I.I.I.I.I.I.I.I.I.I.I.I.I.I.I.I.I.I.I.I.I.I.I.I.I.I.I.I.I.I.I.I.I.I.I.I.I.I.I.I.I.",
"I.I.I.I.I.I.I.I.I.I.I.I.I.I.I.I.I.I.I.I.I.I.I.I.I.I.I.I.I.I.I.I.I.I.I.I.I.I.I.I.I.I.I.I.I.I.I.I.I.I.I.I.I.I.I.I.I.I.I.I.I.I.I.I.I.I.I.I.I.I.",
"I.I.I.I.I.I.I.I.I.I.I.I.I.I.I.I.I.I.I.I.I.I.I.I.I.I.I.I.I.I.I.I.I.I.I.I.I.I.I.I.I.I.I.I.I.I.I.I.I.I.I.I.I.I.I.I.I.I.I.I.I.I.I.I.I.I.I.I.I.I.",
"I.I.I.I.I.I.I.I.I.I.I.I.I.I.I.I.I.I.I.I.I.I.I.I.I.I.I.I.I.I.I.I.I.I.I.I.I.I.I.I.I.I.I.I.I.I.I.I.I.I.I.I.I.I.I.I.I.I.I.I.I.I.I.I.I.I.I.I.I.I."
};
