/* XPM */
static char *result[] = {
/* columns rows colors chars-per-pixel */
"70 70 163 2 ",
"   c #000000",
".  c #0A0101",
"X  c #0D0A05",
"o  c #030609",
"O  c #0C0B0B",
"+  c #04080C",
"@  c #110E0D",
"#  c #140405",
"$  c #15110B",
"%  c #19120C",
"&  c #020910",
"*  c #09121C",
"=  c gray7",
"-  c #1B1B1B",
";  c #1E1010",
":  c #260605",
">  c #310000",
",  c #3B0A0F",
"<  c #20180B",
"1  c #241916",
"2  c #22201D",
"3  c #0A1520",
"4  c #09243F",
"5  c #15293D",
"6  c #132638",
"7  c #282726",
"8  c #3A2824",
"9  c #343434",
"0  c gray23",
"q  c #400000",
"w  c #570B0E",
"e  c #560C10",
"r  c #561015",
"t  c #7B0000",
"y  c #720000",
"u  c #611218",
"i  c #74141B",
"p  c #453F39",
"a  c #432929",
"s  c #4E4033",
"d  c #1A354F",
"f  c #0B2E52",
"g  c #0B3156",
"h  c #1D3C5A",
"j  c #1B3652",
"k  c #092746",
"l  c #113E6B",
"z  c #24476A",
"x  c #284E74",
"c  c #2B547D",
"v  c #4A4A4A",
"b  c #505050",
"n  c #6B5B4B",
"m  c #635A52",
"M  c #6A6156",
"N  c #79624A",
"B  c #616161",
"V  c #6A6A6A",
"C  c #797877",
"Z  c #7E7E7E",
"A  c #850000",
"S  c #8A0000",
"D  c #9C0000",
"F  c #83151C",
"G  c #AD0000",
"H  c #A10200",
"J  c #BE0000",
"K  c #A03500",
"L  c #821920",
"P  c #8C1A23",
"I  c #971C25",
"U  c #9D1D27",
"Y  c #A21E27",
"T  c #A61F29",
"R  c #AD212A",
"E  c #B3212B",
"W  c #C30101",
"Q  c #C90001",
"!  c #C90608",
"~  c #D50000",
"^  c #DB0B00",
"/  c #D40A00",
"(  c #DD1000",
")  c #E21A00",
"_  c #D23300",
"`  c #EA2A00",
"'  c #EC3000",
"]  c #916B31",
"[  c #A77B3A",
"{  c #A87D3B",
"}  c #E64C00",
"|  c #F44000",
" . c #FE5400",
".. c #FF5C0C",
"X. c #FE742F",
"o. c #A53841",
"O. c #997C5F",
"+. c #807E7B",
"@. c #D87D78",
"#. c #AE803B",
"$. c #998B7E",
"%. c #BE9368",
"&. c #BE9B78",
"*. c #FF8B51",
"=. c #DBA14B",
"-. c #E6A94E",
";. c #EDAE51",
":. c #C5986B",
">. c #C29669",
",. c #CBA27A",
"<. c #F7C15F",
"1. c #2C5680",
"2. c #2F5D8C",
"3. c #305F90",
"4. c #306292",
"5. c #336699",
"6. c #34699E",
"7. c #366CA2",
"8. c #3B75AF",
"9. c #4885C2",
"0. c #828282",
"q. c #8D8C8B",
"w. c gray61",
"e. c #A6988B",
"r. c #AFAFAF",
"t. c #A4A4A4",
"y. c #BDBDBD",
"u. c #B7B7B7",
"i. c #FF938E",
"p. c #C5A78A",
"a. c #D6AB80",
"s. c #C5AE97",
"d. c #C5B29E",
"f. c #FDA997",
"g. c #E3B78C",
"h. c #C5B2A0",
"j. c #FFB0AC",
"k. c #FFBAB5",
"l. c #FFCC99",
"z. c #D8C6B4",
"x. c #FFD5AB",
"c. c #FFDEBD",
"v. c #C5C5C5",
"b. c #CCCCCC",
"n. c #D2D2D2",
"m. c gray86",
"M. c #E6D4C0",
"N. c #F1DDC9",
"B. c #FEDCC9",
"V. c #E0DEDC",
"C. c #FCE5CF",
"Z. c #FFE2C5",
"A. c #FDE5D0",
"S. c #FFEAD5",
"D. c #FFECD9",
"F. c #E6E6E6",
"G. c #ECECEC",
"H. c #FFEDEC",
"J. c #FFF6EC",
"K. c #F3F3F3",
"L. c #FEFEFE",
"P. c #F8F6F4",
"I. c None",
/* pixels */
"I.I.I.I.I.I.I.I.I.I.I.I.I.I.I.I.I.I.I.I.I.I.I.I.I.I.I.I.I.I.I.I.I.I.I.I.I.I.I.I.I.I.I.I.I.I.I.I.I.I.I.I.I.I.I.I.I.I.I.I.I.I.I.I.I.I.I.I.I.I.",
"I.I.I.I.I.I.I.I.I.I.I.I.I.I.I.I.I.I.I.I.I.I.I.I.I.I.I.I.I.I.I.I.I.I.I.I.I.I.I.I.I.I.I.I.I.I.I.I.I.I.I.I.I.I.I.I.I.I.I.I.I.I.I.I.I.I.I.I.I.I.",
"I.I.I.I.I.I.I.I.I.I.I.I.I.I.I.I.I.I.I.I.I.I.I.I.I.I.I.I.I.I.I.I.I.I.I.I.I.I.I.I.I.I.I.I.I.I.I.I.I.I.I.I.I.I.I.I.I.I.I.I.I.I.I.I.I.I.I.I.I.I.",
"I.I.I.I.I.I.I.I.I.I.I.I.I.I.I.I.I.I.I.I.I.I.I.I.I.I.I.I.I.I.I.I.I.I.I.I.I.I.I.I.I.I.I.I.I.I.I.I.I.I.I.I.I.I.I.I.I.I.I.I.I.I.I.I.I.I.I.I.I.I.",
"I.I.I.I.I.I.I.I.I.I.I.I.I.I.I.I.I.I.I.I.I.I.I.I.I.I.I.I.I.I.I.I.I.I.I.I.I.I.I.I.I.I.I.I.I.I.I.I.I.I.I.I.I.I.I.I.I.I.I.I.I.I.I.I.I.I.I.I.I.I.",
"I.I.I.I.I.I.I.I.I.I.I.I.I.I.I.I.I.I.I.I.I.I.I.I.I.I.I.I.I.I.I.I.I.I.I.I.I.I.I.I.I.I.I.I.I.I.I.I.I.I.I.I.I.I.I.I.I.I.I.I.I.I.I.I.I.I.I.I.I.I.",
"I.I.I.I.I.I.I.I.I.I.I.I.I.I.I.I.I.I.I.I.I.I.I.I.I.I.I.    I.I.I.I.I.I.I.I.I.I.I.I.I.I.I.I.I.I.I.I.I.I.I.I.I.I.I.I.I.I.I.I.I.I.I.I.I.I.I.I.I.",
"I.I.I.I.I.I.I.I.I.I.I.I.I.I.I.I.I.I.I.I.I.I.I.I.I.I.  t W A     I.I.I.I.I.I.I.I.I.I.I.I.I.I.I.I.I.I.I.I.I.I.I.I.I.I.I.I.I.I.I.I.I.I.I.I.I.I.",
"I.I.I.I.I.I.I.I.I.I.I.I.I.I.I.I.I.I.I.I.I.I.I.I.I.o ~  . . .' ~     I.I.I.I.I.I.I.I.I.I.I.I.I.I.I.I.I.I.I.I.I.I.I.I.I.I.I.I.I.I.I.I.I.I.I.I.",
"I.I.I.I.I.I.I.I.I.I.I.I.I.I.I.I.I.I.I.I.I.I.I.I.  J P.L.L.L.*. .~     I.I.I.I.I.I.I.I.I.I.I.I.I.I.I.I.I.I.I.I.I.I.I.I.I.I.I.I.I.I.I.I.I.I.I.",
"I.I.I.I.I.I.I.I.I.I.I.I.I.I.I.I.I.I.I.I.I.I.I.I.  P.P.P.L.L.L.L. .~   I.I.I.I.I.I.I.I.I.I.I.I.I.I.I.I.I.I.I.I.I.I.I.I.I.I.I.I.I.I.I.I.I.I.I.",
"I.I.I.I.I.I.I.I.I.I.I.I.I.I.I.I.I.I.I.I.I.I.I.I.a P.P.P.P.K.L.L.L. .~   I.I.    I.I.I.I.I.I.I.I.I.I.I.I.I.I.I.I.I.I.I.I.I.I.I.I.I.I.I.I.I.I.",
"I.I.I.I.I.I.I.I.I.I.I.I.I.I.I.I.I.I.I.I.I.I.I.  G.K.K.P.K.K.K.P.L.L. .~     ~ /     I.I.I.I.I.I.I.I.I.I.I.I.I.I.I.I.I.I.I.I.I.I.I.I.I.I.I.I.",
"I.I.I.I.I.I.I.I.I.I.I.I.I.I.I.I.I.I.I.I.I.I.I.  K.G.K.K.K.K.K.K.K.K.L. .~    . . .  I.I.I.I.I.I.I.I.I.I.I.I.I.I.I.I.I.I.I.I.I.I.I.I.I.I.I.I.",
"I.I.I.I.I.I.I.I.I.I.I.I.I.I.I.I.I.I.I.I.I.I.I.  G.K.G.K.K.G.K.K.K.K.K.L. .Q   _ ~ ~   I.I.I.I.I.I.I.I.I.I.I.I.I.I.I.I.I.I.I.I.I.I.I.I.I.I.I.",
"I.I.I.I.I.I.I.I.I.I.I.I.I.I.I.I.I.I.I.I.I.I.I.o G.G.G.G.K.G.G.K.K.G.K.K.L.X.`     u   I.I.I.I.I.I.I.I.I.I.I.I.I.I.I.I.I.I.I.I.I.I.I.I.I.I.I.",
"I.I.I.I.I.I.I.I.I.I.I.I.I.I.I.I.I.I.I.I.I.I.I.  b.G.G.G.G.G.G.G.G.K.K.G.G.K.L. .^ >     I.I.I.I.I.I.I.I.I.I.I.I.I.I.I.I.I.I.I.I.I.I.I.I.I.I.",
"I.I.I.I.I.I.I.I.I.I.I.I.I.I.I.I.I.I.I.I.I.I.I.  7 b.m.G.G.G.G.G.G.G.G.G.G.K.G.L.B. .) y     I.I.I.I.I.I.I.I.I.I.I.I.I.I.I.I.I.I.I.I.I.I.I.I.",
"I.I.I.I.I.I.I.I.I.I.I.I.I.I.I.I.I.I.I.I.I.I.  R i     t.n.G.G.F.G.G.G.G.G.G.G.G.G.L... .` A   I.I.I.I.I.I.I.I.I.I.I.I.I.I.I.I.I.I.I.I.I.I.I.",
"I.I.I.I.I.I.I.I.I.I.I.I.I.I.I.I.I.I.I.I.I.I.  L L E R X     b.m.G.F.G.G.G.G.G.G.G.G.G. . . .) .   I.I.I.I.I.I.I.I.I.I.I.I.I.I.I.I.I.I.I.I.I.",
"I.I.I.I.I.I.I.I.I.I.I.I.I.I.I.I.I.I.I.I.    G     I U R E U     V b.n.G.F.G.F.G.G.G.G.~ ~  . . .G   I.I.I.I.I.I.I.I.I.I.I.I.I.I.I.I.I.I.I.I.",
"I.I.I.I.I.I.I.I.I.I.I.I.I.I.I.I.I.I.I.    ~  . . ..   : U U R R ,     v.b.b.V.F.G.F.G.~ ~ ~ ~ ^ U e   I.I.I.I.I.I.I.I.I.I.I.I.I.I.I.I.I.I.I.",
"I.I.I.I.I.I.I.I.I.I.I.I.I.I.I.I.I.I.  > ~  . . . . . .K     F U U E Y     7 b.b.b.b.b.I U U U U U U   I.I.I.I.I.I.I.I.I.I.I.I.I.I.I.I.I.I.I.",
"I.I.I.I.I.I.I.I.I.I.I.I.I.I.I.I.I.  > ~  . . . . . . . . . .:   . U Y T E i     t.b.o.U U U U U U U   I.I.I.I.I.I.I.I.I.I.I.I.I.I.I.I.I.I.I.",
"I.I.I.I.I.I.I.I.I.I.I.I.I.I.I.I.I.  ~ ~  . . . . . . . . . . . .}     r U U E T #   . U U U U U Y F   I.I.I.I.I.I.I.I.I.I.I.I.I.I.I.I.I.I.I.",
"I.I.I.I.I.I.I.I.I.I.I.I.I.I.I.I.  J ~ ~  . . . . . . . . .| ~ ~ ~ ~ ~ q     P L P E L   o r U U F   I.I.I.I.I.I.I.I.I.I.I.I.I.I.I.I.I.I.I.I.",
"I.I.I.I.I.I.I.I.I.I.I.I.I.I.I.I.  Q ~ ~ ~ ~ ~ ( ^ ~ ~ ~ ~ ~ ~ ~ ~ ~ ~ ~ ~ ~     : L F E E   .     I.I.I.I.I.I.I.I.I.I.I.I.I.I.I.I.I.I.I.I.I.",
"I.I.I.I.I.I.I.I.I.I.I.I.I.I.I.I.I.  ~ ~ ~ ~ ~ ~ ~ ~ ~ ~ ~ ~ ~ ~ ~ ~ ~ ~ I U   X #.    L F . I.I.I.I.I.I.I.I.I.I.I.I.I.I.I.I.I.I.I.I.I.I.I.I.",
"I.I.I.I.I.I.I.I.I.I.I.I.I.I.I.I.I.    U ~ ~ ~ ~ ~ ~ ~ ~ ~ ~ ~ ~ ! U U w     ;.<.;.;.;.X     I.I.I.I.I.I.I.I.I.I.I.I.I.I.I.I.I.I.I.I.I.I.I.I.",
"I.I.I.I.I.I.I.I.I.I.I.I.I.I.I.I.I.I.I.    i U U U U U U U U I w       ] ;.< ;.;.;.;.;.;.  I.I.I.I.I.I.I.I.I.I.I.I.I.I.I.I.I.I.I.I.I.I.I.I.I.",
"I.I.I.I.I.I.I.I.I.I.I.I.I.I.I.I.I.I.I.I.I.                  $ [   2 % -.;.  ;.;.;.=.{ ;.  I.I.I.I.I.I.I.I.I.I.I.I.I.I.I.I.I.I.I.I.I.I.I.I.I.",
"I.I.I.I.I.I.I.I.I.I.I.I.I.I.I.I.I.I.I.I.I.I.  L.C O     o S.z.    S.L.0.      ;.{ o q.    I.I.I.I.I.I.I.I.I.I.I.I.I.I.I.I.I.I.I.I.I.I.I.I.I.",
"I.I.I.I.I.I.I.I.I.I.I.I.I.I.I.I.I.I.I.I.I.I.  V.L.  S.S.M.S.S.S.A.  v -   S.C.%   S.S.S.7   I.I.I.I.I.I.I.I.I.I.I.I.I.I.I.I.I.I.I.I.I.I.I.I.",
"I.I.I.I.I.I.I.I.I.I.I.I.I.I.I.I.I.I.I.I.I.I.  C - O S.S.S.S.S.D.D.= - -   N.S.S.  l.l.Z.D.  I.I.I.I.I.I.I.I.I.I.I.I.I.I.I.I.I.I.I.I.I.I.I.I.",
"I.I.I.I.I.I.I.I.I.I.I.I.I.I.I.I.I.I.I.I.I.  q.C - O S.S.k.i.f.D.S.. - -   $.S.S.l.l.l.l.S.  I.I.I.I.I.I.I.I.I.I.I.I.I.I.I.I.I.I.I.I.I.I.I.I.",
"I.I.I.I.I.I.I.I.I.I.I.I.I.I.I.I.I.I.I.I.I.  9 P.- o z.i.H.i.i.i.S.p - -   S.S.S.l.l.l.S.S.  I.I.I.I.I.I.I.I.I.I.I.I.I.I.I.I.I.I.I.I.I.I.I.I.",
"I.I.I.I.I.I.I.I.I.I.I.I.I.I.I.I.I.I.I.I.I.I.  J.    1 i.i.i.i.i.  S.    m A.S.l.l.l.x.S.  I.I.I.I.I.I.I.I.I.I.I.I.I.I.I.I.I.I.I.I.I.I.I.I.I.",
"I.I.I.I.I.I.I.I.I.I.I.I.I.I.I.I.I.I.I.I.I.I.  i.j.A.  i.i.i.i.8 N.S.S.C.i.i.i.l.l.      I.I.I.I.I.I.I.I.I.I.I.I.I.I.I.I.I.I.I.I.I.I.I.I.I.I.",
"I.I.I.I.I.I.I.I.I.I.I.I.I.I.I.I.I.I.I.I.I.I.I.; @.&.l.l.,.,.l.C.S.c.l.l.f.f.@     I.I.I.I.I.I.I.I.I.I.I.I.I.I.I.I.I.I.I.I.I.I.I.I.I.I.I.I.I.",
"I.I.I.I.I.I.I.I.I.I.I.I.I.I.I.I.I.I.I.I.I.I.I.I.I.      1 O.g.&.N 8                 I.I.I.I.I.I.I.I.I.I.I.I.I.I.I.I.I.I.I.I.I.I.I.I.I.I.I.I.",
"I.I.I.I.I.I.I.I.I.I.I.I.I.I.I.I.I.I.I.I.I.I.I.I.I.I.I.  b o   y.v.= 6.5.4.v.  L.L.L.  I.I.I.I.I.I.I.I.I.I.I.I.I.I.I.I.I.I.I.I.I.I.I.I.I.I.I.",
"I.I.I.I.I.I.I.I.I.I.I.I.I.I.I.I.I.I.I.I.I.I.I.I.I.I.  v.v.2.  9 9 3 5.5.  L.w.K.L.L.L.  I.I.I.I.I.I.I.I.I.I.I.I.I.I.I.I.I.I.I.I.I.I.I.I.I.I.",
"I.I.I.I.I.I.I.I.I.I.I.I.I.I.I.I.I.I.I.I.I.I.I.I.I.I.b v.0 5.5.5.5.5.5.5.b L.Z F.K.L.L.    I.I.I.I.I.I.I.I.I.I.I.I.I.I.I.I.I.I.I.I.I.I.I.I.I.",
"I.I.I.I.I.I.I.I.I.I.I.I.I.I.I.I.I.I.I.I.I.I.I.I.I.  - v.  + + o o + +     L.  F.F.G.9 M.@   I.I.I.I.I.I.I.I.I.I.I.I.I.I.I.I.I.I.I.I.I.I.I.I.",
"I.I.I.I.I.I.I.I.I.I.I.I.I.I.I.I.I.I.I.I.I.I.I.I.  h.h.    h h h h h j   5.  L.o n.v.n D.S.  I.I.I.I.I.I.I.I.I.I.I.I.I.I.I.I.I.I.I.I.I.I.I.I.",
"I.I.I.I.I.I.I.I.I.I.I.I.I.I.I.I.I.I.I.I.I.I.I.  h.h.d.:.o 8.8.8.8.8.7.  5.5.h       l.C.S.S.  I.I.I.I.I.I.I.I.I.I.I.I.I.I.I.I.I.I.I.I.I.I.I.",
"I.I.I.I.I.I.I.I.I.I.I.I.I.I.I.I.I.I.I.I.I.I.  $.h.h.:.  h 8.8.8.8.8.5.  5.5.5.1.  I.  l.S.S.e.  I.I.I.I.I.I.I.I.I.I.I.I.I.I.I.I.I.I.I.I.I.I.",
"I.I.I.I.I.I.I.I.I.I.I.I.I.I.I.I.I.I.I.I.I.I.  h.h.s.:.  d 9.8.8.8.8.5.+ 5.5.3.1.  I.  l.S.S.D.  I.I.I.I.I.I.I.I.I.I.I.I.I.I.I.I.I.I.I.I.I.I.",
"I.I.I.I.I.I.I.I.I.I.I.I.I.I.I.I.I.I.I.I.I.I.7 v.d.p.O   5.6 7.7.6.6.z 5.5.5.1.1.  I.  l.S.S.L.  I.I.I.I.I.I.I.I.I.I.I.I.I.I.I.I.I.I.I.I.I.I.",
"I.I.I.I.I.I.I.I.I.I.I.I.I.I.I.I.I.I.I.I.I.I.M d.d.d.:.  * 5.4.2.3.3.5.5.5.5.2.5   I.  l.S.S.S.  I.I.I.I.I.I.I.I.I.I.I.I.I.I.I.I.I.I.I.I.I.I.",
"I.I.I.I.I.I.I.I.I.I.I.I.I.I.I.I.I.I.I.I.I.I.  p.d.:.%.    1.1.c c 1.1.6 8.5.5.1.  I.  s l.x.l.  I.I.I.I.I.I.I.I.I.I.I.I.I.I.I.I.I.I.I.I.I.I.",
"I.I.I.I.I.I.I.I.I.I.I.I.I.I.I.I.I.I.I.I.I.I.    %.>.    l     6 c 1.1.5.7.5.5.1.  I.I.  n     I.I.I.I.I.I.I.I.I.I.I.I.I.I.I.I.I.I.I.I.I.I.I.",
"I.I.I.I.I.I.I.I.I.I.I.I.I.I.I.I.I.I.I.I.I.I.I.I.    I.4 l l l k o     5.5.5.5.1.  I.I.I.I.I.I.I.I.I.I.I.I.I.I.I.I.I.I.I.I.I.I.I.I.I.I.I.I.I.",
"I.I.I.I.I.I.I.I.I.I.I.I.I.I.I.I.I.I.I.I.I.I.I.I.I.I.    & f g g   I.I.z x c c c   I.I.I.I.I.I.I.I.I.I.I.I.I.I.I.I.I.I.I.I.I.I.I.I.I.I.I.I.I.",
"I.I.I.I.I.I.I.I.I.I.I.I.I.I.I.I.I.I.I.I.I.I.I.I.I.I.  u.v.0.      I.I.  m.m.n.t.  I.I.I.I.I.I.I.I.I.I.I.I.I.I.I.I.I.I.I.I.I.I.I.I.I.I.I.I.I.",
"I.I.I.I.I.I.I.I.I.I.I.I.I.I.I.I.I.I.I.I.I.I.I.                                    I.I.I.I.I.I.I.I.I.I.I.I.I.I.I.I.I.I.I.I.I.I.I.I.I.I.I.I.I.",
"I.I.I.I.I.I.I.I.I.I.I.I.I.I.I.I.I.I.I.I.I.I.  w.v.v.r.r.  t H   F.L.K.F.F.  ~ ~ % I.I.I.I.I.I.I.I.I.I.I.I.I.I.I.I.I.I.I.I.I.I.I.I.I.I.I.I.I.",
"I.I.I.I.I.I.I.I.I.I.I.I.I.I.I.I.I.I.I.I.I.  w.r.v.r.r.r.w.    F.P.P.F.F.F.b.  ~ F.  I.I.I.I.I.I.I.I.I.I.I.I.I.I.I.I.I.I.I.I.I.I.I.I.I.I.I.I.",
"I.I.I.I.I.I.I.I.I.I.I.I.I.I.I.I.I.I.I.I.I.  r.r.r.r.r.r.w.0.  F.F.F.F.F.F.b.0 S D   I.I.I.I.I.I.I.I.I.I.I.I.I.I.I.I.I.I.I.I.I.I.I.I.I.I.I.I.",
"I.I.I.I.I.I.I.I.I.I.I.I.I.I.I.I.I.I.I.I.I.                      o                   I.I.I.I.I.I.I.I.I.I.I.I.I.I.I.I.I.I.I.I.I.I.I.I.I.I.I.I.",
"I.I.I.I.I.I.I.I.I.I.I.I.I.I.I.I.I.I.I.I.I.B r.v.r.r.r.r.r.= v.G.L.F.F.F.F.F.F.F.b.= I.I.I.I.I.I.I.I.I.I.I.I.I.I.I.I.I.I.I.I.I.I.I.I.I.I.I.I.",
"I.I.I.I.I.I.I.I.I.I.I.I.I.I.I.I.I.I.I.I.                                            I.I.I.I.I.I.I.I.I.I.I.I.I.I.I.I.I.I.I.I.I.I.I.I.I.I.I.I.",
"I.I.I.I.I.I.I.I.I.I.I.I.I.I.I.I.I.I.I.I.I.I.I.I.I.I.I.I.I.I.I.I.I.I.I.I.I.I.I.I.I.I.I.I.I.I.I.I.I.I.I.I.I.I.I.I.I.I.I.I.I.I.I.I.I.I.I.I.I.I.",
"I.I.I.I.I.I.I.I.I.I.I.I.I.I.I.I.I.I.I.I.I.I.I.I.I.I.I.I.I.I.I.I.I.I.I.I.I.I.I.I.I.I.I.I.I.I.I.I.I.I.I.I.I.I.I.I.I.I.I.I.I.I.I.I.I.I.I.I.I.I.",
"I.I.I.I.I.I.I.I.I.I.I.I.I.I.I.I.I.I.I.I.I.I.I.I.I.I.I.I.I.I.I.I.I.I.I.I.I.I.I.I.I.I.I.I.I.I.I.I.I.I.I.I.I.I.I.I.I.I.I.I.I.I.I.I.I.I.I.I.I.I.",
"I.I.I.I.I.I.I.I.I.I.I.I.I.I.I.I.I.I.I.I.I.I.I.I.I.I.I.I.I.I.I.I.I.I.I.I.I.I.I.I.I.I.I.I.I.I.I.I.I.I.I.I.I.I.I.I.I.I.I.I.I.I.I.I.I.I.I.I.I.I.",
"I.I.I.I.I.I.I.I.I.I.I.I.I.I.I.I.I.I.I.I.I.I.I.I.I.I.I.I.I.I.I.I.I.I.I.I.I.I.I.I.I.I.I.I.I.I.I.I.I.I.I.I.I.I.I.I.I.I.I.I.I.I.I.I.I.I.I.I.I.I.",
"I.I.I.I.I.I.I.I.I.I.I.I.I.I.I.I.I.I.I.I.I.I.I.I.I.I.I.I.I.I.I.I.I.I.I.I.I.I.I.I.I.I.I.I.I.I.I.I.I.I.I.I.I.I.I.I.I.I.I.I.I.I.I.I.I.I.I.I.I.I.",
"I.I.I.I.I.I.I.I.I.I.I.I.I.I.I.I.I.I.I.I.I.I.I.I.I.I.I.I.I.I.I.I.I.I.I.I.I.I.I.I.I.I.I.I.I.I.I.I.I.I.I.I.I.I.I.I.I.I.I.I.I.I.I.I.I.I.I.I.I.I.",
"I.I.I.I.I.I.I.I.I.I.I.I.I.I.I.I.I.I.I.I.I.I.I.I.I.I.I.I.I.I.I.I.I.I.I.I.I.I.I.I.I.I.I.I.I.I.I.I.I.I.I.I.I.I.I.I.I.I.I.I.I.I.I.I.I.I.I.I.I.I."
};
