/* XPM */
static char *result[] = {
/* columns rows colors chars-per-pixel */
"70 70 167 2 ",
"   c #000000",
".  c #0A0302",
"X  c #020509",
"o  c #080808",
"O  c #140305",
"+  c #160505",
"@  c #10100F",
"#  c #08121B",
"$  c #05121E",
"%  c #1A1A1A",
"&  c #181211",
"*  c #2C0000",
"=  c #2E080B",
"-  c #241C0D",
";  c #211D19",
":  c #241C15",
">  c #34281C",
",  c #0D1B28",
"<  c #071C32",
"1  c #0F202F",
"2  c #0A253F",
"3  c #102131",
"4  c #2A2A2A",
"5  c #362D23",
"6  c #3C3228",
"7  c #343434",
"8  c #3C3B3B",
"9  c #4A0000",
"0  c #43090C",
"q  c #4B0A0E",
"w  c #460000",
"e  c #5A0000",
"r  c #5D1F00",
"t  c #490D12",
"y  c #591015",
"u  c #7A0000",
"i  c #621219",
"p  c #6F1419",
"a  c #7D181E",
"s  c #443318",
"d  c #553E1D",
"f  c #4A362A",
"g  c #4B3E31",
"h  c #46403A",
"j  c #5B4632",
"k  c #0A2C4D",
"l  c #152B41",
"z  c #1A334C",
"x  c #0B3055",
"c  c #1F3F5F",
"v  c #113E6B",
"b  c #224264",
"n  c #24486B",
"m  c #284F76",
"M  c #29537C",
"N  c #285077",
"B  c #4A4846",
"V  c #5A5A5A",
"C  c #6A5541",
"Z  c #6C5D5D",
"A  c #776048",
"S  c #727272",
"D  c #9C0000",
"F  c #8A151D",
"G  c #A00000",
"H  c #A90000",
"J  c #B30000",
"K  c #BF0000",
"L  c #BB0D11",
"P  c #AE131A",
"I  c #831920",
"U  c #8E1A22",
"Y  c #961C24",
"T  c #9D1D27",
"R  c #A31C25",
"E  c #A41E28",
"W  c #AE212A",
"Q  c #B3222B",
"!  c #CA0400",
"~  c #D50000",
"^  c #DB0C00",
"/  c #DF1300",
"(  c #E82600",
")  c #ED3000",
"_  c #F03600",
"`  c #CD2D2D",
"'  c #82632F",
"]  c #9A7134",
"[  c #E44C00",
"{  c #F64300",
"}  c #FB4D00",
"|  c #FE5400",
" . c #FE5E0F",
".. c #FE6418",
"X. c #915351",
"o. c #8B6B4B",
"O. c #D27975",
"+. c #AA835C",
"@. c #8F8377",
"#. c #92867A",
"$. c #998A7C",
"%. c #A58668",
"&. c #D19A48",
"*. c #DCA24B",
"=. c #EDAE51",
"-. c #C5986C",
";. c #C59B71",
":. c #C3A17E",
">. c #FFD26B",
",. c #2C5680",
"<. c #2D5985",
"1. c #2E5D8C",
"2. c #326496",
"3. c #336699",
"4. c #34699E",
"5. c #376EA4",
"6. c #386FA6",
"7. c #3B75AF",
"8. c gray54",
"9. c #9B8F82",
"0. c #9F9184",
"q. c #9A9A9A",
"w. c #9B9595",
"e. c #A7998B",
"r. c #A4A4A4",
"t. c #AFAFAF",
"y. c #B2B2B2",
"u. c gray",
"i. c #FF938E",
"p. c #D5AA80",
"a. c #C4AD97",
"s. c #C5B09C",
"d. c #EBBC8D",
"f. c #FFB38D",
"g. c #FFA29B",
"h. c #FEBE9E",
"j. c #C5B2A0",
"k. c #CFBEAD",
"l. c #FFB3B0",
"z. c #EFC090",
"x. c #FFCC99",
"c. c #FBC597",
"v. c #C0C0BF",
"b. c #FFD1A3",
"n. c #E1CFBC",
"m. c #FFC3BD",
"M. c #C5C5C5",
"N. c #CCCCCC",
"B. c #D3D3D3",
"V. c gray86",
"C. c #FFCCCA",
"Z. c #F1DECA",
"A. c #E7D7D7",
"S. c #FDE1C5",
"D. c #FFE6CC",
"F. c #F7E2CE",
"G. c #FBE7D2",
"H. c #FFEAD5",
"J. c #FFE1DF",
"K. c #E6E6E6",
"L. c #ECECEC",
"P. c #F8EAE7",
"I. c #FFF2E5",
"U. c #F3F3F3",
"Y. c #FEFEFE",
"T. c #FFF9F4",
"R. c None",
/* pixels */
"R.R.R.R.R.R.R.R.R.R.R.R.R.R.R.R.R.R.R.R.R.R.R.R.R.R.R.R.R.R.R.R.R.R.R.R.R.R.R.R.R.R.R.R.R.R.R.R.R.R.R.R.R.R.R.R.R.R.R.R.R.R.R.R.R.R.R.R.R.R.",
"R.R.R.R.R.R.R.R.R.R.R.R.R.R.R.R.R.R.R.R.R.R.R.R.R.R.R.R.R.R.R.R.R.R.R.R.R.R.R.R.R.R.R.R.R.R.R.R.R.R.R.R.R.R.R.R.R.R.R.R.R.R.R.R.R.R.R.R.R.R.",
"R.R.R.R.R.R.R.R.R.R.R.R.R.R.R.R.R.R.R.R.R.R.R.R.R.R.R.R.R.R.R.R.R.R.R.R.R.R.R.R.R.R.R.R.R.R.R.R.R.R.R.R.R.R.R.R.R.R.R.R.R.R.R.R.R.R.R.R.R.R.",
"R.R.R.R.R.R.R.R.R.R.R.R.R.R.R.R.R.R.R.R.R.R.R.R.R.R.R.R.R.R.R.R.R.R.R.R.R.R.R.R.R.R.R.R.R.R.R.R.R.R.R.R.R.R.R.R.R.R.R.R.R.R.R.R.R.R.R.R.R.R.",
"R.R.R.R.R.R.R.R.R.R.R.R.R.R.R.R.R.R.R.R.R.R.R.R.R.R.R.R.R.R.R.R.R.R.R.R.R.R.R.R.R.R.R.R.R.R.R.R.R.R.R.R.R.R.R.R.R.R.R.R.R.R.R.R.R.R.R.R.R.R.",
"R.R.R.R.R.R.R.R.R.R.R.R.R.R.R.R.R.R.R.R.R.R.R.R.R.R.R.R.R.R.R.R.R.R.R.R.R.R.R.      R.R.R.R.R.R.R.R.R.R.R.R.R.R.R.R.R.R.R.R.R.R.R.R.R.R.R.R.",
"R.R.R.R.R.R.R.R.R.R.R.R.R.R.R.R.R.R.R.R.R.R.R.R.R.R.R.R.R.R.R.R.R.R.R.R.R.  . J ~ G   R.R.R.R.R.R.R.R.R.R.R.R.R.R.R.R.R.R.R.R.R.R.R.R.R.R.R.",
"R.R.R.R.R.R.R.R.R.R.R.R.R.R.R.R.R.R.R.R.R.R.R.R.R.R.R.R.R.R.R.R.R.R.R.    ~ { | .. .~   R.R.R.R.R.R.R.R.R.R.R.R.R.R.R.R.R.R.R.R.R.R.R.R.R.R.",
"R.R.R.R.R.R.R.R.R.R.R.R.R.R.R.R.R.R.R.R.R.R.R.R.R.R.R.R.R.R.R.R.R.R.    ~ | f.Y.Y.Y.U.`   R.R.R.R.R.R.R.R.R.R.R.R.R.R.R.R.R.R.R.R.R.R.R.R.R.",
"R.R.R.R.R.R.R.R.R.R.R.R.R.R.R.R.R.R.R.R.R.R.R.R.R.R.R.R.R.R.R.R.R.R.  ~ | Y.Y.Y.Y.T.Y.U.  R.R.R.R.R.R.R.R.R.R.R.R.R.R.R.R.R.R.R.R.R.R.R.R.R.",
"R.R.R.R.R.R.R.R.R.R.R.R.R.R.R.R.R.R.R.R.R.R.R.R.R.R.R.R.R.R.R.R.R.  ~ | Y.Y.Y.U.U.U.U.U.Z R.R.R.R.R.R.R.R.R.R.R.R.R.R.R.R.R.R.R.R.R.R.R.R.R.",
"R.R.R.R.R.R.R.R.R.R.R.R.R.R.R.R.R.R.R.R.R.R.R.R.R.R.R.R.          ~ | Y.Y.T.U.U.U.U.U.U.U.  R.R.R.R.R.R.R.R.R.R.R.R.R.R.R.R.R.R.R.R.R.R.R.R.",
"R.R.R.R.R.R.R.R.R.R.R.R.R.R.R.R.R.R.R.R.R.R.R.R.R.R.R.  ) | |   e | Y.U.U.U.U.U.U.U.U.U.L.  R.R.R.R.R.R.R.R.R.R.R.R.R.R.R.R.R.R.R.R.R.R.R.R.",
"R.R.R.R.R.R.R.R.R.R.R.R.R.R.R.R.R.R.R.R.R.R.R.R.R.R.  H _ |   . | Y.U.U.U.U.L.U.U.U.U.L.L.  R.R.R.R.R.R.R.R.R.R.R.R.R.R.R.R.R.R.R.R.R.R.R.R.",
"R.R.R.R.R.R.R.R.R.R.R.R.R.R.R.R.R.R.R.R.R.R.R.R.R.R.  R u   9 | Y.U.U.U.U.U.L.U.U.L.U.L.L.  R.R.R.R.R.R.R.R.R.R.R.R.R.R.R.R.R.R.R.R.R.R.R.R.",
"R.R.R.R.R.R.R.R.R.R.R.R.R.R.R.R.R.R.R.R.R.R.R.R.R.R.    * ( | Y.U.L.L.U.L.U.L.L.L.L.L.L.N.7 R.R.R.R.R.R.R.R.R.R.R.R.R.R.R.R.R.R.R.R.R.R.R.R.",
"R.R.R.R.R.R.R.R.R.R.R.R.R.R.R.R.R.R.R.R.R.R.R.R.R.  * / | T.U.U.U.L.L.L.L.L.L.L.L.L.V.N.      R.R.R.R.R.R.R.R.R.R.R.R.R.R.R.R.R.R.R.R.R.R.R.",
"R.R.R.R.R.R.R.R.R.R.R.R.R.R.R.R.R.R.R.R.R.R.R.  + ^ | h.Y.L.L.L.L.L.L.L.L.K.L.L.B.q.    U Q . R.R.R.R.R.R.R.R.R.R.R.R.R.R.R.R.R.R.R.R.R.R.R.",
"R.R.R.R.R.R.R.R.R.R.R.R.R.R.R.R.R.R.R.R.R.    ~ | | h.L.L.L.L.L.L.L.L.L.L.K.N.7   O Q W I I     R.R.R.R.R.R.R.R.R.R.R.R.R.R.R.R.R.R.R.R.R.R.",
"R.R.R.R.R.R.R.R.R.R.R.R.R.R.R.R.R.R.R.R.  u | | | ^ L.L.L.L.K.L.L.K.K.B.N.    y Q E T U     ! !   R.R.R.R.R.R.R.R.R.R.R.R.R.R.R.R.R.R.R.R.R.",
"R.R.R.R.R.R.R.R.R.R.R.R.R.R.R.R.R.R.R.  J | | ^ ~ ~ L.L.L.K.L.K.N.N.r.    T Q T T t   . | | | | ~     R.R.R.R.R.R.R.R.R.R.R.R.R.R.R.R.R.R.R.",
"R.R.R.R.R.R.R.R.R.R.R.R.R.R.R.R.R.R.R.  T T ~ ~ ~ ~ A.K.B.N.N.N.%   . Q Q T T .   r | | | | | | | ~     R.R.R.R.R.R.R.R.R.R.R.R.R.R.R.R.R.R.",
"R.R.R.R.R.R.R.R.R.R.R.R.R.R.R.R.R.R.  F T T T T T T T N.N.N.    i Q E T Y     [ | | | | | | | | | { ~   R.R.R.R.R.R.R.R.R.R.R.R.R.R.R.R.R.R.",
"R.R.R.R.R.R.R.R.R.R.R.R.R.R.R.R.R.R.R.q T T T T T T T w.    W Q T T t   . | | | | | | | | | | | | | ~ ~   R.R.R.R.R.R.R.R.R.R.R.R.R.R.R.R.R.",
"R.R.R.R.R.R.R.R.R.R.R.R.R.R.R.R.R.R.R.  T T T T T =   O W W F T     w ~ ~ ~ ~ / } | | | | | | | | ~ ~ ~   R.R.R.R.R.R.R.R.R.R.R.R.R.R.R.R.R.",
"R.R.R.R.R.R.R.R.R.R.R.R.R.R.R.R.R.R.R.R.  p T p   y Q Y I a     ! ~ ~ ~ ~ ~ ~ ~ ~ ~ ~ ~ ~ ~ ~ ~ ~ ~ ~ ~   R.R.R.R.R.R.R.R.R.R.R.R.R.R.R.R.R.",
"R.R.R.R.R.R.R.R.R.R.R.R.R.R.R.R.R.R.R.R.R.      W I I t       T T ~ ~ ~ ~ ~ ~ ~ ~ ~ ~ ~ ~ ~ ~ ~ ~ ~ ~ 0   R.R.R.R.R.R.R.R.R.R.R.R.R.R.R.R.R.",
"R.R.R.R.R.R.R.R.R.R.R.R.R.R.R.R.R.R.R.R.R.R.R.  O O   d =.=.>.    0 T E L ~ ~ ~ ~ ~ ~ ~ ~ ~ ~ ~ P T     R.R.R.R.R.R.R.R.R.R.R.R.R.R.R.R.R.R.",
"R.R.R.R.R.R.R.R.R.R.R.R.R.R.R.R.R.R.R.R.R.R.R.R.  &.=.=.=.=.=.=.  ]       0 Y R T T T T T T F O     R.R.R.R.R.R.R.R.R.R.R.R.R.R.R.R.R.R.R.R.",
"R.R.R.R.R.R.R.R.R.R.R.R.R.R.R.R.R.R.R.R.R.R.R.R.R.o =.=.=.=.=.=.  =.=.: h ' s               B   R.R.R.R.R.R.R.R.R.R.R.R.R.R.R.R.R.R.R.R.R.R.",
"R.R.R.R.R.R.R.R.R.R.R.R.R.R.R.R.R.R.R.R.R.R.R.R.R.        =.=.      o 8 @.s   H.H.        B 8 R.R.R.R.R.R.R.R.R.R.R.R.R.R.R.R.R.R.R.R.R.R.R.",
"R.R.R.R.R.R.R.R.R.R.R.R.R.R.R.R.R.R.R.R.R.R.R.R.R.  T.H.B *.- H.n.  T.7   G.H.H.H.H.H.G.% V @   R.R.R.R.R.R.R.R.R.R.R.R.R.R.R.R.R.R.R.R.R.R.",
"R.R.R.R.R.R.R.R.R.R.R.R.R.R.R.R.R.R.R.R.R.R.R.R.  I.D.x.x.  k.H.  X % %   H.H.H.H.H.H.0.% % o   R.R.R.R.R.R.R.R.R.R.R.R.R.R.R.R.R.R.R.R.R.R.",
"R.R.R.R.R.R.R.R.R.R.R.R.R.R.R.R.R.R.R.R.R.R.R.R.  H.x.x.x.G.H.H.#.  % %   H.H.g.i.m.H.Z.% % ; r.  R.R.R.R.R.R.R.R.R.R.R.R.R.R.R.R.R.R.R.R.R.",
"R.R.R.R.R.R.R.R.R.R.R.R.R.R.R.R.R.R.R.R.R.R.R.R.  H.x.x.x.x.H.H.e.  % % 0.F.i.i.i.J.i.$.X % v.o R.R.R.R.R.R.R.R.R.R.R.R.R.R.R.R.R.R.R.R.R.R.",
"R.R.R.R.R.R.R.R.R.R.R.R.R.R.R.R.R.R.R.R.R.R.R.R.  F.H.x.x.x.S.H.H.      H.  i.i.i.i.i.@     L.  R.R.R.R.R.R.R.R.R.R.R.R.R.R.R.R.R.R.R.R.R.R.",
"R.R.R.R.R.R.R.R.R.R.R.R.R.R.R.R.R.R.R.R.R.R.R.R.R.  #.H.S.x.x.P.l.i.H.G.H.0.X.i.i.i.O.: H.C.i.  R.R.R.R.R.R.R.R.R.R.R.R.R.R.R.R.R.R.R.R.R.R.",
"R.R.R.R.R.R.R.R.R.R.R.R.R.R.R.R.R.R.R.R.R.R.R.R.R.R.R.R.    g c.i.i.x.S.H.H.S.z.:.d.x.x.; & R.R.R.R.R.R.R.R.R.R.R.R.R.R.R.R.R.R.R.R.R.R.R.R.",
"R.R.R.R.R.R.R.R.R.R.R.R.R.R.R.R.R.R.R.R.R.R.R.R.R.R.R.R.R.  R.  X   X 6 p.x.x.x.%.o     R.R.R.R.R.R.R.R.R.R.R.R.R.R.R.R.R.R.R.R.R.R.R.R.R.R.",
"R.R.R.R.R.R.R.R.R.R.R.R.R.R.R.R.R.R.R.R.R.R.R.R.R.R.R.  V.Y.Y.    3.3.<.8.7 % X     R.R.R.R.R.R.R.R.R.R.R.R.R.R.R.R.R.R.R.R.R.R.R.R.R.R.R.R.",
"R.R.R.R.R.R.R.R.R.R.R.R.R.R.R.R.R.R.R.R.R.R.R.R.R.R.  N.Y.Y.T.y.Y.o 4.3.X Y.Y.  , M.  R.R.R.R.R.R.R.R.R.R.R.R.R.R.R.R.R.R.R.R.R.R.R.R.R.R.R.",
"R.R.R.R.R.R.R.R.R.R.R.R.R.R.R.R.R.R.R.R.R.R.R.R.R.R.V Y.Y.Y.L.V.Y.@ 3.3.1.M M M 3.y.M.  R.R.R.R.R.R.R.R.R.R.R.R.R.R.R.R.R.R.R.R.R.R.R.R.R.R.",
"R.R.R.R.R.R.R.R.R.R.R.R.R.R.R.R.R.R.R.R.R.R.R.R.R.R.  U.Y.K.K.  Y.X # # # # # # #   M.  R.R.R.R.R.R.R.R.R.R.R.R.R.R.R.R.R.R.R.R.R.R.R.R.R.R.",
"R.R.R.R.R.R.R.R.R.R.R.R.R.R.R.R.R.R.R.R.R.R.R.R.R.  H.; y.K.  Y.8.<.  6.7.7.7.7.7.    j.  R.R.R.R.R.R.R.R.R.R.R.R.R.R.R.R.R.R.R.R.R.R.R.R.R.",
"R.R.R.R.R.R.R.R.R.R.R.R.R.R.R.R.R.R.R.R.R.R.R.R.  H.H.H.A 4 r.  2.3.  6.7.7.7.7.7.  j.j.$.  R.R.R.R.R.R.R.R.R.R.R.R.R.R.R.R.R.R.R.R.R.R.R.R.",
"R.R.R.R.R.R.R.R.R.R.R.R.R.R.R.R.R.R.R.R.R.R.R.R.X H.H.x.    M 3.3.3.  5.7.7.7.7.7.l +.j.j.  R.R.R.R.R.R.R.R.R.R.R.R.R.R.R.R.R.R.R.R.R.R.R.R.",
"R.R.R.R.R.R.R.R.R.R.R.R.R.R.R.R.R.R.R.R.R.R.R.  G.H.H.x.    ,.3.3.3.  5.7.7.7.7.7.c f s.j.s.  R.R.R.R.R.R.R.R.R.R.R.R.R.R.R.R.R.R.R.R.R.R.R.",
"R.R.R.R.R.R.R.R.R.R.R.R.R.R.R.R.R.R.R.R.R.R.R.  H.H.H.c.    ,.,.3.3.# 3.7.7.7.7.7.M > s.j.j.  R.R.R.R.R.R.R.R.R.R.R.R.R.R.R.R.R.R.R.R.R.R.R.",
"R.R.R.R.R.R.R.R.R.R.R.R.R.R.R.R.R.R.R.R.R.R.R.  Y.H.H.x.    ,.,.<.3.3.X         3 1 o.j.j.M.  R.R.R.R.R.R.R.R.R.R.R.R.R.R.R.R.R.R.R.R.R.R.R.",
"R.R.R.R.R.R.R.R.R.R.R.R.R.R.R.R.R.R.R.R.R.R.R.  H.H.H.x.5   # 2.3.2.,.,.<.,.,.,.,.  -.j.j.j.  R.R.R.R.R.R.R.R.R.R.R.R.R.R.R.R.R.R.R.R.R.R.R.",
"R.R.R.R.R.R.R.R.R.R.R.R.R.R.R.R.R.R.R.R.R.R.R.  %.b.x.x.  R.M 3.3.7.z ,.,.,.,.b   2 j -.a.-.  R.R.R.R.R.R.R.R.R.R.R.R.R.R.R.R.R.R.R.R.R.R.R.",
"R.R.R.R.R.R.R.R.R.R.R.R.R.R.R.R.R.R.R.R.R.R.R.R.        R.  <.3.3.4.N         $ v v   C     R.R.R.R.R.R.R.R.R.R.R.R.R.R.R.R.R.R.R.R.R.R.R.R.",
"R.R.R.R.R.R.R.R.R.R.R.R.R.R.R.R.R.R.R.R.R.R.R.R.R.R.R.R.R.  <.3.3.3.3.R.R.k x v v v < R.R.R.R.R.R.R.R.R.R.R.R.R.R.R.R.R.R.R.R.R.R.R.R.R.R.R.",
"R.R.R.R.R.R.R.R.R.R.R.R.R.R.R.R.R.R.R.R.R.R.R.R.R.R.R.R.R.  M M m n b R.R.  x x k X     R.R.R.R.R.R.R.R.R.R.R.R.R.R.R.R.R.R.R.R.R.R.R.R.R.R.",
"R.R.R.R.R.R.R.R.R.R.R.R.R.R.R.R.R.R.R.R.R.R.R.R.R.R.R.R.R.  V.K.L.K.  R.R.      r.M.t.  R.R.R.R.R.R.R.R.R.R.R.R.R.R.R.R.R.R.R.R.R.R.R.R.R.R.",
"R.R.R.R.R.R.R.R.R.R.R.R.R.R.R.R.R.R.R.R.R.R.R.R.R.R.R.R.R.                                    R.R.R.R.R.R.R.R.R.R.R.R.R.R.R.R.R.R.R.R.R.R.R.",
"R.R.R.R.R.R.R.R.R.R.R.R.R.R.R.R.R.R.R.R.R.R.R.R.R.R.R.R.  f ~ !   K.K.T.Y.K.  D e   t.t.M.M.r.  R.R.R.R.R.R.R.R.R.R.R.R.R.R.R.R.R.R.R.R.R.R.",
"R.R.R.R.R.R.R.R.R.R.R.R.R.R.R.R.R.R.R.R.R.R.R.R.R.R.R.R.  K.~   N.K.K.K.T.U.K.    r.y.t.t.u.y.q.  R.R.R.R.R.R.R.R.R.R.R.R.R.R.R.R.R.R.R.R.R.",
"R.R.R.R.R.R.R.R.R.R.R.R.R.R.R.R.R.R.R.R.R.R.R.R.R.R.R.R.  D w S N.K.K.K.K.K.K.  w.q.t.t.t.t.t.t.  R.R.R.R.R.R.R.R.R.R.R.R.R.R.R.R.R.R.R.R.R.",
"R.R.R.R.R.R.R.R.R.R.R.R.R.R.R.R.R.R.R.R.R.R.R.R.R.R.R.                                            R.R.R.R.R.R.R.R.R.R.R.R.R.R.R.R.R.R.R.R.R.",
"R.R.R.R.R.R.R.R.R.R.R.R.R.R.R.R.R.R.R.R.R.R.R.R.R.R.R.  B N.L.K.K.K.K.K.K.Y.K.M.4 y.t.t.t.y.M.y.B R.R.R.R.R.R.R.R.R.R.R.R.R.R.R.R.R.R.R.R.R.",
"R.R.R.R.R.R.R.R.R.R.R.R.R.R.R.R.R.R.R.R.R.R.R.R.R.R.R.                                              R.R.R.R.R.R.R.R.R.R.R.R.R.R.R.R.R.R.R.R.",
"R.R.R.R.R.R.R.R.R.R.R.R.R.R.R.R.R.R.R.R.R.R.R.R.R.R.R.R.R.R.R.R.R.R.R.R.R.R.R.R.R.R.R.R.R.R.R.R.R.R.R.R.R.R.R.R.R.R.R.R.R.R.R.R.R.R.R.R.R.R.",
"R.R.R.R.R.R.R.R.R.R.R.R.R.R.R.R.R.R.R.R.R.R.R.R.R.R.R.R.R.R.R.R.R.R.R.R.R.R.R.R.R.R.R.R.R.R.R.R.R.R.R.R.R.R.R.R.R.R.R.R.R.R.R.R.R.R.R.R.R.R.",
"R.R.R.R.R.R.R.R.R.R.R.R.R.R.R.R.R.R.R.R.R.R.R.R.R.R.R.R.R.R.R.R.R.R.R.R.R.R.R.R.R.R.R.R.R.R.R.R.R.R.R.R.R.R.R.R.R.R.R.R.R.R.R.R.R.R.R.R.R.R.",
"R.R.R.R.R.R.R.R.R.R.R.R.R.R.R.R.R.R.R.R.R.R.R.R.R.R.R.R.R.R.R.R.R.R.R.R.R.R.R.R.R.R.R.R.R.R.R.R.R.R.R.R.R.R.R.R.R.R.R.R.R.R.R.R.R.R.R.R.R.R.",
"R.R.R.R.R.R.R.R.R.R.R.R.R.R.R.R.R.R.R.R.R.R.R.R.R.R.R.R.R.R.R.R.R.R.R.R.R.R.R.R.R.R.R.R.R.R.R.R.R.R.R.R.R.R.R.R.R.R.R.R.R.R.R.R.R.R.R.R.R.R.",
"R.R.R.R.R.R.R.R.R.R.R.R.R.R.R.R.R.R.R.R.R.R.R.R.R.R.R.R.R.R.R.R.R.R.R.R.R.R.R.R.R.R.R.R.R.R.R.R.R.R.R.R.R.R.R.R.R.R.R.R.R.R.R.R.R.R.R.R.R.R.",
"R.R.R.R.R.R.R.R.R.R.R.R.R.R.R.R.R.R.R.R.R.R.R.R.R.R.R.R.R.R.R.R.R.R.R.R.R.R.R.R.R.R.R.R.R.R.R.R.R.R.R.R.R.R.R.R.R.R.R.R.R.R.R.R.R.R.R.R.R.R.",
"R.R.R.R.R.R.R.R.R.R.R.R.R.R.R.R.R.R.R.R.R.R.R.R.R.R.R.R.R.R.R.R.R.R.R.R.R.R.R.R.R.R.R.R.R.R.R.R.R.R.R.R.R.R.R.R.R.R.R.R.R.R.R.R.R.R.R.R.R.R."
};
