/* XPM */
static char *result[] = {
/* columns rows colors chars-per-pixel */
"70 70 160 2 ",
"   c #000000",
".  c #0B0302",
"X  c #030609",
"o  c #0B0B0A",
"O  c #130E07",
"+  c #110D0C",
"@  c #180405",
"#  c #060C12",
"$  c #0A131D",
"%  c #141414",
"&  c #1B1B1B",
"*  c #220608",
"=  c #2E0709",
"-  c #3B0B0E",
";  c #231C15",
":  c #321D1C",
">  c #2E2310",
",  c #071D33",
"<  c #0D1A27",
"1  c #262524",
"2  c #2C2C2C",
"3  c #2C2925",
"4  c #302C27",
"5  c #343333",
"6  c #410A0D",
"7  c #490507",
"8  c #5C0000",
"9  c #5E1F00",
"0  c #4D0E13",
"q  c #520F14",
"w  c #6B0000",
"e  c #730000",
"r  c #650F15",
"t  c #6D141B",
"y  c #7B141B",
"u  c #402F16",
"i  c #642000",
"p  c #45302A",
"a  c #534221",
"s  c #49423C",
"d  c #5A4939",
"f  c #0A2D4F",
"g  c #1A334C",
"h  c #0B2F54",
"j  c #0B3056",
"k  c #1D3B58",
"l  c #113E6B",
"z  c #20405F",
"x  c #234466",
"c  c #284E75",
"v  c #264B70",
"b  c #2D557E",
"n  c #285077",
"m  c #4C4C4C",
"M  c #514A43",
"N  c #585858",
"B  c #72685F",
"V  c #636261",
"C  c #757575",
"Z  c #7D7B7A",
"A  c #800000",
"S  c #9A0000",
"D  c #A20000",
"F  c #AC0000",
"G  c #BF0100",
"H  c #BD0C11",
"J  c #852C00",
"K  c #841920",
"L  c #8B1A22",
"P  c #9D1D27",
"I  c #971B24",
"U  c #A21E27",
"Y  c #972B2B",
"T  c #AD2129",
"R  c #B3222B",
"E  c #C30000",
"W  c #CB0000",
"Q  c #C10A0D",
"!  c #D50000",
"~  c #D80600",
"^  c #DE1100",
"/  c #E01600",
"(  c #E21A00",
")  c #E72400",
"_  c #EE3200",
"`  c #F43F00",
"'  c #D92525",
"]  c #F74500",
"[  c #FE5400",
"{  c #FE5B0B",
"}  c #FE5F11",
"|  c #896D52",
" . c #B56F74",
".. c #FE7F41",
"X. c #C4716D",
"o. c #B38840",
"O. c #988B7E",
"+. c #B98F66",
"@. c #BF9468",
"#. c #BC9A77",
"$. c #C39144",
"%. c #D39D49",
"&. c #FE884E",
"*. c #DAA24C",
"=. c #EDAE51",
"-. c #C5986C",
";. c #C1966A",
":. c #C59C73",
">. c #FEA97E",
",. c #FFA275",
"<. c #F6C05E",
"1. c #2C5680",
"2. c #2E5983",
"3. c #2D5B88",
"4. c #305E8E",
"5. c #326495",
"6. c #336699",
"7. c #34699E",
"8. c #376EA4",
"9. c #3B75AF",
"0. c #4784C1",
"q. c #979797",
"w. c #9A9A9A",
"e. c #888888",
"r. c #B49191",
"t. c #A4A4A4",
"y. c #AFAFAF",
"u. c gray71",
"i. c gray",
"p. c #FF938E",
"a. c #D8AF88",
"s. c #D6B28F",
"d. c #C5AF9A",
"f. c #EABE91",
"g. c #FEB590",
"h. c #C5B2A0",
"j. c #D1BEAD",
"k. c #FFADA3",
"l. c #FFB9B6",
"z. c #EBC095",
"x. c #FFCC99",
"c. c #FFD2A4",
"v. c #E5D2BF",
"b. c #FFDEBC",
"n. c #C5C4C4",
"m. c gray80",
"M. c #D5D5D5",
"N. c #DDDDDD",
"B. c #EDDAC6",
"V. c #FFDDCA",
"C. c #FEE3CC",
"Z. c #FBE1C7",
"A. c #E4E2DF",
"S. c #FFEAD5",
"D. c #FFE7DB",
"F. c #E6E6E6",
"G. c #ECECEC",
"H. c #F3F3F3",
"J. c #FEFEFE",
"K. c None",
/* pixels */
"K.K.K.K.K.K.K.K.K.K.K.K.K.K.K.K.K.K.K.K.K.K.K.K.K.K.K.K.K.K.K.K.K.K.K.K.K.K.K.K.K.K.K.K.K.K.K.K.K.K.K.K.K.K.K.K.K.K.K.K.K.K.K.K.K.K.K.K.K.K.",
"K.K.K.K.K.K.K.K.K.K.K.K.K.K.K.K.K.K.K.K.K.K.K.K.K.K.K.K.K.K.K.K.K.K.K.K.K.K.K.K.K.K.K.K.K.K.K.K.K.K.K.K.K.K.K.K.K.K.K.K.K.K.K.K.K.K.K.K.K.K.",
"K.K.K.K.K.K.K.K.K.K.K.K.K.K.K.K.K.K.K.K.K.K.K.K.K.K.K.K.K.K.K.K.K.K.K.K.K.K.K.K.K.K.K.K.K.K.K.K.K.K.K.K.K.K.K.K.K.K.K.K.K.K.K.K.K.K.K.K.K.K.",
"K.K.K.K.K.K.K.K.K.K.K.K.K.K.K.K.K.K.K.K.K.K.K.K.K.K.K.K.K.K.K.K.K.K.K.K.K.K.K.K.K.K.K.K.K.K.K.K.K.K.K.K.K.K.K.K.K.K.K.K.K.K.K.K.K.K.K.K.K.K.",
"K.K.K.K.K.K.K.K.K.K.K.K.K.K.K.K.K.K.K.K.K.K.K.K.K.K.K.K.K.K.K.K.K.K.K.K.K.K.K.K.K.K.K.K.K.K.K.K.K.K.K.K.K.K.K.K.K.K.K.K.K.K.K.K.K.K.K.K.K.K.",
"K.K.K.K.K.K.K.K.K.K.K.K.K.K.K.K.K.K.K.K.K.K.K.K.K.K.K.K.K.K.K.K.K.K.K.K.K.K.K.K.K.K.K.K.K.K.K.K.K.K.K.K.K.K.K.K.K.K.K.K.K.K.K.K.K.K.K.K.K.K.",
"K.K.K.K.K.K.K.K.K.K.K.K.K.K.K.K.K.K.K.K.K.K.K.K.K.K.K.        K.K.K.K.K.K.K.K.K.K.K.K.K.K.K.K.K.K.K.K.K.K.K.K.K.K.K.K.K.K.K.K.K.K.K.K.K.K.K.",
"K.K.K.K.K.K.K.K.K.K.K.K.K.K.K.K.K.K.K.K.K.K.K.K.K.K.  ! ! ! E     K.K.K.K.K.K.K.K.K.K.K.K.K.K.K.K.K.K.K.K.K.K.K.K.K.K.K.K.K.K.K.K.K.K.K.K.K.",
"K.K.K.K.K.K.K.K.K.K.K.K.K.K.K.K.K.K.K.K.K.K.K.K.K.  ! ,.D.} [ ^ F   K.K.K.K.K.K.K.K.K.K.K.K.K.K.K.K.K.K.K.K.K.K.K.K.K.K.K.K.K.K.K.K.K.K.K.K.",
"K.K.K.K.K.K.K.K.K.K.K.K.K.K.K.K.K.K.K.K.K.K.K.K.  Y J.J.J.J.J.[ [ !   K.K.K.K.K.K.K.K.K.K.K.K.K.K.K.K.K.K.K.K.K.K.K.K.K.K.K.K.K.K.K.K.K.K.K.",
"K.K.K.K.K.K.K.K.K.K.K.K.K.K.K.K.K.K.K.K.K.K.K.K.  H.J.H.J.J.J.J.&.[ W   K.K.K.K.K.K.K.K.K.K.K.K.K.K.K.K.K.K.K.K.K.K.K.K.K.K.K.K.K.K.K.K.K.K.",
"K.K.K.K.K.K.K.K.K.K.K.K.K.K.K.K.K.K.K.K.K.K.K.K.. H.H.H.H.H.H.J.J.>.[ e   K.      K.K.K.K.K.K.K.K.K.K.K.K.K.K.K.K.K.K.K.K.K.K.K.K.K.K.K.K.K.",
"K.K.K.K.K.K.K.K.K.K.K.K.K.K.K.K.K.K.K.K.K.K.K.K.r.H.H.H.H.H.H.H.H.J.>._ .   ^ [ G   K.K.K.K.K.K.K.K.K.K.K.K.K.K.K.K.K.K.K.K.K.K.K.K.K.K.K.K.",
"K.K.K.K.K.K.K.K.K.K.K.K.K.K.K.K.K.K.K.K.K.K.K.  H.H.H.H.H.H.H.H.H.H.J.g.)   J [ [ !   K.K.K.K.K.K.K.K.K.K.K.K.K.K.K.K.K.K.K.K.K.K.K.K.K.K.K.",
"K.K.K.K.K.K.K.K.K.K.K.K.K.K.K.K.K.K.K.K.K.K.K.  H.G.G.G.H.G.H.H.H.H.H.J.D.]     ! !   K.K.K.K.K.K.K.K.K.K.K.K.K.K.K.K.K.K.K.K.K.K.K.K.K.K.K.",
"K.K.K.K.K.K.K.K.K.K.K.K.K.K.K.K.K.K.K.K.K.K.K.  G.G.G.H.G.H.G.H.H.G.H.H.H.J.[ W       K.K.K.K.K.K.K.K.K.K.K.K.K.K.K.K.K.K.K.K.K.K.K.K.K.K.K.",
"K.K.K.K.K.K.K.K.K.K.K.K.K.K.K.K.K.K.K.K.K.K.K.  m.F.F.G.G.G.G.G.H.G.H.G.G.H.J.&.[ !     K.K.K.K.K.K.K.K.K.K.K.K.K.K.K.K.K.K.K.K.K.K.K.K.K.K.",
"K.K.K.K.K.K.K.K.K.K.K.K.K.K.K.K.K.K.K.K.K.K.K.    2 m.F.F.G.G.G.G.G.G.G.G.G.G.G.J.{ [ !     K.K.K.K.K.K.K.K.K.K.K.K.K.K.K.K.K.K.K.K.K.K.K.K.",
"K.K.K.K.K.K.K.K.K.K.K.K.K.K.K.K.K.K.K.K.K.K.  L R t     u.M.F.F.F.G.G.G.G.G.G.H.G.H.J.[ [ !     K.K.K.K.K.K.K.K.K.K.K.K.K.K.K.K.K.K.K.K.K.K.",
"K.K.K.K.K.K.K.K.K.K.K.K.K.K.K.K.K.K.K.K.K.K.  0 K P R T .   & m.A.F.F.G.G.G.G.G.G.F.G.( [ [ [ E   K.K.K.K.K.K.K.K.K.K.K.K.K.K.K.K.K.K.K.K.K.",
"K.K.K.K.K.K.K.K.K.K.K.K.K.K.K.K.K.K.K.K.    ! 9     P P U R K     q.m.M.F.F.G.F.G.G.G.' ! ^ [ [ ~   K.K.K.K.K.K.K.K.K.K.K.K.K.K.K.K.K.K.K.K.",
"K.K.K.K.K.K.K.K.K.K.K.K.K.K.K.K.K.K.K.  w ! [ [ [ [     - P P R T @     m.m.m.N.F.F.F.! ! ~ ~ ! P P   K.K.K.K.K.K.K.K.K.K.K.K.K.K.K.K.K.K.K.",
"K.K.K.K.K.K.K.K.K.K.K.K.K.K.K.K.K.K.  E ! [ [ [ [ [ [ [ i     P I T R P     w.m.m.m.m.T P P P P P P   K.K.K.K.K.K.K.K.K.K.K.K.K.K.K.K.K.K.K.",
"K.K.K.K.K.K.K.K.K.K.K.K.K.K.K.K.K.  D ! [ [ [ [ [ [ [ [ [ [ [     = P P R R @   X m. .P P P P P P P   K.K.K.K.K.K.K.K.K.K.K.K.K.K.K.K.K.K.K.",
"K.K.K.K.K.K.K.K.K.K.K.K.K.K.K.K.K.  ! ! [ [ [ [ [ [ [ [ [ [ [ [ _ e     L P P R K     q P P P P P I   K.K.K.K.K.K.K.K.K.K.K.K.K.K.K.K.K.K.K.",
"K.K.K.K.K.K.K.K.K.K.K.K.K.K.K.K.  S ! ! / [ [ [ [ [ [ [ ] ! ! ! ! ! ! ! @   @ K K T R -     P P y   K.K.K.K.K.K.K.K.K.K.K.K.K.K.K.K.K.K.K.K.",
"K.K.K.K.K.K.K.K.K.K.K.K.K.K.K.K.K.6 ! ! ! ! ! ! ! ! ! ! ! ! ! ! ! ! ! ! ! ! t .   y K L R 6       K.K.K.K.K.K.K.K.K.K.K.K.K.K.K.K.K.K.K.K.K.",
"K.K.K.K.K.K.K.K.K.K.K.K.K.K.K.K.K.  P ! ! ! ! ! ! ! ! ! ! ! ! ! ! ! ! Q P r   a =..   @ K * K.K.K.K.K.K.K.K.K.K.K.K.K.K.K.K.K.K.K.K.K.K.K.K.",
"K.K.K.K.K.K.K.K.K.K.K.K.K.K.K.K.K.K.  0 P Q ! ! ! ! ! ! ! ! ! Q P P P     u =.<.=.=.=.$.    K.K.K.K.K.K.K.K.K.K.K.K.K.K.K.K.K.K.K.K.K.K.K.K.",
"K.K.K.K.K.K.K.K.K.K.K.K.K.K.K.K.K.K.K.      . y P P P P P t =       O =.=.  =.=.=.=.=.=.  K.K.K.K.K.K.K.K.K.K.K.K.K.K.K.K.K.K.K.K.K.K.K.K.K.",
"K.K.K.K.K.K.K.K.K.K.K.K.K.K.K.K.K.K.K.K.K.K.  Z           s > =.. C.  . *.  %.=.=.o.  $.  K.K.K.K.K.K.K.K.K.K.K.K.K.K.K.K.K.K.K.K.K.K.K.K.K.",
"K.K.K.K.K.K.K.K.K.K.K.K.K.K.K.K.K.K.K.K.K.K.  J.H.  +     S.S.o   h.J.J.      =.%.X J.2   K.K.K.K.K.K.K.K.K.K.K.K.K.K.K.K.K.K.K.K.K.K.K.K.K.",
"K.K.K.K.K.K.K.K.K.K.K.K.K.K.K.K.K.K.K.K.K.K.  C u.X S.S.S.S.S.S.S.X & &   j.S.  O C.b.S.A.  K.K.K.K.K.K.K.K.K.K.K.K.K.K.K.K.K.K.K.K.K.K.K.K.",
"K.K.K.K.K.K.K.K.K.K.K.K.K.K.K.K.K.K.K.K.K.K.  5 & % v.S.S.S.S.S.S.o & &   S.S.S.o x.x.x.S.  K.K.K.K.K.K.K.K.K.K.K.K.K.K.K.K.K.K.K.K.K.K.K.K.",
"K.K.K.K.K.K.K.K.K.K.K.K.K.K.K.K.K.K.K.K.K.  n.V & % v.S.J.p.p.S.S.  & &   M S.S.x.x.x.x.S.  K.K.K.K.K.K.K.K.K.K.K.K.K.K.K.K.K.K.K.K.K.K.K.K.",
"K.K.K.K.K.K.K.K.K.K.K.K.K.K.K.K.K.K.K.K.K.  . J.&   3 p.p.p.p.p.B B.o o   S.S.S.x.x.x.C.S.  K.K.K.K.K.K.K.K.K.K.K.K.K.K.K.K.K.K.K.K.K.K.K.K.",
"K.K.K.K.K.K.K.K.K.K.K.K.K.K.K.K.K.K.K.K.K.K.  G.    + p.p.p.p.p.  S.O.  j.k.V.x.x.x.Z.S.  K.K.K.K.K.K.K.K.K.K.K.K.K.K.K.K.K.K.K.K.K.K.K.K.K.",
"K.K.K.K.K.K.K.K.K.K.K.K.K.K.K.K.K.K.K.K.K.K.  p.l.C.| : p.p.X.  S.S.S.V.p.p.p.x.a.      K.K.K.K.K.K.K.K.K.K.K.K.K.K.K.K.K.K.K.K.K.K.K.K.K.K.",
"K.K.K.K.K.K.K.K.K.K.K.K.K.K.K.K.K.K.K.K.K.K.K.K..   f.x.x.x.x.c.x.x.x.x.x.d       K.K.K.K.K.K.K.K.K.K.K.K.K.K.K.K.K.K.K.K.K.K.K.K.K.K.K.K.K.",
"K.K.K.K.K.K.K.K.K.K.K.K.K.K.K.K.K.K.K.K.K.K.K.K.K.K.          X           #         K.K.K.K.K.K.K.K.K.K.K.K.K.K.K.K.K.K.K.K.K.K.K.K.K.K.K.K.",
"K.K.K.K.K.K.K.K.K.K.K.K.K.K.K.K.K.K.K.K.K.K.K.K.K.K.K.  u.  X J.J.o 6.6.3.G.  J.J.J.X K.K.K.K.K.K.K.K.K.K.K.K.K.K.K.K.K.K.K.K.K.K.K.K.K.K.K.",
"K.K.K.K.K.K.K.K.K.K.K.K.K.K.K.K.K.K.K.K.K.K.K.K.K.K.  n.n.4.      < 6.6.  J.e.F.J.J.J.1 K.K.K.K.K.K.K.K.K.K.K.K.K.K.K.K.K.K.K.K.K.K.K.K.K.K.",
"K.K.K.K.K.K.K.K.K.K.K.K.K.K.K.K.K.K.K.K.K.K.K.K.K.K.o n.5 6.6.6.6.6.6.6.& J.& F.F.J.J.    K.K.K.K.K.K.K.K.K.K.K.K.K.K.K.K.K.K.K.K.K.K.K.K.K.",
"K.K.K.K.K.K.K.K.K.K.K.K.K.K.K.K.K.K.K.K.K.K.K.K.K.  O.N   b 1.b b b 2.    J.1 n.F.F.% C.1   K.K.K.K.K.K.K.K.K.K.K.K.K.K.K.K.K.K.K.K.K.K.K.K.",
"K.K.K.K.K.K.K.K.K.K.K.K.K.K.K.K.K.K.K.K.K.K.K.K.  h.h.4   # X X X X X   6.  F.m C m s.S.S.  K.K.K.K.K.K.K.K.K.K.K.K.K.K.K.K.K.K.K.K.K.K.K.K.",
"K.K.K.K.K.K.K.K.K.K.K.K.K.K.K.K.K.K.K.K.K.K.K.  h.h.h.@.X 9.9.9.9.9.8.  6.6.5.      x.C.S.S.  K.K.K.K.K.K.K.K.K.K.K.K.K.K.K.K.K.K.K.K.K.K.K.",
"K.K.K.K.K.K.K.K.K.K.K.K.K.K.K.K.K.K.K.K.K.K.K.+ h.h.-.; z 9.9.9.9.9.8.  6.6.6.b   K.X x.S.S.s K.K.K.K.K.K.K.K.K.K.K.K.K.K.K.K.K.K.K.K.K.K.K.",
"K.K.K.K.K.K.K.K.K.K.K.K.K.K.K.K.K.K.K.K.K.K.  h.h.h.-.  k 0.9.9.9.9.7.X 6.6.5.b   K.  x.S.S.S.  K.K.K.K.K.K.K.K.K.K.K.K.K.K.K.K.K.K.K.K.K.K.",
"K.K.K.K.K.K.K.K.K.K.K.K.K.K.K.K.K.K.K.K.K.K.  n.h.h.+.  c   5.5.5.5.$ 6.6.6.1.1.  K.  x.S.S.J.  K.K.K.K.K.K.K.K.K.K.K.K.K.K.K.K.K.K.K.K.K.K.",
"K.K.K.K.K.K.K.K.K.K.K.K.K.K.K.K.K.K.K.K.K.K.  h.h.h.-.    3.6.6.6.6.6.5.5.6.5.$   K.+ x.S.S.S.  K.K.K.K.K.K.K.K.K.K.K.K.K.K.K.K.K.K.K.K.K.K.",
"K.K.K.K.K.K.K.K.K.K.K.K.K.K.K.K.K.K.K.K.K.K.  -.d.:.;.    k 1.2.1.1.1.g 9.6.6.1.  K.  #.x.c.z.  K.K.K.K.K.K.K.K.K.K.K.K.K.K.K.K.K.K.K.K.K.K.",
"K.K.K.K.K.K.K.K.K.K.K.K.K.K.K.K.K.K.K.K.K.K.K.  d @.    l X     g c b n 7.6.6.1.  K.K.  d     K.K.K.K.K.K.K.K.K.K.K.K.K.K.K.K.K.K.K.K.K.K.K.",
"K.K.K.K.K.K.K.K.K.K.K.K.K.K.K.K.K.K.K.K.K.K.K.K.K.  K., l l l h ,     6.5.6.6.1.  K.K.K.K.K.K.K.K.K.K.K.K.K.K.K.K.K.K.K.K.K.K.K.K.K.K.K.K.K.",
"K.K.K.K.K.K.K.K.K.K.K.K.K.K.K.K.K.K.K.K.K.K.K.K.K.K.    X f j j   K.K.x v c n 1.  K.K.K.K.K.K.K.K.K.K.K.K.K.K.K.K.K.K.K.K.K.K.K.K.K.K.K.K.K.",
"K.K.K.K.K.K.K.K.K.K.K.K.K.K.K.K.K.K.K.K.K.K.K.K.K.K.  y.n.t.      K.K.  F.F.F.N.  K.K.K.K.K.K.K.K.K.K.K.K.K.K.K.K.K.K.K.K.K.K.K.K.K.K.K.K.K.",
"K.K.K.K.K.K.K.K.K.K.K.K.K.K.K.K.K.K.K.K.K.K.K.                            .       K.K.K.K.K.K.K.K.K.K.K.K.K.K.K.K.K.K.K.K.K.K.K.K.K.K.K.K.K.",
"K.K.K.K.K.K.K.K.K.K.K.K.K.K.K.K.K.K.K.K.K.K.  t.n.n.y.y.  8 D   F.J.J.F.F.  W ! p   K.K.K.K.K.K.K.K.K.K.K.K.K.K.K.K.K.K.K.K.K.K.K.K.K.K.K.K.",
"K.K.K.K.K.K.K.K.K.K.K.K.K.K.K.K.K.K.K.K.K.  w.y.i.y.y.y.t.    F.G.J.F.F.F.m.  ! F.  K.K.K.K.K.K.K.K.K.K.K.K.K.K.K.K.K.K.K.K.K.K.K.K.K.K.K.K.",
"K.K.K.K.K.K.K.K.K.K.K.K.K.K.K.K.K.K.K.K.K.  y.y.y.y.y.y.w.q.  F.F.F.F.F.F.m.C 7 S   K.K.K.K.K.K.K.K.K.K.K.K.K.K.K.K.K.K.K.K.K.K.K.K.K.K.K.K.",
"K.K.K.K.K.K.K.K.K.K.K.K.K.K.K.K.K.K.K.K.K.                                            K.K.K.K.K.K.K.K.K.K.K.K.K.K.K.K.K.K.K.K.K.K.K.K.K.K.K.",
"K.K.K.K.K.K.K.K.K.K.K.K.K.K.K.K.K.K.K.K.K.m y.n.y.y.y.y.y.2 n.F.J.F.F.F.F.F.F.F.m.m   K.K.K.K.K.K.K.K.K.K.K.K.K.K.K.K.K.K.K.K.K.K.K.K.K.K.K.",
"K.K.K.K.K.K.K.K.K.K.K.K.K.K.K.K.K.K.K.K.                                              K.K.K.K.K.K.K.K.K.K.K.K.K.K.K.K.K.K.K.K.K.K.K.K.K.K.K.",
"K.K.K.K.K.K.K.K.K.K.K.K.K.K.K.K.K.K.K.K.K.K.K.K.K.K.K.K.K.K.K.K.K.K.K.K.K.K.K.K.K.K.K.K.K.K.K.K.K.K.K.K.K.K.K.K.K.K.K.K.K.K.K.K.K.K.K.K.K.K.",
"K.K.K.K.K.K.K.K.K.K.K.K.K.K.K.K.K.K.K.K.K.K.K.K.K.K.K.K.K.K.K.K.K.K.K.K.K.K.K.K.K.K.K.K.K.K.K.K.K.K.K.K.K.K.K.K.K.K.K.K.K.K.K.K.K.K.K.K.K.K.",
"K.K.K.K.K.K.K.K.K.K.K.K.K.K.K.K.K.K.K.K.K.K.K.K.K.K.K.K.K.K.K.K.K.K.K.K.K.K.K.K.K.K.K.K.K.K.K.K.K.K.K.K.K.K.K.K.K.K.K.K.K.K.K.K.K.K.K.K.K.K.",
"K.K.K.K.K.K.K.K.K.K.K.K.K.K.K.K.K.K.K.K.K.K.K.K.K.K.K.K.K.K.K.K.K.K.K.K.K.K.K.K.K.K.K.K.K.K.K.K.K.K.K.K.K.K.K.K.K.K.K.K.K.K.K.K.K.K.K.K.K.K.",
"K.K.K.K.K.K.K.K.K.K.K.K.K.K.K.K.K.K.K.K.K.K.K.K.K.K.K.K.K.K.K.K.K.K.K.K.K.K.K.K.K.K.K.K.K.K.K.K.K.K.K.K.K.K.K.K.K.K.K.K.K.K.K.K.K.K.K.K.K.K.",
"K.K.K.K.K.K.K.K.K.K.K.K.K.K.K.K.K.K.K.K.K.K.K.K.K.K.K.K.K.K.K.K.K.K.K.K.K.K.K.K.K.K.K.K.K.K.K.K.K.K.K.K.K.K.K.K.K.K.K.K.K.K.K.K.K.K.K.K.K.K.",
"K.K.K.K.K.K.K.K.K.K.K.K.K.K.K.K.K.K.K.K.K.K.K.K.K.K.K.K.K.K.K.K.K.K.K.K.K.K.K.K.K.K.K.K.K.K.K.K.K.K.K.K.K.K.K.K.K.K.K.K.K.K.K.K.K.K.K.K.K.K.",
"K.K.K.K.K.K.K.K.K.K.K.K.K.K.K.K.K.K.K.K.K.K.K.K.K.K.K.K.K.K.K.K.K.K.K.K.K.K.K.K.K.K.K.K.K.K.K.K.K.K.K.K.K.K.K.K.K.K.K.K.K.K.K.K.K.K.K.K.K.K."
};
