/* XPM */
static char *result[] = {
/* columns rows colors chars-per-pixel */
"70 70 159 2 ",
"   c #000000",
".  c #0B0202",
"X  c #0D0A05",
"o  c #0C0B0A",
"O  c #03070B",
"+  c #140303",
"@  c #160904",
"#  c #15120E",
"$  c #1C1509",
"%  c #0A141E",
"&  c #161616",
"*  c #1E1313",
"=  c #1A1A1A",
"-  c #290609",
";  c #380609",
":  c #20180C",
">  c #221F1C",
",  c #282019",
"<  c #24211E",
"1  c #372B1E",
"2  c #0C1723",
"3  c #071C32",
"4  c #132638",
"5  c #242424",
"6  c #2C2B2B",
"7  c #292622",
"8  c #322D29",
"9  c #35312C",
"0  c #3D3328",
"q  c #3A3837",
"w  c #450000",
"e  c #43090D",
"r  c #5D0000",
"t  c #470D11",
"y  c #5B1116",
"u  c #640F14",
"i  c #7B141C",
"p  c #642100",
"a  c #48362A",
"s  c #453F3A",
"d  c #4C453D",
"f  c #6F553C",
"g  c #0A2C4D",
"h  c #162C42",
"j  c #1A344D",
"k  c #0C3055",
"l  c #1D3B57",
"z  c #0F3860",
"x  c #113E6B",
"c  c #214060",
"v  c #24486B",
"b  c #284E74",
"n  c #285077",
"m  c #2A537D",
"M  c #4B4B4B",
"N  c #5F5F5F",
"B  c #625A52",
"V  c #616161",
"C  c DimGray",
"Z  c #727272",
"A  c #810000",
"S  c #9C0000",
"D  c #821017",
"F  c #92171F",
"G  c #A30000",
"H  c #AB0000",
"J  c #BE0000",
"K  c #B40000",
"L  c #AB151C",
"P  c #B31118",
"I  c #972200",
"U  c #831920",
"Y  c #8A1922",
"T  c #901720",
"R  c #921B23",
"E  c #9C1D27",
"W  c #A11C26",
"Q  c #AC2029",
"!  c #B3222B",
"~  c #CC0203",
"^  c #C50507",
"/  c #D50000",
"(  c #D80600",
")  c #DE1200",
"_  c #E11900",
"`  c #E62100",
"'  c #EF3400",
"]  c #F33D00",
"[  c #E24B00",
"{  c #F64300",
"}  c #F94900",
"|  c #FE5400",
" . c #FE5806",
".. c #A25757",
"X. c #9E7A56",
"o. c #A27F5A",
"O. c #82776D",
"+. c #AD823D",
"@. c #8E8276",
"#. c #BC9670",
"$. c #C89344",
"%. c #D19B49",
"&. c #DEA44C",
"*. c #E3A74E",
"=. c #EDAE51",
"-. c #C5986B",
";. c #C59C74",
":. c #FF9D6D",
">. c #FFD26B",
",. c #2C5680",
"<. c #326496",
"1. c #336699",
"2. c #34699E",
"3. c #376DA3",
"4. c #386FA6",
"5. c #3870A7",
"6. c #3B75AF",
"7. c #3E79B4",
"8. c #8A8887",
"9. c #9C8F82",
"0. c #979797",
"q. c #9A9A9A",
"w. c gray64",
"e. c #A9A6A4",
"r. c #AFAFAF",
"t. c gray74",
"y. c #F68E89",
"u. c #FF938E",
"i. c #FF9A95",
"p. c #CAA887",
"a. c #C4B19F",
"s. c #EBBD8F",
"d. c #FDBB9A",
"f. c #C5B2A0",
"g. c #CABAA9",
"h. c #FFBFBC",
"j. c #FAC897",
"k. c #FFCC9A",
"l. c #DAC9B7",
"z. c #FFDAB7",
"x. c #C5C5C5",
"c. c #CCCCCC",
"v. c #D5D5D5",
"b. c #DBDBDB",
"n. c #EAD7C3",
"m. c #FFD9C7",
"M. c #E8DBDB",
"N. c #FFE5CC",
"B. c #FAE1C7",
"V. c #FCE6D2",
"C. c #FFEAD5",
"Z. c #FFEBDC",
"A. c #E6E6E6",
"S. c #ECECEC",
"D. c #E8E5E2",
"F. c #FFF1E2",
"G. c #F3F3F3",
"H. c #FEFEFE",
"J. c None",
/* pixels */
"J.J.J.J.J.J.J.J.J.J.J.J.J.J.J.J.J.J.J.J.J.J.J.J.J.J.J.J.J.J.J.J.J.J.J.J.J.J.J.J.J.J.J.J.J.J.J.J.J.J.J.J.J.J.J.J.J.J.J.J.J.J.J.J.J.J.J.J.J.J.",
"J.J.J.J.J.J.J.J.J.J.J.J.J.J.J.J.J.J.J.J.J.J.J.J.J.J.J.J.J.J.J.J.J.J.J.J.J.J.J.J.J.J.J.J.J.J.J.J.J.J.J.J.J.J.J.J.J.J.J.J.J.J.J.J.J.J.J.J.J.J.",
"J.J.J.J.J.J.J.J.J.J.J.J.J.J.J.J.J.J.J.J.J.J.J.J.J.J.J.J.J.J.J.J.J.J.J.J.J.J.J.J.J.J.J.J.J.J.J.J.J.J.J.J.J.J.J.J.J.J.J.J.J.J.J.J.J.J.J.J.J.J.",
"J.J.J.J.J.J.J.J.J.J.J.J.J.J.J.J.J.J.J.J.J.J.J.J.J.J.J.J.J.J.J.J.J.J.J.J.J.J.J.J.J.J.J.J.J.J.J.J.J.J.J.J.J.J.J.J.J.J.J.J.J.J.J.J.J.J.J.J.J.J.",
"J.J.J.J.J.J.J.J.J.J.J.J.J.J.J.J.J.J.J.J.J.J.J.J.J.J.J.J.J.J.J.J.J.J.J.J.J.J.J.J.J.J.J.J.J.J.J.J.J.J.J.J.J.J.J.J.J.J.J.J.J.J.J.J.J.J.J.J.J.J.",
"J.J.J.J.J.J.J.J.J.J.J.J.J.J.J.J.J.J.J.J.J.J.J.J.J.J.J.J.J.J.J.J.J.J.J.J.J.J.        J.J.J.J.J.J.J.J.J.J.J.J.J.J.J.J.J.J.J.J.J.J.J.J.J.J.J.J.",
"J.J.J.J.J.J.J.J.J.J.J.J.J.J.J.J.J.J.J.J.J.J.J.J.J.J.J.J.J.J.J.J.J.J.J.J.    K / / /   J.J.J.J.J.J.J.J.J.J.J.J.J.J.J.J.J.J.J.J.J.J.J.J.J.J.J.",
"J.J.J.J.J.J.J.J.J.J.J.J.J.J.J.J.J.J.J.J.J.J.J.J.J.J.J.J.J.J.J.J.J.J.J.  r ( |  .Z.:./   J.J.J.J.J.J.J.J.J.J.J.J.J.J.J.J.J.J.J.J.J.J.J.J.J.J.",
"J.J.J.J.J.J.J.J.J.J.J.J.J.J.J.J.J.J.J.J.J.J.J.J.J.J.J.J.J.J.J.J.J.J.  G { | H.H.H.H.G...  J.J.J.J.J.J.J.J.J.J.J.J.J.J.J.J.J.J.J.J.J.J.J.J.J.",
"J.J.J.J.J.J.J.J.J.J.J.J.J.J.J.J.J.J.J.J.J.J.J.J.J.J.J.J.J.J.J.J.J.  r }  .H.H.H.H.G.G.G.  J.J.J.J.J.J.J.J.J.J.J.J.J.J.J.J.J.J.J.J.J.J.J.J.J.",
"J.J.J.J.J.J.J.J.J.J.J.J.J.J.J.J.J.J.J.J.J.J.J.J.J.J.J.J.J.J.J.J.J.  _ | H.H.G.G.G.G.G.H.> J.J.J.J.J.J.J.J.J.J.J.J.J.J.J.J.J.J.J.J.J.J.J.J.J.",
"J.J.J.J.J.J.J.J.J.J.J.J.J.J.J.J.J.J.J.J.J.J.J.J.J.J.J.    + .     / | H.G.G.G.G.G.G.G.G.M.  J.J.J.J.J.J.J.J.J.J.J.J.J.J.J.J.J.J.J.J.J.J.J.J.",
"J.J.J.J.J.J.J.J.J.J.J.J.J.J.J.J.J.J.J.J.J.J.J.J.J.J.J.  | | |   / | H.G.G.G.G.G.G.G.G.G.S.  J.J.J.J.J.J.J.J.J.J.J.J.J.J.J.J.J.J.J.J.J.J.J.J.",
"J.J.J.J.J.J.J.J.J.J.J.J.J.J.J.J.J.J.J.J.J.J.J.J.J.J.  / { |   ~ | H.G.G.G.G.G.G.G.G.S.G.S.  J.J.J.J.J.J.J.J.J.J.J.J.J.J.J.J.J.J.J.J.J.J.J.J.",
"J.J.J.J.J.J.J.J.J.J.J.J.J.J.J.J.J.J.J.J.J.J.J.J.J.J.  P     /  .H.S.G.G.S.S.G.S.S.G.S.S.S.  J.J.J.J.J.J.J.J.J.J.J.J.J.J.J.J.J.J.J.J.J.J.J.J.",
"J.J.J.J.J.J.J.J.J.J.J.J.J.J.J.J.J.J.J.J.J.J.J.J.J.J.    J | d.H.G.G.S.G.S.G.S.S.S.S.S.A.c.  J.J.J.J.J.J.J.J.J.J.J.J.J.J.J.J.J.J.J.J.J.J.J.J.",
"J.J.J.J.J.J.J.J.J.J.J.J.J.J.J.J.J.J.J.J.J.J.J.J.    H } | H.S.S.S.S.S.S.S.S.S.S.S.S.c.q       J.J.J.J.J.J.J.J.J.J.J.J.J.J.J.J.J.J.J.J.J.J.J.",
"J.J.J.J.J.J.J.J.J.J.J.J.J.J.J.J.J.J.J.J.J.J.J.  A ' | H.G.S.S.S.S.S.S.S.A.S.S.A.c.    y ! T   J.J.J.J.J.J.J.J.J.J.J.J.J.J.J.J.J.J.J.J.J.J.J.",
"J.J.J.J.J.J.J.J.J.J.J.J.J.J.J.J.J.J.J.J.J.  . ) | | H.S.S.S.S.S.S.S.S.S.S.v.t.    E ! E U t     J.J.J.J.J.J.J.J.J.J.J.J.J.J.J.J.J.J.J.J.J.J.",
"J.J.J.J.J.J.J.J.J.J.J.J.J.J.J.J.J.J.J.J.  ~ | | | / S.S.S.S.S.S.S.A.b.c.N   O Q Q E E .   p ] /     J.J.J.J.J.J.J.J.J.J.J.J.J.J.J.J.J.J.J.J.",
"J.J.J.J.J.J.J.J.J.J.J.J.J.J.J.J.J.J.J.  / | | / / / S.S.S.A.A.b.c.c.o   - ! Q W E     [ | | | | /     J.J.J.J.J.J.J.J.J.J.J.J.J.J.J.J.J.J.J.",
"J.J.J.J.J.J.J.J.J.J.J.J.J.J.J.J.J.J.J.; E E ~ / / / A.b.c.c.c.c.    Y ! E E i     | | | | | | | | / w   J.J.J.J.J.J.J.J.J.J.J.J.J.J.J.J.J.J.",
"J.J.J.J.J.J.J.J.J.J.J.J.J.J.J.J.J.J.  E E E E E E E E c.c.e.    W ! E E +   @ | | | | | | | | | | } / +   J.J.J.J.J.J.J.J.J.J.J.J.J.J.J.J.J.",
"J.J.J.J.J.J.J.J.J.J.J.J.J.J.J.J.J.J.  i E W E E E E E 6   @ ! Q E E     I | | | | | | | | | | | | | / /   J.J.J.J.J.J.J.J.J.J.J.J.J.J.J.J.J.",
"J.J.J.J.J.J.J.J.J.J.J.J.J.J.J.J.J.J.J.  E E E E E     y ! R U Y     / / / / / / ` | | | | | | | ( / / /   J.J.J.J.J.J.J.J.J.J.J.J.J.J.J.J.J.",
"J.J.J.J.J.J.J.J.J.J.J.J.J.J.J.J.J.J.J.J.  u E -   Y ! D U t   . / / / / / / / / / / / / / / / / / / / ^   J.J.J.J.J.J.J.J.J.J.J.J.J.J.J.J.J.",
"J.J.J.J.J.J.J.J.J.J.J.J.J.J.J.J.J.J.J.J.J.      Q U U X   $   T E ^ / / / / / / / / / / / / / / / / W   J.J.J.J.J.J.J.J.J.J.J.J.J.J.J.J.J.J.",
"J.J.J.J.J.J.J.J.J.J.J.J.J.J.J.J.J.J.J.J.J.J.J.  .     $.=.=.>.X   + E E E ^ / / / / / / / / / L E e   J.J.J.J.J.J.J.J.J.J.J.J.J.J.J.J.J.J.J.",
"J.J.J.J.J.J.J.J.J.J.J.J.J.J.J.J.J.J.J.J.J.J.J.J.  *.=.=.=.=.=.=.  &.X       - D R E E E F ;       J.J.J.J.J.J.J.J.J.J.J.J.J.J.J.J.J.J.J.J.J.",
"J.J.J.J.J.J.J.J.J.J.J.J.J.J.J.J.J.J.J.J.J.J.J.J.J.* =.=.=.=.=.+.  =.&.  n.%.&.  7   X X   s 8.J.J.J.J.J.J.J.J.J.J.J.J.J.J.J.J.J.J.J.J.J.J.J.",
"J.J.J.J.J.J.J.J.J.J.J.J.J.J.J.J.J.J.J.J.J.J.J.J.J.        =.=.      v.C 9   o C.C.    @.q V & J.J.J.J.J.J.J.J.J.J.J.J.J.J.J.J.J.J.J.J.J.J.J.",
"J.J.J.J.J.J.J.J.J.J.J.J.J.J.J.J.J.J.J.J.J.J.J.J.J.O F.C.B &.  C.@.  x.= < C.C.C.C.C.C.l.= > O   J.J.J.J.J.J.J.J.J.J.J.J.J.J.J.J.J.J.J.J.J.J.",
"J.J.J.J.J.J.J.J.J.J.J.J.J.J.J.J.J.J.J.J.J.J.J.J.  Z.z.k.k.  C.C.# O = =   C.C.C.C.C.C.O.= = o   J.J.J.J.J.J.J.J.J.J.J.J.J.J.J.J.J.J.J.J.J.J.",
"J.J.J.J.J.J.J.J.J.J.J.J.J.J.J.J.J.J.J.J.J.J.J.J.  C.k.k.k.N.C.C.O   = = O C.C.u.u.H.C.O.= = 5 e.J.J.J.J.J.J.J.J.J.J.J.J.J.J.J.J.J.J.J.J.J.J.",
"J.J.J.J.J.J.J.J.J.J.J.J.J.J.J.J.J.J.J.J.J.J.J.J.  C.k.k.k.k.C.C.g.  = = l.9.u.u.u.u.u.<   & D.  J.J.J.J.J.J.J.J.J.J.J.J.J.J.J.J.J.J.J.J.J.J.",
"J.J.J.J.J.J.J.J.J.J.J.J.J.J.J.J.J.J.J.J.J.J.J.J.  n.C.k.k.k.z.C.C.    X C.  u.u.u.u.u..   > e.  J.J.J.J.J.J.J.J.J.J.J.J.J.J.J.J.J.J.J.J.J.J.",
"J.J.J.J.J.J.J.J.J.J.J.J.J.J.J.J.J.J.J.J.J.J.J.J.J.  9 V.l.k.k.h.i.u.C.Z.C.B.O y.u.y.* #.m.i.u.J.J.J.J.J.J.J.J.J.J.J.J.J.J.J.J.J.J.J.J.J.J.J.",
"J.J.J.J.J.J.J.J.J.J.J.J.J.J.J.J.J.J.J.J.J.J.J.J.J.J.J.J.    . s.u.u.k.k.z.N.C.k.k.k.k.p.    J.J.J.J.J.J.J.J.J.J.J.J.J.J.J.J.J.J.J.J.J.J.J.J.",
"J.J.J.J.J.J.J.J.J.J.J.J.J.J.J.J.J.J.J.J.J.J.J.J.J.J.J.J.                o # 0 # O       J.J.J.J.J.J.J.J.J.J.J.J.J.J.J.J.J.J.J.J.J.J.J.J.J.J.",
"J.J.J.J.J.J.J.J.J.J.J.J.J.J.J.J.J.J.J.J.J.J.J.J.J.J.J.  H.H.H.  o 2.2.2.g.H.H.O     J.J.J.J.J.J.J.J.J.J.J.J.J.J.J.J.J.J.J.J.J.J.J.J.J.J.J.J.",
"J.J.J.J.J.J.J.J.J.J.J.J.J.J.J.J.J.J.J.J.J.J.J.J.J.J.  S.H.H.G.v.H.  1.1.  H.H.  h x.  J.J.J.J.J.J.J.J.J.J.J.J.J.J.J.J.J.J.J.J.J.J.J.J.J.J.J.",
"J.J.J.J.J.J.J.J.J.J.J.J.J.J.J.J.J.J.J.J.J.J.J.J.J.J.V H.H.H.A.b.H.= 1.1.1.1.1.1.1.w.x.  J.J.J.J.J.J.J.J.J.J.J.J.J.J.J.J.J.J.J.J.J.J.J.J.J.J.",
"J.J.J.J.J.J.J.J.J.J.J.J.J.J.J.J.J.J.J.J.J.J.J.J.J.J.  w.H.A.A.  H.                  w.  J.J.J.J.J.J.J.J.J.J.J.J.J.J.J.J.J.J.J.J.J.J.J.J.J.J.",
"J.J.J.J.J.J.J.J.J.J.J.J.J.J.J.J.J.J.J.J.J.J.J.J.J.  C.9.5 A.  H.6 <.  5.6.6.6.6.6.  9 a.  J.J.J.J.J.J.J.J.J.J.J.J.J.J.J.J.J.J.J.J.J.J.J.J.J.",
"J.J.J.J.J.J.J.J.J.J.J.J.J.J.J.J.J.J.J.J.J.J.J.J.  n.C.C.j.  M   1.1.  5.6.6.6.6.6.  g.f.M J.J.J.J.J.J.J.J.J.J.J.J.J.J.J.J.J.J.J.J.J.J.J.J.J.",
"J.J.J.J.J.J.J.J.J.J.J.J.J.J.J.J.J.J.J.J.J.J.J.J.  C.C.k.#   m 2.1.1.  3.6.6.6.6.6.j +.a.f.  J.J.J.J.J.J.J.J.J.J.J.J.J.J.J.J.J.J.J.J.J.J.J.J.",
"J.J.J.J.J.J.J.J.J.J.J.J.J.J.J.J.J.J.J.J.J.J.J.J.B C.C.k.    ,.<.1.1.  3.6.6.6.6.7.l a a.f.q J.J.J.J.J.J.J.J.J.J.J.J.J.J.J.J.J.J.J.J.J.J.J.J.",
"J.J.J.J.J.J.J.J.J.J.J.J.J.J.J.J.J.J.J.J.J.J.J.  C.C.C.k.    ,.,.1.1.4 2.6.6.6.6.3.m 8 a.f.f.  J.J.J.J.J.J.J.J.J.J.J.J.J.J.J.J.J.J.J.J.J.J.J.",
"J.J.J.J.J.J.J.J.J.J.J.J.J.J.J.J.J.J.J.J.J.J.J.  H.C.C.k.o   ,.m m 1.2.j O   O   m 2 X.f.f.x.  J.J.J.J.J.J.J.J.J.J.J.J.J.J.J.J.J.J.J.J.J.J.J.",
"J.J.J.J.J.J.J.J.J.J.J.J.J.J.J.J.J.J.J.J.J.J.J.  C.C.C.k.j.  % <.2.2.m ,.m ,.m ,.m   -.f.f.f.  J.J.J.J.J.J.J.J.J.J.J.J.J.J.J.J.J.J.J.J.J.J.J.",
"J.J.J.J.J.J.J.J.J.J.J.J.J.J.J.J.J.J.J.J.J.J.J.J.  k.k.k.  J.,.1.1.6.j ,.m ,.m 2   z f ;.p.a J.J.J.J.J.J.J.J.J.J.J.J.J.J.J.J.J.J.J.J.J.J.J.J.",
"J.J.J.J.J.J.J.J.J.J.J.J.J.J.J.J.J.J.J.J.J.J.J.J.J.      J.  ,.1.1.2.n         k x x   ,     J.J.J.J.J.J.J.J.J.J.J.J.J.J.J.J.J.J.J.J.J.J.J.J.",
"J.J.J.J.J.J.J.J.J.J.J.J.J.J.J.J.J.J.J.J.J.J.J.J.J.J.J.J.J.  ,.1.1.1.1.J.J.g k x x x 3 J.J.J.J.J.J.J.J.J.J.J.J.J.J.J.J.J.J.J.J.J.J.J.J.J.J.J.",
"J.J.J.J.J.J.J.J.J.J.J.J.J.J.J.J.J.J.J.J.J.J.J.J.J.J.J.J.J.  m m b v c J.J.  k k g O     J.J.J.J.J.J.J.J.J.J.J.J.J.J.J.J.J.J.J.J.J.J.J.J.J.J.",
"J.J.J.J.J.J.J.J.J.J.J.J.J.J.J.J.J.J.J.J.J.J.J.J.J.J.J.J.J.  b.A.S.D.  J.J.      w.x.r.  J.J.J.J.J.J.J.J.J.J.J.J.J.J.J.J.J.J.J.J.J.J.J.J.J.J.",
"J.J.J.J.J.J.J.J.J.J.J.J.J.J.J.J.J.J.J.J.J.J.J.J.J.J.J.J.J.                                    J.J.J.J.J.J.J.J.J.J.J.J.J.J.J.J.J.J.J.J.J.J.J.",
"J.J.J.J.J.J.J.J.J.J.J.J.J.J.J.J.J.J.J.J.J.J.J.J.J.J.J.J.  a / ~   A.A.G.H.A.  G r   r.r.x.x.w.  J.J.J.J.J.J.J.J.J.J.J.J.J.J.J.J.J.J.J.J.J.J.",
"J.J.J.J.J.J.J.J.J.J.J.J.J.J.J.J.J.J.J.J.J.J.J.J.J.J.J.J.  A./   c.A.A.A.H.S.A.    w.r.r.r.x.r.q.  J.J.J.J.J.J.J.J.J.J.J.J.J.J.J.J.J.J.J.J.J.",
"J.J.J.J.J.J.J.J.J.J.J.J.J.J.J.J.J.J.J.J.J.J.J.J.J.J.J.J.  S w Z c.A.A.A.A.A.A.  0.0.r.r.r.r.r.r.  J.J.J.J.J.J.J.J.J.J.J.J.J.J.J.J.J.J.J.J.J.",
"J.J.J.J.J.J.J.J.J.J.J.J.J.J.J.J.J.J.J.J.J.J.J.J.J.J.J.                                            J.J.J.J.J.J.J.J.J.J.J.J.J.J.J.J.J.J.J.J.J.",
"J.J.J.J.J.J.J.J.J.J.J.J.J.J.J.J.J.J.J.J.J.J.J.J.J.J.J.  M c.A.A.A.A.A.A.A.H.A.x.6 r.r.r.r.r.x.r.M J.J.J.J.J.J.J.J.J.J.J.J.J.J.J.J.J.J.J.J.J.",
"J.J.J.J.J.J.J.J.J.J.J.J.J.J.J.J.J.J.J.J.J.J.J.J.J.J.J.                                              J.J.J.J.J.J.J.J.J.J.J.J.J.J.J.J.J.J.J.J.",
"J.J.J.J.J.J.J.J.J.J.J.J.J.J.J.J.J.J.J.J.J.J.J.J.J.J.J.J.J.J.J.J.J.J.J.J.J.J.J.J.J.J.J.J.J.J.J.J.J.J.J.J.J.J.J.J.J.J.J.J.J.J.J.J.J.J.J.J.J.J.",
"J.J.J.J.J.J.J.J.J.J.J.J.J.J.J.J.J.J.J.J.J.J.J.J.J.J.J.J.J.J.J.J.J.J.J.J.J.J.J.J.J.J.J.J.J.J.J.J.J.J.J.J.J.J.J.J.J.J.J.J.J.J.J.J.J.J.J.J.J.J.",
"J.J.J.J.J.J.J.J.J.J.J.J.J.J.J.J.J.J.J.J.J.J.J.J.J.J.J.J.J.J.J.J.J.J.J.J.J.J.J.J.J.J.J.J.J.J.J.J.J.J.J.J.J.J.J.J.J.J.J.J.J.J.J.J.J.J.J.J.J.J.",
"J.J.J.J.J.J.J.J.J.J.J.J.J.J.J.J.J.J.J.J.J.J.J.J.J.J.J.J.J.J.J.J.J.J.J.J.J.J.J.J.J.J.J.J.J.J.J.J.J.J.J.J.J.J.J.J.J.J.J.J.J.J.J.J.J.J.J.J.J.J.",
"J.J.J.J.J.J.J.J.J.J.J.J.J.J.J.J.J.J.J.J.J.J.J.J.J.J.J.J.J.J.J.J.J.J.J.J.J.J.J.J.J.J.J.J.J.J.J.J.J.J.J.J.J.J.J.J.J.J.J.J.J.J.J.J.J.J.J.J.J.J.",
"J.J.J.J.J.J.J.J.J.J.J.J.J.J.J.J.J.J.J.J.J.J.J.J.J.J.J.J.J.J.J.J.J.J.J.J.J.J.J.J.J.J.J.J.J.J.J.J.J.J.J.J.J.J.J.J.J.J.J.J.J.J.J.J.J.J.J.J.J.J.",
"J.J.J.J.J.J.J.J.J.J.J.J.J.J.J.J.J.J.J.J.J.J.J.J.J.J.J.J.J.J.J.J.J.J.J.J.J.J.J.J.J.J.J.J.J.J.J.J.J.J.J.J.J.J.J.J.J.J.J.J.J.J.J.J.J.J.J.J.J.J.",
"J.J.J.J.J.J.J.J.J.J.J.J.J.J.J.J.J.J.J.J.J.J.J.J.J.J.J.J.J.J.J.J.J.J.J.J.J.J.J.J.J.J.J.J.J.J.J.J.J.J.J.J.J.J.J.J.J.J.J.J.J.J.J.J.J.J.J.J.J.J."
};
