/* XPM */
static char *result[] = {
/* columns rows colors chars-per-pixel */
"70 70 164 2 ",
"   c #000000",
".  c #0B0202",
"X  c #0C0905",
"o  c #020509",
"O  c #04090D",
"+  c #0B0A09",
"@  c #130203",
"#  c #130F0D",
"$  c #150F07",
"%  c #14110E",
"&  c #151007",
"*  c #070C13",
"=  c #080F16",
"-  c #0A131D",
";  c #131313",
":  c #1B1916",
">  c #1A1A1A",
",  c #1A1611",
"<  c #210000",
"1  c #2D0709",
"2  c #370A0D",
"3  c #251D0D",
"4  c #342813",
"5  c #0B1620",
"6  c #071C32",
"7  c #102030",
"8  c #292726",
"9  c #3E3735",
"0  c #3B3B3A",
"q  c #480000",
"w  c #590000",
"e  c #561015",
"r  c #5C1116",
"t  c #630000",
"y  c #7C0000",
"u  c #7C161D",
"i  c #45302A",
"p  c #463D34",
"a  c #59421F",
"s  c #46403B",
"d  c #624B36",
"f  c #6B553F",
"g  c #0A2C4D",
"h  c #172F47",
"j  c #1A334C",
"k  c #0B3055",
"l  c #0E3459",
"z  c #1C3854",
"x  c #203E5D",
"c  c #113E6B",
"v  c #20405F",
"b  c #234669",
"n  c #25486D",
"m  c #214060",
"M  c #274D73",
"N  c #2B547D",
"B  c #285077",
"V  c #4C4C4C",
"C  c #444444",
"Z  c #5C4E40",
"A  c #5F564F",
"S  c #585858",
"D  c #675F56",
"F  c #7C7267",
"G  c #737271",
"H  c #686868",
"J  c #9C0000",
"K  c #A10000",
"L  c #AE0000",
"P  c #B00000",
"I  c #B90E13",
"U  c #AD141B",
"Y  c #B43C00",
"T  c #831920",
"R  c #8E1A23",
"E  c #9D1D27",
"W  c #921C24",
"Q  c #A31C25",
"!  c #A51F29",
"~  c #AF202A",
"^  c #B3222B",
"/  c #CD0304",
"(  c #C20A0D",
")  c #D50000",
"_  c #DB0C00",
"`  c #D80600",
"'  c #E11600",
"]  c #EC2E00",
"[  c #E72300",
"{  c #EE3200",
"}  c #F33D00",
"|  c #E14A00",
" . c #FB4E00",
".. c #FE5400",
"X. c #FE5A09",
"o. c #967759",
"O. c #83786D",
"+. c #DD6161",
"@. c #CF7C77",
"#. c #AC813D",
"$. c #B58C62",
"%. c #B19171",
"&. c #D39C49",
"*. c #FE8E56",
"=. c #D3AE58",
"-. c #ECAE51",
";. c #C5986B",
":. c #C59E78",
">. c #C5A07D",
",. c #2C5680",
"<. c #2E5A86",
"1. c #2F5F8D",
"2. c #305F8F",
"3. c #326496",
"4. c #336699",
"5. c #34699E",
"6. c #376EA4",
"7. c #3B75AF",
"8. c #437EB9",
"9. c #4480BC",
"0. c #9A9A9A",
"q. c #979797",
"w. c #A99A8C",
"e. c #A19E9A",
"r. c #A3A3A3",
"t. c #AFAFAF",
"y. c #BFBFBF",
"u. c #B6B6B6",
"i. c #D19087",
"p. c #EC8D88",
"a. c #F18E89",
"s. c #FF938E",
"d. c #FF9F9B",
"f. c #C5AC94",
"g. c #C4B19F",
"h. c #FFA39A",
"j. c #C2A1A4",
"k. c #C5B2A0",
"l. c #C8B9AB",
"z. c #C8BBB7",
"x. c #FFB3AF",
"c. c #E6AAAA",
"v. c #FFCC99",
"b. c #F8C49A",
"n. c #D4C3B2",
"m. c #FFCFA0",
"M. c #FDC2A5",
"N. c #FFD1A3",
"B. c #C5C5C5",
"V. c #CCCCCC",
"C. c #DBDBDB",
"Z. c #D3D3D3",
"A. c #FFDAC8",
"S. c #E8D2D2",
"D. c #FFE0C2",
"F. c #FBE2CE",
"G. c #FFEAD5",
"H. c #F9E4D0",
"J. c #FFF0DF",
"K. c #E6E6E6",
"L. c #ECECEC",
"P. c #F3F3F3",
"I. c #FEFEFE",
"U. c None",
/* pixels */
"U.U.U.U.U.U.U.U.U.U.U.U.U.U.U.U.U.U.U.U.U.U.U.U.U.U.U.U.U.U.U.U.U.U.U.U.U.U.U.U.U.U.U.U.U.U.U.U.U.U.U.U.U.U.U.U.U.U.U.U.U.U.U.U.U.U.U.U.U.U.",
"U.U.U.U.U.U.U.U.U.U.U.U.U.U.U.U.U.U.U.U.U.U.U.U.U.U.U.U.U.U.U.U.U.U.U.U.U.U.U.U.U.U.U.U.U.U.U.U.U.U.U.U.U.U.U.U.U.U.U.U.U.U.U.U.U.U.U.U.U.U.",
"U.U.U.U.U.U.U.U.U.U.U.U.U.U.U.U.U.U.U.U.U.U.U.U.U.U.U.U.U.U.U.U.U.U.U.U.U.U.U.U.U.U.U.U.U.U.U.U.U.U.U.U.U.U.U.U.U.U.U.U.U.U.U.U.U.U.U.U.U.U.",
"U.U.U.U.U.U.U.U.U.U.U.U.U.U.U.U.U.U.U.U.U.U.U.U.U.U.U.U.U.U.U.U.U.U.U.U.U.U.U.U.U.U.U.U.U.U.U.U.U.U.U.U.U.U.U.U.U.U.U.U.U.U.U.U.U.U.U.U.U.U.",
"U.U.U.U.U.U.U.U.U.U.U.U.U.U.U.U.U.U.U.U.U.U.U.U.U.U.U.U.U.U.U.U.U.U.U.U.U.U.U.U.U.U.U.U.U.U.U.U.U.U.U.U.U.U.U.U.U.U.U.U.U.U.U.U.U.U.U.U.U.U.",
"U.U.U.U.U.U.U.U.U.U.U.U.U.U.U.U.U.U.U.U.U.U.U.U.U.U.U.U.U.U.U.U.U.U.U.U.U.U.U.U.U.U.U.U.U.U.U.U.U.U.U.U.U.U.U.U.U.U.U.U.U.U.U.U.U.U.U.U.U.U.",
"U.U.U.U.U.U.U.U.U.U.U.U.U.U.U.U.U.U.U.U.U.U.U.U.U.U.U.U.U.U.U.U.U.U.U.U.U.U.          U.U.U.U.U.U.U.U.U.U.U.U.U.U.U.U.U.U.U.U.U.U.U.U.U.U.U.",
"U.U.U.U.U.U.U.U.U.U.U.U.U.U.U.U.U.U.U.U.U.U.U.U.U.U.U.U.U.U.U.U.U.U.U.U.    ) ' ....)   U.U.U.U.U.U.U.U.U.U.U.U.U.U.U.U.U.U.U.U.U.U.U.U.U.U.",
"U.U.U.U.U.U.U.U.U.U.U.U.U.U.U.U.U.U.U.U.U.U.U.U.U.U.U.U.U.U.U.U.U.U.U.  q _ ..*.I.I.I.)   U.U.U.U.U.U.U.U.U.U.U.U.U.U.U.U.U.U.U.U.U.U.U.U.U.",
"U.U.U.U.U.U.U.U.U.U.U.U.U.U.U.U.U.U.U.U.U.U.U.U.U.U.U.U.U.U.U.U.U.U.  w { ..I.I.I.I.I.P.; U.U.U.U.U.U.U.U.U.U.U.U.U.U.U.U.U.U.U.U.U.U.U.U.U.",
"U.U.U.U.U.U.U.U.U.U.U.U.U.U.U.U.U.U.U.U.U.U.U.U.U.U.U.U.U.U.U.U.U.  . [ ..I.I.I.P.I.P.P.P.  U.U.U.U.U.U.U.U.U.U.U.U.U.U.U.U.U.U.U.U.U.U.U.U.",
"U.U.U.U.U.U.U.U.U.U.U.U.U.U.U.U.U.U.U.U.U.U.U.U.U.U.U.U.        U.  ) ..I.I.P.P.P.P.P.P.P.  U.U.U.U.U.U.U.U.U.U.U.U.U.U.U.U.U.U.U.U.U.U.U.U.",
"U.U.U.U.U.U.U.U.U.U.U.U.U.U.U.U.U.U.U.U.U.U.U.U.U.U.U.  @ ....)   ) ..I.P.P.P.P.P.P.P.P.L.  U.U.U.U.U.U.U.U.U.U.U.U.U.U.U.U.U.U.U.U.U.U.U.U.",
"U.U.U.U.U.U.U.U.U.U.U.U.U.U.U.U.U.U.U.U.U.U.U.U.U.U.U.  ) ....  ) ..I.P.P.P.P.P.P.P.P.P.P.9 U.U.U.U.U.U.U.U.U.U.U.U.U.U.U.U.U.U.U.U.U.U.U.U.",
"U.U.U.U.U.U.U.U.U.U.U.U.U.U.U.U.U.U.U.U.U.U.U.U.U.U.U.1 ) <   ) X.I.P.P.P.P.P.P.P.P.L.L.L.z.  U.U.U.U.U.U.U.U.U.U.U.U.U.U.U.U.U.U.U.U.U.U.U.",
"U.U.U.U.U.U.U.U.U.U.U.U.U.U.U.U.U.U.U.U.U.U.U.U.U.U.U.    y ..M.I.L.P.L.P.L.L.L.L.L.L.L.L.V.  U.U.U.U.U.U.U.U.U.U.U.U.U.U.U.U.U.U.U.U.U.U.U.",
"U.U.U.U.U.U.U.U.U.U.U.U.U.U.U.U.U.U.U.U.U.U.U.U.U.    K } ..I.P.P.P.L.P.P.L.L.L.L.L.K.K.V.H   U.U.U.U.U.U.U.U.U.U.U.U.U.U.U.U.U.U.U.U.U.U.U.",
"U.U.U.U.U.U.U.U.U.U.U.U.U.U.U.U.U.U.U.U.U.U.U.    L } ..I.P.L.P.L.L.L.L.K.L.L.L.L.C.V.    e   U.U.U.U.U.U.U.U.U.U.U.U.U.U.U.U.U.U.U.U.U.U.U.",
"U.U.U.U.U.U.U.U.U.U.U.U.U.U.U.U.U.U.U.U.U.U.  y { ....I.L.L.L.L.K.L.L.L.L.K.K.Z.G     E ^ T T   U.U.U.U.U.U.U.U.U.U.U.U.U.U.U.U.U.U.U.U.U.U.",
"U.U.U.U.U.U.U.U.U.U.U.U.U.U.U.U.U.U.U.U.    _ ......c.L.L.L.K.L.L.K.K.L.Z.V.+   1 ^ ~ E E @       U.U.U.U.U.U.U.U.U.U.U.U.U.U.U.U.U.U.U.U.U.",
"U.U.U.U.U.U.U.U.U.U.U.U.U.U.U.U.U.U.U.     .....) ) S.L.L.K.L.K.K.Z.V.r.    W ^ ! E R     | ..` P   U.U.U.U.U.U.U.U.U.U.U.U.U.U.U.U.U.U.U.U.",
"U.U.U.U.U.U.U.U.U.U.U.U.U.U.U.U.U.U.U.  E E ) ) ) ) +.K.K.C.V.V.V.>   . ^ ^ E E @     ..........] )   U.U.U.U.U.U.U.U.U.U.U.U.U.U.U.U.U.U.U.",
"U.U.U.U.U.U.U.U.U.U.U.U.U.U.U.U.U.U.U.  E E E E E E Q V.V.V.y.    u ^ ! E E     Y ................_ )   U.U.U.U.U.U.U.U.U.U.U.U.U.U.U.U.U.U.",
"U.U.U.U.U.U.U.U.U.U.U.U.U.U.U.U.U.U.U.  E E E E E E Q t.s     ~ ^ E E 2     ........................) )   U.U.U.U.U.U.U.U.U.U.U.U.U.U.U.U.U.",
"U.U.U.U.U.U.U.U.U.U.U.U.U.U.U.U.U.U.U.  E E E E E E     e ^ E E E     t ) ) ] ......................) )   U.U.U.U.U.U.U.U.U.U.U.U.U.U.U.U.U.",
"U.U.U.U.U.U.U.U.U.U.U.U.U.U.U.U.U.U.U.U.  u E E     W ^ T T r     / ) ) ) ) ) ) ) ) ` }  ... .{ ) ) ) ) < U.U.U.U.U.U.U.U.U.U.U.U.U.U.U.U.U.",
"U.U.U.U.U.U.U.U.U.U.U.U.U.U.U.U.U.U.U.U.U.      E ! T T .     E ( ) ) ) ) ) ) ) ) ) ) ) ) ) ) ) ) ) ) /   U.U.U.U.U.U.U.U.U.U.U.U.U.U.U.U.U.",
"U.U.U.U.U.U.U.U.U.U.U.U.U.U.U.U.U.U.U.U.U.U.U.  1 u     &.-.=.  . E E / ) ) ) ) ) ) ) ) ) ) ) ) ) ) E   U.U.U.U.U.U.U.U.U.U.U.U.U.U.U.U.U.U.",
"U.U.U.U.U.U.U.U.U.U.U.U.U.U.U.U.U.U.U.U.U.U.U.U.  & -.-.-.-.-.-.4       W E ! E U ( / / ( I Q Q E .   U.U.U.U.U.U.U.U.U.U.U.U.U.U.U.U.U.U.U.",
"U.U.U.U.U.U.U.U.U.U.U.U.U.U.U.U.U.U.U.U.U.U.U.U.U.  -.-.-.-.-.-.  -.-.-.                          U.U.U.U.U.U.U.U.U.U.U.U.U.U.U.U.U.U.U.U.U.",
"U.U.U.U.U.U.U.U.U.U.U.U.U.U.U.U.U.U.U.U.U.U.U.U.U.  X   & -.-..       s G.#.a   G.  -.    F.L.  U.U.U.U.U.U.U.U.U.U.U.U.U.U.U.U.U.U.U.U.U.U.",
"U.U.U.U.U.U.U.U.U.U.U.U.U.U.U.U.U.U.U.U.U.U.U.U.U.  P.J.8 &.-.A D   I.K.#   G.G.G.  w.G.+ K.G U.U.U.U.U.U.U.U.U.U.U.U.U.U.U.U.U.U.U.U.U.U.U.",
"U.U.U.U.U.U.U.U.U.U.U.U.U.U.U.U.U.U.U.U.U.U.U.U.  I.G.v.N.3 . G.9   > >   G.G.G.G.G.G.H.; > ;   U.U.U.U.U.U.U.U.U.U.U.U.U.U.U.U.U.U.U.U.U.U.",
"U.U.U.U.U.U.U.U.U.U.U.U.U.U.U.U.U.U.U.U.U.U.U.U.  G.v.v.v.w.G.G.G.  > >   G.G.G.F.G.G.G.> > 8 9 U.U.U.U.U.U.U.U.U.U.U.U.U.U.U.U.U.U.U.U.U.U.",
"U.U.U.U.U.U.U.U.U.U.U.U.U.U.U.U.U.U.U.U.U.U.U.U.  G.v.v.v.v.G.G.F   > > % G.@.s.s.I.a.n.; > e.t.  U.U.U.U.U.U.U.U.U.U.U.U.U.U.U.U.U.U.U.U.U.",
"U.U.U.U.U.U.U.U.U.U.U.U.U.U.U.U.U.U.U.U.U.U.U.U.  G.G.v.v.v.G.G.G.      G.o s.s.s.s.s.    o I.  U.U.U.U.U.U.U.U.U.U.U.U.U.U.U.U.U.U.U.U.U.U.",
"U.U.U.U.U.U.U.U.U.U.U.U.U.U.U.U.U.U.U.U.U.U.U.U.U.  G.G.N.v.v.x.h.h.F G.G.+ s.s.s.s.s.  8 i.p.  U.U.U.U.U.U.U.U.U.U.U.U.U.U.U.U.U.U.U.U.U.U.",
"U.U.U.U.U.U.U.U.U.U.U.U.U.U.U.U.U.U.U.U.U.U.U.U.U.U.U.U.  , v.s.s.s.A.G.G.G.o.      % v.b.s.@.U.U.U.U.U.U.U.U.U.U.U.U.U.U.U.U.U.U.U.U.U.U.U.",
"U.U.U.U.U.U.U.U.U.U.U.U.U.U.U.U.U.U.U.U.U.U.U.U.U.U.U.U.U.U.      p b.v.v.v.v.v.v.v.Z     U.U.U.U.U.U.U.U.U.U.U.U.U.U.U.U.U.U.U.U.U.U.U.U.U.",
"U.U.U.U.U.U.U.U.U.U.U.U.U.U.U.U.U.U.U.U.U.U.U.U.U.U.U.U.. P.o     <.5               U.U.U.U.U.U.U.U.U.U.U.U.U.U.U.U.U.U.U.U.U.U.U.U.U.U.U.U.",
"U.U.U.U.U.U.U.U.U.U.U.U.U.U.U.U.U.U.U.U.U.U.U.U.U.U.U.C I.I.I.+ I.j 4.4.  I.I.  * B.  U.U.U.U.U.U.U.U.U.U.U.U.U.U.U.U.U.U.U.U.U.U.U.U.U.U.U.",
"U.U.U.U.U.U.U.U.U.U.U.U.U.U.U.U.U.U.U.U.U.U.U.U.U.U.C I.I.I.K.V.I.  4.4.z o o o 3.B.B.  U.U.U.U.U.U.U.U.U.U.U.U.U.U.U.U.U.U.U.U.U.U.U.U.U.U.",
"U.U.U.U.U.U.U.U.U.U.U.U.U.U.U.U.U.U.U.U.U.U.U.U.U.    I.I.K.K.o I.; 1.2.1.2.1.1.1.; B.  U.U.U.U.U.U.U.U.U.U.U.U.U.U.U.U.U.U.U.U.U.U.U.U.U.U.",
"U.U.U.U.U.U.U.U.U.U.U.U.U.U.U.U.U.U.U.U.U.U.U.U.U.  G.  K.K.V u.I.7   8.9.9.9.9.9.    k.  U.U.U.U.U.U.U.U.U.U.U.U.U.U.U.U.U.U.U.U.U.U.U.U.U.",
"U.U.U.U.U.U.U.U.U.U.U.U.U.U.U.U.U.U.U.U.U.U.U.U.  G.G.D.  S 0.8 h 4.  b n n n n M   g.k.k.  U.U.U.U.U.U.U.U.U.U.U.U.U.U.U.U.U.U.U.U.U.U.U.U.",
"U.U.U.U.U.U.U.U.U.U.U.U.U.U.U.U.U.U.U.U.U.U.U.  l.G.G.v.    m 4.4.4.  6.7.7.7.7.7.- $.k.k.p U.U.U.U.U.U.U.U.U.U.U.U.U.U.U.U.U.U.U.U.U.U.U.U.",
"U.U.U.U.U.U.U.U.U.U.U.U.U.U.U.U.U.U.U.U.U.U.U.  G.G.N.%.U.  ,.4.4.4.  6.7.7.7.7.7.v d >.k.k.  U.U.U.U.U.U.U.U.U.U.U.U.U.U.U.U.U.U.U.U.U.U.U.",
"U.U.U.U.U.U.U.U.U.U.U.U.U.U.U.U.U.U.U.U.U.U.U.: G.G.v.  U.  ,.<.4.4.O 4.7.7.7.7.9.b   ;.k.k.: U.U.U.U.U.U.U.U.U.U.U.U.U.U.U.U.U.U.U.U.U.U.U.",
"U.U.U.U.U.U.U.U.U.U.U.U.U.U.U.U.U.U.U.U.U.U.  n.I.G.N.+ U.  ,.N 4.4.4.  * * * *   z   ;.g.z.l.  U.U.U.U.U.U.U.U.U.U.U.U.U.U.U.U.U.U.U.U.U.U.",
"U.U.U.U.U.U.U.U.U.U.U.U.U.U.U.U.U.U.U.U.U.U.U.n.G.G.D.v.    - 3.4.4.,.2.3.3.3.<.,.  ;.:.g.k.g.  U.U.U.U.U.U.U.U.U.U.U.U.U.U.U.U.U.U.U.U.U.U.",
"U.U.U.U.U.U.U.U.U.U.U.U.U.U.U.U.U.U.U.U.U.U.U.  m.N.v.  U.  ,.4.4.7.j ,.,.,.,.,.  o X ;.f.f.% U.U.U.U.U.U.U.U.U.U.U.U.U.U.U.U.U.U.U.U.U.U.U.",
"U.U.U.U.U.U.U.U.U.U.U.U.U.U.U.U.U.U.U.U.U.U.U.U.    +   U.  ,.4.4.5.B - =       l c   f o.    U.U.U.U.U.U.U.U.U.U.U.U.U.U.U.U.U.U.U.U.U.U.U.",
"U.U.U.U.U.U.U.U.U.U.U.U.U.U.U.U.U.U.U.U.U.U.U.U.U.U.U.U.U.  ,.4.4.4.4.U.U.g k c c c 6 U.U.U.U.U.U.U.U.U.U.U.U.U.U.U.U.U.U.U.U.U.U.U.U.U.U.U.",
"U.U.U.U.U.U.U.U.U.U.U.U.U.U.U.U.U.U.U.U.U.U.U.U.U.U.U.U.U.  N N M n m U.U.  k k g o     U.U.U.U.U.U.U.U.U.U.U.U.U.U.U.U.U.U.U.U.U.U.U.U.U.U.",
"U.U.U.U.U.U.U.U.U.U.U.U.U.U.U.U.U.U.U.U.U.U.U.U.U.U.U.U.U.  C.K.K.K.  U.U.      r.B.t.  U.U.U.U.U.U.U.U.U.U.U.U.U.U.U.U.U.U.U.U.U.U.U.U.U.U.",
"U.U.U.U.U.U.U.U.U.U.U.U.U.U.U.U.U.U.U.U.U.U.U.U.U.U.U.U.U.                                    U.U.U.U.U.U.U.U.U.U.U.U.U.U.U.U.U.U.U.U.U.U.U.",
"U.U.U.U.U.U.U.U.U.U.U.U.U.U.U.U.U.U.U.U.U.U.U.U.U.U.U.U.  i ) /   K.K.I.I.K.  K w   t.t.B.B.r.  U.U.U.U.U.U.U.U.U.U.U.U.U.U.U.U.U.U.U.U.U.U.",
"U.U.U.U.U.U.U.U.U.U.U.U.U.U.U.U.U.U.U.U.U.U.U.U.U.U.U.U.  K.)   V.K.K.K.I.L.K.    r.t.t.t.y.t.0.  U.U.U.U.U.U.U.U.U.U.U.U.U.U.U.U.U.U.U.U.U.",
"U.U.U.U.U.U.U.U.U.U.U.U.U.U.U.U.U.U.U.U.U.U.U.U.U.U.U.U.  J q G V.K.K.K.K.K.K.  q.0.t.t.t.t.t.t.  U.U.U.U.U.U.U.U.U.U.U.U.U.U.U.U.U.U.U.U.U.",
"U.U.U.U.U.U.U.U.U.U.U.U.U.U.U.U.U.U.U.U.U.U.U.U.U.U.U.                                            U.U.U.U.U.U.U.U.U.U.U.U.U.U.U.U.U.U.U.U.U.",
"U.U.U.U.U.U.U.U.U.U.U.U.U.U.U.U.U.U.U.U.U.U.U.U.U.U.U.  V V.K.K.K.K.K.K.K.I.K.B.8 t.t.t.t.t.B.t.V U.U.U.U.U.U.U.U.U.U.U.U.U.U.U.U.U.U.U.U.U.",
"U.U.U.U.U.U.U.U.U.U.U.U.U.U.U.U.U.U.U.U.U.U.U.U.U.U.U.                                              U.U.U.U.U.U.U.U.U.U.U.U.U.U.U.U.U.U.U.U.",
"U.U.U.U.U.U.U.U.U.U.U.U.U.U.U.U.U.U.U.U.U.U.U.U.U.U.U.U.U.U.U.U.U.U.U.U.U.U.U.U.U.U.U.U.U.U.U.U.U.U.U.U.U.U.U.U.U.U.U.U.U.U.U.U.U.U.U.U.U.U.",
"U.U.U.U.U.U.U.U.U.U.U.U.U.U.U.U.U.U.U.U.U.U.U.U.U.U.U.U.U.U.U.U.U.U.U.U.U.U.U.U.U.U.U.U.U.U.U.U.U.U.U.U.U.U.U.U.U.U.U.U.U.U.U.U.U.U.U.U.U.U.",
"U.U.U.U.U.U.U.U.U.U.U.U.U.U.U.U.U.U.U.U.U.U.U.U.U.U.U.U.U.U.U.U.U.U.U.U.U.U.U.U.U.U.U.U.U.U.U.U.U.U.U.U.U.U.U.U.U.U.U.U.U.U.U.U.U.U.U.U.U.U.",
"U.U.U.U.U.U.U.U.U.U.U.U.U.U.U.U.U.U.U.U.U.U.U.U.U.U.U.U.U.U.U.U.U.U.U.U.U.U.U.U.U.U.U.U.U.U.U.U.U.U.U.U.U.U.U.U.U.U.U.U.U.U.U.U.U.U.U.U.U.U.",
"U.U.U.U.U.U.U.U.U.U.U.U.U.U.U.U.U.U.U.U.U.U.U.U.U.U.U.U.U.U.U.U.U.U.U.U.U.U.U.U.U.U.U.U.U.U.U.U.U.U.U.U.U.U.U.U.U.U.U.U.U.U.U.U.U.U.U.U.U.U.",
"U.U.U.U.U.U.U.U.U.U.U.U.U.U.U.U.U.U.U.U.U.U.U.U.U.U.U.U.U.U.U.U.U.U.U.U.U.U.U.U.U.U.U.U.U.U.U.U.U.U.U.U.U.U.U.U.U.U.U.U.U.U.U.U.U.U.U.U.U.U.",
"U.U.U.U.U.U.U.U.U.U.U.U.U.U.U.U.U.U.U.U.U.U.U.U.U.U.U.U.U.U.U.U.U.U.U.U.U.U.U.U.U.U.U.U.U.U.U.U.U.U.U.U.U.U.U.U.U.U.U.U.U.U.U.U.U.U.U.U.U.U.",
"U.U.U.U.U.U.U.U.U.U.U.U.U.U.U.U.U.U.U.U.U.U.U.U.U.U.U.U.U.U.U.U.U.U.U.U.U.U.U.U.U.U.U.U.U.U.U.U.U.U.U.U.U.U.U.U.U.U.U.U.U.U.U.U.U.U.U.U.U.U."
};
