/* XPM */
static char *result[] = {
/* columns rows colors chars-per-pixel */
"70 70 164 2 ",
"   c #000000",
".  c #0B0202",
"X  c #0C0905",
"o  c #020509",
"O  c #04090D",
"+  c #0B0A09",
"@  c #130203",
"#  c #130F0D",
"$  c #150F07",
"%  c #14110E",
"&  c #151007",
"*  c #070C13",
"=  c #080F16",
"-  c #0A131D",
";  c #131313",
":  c #1B1916",
">  c #1A1A1A",
",  c #1A1611",
"<  c #210000",
"1  c #2D0709",
"2  c #370A0D",
"3  c #251D0D",
"4  c #342813",
"5  c #0B1620",
"6  c #071C32",
"7  c #102030",
"8  c #292726",
"9  c #3E3735",
"0  c #3B3B3A",
"q  c #480000",
"w  c #590000",
"e  c #561015",
"r  c #5C1116",
"t  c #630000",
"y  c #7C0000",
"u  c #7C161D",
"i  c #45302A",
"p  c #463D34",
"a  c #59421F",
"s  c #46403B",
"d  c #624B36",
"f  c #6B553F",
"g  c #0A2C4D",
"h  c #172F47",
"j  c #1A334C",
"k  c #0B3055",
"l  c #0E3459",
"z  c #1C3854",
"x  c #203E5D",
"c  c #113E6B",
"v  c #20405F",
"b  c #234669",
"n  c #25486D",
"m  c #214060",
"M  c #274D73",
"N  c #2B547D",
"B  c #285077",
"V  c #4C4C4C",
"C  c #444444",
"Z  c #5C4E40",
"A  c #5F564F",
"S  c #585858",
"D  c #675F56",
"F  c #7C7267",
"G  c #737271",
"H  c #686868",
"J  c #9C0000",
"K  c #A10000",
"L  c #AE0000",
"P  c #B00000",
"I  c #B90E13",
"U  c #AD141B",
"Y  c #B43C00",
"T  c #831920",
"R  c #8E1A23",
"E  c #9D1D27",
"W  c #921C24",
"Q  c #A31C25",
"!  c #A51F29",
"~  c #AF202A",
"^  c #B3222B",
"/  c #CD0304",
"(  c #C20A0D",
")  c #D50000",
"_  c #DB0C00",
"`  c #D80600",
"'  c #E11600",
"]  c #EC2E00",
"[  c #E72300",
"{  c #EE3200",
"}  c #F33D00",
"|  c #E14A00",
" . c #FB4E00",
".. c #FE5400",
"X. c #FE5A09",
"o. c #967759",
"O. c #83786D",
"+. c #DD6161",
"@. c #CF7C77",
"#. c #AC813D",
"$. c #B58C62",
"%. c #B19171",
"&. c #D39C49",
"*. c #FE8E56",
"=. c #D3AE58",
"-. c #ECAE51",
";. c #C5986B",
":. c #C59E78",
">. c #C5A07D",
",. c #2C5680",
"<. c #2E5A86",
"1. c #2F5F8D",
"2. c #305F8F",
"3. c #326496",
"4. c #336699",
"5. c #34699E",
"6. c #376EA4",
"7. c #3B75AF",
"8. c #437EB9",
"9. c #4480BC",
"0. c #9A9A9A",
"q. c #979797",
"w. c #A99A8C",
"e. c #A19E9A",
"r. c #A3A3A3",
"t. c #AFAFAF",
"y. c #BFBFBF",
"u. c #B6B6B6",
"i. c #D19087",
"p. c #EC8D88",
"a. c #F18E89",
"s. c #FF938E",
"d. c #FF9F9B",
"f. c #C5AC94",
"g. c #C4B19F",
"h. c #FFA39A",
"j. c #C2A1A4",
"k. c #C5B2A0",
"l. c #C8B9AB",
"z. c #C8BBB7",
"x. c #FFB3AF",
"c. c #E6AAAA",
"v. c #FFCC99",
"b. c #F8C49A",
"n. c #D4C3B2",
"m. c #FFCFA0",
"M. c #FDC2A5",
"N. c #FFD1A3",
"B. c #C5C5C5",
"V. c #CCCCCC",
"C. c #DBDBDB",
"Z. c #D3D3D3",
"A. c #FFDAC8",
"S. c #E8D2D2",
"D. c #FFE0C2",
"F. c #FBE2CE",
"G. c #FFEAD5",
"H. c #F9E4D0",
"J. c #FFF0DF",
"K. c #E6E6E6",
"L. c #ECECEC",
"P. c #F3F3F3",
"I. c #FEFEFE",
"U. c None",
/* pixels */
"U.U.U.U.U.U.U.U.U.U.U.U.U.U.U.U.U.U.U.U.U.U.U.U.U.U.U.U.U.U.U.U.U.U.U.U.U.U.U.U.U.U.U.U.U.U.U.U.U.U.U.U.U.U.U.U.U.U.U.U.U.U.U.U.U.U.U.U.U.U.",
"U.U.U.U.U.U.U.U.U.U.U.U.U.U.U.U.U.U.U.U.U.U.U.U.U.U.U.U.U.U.U.U.U.U.U.U.U.U.U.U.U.U.U.U.U.U.U.U.U.U.U.U.U.U.U.U.U.U.U.U.U.U.U.U.U.U.U.U.U.U.",
"U.U.U.U.U.U.U.U.U.U.U.U.U.U.U.U.U.U.U.U.U.U.U.U.U.U.U.U.U.U.U.U.U.U.U.U.U.U.U.U.U.U.U.U.U.U.U.U.U.U.U.U.U.U.U.U.U.U.U.U.U.U.U.U.U.U.U.U.U.U.",
"U.U.U.U.U.U.U.U.U.U.U.U.U.U.U.U.U.U.U.U.U.U.U.U.U.U.U.U.U.U.U.U.U.U.U.U.U.U.U.U.U.U.U.U.U.U.U.U.U.U.U.U.U.U.U.U.U.U.U.U.U.U.U.U.U.U.U.U.U.U.",
"U.U.U.U.U.U.U.U.U.U.U.U.U.U.U.U.U.U.U.U.U.U.U.U.U.U.U.U.U.U.U.U.U.U.U.U.U.U.U.U.U.U.U.U.U.U.U.U.U.U.U.U.U.U.U.U.U.U.U.U.U.U.U.U.U.U.U.U.U.U.",
"U.U.U.U.U.U.U.U.U.U.U.U.U.U.U.U.U.U.U.U.U.U.U.U.U.U.U.U.U.U.U.U.U.U.U.U.U.U.U.U.U.U.U.U.U.U.U.U.U.U.U.U.U.U.U.U.U.U.U.U.U.U.U.U.U.U.U.U.U.U.",
"U.U.U.U.U.U.U.U.U.U.U.U.U.U.U.U.U.U.U.U.U.U.U.U.U.U.U.          U.U.U.U.U.U.U.U.U.U.U.U.U.U.U.U.U.U.U.U.U.U.U.U.U.U.U.U.U.U.U.U.U.U.U.U.U.U.",
"U.U.U.U.U.U.U.U.U.U.U.U.U.U.U.U.U.U.U.U.U.U.U.U.U.U.  ) ....' )     U.U.U.U.U.U.U.U.U.U.U.U.U.U.U.U.U.U.U.U.U.U.U.U.U.U.U.U.U.U.U.U.U.U.U.U.",
"U.U.U.U.U.U.U.U.U.U.U.U.U.U.U.U.U.U.U.U.U.U.U.U.U.  ) I.I.I.*..._ q   U.U.U.U.U.U.U.U.U.U.U.U.U.U.U.U.U.U.U.U.U.U.U.U.U.U.U.U.U.U.U.U.U.U.U.",
"U.U.U.U.U.U.U.U.U.U.U.U.U.U.U.U.U.U.U.U.U.U.U.U.U.; P.I.I.I.I.I...{ w   U.U.U.U.U.U.U.U.U.U.U.U.U.U.U.U.U.U.U.U.U.U.U.U.U.U.U.U.U.U.U.U.U.U.",
"U.U.U.U.U.U.U.U.U.U.U.U.U.U.U.U.U.U.U.U.U.U.U.U.  P.P.P.P.I.I.I.I...[ .   U.U.U.U.U.U.U.U.U.U.U.U.U.U.U.U.U.U.U.U.U.U.U.U.U.U.U.U.U.U.U.U.U.",
"U.U.U.U.U.U.U.U.U.U.U.U.U.U.U.U.U.U.U.U.U.U.U.U.  P.P.P.P.P.P.P.I.I...)   U.        U.U.U.U.U.U.U.U.U.U.U.U.U.U.U.U.U.U.U.U.U.U.U.U.U.U.U.U.",
"U.U.U.U.U.U.U.U.U.U.U.U.U.U.U.U.U.U.U.U.U.U.U.U.  P.P.P.P.P.P.P.P.P.I...)   ) ....@   U.U.U.U.U.U.U.U.U.U.U.U.U.U.U.U.U.U.U.U.U.U.U.U.U.U.U.",
"U.U.U.U.U.U.U.U.U.U.U.U.U.U.U.U.U.U.U.U.U.U.U.U.p L.P.L.P.P.P.P.P.P.P.I...)   ....)   U.U.U.U.U.U.U.U.U.U.U.U.U.U.U.U.U.U.U.U.U.U.U.U.U.U.U.",
"U.U.U.U.U.U.U.U.U.U.U.U.U.U.U.U.U.U.U.U.U.U.U.  z.L.L.P.P.L.P.L.P.P.P.P.I.X.)   < / 1 U.U.U.U.U.U.U.U.U.U.U.U.U.U.U.U.U.U.U.U.U.U.U.U.U.U.U.",
"U.U.U.U.U.U.U.U.U.U.U.U.U.U.U.U.U.U.U.U.U.U.U.o V.L.L.L.L.L.L.P.P.L.L.P.P.I.M...J     U.U.U.U.U.U.U.U.U.U.U.U.U.U.U.U.U.U.U.U.U.U.U.U.U.U.U.",
"U.U.U.U.U.U.U.U.U.U.U.U.U.U.U.U.U.U.U.U.U.U.U.  H V.K.L.L.L.L.L.L.L.L.L.P.P.L.I...} K     U.U.U.U.U.U.U.U.U.U.U.U.U.U.U.U.U.U.U.U.U.U.U.U.U.",
"U.U.U.U.U.U.U.U.U.U.U.U.U.U.U.U.U.U.U.U.U.U.U.  r     V.C.K.K.L.L.L.L.L.L.L.L.L.P.I...} L     U.U.U.U.U.U.U.U.U.U.U.U.U.U.U.U.U.U.U.U.U.U.U.",
"U.U.U.U.U.U.U.U.U.U.U.U.U.U.U.U.U.U.U.U.U.U.  T T ^ E     G Z.L.L.L.L.L.L.L.L.L.L.L.I.....{ y   U.U.U.U.U.U.U.U.U.U.U.U.U.U.U.U.U.U.U.U.U.U.",
"U.U.U.U.U.U.U.U.U.U.U.U.U.U.U.U.U.U.U.U.U.      . E E ~ ^ 1   + V.Z.K.L.K.L.L.L.L.L.L.c......._     U.U.U.U.U.U.U.U.U.U.U.U.U.U.U.U.U.U.U.U.",
"U.U.U.U.U.U.U.U.U.U.U.U.U.U.U.U.U.U.U.U.  P ` ..|     W E E ^ W     r.V.Z.K.K.L.L.L.L.S.) ) .... .    U.U.U.U.U.U.U.U.U.U.U.U.U.U.U.U.U.U.U.",
"U.U.U.U.U.U.U.U.U.U.U.U.U.U.U.U.U.U.U.  ) ] ..........    @ E E ^ ^ @   : V.V.V.C.K.K.+.) ) ) ) E E   U.U.U.U.U.U.U.U.U.U.U.U.U.U.U.U.U.U.U.",
"U.U.U.U.U.U.U.U.U.U.U.U.U.U.U.U.U.U.  ) _ ................Y     E E ! ^ u     B.V.V.V.E E E E E E E   U.U.U.U.U.U.U.U.U.U.U.U.U.U.U.U.U.U.U.",
"U.U.U.U.U.U.U.U.U.U.U.U.U.U.U.U.U.  ) ) ........................    2 E E ^ !     0 j.E E E E E E E   U.U.U.U.U.U.U.U.U.U.U.U.U.U.U.U.U.U.U.",
"U.U.U.U.U.U.U.U.U.U.U.U.U.U.U.U.U.  ) ) ......................] ) ) t     E E E ^ r     E E E E E E   U.U.U.U.U.U.U.U.U.U.U.U.U.U.U.U.U.U.U.",
"U.U.U.U.U.U.U.U.U.U.U.U.U.U.U.U.U.< ) ) ) ) {  ... .} ` ) ) ) ) ) ) ) ) /     r T T ^ W     E E u   U.U.U.U.U.U.U.U.U.U.U.U.U.U.U.U.U.U.U.U.",
"U.U.U.U.U.U.U.U.U.U.U.U.U.U.U.U.U.  / ) ) ) ) ) ) ) ) ) ) ) ) ) ) ) ) ) ) I E     @ T T ! E       U.U.U.U.U.U.U.U.U.U.U.U.U.U.U.U.U.U.U.U.U.",
"U.U.U.U.U.U.U.U.U.U.U.U.U.U.U.U.U.U.  E ) ) ) ) ) ) ) ) ) ) ) ) ) ) / E Q .   =.-.&.    u 1   U.U.U.U.U.U.U.U.U.U.U.U.U.U.U.U.U.U.U.U.U.U.U.",
"U.U.U.U.U.U.U.U.U.U.U.U.U.U.U.U.U.U.U.  . E E Q I ( / / ( U Q E E W .     4 -.-.-.-.-.-.$   U.U.U.U.U.U.U.U.U.U.U.U.U.U.U.U.U.U.U.U.U.U.U.U.",
"U.U.U.U.U.U.U.U.U.U.U.U.U.U.U.U.U.U.U.U.U.                          -.-.-.  -.-.-.-.-.-.  U.U.U.U.U.U.U.U.U.U.U.U.U.U.U.U.U.U.U.U.U.U.U.U.U.",
"U.U.U.U.U.U.U.U.U.U.U.U.U.U.U.U.U.U.U.U.U.U.  L.F.    -.  G.  a #.G.s         -.-.&   X   U.U.U.U.U.U.U.U.U.U.U.U.U.U.U.U.U.U.U.U.U.U.U.U.U.",
"U.U.U.U.U.U.U.U.U.U.U.U.U.U.U.U.U.U.U.U.U.U.U.G L.o G.w.  G.G.G.  # K.I.  D A -.&.8 J.P.  U.U.U.U.U.U.U.U.U.U.U.U.U.U.U.U.U.U.U.U.U.U.U.U.U.",
"U.U.U.U.U.U.U.U.U.U.U.U.U.U.U.U.U.U.U.U.U.U.  : > ; H.G.G.G.G.G.G.  > >   9 G.  3 N.v.G.I.  U.U.U.U.U.U.U.U.U.U.U.U.U.U.U.U.U.U.U.U.U.U.U.U.",
"U.U.U.U.U.U.U.U.U.U.U.U.U.U.U.U.U.U.U.U.U.U.9 8 > > G.G.G.F.G.H.G.  > >   G.G.G.w.v.v.v.G.  U.U.U.U.U.U.U.U.U.U.U.U.U.U.U.U.U.U.U.U.U.U.U.U.",
"U.U.U.U.U.U.U.U.U.U.U.U.U.U.U.U.U.U.U.U.U.  t.e.> ; n.a.I.s.s.@.G.% > >   F G.G.v.v.v.v.G.  U.U.U.U.U.U.U.U.U.U.U.U.U.U.U.U.U.U.U.U.U.U.U.U.",
"U.U.U.U.U.U.U.U.U.U.U.U.U.U.U.U.U.U.U.U.U.U.  I.o     s.s.s.s.s.o G.      G.G.G.v.v.v.G.G.  U.U.U.U.U.U.U.U.U.U.U.U.U.U.U.U.U.U.U.U.U.U.U.U.",
"U.U.U.U.U.U.U.U.U.U.U.U.U.U.U.U.U.U.U.U.U.U.  a.i.8   s.s.s.s.s.+ G.G.O.h.h.x.v.v.N.G.G.  U.U.U.U.U.U.U.U.U.U.U.U.U.U.U.U.U.U.U.U.U.U.U.U.U.",
"U.U.U.U.U.U.U.U.U.U.U.U.U.U.U.U.U.U.U.U.U.U.U.@.s.b.v.$       o.G.G.G.A.s.s.s.v.,   U.U.U.U.U.U.U.U.U.U.U.U.U.U.U.U.U.U.U.U.U.U.U.U.U.U.U.U.",
"U.U.U.U.U.U.U.U.U.U.U.U.U.U.U.U.U.U.U.U.U.U.U.U.U.    Z v.v.v.v.v.v.v.b.p       U.U.U.U.U.U.U.U.U.U.U.U.U.U.U.U.U.U.U.U.U.U.U.U.U.U.U.U.U.U.",
"U.U.U.U.U.U.U.U.U.U.U.U.U.U.U.U.U.U.U.U.U.U.U.U.U.U.U.U.              5 <.    o P.+ U.U.U.U.U.U.U.U.U.U.U.U.U.U.U.U.U.U.U.U.U.U.U.U.U.U.U.U.",
"U.U.U.U.U.U.U.U.U.U.U.U.U.U.U.U.U.U.U.U.U.U.U.U.U.U.U.  B.O o I.I.  4.4.h I.+ I.I.I.C U.U.U.U.U.U.U.U.U.U.U.U.U.U.U.U.U.U.U.U.U.U.U.U.U.U.U.",
"U.U.U.U.U.U.U.U.U.U.U.U.U.U.U.U.U.U.U.U.U.U.U.U.U.U.  B.B.3.o o o z 4.4.  I.V.K.I.I.I.C U.U.U.U.U.U.U.U.U.U.U.U.U.U.U.U.U.U.U.U.U.U.U.U.U.U.",
"U.U.U.U.U.U.U.U.U.U.U.U.U.U.U.U.U.U.U.U.U.U.U.U.U.U.  B.; 1.1.1.1.1.1.1.; I.o K.K.I.I.    U.U.U.U.U.U.U.U.U.U.U.U.U.U.U.U.U.U.U.U.U.U.U.U.U.",
"U.U.U.U.U.U.U.U.U.U.U.U.U.U.U.U.U.U.U.U.U.U.U.U.U.  k.    9.9.9.9.9.8.  7 I.u.V K.K.  G.  U.U.U.U.U.U.U.U.U.U.U.U.U.U.U.U.U.U.U.U.U.U.U.U.U.",
"U.U.U.U.U.U.U.U.U.U.U.U.U.U.U.U.U.U.U.U.U.U.U.U.  k.k.g.  M n n n n b   4.j 8 0.S   D.G.G.  U.U.U.U.U.U.U.U.U.U.U.U.U.U.U.U.U.U.U.U.U.U.U.U.",
"U.U.U.U.U.U.U.U.U.U.U.U.U.U.U.U.U.U.U.U.U.U.U.U.p k.k.$.- 7.7.7.7.7.6.  4.4.4.x     v.G.G.l.  U.U.U.U.U.U.U.U.U.U.U.U.U.U.U.U.U.U.U.U.U.U.U.",
"U.U.U.U.U.U.U.U.U.U.U.U.U.U.U.U.U.U.U.U.U.U.U.  k.k.>.d z 7.7.7.7.7.6.  4.4.4.,.  U.%.N.G.G.  U.U.U.U.U.U.U.U.U.U.U.U.U.U.U.U.U.U.U.U.U.U.U.",
"U.U.U.U.U.U.U.U.U.U.U.U.U.U.U.U.U.U.U.U.U.U.U.: k.g.;.o n 9.7.7.7.7.4.O 4.4.<.,.  U.  v.G.G.: U.U.U.U.U.U.U.U.U.U.U.U.U.U.U.U.U.U.U.U.U.U.U.",
"U.U.U.U.U.U.U.U.U.U.U.U.U.U.U.U.U.U.U.U.U.U.  l.z.g.;.  z   * * * *   4.4.4.,.,.  U.+ N.G.I.n.  U.U.U.U.U.U.U.U.U.U.U.U.U.U.U.U.U.U.U.U.U.U.",
"U.U.U.U.U.U.U.U.U.U.U.U.U.U.U.U.U.U.U.U.U.U.  g.g.g.:.;.  ,.<.3.3.3.3.,.3.4.3.-     v.D.G.G.n.U.U.U.U.U.U.U.U.U.U.U.U.U.U.U.U.U.U.U.U.U.U.U.",
"U.U.U.U.U.U.U.U.U.U.U.U.U.U.U.U.U.U.U.U.U.U.U.% f.f.;.o o   ,.N N ,.N j 7.4.4.,.  U.  v.v.N.  U.U.U.U.U.U.U.U.U.U.U.U.U.U.U.U.U.U.U.U.U.U.U.",
"U.U.U.U.U.U.U.U.U.U.U.U.U.U.U.U.U.U.U.U.U.U.U.    o.f   c l       = - N 5.4.4.,.  U.  +     U.U.U.U.U.U.U.U.U.U.U.U.U.U.U.U.U.U.U.U.U.U.U.U.",
"U.U.U.U.U.U.U.U.U.U.U.U.U.U.U.U.U.U.U.U.U.U.U.U.U.U.U.6 c c c k g U.U.4.4.4.4.N   U.U.U.U.U.U.U.U.U.U.U.U.U.U.U.U.U.U.U.U.U.U.U.U.U.U.U.U.U.",
"U.U.U.U.U.U.U.U.U.U.U.U.U.U.U.U.U.U.U.U.U.U.U.U.U.U.    o g l l   U.U.m b M N N   U.U.U.U.U.U.U.U.U.U.U.U.U.U.U.U.U.U.U.U.U.U.U.U.U.U.U.U.U.",
"U.U.U.U.U.U.U.U.U.U.U.U.U.U.U.U.U.U.U.U.U.U.U.U.U.U.  t.B.r.      U.U.  K.L.K.C.  U.U.U.U.U.U.U.U.U.U.U.U.U.U.U.U.U.U.U.U.U.U.U.U.U.U.U.U.U.",
"U.U.U.U.U.U.U.U.U.U.U.U.U.U.U.U.U.U.U.U.U.U.U.                                    U.U.U.U.U.U.U.U.U.U.U.U.U.U.U.U.U.U.U.U.U.U.U.U.U.U.U.U.U.",
"U.U.U.U.U.U.U.U.U.U.U.U.U.U.U.U.U.U.U.U.U.U.  r.B.B.t.t.  w K   K.I.I.K.K.  / ) i   U.U.U.U.U.U.U.U.U.U.U.U.U.U.U.U.U.U.U.U.U.U.U.U.U.U.U.U.",
"U.U.U.U.U.U.U.U.U.U.U.U.U.U.U.U.U.U.U.U.U.  0.t.y.t.t.t.r.    K.L.I.K.K.K.V.  ) K.  U.U.U.U.U.U.U.U.U.U.U.U.U.U.U.U.U.U.U.U.U.U.U.U.U.U.U.U.",
"U.U.U.U.U.U.U.U.U.U.U.U.U.U.U.U.U.U.U.U.U.  t.t.t.t.t.t.0.q.  K.K.K.K.K.K.V.G q J   U.U.U.U.U.U.U.U.U.U.U.U.U.U.U.U.U.U.U.U.U.U.U.U.U.U.U.U.",
"U.U.U.U.U.U.U.U.U.U.U.U.U.U.U.U.U.U.U.U.U.                                            U.U.U.U.U.U.U.U.U.U.U.U.U.U.U.U.U.U.U.U.U.U.U.U.U.U.U.",
"U.U.U.U.U.U.U.U.U.U.U.U.U.U.U.U.U.U.U.U.U.V t.B.t.t.t.t.t.8 B.K.I.K.K.K.K.K.K.K.V.V   U.U.U.U.U.U.U.U.U.U.U.U.U.U.U.U.U.U.U.U.U.U.U.U.U.U.U.",
"U.U.U.U.U.U.U.U.U.U.U.U.U.U.U.U.U.U.U.U.                                              U.U.U.U.U.U.U.U.U.U.U.U.U.U.U.U.U.U.U.U.U.U.U.U.U.U.U.",
"U.U.U.U.U.U.U.U.U.U.U.U.U.U.U.U.U.U.U.U.U.U.U.U.U.U.U.U.U.U.U.U.U.U.U.U.U.U.U.U.U.U.U.U.U.U.U.U.U.U.U.U.U.U.U.U.U.U.U.U.U.U.U.U.U.U.U.U.U.U.",
"U.U.U.U.U.U.U.U.U.U.U.U.U.U.U.U.U.U.U.U.U.U.U.U.U.U.U.U.U.U.U.U.U.U.U.U.U.U.U.U.U.U.U.U.U.U.U.U.U.U.U.U.U.U.U.U.U.U.U.U.U.U.U.U.U.U.U.U.U.U.",
"U.U.U.U.U.U.U.U.U.U.U.U.U.U.U.U.U.U.U.U.U.U.U.U.U.U.U.U.U.U.U.U.U.U.U.U.U.U.U.U.U.U.U.U.U.U.U.U.U.U.U.U.U.U.U.U.U.U.U.U.U.U.U.U.U.U.U.U.U.U.",
"U.U.U.U.U.U.U.U.U.U.U.U.U.U.U.U.U.U.U.U.U.U.U.U.U.U.U.U.U.U.U.U.U.U.U.U.U.U.U.U.U.U.U.U.U.U.U.U.U.U.U.U.U.U.U.U.U.U.U.U.U.U.U.U.U.U.U.U.U.U.",
"U.U.U.U.U.U.U.U.U.U.U.U.U.U.U.U.U.U.U.U.U.U.U.U.U.U.U.U.U.U.U.U.U.U.U.U.U.U.U.U.U.U.U.U.U.U.U.U.U.U.U.U.U.U.U.U.U.U.U.U.U.U.U.U.U.U.U.U.U.U.",
"U.U.U.U.U.U.U.U.U.U.U.U.U.U.U.U.U.U.U.U.U.U.U.U.U.U.U.U.U.U.U.U.U.U.U.U.U.U.U.U.U.U.U.U.U.U.U.U.U.U.U.U.U.U.U.U.U.U.U.U.U.U.U.U.U.U.U.U.U.U.",
"U.U.U.U.U.U.U.U.U.U.U.U.U.U.U.U.U.U.U.U.U.U.U.U.U.U.U.U.U.U.U.U.U.U.U.U.U.U.U.U.U.U.U.U.U.U.U.U.U.U.U.U.U.U.U.U.U.U.U.U.U.U.U.U.U.U.U.U.U.U.",
"U.U.U.U.U.U.U.U.U.U.U.U.U.U.U.U.U.U.U.U.U.U.U.U.U.U.U.U.U.U.U.U.U.U.U.U.U.U.U.U.U.U.U.U.U.U.U.U.U.U.U.U.U.U.U.U.U.U.U.U.U.U.U.U.U.U.U.U.U.U."
};
