/* XPM */
static char *result[] = {
/* columns rows colors chars-per-pixel */
"70 70 167 2 ",
"   c #000000",
".  c #0B0303",
"X  c #03060A",
"o  c #04080C",
"O  c #090909",
"+  c #080807",
"@  c #120303",
"#  c #1A0604",
"$  c #1A150D",
"%  c #070E15",
"&  c #0A141F",
"*  c #1A1612",
"=  c #1A1A1A",
"-  c gray7",
";  c #390709",
":  c #291E0E",
">  c #391300",
",  c #201B16",
"<  c #26211C",
"1  c #3E3016",
"2  c #0F1E2D",
"3  c #081521",
"4  c #07213A",
"5  c #13263A",
"6  c #2C2C2C",
"7  c #34302C",
"8  c #3B3835",
"9  c #5D0000",
"0  c #540F15",
"q  c #5A1116",
"w  c #6D0000",
"e  c #790000",
"r  c #6F0C10",
"t  c #6B141A",
"y  c #77161D",
"u  c #4B3E32",
"i  c #5F4620",
"p  c #48433D",
"a  c #594735",
"s  c #7E5E2C",
"d  c #162B42",
"f  c #1A354F",
"g  c #0B3055",
"h  c #1F3E5D",
"j  c #092A4A",
"k  c #0E3760",
"l  c #113E6B",
"z  c #224567",
"x  c #274E75",
"c  c #284E75",
"v  c #29527B",
"b  c #5E4646",
"n  c #565656",
"m  c #464646",
"M  c #7B4644",
"N  c #775F47",
"B  c #796048",
"V  c gray42",
"C  c #696665",
"Z  c #7D7D7D",
"A  c #8B0000",
"S  c #841219",
"D  c #A30000",
"F  c #B40000",
"G  c #BF0B0F",
"H  c #BD0000",
"J  c #BB0D12",
"K  c #AD151C",
"L  c #B21219",
"P  c #831920",
"I  c #8C1922",
"U  c #931B23",
"Y  c #9D1D27",
"T  c #A11D26",
"R  c #A61F28",
"E  c #AE2029",
"W  c #B3222B",
"Q  c #CB0304",
"!  c #C90608",
"~  c #C60000",
"^  c #D50000",
"/  c #DA0A00",
"(  c #E01700",
")  c #E21A00",
"_  c #EB2D00",
"`  c #E72300",
"'  c #EF3500",
"]  c #F23A00",
"[  c #A07839",
"{  c #FA4B00",
"}  c #F64200",
"|  c #F55100",
" . c #FE5400",
".. c #FE5907",
"X. c #FE5D0E",
"o. c #FE5F10",
"O. c #84684C",
"+. c #847C76",
"@. c #D97D79",
"#. c #A18444",
"$. c #BF9044",
"%. c #9A8B7E",
"&. c #B58B62",
"*. c #FE8245",
"=. c #E6A94F",
"-. c #EDAE51",
";. c #C5996C",
":. c #C8817A",
">. c #C59D77",
",. c #2C5680",
"<. c #2D5984",
"1. c #2E5D8B",
"2. c #305F8F",
"3. c #316294",
"4. c #336699",
"5. c #34699D",
"6. c #366CA1",
"7. c #3B75AF",
"8. c #3F78B0",
"9. c #437FBA",
"0. c #9C8E81",
"q. c #9D9083",
"w. c #989898",
"e. c #898989",
"r. c #B39A93",
"t. c #AFA092",
"y. c #B7A999",
"u. c #AFAFAF",
"i. c #A2A2A2",
"p. c gray71",
"a. c #BCBCBC",
"s. c #B8B6B5",
"d. c #FF938E",
"f. c #FF9C98",
"g. c #C5AD96",
"h. c #C0AE9C",
"j. c #C5A586",
"k. c #FDA596",
"l. c #C1AEAF",
"z. c #C5B2A0",
"x. c #FEACA2",
"c. c #FFCC99",
"v. c #DDCBB9",
"b. c #FFCFA0",
"n. c #FFC7AB",
"m. c #FFD0A2",
"M. c #FFDCB9",
"N. c #C4C4C4",
"B. c #CCCCCC",
"V. c #DECCCC",
"C. c #D5D5D5",
"Z. c #DFDFDF",
"A. c #E6D4C0",
"S. c #FFDECB",
"D. c #E7D1D1",
"F. c #FFDAD8",
"G. c #FBE6D1",
"H. c #FFEAD5",
"J. c #FFEDDA",
"K. c #E6E6E6",
"L. c #ECECEC",
"P. c #FFF6EC",
"I. c #FFF0E0",
"U. c #F3F3F3",
"Y. c #FFFFFF",
"T. c #FEF7F3",
"R. c None",
/* pixels */
"R.R.R.R.R.R.R.R.R.R.R.R.R.R.R.R.R.R.R.R.R.R.R.R.R.R.R.R.R.R.R.R.R.R.R.R.R.R.R.R.R.R.R.R.R.R.R.R.R.R.R.R.R.R.R.R.R.R.R.R.R.R.R.R.R.R.R.R.R.R.",
"R.R.R.R.R.R.R.R.R.R.R.R.R.R.R.R.R.R.R.R.R.R.R.R.R.R.R.R.R.R.R.R.R.R.R.R.R.R.R.R.R.R.R.R.R.R.R.R.R.R.R.R.R.R.R.R.R.R.R.R.R.R.R.R.R.R.R.R.R.R.",
"R.R.R.R.R.R.R.R.R.R.R.R.R.R.R.R.R.R.R.R.R.R.R.R.R.R.R.R.R.R.R.R.R.R.R.R.R.R.R.R.R.R.R.R.R.R.R.R.R.R.R.R.R.R.R.R.R.R.R.R.R.R.R.R.R.R.R.R.R.R.",
"R.R.R.R.R.R.R.R.R.R.R.R.R.R.R.R.R.R.R.R.R.R.R.R.R.R.R.R.R.R.R.R.R.R.R.R.R.R.R.R.R.R.R.R.R.R.R.R.R.R.R.R.R.R.R.R.R.R.R.R.R.R.R.R.R.R.R.R.R.R.",
"R.R.R.R.R.R.R.R.R.R.R.R.R.R.R.R.R.R.R.R.R.R.R.R.R.R.R.R.R.R.R.R.R.R.R.R.R.R.R.R.R.R.R.R.R.R.R.R.R.R.R.R.R.R.R.R.R.R.R.R.R.R.R.R.R.R.R.R.R.R.",
"R.R.R.R.R.R.R.R.R.R.R.R.R.R.R.R.R.R.R.R.R.R.R.R.R.R.R.R.R.R.R.R.R.R.R.R.R.R.R.R.R.R.R.R.R.R.R.R.R.R.R.R.R.R.R.R.R.R.R.R.R.R.R.R.R.R.R.R.R.R.",
"R.R.R.R.R.R.R.R.R.R.R.R.R.R.R.R.R.R.R.R.R.R.R.R.R.R.R.R.R.R.R.R.R.R.R.R.R.R.    .     R.R.R.R.R.R.R.R.R.R.R.R.R.R.R.R.R.R.R.R.R.R.R.R.R.R.R.",
"R.R.R.R.R.R.R.R.R.R.R.R.R.R.R.R.R.R.R.R.R.R.R.R.R.R.R.R.R.R.R.R.R.R.R.R.    ^ _  .{ ^   R.R.R.R.R.R.R.R.R.R.R.R.R.R.R.R.R.R.R.R.R.R.R.R.R.R.",
"R.R.R.R.R.R.R.R.R.R.R.R.R.R.R.R.R.R.R.R.R.R.R.R.R.R.R.R.R.R.R.R.R.R.R.  D `  .n.Y.Y.Y.Q   R.R.R.R.R.R.R.R.R.R.R.R.R.R.R.R.R.R.R.R.R.R.R.R.R.",
"R.R.R.R.R.R.R.R.R.R.R.R.R.R.R.R.R.R.R.R.R.R.R.R.R.R.R.R.R.R.R.R.R.R.  F  . .Y.Y.Y.Y.U.T.  R.R.R.R.R.R.R.R.R.R.R.R.R.R.R.R.R.R.R.R.R.R.R.R.R.",
"R.R.R.R.R.R.R.R.R.R.R.R.R.R.R.R.R.R.R.R.R.R.R.R.R.R.R.R.R.R.R.R.R.  9 } o.Y.Y.Y.Y.U.T.U.V.  R.R.R.R.R.R.R.R.R.R.R.R.R.R.R.R.R.R.R.R.R.R.R.R.",
"R.R.R.R.R.R.R.R.R.R.R.R.R.R.R.R.R.R.R.R.R.R.R.R.R.R.R.R.        R.  ) X.Y.Y.U.U.U.U.U.U.U.  R.R.R.R.R.R.R.R.R.R.R.R.R.R.R.R.R.R.R.R.R.R.R.R.",
"R.R.R.R.R.R.R.R.R.R.R.R.R.R.R.R.R.R.R.R.R.R.R.R.R.R.R.  e  . .^   ^ ..Y.U.U.U.U.U.U.U.U.U.  R.R.R.R.R.R.R.R.R.R.R.R.R.R.R.R.R.R.R.R.R.R.R.R.",
"R.R.R.R.R.R.R.R.R.R.R.R.R.R.R.R.R.R.R.R.R.R.R.R.R.R.R.  (  . .  ^ o.Y.U.U.U.U.U.U.U.L.L.L.  R.R.R.R.R.R.R.R.R.R.R.R.R.R.R.R.R.R.R.R.R.R.R.R.",
"R.R.R.R.R.R.R.R.R.R.R.R.R.R.R.R.R.R.R.R.R.R.R.R.R.R.  S ^     ( *.Y.U.U.U.U.U.L.L.U.U.U.L.b R.R.R.R.R.R.R.R.R.R.R.R.R.R.R.R.R.R.R.R.R.R.R.R.",
"R.R.R.R.R.R.R.R.R.R.R.R.R.R.R.R.R.R.R.R.R.R.R.R.R.R.R.    H  .T.U.U.L.U.L.L.L.L.U.L.L.L.L.s.  R.R.R.R.R.R.R.R.R.R.R.R.R.R.R.R.R.R.R.R.R.R.R.",
"R.R.R.R.R.R.R.R.R.R.R.R.R.R.R.R.R.R.R.R.R.R.R.R.R.    ~ { X.Y.U.L.L.L.U.L.L.L.L.L.L.L.C.B.m   R.R.R.R.R.R.R.R.R.R.R.R.R.R.R.R.R.R.R.R.R.R.R.",
"R.R.R.R.R.R.R.R.R.R.R.R.R.R.R.R.R.R.R.R.R.R.R.    ^  . .Y.U.L.L.U.L.L.L.L.L.L.K.L.C.a.    t   R.R.R.R.R.R.R.R.R.R.R.R.R.R.R.R.R.R.R.R.R.R.R.",
"R.R.R.R.R.R.R.R.R.R.R.R.R.R.R.R.R.R.R.R.R.    F {  ...U.U.L.L.L.L.L.L.L.K.K.L.B.8   . E W P t   R.R.R.R.R.R.R.R.R.R.R.R.R.R.R.R.R.R.R.R.R.R.",
"R.R.R.R.R.R.R.R.R.R.R.R.R.R.R.R.R.R.R.R.    _  . .} L.L.L.L.L.L.L.K.L.L.B.B.    q W R Y U         R.R.R.R.R.R.R.R.R.R.R.R.R.R.R.R.R.R.R.R.R.",
"R.R.R.R.R.R.R.R.R.R.R.R.R.R.R.R.R.R.R.  ;  . .} ^ ^ L.L.L.L.L.K.K.B.B.C     R W Y Y q      . .^ w   R.R.R.R.R.R.R.R.R.R.R.R.R.R.R.R.R.R.R.R.",
"R.R.R.R.R.R.R.R.R.R.R.R.R.R.R.R.R.R.R.  Y T ^ ^ ^ ^ D.K.K.C.B.B.B.X   ; W E Y Y     >  . . . . ./ ^   R.R.R.R.R.R.R.R.R.R.R.R.R.R.R.R.R.R.R.",
"R.R.R.R.R.R.R.R.R.R.R.R.R.R.R.R.R.R.R.r Y Y Y Y Y Y Y B.B.B.w.    Y W Y Y I     |  ... . . . . . .^ ^   R.R.R.R.R.R.R.R.R.R.R.R.R.R.R.R.R.R.",
"R.R.R.R.R.R.R.R.R.R.R.R.R.R.R.R.R.R.R.@ Y Y Y Y Y Y Y B.-   # W E Y Y @   #  . . . . . . . . . . . .^ ~   R.R.R.R.R.R.R.R.R.R.R.R.R.R.R.R.R.",
"R.R.R.R.R.R.R.R.R.R.R.R.R.R.R.R.R.R.R.  Y Y Y Y Y I     y W I Y I     D ^ ^ '  . . . . . . . . . . .^ ^   R.R.R.R.R.R.R.R.R.R.R.R.R.R.R.R.R.",
"R.R.R.R.R.R.R.R.R.R.R.R.R.R.R.R.R.R.R.R.  U T U   . T W P P ;     ^ ^ ^ ^ ^ ^ ^ ^ ^ / ] {  .{ ` ^ ^ ^ ^   R.R.R.R.R.R.R.R.R.R.R.R.R.R.R.R.R.",
"R.R.R.R.R.R.R.R.R.R.R.R.R.R.R.R.R.R.R.R.R.      W U P P       R ! ^ ^ ^ ^ ^ ^ ^ ^ ^ ^ ^ ^ ^ ^ ^ ^ ^ ^ J   R.R.R.R.R.R.R.R.R.R.R.R.R.R.R.R.R.",
"R.R.R.R.R.R.R.R.R.R.R.R.R.R.R.R.R.R.R.R.R.R.R.  0 0     =.-.#.  @ Y Y ! ^ ^ ^ ^ ^ ^ ^ ^ ^ ^ ^ ^ ^ ^ Y   R.R.R.R.R.R.R.R.R.R.R.R.R.R.R.R.R.R.",
"R.R.R.R.R.R.R.R.R.R.R.R.R.R.R.R.R.R.R.R.R.R.R.R.  i -.-.-.-.-.-.      @ I Y Y Y K ! ! ! G L T Y Y     R.R.R.R.R.R.R.R.R.R.R.R.R.R.R.R.R.R.R.",
"R.R.R.R.R.R.R.R.R.R.R.R.R.R.R.R.R.R.R.R.R.R.R.R.R.: -.-.-.-.-.-.  -.-.=.                          R.R.R.R.R.R.R.R.R.R.R.R.R.R.R.R.R.R.R.R.R.",
"R.R.R.R.R.R.R.R.R.R.R.R.R.R.R.R.R.R.R.R.R.R.R.R.R.      1 -.-.        y.z.-.$ < H.  $.    H.+.R.R.R.R.R.R.R.R.R.R.R.R.R.R.R.R.R.R.R.R.R.R.R.",
"R.R.R.R.R.R.R.R.R.R.R.R.R.R.R.R.R.R.R.R.R.R.R.R.R.  Y.J.+ -.[ v.q.  Y.Z   + H.H.H.+ A.J.V Z + R.R.R.R.R.R.R.R.R.R.R.R.R.R.R.R.R.R.R.R.R.R.R.",
"R.R.R.R.R.R.R.R.R.R.R.R.R.R.R.R.R.R.R.R.R.R.R.R.  P.H.c.c.O.8 H.  + = = p H.H.H.H.H.H.+.= =     R.R.R.R.R.R.R.R.R.R.R.R.R.R.R.R.R.R.R.R.R.R.",
"R.R.R.R.R.R.R.R.R.R.R.R.R.R.R.R.R.R.R.R.R.R.R.R.  H.c.c.c.M.H.H.H.O = =   H.H.H.S.H.H.H.= =   + R.R.R.R.R.R.R.R.R.R.R.R.R.R.R.R.R.R.R.R.R.R.",
"R.R.R.R.R.R.R.R.R.R.R.R.R.R.R.R.R.R.R.R.R.R.R.R.+ H.c.c.c.M.H.H.    = = t.H.d.d.f.Y.:.p = = O V R.R.R.R.R.R.R.R.R.R.R.R.R.R.R.R.R.R.R.R.R.R.",
"R.R.R.R.R.R.R.R.R.R.R.R.R.R.R.R.R.R.R.R.R.R.R.R.  H.M.c.c.c.H.H.H.      H.  d.d.d.d.d.      s.  R.R.R.R.R.R.R.R.R.R.R.R.R.R.R.R.R.R.R.R.R.R.",
"R.R.R.R.R.R.R.R.R.R.R.R.R.R.R.R.R.R.R.R.R.R.R.R.R.  H.H.c.c.c.F.d.x.0.H.H.  d.d.d.d.d.  + k.@.  R.R.R.R.R.R.R.R.R.R.R.R.R.R.R.R.R.R.R.R.R.R.",
"R.R.R.R.R.R.R.R.R.R.R.R.R.R.R.R.R.R.R.R.R.R.R.R.R.R.R.R.  < c.d.d.d.G.H.H.H.N       a c.k.d.M R.R.R.R.R.R.R.R.R.R.R.R.R.R.R.R.R.R.R.R.R.R.R.",
"R.R.R.R.R.R.R.R.R.R.R.R.R.R.R.R.R.R.R.R.R.R.R.R.R.R.R.R.R.R.      u c.c.c.c.c.c.c.c.*     R.R.R.R.R.R.R.R.R.R.R.R.R.R.R.R.R.R.R.R.R.R.R.R.R.",
"R.R.R.R.R.R.R.R.R.R.R.R.R.R.R.R.R.R.R.R.R.R.R.R.R.R.R.  6 Y.  6 X <.&               R.R.R.R.R.R.R.R.R.R.R.R.R.R.R.R.R.R.R.R.R.R.R.R.R.R.R.R.",
"R.R.R.R.R.R.R.R.R.R.R.R.R.R.R.R.R.R.R.R.R.R.R.R.R.R.  C.Y.Y.U.  T.1.4.4.O Y.Y.c   N.  R.R.R.R.R.R.R.R.R.R.R.R.R.R.R.R.R.R.R.R.R.R.R.R.R.R.R.",
"R.R.R.R.R.R.R.R.R.R.R.R.R.R.R.R.R.R.R.R.R.R.R.R.R.  p.Y.Y.Y.K.n Y.  4.4.% X X z z N.N.  R.R.R.R.R.R.R.R.R.R.R.R.R.R.R.R.R.R.R.R.R.R.R.R.R.R.",
"R.R.R.R.R.R.R.R.R.R.R.R.R.R.R.R.R.R.R.R.R.R.R.R.R.    Y.Y.K.K.  Y.  1.1.1.1.1.1.1.V N.  R.R.R.R.R.R.R.R.R.R.R.R.R.R.R.R.R.R.R.R.R.R.R.R.R.R.",
"R.R.R.R.R.R.R.R.R.R.R.R.R.R.R.R.R.R.R.R.R.R.R.R.  7 H.  K.K.O T.C.v   9.9.9.9.9.8.    z.  R.R.R.R.R.R.R.R.R.R.R.R.R.R.R.R.R.R.R.R.R.R.R.R.R.",
"R.R.R.R.R.R.R.R.R.R.R.R.R.R.R.R.R.R.R.R.R.R.R.R.  H.H.m.    K.o <.4.  v v v v v 3.  z.z.h.  R.R.R.R.R.R.R.R.R.R.R.R.R.R.R.R.R.R.R.R.R.R.R.R.",
"R.R.R.R.R.R.R.R.R.R.R.R.R.R.R.R.R.R.R.R.R.R.R.  H.H.H.c.    x 4.4.4.  7.7.7.7.7.7.  ;.z.z.O R.R.R.R.R.R.R.R.R.R.R.R.R.R.R.R.R.R.R.R.R.R.R.R.",
"R.R.R.R.R.R.R.R.R.R.R.R.R.R.R.R.R.R.R.R.R.R.R.  H.H.c.,   h ,.4.4.4.  7.7.7.7.7.7.2 &.g.z.z.  R.R.R.R.R.R.R.R.R.R.R.R.R.R.R.R.R.R.R.R.R.R.R.",
"R.R.R.R.R.R.R.R.R.R.R.R.R.R.R.R.R.R.R.R.R.R.R.y.H.H.c.    h ,.3.4.4.  5.7.7.7.7.7.5 $ ;.z.z.  R.R.R.R.R.R.R.R.R.R.R.R.R.R.R.R.R.R.R.R.R.R.R.",
"R.R.R.R.R.R.R.R.R.R.R.R.R.R.R.R.R.R.R.R.R.R.  P.I.H.c.  R.% <.<.4.4.4.  X o + o   o   >.z.N.%.R.R.R.R.R.R.R.R.R.R.R.R.R.R.R.R.R.R.R.R.R.R.R.",
"R.R.R.R.R.R.R.R.R.R.R.R.R.R.R.R.R.R.R.R.R.R.  H.H.H.m.c.    d 4.4.2.<.2.4.3.3.<.,.  ;.g.z.z.0.R.R.R.R.R.R.R.R.R.R.R.R.R.R.R.R.R.R.R.R.R.R.R.",
"R.R.R.R.R.R.R.R.R.R.R.R.R.R.R.R.R.R.R.R.R.R.R.  m.c.c.  R.  v 4.5.7.v ,.,.<.v <.  & * ;.g.j.  R.R.R.R.R.R.R.R.R.R.R.R.R.R.R.R.R.R.R.R.R.R.R.",
"R.R.R.R.R.R.R.R.R.R.R.R.R.R.R.R.R.R.R.R.R.R.R.R.        R.  ,.4.4.4.3 % o       l l   O.N     R.R.R.R.R.R.R.R.R.R.R.R.R.R.R.R.R.R.R.R.R.R.R.",
"R.R.R.R.R.R.R.R.R.R.R.R.R.R.R.R.R.R.R.R.R.R.R.R.R.R.R.R.R.  ,.4.4.4.f R.R.g k l l l X R.R.R.R.R.R.R.R.R.R.R.R.R.R.R.R.R.R.R.R.R.R.R.R.R.R.R.",
"R.R.R.R.R.R.R.R.R.R.R.R.R.R.R.R.R.R.R.R.R.R.R.R.R.R.R.R.R.  v v x z 2 R.R.4 g g j     R.R.R.R.R.R.R.R.R.R.R.R.R.R.R.R.R.R.R.R.R.R.R.R.R.R.R.",
"R.R.R.R.R.R.R.R.R.R.R.R.R.R.R.R.R.R.R.R.R.R.R.R.R.R.R.R.R.  K.K.L.D.X R.R.      p.N.e.  R.R.R.R.R.R.R.R.R.R.R.R.R.R.R.R.R.R.R.R.R.R.R.R.R.R.",
"R.R.R.R.R.R.R.R.R.R.R.R.R.R.R.R.R.R.R.R.R.R.R.R.R.R.R.R.R.      +                             R.R.R.R.R.R.R.R.R.R.R.R.R.R.R.R.R.R.R.R.R.R.R.",
"R.R.R.R.R.R.R.R.R.R.R.R.R.R.R.R.R.R.R.R.R.R.R.R.R.R.R.R.  r.^ A   K.K.Y.Y.p.  D . O u.u.N.N.C   R.R.R.R.R.R.R.R.R.R.R.R.R.R.R.R.R.R.R.R.R.R.",
"R.R.R.R.R.R.R.R.R.R.R.R.R.R.R.R.R.R.R.R.R.R.R.R.R.R.R.R.  L.^   C.K.K.K.Y.K.i.    u.u.u.u.N.u.7   R.R.R.R.R.R.R.R.R.R.R.R.R.R.R.R.R.R.R.R.R.",
"R.R.R.R.R.R.R.R.R.R.R.R.R.R.R.R.R.R.R.R.R.R.R.R.R.R.R.R.  D   N.B.K.K.K.K.K.K.  w.w.u.u.u.u.u.u.  R.R.R.R.R.R.R.R.R.R.R.R.R.R.R.R.R.R.R.R.R.",
"R.R.R.R.R.R.R.R.R.R.R.R.R.R.R.R.R.R.R.R.R.R.R.R.R.R.R.                                            R.R.R.R.R.R.R.R.R.R.R.R.R.R.R.R.R.R.R.R.R.",
"R.R.R.R.R.R.R.R.R.R.R.R.R.R.R.R.R.R.R.R.R.R.R.R.R.R.R.  a.C.K.K.K.K.K.K.K.Y.K.n u.u.u.u.u.u.N.u.O R.R.R.R.R.R.R.R.R.R.R.R.R.R.R.R.R.R.R.R.R.",
"R.R.R.R.R.R.R.R.R.R.R.R.R.R.R.R.R.R.R.R.R.R.R.R.R.R.R.                                              R.R.R.R.R.R.R.R.R.R.R.R.R.R.R.R.R.R.R.R.",
"R.R.R.R.R.R.R.R.R.R.R.R.R.R.R.R.R.R.R.R.R.R.R.R.R.R.R.R.R.R.R.R.R.R.R.R.R.R.R.R.R.R.R.R.R.R.R.R.R.R.R.R.R.R.R.R.R.R.R.R.R.R.R.R.R.R.R.R.R.R.",
"R.R.R.R.R.R.R.R.R.R.R.R.R.R.R.R.R.R.R.R.R.R.R.R.R.R.R.R.R.R.R.R.R.R.R.R.R.R.R.R.R.R.R.R.R.R.R.R.R.R.R.R.R.R.R.R.R.R.R.R.R.R.R.R.R.R.R.R.R.R.",
"R.R.R.R.R.R.R.R.R.R.R.R.R.R.R.R.R.R.R.R.R.R.R.R.R.R.R.R.R.R.R.R.R.R.R.R.R.R.R.R.R.R.R.R.R.R.R.R.R.R.R.R.R.R.R.R.R.R.R.R.R.R.R.R.R.R.R.R.R.R.",
"R.R.R.R.R.R.R.R.R.R.R.R.R.R.R.R.R.R.R.R.R.R.R.R.R.R.R.R.R.R.R.R.R.R.R.R.R.R.R.R.R.R.R.R.R.R.R.R.R.R.R.R.R.R.R.R.R.R.R.R.R.R.R.R.R.R.R.R.R.R.",
"R.R.R.R.R.R.R.R.R.R.R.R.R.R.R.R.R.R.R.R.R.R.R.R.R.R.R.R.R.R.R.R.R.R.R.R.R.R.R.R.R.R.R.R.R.R.R.R.R.R.R.R.R.R.R.R.R.R.R.R.R.R.R.R.R.R.R.R.R.R.",
"R.R.R.R.R.R.R.R.R.R.R.R.R.R.R.R.R.R.R.R.R.R.R.R.R.R.R.R.R.R.R.R.R.R.R.R.R.R.R.R.R.R.R.R.R.R.R.R.R.R.R.R.R.R.R.R.R.R.R.R.R.R.R.R.R.R.R.R.R.R.",
"R.R.R.R.R.R.R.R.R.R.R.R.R.R.R.R.R.R.R.R.R.R.R.R.R.R.R.R.R.R.R.R.R.R.R.R.R.R.R.R.R.R.R.R.R.R.R.R.R.R.R.R.R.R.R.R.R.R.R.R.R.R.R.R.R.R.R.R.R.R.",
"R.R.R.R.R.R.R.R.R.R.R.R.R.R.R.R.R.R.R.R.R.R.R.R.R.R.R.R.R.R.R.R.R.R.R.R.R.R.R.R.R.R.R.R.R.R.R.R.R.R.R.R.R.R.R.R.R.R.R.R.R.R.R.R.R.R.R.R.R.R."
};
