/* XPM */
static char *result[] = {
/* columns rows colors chars-per-pixel */
"70 70 159 2 ",
"   c #000000",
".  c #0B0202",
"X  c #0D0A05",
"o  c #0C0B0A",
"O  c #03070B",
"+  c #140303",
"@  c #160904",
"#  c #15120E",
"$  c #1C1509",
"%  c #0A141E",
"&  c #161616",
"*  c #1E1313",
"=  c #1A1A1A",
"-  c #290609",
";  c #380609",
":  c #20180C",
">  c #221F1C",
",  c #282019",
"<  c #24211E",
"1  c #372B1E",
"2  c #0C1723",
"3  c #071C32",
"4  c #132638",
"5  c #242424",
"6  c #2C2B2B",
"7  c #292622",
"8  c #322D29",
"9  c #35312C",
"0  c #3D3328",
"q  c #3A3837",
"w  c #450000",
"e  c #43090D",
"r  c #5D0000",
"t  c #470D11",
"y  c #5B1116",
"u  c #640F14",
"i  c #7B141C",
"p  c #642100",
"a  c #48362A",
"s  c #453F3A",
"d  c #4C453D",
"f  c #6F553C",
"g  c #0A2C4D",
"h  c #162C42",
"j  c #1A344D",
"k  c #0C3055",
"l  c #1D3B57",
"z  c #0F3860",
"x  c #113E6B",
"c  c #214060",
"v  c #24486B",
"b  c #284E74",
"n  c #285077",
"m  c #2A537D",
"M  c #4B4B4B",
"N  c #5F5F5F",
"B  c #625A52",
"V  c #616161",
"C  c DimGray",
"Z  c #727272",
"A  c #810000",
"S  c #9C0000",
"D  c #821017",
"F  c #92171F",
"G  c #A30000",
"H  c #AB0000",
"J  c #BE0000",
"K  c #B40000",
"L  c #AB151C",
"P  c #B31118",
"I  c #972200",
"U  c #831920",
"Y  c #8A1922",
"T  c #901720",
"R  c #921B23",
"E  c #9C1D27",
"W  c #A11C26",
"Q  c #AC2029",
"!  c #B3222B",
"~  c #CC0203",
"^  c #C50507",
"/  c #D50000",
"(  c #D80600",
")  c #DE1200",
"_  c #E11900",
"`  c #E62100",
"'  c #EF3400",
"]  c #F33D00",
"[  c #E24B00",
"{  c #F64300",
"}  c #F94900",
"|  c #FE5400",
" . c #FE5806",
".. c #A25757",
"X. c #9E7A56",
"o. c #A27F5A",
"O. c #82776D",
"+. c #AD823D",
"@. c #8E8276",
"#. c #BC9670",
"$. c #C89344",
"%. c #D19B49",
"&. c #DEA44C",
"*. c #E3A74E",
"=. c #EDAE51",
"-. c #C5986B",
";. c #C59C74",
":. c #FF9D6D",
">. c #FFD26B",
",. c #2C5680",
"<. c #326496",
"1. c #336699",
"2. c #34699E",
"3. c #376DA3",
"4. c #386FA6",
"5. c #3870A7",
"6. c #3B75AF",
"7. c #3E79B4",
"8. c #8A8887",
"9. c #9C8F82",
"0. c #979797",
"q. c #9A9A9A",
"w. c gray64",
"e. c #A9A6A4",
"r. c #AFAFAF",
"t. c gray74",
"y. c #F68E89",
"u. c #FF938E",
"i. c #FF9A95",
"p. c #CAA887",
"a. c #C4B19F",
"s. c #EBBD8F",
"d. c #FDBB9A",
"f. c #C5B2A0",
"g. c #CABAA9",
"h. c #FFBFBC",
"j. c #FAC897",
"k. c #FFCC9A",
"l. c #DAC9B7",
"z. c #FFDAB7",
"x. c #C5C5C5",
"c. c #CCCCCC",
"v. c #D5D5D5",
"b. c #DBDBDB",
"n. c #EAD7C3",
"m. c #FFD9C7",
"M. c #E8DBDB",
"N. c #FFE5CC",
"B. c #FAE1C7",
"V. c #FCE6D2",
"C. c #FFEAD5",
"Z. c #FFEBDC",
"A. c #E6E6E6",
"S. c #ECECEC",
"D. c #E8E5E2",
"F. c #FFF1E2",
"G. c #F3F3F3",
"H. c #FEFEFE",
"J. c None",
/* pixels */
"J.J.J.J.J.J.J.J.J.J.J.J.J.J.J.J.J.J.J.J.J.J.J.J.J.J.J.J.J.J.J.J.J.J.J.J.J.J.J.J.J.J.J.J.J.J.J.J.J.J.J.J.J.J.J.J.J.J.J.J.J.J.J.J.J.J.J.J.J.J.",
"J.J.J.J.J.J.J.J.J.J.J.J.J.J.J.J.J.J.J.J.J.J.J.J.J.J.J.J.J.J.J.J.J.J.J.J.J.J.J.J.J.J.J.J.J.J.J.J.J.J.J.J.J.J.J.J.J.J.J.J.J.J.J.J.J.J.J.J.J.J.",
"J.J.J.J.J.J.J.J.J.J.J.J.J.J.J.J.J.J.J.J.J.J.J.J.J.J.J.J.J.J.J.J.J.J.J.J.J.J.J.J.J.J.J.J.J.J.J.J.J.J.J.J.J.J.J.J.J.J.J.J.J.J.J.J.J.J.J.J.J.J.",
"J.J.J.J.J.J.J.J.J.J.J.J.J.J.J.J.J.J.J.J.J.J.J.J.J.J.J.J.J.J.J.J.J.J.J.J.J.J.J.J.J.J.J.J.J.J.J.J.J.J.J.J.J.J.J.J.J.J.J.J.J.J.J.J.J.J.J.J.J.J.",
"J.J.J.J.J.J.J.J.J.J.J.J.J.J.J.J.J.J.J.J.J.J.J.J.J.J.J.J.J.J.J.J.J.J.J.J.J.J.J.J.J.J.J.J.J.J.J.J.J.J.J.J.J.J.J.J.J.J.J.J.J.J.J.J.J.J.J.J.J.J.",
"J.J.J.J.J.J.J.J.J.J.J.J.J.J.J.J.J.J.J.J.J.J.J.J.J.J.J.J.        J.J.J.J.J.J.J.J.J.J.J.J.J.J.J.J.J.J.J.J.J.J.J.J.J.J.J.J.J.J.J.J.J.J.J.J.J.J.",
"J.J.J.J.J.J.J.J.J.J.J.J.J.J.J.J.J.J.J.J.J.J.J.J.J.J.J.  / / / K     J.J.J.J.J.J.J.J.J.J.J.J.J.J.J.J.J.J.J.J.J.J.J.J.J.J.J.J.J.J.J.J.J.J.J.J.",
"J.J.J.J.J.J.J.J.J.J.J.J.J.J.J.J.J.J.J.J.J.J.J.J.J.J.  / :.Z. .| ( r   J.J.J.J.J.J.J.J.J.J.J.J.J.J.J.J.J.J.J.J.J.J.J.J.J.J.J.J.J.J.J.J.J.J.J.",
"J.J.J.J.J.J.J.J.J.J.J.J.J.J.J.J.J.J.J.J.J.J.J.J.J.  ..H.H.H.H.H.| { G   J.J.J.J.J.J.J.J.J.J.J.J.J.J.J.J.J.J.J.J.J.J.J.J.J.J.J.J.J.J.J.J.J.J.",
"J.J.J.J.J.J.J.J.J.J.J.J.J.J.J.J.J.J.J.J.J.J.J.J.J.  G.G.G.H.H.H.H. .{ r   J.J.J.J.J.J.J.J.J.J.J.J.J.J.J.J.J.J.J.J.J.J.J.J.J.J.J.J.J.J.J.J.J.",
"J.J.J.J.J.J.J.J.J.J.J.J.J.J.J.J.J.J.J.J.J.J.J.J.J.* G.G.G.H.G.G.H.H.| _   J.J.J.J.J.J.J.J.J.J.J.J.J.J.J.J.J.J.J.J.J.J.J.J.J.J.J.J.J.J.J.J.J.",
"J.J.J.J.J.J.J.J.J.J.J.J.J.J.J.J.J.J.J.J.J.J.J.J.  M.G.G.G.G.G.G.G.G.H.| /     . +     J.J.J.J.J.J.J.J.J.J.J.J.J.J.J.J.J.J.J.J.J.J.J.J.J.J.J.",
"J.J.J.J.J.J.J.J.J.J.J.J.J.J.J.J.J.J.J.J.J.J.J.J.  G.G.G.G.G.G.G.G.G.G.H.| /   | | |   J.J.J.J.J.J.J.J.J.J.J.J.J.J.J.J.J.J.J.J.J.J.J.J.J.J.J.",
"J.J.J.J.J.J.J.J.J.J.J.J.J.J.J.J.J.J.J.J.J.J.J.J.  S.S.S.S.G.G.G.G.G.G.G.H.| ^   | { /   J.J.J.J.J.J.J.J.J.J.J.J.J.J.J.J.J.J.J.J.J.J.J.J.J.J.",
"J.J.J.J.J.J.J.J.J.J.J.J.J.J.J.J.J.J.J.J.J.J.J.J.  S.S.S.S.S.G.S.G.G.G.G.G.H. ./     P   J.J.J.J.J.J.J.J.J.J.J.J.J.J.J.J.J.J.J.J.J.J.J.J.J.J.",
"J.J.J.J.J.J.J.J.J.J.J.J.J.J.J.J.J.J.J.J.J.J.J.J.  c.S.S.S.S.S.S.S.S.S.G.S.G.H.d.| J     J.J.J.J.J.J.J.J.J.J.J.J.J.J.J.J.J.J.J.J.J.J.J.J.J.J.",
"J.J.J.J.J.J.J.J.J.J.J.J.J.J.J.J.J.J.J.J.J.J.J.  .   9 c.S.S.S.S.S.S.S.S.S.S.G.S.H.| { H     J.J.J.J.J.J.J.J.J.J.J.J.J.J.J.J.J.J.J.J.J.J.J.J.",
"J.J.J.J.J.J.J.J.J.J.J.J.J.J.J.J.J.J.J.J.J.J.J.  Y ! y     c.A.S.S.S.S.S.S.S.S.S.S.G.H.| ' A   J.J.J.J.J.J.J.J.J.J.J.J.J.J.J.J.J.J.J.J.J.J.J.",
"J.J.J.J.J.J.J.J.J.J.J.J.J.J.J.J.J.J.J.J.J.J.    t U E ! R     t.v.A.S.S.S.S.S.S.S.S.S.H.| | ) .   J.J.J.J.J.J.J.J.J.J.J.J.J.J.J.J.J.J.J.J.J.",
"J.J.J.J.J.J.J.J.J.J.J.J.J.J.J.J.J.J.J.J.    / ] p   . E E ! Q .   N c.b.A.S.A.S.S.S.S.S./ | | | ~   J.J.J.J.J.J.J.J.J.J.J.J.J.J.J.J.J.J.J.J.",
"J.J.J.J.J.J.J.J.J.J.J.J.J.J.J.J.J.J.J.  . / | | | | [     E E Q ! -   o c.c.b.S.S.S.A.S./ / /  .| /   J.J.J.J.J.J.J.J.J.J.J.J.J.J.J.J.J.J.J.",
"J.J.J.J.J.J.J.J.J.J.J.J.J.J.J.J.J.J.  w / | | | | | | | |     i E E ! Y     c.c.c.c.b.A./ / / / E E ; J.J.J.J.J.J.J.J.J.J.J.J.J.J.J.J.J.J.J.",
"J.J.J.J.J.J.J.J.J.J.J.J.J.J.J.J.J.  + / } | | | | | | | | | | @   + W E ! W     e.c.c.E E E E E E E E   J.J.J.J.J.J.J.J.J.J.J.J.J.J.J.J.J.J.",
"J.J.J.J.J.J.J.J.J.J.J.J.J.J.J.J.J.  / / | | | | | | | | | | | | | I     E E Q ! +   6 E E E E E E E i   J.J.J.J.J.J.J.J.J.J.J.J.J.J.J.J.J.J.",
"J.J.J.J.J.J.J.J.J.J.J.J.J.J.J.J.J.  / / / ( | | | | | | | _ / / / / / /     Y U R ! y     E E E E E   J.J.J.J.J.J.J.J.J.J.J.J.J.J.J.J.J.J.J.",
"J.J.J.J.J.J.J.J.J.J.J.J.J.J.J.J.J.  ^ / / / / / / / / / / / / / / / / / / / .   t U U ! Y   - E u   J.J.J.J.J.J.J.J.J.J.J.J.J.J.J.J.J.J.J.J.",
"J.J.J.J.J.J.J.J.J.J.J.J.J.J.J.J.J.J.  W / / / / / / / / / / / / / / / / ^ E T   $   . U D Q       J.J.J.J.J.J.J.J.J.J.J.J.J.J.J.J.J.J.J.J.J.",
"J.J.J.J.J.J.J.J.J.J.J.J.J.J.J.J.J.J.J.  e E L / / / / / / / / / ^ W E E +   X >.=.=.$.    O   J.J.J.J.J.J.J.J.J.J.J.J.J.J.J.J.J.J.J.J.J.J.J.",
"J.J.J.J.J.J.J.J.J.J.J.J.J.J.J.J.J.J.J.J.J.      - F E E E R D -       X *.  =.=.=.=.=.=.*.  J.J.J.J.J.J.J.J.J.J.J.J.J.J.J.J.J.J.J.J.J.J.J.J.",
"J.J.J.J.J.J.J.J.J.J.J.J.J.J.J.J.J.J.J.J.J.J.J.8.s   X X   5   &.%.n.  &.=.  +.=.=.=.=.=.: J.J.J.J.J.J.J.J.J.J.J.J.J.J.J.J.J.J.J.J.J.J.J.J.J.",
"J.J.J.J.J.J.J.J.J.J.J.J.J.J.J.J.J.J.J.J.J.J.J.& V s @.    C.C.o   8 C v.      =.=.        J.J.J.J.J.J.J.J.J.J.J.J.J.J.J.J.J.J.J.J.J.J.J.J.J.",
"J.J.J.J.J.J.J.J.J.J.J.J.J.J.J.J.J.J.J.J.J.J.  O = = l.C.C.C.C.C.C.< = x.  @.C.  &.B C.F.O J.J.J.J.J.J.J.J.J.J.J.J.J.J.J.J.J.J.J.J.J.J.J.J.J.",
"J.J.J.J.J.J.J.J.J.J.J.J.J.J.J.J.J.J.J.J.J.J.  X = = O.C.C.C.C.C.C.  = = O # C.C.  k.k.z.Z.  J.J.J.J.J.J.J.J.J.J.J.J.J.J.J.J.J.J.J.J.J.J.J.J.",
"J.J.J.J.J.J.J.J.J.J.J.J.J.J.J.J.J.J.J.J.J.J.e.5 = & O.C.H.u.u.C.C.  = =   X C.C.N.k.k.k.C.  J.J.J.J.J.J.J.J.J.J.J.J.J.J.J.J.J.J.J.J.J.J.J.J.",
"J.J.J.J.J.J.J.J.J.J.J.J.J.J.J.J.J.J.J.J.J.J.  D.&   < u.u.u.u.u.9.l.= =   g.C.C.k.k.k.k.C.  J.J.J.J.J.J.J.J.J.J.J.J.J.J.J.J.J.J.J.J.J.J.J.J.",
"J.J.J.J.J.J.J.J.J.J.J.J.J.J.J.J.J.J.J.J.J.J.  e.>   O u.u.u.u.u.  C.o     C.C.z.k.k.k.C.n.  J.J.J.J.J.J.J.J.J.J.J.J.J.J.J.J.J.J.J.J.J.J.J.J.",
"J.J.J.J.J.J.J.J.J.J.J.J.J.J.J.J.J.J.J.J.J.J.J.u.i.m.#.* y.u.y.X V.C.C.V.u.i.z.j.k.l.V.9   J.J.J.J.J.J.J.J.J.J.J.J.J.J.J.J.J.J.J.J.J.J.J.J.J.",
"J.J.J.J.J.J.J.J.J.J.J.J.J.J.J.J.J.J.J.J.J.J.J.J.    p.k.k.k.k.N.N.z.k.k.u.u.s..     J.J.J.J.J.J.J.J.J.J.J.J.J.J.J.J.J.J.J.J.J.J.J.J.J.J.J.J.",
"J.J.J.J.J.J.J.J.J.J.J.J.J.J.J.J.J.J.J.J.J.J.J.J.J.J.      O * 0 # o                 J.J.J.J.J.J.J.J.J.J.J.J.J.J.J.J.J.J.J.J.J.J.J.J.J.J.J.J.",
"J.J.J.J.J.J.J.J.J.J.J.J.J.J.J.J.J.J.J.J.J.J.J.J.J.J.J.J.    O H.H.t.1.2.2.o   H.H.H.  J.J.J.J.J.J.J.J.J.J.J.J.J.J.J.J.J.J.J.J.J.J.J.J.J.J.J.",
"J.J.J.J.J.J.J.J.J.J.J.J.J.J.J.J.J.J.J.J.J.J.J.J.J.J.J.  x.h   H.H.  2.<.  H.b.S.H.H.S.  J.J.J.J.J.J.J.J.J.J.J.J.J.J.J.J.J.J.J.J.J.J.J.J.J.J.",
"J.J.J.J.J.J.J.J.J.J.J.J.J.J.J.J.J.J.J.J.J.J.J.J.J.J.  x.w.1.<.<.<.<.<.2.= H.b.A.H.H.H.V J.J.J.J.J.J.J.J.J.J.J.J.J.J.J.J.J.J.J.J.J.J.J.J.J.J.",
"J.J.J.J.J.J.J.J.J.J.J.J.J.J.J.J.J.J.J.J.J.J.J.J.J.J.  w.                  H.  A.A.H.e.  J.J.J.J.J.J.J.J.J.J.J.J.J.J.J.J.J.J.J.J.J.J.J.J.J.J.",
"J.J.J.J.J.J.J.J.J.J.J.J.J.J.J.J.J.J.J.J.J.J.J.J.J.  a.9   6.6.6.6.6.5.  <.6 H.  A.5 9.C.  J.J.J.J.J.J.J.J.J.J.J.J.J.J.J.J.J.J.J.J.J.J.J.J.J.",
"J.J.J.J.J.J.J.J.J.J.J.J.J.J.J.J.J.J.J.J.J.J.J.J.J.d f.f.  6.6.6.6.6.5.  <.2.  M   j.C.C.n.  J.J.J.J.J.J.J.J.J.J.J.J.J.J.J.J.J.J.J.J.J.J.J.J.",
"J.J.J.J.J.J.J.J.J.J.J.J.J.J.J.J.J.J.J.J.J.J.J.J.  a.f.o.j 6.6.6.6.6.5.  <.<.1.,.  # k.C.C.  J.J.J.J.J.J.J.J.J.J.J.J.J.J.J.J.J.J.J.J.J.J.J.J.",
"J.J.J.J.J.J.J.J.J.J.J.J.J.J.J.J.J.J.J.J.J.J.J.J.q a.a.a c 7.6.6.6.6.3.  2.1.<.,.    k.C.C.B J.J.J.J.J.J.J.J.J.J.J.J.J.J.J.J.J.J.J.J.J.J.J.J.",
"J.J.J.J.J.J.J.J.J.J.J.J.J.J.J.J.J.J.J.J.J.J.J.  f.f.f.1 ,.5.6.6.6.6.<.4 1.1.,.,.    k.C.C.C.  J.J.J.J.J.J.J.J.J.J.J.J.J.J.J.J.J.J.J.J.J.J.J.",
"J.J.J.J.J.J.J.J.J.J.J.J.J.J.J.J.J.J.J.J.J.J.J.  x.f.f.X.2 m         l 1.1.,.,.,.  o k.C.C.H.  J.J.J.J.J.J.J.J.J.J.J.J.J.J.J.J.J.J.J.J.J.J.J.",
"J.J.J.J.J.J.J.J.J.J.J.J.J.J.J.J.J.J.J.J.J.J.J.  f.f.f.-.  ,.,.,.,.m m m <.<.<.%   j.k.C.C.C.  J.J.J.J.J.J.J.J.J.J.J.J.J.J.J.J.J.J.J.J.J.J.J.",
"J.J.J.J.J.J.J.J.J.J.J.J.J.J.J.J.J.J.J.J.J.J.J.J.a p.;.f z   2 ,.,.,.,.j 6.1.1.,.J.  k.k.k.  J.J.J.J.J.J.J.J.J.J.J.J.J.J.J.J.J.J.J.J.J.J.J.J.",
"J.J.J.J.J.J.J.J.J.J.J.J.J.J.J.J.J.J.J.J.J.J.J.J.    ,   x x k         n 3.1.<.,.  J.      J.J.J.J.J.J.J.J.J.J.J.J.J.J.J.J.J.J.J.J.J.J.J.J.J.",
"J.J.J.J.J.J.J.J.J.J.J.J.J.J.J.J.J.J.J.J.J.J.J.J.J.J.J.3 x x x k g J.J.1.<.<.2.,.  J.J.J.J.J.J.J.J.J.J.J.J.J.J.J.J.J.J.J.J.J.J.J.J.J.J.J.J.J.",
"J.J.J.J.J.J.J.J.J.J.J.J.J.J.J.J.J.J.J.J.J.J.J.J.J.J.      k k k   J.J.c v b m m   J.J.J.J.J.J.J.J.J.J.J.J.J.J.J.J.J.J.J.J.J.J.J.J.J.J.J.J.J.",
"J.J.J.J.J.J.J.J.J.J.J.J.J.J.J.J.J.J.J.J.J.J.J.J.J.J.  r.x.e.      J.J.  A.A.A.b.  J.J.J.J.J.J.J.J.J.J.J.J.J.J.J.J.J.J.J.J.J.J.J.J.J.J.J.J.J.",
"J.J.J.J.J.J.J.J.J.J.J.J.J.J.J.J.J.J.J.J.J.J.J.                            .       J.J.J.J.J.J.J.J.J.J.J.J.J.J.J.J.J.J.J.J.J.J.J.J.J.J.J.J.J.",
"J.J.J.J.J.J.J.J.J.J.J.J.J.J.J.J.J.J.J.J.J.J.  e.x.x.r.r.  r S   A.H.H.A.A.  ~ / a   J.J.J.J.J.J.J.J.J.J.J.J.J.J.J.J.J.J.J.J.J.J.J.J.J.J.J.J.",
"J.J.J.J.J.J.J.J.J.J.J.J.J.J.J.J.J.J.J.J.J.  q.r.t.r.r.r.e.    A.S.H.A.A.A.c.  / A.  J.J.J.J.J.J.J.J.J.J.J.J.J.J.J.J.J.J.J.J.J.J.J.J.J.J.J.J.",
"J.J.J.J.J.J.J.J.J.J.J.J.J.J.J.J.J.J.J.J.J.  r.r.r.r.r.r.0.0.  A.A.A.A.A.A.c.Z w S   J.J.J.J.J.J.J.J.J.J.J.J.J.J.J.J.J.J.J.J.J.J.J.J.J.J.J.J.",
"J.J.J.J.J.J.J.J.J.J.J.J.J.J.J.J.J.J.J.J.J.                                            J.J.J.J.J.J.J.J.J.J.J.J.J.J.J.J.J.J.J.J.J.J.J.J.J.J.J.",
"J.J.J.J.J.J.J.J.J.J.J.J.J.J.J.J.J.J.J.J.J.M r.x.r.r.r.r.r.6 x.A.H.A.A.A.A.A.A.A.c.M   J.J.J.J.J.J.J.J.J.J.J.J.J.J.J.J.J.J.J.J.J.J.J.J.J.J.J.",
"J.J.J.J.J.J.J.J.J.J.J.J.J.J.J.J.J.J.J.J.                                              J.J.J.J.J.J.J.J.J.J.J.J.J.J.J.J.J.J.J.J.J.J.J.J.J.J.J.",
"J.J.J.J.J.J.J.J.J.J.J.J.J.J.J.J.J.J.J.J.J.J.J.J.J.J.J.J.J.J.J.J.J.J.J.J.J.J.J.J.J.J.J.J.J.J.J.J.J.J.J.J.J.J.J.J.J.J.J.J.J.J.J.J.J.J.J.J.J.J.",
"J.J.J.J.J.J.J.J.J.J.J.J.J.J.J.J.J.J.J.J.J.J.J.J.J.J.J.J.J.J.J.J.J.J.J.J.J.J.J.J.J.J.J.J.J.J.J.J.J.J.J.J.J.J.J.J.J.J.J.J.J.J.J.J.J.J.J.J.J.J.",
"J.J.J.J.J.J.J.J.J.J.J.J.J.J.J.J.J.J.J.J.J.J.J.J.J.J.J.J.J.J.J.J.J.J.J.J.J.J.J.J.J.J.J.J.J.J.J.J.J.J.J.J.J.J.J.J.J.J.J.J.J.J.J.J.J.J.J.J.J.J.",
"J.J.J.J.J.J.J.J.J.J.J.J.J.J.J.J.J.J.J.J.J.J.J.J.J.J.J.J.J.J.J.J.J.J.J.J.J.J.J.J.J.J.J.J.J.J.J.J.J.J.J.J.J.J.J.J.J.J.J.J.J.J.J.J.J.J.J.J.J.J.",
"J.J.J.J.J.J.J.J.J.J.J.J.J.J.J.J.J.J.J.J.J.J.J.J.J.J.J.J.J.J.J.J.J.J.J.J.J.J.J.J.J.J.J.J.J.J.J.J.J.J.J.J.J.J.J.J.J.J.J.J.J.J.J.J.J.J.J.J.J.J.",
"J.J.J.J.J.J.J.J.J.J.J.J.J.J.J.J.J.J.J.J.J.J.J.J.J.J.J.J.J.J.J.J.J.J.J.J.J.J.J.J.J.J.J.J.J.J.J.J.J.J.J.J.J.J.J.J.J.J.J.J.J.J.J.J.J.J.J.J.J.J.",
"J.J.J.J.J.J.J.J.J.J.J.J.J.J.J.J.J.J.J.J.J.J.J.J.J.J.J.J.J.J.J.J.J.J.J.J.J.J.J.J.J.J.J.J.J.J.J.J.J.J.J.J.J.J.J.J.J.J.J.J.J.J.J.J.J.J.J.J.J.J.",
"J.J.J.J.J.J.J.J.J.J.J.J.J.J.J.J.J.J.J.J.J.J.J.J.J.J.J.J.J.J.J.J.J.J.J.J.J.J.J.J.J.J.J.J.J.J.J.J.J.J.J.J.J.J.J.J.J.J.J.J.J.J.J.J.J.J.J.J.J.J."
};
