/* XPM */
static char *result[] = {
/* columns rows colors chars-per-pixel */
"70 70 167 2 ",
"   c #000000",
".  c #0A0302",
"X  c #020509",
"o  c #080808",
"O  c #140305",
"+  c #160505",
"@  c #10100F",
"#  c #08121B",
"$  c #05121E",
"%  c #1A1A1A",
"&  c #181211",
"*  c #2C0000",
"=  c #2E080B",
"-  c #241C0D",
";  c #211D19",
":  c #241C15",
">  c #34281C",
",  c #0D1B28",
"<  c #071C32",
"1  c #0F202F",
"2  c #0A253F",
"3  c #102131",
"4  c #2A2A2A",
"5  c #362D23",
"6  c #3C3228",
"7  c #343434",
"8  c #3C3B3B",
"9  c #4A0000",
"0  c #43090C",
"q  c #4B0A0E",
"w  c #460000",
"e  c #5A0000",
"r  c #5D1F00",
"t  c #490D12",
"y  c #591015",
"u  c #7A0000",
"i  c #621219",
"p  c #6F1419",
"a  c #7D181E",
"s  c #443318",
"d  c #553E1D",
"f  c #4A362A",
"g  c #4B3E31",
"h  c #46403A",
"j  c #5B4632",
"k  c #0A2C4D",
"l  c #152B41",
"z  c #1A334C",
"x  c #0B3055",
"c  c #1F3F5F",
"v  c #113E6B",
"b  c #224264",
"n  c #24486B",
"m  c #284F76",
"M  c #29537C",
"N  c #285077",
"B  c #4A4846",
"V  c #5A5A5A",
"C  c #6A5541",
"Z  c #6C5D5D",
"A  c #776048",
"S  c #727272",
"D  c #9C0000",
"F  c #8A151D",
"G  c #A00000",
"H  c #A90000",
"J  c #B30000",
"K  c #BF0000",
"L  c #BB0D11",
"P  c #AE131A",
"I  c #831920",
"U  c #8E1A22",
"Y  c #961C24",
"T  c #9D1D27",
"R  c #A31C25",
"E  c #A41E28",
"W  c #AE212A",
"Q  c #B3222B",
"!  c #CA0400",
"~  c #D50000",
"^  c #DB0C00",
"/  c #DF1300",
"(  c #E82600",
")  c #ED3000",
"_  c #F03600",
"`  c #CD2D2D",
"'  c #82632F",
"]  c #9A7134",
"[  c #E44C00",
"{  c #F64300",
"}  c #FB4D00",
"|  c #FE5400",
" . c #FE5E0F",
".. c #FE6418",
"X. c #915351",
"o. c #8B6B4B",
"O. c #D27975",
"+. c #AA835C",
"@. c #8F8377",
"#. c #92867A",
"$. c #998A7C",
"%. c #A58668",
"&. c #D19A48",
"*. c #DCA24B",
"=. c #EDAE51",
"-. c #C5986C",
";. c #C59B71",
":. c #C3A17E",
">. c #FFD26B",
",. c #2C5680",
"<. c #2D5985",
"1. c #2E5D8C",
"2. c #326496",
"3. c #336699",
"4. c #34699E",
"5. c #376EA4",
"6. c #386FA6",
"7. c #3B75AF",
"8. c gray54",
"9. c #9B8F82",
"0. c #9F9184",
"q. c #9A9A9A",
"w. c #9B9595",
"e. c #A7998B",
"r. c #A4A4A4",
"t. c #AFAFAF",
"y. c #B2B2B2",
"u. c gray",
"i. c #FF938E",
"p. c #D5AA80",
"a. c #C4AD97",
"s. c #C5B09C",
"d. c #EBBC8D",
"f. c #FFB38D",
"g. c #FFA29B",
"h. c #FEBE9E",
"j. c #C5B2A0",
"k. c #CFBEAD",
"l. c #FFB3B0",
"z. c #EFC090",
"x. c #FFCC99",
"c. c #FBC597",
"v. c #C0C0BF",
"b. c #FFD1A3",
"n. c #E1CFBC",
"m. c #FFC3BD",
"M. c #C5C5C5",
"N. c #CCCCCC",
"B. c #D3D3D3",
"V. c gray86",
"C. c #FFCCCA",
"Z. c #F1DECA",
"A. c #E7D7D7",
"S. c #FDE1C5",
"D. c #FFE6CC",
"F. c #F7E2CE",
"G. c #FBE7D2",
"H. c #FFEAD5",
"J. c #FFE1DF",
"K. c #E6E6E6",
"L. c #ECECEC",
"P. c #F8EAE7",
"I. c #FFF2E5",
"U. c #F3F3F3",
"Y. c #FEFEFE",
"T. c #FFF9F4",
"R. c None",
/* pixels */
"R.R.R.R.R.R.R.R.R.R.R.R.R.R.R.R.R.R.R.R.R.R.R.R.R.R.R.R.R.R.R.R.R.R.R.R.R.R.R.R.R.R.R.R.R.R.R.R.R.R.R.R.R.R.R.R.R.R.R.R.R.R.R.R.R.R.R.R.R.R.",
"R.R.R.R.R.R.R.R.R.R.R.R.R.R.R.R.R.R.R.R.R.R.R.R.R.R.R.R.R.R.R.R.R.R.R.R.R.R.R.R.R.R.R.R.R.R.R.R.R.R.R.R.R.R.R.R.R.R.R.R.R.R.R.R.R.R.R.R.R.R.",
"R.R.R.R.R.R.R.R.R.R.R.R.R.R.R.R.R.R.R.R.R.R.R.R.R.R.R.R.R.R.R.R.R.R.R.R.R.R.R.R.R.R.R.R.R.R.R.R.R.R.R.R.R.R.R.R.R.R.R.R.R.R.R.R.R.R.R.R.R.R.",
"R.R.R.R.R.R.R.R.R.R.R.R.R.R.R.R.R.R.R.R.R.R.R.R.R.R.R.R.R.R.R.R.R.R.R.R.R.R.R.R.R.R.R.R.R.R.R.R.R.R.R.R.R.R.R.R.R.R.R.R.R.R.R.R.R.R.R.R.R.R.",
"R.R.R.R.R.R.R.R.R.R.R.R.R.R.R.R.R.R.R.R.R.R.R.R.R.R.R.R.R.R.R.R.R.R.R.R.R.R.R.R.R.R.R.R.R.R.R.R.R.R.R.R.R.R.R.R.R.R.R.R.R.R.R.R.R.R.R.R.R.R.",
"R.R.R.R.R.R.R.R.R.R.R.R.R.R.R.R.R.R.R.R.R.R.R.R.R.R.R.R.      R.R.R.R.R.R.R.R.R.R.R.R.R.R.R.R.R.R.R.R.R.R.R.R.R.R.R.R.R.R.R.R.R.R.R.R.R.R.R.",
"R.R.R.R.R.R.R.R.R.R.R.R.R.R.R.R.R.R.R.R.R.R.R.R.R.R.R.  G ~ J     R.R.R.R.R.R.R.R.R.R.R.R.R.R.R.R.R.R.R.R.R.R.R.R.R.R.R.R.R.R.R.R.R.R.R.R.R.",
"R.R.R.R.R.R.R.R.R.R.R.R.R.R.R.R.R.R.R.R.R.R.R.R.R.R.  ~  ...| { ~     R.R.R.R.R.R.R.R.R.R.R.R.R.R.R.R.R.R.R.R.R.R.R.R.R.R.R.R.R.R.R.R.R.R.R.",
"R.R.R.R.R.R.R.R.R.R.R.R.R.R.R.R.R.R.R.R.R.R.R.R.R.  ` Y.Y.Y.Y.f.| ~     R.R.R.R.R.R.R.R.R.R.R.R.R.R.R.R.R.R.R.R.R.R.R.R.R.R.R.R.R.R.R.R.R.R.",
"R.R.R.R.R.R.R.R.R.R.R.R.R.R.R.R.R.R.R.R.R.R.R.R.R.  U.U.T.Y.Y.Y.Y.| ~   R.R.R.R.R.R.R.R.R.R.R.R.R.R.R.R.R.R.R.R.R.R.R.R.R.R.R.R.R.R.R.R.R.R.",
"R.R.R.R.R.R.R.R.R.R.R.R.R.R.R.R.R.R.R.R.R.R.R.R.R.Z U.Y.U.U.U.Y.Y.Y.| ~   R.R.R.R.R.R.R.R.R.R.R.R.R.R.R.R.R.R.R.R.R.R.R.R.R.R.R.R.R.R.R.R.R.",
"R.R.R.R.R.R.R.R.R.R.R.R.R.R.R.R.R.R.R.R.R.R.R.R.  U.U.U.U.U.U.U.U.Y.Y.| ~           R.R.R.R.R.R.R.R.R.R.R.R.R.R.R.R.R.R.R.R.R.R.R.R.R.R.R.R.",
"R.R.R.R.R.R.R.R.R.R.R.R.R.R.R.R.R.R.R.R.R.R.R.R.  U.U.U.U.U.U.U.U.U.U.Y.| e   | | )   R.R.R.R.R.R.R.R.R.R.R.R.R.R.R.R.R.R.R.R.R.R.R.R.R.R.R.",
"R.R.R.R.R.R.R.R.R.R.R.R.R.R.R.R.R.R.R.R.R.R.R.R.  L.L.L.U.L.L.U.U.U.U.U.Y.| .   | _ H   R.R.R.R.R.R.R.R.R.R.R.R.R.R.R.R.R.R.R.R.R.R.R.R.R.R.",
"R.R.R.R.R.R.R.R.R.R.R.R.R.R.R.R.R.R.R.R.R.R.R.R.  L.L.U.L.U.L.L.U.U.L.U.U.Y.| 9   u R   R.R.R.R.R.R.R.R.R.R.R.R.R.R.R.R.R.R.R.R.R.R.R.R.R.R.",
"R.R.R.R.R.R.R.R.R.R.R.R.R.R.R.R.R.R.R.R.R.R.R.R.4 N.L.L.U.L.L.L.L.U.U.L.U.L.Y.| ( *     R.R.R.R.R.R.R.R.R.R.R.R.R.R.R.R.R.R.R.R.R.R.R.R.R.R.",
"R.R.R.R.R.R.R.R.R.R.R.R.R.R.R.R.R.R.R.R.R.R.R.      N.V.L.L.L.L.L.L.L.L.L.U.L.U.T.| / *   R.R.R.R.R.R.R.R.R.R.R.R.R.R.R.R.R.R.R.R.R.R.R.R.R.",
"R.R.R.R.R.R.R.R.R.R.R.R.R.R.R.R.R.R.R.R.R.R.R.. Q U     q.B.L.L.L.L.L.L.L.L.L.L.L.Y.h.| ^ +   R.R.R.R.R.R.R.R.R.R.R.R.R.R.R.R.R.R.R.R.R.R.R.",
"R.R.R.R.R.R.R.R.R.R.R.R.R.R.R.R.R.R.R.R.R.R.    I I Q W O   7 N.K.L.L.L.L.L.L.L.L.L.L.h.| | ~     R.R.R.R.R.R.R.R.R.R.R.R.R.R.R.R.R.R.R.R.R.",
"R.R.R.R.R.R.R.R.R.R.R.R.R.R.R.R.R.R.R.R.R.  ! !     U T R Q i     N.N.K.L.K.L.L.L.L.L.L.^ | | | u   R.R.R.R.R.R.R.R.R.R.R.R.R.R.R.R.R.R.R.R.",
"R.R.R.R.R.R.R.R.R.R.R.R.R.R.R.R.R.R.R.    ~ | | | | .   t T R Q R     t.N.N.L.K.K.K.L.L.~ ~ / | | J   R.R.R.R.R.R.R.R.R.R.R.R.R.R.R.R.R.R.R.",
"R.R.R.R.R.R.R.R.R.R.R.R.R.R.R.R.R.R.    ~ | | | | | | | r     T T Q Q     % N.N.N.B.K.A.~ ~ ~ ~ T T   R.R.R.R.R.R.R.R.R.R.R.R.R.R.R.R.R.R.R.",
"R.R.R.R.R.R.R.R.R.R.R.R.R.R.R.R.R.R.  ~ { | | | | | | | | | [     T T R Q i     N.N.N.T T T T T T T F   R.R.R.R.R.R.R.R.R.R.R.R.R.R.R.R.R.R.",
"R.R.R.R.R.R.R.R.R.R.R.R.R.R.R.R.R.  ~ ~ | | | | | | | | | | | | |     t T T Q R     w.T T T T T T T q R.R.R.R.R.R.R.R.R.R.R.R.R.R.R.R.R.R.R.",
"R.R.R.R.R.R.R.R.R.R.R.R.R.R.R.R.R.  ~ ~ ~ | | | | | | | | } / ~ ~ ~ ~ 9     T I W W .   = T T T T T   R.R.R.R.R.R.R.R.R.R.R.R.R.R.R.R.R.R.R.",
"R.R.R.R.R.R.R.R.R.R.R.R.R.R.R.R.R.  ~ ~ ~ ~ ~ ~ ~ ~ ~ ~ ~ ~ ~ ~ ~ ~ ~ ~ ~ !     a I Y Q y   p T p   R.R.R.R.R.R.R.R.R.R.R.R.R.R.R.R.R.R.R.R.",
"R.R.R.R.R.R.R.R.R.R.R.R.R.R.R.R.R.  0 ~ ~ ~ ~ ~ ~ ~ ~ ~ ~ ~ ~ ~ ~ ~ ~ ~ ~ T T   .   t F I W       R.R.R.R.R.R.R.R.R.R.R.R.R.R.R.R.R.R.R.R.R.",
"R.R.R.R.R.R.R.R.R.R.R.R.R.R.R.R.R.R.    T P ~ ~ ~ ~ ~ ~ ~ ~ ~ ~ ~ L T T q     >.=.=.d   O +   R.R.R.R.R.R.R.R.R.R.R.R.R.R.R.R.R.R.R.R.R.R.R.",
"R.R.R.R.R.R.R.R.R.R.R.R.R.R.R.R.R.R.R.R.    O F T T T T T T T Y 0       ]   =.=.=.=.=.=.&.  R.R.R.R.R.R.R.R.R.R.R.R.R.R.R.R.R.R.R.R.R.R.R.R.",
"R.R.R.R.R.R.R.R.R.R.R.R.R.R.R.R.R.R.R.R.R.R.  B               s ' h - =.=.  =.=.=.=.=.=.o R.R.R.R.R.R.R.R.R.R.R.R.R.R.R.R.R.R.R.R.R.R.R.R.R.",
"R.R.R.R.R.R.R.R.R.R.R.R.R.R.R.R.R.R.R.R.R.R.R.7 B         H.H.  s @.8 o       =.=.        R.R.R.R.R.R.R.R.R.R.R.R.R.R.R.R.R.R.R.R.R.R.R.R.R.",
"R.R.R.R.R.R.R.R.R.R.R.R.R.R.R.R.R.R.R.R.R.R.  @ V % H.H.H.H.H.H.G.  7 Y.  n.H.- *.B H.T.  R.R.R.R.R.R.R.R.R.R.R.R.R.R.R.R.R.R.R.R.R.R.R.R.R.",
"R.R.R.R.R.R.R.R.R.R.R.R.R.R.R.R.R.R.R.R.R.R.  o % % 9.H.H.H.H.H.H.  % %     H.v.  x.x.D.I.  R.R.R.R.R.R.R.R.R.R.R.R.R.R.R.R.R.R.R.R.R.R.R.R.",
"R.R.R.R.R.R.R.R.R.R.R.R.R.R.R.R.R.R.R.R.R.  r.% % % Z.H.m.i.g.H.H.  % %   #.H.D.D.x.x.x.H.  R.R.R.R.R.R.R.R.R.R.R.R.R.R.R.R.R.R.R.R.R.R.R.R.",
"R.R.R.R.R.R.R.R.R.R.R.R.R.R.R.R.R.R.R.R.R.R.o v.% X 9.i.P.i.i.i.F.0.% %   e.H.H.x.x.x.x.H.  R.R.R.R.R.R.R.R.R.R.R.R.R.R.R.R.R.R.R.R.R.R.R.R.",
"R.R.R.R.R.R.R.R.R.R.R.R.R.R.R.R.R.R.R.R.R.R.  L.    O i.i.i.i.i.  H.      H.H.D.x.x.x.H.F.  R.R.R.R.R.R.R.R.R.R.R.R.R.R.R.R.R.R.R.R.R.R.R.R.",
"R.R.R.R.R.R.R.R.R.R.R.R.R.R.R.R.R.R.R.R.R.R.  i.C.H.: O.i.i.i.X.0.H.H.H.i.l.P.x.x.S.H.#.  R.R.R.R.R.R.R.R.R.R.R.R.R.R.R.R.R.R.R.R.R.R.R.R.R.",
"R.R.R.R.R.R.R.R.R.R.R.R.R.R.R.R.R.R.R.R.R.R.R.R.& : x.x.d.p.d.D.H.H.S.x.i.i.c.g     R.R.R.R.R.R.R.R.R.R.R.R.R.R.R.R.R.R.R.R.R.R.R.R.R.R.R.R.",
"R.R.R.R.R.R.R.R.R.R.R.R.R.R.R.R.R.R.R.R.R.R.R.R.R.R.    o %.x.x.x.p.6 X       R.  R.R.R.R.R.R.R.R.R.R.R.R.R.R.R.R.R.R.R.R.R.R.R.R.R.R.R.R.R.",
"R.R.R.R.R.R.R.R.R.R.R.R.R.R.R.R.R.R.R.R.R.R.R.R.R.R.R.R.      % 7 8.<.3.3.    Y.Y.V.  R.R.R.R.R.R.R.R.R.R.R.R.R.R.R.R.R.R.R.R.R.R.R.R.R.R.R.",
"R.R.R.R.R.R.R.R.R.R.R.R.R.R.R.R.R.R.R.R.R.R.R.R.R.R.R.  M.,   Y.Y.  3.3.o Y.y.Y.Y.Y.N.  R.R.R.R.R.R.R.R.R.R.R.R.R.R.R.R.R.R.R.R.R.R.R.R.R.R.",
"R.R.R.R.R.R.R.R.R.R.R.R.R.R.R.R.R.R.R.R.R.R.R.R.R.R.  M.y.3.N M M 1.3.3.@ Y.V.K.Y.Y.Y.V R.R.R.R.R.R.R.R.R.R.R.R.R.R.R.R.R.R.R.R.R.R.R.R.R.R.",
"R.R.R.R.R.R.R.R.R.R.R.R.R.R.R.R.R.R.R.R.R.R.R.R.R.R.  M.  # # # # $ $ #   Y.  K.K.Y.U.  R.R.R.R.R.R.R.R.R.R.R.R.R.R.R.R.R.R.R.R.R.R.R.R.R.R.",
"R.R.R.R.R.R.R.R.R.R.R.R.R.R.R.R.R.R.R.R.R.R.R.R.R.  j.    7.7.7.7.7.6.  ,.8.Y.  K.y.% H.  R.R.R.R.R.R.R.R.R.R.R.R.R.R.R.R.R.R.R.R.R.R.R.R.R.",
"R.R.R.R.R.R.R.R.R.R.R.R.R.R.R.R.R.R.R.R.R.R.R.R.  $.j.j.  7.7.7.7.7.7.  3.2.  r.4 A H.H.H.  R.R.R.R.R.R.R.R.R.R.R.R.R.R.R.R.R.R.R.R.R.R.R.R.",
"R.R.R.R.R.R.R.R.R.R.R.R.R.R.R.R.R.R.R.R.R.R.R.R.  j.j.+.l 7.7.7.7.7.6.  3.3.3.,.    x.H.H.  R.R.R.R.R.R.R.R.R.R.R.R.R.R.R.R.R.R.R.R.R.R.R.R.",
"R.R.R.R.R.R.R.R.R.R.R.R.R.R.R.R.R.R.R.R.R.R.R.  j.j.j.d v 7.7.7.7.7.5.  3.3.2.,.    x.H.H.H.  R.R.R.R.R.R.R.R.R.R.R.R.R.R.R.R.R.R.R.R.R.R.R.",
"R.R.R.R.R.R.R.R.R.R.R.R.R.R.R.R.R.R.R.R.R.R.R.  j.j.s.> m 7.7.7.7.7.3.# 3.3.,.,.    c.H.H.H.  R.R.R.R.R.R.R.R.R.R.R.R.R.R.R.R.R.R.R.R.R.R.R.",
"R.R.R.R.R.R.R.R.R.R.R.R.R.R.R.R.R.R.R.R.R.R.R.  M.j.j.o.1 3         X 3.3.<.,.<.    x.H.H.Y.  R.R.R.R.R.R.R.R.R.R.R.R.R.R.R.R.R.R.R.R.R.R.R.",
"R.R.R.R.R.R.R.R.R.R.R.R.R.R.R.R.R.R.R.R.R.R.R.  j.j.j.-.  ,.,.,.,.,.,.,.2.3.2.#   5 x.H.H.H.  R.R.R.R.R.R.R.R.R.R.R.R.R.R.R.R.R.R.R.R.R.R.R.",
"R.R.R.R.R.R.R.R.R.R.R.R.R.R.R.R.R.R.R.R.R.R.R.  ;.a.-.j 2   n ,.,.,.,.z 7.3.3.,.R.  x.x.b.%.  R.R.R.R.R.R.R.R.R.R.R.R.R.R.R.R.R.R.R.R.R.R.R.",
"R.R.R.R.R.R.R.R.R.R.R.R.R.R.R.R.R.R.R.R.R.R.R.R.    C   v v $         N 4.3.3.,.  R.        R.R.R.R.R.R.R.R.R.R.R.R.R.R.R.R.R.R.R.R.R.R.R.R.",
"R.R.R.R.R.R.R.R.R.R.R.R.R.R.R.R.R.R.R.R.R.R.R.R.R.R.R.< v v v x k R.R.3.3.3.3.,.  R.R.R.R.R.R.R.R.R.R.R.R.R.R.R.R.R.R.R.R.R.R.R.R.R.R.R.R.R.",
"R.R.R.R.R.R.R.R.R.R.R.R.R.R.R.R.R.R.R.R.R.R.R.R.R.R.    X k x x   R.R.b n m N M   R.R.R.R.R.R.R.R.R.R.R.R.R.R.R.R.R.R.R.R.R.R.R.R.R.R.R.R.R.",
"R.R.R.R.R.R.R.R.R.R.R.R.R.R.R.R.R.R.R.R.R.R.R.R.R.R.  t.M.r.      R.R.  K.L.K.V.  R.R.R.R.R.R.R.R.R.R.R.R.R.R.R.R.R.R.R.R.R.R.R.R.R.R.R.R.R.",
"R.R.R.R.R.R.R.R.R.R.R.R.R.R.R.R.R.R.R.R.R.R.R.                                    R.R.R.R.R.R.R.R.R.R.R.R.R.R.R.R.R.R.R.R.R.R.R.R.R.R.R.R.R.",
"R.R.R.R.R.R.R.R.R.R.R.R.R.R.R.R.R.R.R.R.R.R.  r.M.M.t.t.  e G   K.Y.Y.K.K.  ! ~ f   R.R.R.R.R.R.R.R.R.R.R.R.R.R.R.R.R.R.R.R.R.R.R.R.R.R.R.R.",
"R.R.R.R.R.R.R.R.R.R.R.R.R.R.R.R.R.R.R.R.R.  q.t.v.t.t.t.r.    K.L.T.K.K.K.N.  ~ K.  R.R.R.R.R.R.R.R.R.R.R.R.R.R.R.R.R.R.R.R.R.R.R.R.R.R.R.R.",
"R.R.R.R.R.R.R.R.R.R.R.R.R.R.R.R.R.R.R.R.R.  y.t.t.t.t.t.q.w.  K.K.K.K.K.K.N.S w D   R.R.R.R.R.R.R.R.R.R.R.R.R.R.R.R.R.R.R.R.R.R.R.R.R.R.R.R.",
"R.R.R.R.R.R.R.R.R.R.R.R.R.R.R.R.R.R.R.R.R.                                            R.R.R.R.R.R.R.R.R.R.R.R.R.R.R.R.R.R.R.R.R.R.R.R.R.R.R.",
"R.R.R.R.R.R.R.R.R.R.R.R.R.R.R.R.R.R.R.R.R.B t.M.t.t.t.t.t.4 M.K.Y.K.K.K.K.K.K.K.N.B   R.R.R.R.R.R.R.R.R.R.R.R.R.R.R.R.R.R.R.R.R.R.R.R.R.R.R.",
"R.R.R.R.R.R.R.R.R.R.R.R.R.R.R.R.R.R.R.R.                                              R.R.R.R.R.R.R.R.R.R.R.R.R.R.R.R.R.R.R.R.R.R.R.R.R.R.R.",
"R.R.R.R.R.R.R.R.R.R.R.R.R.R.R.R.R.R.R.R.R.R.R.R.R.R.R.R.R.R.R.R.R.R.R.R.R.R.R.R.R.R.R.R.R.R.R.R.R.R.R.R.R.R.R.R.R.R.R.R.R.R.R.R.R.R.R.R.R.R.",
"R.R.R.R.R.R.R.R.R.R.R.R.R.R.R.R.R.R.R.R.R.R.R.R.R.R.R.R.R.R.R.R.R.R.R.R.R.R.R.R.R.R.R.R.R.R.R.R.R.R.R.R.R.R.R.R.R.R.R.R.R.R.R.R.R.R.R.R.R.R.",
"R.R.R.R.R.R.R.R.R.R.R.R.R.R.R.R.R.R.R.R.R.R.R.R.R.R.R.R.R.R.R.R.R.R.R.R.R.R.R.R.R.R.R.R.R.R.R.R.R.R.R.R.R.R.R.R.R.R.R.R.R.R.R.R.R.R.R.R.R.R.",
"R.R.R.R.R.R.R.R.R.R.R.R.R.R.R.R.R.R.R.R.R.R.R.R.R.R.R.R.R.R.R.R.R.R.R.R.R.R.R.R.R.R.R.R.R.R.R.R.R.R.R.R.R.R.R.R.R.R.R.R.R.R.R.R.R.R.R.R.R.R.",
"R.R.R.R.R.R.R.R.R.R.R.R.R.R.R.R.R.R.R.R.R.R.R.R.R.R.R.R.R.R.R.R.R.R.R.R.R.R.R.R.R.R.R.R.R.R.R.R.R.R.R.R.R.R.R.R.R.R.R.R.R.R.R.R.R.R.R.R.R.R.",
"R.R.R.R.R.R.R.R.R.R.R.R.R.R.R.R.R.R.R.R.R.R.R.R.R.R.R.R.R.R.R.R.R.R.R.R.R.R.R.R.R.R.R.R.R.R.R.R.R.R.R.R.R.R.R.R.R.R.R.R.R.R.R.R.R.R.R.R.R.R.",
"R.R.R.R.R.R.R.R.R.R.R.R.R.R.R.R.R.R.R.R.R.R.R.R.R.R.R.R.R.R.R.R.R.R.R.R.R.R.R.R.R.R.R.R.R.R.R.R.R.R.R.R.R.R.R.R.R.R.R.R.R.R.R.R.R.R.R.R.R.R.",
"R.R.R.R.R.R.R.R.R.R.R.R.R.R.R.R.R.R.R.R.R.R.R.R.R.R.R.R.R.R.R.R.R.R.R.R.R.R.R.R.R.R.R.R.R.R.R.R.R.R.R.R.R.R.R.R.R.R.R.R.R.R.R.R.R.R.R.R.R.R."
};
