/* XPM */
static char *result[] = {
/* columns rows colors chars-per-pixel */
"70 70 160 2 ",
"   c #000000",
".  c #0B0302",
"X  c #030609",
"o  c #0B0B0A",
"O  c #130E07",
"+  c #110D0C",
"@  c #180405",
"#  c #060C12",
"$  c #0A131D",
"%  c #141414",
"&  c #1B1B1B",
"*  c #220608",
"=  c #2E0709",
"-  c #3B0B0E",
";  c #231C15",
":  c #321D1C",
">  c #2E2310",
",  c #071D33",
"<  c #0D1A27",
"1  c #262524",
"2  c #2C2C2C",
"3  c #2C2925",
"4  c #302C27",
"5  c #343333",
"6  c #410A0D",
"7  c #490507",
"8  c #5C0000",
"9  c #5E1F00",
"0  c #4D0E13",
"q  c #520F14",
"w  c #6B0000",
"e  c #730000",
"r  c #650F15",
"t  c #6D141B",
"y  c #7B141B",
"u  c #402F16",
"i  c #642000",
"p  c #45302A",
"a  c #534221",
"s  c #49423C",
"d  c #5A4939",
"f  c #0A2D4F",
"g  c #1A334C",
"h  c #0B2F54",
"j  c #0B3056",
"k  c #1D3B58",
"l  c #113E6B",
"z  c #20405F",
"x  c #234466",
"c  c #284E75",
"v  c #264B70",
"b  c #2D557E",
"n  c #285077",
"m  c #4C4C4C",
"M  c #514A43",
"N  c #585858",
"B  c #72685F",
"V  c #636261",
"C  c #757575",
"Z  c #7D7B7A",
"A  c #800000",
"S  c #9A0000",
"D  c #A20000",
"F  c #AC0000",
"G  c #BF0100",
"H  c #BD0C11",
"J  c #852C00",
"K  c #841920",
"L  c #8B1A22",
"P  c #9D1D27",
"I  c #971B24",
"U  c #A21E27",
"Y  c #972B2B",
"T  c #AD2129",
"R  c #B3222B",
"E  c #C30000",
"W  c #CB0000",
"Q  c #C10A0D",
"!  c #D50000",
"~  c #D80600",
"^  c #DE1100",
"/  c #E01600",
"(  c #E21A00",
")  c #E72400",
"_  c #EE3200",
"`  c #F43F00",
"'  c #D92525",
"]  c #F74500",
"[  c #FE5400",
"{  c #FE5B0B",
"}  c #FE5F11",
"|  c #896D52",
" . c #B56F74",
".. c #FE7F41",
"X. c #C4716D",
"o. c #B38840",
"O. c #988B7E",
"+. c #B98F66",
"@. c #BF9468",
"#. c #BC9A77",
"$. c #C39144",
"%. c #D39D49",
"&. c #FE884E",
"*. c #DAA24C",
"=. c #EDAE51",
"-. c #C5986C",
";. c #C1966A",
":. c #C59C73",
">. c #FEA97E",
",. c #FFA275",
"<. c #F6C05E",
"1. c #2C5680",
"2. c #2E5983",
"3. c #2D5B88",
"4. c #305E8E",
"5. c #326495",
"6. c #336699",
"7. c #34699E",
"8. c #376EA4",
"9. c #3B75AF",
"0. c #4784C1",
"q. c #979797",
"w. c #9A9A9A",
"e. c #888888",
"r. c #B49191",
"t. c #A4A4A4",
"y. c #AFAFAF",
"u. c gray71",
"i. c gray",
"p. c #FF938E",
"a. c #D8AF88",
"s. c #D6B28F",
"d. c #C5AF9A",
"f. c #EABE91",
"g. c #FEB590",
"h. c #C5B2A0",
"j. c #D1BEAD",
"k. c #FFADA3",
"l. c #FFB9B6",
"z. c #EBC095",
"x. c #FFCC99",
"c. c #FFD2A4",
"v. c #E5D2BF",
"b. c #FFDEBC",
"n. c #C5C4C4",
"m. c gray80",
"M. c #D5D5D5",
"N. c #DDDDDD",
"B. c #EDDAC6",
"V. c #FFDDCA",
"C. c #FEE3CC",
"Z. c #FBE1C7",
"A. c #E4E2DF",
"S. c #FFEAD5",
"D. c #FFE7DB",
"F. c #E6E6E6",
"G. c #ECECEC",
"H. c #F3F3F3",
"J. c #FEFEFE",
"K. c None",
/* pixels */
"K.K.K.K.K.K.K.K.K.K.K.K.K.K.K.K.K.K.K.K.K.K.K.K.K.K.K.K.K.K.K.K.K.K.K.K.K.K.K.K.K.K.K.K.K.K.K.K.K.K.K.K.K.K.K.K.K.K.K.K.K.K.K.K.K.K.K.K.K.K.",
"K.K.K.K.K.K.K.K.K.K.K.K.K.K.K.K.K.K.K.K.K.K.K.K.K.K.K.K.K.K.K.K.K.K.K.K.K.K.K.K.K.K.K.K.K.K.K.K.K.K.K.K.K.K.K.K.K.K.K.K.K.K.K.K.K.K.K.K.K.K.",
"K.K.K.K.K.K.K.K.K.K.K.K.K.K.K.K.K.K.K.K.K.K.K.K.K.K.K.K.K.K.K.K.K.K.K.K.K.K.K.K.K.K.K.K.K.K.K.K.K.K.K.K.K.K.K.K.K.K.K.K.K.K.K.K.K.K.K.K.K.K.",
"K.K.K.K.K.K.K.K.K.K.K.K.K.K.K.K.K.K.K.K.K.K.K.K.K.K.K.K.K.K.K.K.K.K.K.K.K.K.K.K.K.K.K.K.K.K.K.K.K.K.K.K.K.K.K.K.K.K.K.K.K.K.K.K.K.K.K.K.K.K.",
"K.K.K.K.K.K.K.K.K.K.K.K.K.K.K.K.K.K.K.K.K.K.K.K.K.K.K.K.K.K.K.K.K.K.K.K.K.K.K.K.K.K.K.K.K.K.K.K.K.K.K.K.K.K.K.K.K.K.K.K.K.K.K.K.K.K.K.K.K.K.",
"K.K.K.K.K.K.K.K.K.K.K.K.K.K.K.K.K.K.K.K.K.K.K.K.K.K.K.K.K.K.K.K.K.K.K.K.K.K.K.K.K.K.K.K.K.K.K.K.K.K.K.K.K.K.K.K.K.K.K.K.K.K.K.K.K.K.K.K.K.K.",
"K.K.K.K.K.K.K.K.K.K.K.K.K.K.K.K.K.K.K.K.K.K.K.K.K.K.K.K.K.K.K.K.K.K.K.K.K.K.K.        K.K.K.K.K.K.K.K.K.K.K.K.K.K.K.K.K.K.K.K.K.K.K.K.K.K.K.",
"K.K.K.K.K.K.K.K.K.K.K.K.K.K.K.K.K.K.K.K.K.K.K.K.K.K.K.K.K.K.K.K.K.K.K.K.K.    E ! ~ !   K.K.K.K.K.K.K.K.K.K.K.K.K.K.K.K.K.K.K.K.K.K.K.K.K.K.",
"K.K.K.K.K.K.K.K.K.K.K.K.K.K.K.K.K.K.K.K.K.K.K.K.K.K.K.K.K.K.K.K.K.K.K.K.  F ^ [ } D.,.!   K.K.K.K.K.K.K.K.K.K.K.K.K.K.K.K.K.K.K.K.K.K.K.K.K.",
"K.K.K.K.K.K.K.K.K.K.K.K.K.K.K.K.K.K.K.K.K.K.K.K.K.K.K.K.K.K.K.K.K.K.K.  ! [ [ J.J.J.J.H.Y   K.K.K.K.K.K.K.K.K.K.K.K.K.K.K.K.K.K.K.K.K.K.K.K.",
"K.K.K.K.K.K.K.K.K.K.K.K.K.K.K.K.K.K.K.K.K.K.K.K.K.K.K.K.K.K.K.K.K.K.  W [ &.J.J.J.J.H.H.H.  K.K.K.K.K.K.K.K.K.K.K.K.K.K.K.K.K.K.K.K.K.K.K.K.",
"K.K.K.K.K.K.K.K.K.K.K.K.K.K.K.K.K.K.K.K.K.K.K.K.K.K.K.K.K.      K.  e [ g.J.J.H.H.H.J.H.H.. K.K.K.K.K.K.K.K.K.K.K.K.K.K.K.K.K.K.K.K.K.K.K.K.",
"K.K.K.K.K.K.K.K.K.K.K.K.K.K.K.K.K.K.K.K.K.K.K.K.K.K.K.K.  G [ ^   . _ >.J.H.H.H.H.H.H.H.H.r.K.K.K.K.K.K.K.K.K.K.K.K.K.K.K.K.K.K.K.K.K.K.K.K.",
"K.K.K.K.K.K.K.K.K.K.K.K.K.K.K.K.K.K.K.K.K.K.K.K.K.K.K.  ! [ [ J   ) g.J.H.H.H.H.H.H.H.H.G.H.  K.K.K.K.K.K.K.K.K.K.K.K.K.K.K.K.K.K.K.K.K.K.K.",
"K.K.K.K.K.K.K.K.K.K.K.K.K.K.K.K.K.K.K.K.K.K.K.K.K.K.K.  ! !     ] D.H.H.H.H.H.H.H.H.G.H.G.G.  K.K.K.K.K.K.K.K.K.K.K.K.K.K.K.K.K.K.K.K.K.K.K.",
"K.K.K.K.K.K.K.K.K.K.K.K.K.K.K.K.K.K.K.K.K.K.K.K.K.K.K.      W [ J.H.H.H.H.H.G.G.H.G.G.G.G.H.  K.K.K.K.K.K.K.K.K.K.K.K.K.K.K.K.K.K.K.K.K.K.K.",
"K.K.K.K.K.K.K.K.K.K.K.K.K.K.K.K.K.K.K.K.K.K.K.K.K.K.    ! [ &.J.H.H.G.G.G.G.G.G.G.G.G.G.F.m.  K.K.K.K.K.K.K.K.K.K.K.K.K.K.K.K.K.K.K.K.K.K.K.",
"K.K.K.K.K.K.K.K.K.K.K.K.K.K.K.K.K.K.K.K.K.K.K.K.    ! [ { J.G.G.G.G.G.G.G.G.G.G.G.G.F.m.2     K.K.K.K.K.K.K.K.K.K.K.K.K.K.K.K.K.K.K.K.K.K.K.",
"K.K.K.K.K.K.K.K.K.K.K.K.K.K.K.K.K.K.K.K.K.K.    ! [ [ J.H.G.G.G.G.G.G.G.G.G.G.G.M.u.    t T L   K.K.K.K.K.K.K.K.K.K.K.K.K.K.K.K.K.K.K.K.K.K.",
"K.K.K.K.K.K.K.K.K.K.K.K.K.K.K.K.K.K.K.K.K.  E [ [ [ / G.G.G.G.G.G.G.G.F.G.N.m.%     T R P K 0   K.K.K.K.K.K.K.K.K.K.K.K.K.K.K.K.K.K.K.K.K.K.",
"K.K.K.K.K.K.K.K.K.K.K.K.K.K.K.K.K.K.K.K.  ~ [ [ / ! ' G.G.G.G.G.F.F.M.m.w.    K R U P P     9 !     K.K.K.K.K.K.K.K.K.K.K.K.K.K.K.K.K.K.K.K.",
"K.K.K.K.K.K.K.K.K.K.K.K.K.K.K.K.K.K.K.  P P ! ! ! ! ! G.F.F.N.m.m.m.X   . T R U P -     [ [ [ [ ! w   K.K.K.K.K.K.K.K.K.K.K.K.K.K.K.K.K.K.K.",
"K.K.K.K.K.K.K.K.K.K.K.K.K.K.K.K.K.K.K.  P P P P P P P m.m.m.m.w.    P R U P P     i [ [ [ [ [ [ [ ! E   K.K.K.K.K.K.K.K.K.K.K.K.K.K.K.K.K.K.",
"K.K.K.K.K.K.K.K.K.K.K.K.K.K.K.K.K.K.K.  P P P P P P P  .m.X   @ R R P P =     [ [ [ [ [ [ [ [ [ [ [ ! D   K.K.K.K.K.K.K.K.K.K.K.K.K.K.K.K.K.",
"K.K.K.K.K.K.K.K.K.K.K.K.K.K.K.K.K.K.K.  I P P P P P q     K R T P L     A _ [ [ [ [ [ [ [ [ [ [ [ [ ! !   K.K.K.K.K.K.K.K.K.K.K.K.K.K.K.K.K.",
"K.K.K.K.K.K.K.K.K.K.K.K.K.K.K.K.K.K.K.K.  y P P     - R T K K @   . ! ! ! ! ! ! ! ` [ [ [ [ [ [ [ / ! ! S   K.K.K.K.K.K.K.K.K.K.K.K.K.K.K.K.",
"K.K.K.K.K.K.K.K.K.K.K.K.K.K.K.K.K.K.K.K.K.      6 R K K y     t ! ! ! ! ! ! ! ! ! ! ! ! ! ! ! ! ! ! ! ! 6 K.K.K.K.K.K.K.K.K.K.K.K.K.K.K.K.K.",
"K.K.K.K.K.K.K.K.K.K.K.K.K.K.K.K.K.K.K.K.K.K.K.K.* K @   . =.a   r P H ! ! ! ! ! ! ! ! ! ! ! ! ! ! ! ! P   K.K.K.K.K.K.K.K.K.K.K.K.K.K.K.K.K.",
"K.K.K.K.K.K.K.K.K.K.K.K.K.K.K.K.K.K.K.K.K.K.K.K.    $.=.=.=.<.=.u     P P U H ! ! ! ! ! ! ! ! ! Q P 0   K.K.K.K.K.K.K.K.K.K.K.K.K.K.K.K.K.K.",
"K.K.K.K.K.K.K.K.K.K.K.K.K.K.K.K.K.K.K.K.K.K.K.K.K.  =.=.=.=.=.=.  =.=.O       = t P P P P P y .       K.K.K.K.K.K.K.K.K.K.K.K.K.K.K.K.K.K.K.",
"K.K.K.K.K.K.K.K.K.K.K.K.K.K.K.K.K.K.K.K.K.K.K.K.K.  $.  o.=.=.%.  *.X   C.. =.> s           Z   K.K.K.K.K.K.K.K.K.K.K.K.K.K.K.K.K.K.K.K.K.K.",
"K.K.K.K.K.K.K.K.K.K.K.K.K.K.K.K.K.K.K.K.K.K.K.K.K.  2 J.o %.=.      J.J.h.  o S.S.    +   H.J.  K.K.K.K.K.K.K.K.K.K.K.K.K.K.K.K.K.K.K.K.K.K.",
"K.K.K.K.K.K.K.K.K.K.K.K.K.K.K.K.K.K.K.K.K.K.K.K.  A.S.b.C.O   S.j.  & & X S.S.S.S.S.S.S.  u.C   K.K.K.K.K.K.K.K.K.K.K.K.K.K.K.K.K.K.K.K.K.K.",
"K.K.K.K.K.K.K.K.K.K.K.K.K.K.K.K.K.K.K.K.K.K.K.K.  S.c.x.x.o S.S.S.  & & o S.S.S.S.D.S.v.% & 5   K.K.K.K.K.K.K.K.K.K.K.K.K.K.K.K.K.K.K.K.K.K.",
"K.K.K.K.K.K.K.K.K.K.K.K.K.K.K.K.K.K.K.K.K.K.K.K.  S.x.x.x.x.S.S.M   & &   S.S.p.p.J.S.v.% & V n.  K.K.K.K.K.K.K.K.K.K.K.K.K.K.K.K.K.K.K.K.K.",
"K.K.K.K.K.K.K.K.K.K.K.K.K.K.K.K.K.K.K.K.K.K.K.K.  S.C.x.x.x.S.S.S.  o o B.B p.p.p.p.p.3   & J..   K.K.K.K.K.K.K.K.K.K.K.K.K.K.K.K.K.K.K.K.K.",
"K.K.K.K.K.K.K.K.K.K.K.K.K.K.K.K.K.K.K.K.K.K.K.K.K.  S.Z.x.x.x.V.k.j.. e.S.  p.p.p.p.p.+     G.  K.K.K.K.K.K.K.K.K.K.K.K.K.K.K.K.K.K.K.K.K.K.",
"K.K.K.K.K.K.K.K.K.K.K.K.K.K.K.K.K.K.K.K.K.K.K.K.K.K.      a.x.p.p.p.V.S.S.S.  X.p.p.: | C.l.p.  K.K.K.K.K.K.K.K.K.K.K.K.K.K.K.K.K.K.K.K.K.K.",
"K.K.K.K.K.K.K.K.K.K.K.K.K.K.K.K.K.K.K.K.K.K.K.K.K.K.K.K.K.      d x.x.x.x.x.c.x.x.x.x.z.    K.K.K.K.K.K.K.K.K.K.K.K.K.K.K.K.K.K.K.K.K.K.K.K.",
"K.K.K.K.K.K.K.K.K.K.K.K.K.K.K.K.K.K.K.K.K.K.K.K.K.K.K.K.        #           .           K.K.K.K.K.K.K.K.K.K.K.K.K.K.K.K.K.K.K.K.K.K.K.K.K.K.",
"K.K.K.K.K.K.K.K.K.K.K.K.K.K.K.K.K.K.K.K.K.K.K.K.K.K.K.X J.J.J.  G.3.6.6.o J.J.X   u.  K.K.K.K.K.K.K.K.K.K.K.K.K.K.K.K.K.K.K.K.K.K.K.K.K.K.K.",
"K.K.K.K.K.K.K.K.K.K.K.K.K.K.K.K.K.K.K.K.K.K.K.K.K.K.1 J.J.J.F.e.J.  6.6.<       4.n.n.  K.K.K.K.K.K.K.K.K.K.K.K.K.K.K.K.K.K.K.K.K.K.K.K.K.K.",
"K.K.K.K.K.K.K.K.K.K.K.K.K.K.K.K.K.K.K.K.K.K.K.K.K.    J.J.G.F.& J.& 6.6.6.6.6.6.6.5 n.o K.K.K.K.K.K.K.K.K.K.K.K.K.K.K.K.K.K.K.K.K.K.K.K.K.K.",
"K.K.K.K.K.K.K.K.K.K.K.K.K.K.K.K.K.K.K.K.K.K.K.K.  1 C.% F.F.n.1 J.    2.b b b b b   N O.  K.K.K.K.K.K.K.K.K.K.K.K.K.K.K.K.K.K.K.K.K.K.K.K.K.",
"K.K.K.K.K.K.K.K.K.K.K.K.K.K.K.K.K.K.K.K.K.K.K.K.  S.S.s.m C m F.  6.  X X X X X #   4 h.h.  K.K.K.K.K.K.K.K.K.K.K.K.K.K.K.K.K.K.K.K.K.K.K.K.",
"K.K.K.K.K.K.K.K.K.K.K.K.K.K.K.K.K.K.K.K.K.K.K.  S.S.C.x.      6.6.6.  8.9.9.9.9.9.X @.h.h.h.  K.K.K.K.K.K.K.K.K.K.K.K.K.K.K.K.K.K.K.K.K.K.K.",
"K.K.K.K.K.K.K.K.K.K.K.K.K.K.K.K.K.K.K.K.K.K.K.s S.S.x.  K.  1.6.6.6.  8.9.9.9.9.9.x ; -.h.h.+ K.K.K.K.K.K.K.K.K.K.K.K.K.K.K.K.K.K.K.K.K.K.K.",
"K.K.K.K.K.K.K.K.K.K.K.K.K.K.K.K.K.K.K.K.K.K.  S.S.S.x.  K.  1.4.6.6.X 7.9.9.9.9.0.k   -.h.h.h.  K.K.K.K.K.K.K.K.K.K.K.K.K.K.K.K.K.K.K.K.K.K.",
"K.K.K.K.K.K.K.K.K.K.K.K.K.K.K.K.K.K.K.K.K.K.  J.S.S.x.  K.  2.b 6.6.5.$ 5.5.5.5.  v   +.h.h.n.  K.K.K.K.K.K.K.K.K.K.K.K.K.K.K.K.K.K.K.K.K.K.",
"K.K.K.K.K.K.K.K.K.K.K.K.K.K.K.K.K.K.K.K.K.K.  S.S.S.x.+ K.  $ 5.6.6.5.6.6.6.6.6.3.    -.h.h.h.  K.K.K.K.K.K.K.K.K.K.K.K.K.K.K.K.K.K.K.K.K.K.",
"K.K.K.K.K.K.K.K.K.K.K.K.K.K.K.K.K.K.K.K.K.K.  f.c.x.#.  K.  1.6.6.9.g 1.2.b 2.1.k     ;.:.d.-.  K.K.K.K.K.K.K.K.K.K.K.K.K.K.K.K.K.K.K.K.K.K.",
"K.K.K.K.K.K.K.K.K.K.K.K.K.K.K.K.K.K.K.K.K.K.K.    d   K.K.  1.6.6.7.n b n g     X l     @.d   K.K.K.K.K.K.K.K.K.K.K.K.K.K.K.K.K.K.K.K.K.K.K.",
"K.K.K.K.K.K.K.K.K.K.K.K.K.K.K.K.K.K.K.K.K.K.K.K.K.K.K.K.K.  1.6.6.6.6.    , h l l l , K.  K.K.K.K.K.K.K.K.K.K.K.K.K.K.K.K.K.K.K.K.K.K.K.K.K.",
"K.K.K.K.K.K.K.K.K.K.K.K.K.K.K.K.K.K.K.K.K.K.K.K.K.K.K.K.K.  2.n n x x K.K.  j j h X     K.K.K.K.K.K.K.K.K.K.K.K.K.K.K.K.K.K.K.K.K.K.K.K.K.K.",
"K.K.K.K.K.K.K.K.K.K.K.K.K.K.K.K.K.K.K.K.K.K.K.K.K.K.K.K.K.  N.F.G.F.  K.K.      t.n.y.  K.K.K.K.K.K.K.K.K.K.K.K.K.K.K.K.K.K.K.K.K.K.K.K.K.K.",
"K.K.K.K.K.K.K.K.K.K.K.K.K.K.K.K.K.K.K.K.K.K.K.K.K.K.K.K.K.                                    K.K.K.K.K.K.K.K.K.K.K.K.K.K.K.K.K.K.K.K.K.K.K.",
"K.K.K.K.K.K.K.K.K.K.K.K.K.K.K.K.K.K.K.K.K.K.K.K.K.K.K.K.  p ! W   F.F.H.J.F.  D 8   y.y.n.n.t.  K.K.K.K.K.K.K.K.K.K.K.K.K.K.K.K.K.K.K.K.K.K.",
"K.K.K.K.K.K.K.K.K.K.K.K.K.K.K.K.K.K.K.K.K.K.K.K.K.K.K.K.  F.!   m.F.F.F.J.G.F.    t.y.y.u.i.u.w.  K.K.K.K.K.K.K.K.K.K.K.K.K.K.K.K.K.K.K.K.K.",
"K.K.K.K.K.K.K.K.K.K.K.K.K.K.K.K.K.K.K.K.K.K.K.K.K.K.K.K.  S 7 C m.F.F.F.F.F.F.  q.q.y.y.y.y.y.y.  K.K.K.K.K.K.K.K.K.K.K.K.K.K.K.K.K.K.K.K.K.",
"K.K.K.K.K.K.K.K.K.K.K.K.K.K.K.K.K.K.K.K.K.K.K.K.K.K.K.                                            K.K.K.K.K.K.K.K.K.K.K.K.K.K.K.K.K.K.K.K.K.",
"K.K.K.K.K.K.K.K.K.K.K.K.K.K.K.K.K.K.K.K.K.K.K.K.K.K.K.  m m.F.F.F.F.F.F.F.J.F.n.2 y.y.y.y.y.n.y.m K.K.K.K.K.K.K.K.K.K.K.K.K.K.K.K.K.K.K.K.K.",
"K.K.K.K.K.K.K.K.K.K.K.K.K.K.K.K.K.K.K.K.K.K.K.K.K.K.K.                                              K.K.K.K.K.K.K.K.K.K.K.K.K.K.K.K.K.K.K.K.",
"K.K.K.K.K.K.K.K.K.K.K.K.K.K.K.K.K.K.K.K.K.K.K.K.K.K.K.K.K.K.K.K.K.K.K.K.K.K.K.K.K.K.K.K.K.K.K.K.K.K.K.K.K.K.K.K.K.K.K.K.K.K.K.K.K.K.K.K.K.K.",
"K.K.K.K.K.K.K.K.K.K.K.K.K.K.K.K.K.K.K.K.K.K.K.K.K.K.K.K.K.K.K.K.K.K.K.K.K.K.K.K.K.K.K.K.K.K.K.K.K.K.K.K.K.K.K.K.K.K.K.K.K.K.K.K.K.K.K.K.K.K.",
"K.K.K.K.K.K.K.K.K.K.K.K.K.K.K.K.K.K.K.K.K.K.K.K.K.K.K.K.K.K.K.K.K.K.K.K.K.K.K.K.K.K.K.K.K.K.K.K.K.K.K.K.K.K.K.K.K.K.K.K.K.K.K.K.K.K.K.K.K.K.",
"K.K.K.K.K.K.K.K.K.K.K.K.K.K.K.K.K.K.K.K.K.K.K.K.K.K.K.K.K.K.K.K.K.K.K.K.K.K.K.K.K.K.K.K.K.K.K.K.K.K.K.K.K.K.K.K.K.K.K.K.K.K.K.K.K.K.K.K.K.K.",
"K.K.K.K.K.K.K.K.K.K.K.K.K.K.K.K.K.K.K.K.K.K.K.K.K.K.K.K.K.K.K.K.K.K.K.K.K.K.K.K.K.K.K.K.K.K.K.K.K.K.K.K.K.K.K.K.K.K.K.K.K.K.K.K.K.K.K.K.K.K.",
"K.K.K.K.K.K.K.K.K.K.K.K.K.K.K.K.K.K.K.K.K.K.K.K.K.K.K.K.K.K.K.K.K.K.K.K.K.K.K.K.K.K.K.K.K.K.K.K.K.K.K.K.K.K.K.K.K.K.K.K.K.K.K.K.K.K.K.K.K.K.",
"K.K.K.K.K.K.K.K.K.K.K.K.K.K.K.K.K.K.K.K.K.K.K.K.K.K.K.K.K.K.K.K.K.K.K.K.K.K.K.K.K.K.K.K.K.K.K.K.K.K.K.K.K.K.K.K.K.K.K.K.K.K.K.K.K.K.K.K.K.K.",
"K.K.K.K.K.K.K.K.K.K.K.K.K.K.K.K.K.K.K.K.K.K.K.K.K.K.K.K.K.K.K.K.K.K.K.K.K.K.K.K.K.K.K.K.K.K.K.K.K.K.K.K.K.K.K.K.K.K.K.K.K.K.K.K.K.K.K.K.K.K."
};
