/* XPM */
static char *result[] = {
/* columns rows colors chars-per-pixel */
"70 70 163 2 ",
"   c #000000",
".  c #0A0101",
"X  c #0D0A05",
"o  c #030609",
"O  c #0C0B0B",
"+  c #04080C",
"@  c #110E0D",
"#  c #140405",
"$  c #15110B",
"%  c #19120C",
"&  c #020910",
"*  c #09121C",
"=  c gray7",
"-  c #1B1B1B",
";  c #1E1010",
":  c #260605",
">  c #310000",
",  c #3B0A0F",
"<  c #20180B",
"1  c #241916",
"2  c #22201D",
"3  c #0A1520",
"4  c #09243F",
"5  c #15293D",
"6  c #132638",
"7  c #282726",
"8  c #3A2824",
"9  c #343434",
"0  c gray23",
"q  c #400000",
"w  c #570B0E",
"e  c #560C10",
"r  c #561015",
"t  c #7B0000",
"y  c #720000",
"u  c #611218",
"i  c #74141B",
"p  c #453F39",
"a  c #432929",
"s  c #4E4033",
"d  c #1A354F",
"f  c #0B2E52",
"g  c #0B3156",
"h  c #1D3C5A",
"j  c #1B3652",
"k  c #092746",
"l  c #113E6B",
"z  c #24476A",
"x  c #284E74",
"c  c #2B547D",
"v  c #4A4A4A",
"b  c #505050",
"n  c #6B5B4B",
"m  c #635A52",
"M  c #6A6156",
"N  c #79624A",
"B  c #616161",
"V  c #6A6A6A",
"C  c #797877",
"Z  c #7E7E7E",
"A  c #850000",
"S  c #8A0000",
"D  c #9C0000",
"F  c #83151C",
"G  c #AD0000",
"H  c #A10200",
"J  c #BE0000",
"K  c #A03500",
"L  c #821920",
"P  c #8C1A23",
"I  c #971C25",
"U  c #9D1D27",
"Y  c #A21E27",
"T  c #A61F29",
"R  c #AD212A",
"E  c #B3212B",
"W  c #C30101",
"Q  c #C90001",
"!  c #C90608",
"~  c #D50000",
"^  c #DB0B00",
"/  c #D40A00",
"(  c #DD1000",
")  c #E21A00",
"_  c #D23300",
"`  c #EA2A00",
"'  c #EC3000",
"]  c #916B31",
"[  c #A77B3A",
"{  c #A87D3B",
"}  c #E64C00",
"|  c #F44000",
" . c #FE5400",
".. c #FF5C0C",
"X. c #FE742F",
"o. c #A53841",
"O. c #997C5F",
"+. c #807E7B",
"@. c #D87D78",
"#. c #AE803B",
"$. c #998B7E",
"%. c #BE9368",
"&. c #BE9B78",
"*. c #FF8B51",
"=. c #DBA14B",
"-. c #E6A94E",
";. c #EDAE51",
":. c #C5986B",
">. c #C29669",
",. c #CBA27A",
"<. c #F7C15F",
"1. c #2C5680",
"2. c #2F5D8C",
"3. c #305F90",
"4. c #306292",
"5. c #336699",
"6. c #34699E",
"7. c #366CA2",
"8. c #3B75AF",
"9. c #4885C2",
"0. c #828282",
"q. c #8D8C8B",
"w. c gray61",
"e. c #A6988B",
"r. c #AFAFAF",
"t. c #A4A4A4",
"y. c #BDBDBD",
"u. c #B7B7B7",
"i. c #FF938E",
"p. c #C5A78A",
"a. c #D6AB80",
"s. c #C5AE97",
"d. c #C5B29E",
"f. c #FDA997",
"g. c #E3B78C",
"h. c #C5B2A0",
"j. c #FFB0AC",
"k. c #FFBAB5",
"l. c #FFCC99",
"z. c #D8C6B4",
"x. c #FFD5AB",
"c. c #FFDEBD",
"v. c #C5C5C5",
"b. c #CCCCCC",
"n. c #D2D2D2",
"m. c gray86",
"M. c #E6D4C0",
"N. c #F1DDC9",
"B. c #FEDCC9",
"V. c #E0DEDC",
"C. c #FCE5CF",
"Z. c #FFE2C5",
"A. c #FDE5D0",
"S. c #FFEAD5",
"D. c #FFECD9",
"F. c #E6E6E6",
"G. c #ECECEC",
"H. c #FFEDEC",
"J. c #FFF6EC",
"K. c #F3F3F3",
"L. c #FEFEFE",
"P. c #F8F6F4",
"I. c None",
/* pixels */
"I.I.I.I.I.I.I.I.I.I.I.I.I.I.I.I.I.I.I.I.I.I.I.I.I.I.I.I.I.I.I.I.I.I.I.I.I.I.I.I.I.I.I.I.I.I.I.I.I.I.I.I.I.I.I.I.I.I.I.I.I.I.I.I.I.I.I.I.I.I.",
"I.I.I.I.I.I.I.I.I.I.I.I.I.I.I.I.I.I.I.I.I.I.I.I.I.I.I.I.I.I.I.I.I.I.I.I.I.I.I.I.I.I.I.I.I.I.I.I.I.I.I.I.I.I.I.I.I.I.I.I.I.I.I.I.I.I.I.I.I.I.",
"I.I.I.I.I.I.I.I.I.I.I.I.I.I.I.I.I.I.I.I.I.I.I.I.I.I.I.I.I.I.I.I.I.I.I.I.I.I.I.I.I.I.I.I.I.I.I.I.I.I.I.I.I.I.I.I.I.I.I.I.I.I.I.I.I.I.I.I.I.I.",
"I.I.I.I.I.I.I.I.I.I.I.I.I.I.I.I.I.I.I.I.I.I.I.I.I.I.I.I.I.I.I.I.I.I.I.I.I.I.I.I.I.I.I.I.I.I.I.I.I.I.I.I.I.I.I.I.I.I.I.I.I.I.I.I.I.I.I.I.I.I.",
"I.I.I.I.I.I.I.I.I.I.I.I.I.I.I.I.I.I.I.I.I.I.I.I.I.I.I.I.I.I.I.I.I.I.I.I.I.I.I.I.I.I.I.I.I.I.I.I.I.I.I.I.I.I.I.I.I.I.I.I.I.I.I.I.I.I.I.I.I.I.",
"I.I.I.I.I.I.I.I.I.I.I.I.I.I.I.I.I.I.I.I.I.I.I.I.I.I.I.I.I.I.I.I.I.I.I.I.I.I.I.I.I.I.I.I.I.I.I.I.I.I.I.I.I.I.I.I.I.I.I.I.I.I.I.I.I.I.I.I.I.I.",
"I.I.I.I.I.I.I.I.I.I.I.I.I.I.I.I.I.I.I.I.I.I.I.I.I.I.I.I.I.I.I.I.I.I.I.I.I.I.I.I.I.    I.I.I.I.I.I.I.I.I.I.I.I.I.I.I.I.I.I.I.I.I.I.I.I.I.I.I.",
"I.I.I.I.I.I.I.I.I.I.I.I.I.I.I.I.I.I.I.I.I.I.I.I.I.I.I.I.I.I.I.I.I.I.I.I.I.I.    A W t   I.I.I.I.I.I.I.I.I.I.I.I.I.I.I.I.I.I.I.I.I.I.I.I.I.I.",
"I.I.I.I.I.I.I.I.I.I.I.I.I.I.I.I.I.I.I.I.I.I.I.I.I.I.I.I.I.I.I.I.I.I.I.I.    ~ '  . . .~   I.I.I.I.I.I.I.I.I.I.I.I.I.I.I.I.I.I.I.I.I.I.I.I.I.",
"I.I.I.I.I.I.I.I.I.I.I.I.I.I.I.I.I.I.I.I.I.I.I.I.I.I.I.I.I.I.I.I.I.I.I.    ~  .*.L.L.L.P.W   I.I.I.I.I.I.I.I.I.I.I.I.I.I.I.I.I.I.I.I.I.I.I.I.",
"I.I.I.I.I.I.I.I.I.I.I.I.I.I.I.I.I.I.I.I.I.I.I.I.I.I.I.I.I.I.I.I.I.I.I.  ~  .L.L.L.L.P.P.P.  I.I.I.I.I.I.I.I.I.I.I.I.I.I.I.I.I.I.I.I.I.I.I.I.",
"I.I.I.I.I.I.I.I.I.I.I.I.I.I.I.I.I.I.I.I.I.I.I.I.I.I.I.I.I.I.    I.I.  ~  .L.L.L.P.P.P.P.P.a I.I.I.I.I.I.I.I.I.I.I.I.I.I.I.I.I.I.I.I.I.I.I.I.",
"I.I.I.I.I.I.I.I.I.I.I.I.I.I.I.I.I.I.I.I.I.I.I.I.I.I.I.I.    / Q     ~  .L.L.K.K.K.P.K.K.K.G.  I.I.I.I.I.I.I.I.I.I.I.I.I.I.I.I.I.I.I.I.I.I.I.",
"I.I.I.I.I.I.I.I.I.I.I.I.I.I.I.I.I.I.I.I.I.I.I.I.I.I.I.I..  . . .  ~  .L.K.K.K.K.K.K.K.K.K.G.  I.I.I.I.I.I.I.I.I.I.I.I.I.I.I.I.I.I.I.I.I.I.I.",
"I.I.I.I.I.I.I.I.I.I.I.I.I.I.I.I.I.I.I.I.I.I.I.I.I.I.I.  ~ ~ _   Q  .L.K.K.K.K.K.K.K.K.K.G.K.  I.I.I.I.I.I.I.I.I.I.I.I.I.I.I.I.I.I.I.I.I.I.I.",
"I.I.I.I.I.I.I.I.I.I.I.I.I.I.I.I.I.I.I.I.I.I.I.I.I.I.I.  u   . ` X.L.K.K.G.K.G.K.G.G.G.G.G.G.  I.I.I.I.I.I.I.I.I.I.I.I.I.I.I.I.I.I.I.I.I.I.I.",
"I.I.I.I.I.I.I.I.I.I.I.I.I.I.I.I.I.I.I.I.I.I.I.I.I.I.    > ^  .L.K.K.K.G.G.K.G.G.G.G.G.G.G.n.  I.I.I.I.I.I.I.I.I.I.I.I.I.I.I.I.I.I.I.I.I.I.I.",
"I.I.I.I.I.I.I.I.I.I.I.I.I.I.I.I.I.I.I.I.I.I.I.I.    y )  .B.L.K.G.G.G.G.G.G.G.G.G.G.G.m.b.2   I.I.I.I.I.I.I.I.I.I.I.I.I.I.I.I.I.I.I.I.I.I.I.",
"I.I.I.I.I.I.I.I.I.I.I.I.I.I.I.I.I.I.I.I.I.I.I.  A `  ...L.G.G.G.G.G.G.G.G.G.G.G.G.n.t.    i R   I.I.I.I.I.I.I.I.I.I.I.I.I.I.I.I.I.I.I.I.I.I.",
"I.I.I.I.I.I.I.I.I.I.I.I.I.I.I.I.I.I.I.I.I.  . )  . . .G.G.G.G.G.G.G.G.G.F.G.m.b.    # E E L L   I.I.I.I.I.I.I.I.I.I.I.I.I.I.I.I.I.I.I.I.I.I.",
"I.I.I.I.I.I.I.I.I.I.I.I.I.I.I.I.I.I.I.I.  G  . . .~ ~ G.G.G.G.G.F.G.F.n.b.V     U E Y U I     G     I.I.I.I.I.I.I.I.I.I.I.I.I.I.I.I.I.I.I.I.",
"I.I.I.I.I.I.I.I.I.I.I.I.I.I.I.I.I.I.I.  e U ^ ~ ~ ~ ~ G.F.F.F.V.b.b.v.    , E R U U :   .  . . .~     I.I.I.I.I.I.I.I.I.I.I.I.I.I.I.I.I.I.I.",
"I.I.I.I.I.I.I.I.I.I.I.I.I.I.I.I.I.I.I.  U U U U U U U b.b.b.b.b.7   . R E U R i     K  . . . . . .~ >   I.I.I.I.I.I.I.I.I.I.I.I.I.I.I.I.I.I.",
"I.I.I.I.I.I.I.I.I.I.I.I.I.I.I.I.I.I.I.  U U U U U U U o.b.t.    i R R I U .   :  . . . . . . . . . .~ >   I.I.I.I.I.I.I.I.I.I.I.I.I.I.I.I.I.",
"I.I.I.I.I.I.I.I.I.I.I.I.I.I.I.I.I.I.I.  F U U U U U U .   # R E I I r     }  . . . . . . . . . . . .~ ~   I.I.I.I.I.I.I.I.I.I.I.I.I.I.I.I.I.",
"I.I.I.I.I.I.I.I.I.I.I.I.I.I.I.I.I.I.I.I.  F U U u     F E P i I     q ~ ~ ~ ~ ~ |  . . . . . . . . .~ ~ J   I.I.I.I.I.I.I.I.I.I.I.I.I.I.I.I.",
"I.I.I.I.I.I.I.I.I.I.I.I.I.I.I.I.I.I.I.I.I.    .   E E L L :     ~ ~ ~ ~ ~ ~ ~ ~ ~ ~ ~ ~ ~ ^ ^ ~ ~ ~ ~ ~ Q   I.I.I.I.I.I.I.I.I.I.I.I.I.I.I.I.",
"I.I.I.I.I.I.I.I.I.I.I.I.I.I.I.I.I.I.I.I.I.I.I.I.. P i     { X   U U ~ ~ ~ ~ ~ ~ ~ ~ ~ ~ ~ ~ ~ ~ ~ ~ ~ ~   I.I.I.I.I.I.I.I.I.I.I.I.I.I.I.I.I.",
"I.I.I.I.I.I.I.I.I.I.I.I.I.I.I.I.I.I.I.I.I.I.I.I.    O ;.;.;.<.;..   w U U ! ~ ~ ~ ~ ~ ~ ~ ~ ~ ~ ~ ~ U     I.I.I.I.I.I.I.I.I.I.I.I.I.I.I.I.I.",
"I.I.I.I.I.I.I.I.I.I.I.I.I.I.I.I.I.I.I.I.I.I.I.I.I.  ;.;.;.;.;.;.% ;.]       e I U U U U U U U U i     I.I.I.I.I.I.I.I.I.I.I.I.I.I.I.I.I.I.I.",
"I.I.I.I.I.I.I.I.I.I.I.I.I.I.I.I.I.I.I.I.I.I.I.I.I.  ;.#.=.;.;.;.  ;.-.$ 2   [ @                   I.I.I.I.I.I.I.I.I.I.I.I.I.I.I.I.I.I.I.I.I.",
"I.I.I.I.I.I.I.I.I.I.I.I.I.I.I.I.I.I.I.I.I.I.I.I.I.    q.o { ;.      Z L.S.  . z.S.o     O C L.  I.I.I.I.I.I.I.I.I.I.I.I.I.I.I.I.I.I.I.I.I.I.",
"I.I.I.I.I.I.I.I.I.I.I.I.I.I.I.I.I.I.I.I.I.I.I.I.  7 S.S.S.  $ C.S.  - v   A.S.S.S.M.S.S.  L.m.  I.I.I.I.I.I.I.I.I.I.I.I.I.I.I.I.I.I.I.I.I.I.",
"I.I.I.I.I.I.I.I.I.I.I.I.I.I.I.I.I.I.I.I.I.I.I.I.  D.Z.l.l.  S.S.C.  - - = S.S.S.S.S.S.S.O - C   I.I.I.I.I.I.I.I.I.I.I.I.I.I.I.I.I.I.I.I.I.I.",
"I.I.I.I.I.I.I.I.I.I.I.I.I.I.I.I.I.I.I.I.I.I.I.I.  S.l.l.l.l.S.S.$.  - - o S.S.f.i.k.S.S.O - +.q.  I.I.I.I.I.I.I.I.I.I.I.I.I.I.I.I.I.I.I.I.I.",
"I.I.I.I.I.I.I.I.I.I.I.I.I.I.I.I.I.I.I.I.I.I.I.I.  S.S.l.l.l.S.S.A.  - - p S.i.i.i.H.i.z.  - P.9   I.I.I.I.I.I.I.I.I.I.I.I.I.I.I.I.I.I.I.I.I.",
"I.I.I.I.I.I.I.I.I.I.I.I.I.I.I.I.I.I.I.I.I.I.I.I.I.  S.x.l.l.l.S.A.m   o S.  i.i.i.i.i.1     J.  I.I.I.I.I.I.I.I.I.I.I.I.I.I.I.I.I.I.I.I.I.I.",
"I.I.I.I.I.I.I.I.I.I.I.I.I.I.I.I.I.I.I.I.I.I.I.I.I.I.      l.l.i.i.i.B.S.S.N.8 i.i.i.i.  S.j.i.  I.I.I.I.I.I.I.I.I.I.I.I.I.I.I.I.I.I.I.I.I.I.",
"I.I.I.I.I.I.I.I.I.I.I.I.I.I.I.I.I.I.I.I.I.I.I.I.I.I.I.I.I.    @ f.f.l.l.c.A.A.l.a.,.l.l.&.@.; I.I.I.I.I.I.I.I.I.I.I.I.I.I.I.I.I.I.I.I.I.I.I.",
"I.I.I.I.I.I.I.I.I.I.I.I.I.I.I.I.I.I.I.I.I.I.I.I.I.I.I.I.                8 N &.g.O.1       I.I.I.I.I.I.I.I.I.I.I.I.I.I.I.I.I.I.I.I.I.I.I.I.I.",
"I.I.I.I.I.I.I.I.I.I.I.I.I.I.I.I.I.I.I.I.I.I.I.I.I.I.I.  L.L.L.  b.4.5.5.= b.u.  o b   I.I.I.I.I.I.I.I.I.I.I.I.I.I.I.I.I.I.I.I.I.I.I.I.I.I.I.",
"I.I.I.I.I.I.I.I.I.I.I.I.I.I.I.I.I.I.I.I.I.I.I.I.I.I.  L.L.L.K.w.L.  5.5.* 9 9   2.v.v.  I.I.I.I.I.I.I.I.I.I.I.I.I.I.I.I.I.I.I.I.I.I.I.I.I.I.",
"I.I.I.I.I.I.I.I.I.I.I.I.I.I.I.I.I.I.I.I.I.I.I.I.I.    L.L.P.F.Z L.b 5.5.5.5.5.5.5.0 v.B I.I.I.I.I.I.I.I.I.I.I.I.I.I.I.I.I.I.I.I.I.I.I.I.I.I.",
"I.I.I.I.I.I.I.I.I.I.I.I.I.I.I.I.I.I.I.I.I.I.I.I.  $ M.9 G.F.F.  L.    o o o o o +   v.$   I.I.I.I.I.I.I.I.I.I.I.I.I.I.I.I.I.I.I.I.I.I.I.I.I.",
"I.I.I.I.I.I.I.I.I.I.I.I.I.I.I.I.I.I.I.I.I.I.I.I.  S.S.n v.n.o L.  5.  j h h h h h     h.h.  I.I.I.I.I.I.I.I.I.I.I.I.I.I.I.I.I.I.I.I.I.I.I.I.",
"I.I.I.I.I.I.I.I.I.I.I.I.I.I.I.I.I.I.I.I.I.I.I.  S.S.C.l.      h 5.5.  6.8.8.8.8.8.  >.h.h.h.  I.I.I.I.I.I.I.I.I.I.I.I.I.I.I.I.I.I.I.I.I.I.I.",
"I.I.I.I.I.I.I.I.I.I.I.I.I.I.I.I.I.I.I.I.I.I.  e.S.S.l.  I.  1.5.5.5.o 6.8.8.8.8.8.h   :.h.h.e.  I.I.I.I.I.I.I.I.I.I.I.I.I.I.I.I.I.I.I.I.I.I.",
"I.I.I.I.I.I.I.I.I.I.I.I.I.I.I.I.I.I.I.I.I.I.  S.S.S.l.  I.  1.2.5.5.o 5.8.8.8.8.9.j   :.s.h.s.  I.I.I.I.I.I.I.I.I.I.I.I.I.I.I.I.I.I.I.I.I.I.",
"I.I.I.I.I.I.I.I.I.I.I.I.I.I.I.I.I.I.I.I.I.I.  L.S.S.l.  I.  1.1.5.5.5.z 5.6.6.6.5 5.  O p.d.v.7 I.I.I.I.I.I.I.I.I.I.I.I.I.I.I.I.I.I.I.I.I.I.",
"I.I.I.I.I.I.I.I.I.I.I.I.I.I.I.I.I.I.I.I.I.I.  S.S.S.l.  I.  5 2.5.5.5.5.4.4.4.4.5.*   :.d.d.d.M I.I.I.I.I.I.I.I.I.I.I.I.I.I.I.I.I.I.I.I.I.I.",
"I.I.I.I.I.I.I.I.I.I.I.I.I.I.I.I.I.I.I.I.I.I.  l.x.l.s   I.  1.5.5.8.6 1.1.1.1.1.c     %.:.h.p.  I.I.I.I.I.I.I.I.I.I.I.I.I.I.I.I.I.I.I.I.I.I.",
"I.I.I.I.I.I.I.I.I.I.I.I.I.I.I.I.I.I.I.I.I.I.I.    n   I.I.  1.5.5.7.5.1.1.1.6     l     %.%.    I.I.I.I.I.I.I.I.I.I.I.I.I.I.I.I.I.I.I.I.I.I.",
"I.I.I.I.I.I.I.I.I.I.I.I.I.I.I.I.I.I.I.I.I.I.I.I.I.I.I.I.I.  1.5.5.5.5.    o k l l l 4 I.    I.I.I.I.I.I.I.I.I.I.I.I.I.I.I.I.I.I.I.I.I.I.I.I.",
"I.I.I.I.I.I.I.I.I.I.I.I.I.I.I.I.I.I.I.I.I.I.I.I.I.I.I.I.I.  1.1.x x z I.I.  f g f &     I.I.I.I.I.I.I.I.I.I.I.I.I.I.I.I.I.I.I.I.I.I.I.I.I.I.",
"I.I.I.I.I.I.I.I.I.I.I.I.I.I.I.I.I.I.I.I.I.I.I.I.I.I.I.I.I.  t.n.m.m.  I.I.      0.v.u.  I.I.I.I.I.I.I.I.I.I.I.I.I.I.I.I.I.I.I.I.I.I.I.I.I.I.",
"I.I.I.I.I.I.I.I.I.I.I.I.I.I.I.I.I.I.I.I.I.I.I.I.I.I.I.I.I.                                    I.I.I.I.I.I.I.I.I.I.I.I.I.I.I.I.I.I.I.I.I.I.I.",
"I.I.I.I.I.I.I.I.I.I.I.I.I.I.I.I.I.I.I.I.I.I.I.I.I.I.I.I.I.% ~ ~   F.F.P.L.F.  D t   r.r.v.v.w.  I.I.I.I.I.I.I.I.I.I.I.I.I.I.I.I.I.I.I.I.I.I.",
"I.I.I.I.I.I.I.I.I.I.I.I.I.I.I.I.I.I.I.I.I.I.I.I.I.I.I.I.  F.~   b.F.F.F.L.K.F.    w.r.r.r.v.r.w.  I.I.I.I.I.I.I.I.I.I.I.I.I.I.I.I.I.I.I.I.I.",
"I.I.I.I.I.I.I.I.I.I.I.I.I.I.I.I.I.I.I.I.I.I.I.I.I.I.I.I.  D S 0 b.F.F.F.F.F.F.  0.w.r.r.r.r.r.r.  I.I.I.I.I.I.I.I.I.I.I.I.I.I.I.I.I.I.I.I.I.",
"I.I.I.I.I.I.I.I.I.I.I.I.I.I.I.I.I.I.I.I.I.I.I.I.I.I.I.I.                                          I.I.I.I.I.I.I.I.I.I.I.I.I.I.I.I.I.I.I.I.I.",
"I.I.I.I.I.I.I.I.I.I.I.I.I.I.I.I.I.I.I.I.I.I.I.I.I.I.I.I.= b.F.F.F.F.F.F.F.L.G.v.= r.r.r.r.r.v.r.B I.I.I.I.I.I.I.I.I.I.I.I.I.I.I.I.I.I.I.I.I.",
"I.I.I.I.I.I.I.I.I.I.I.I.I.I.I.I.I.I.I.I.I.I.I.I.I.I.I.I.                                            I.I.I.I.I.I.I.I.I.I.I.I.I.I.I.I.I.I.I.I.",
"I.I.I.I.I.I.I.I.I.I.I.I.I.I.I.I.I.I.I.I.I.I.I.I.I.I.I.I.I.I.I.I.I.I.I.I.I.I.I.I.I.I.I.I.I.I.I.I.I.I.I.I.I.I.I.I.I.I.I.I.I.I.I.I.I.I.I.I.I.I.",
"I.I.I.I.I.I.I.I.I.I.I.I.I.I.I.I.I.I.I.I.I.I.I.I.I.I.I.I.I.I.I.I.I.I.I.I.I.I.I.I.I.I.I.I.I.I.I.I.I.I.I.I.I.I.I.I.I.I.I.I.I.I.I.I.I.I.I.I.I.I.",
"I.I.I.I.I.I.I.I.I.I.I.I.I.I.I.I.I.I.I.I.I.I.I.I.I.I.I.I.I.I.I.I.I.I.I.I.I.I.I.I.I.I.I.I.I.I.I.I.I.I.I.I.I.I.I.I.I.I.I.I.I.I.I.I.I.I.I.I.I.I.",
"I.I.I.I.I.I.I.I.I.I.I.I.I.I.I.I.I.I.I.I.I.I.I.I.I.I.I.I.I.I.I.I.I.I.I.I.I.I.I.I.I.I.I.I.I.I.I.I.I.I.I.I.I.I.I.I.I.I.I.I.I.I.I.I.I.I.I.I.I.I.",
"I.I.I.I.I.I.I.I.I.I.I.I.I.I.I.I.I.I.I.I.I.I.I.I.I.I.I.I.I.I.I.I.I.I.I.I.I.I.I.I.I.I.I.I.I.I.I.I.I.I.I.I.I.I.I.I.I.I.I.I.I.I.I.I.I.I.I.I.I.I.",
"I.I.I.I.I.I.I.I.I.I.I.I.I.I.I.I.I.I.I.I.I.I.I.I.I.I.I.I.I.I.I.I.I.I.I.I.I.I.I.I.I.I.I.I.I.I.I.I.I.I.I.I.I.I.I.I.I.I.I.I.I.I.I.I.I.I.I.I.I.I.",
"I.I.I.I.I.I.I.I.I.I.I.I.I.I.I.I.I.I.I.I.I.I.I.I.I.I.I.I.I.I.I.I.I.I.I.I.I.I.I.I.I.I.I.I.I.I.I.I.I.I.I.I.I.I.I.I.I.I.I.I.I.I.I.I.I.I.I.I.I.I.",
"I.I.I.I.I.I.I.I.I.I.I.I.I.I.I.I.I.I.I.I.I.I.I.I.I.I.I.I.I.I.I.I.I.I.I.I.I.I.I.I.I.I.I.I.I.I.I.I.I.I.I.I.I.I.I.I.I.I.I.I.I.I.I.I.I.I.I.I.I.I."
};
