/* XPM */
static char *result[] = {
/* columns rows colors chars-per-pixel */
"70 70 158 2 ",
"   c #000000",
".  c #080202",
"X  c #02060A",
"o  c #0C0B0A",
"O  c #130102",
"+  c #190304",
"@  c #100909",
"#  c #060D14",
"$  c #0A141D",
"%  c #131313",
"&  c #1B1B1B",
"*  c #181716",
"=  c #230507",
"-  c #2A0506",
";  c #3F0608",
":  c #22190B",
">  c #371300",
",  c #261E17",
"<  c #30251B",
"1  c #091826",
"2  c #071C32",
"3  c #122336",
"4  c #132639",
"5  c #222222",
"6  c #2D2D2D",
"7  c #3D342A",
"8  c gray20",
"9  c #460000",
"0  c #5E0000",
"q  c #530000",
"w  c #4E0E13",
"e  c #660300",
"r  c #7E0000",
"t  c #650D11",
"y  c #740F15",
"u  c #641318",
"i  c #781319",
"p  c #413218",
"a  c #533D1C",
"s  c #45302A",
"d  c #423D37",
"f  c #584428",
"g  c #5D4834",
"h  c #725629",
"j  c #0A2C4D",
"k  c #1A334C",
"l  c #0B3055",
"z  c #1E3D5B",
"x  c #113E6B",
"c  c #214060",
"v  c #24486B",
"b  c #274E74",
"n  c #285077",
"m  c #2A527B",
"M  c #4C4C4C",
"N  c #5A5A5A",
"B  c #755D46",
"V  c #645C55",
"C  c #6D6B6A",
"Z  c #796F65",
"A  c #737272",
"S  c #880000",
"D  c #9A0000",
"F  c #8D171F",
"G  c #A00000",
"H  c #BD0000",
"J  c #882D00",
"K  c #841920",
"L  c #9D1D27",
"P  c #901B23",
"I  c #A11B25",
"U  c #A21E28",
"Y  c #AD2029",
"T  c #B3222B",
"R  c #CD0203",
"E  c #C60000",
"W  c #D50000",
"Q  c #DB0D00",
"!  c #D71F1F",
"~  c #E21B00",
"^  c #E01500",
"/  c #EA2900",
"(  c #F33D00",
")  c #EA4D00",
"_  c #FA4B00",
"`  c #F74400",
"'  c #FE5400",
"]  c #894F4C",
"[  c #8A6F54",
"{  c #86715B",
"}  c #B3843E",
"|  c #AC855E",
" . c #9F8164",
".. c #968A7E",
"X. c #AC8A67",
"o. c #B79776",
"O. c #CB9949",
"+. c #FE894F",
"@. c #DDA24C",
"#. c #EDAE51",
"$. c #C5986B",
"%. c #C59D75",
"&. c #C8A078",
"*. c #FBCF69",
"=. c #2C5680",
"-. c #2D5884",
";. c #2E5B88",
":. c #326495",
">. c #336699",
",. c #34699E",
"<. c #376EA4",
"1. c #386FA6",
"2. c #3B75AF",
"3. c #3D78B2",
"4. c #9D9083",
"5. c gray58",
"6. c #9A9A9A",
"7. c gray53",
"8. c #AF9F8E",
"9. c #B8A99A",
"0. c #A4A4A4",
"q. c #AFAFAF",
"w. c #BCA5A6",
"e. c #B3B1AE",
"r. c #B6B6B6",
"t. c #BBBBBB",
"y. c #E68480",
"u. c #FF938E",
"i. c #C5A98E",
"p. c #C5AB92",
"a. c #C5B29F",
"s. c #FFB394",
"d. c #C5B3A1",
"f. c #FFB9B2",
"g. c #F6C696",
"h. c #FFCC99",
"j. c #FFD2A6",
"k. c #FFC5B8",
"l. c #FFDAB4",
"z. c #C5C5C5",
"x. c #CCCCCC",
"c. c #D5D5D5",
"v. c #DBDBDB",
"b. c #EFDBC7",
"n. c #E6C9C9",
"m. c #F6E2CD",
"M. c #FFE6CE",
"N. c #FFE1C4",
"B. c #FDE7D1",
"V. c #FFEAD5",
"C. c #E6E6E6",
"Z. c #ECECEC",
"A. c #FFE9E5",
"S. c #FFF3EB",
"D. c #F3F3F3",
"F. c #FDF8F5",
"G. c #FEFEFD",
"H. c None",
/* pixels */
"H.H.H.H.H.H.H.H.H.H.H.H.H.H.H.H.H.H.H.H.H.H.H.H.H.H.H.H.H.H.H.H.H.H.H.H.H.H.H.H.H.H.H.H.H.H.H.H.H.H.H.H.H.H.H.H.H.H.H.H.H.H.H.H.H.H.H.H.H.H.",
"H.H.H.H.H.H.H.H.H.H.H.H.H.H.H.H.H.H.H.H.H.H.H.H.H.H.H.H.H.H.H.H.H.H.H.H.H.H.H.H.H.H.H.H.H.H.H.H.H.H.H.H.H.H.H.H.H.H.H.H.H.H.H.H.H.H.H.H.H.H.",
"H.H.H.H.H.H.H.H.H.H.H.H.H.H.H.H.H.H.H.H.H.H.H.H.H.H.H.H.H.H.H.H.H.H.H.H.H.H.H.H.H.H.H.H.H.H.H.H.H.H.H.H.H.H.H.H.H.H.H.H.H.H.H.H.H.H.H.H.H.H.",
"H.H.H.H.H.H.H.H.H.H.H.H.H.H.H.H.H.H.H.H.H.H.H.H.H.H.H.H.H.H.H.H.H.H.H.H.H.H.H.H.H.H.H.H.H.H.H.H.H.H.H.H.H.H.H.H.H.H.H.H.H.H.H.H.H.H.H.H.H.H.",
"H.H.H.H.H.H.H.H.H.H.H.H.H.H.H.H.H.H.H.H.H.H.H.H.H.H.H.H.H.H.H.H.H.H.H.H.H.H.H.H.H.H.H.H.H.H.H.H.H.H.H.H.H.H.H.H.H.H.H.H.H.H.H.H.H.H.H.H.H.H.",
"H.H.H.H.H.H.H.H.H.H.H.H.H.H.H.H.H.H.H.H.H.H.H.H.H.H.H.H.H.H.H.H.H.H.H.H.H.H.H.H.    H.H.H.H.H.H.H.H.H.H.H.H.H.H.H.H.H.H.H.H.H.H.H.H.H.H.H.H.",
"H.H.H.H.H.H.H.H.H.H.H.H.H.H.H.H.H.H.H.H.H.H.H.H.H.H.H.H.H.H.H.H.H.H.H.H.H.    0 E r   H.H.H.H.H.H.H.H.H.H.H.H.H.H.H.H.H.H.H.H.H.H.H.H.H.H.H.",
"H.H.H.H.H.H.H.H.H.H.H.H.H.H.H.H.H.H.H.H.H.H.H.H.H.H.H.H.H.H.H.H.H.H.H.H.  W ^ ' ' ' W   H.H.H.H.H.H.H.H.H.H.H.H.H.H.H.H.H.H.H.H.H.H.H.H.H.H.",
"H.H.H.H.H.H.H.H.H.H.H.H.H.H.H.H.H.H.H.H.H.H.H.H.H.H.H.H.H.H.H.H.H.H.H.  W ' ' G.G.G.F.!   H.H.H.H.H.H.H.H.H.H.H.H.H.H.H.H.H.H.H.H.H.H.H.H.H.",
"H.H.H.H.H.H.H.H.H.H.H.H.H.H.H.H.H.H.H.H.H.H.H.H.H.H.H.H.H.H.H.H.H.H.  W ' S.G.G.G.F.G.D.  H.H.H.H.H.H.H.H.H.H.H.H.H.H.H.H.H.H.H.H.H.H.H.H.H.",
"H.H.H.H.H.H.H.H.H.H.H.H.H.H.H.H.H.H.H.H.H.H.H.H.H.H.H.H.H.H.H.H.H.  W ' G.G.G.F.G.D.D.D.w.  H.H.H.H.H.H.H.H.H.H.H.H.H.H.H.H.H.H.H.H.H.H.H.H.",
"H.H.H.H.H.H.H.H.H.H.H.H.H.H.H.H.H.H.H.H.H.H.H.H.H.H.H.H.          D ' F.G.D.D.D.D.D.D.D.D.  H.H.H.H.H.H.H.H.H.H.H.H.H.H.H.H.H.H.H.H.H.H.H.H.",
"H.H.H.H.H.H.H.H.H.H.H.H.H.H.H.H.H.H.H.H.H.H.H.H.H.H.H.  Q ' ' - O ` S.F.D.D.D.D.D.D.D.D.D.  H.H.H.H.H.H.H.H.H.H.H.H.H.H.H.H.H.H.H.H.H.H.H.H.",
"H.H.H.H.H.H.H.H.H.H.H.H.H.H.H.H.H.H.H.H.H.H.H.H.H.H.H.q / ' >   ( S.F.D.D.D.Z.D.D.Z.Z.D.Z.  H.H.H.H.H.H.H.H.H.H.H.H.H.H.H.H.H.H.H.H.H.H.H.H.",
"H.H.H.H.H.H.H.H.H.H.H.H.H.H.H.H.H.H.H.H.H.H.H.H.H.H.  L H   O ' G.D.D.D.D.D.D.D.Z.D.Z.Z.Z., H.H.H.H.H.H.H.H.H.H.H.H.H.H.H.H.H.H.H.H.H.H.H.H.",
"H.H.H.H.H.H.H.H.H.H.H.H.H.H.H.H.H.H.H.H.H.H.H.H.H.H.H.  . Q ' G.D.D.Z.D.Z.Z.Z.Z.Z.Z.Z.Z.c.A H.H.H.H.H.H.H.H.H.H.H.H.H.H.H.H.H.H.H.H.H.H.H.H.",
"H.H.H.H.H.H.H.H.H.H.H.H.H.H.H.H.H.H.H.H.H.H.H.H.H.  . W ' k.F.Z.D.Z.Z.Z.Z.Z.Z.Z.Z.Z.C.x.8     H.H.H.H.H.H.H.H.H.H.H.H.H.H.H.H.H.H.H.H.H.H.H.",
"H.H.H.H.H.H.H.H.H.H.H.H.H.H.H.H.H.H.H.H.H.H.H.  . W ' +.G.Z.Z.Z.Z.D.Z.Z.Z.Z.Z.Z.v.x.    u T + H.H.H.H.H.H.H.H.H.H.H.H.H.H.H.H.H.H.H.H.H.H.H.",
"H.H.H.H.H.H.H.H.H.H.H.H.H.H.H.H.H.H.H.H.H.    W ' ' +.Z.Z.Z.Z.Z.Z.C.Z.Z.Z.C.x.7.    L T K K     H.H.H.H.H.H.H.H.H.H.H.H.H.H.H.H.H.H.H.H.H.H.",
"H.H.H.H.H.H.H.H.H.H.H.H.H.H.H.H.H.H.H.H.  ; _ ' ' ^ Z.Z.Z.Z.Z.Z.C.Z.C.c.x.*   O T Y L L .   e D   H.H.H.H.H.H.H.H.H.H.H.H.H.H.H.H.H.H.H.H.H.",
"H.H.H.H.H.H.H.H.H.H.H.H.H.H.H.H.H.H.H.  S ' ' ~ W W Z.Z.C.Z.C.Z.c.x.z.    K T U L P     ) ' ' _ W     H.H.H.H.H.H.H.H.H.H.H.H.H.H.H.H.H.H.H.",
"H.H.H.H.H.H.H.H.H.H.H.H.H.H.H.H.H.H.H.  L L W W W W n.Z.c.x.x.x.A     Y T L L =     ' ' ' ' ' ' ' W     H.H.H.H.H.H.H.H.H.H.H.H.H.H.H.H.H.H.",
"H.H.H.H.H.H.H.H.H.H.H.H.H.H.H.H.H.H.H.y L L L L L L L x.x.x.o   - T Y L L     J ' ' ' ' ' ' ' ' ' ( W   H.H.H.H.H.H.H.H.H.H.H.H.H.H.H.H.H.H.",
"H.H.H.H.H.H.H.H.H.H.H.H.H.H.H.H.H.H.H.= L L L L L L L w.    K T U U i     ' ' ' ' ' ' ' ' ' ' ' ' ' W W   H.H.H.H.H.H.H.H.H.H.H.H.H.H.H.H.H.",
"H.H.H.H.H.H.H.H.H.H.H.H.H.H.H.H.H.H.H.  L L L L L w X   L T F L = X + W W W W / ' ' ' ' ' ' ' ' ' W W W   H.H.H.H.H.H.H.H.H.H.H.H.H.H.H.H.H.",
"H.H.H.H.H.H.H.H.H.H.H.H.H.H.H.H.H.H.H.H.  y L K   ; Y Y K K     S W W W W W W W W W W W W W W W W W W W   H.H.H.H.H.H.H.H.H.H.H.H.H.H.H.H.H.",
"H.H.H.H.H.H.H.H.H.H.H.H.H.H.H.H.H.H.H.H.H.      Y K K u       U I W W W W W W W W W W W W W W W W W W P   H.H.H.H.H.H.H.H.H.H.H.H.H.H.H.H.H.",
"H.H.H.H.H.H.H.H.H.H.H.H.H.H.H.H.H.H.H.H.H.H.H.  + +   : #.#.*.    y L L W W W W W W W W W W W W W L =   H.H.H.H.H.H.H.H.H.H.H.H.H.H.H.H.H.H.",
"H.H.H.H.H.H.H.H.H.H.H.H.H.H.H.H.H.H.H.H.H.H.H.H.  | #.#.#.#.#.#.  a     . y I L L L L L L L L t     H.H.H.H.H.H.H.H.H.H.H.H.H.H.H.H.H.H.H.H.",
"H.H.H.H.H.H.H.H.H.H.H.H.H.H.H.H.H.H.H.H.H.H.H.H.H.. #.#.#.#.#.#.  #.#.h o 7                 o   H.H.H.H.H.H.H.H.H.H.H.H.H.H.H.H.H.H.H.H.H.H.",
"H.H.H.H.H.H.H.H.H.H.H.H.H.H.H.H.H.H.H.H.H.H.H.H.H.        #.#.        5 d.O.  m.V.        V C H.H.H.H.H.H.H.H.H.H.H.H.H.H.H.H.H.H.H.H.H.H.H.",
"H.H.H.H.H.H.H.H.H.H.H.H.H.H.H.H.H.H.H.H.H.H.H.H.H.  G.V.d @.f B.m.  G.N   b.V.V.V.b.V.V.o 5.*   H.H.H.H.H.H.H.H.H.H.H.H.H.H.H.H.H.H.H.H.H.H.",
"H.H.H.H.H.H.H.H.H.H.H.H.H.H.H.H.H.H.H.H.H.H.H.H.  S.V.h.h.. ..V.    & & X V.V.V.V.V.V.9.& & o   H.H.H.H.H.H.H.H.H.H.H.H.H.H.H.H.H.H.H.H.H.H.",
"H.H.H.H.H.H.H.H.H.H.H.H.H.H.H.H.H.H.H.H.H.H.H.H.  V.h.h.h.M.V.V.d.  & &   V.V.f.u.f.V.V.& & & r.H.H.H.H.H.H.H.H.H.H.H.H.H.H.H.H.H.H.H.H.H.H.",
"H.H.H.H.H.H.H.H.H.H.H.H.H.H.H.H.H.H.H.H.H.H.H.H.  V.h.h.h.h.V.V.4.  & & Z V.u.u.u.G.u.d.o & r.5   H.H.H.H.H.H.H.H.H.H.H.H.H.H.H.H.H.H.H.H.H.",
"H.H.H.H.H.H.H.H.H.H.H.H.H.H.H.H.H.H.H.H.H.H.H.H.  B.V.h.h.h.M.V.V.      V.  u.u.u.u.u.o     F.  H.H.H.H.H.H.H.H.H.H.H.H.H.H.H.H.H.H.H.H.H.H.",
"H.H.H.H.H.H.H.H.H.H.H.H.H.H.H.H.H.H.H.H.H.H.H.H.H.  9.V.N.h.h.A.f.u.V.V.V.V y.u.u.u.u.. V.k.u.  H.H.H.H.H.H.H.H.H.H.H.H.H.H.H.H.H.H.H.H.H.H.",
"H.H.H.H.H.H.H.H.H.H.H.H.H.H.H.H.H.H.H.H.H.H.H.H.H.H.H.H.    [ s.u.u.j.M.V.V.l.&.[ X.h.h.{ ] H.H.H.H.H.H.H.H.H.H.H.H.H.H.H.H.H.H.H.H.H.H.H.H.",
"H.H.H.H.H.H.H.H.H.H.H.H.H.H.H.H.H.H.H.H.H.H.H.H.H.H.H.H.H.  H.      o o.g.h.h.h.h.7       H.H.H.H.H.H.H.H.H.H.H.H.H.H.H.H.H.H.H.H.H.H.H.H.H.",
"H.H.H.H.H.H.H.H.H.H.H.H.H.H.H.H.H.H.H.H.H.H.H.H.H.H.H.  r.G.c.X   >.>.c & X         H.H.H.H.H.H.H.H.H.H.H.H.H.H.H.H.H.H.H.H.H.H.H.H.H.H.H.H.",
"H.H.H.H.H.H.H.H.H.H.H.H.H.H.H.H.H.H.H.H.H.H.H.H.H.H.  t.G.G.G.C G.# ,.>.  G.G.  1 z.  H.H.H.H.H.H.H.H.H.H.H.H.H.H.H.H.H.H.H.H.H.H.H.H.H.H.H.",
"H.H.H.H.H.H.H.H.H.H.H.H.H.H.H.H.H.H.H.H.H.H.H.H.H.H.N G.G.G.C.v.G.o >.>.-.z z z :.t.z.  H.H.H.H.H.H.H.H.H.H.H.H.H.H.H.H.H.H.H.H.H.H.H.H.H.H.",
"H.H.H.H.H.H.H.H.H.H.H.H.H.H.H.H.H.H.H.H.H.H.H.H.H.H.  G.G.C.C.  G.  3 3 3 3 3 4 3 . z.  H.H.H.H.H.H.H.H.H.H.H.H.H.H.H.H.H.H.H.H.H.H.H.H.H.H.",
"H.H.H.H.H.H.H.H.H.H.H.H.H.H.H.H.H.H.H.H.H.H.H.H.H.  V.o v.Z.% D.r.n   2.2.2.2.2.2.    d.  H.H.H.H.H.H.H.H.H.H.H.H.H.H.H.H.H.H.H.H.H.H.H.H.H.",
"H.H.H.H.H.H.H.H.H.H.H.H.H.H.H.H.H.H.H.H.H.H.H.H.  V.V.M., 8 r.  :.>.  1.2.2.2.2.2.  d.d.8.  H.H.H.H.H.H.H.H.H.H.H.H.H.H.H.H.H.H.H.H.H.H.H.H.",
"H.H.H.H.H.H.H.H.H.H.H.H.H.H.H.H.H.H.H.H.H.H.H.H.o V.V.h.    -.>.>.>.  <.2.2.2.2.2.4 | d.d.  H.H.H.H.H.H.H.H.H.H.H.H.H.H.H.H.H.H.H.H.H.H.H.H.",
"H.H.H.H.H.H.H.H.H.H.H.H.H.H.H.H.H.H.H.H.H.H.H.  V.V.V.h.    m >.>.>.  <.2.2.2.2.2.c f d.d.d.  H.H.H.H.H.H.H.H.H.H.H.H.H.H.H.H.H.H.H.H.H.H.H.",
"H.H.H.H.H.H.H.H.H.H.H.H.H.H.H.H.H.H.H.H.H.H.H.  V.V.M.o.H.  -.-.>.>.$ >.2.2.2.2.3.b < p.d.a.  H.H.H.H.H.H.H.H.H.H.H.H.H.H.H.H.H.H.H.H.H.H.H.",
"H.H.H.H.H.H.H.H.H.H.H.H.H.H.H.H.H.H.H.H.H.H.H.  G.V.V.h.    -.m ;.>.>.          # 4 g a.d.z.  H.H.H.H.H.H.H.H.H.H.H.H.H.H.H.H.H.H.H.H.H.H.H.",
"H.H.H.H.H.H.H.H.H.H.H.H.H.H.H.H.H.H.H.H.H.H.H.  V.V.V.h..   $ :.>.>.=.=.=.-.-.m m   $.d.d.d.. H.H.H.H.H.H.H.H.H.H.H.H.H.H.H.H.H.H.H.H.H.H.H.",
"H.H.H.H.H.H.H.H.H.H.H.H.H.H.H.H.H.H.H.H.H.H.H.  g.j.h. .  H.=.>.>.2.k =.=.=.=.n   2 , $.p.%.  H.H.H.H.H.H.H.H.H.H.H.H.H.H.H.H.H.H.H.H.H.H.H.",
"H.H.H.H.H.H.H.H.H.H.H.H.H.H.H.H.H.H.H.H.H.H.H.H.        H.  =.>.>.,.n         X x x   B o   H.H.H.H.H.H.H.H.H.H.H.H.H.H.H.H.H.H.H.H.H.H.H.H.",
"H.H.H.H.H.H.H.H.H.H.H.H.H.H.H.H.H.H.H.H.H.H.H.H.H.H.H.H.H.  -.>.>.>.>.H.H.j l x x x 2 H.H.H.H.H.H.H.H.H.H.H.H.H.H.H.H.H.H.H.H.H.H.H.H.H.H.H.",
"H.H.H.H.H.H.H.H.H.H.H.H.H.H.H.H.H.H.H.H.H.H.H.H.H.H.H.H.H.  m m n v c H.H.  l l j X     H.H.H.H.H.H.H.H.H.H.H.H.H.H.H.H.H.H.H.H.H.H.H.H.H.H.",
"H.H.H.H.H.H.H.H.H.H.H.H.H.H.H.H.H.H.H.H.H.H.H.H.H.H.H.H.H.  v.C.Z.C.  H.H.      0.z.q.  H.H.H.H.H.H.H.H.H.H.H.H.H.H.H.H.H.H.H.H.H.H.H.H.H.H.",
"H.H.H.H.H.H.H.H.H.H.H.H.H.H.H.H.H.H.H.H.H.H.H.H.H.H.H.H.H.                                    H.H.H.H.H.H.H.H.H.H.H.H.H.H.H.H.H.H.H.H.H.H.H.",
"H.H.H.H.H.H.H.H.H.H.H.H.H.H.H.H.H.H.H.H.H.H.H.H.H.H.H.H.  s W R   C.C.G.G.C.  G 0   q.q.z.z.6.  H.H.H.H.H.H.H.H.H.H.H.H.H.H.H.H.H.H.H.H.H.H.",
"H.H.H.H.H.H.H.H.H.H.H.H.H.H.H.H.H.H.H.H.H.H.H.H.H.H.H.H.  C.W   x.C.C.C.F.Z.C.    0.q.q.r.t.r.6.  H.H.H.H.H.H.H.H.H.H.H.H.H.H.H.H.H.H.H.H.H.",
"H.H.H.H.H.H.H.H.H.H.H.H.H.H.H.H.H.H.H.H.H.H.H.H.H.H.H.H.  D 9 A x.C.C.C.C.C.C.  5.6.q.q.q.q.q.q.  H.H.H.H.H.H.H.H.H.H.H.H.H.H.H.H.H.H.H.H.H.",
"H.H.H.H.H.H.H.H.H.H.H.H.H.H.H.H.H.H.H.H.H.H.H.H.H.H.H.                                            H.H.H.H.H.H.H.H.H.H.H.H.H.H.H.H.H.H.H.H.H.",
"H.H.H.H.H.H.H.H.H.H.H.H.H.H.H.H.H.H.H.H.H.H.H.H.H.H.H.  M x.C.C.C.C.C.C.C.G.C.z.6 q.q.q.q.q.z.q.M H.H.H.H.H.H.H.H.H.H.H.H.H.H.H.H.H.H.H.H.H.",
"H.H.H.H.H.H.H.H.H.H.H.H.H.H.H.H.H.H.H.H.H.H.H.H.H.H.H.                                              H.H.H.H.H.H.H.H.H.H.H.H.H.H.H.H.H.H.H.H.",
"H.H.H.H.H.H.H.H.H.H.H.H.H.H.H.H.H.H.H.H.H.H.H.H.H.H.H.H.H.H.H.H.H.H.H.H.H.H.H.H.H.H.H.H.H.H.H.H.H.H.H.H.H.H.H.H.H.H.H.H.H.H.H.H.H.H.H.H.H.H.",
"H.H.H.H.H.H.H.H.H.H.H.H.H.H.H.H.H.H.H.H.H.H.H.H.H.H.H.H.H.H.H.H.H.H.H.H.H.H.H.H.H.H.H.H.H.H.H.H.H.H.H.H.H.H.H.H.H.H.H.H.H.H.H.H.H.H.H.H.H.H.",
"H.H.H.H.H.H.H.H.H.H.H.H.H.H.H.H.H.H.H.H.H.H.H.H.H.H.H.H.H.H.H.H.H.H.H.H.H.H.H.H.H.H.H.H.H.H.H.H.H.H.H.H.H.H.H.H.H.H.H.H.H.H.H.H.H.H.H.H.H.H.",
"H.H.H.H.H.H.H.H.H.H.H.H.H.H.H.H.H.H.H.H.H.H.H.H.H.H.H.H.H.H.H.H.H.H.H.H.H.H.H.H.H.H.H.H.H.H.H.H.H.H.H.H.H.H.H.H.H.H.H.H.H.H.H.H.H.H.H.H.H.H.",
"H.H.H.H.H.H.H.H.H.H.H.H.H.H.H.H.H.H.H.H.H.H.H.H.H.H.H.H.H.H.H.H.H.H.H.H.H.H.H.H.H.H.H.H.H.H.H.H.H.H.H.H.H.H.H.H.H.H.H.H.H.H.H.H.H.H.H.H.H.H.",
"H.H.H.H.H.H.H.H.H.H.H.H.H.H.H.H.H.H.H.H.H.H.H.H.H.H.H.H.H.H.H.H.H.H.H.H.H.H.H.H.H.H.H.H.H.H.H.H.H.H.H.H.H.H.H.H.H.H.H.H.H.H.H.H.H.H.H.H.H.H.",
"H.H.H.H.H.H.H.H.H.H.H.H.H.H.H.H.H.H.H.H.H.H.H.H.H.H.H.H.H.H.H.H.H.H.H.H.H.H.H.H.H.H.H.H.H.H.H.H.H.H.H.H.H.H.H.H.H.H.H.H.H.H.H.H.H.H.H.H.H.H.",
"H.H.H.H.H.H.H.H.H.H.H.H.H.H.H.H.H.H.H.H.H.H.H.H.H.H.H.H.H.H.H.H.H.H.H.H.H.H.H.H.H.H.H.H.H.H.H.H.H.H.H.H.H.H.H.H.H.H.H.H.H.H.H.H.H.H.H.H.H.H."
};
