/* XPM */
static char *_60fa9df2d654311bcc3aa760956812bZJPNT53hWoHGg3or[] = {
/* columns rows colors chars-per-pixel */
"70 70 154 2 ",
"   c None",
".  c #000000",
"X  c #0B0202",
"o  c #04080D",
"O  c #0B0B0B",
"+  c #080709",
"@  c #1D0304",
"#  c #130E06",
"$  c #190503",
"%  c #1A140C",
"&  c #070F17",
"*  c #151515",
"=  c #1B1513",
"-  c #1B1B1B",
";  c #280806",
":  c #36090C",
">  c #271E0E",
",  c #231B15",
"<  c #352813",
"1  c #051525",
"2  c #0C1925",
"3  c #071C32",
"4  c #2B2A29",
"5  c #37322E",
"6  c gray23",
"7  c #373737",
"8  c #5D0000",
"9  c #4B0D12",
"0  c #5A1116",
"q  c #561015",
"w  c #780000",
"e  c #7B161D",
"r  c #721117",
"t  c #413C36",
"y  c #4C453F",
"u  c #534335",
"i  c #0B2F54",
"p  c #0B3055",
"a  c #0C335A",
"s  c #1D3A55",
"d  c #1E3D5D",
"f  c #113E6B",
"g  c #1F405F",
"h  c #20405F",
"j  c #24496D",
"k  c #264C71",
"l  c #2A4F75",
"z  c #2C537B",
"x  c #4D4C4C",
"c  c #514B43",
"v  c #5C534A",
"b  c #535353",
"n  c #5C5C5C",
"m  c #725A42",
"M  c #7D6752",
"N  c #766B61",
"B  c #747474",
"V  c #8A0000",
"C  c #85161D",
"Z  c #AB0404",
"A  c #A50700",
"S  c #BB0608",
"D  c #B61015",
"F  c #841920",
"G  c #8D1A22",
"H  c #941A22",
"J  c #9D1D27",
"K  c #A41B23",
"L  c #A51F28",
"P  c #AD2029",
"I  c #B3222B",
"U  c #C80000",
"Y  c #D50000",
"T  c #DA0900",
"R  c #DC1200",
"E  c #E01600",
"W  c #EB2D00",
"Q  c #E12B19",
"!  c #D92A2A",
"~  c #E34B00",
"^  c #F94800",
"/  c #FE5400",
"(  c #FD7430",
")  c #985855",
"_  c #CA7571",
"`  c #BA883F",
"'  c #978A7F",
"]  c #A98B6D",
"[  c #BF9468",
"{  c #CC9948",
"}  c #D39D4A",
"|  c #FF8244",
" . c #D9A24C",
".. c #E4A84E",
"X. c #EDAE51",
"o. c #F5BE5C",
"O. c #C5986B",
"+. c #C49F7C",
"@. c #FF9F70",
"#. c #CDA47B",
"$. c #2C5680",
"%. c #2E5D8B",
"&. c #2E5A86",
"*. c #305F8F",
"=. c #326495",
"-. c #336699",
";. c #34699D",
":. c #376EA4",
">. c #3B75AF",
",. c #3870A7",
"<. c #4784C1",
"1. c #898989",
"2. c #939393",
"3. c #999999",
"4. c #A19283",
"5. c #AEA091",
"6. c #B1A394",
"7. c #A4A4A4",
"8. c #AFAFAF",
"9. c #B2B2B2",
"0. c #E28484",
"q. c #FF938E",
"w. c #C0A285",
"e. c #C5B19E",
"r. c #FEAF87",
"t. c #E0B68B",
"y. c #FEB894",
"u. c #C4A8A8",
"i. c #C5B2A0",
"p. c #CBBAA9",
"a. c #D2BFAE",
"s. c #C8B6B7",
"d. c #FFA9A2",
"f. c #FFCC9A",
"g. c #DBC9B7",
"h. c #FFDEBC",
"j. c #FFDBB6",
"k. c #C4C4C4",
"l. c #CCCCCC",
"z. c #D4D3D2",
"x. c #DDDCDC",
"c. c #FFD8C6",
"v. c #F2DCC6",
"b. c #FFE2C4",
"n. c #F6E1CD",
"m. c #FEE3CD",
"M. c #FFEAD5",
"N. c #FBE6D1",
"B. c #E6E6E6",
"V. c #ECECEC",
"C. c #FFEFE7",
"Z. c #F3F3F3",
"A. c #FFFAF7",
"S. c #FEFEFE",
/* pixels */
"                                                                                                                                            ",
"                                                                                                                                            ",
"                                                                                                                                            ",
"                                                                                                                                            ",
"                                                                                                                                            ",
"                                                                                                                                            ",
"                                                                              . . . .                                                       ",
"                                                                          . $ Y Y T Y .                                                     ",
"                                                                        . Y ^ / @.A.y.Y .                                                   ",
"                                                                      . Y / | S.S.S.S.A.$                                                   ",
"                                                                    . Y / C.S.S.S.Z.Z.Z.Z..                                                 ",
"                                                          . . .   . Y / A.S.S.Z.Z.Z.Z.Z.Z..                                                 ",
"                                                        . R / Y . w / A.S.Z.Z.Z.Z.Z.Z.Z.Z.=                                                 ",
"                                                      . Y / / X X ^ A.A.Z.Z.Z.Z.Z.Z.Z.Z.Z.u..                                               ",
"                                                      . Y Y . X / S.Z.Z.Z.Z.Z.Z.Z.Z.Z.Z.V.V..                                               ",
"                                                      . . . T / S.Z.Z.Z.Z.V.V.V.V.V.V.V.V.V..                                               ",
"                                                    . . Y / r.S.Z.V.V.V.V.V.V.V.V.V.V.V.l.l..                                               ",
"                                                . X Y / ( S.V.V.V.V.V.V.V.V.V.V.V.V.z.k.. . .                                               ",
"                                            . . Y / / S.V.V.V.V.V.V.V.V.V.V.V.V.l.b . . H I F .                                             ",
"                                          . U / / / Q V.V.V.V.V.V.V.V.V.V.z.l.. . 9 I P J F X .                                             ",
"                                        . R / / R Y 0.V.V.V.V.V.V.V.z.l.x . . L I J J e . . ~ Y . .                                         ",
"                                      . J K Y Y Y Y ! V.V.V.x.l.l.l.. . 9 I P J J X . $ / / / / Y V .                                       ",
"                                      . J J J J J J J l.l.l.l.B . . L I J J e . . ~ / / / / / / / Y U .                                     ",
"                                      . J J J J J J J s.l.. . : I P J J X . ; / / / / / / / / / / / Y Z .                                   ",
"                                      . J J J J J J 0 . . G I J J e . . S W / / / / / / / / / / / / Y Y .                                   ",
"                                        . J J J X . : I L F F X . @ Y Y Y Y Y Y Y W / / / / / / / Y Y Y 8                                   ",
"                                          . . . 0 I F F e . . C Y Y Y Y Y Y Y Y Y Y Y Y Y Y Y Y Y Y Y Y X                                   ",
"                                              . q F @ . # X.> . e J S Y Y Y Y Y Y Y Y Y Y Y Y Y Y Y Y H .                                   ",
"                                                . . ` X.X.X.o.X.> . . H J J D Y Y Y Y Y Y Y Y Y K J X .                                     ",
"                                                  . X.X.X.X.X.X.. X.X.# . . . X : C H J J r ; . . .                                         ",
"                                                  . } X  .X.X.{ . } . . M.% X.. p.. < # . . A..                                             ",
"                                                  . - S.. ..X.. . . S.S.' . y M.M.. . t . V.x..                                             ",
"                                                . z.M.b.m.< . M.5.. - - O M.M.M.M.M.M.M.O n x .                                             ",
"                                                . M.f.f.f.O M.M.M.. - - + M.M.M.M.M.M.g.* - 4 +                                             ",
"                                                . M.f.f.f.f.M.M.5 . - - . M.v.q.q.S.m.p.* - x x..                                           ",
"                                                . M.b.f.f.f.M.M.M.. O O n.c q.q.q.q.q.O . - Z.. .                                           ",
"                                                  . M.h.f.f.f.m.d.a.. 6.M.. q.q.q.q.q.X . O z..                                             ",
"                                                    . . . t.f.q.q.q.c.M.M.M.. ) q._ O #.c.d.q.                                              ",
"                                                          . . . u f.f.f.f.f.f.f.f.f.f.w.. .                                                 ",
"                                                        . . . . & . . . . . . . . . . .                                                     ",
"                                                      . S.S.S.. V.%.-.-.O S.S.+ . 9..                                                       ",
"                                                    O S.S.S.B.7.S.. -.-.2 . . . %.k.k..                                                     ",
"                                                    . S.S.V.B.* S.- -.-.-.-.-.-.-.7 k.O                                                     ",
"                                                  . N.+ B.B.x.* S.. . z l l l l l . 6 4..                                                   ",
"                                                . M.M.v.- k.* V.. -.. o o o o o & . v i.e..                                                 ",
"                                              . n.M.M.f.. . . =.-.-.. :.>.>.>.>.>.. [ i.i.N .                                               ",
"                                              . M.M.f.u   . $.-.-.-.. :.>.>.>.>.>.g m O.i.i..                                               ",
"                                            . a.M.M.f..   . $.=.-.-.+ ;.>.>.>.>.<.d . O.i.i.4..                                             ",
"                                            . S.M.M.f..   . $.$.-.-.=.2 =.=.=.=.. k . O.i.i.k..                                             ",
"                                            . M.M.M.f.f.  . s %.-.*.=.-.-.-.-.-.&.. % O.i.i.i..                                             ",
"                                              M h.j.f..   . $.-.-.>.k $.$.$.$.$.h . . O.e.i.+..                                             ",
"                                              . . ] =     . $.-.-.,.j z l s + . o f . , O.m .                                               ",
"                                                          . $.-.-.-.-.. . 3 i f f f 1   .                                                   ",
"                                                          . $.$.$.$.$.    . p a p 1 .                                                       ",
"                                                          . b B 1.2..     . . . 6 8.1..                                                     ",
"                                                          . . . . . . . . . . . . . . . . . .                                               ",
"                                                        . X T Y . B.B.Z.S.3.. A V . 8.8.k.k.b .                                             ",
"                                                        . B.Y . l.B.B.B.S.A.k.. . 7.8.8.8.k.9.n .                                           ",
"                                                        . Z w 6 l.B.B.B.B.B.B.. 2.3.8.8.8.8.8.8..                                           ",
"                                                      . . . . . . . . . . . . . . . . . . . . . .                                           ",
"                                                      . x l.B.B.B.B.B.B.B.S.B.k.4 8.8.8.8.8.k.8.x                                           ",
"                                                      . . . . . . . . . . . . . . . . . . . . . . .                                         ",
"                                                                                                                                            ",
"                                                                                                                                            ",
"                                                                                                                                            ",
"                                                                                                                                            ",
"                                                                                                                                            ",
"                                                                                                                                            ",
"                                                                                                                                            ",
"                                                                                                                                            "
};
