/* XPM */
static char *result[] = {
/* columns rows colors chars-per-pixel */
"70 70 154 2 ",
"   c #000000",
".  c #0B0202",
"X  c #04080D",
"o  c #0B0B0B",
"O  c #080709",
"+  c #1D0304",
"@  c #130E06",
"#  c #190503",
"$  c #1A140C",
"%  c #070F17",
"&  c #151515",
"*  c #1B1513",
"=  c #1B1B1B",
"-  c #280806",
";  c #36090C",
":  c #271E0E",
">  c #231B15",
",  c #352813",
"<  c #051525",
"1  c #0C1925",
"2  c #071C32",
"3  c #2B2A29",
"4  c #37322E",
"5  c gray23",
"6  c #373737",
"7  c #5D0000",
"8  c #4B0D12",
"9  c #5A1116",
"0  c #561015",
"q  c #780000",
"w  c #7B161D",
"e  c #721117",
"r  c #413C36",
"t  c #4C453F",
"y  c #534335",
"u  c #0B2F54",
"i  c #0B3055",
"p  c #0C335A",
"a  c #1D3A55",
"s  c #1E3D5D",
"d  c #113E6B",
"f  c #1F405F",
"g  c #20405F",
"h  c #24496D",
"j  c #264C71",
"k  c #2A4F75",
"l  c #2C537B",
"z  c #4D4C4C",
"x  c #514B43",
"c  c #5C534A",
"v  c #535353",
"b  c #5C5C5C",
"n  c #725A42",
"m  c #7D6752",
"M  c #766B61",
"N  c #747474",
"B  c #8A0000",
"V  c #85161D",
"C  c #AB0404",
"Z  c #A50700",
"A  c #BB0608",
"S  c #B61015",
"D  c #841920",
"F  c #8D1A22",
"G  c #941A22",
"H  c #9D1D27",
"J  c #A41B23",
"K  c #A51F28",
"L  c #AD2029",
"P  c #B3222B",
"I  c #C80000",
"U  c #D50000",
"Y  c #DA0900",
"T  c #DC1200",
"R  c #E01600",
"E  c #EB2D00",
"W  c #E12B19",
"Q  c #D92A2A",
"!  c #E34B00",
"~  c #F94800",
"^  c #FE5400",
"/  c #FD7430",
"(  c #985855",
")  c #CA7571",
"_  c #BA883F",
"`  c #978A7F",
"'  c #A98B6D",
"]  c #BF9468",
"[  c #CC9948",
"{  c #D39D4A",
"}  c #FF8244",
"|  c #D9A24C",
" . c #E4A84E",
".. c #EDAE51",
"X. c #F5BE5C",
"o. c #C5986B",
"O. c #C49F7C",
"+. c #FF9F70",
"@. c #CDA47B",
"#. c #2C5680",
"$. c #2E5D8B",
"%. c #2E5A86",
"&. c #305F8F",
"*. c #326495",
"=. c #336699",
"-. c #34699D",
";. c #376EA4",
":. c #3B75AF",
">. c #3870A7",
",. c #4784C1",
"<. c #898989",
"1. c #939393",
"2. c #999999",
"3. c #A19283",
"4. c #AEA091",
"5. c #B1A394",
"6. c #A4A4A4",
"7. c #AFAFAF",
"8. c #B2B2B2",
"9. c #E28484",
"0. c #FF938E",
"q. c #C0A285",
"w. c #C5B19E",
"e. c #FEAF87",
"r. c #E0B68B",
"t. c #FEB894",
"y. c #C4A8A8",
"u. c #C5B2A0",
"i. c #CBBAA9",
"p. c #D2BFAE",
"a. c #C8B6B7",
"s. c #FFA9A2",
"d. c #FFCC9A",
"f. c #DBC9B7",
"g. c #FFDEBC",
"h. c #FFDBB6",
"j. c #C4C4C4",
"k. c #CCCCCC",
"l. c #D4D3D2",
"z. c #DDDCDC",
"x. c #FFD8C6",
"c. c #F2DCC6",
"v. c #FFE2C4",
"b. c #F6E1CD",
"n. c #FEE3CD",
"m. c #FFEAD5",
"M. c #FBE6D1",
"N. c #E6E6E6",
"B. c #ECECEC",
"V. c #FFEFE7",
"C. c #F3F3F3",
"Z. c #FFFAF7",
"A. c #FEFEFE",
"S. c None",
/* pixels */
"S.S.S.S.S.S.S.S.S.S.S.S.S.S.S.S.S.S.S.S.S.S.S.S.S.S.S.S.S.S.S.S.S.S.S.S.S.S.S.S.S.S.S.S.S.S.S.S.S.S.S.S.S.S.S.S.S.S.S.S.S.S.S.S.S.S.S.S.S.S.",
"S.S.S.S.S.S.S.S.S.S.S.S.S.S.S.S.S.S.S.S.S.S.S.S.S.S.S.S.S.S.S.S.S.S.S.S.S.S.S.S.S.S.S.S.S.S.S.S.S.S.S.S.S.S.S.S.S.S.S.S.S.S.S.S.S.S.S.S.S.S.",
"S.S.S.S.S.S.S.S.S.S.S.S.S.S.S.S.S.S.S.S.S.S.S.S.S.S.S.S.S.S.S.S.S.S.S.S.S.S.S.S.S.S.S.S.S.S.S.S.S.S.S.S.S.S.S.S.S.S.S.S.S.S.S.S.S.S.S.S.S.S.",
"S.S.S.S.S.S.S.S.S.S.S.S.S.S.S.S.S.S.S.S.S.S.S.S.S.S.S.S.S.S.S.S.S.S.S.S.S.S.S.S.S.S.S.S.S.S.S.S.S.S.S.S.S.S.S.S.S.S.S.S.S.S.S.S.S.S.S.S.S.S.",
"S.S.S.S.S.S.S.S.S.S.S.S.S.S.S.S.S.S.S.S.S.S.S.S.S.S.S.S.S.S.S.S.S.S.S.S.S.S.S.S.S.S.S.S.S.S.S.S.S.S.S.S.S.S.S.S.S.S.S.S.S.S.S.S.S.S.S.S.S.S.",
"S.S.S.S.S.S.S.S.S.S.S.S.S.S.S.S.S.S.S.S.S.S.S.S.S.S.S.S.S.S.S.S.S.S.S.S.S.S.S.S.S.S.S.S.S.S.S.S.S.S.S.S.S.S.S.S.S.S.S.S.S.S.S.S.S.S.S.S.S.S.",
"S.S.S.S.S.S.S.S.S.S.S.S.S.S.S.S.S.S.S.S.S.S.S.S.S.S.S.        S.S.S.S.S.S.S.S.S.S.S.S.S.S.S.S.S.S.S.S.S.S.S.S.S.S.S.S.S.S.S.S.S.S.S.S.S.S.S.",
"S.S.S.S.S.S.S.S.S.S.S.S.S.S.S.S.S.S.S.S.S.S.S.S.S.S.  U U U U #   S.S.S.S.S.S.S.S.S.S.S.S.S.S.S.S.S.S.S.S.S.S.S.S.S.S.S.S.S.S.S.S.S.S.S.S.S.",
"S.S.S.S.S.S.S.S.S.S.S.S.S.S.S.S.S.S.S.S.S.S.S.S.S.  U t.Z.+.^ ~ U   S.S.S.S.S.S.S.S.S.S.S.S.S.S.S.S.S.S.S.S.S.S.S.S.S.S.S.S.S.S.S.S.S.S.S.S.",
"S.S.S.S.S.S.S.S.S.S.S.S.S.S.S.S.S.S.S.S.S.S.S.S.S.@ C.A.A.A.A.} ^ U   S.S.S.S.S.S.S.S.S.S.S.S.S.S.S.S.S.S.S.S.S.S.S.S.S.S.S.S.S.S.S.S.S.S.S.",
"S.S.S.S.S.S.S.S.S.S.S.S.S.S.S.S.S.S.S.S.S.S.S.S.  C.C.A.C.A.A.A.V.^ U   S.S.S.S.S.S.S.S.S.S.S.S.S.S.S.S.S.S.S.S.S.S.S.S.S.S.S.S.S.S.S.S.S.S.",
"S.S.S.S.S.S.S.S.S.S.S.S.S.S.S.S.S.S.S.S.S.S.S.S.  C.C.Z.C.C.C.A.A.Z.^ U   S.      S.S.S.S.S.S.S.S.S.S.S.S.S.S.S.S.S.S.S.S.S.S.S.S.S.S.S.S.S.",
"S.S.S.S.S.S.S.S.S.S.S.S.S.S.S.S.S.S.S.S.S.S.S.S.= C.C.C.C.C.C.C.C.A.Z.^ q   U ^ T   S.S.S.S.S.S.S.S.S.S.S.S.S.S.S.S.S.S.S.S.S.S.S.S.S.S.S.S.",
"S.S.S.S.S.S.S.S.S.S.S.S.S.S.S.S.S.S.S.S.S.S.S.  y.C.C.C.C.C.C.C.C.C.A.Z.~ . . ^ ^ U   S.S.S.S.S.S.S.S.S.S.S.S.S.S.S.S.S.S.S.S.S.S.S.S.S.S.S.",
"S.S.S.S.S.S.S.S.S.S.S.S.S.S.S.S.S.S.S.S.S.S.S.  B.B.B.B.B.C.C.C.C.C.C.C.A.^ .   U U   S.S.S.S.S.S.S.S.S.S.S.S.S.S.S.S.S.S.S.S.S.S.S.S.S.S.S.",
"S.S.S.S.S.S.S.S.S.S.S.S.S.S.S.S.S.S.S.S.S.S.S.  B.C.B.B.C.B.B.C.B.C.C.B.C.A.^ Y       S.S.S.S.S.S.S.S.S.S.S.S.S.S.S.S.S.S.S.S.S.S.S.S.S.S.S.",
"S.S.S.S.S.S.S.S.S.S.S.S.S.S.S.S.S.S.S.S.S.S.S.  k.l.B.B.B.B.B.B.B.C.B.C.B.C.A.e.^ U     S.S.S.S.S.S.S.S.S.S.S.S.S.S.S.S.S.S.S.S.S.S.S.S.S.S.",
"S.S.S.S.S.S.S.S.S.S.S.S.S.S.S.S.S.S.S.S.S.S.S.      j.l.B.B.B.B.B.B.B.B.B.B.B.C.A./ ^ U     S.S.S.S.S.S.S.S.S.S.S.S.S.S.S.S.S.S.S.S.S.S.S.S.",
"S.S.S.S.S.S.S.S.S.S.S.S.S.S.S.S.S.S.S.S.S.S.  D P G     v k.B.B.B.N.B.B.B.B.B.B.B.C.A.^ ^ U     S.S.S.S.S.S.S.S.S.S.S.S.S.S.S.S.S.S.S.S.S.S.",
"S.S.S.S.S.S.S.S.S.S.S.S.S.S.S.S.S.S.S.S.S.S.  . D H L P 8     j.l.B.N.B.B.B.B.B.B.B.B.W ^ ^ ^ I   S.S.S.S.S.S.S.S.S.S.S.S.S.S.S.S.S.S.S.S.S.",
"S.S.S.S.S.S.S.S.S.S.S.S.S.S.S.S.S.S.S.S.    U !     w H H L L     z k.l.B.N.B.N.B.B.B.9.U R ^ ^ T   S.S.S.S.S.S.S.S.S.S.S.S.S.S.S.S.S.S.S.S.",
"S.S.S.S.S.S.S.S.S.S.S.S.S.S.S.S.S.S.S.  B U ^ ^ ^ ^ #   . H H L P 8     k.k.k.z.N.N.B.Q U U U U J H   S.S.S.S.S.S.S.S.S.S.S.S.S.S.S.S.S.S.S.",
"S.S.S.S.S.S.S.S.S.S.S.S.S.S.S.S.S.S.  I U ^ ^ ^ ^ ^ ^ ^ !     w H H P K     N k.k.k.k.H H H H H H H   S.S.S.S.S.S.S.S.S.S.S.S.S.S.S.S.S.S.S.",
"S.S.S.S.S.S.S.S.S.S.S.S.S.S.S.S.S.  C U ^ ^ ^ ^ ^ ^ ^ ^ ^ ^ ^ -   . H H L P -     j.a.H H H H H H H   S.S.S.S.S.S.S.S.S.S.S.S.S.S.S.S.S.S.S.",
"S.S.S.S.S.S.S.S.S.S.S.S.S.S.S.S.S.  U U ^ ^ ^ ^ ^ ^ ^ ^ ^ ^ ^ ^ E A     w H H P F     9 H H H H H H   S.S.S.S.S.S.S.S.S.S.S.S.S.S.S.S.S.S.S.",
"S.S.S.S.S.S.S.S.S.S.S.S.S.S.S.S.S.7 U U U ^ ^ ^ ^ ^ ^ ^ E U U U U U U U +   . D w L P ;   O H H H   S.S.S.S.S.S.S.S.S.S.S.S.S.S.S.S.S.S.S.S.",
"S.S.S.S.S.S.S.S.S.S.S.S.S.S.S.S.S.  U U U U U U U U U U U U U U U U U U U U D     w D F P 9       S.S.S.S.S.S.S.S.S.S.S.S.S.S.S.S.S.S.S.S.S.",
"S.S.S.S.S.S.S.S.S.S.S.S.S.S.S.S.S.  G U U U U U U U U U U U U U U U U A H w   : ..@   # D 0   S.S.S.S.S.S.S.S.S.S.S.S.S.S.S.S.S.S.S.S.S.S.S.",
"S.S.S.S.S.S.S.S.S.S.S.S.S.S.S.S.S.S.  . H J I U U U U U U U U S H K G     : ..X......._     S.S.S.S.S.S.S.S.S.S.S.S.S.S.S.S.S.S.S.S.S.S.S.S.",
"S.S.S.S.S.S.S.S.S.S.S.S.S.S.S.S.S.S.S.S.      - e K H G V ; .       @ ....  ............  S.S.S.S.S.S.S.S.S.S.S.S.S.S.S.S.S.S.S.S.S.S.S.S.S.",
"S.S.S.S.S.S.S.S.S.S.S.S.S.S.S.S.S.S.S.S.S.S.  Z.    @ ,   i.  ..$ m.    {   [ ....| . |   S.S.S.S.S.S.S.S.S.S.S.S.S.S.S.S.S.S.S.S.S.S.S.S.S.",
"S.S.S.S.S.S.S.S.S.S.S.S.S.S.S.S.S.S.S.S.S.S.  z.B.  r     m.m.t   ` A.A.      .. .  A.=   S.S.S.S.S.S.S.S.S.S.S.S.S.S.S.S.S.S.S.S.S.S.S.S.S.",
"S.S.S.S.S.S.S.S.S.S.S.S.S.S.S.S.S.S.S.S.S.S.  z b o m.m.m.m.m.m.m.O = =   4.m.  , n.v.m.l.  S.S.S.S.S.S.S.S.S.S.S.S.S.S.S.S.S.S.S.S.S.S.S.S.",
"S.S.S.S.S.S.S.S.S.S.S.S.S.S.S.S.S.S.S.S.S.S.. 3 = & f.m.m.m.m.m.m.. = =   m.m.m.o d.d.d.m.  S.S.S.S.S.S.S.S.S.S.S.S.S.S.S.S.S.S.S.S.S.S.S.S.",
"S.S.S.S.S.S.S.S.S.S.S.S.S.S.S.S.S.S.S.S.S.  z.z = & p.n.A.0.0.b.m.  = =   4 m.m.d.d.d.d.m.  S.S.S.S.S.S.S.S.S.S.S.S.S.S.S.S.S.S.S.S.S.S.S.S.",
"S.S.S.S.S.S.S.S.S.S.S.S.S.S.S.S.S.S.S.S.S.    C.=   o 0.0.0.0.0.x b.o o   m.m.m.d.d.d.v.m.  S.S.S.S.S.S.S.S.S.S.S.S.S.S.S.S.S.S.S.S.S.S.S.S.",
"S.S.S.S.S.S.S.S.S.S.S.S.S.S.S.S.S.S.S.S.S.S.  l.o   . 0.0.0.0.0.  m.5.  p.s.n.d.d.d.g.m.  S.S.S.S.S.S.S.S.S.S.S.S.S.S.S.S.S.S.S.S.S.S.S.S.S.",
"S.S.S.S.S.S.S.S.S.S.S.S.S.S.S.S.S.S.S.S.S.S.S.0.s.x.@.o ) 0.(   m.m.m.x.0.0.0.d.r.      S.S.S.S.S.S.S.S.S.S.S.S.S.S.S.S.S.S.S.S.S.S.S.S.S.S.",
"S.S.S.S.S.S.S.S.S.S.S.S.S.S.S.S.S.S.S.S.S.S.S.S.    5.d.d.d.d.d.d.d.d.d.d.y       S.S.S.S.S.S.S.S.S.S.S.S.S.S.S.S.S.S.S.S.S.S.S.S.S.S.S.S.S.",
"S.S.S.S.S.S.S.S.S.S.S.S.S.S.S.S.S.S.S.S.S.S.S.S.S.S.                      %         S.S.S.S.S.S.S.S.S.S.S.S.S.S.S.S.S.S.S.S.S.S.S.S.S.S.S.S.",
"S.S.S.S.S.S.S.S.S.S.S.S.S.S.S.S.S.S.S.S.S.S.S.S.S.S.S.  8.  O A.A.o =.=.$.B.  A.A.A.  S.S.S.S.S.S.S.S.S.S.S.S.S.S.S.S.S.S.S.S.S.S.S.S.S.S.S.",
"S.S.S.S.S.S.S.S.S.S.S.S.S.S.S.S.S.S.S.S.S.S.S.S.S.S.  j.j.&.      1 =.=.  A.6.N.A.A.A.o S.S.S.S.S.S.S.S.S.S.S.S.S.S.S.S.S.S.S.S.S.S.S.S.S.S.",
"S.S.S.S.S.S.S.S.S.S.S.S.S.S.S.S.S.S.S.S.S.S.S.S.S.S.o j.5 =.=.=.=.=.=.=.= A.& N.N.A.A.  S.S.S.S.S.S.S.S.S.S.S.S.S.S.S.S.S.S.S.S.S.S.S.S.S.S.",
"S.S.S.S.S.S.S.S.S.S.S.S.S.S.S.S.S.S.S.S.S.S.S.S.S.  3.5   k k k k k l     A.& z.N.N.O m.  S.S.S.S.S.S.S.S.S.S.S.S.S.S.S.S.S.S.S.S.S.S.S.S.S.",
"S.S.S.S.S.S.S.S.S.S.S.S.S.S.S.S.S.S.S.S.S.S.S.S.  u.u.c   % X X X X X   =.  B.& j.& g.M.m.  S.S.S.S.S.S.S.S.S.S.S.S.S.S.S.S.S.S.S.S.S.S.S.S.",
"S.S.S.S.S.S.S.S.S.S.S.S.S.S.S.S.S.S.S.S.S.S.S.  M u.u.]   :.:.:.:.:.;.  =.=.*.      d.m.m.b.  S.S.S.S.S.S.S.S.S.S.S.S.S.S.S.S.S.S.S.S.S.S.S.",
"S.S.S.S.S.S.S.S.S.S.S.S.S.S.S.S.S.S.S.S.S.S.S.  u.u.o.n f :.:.:.:.:.;.  =.=.=.#.  S.y d.m.m.  S.S.S.S.S.S.S.S.S.S.S.S.S.S.S.S.S.S.S.S.S.S.S.",
"S.S.S.S.S.S.S.S.S.S.S.S.S.S.S.S.S.S.S.S.S.S.  3.u.u.o.  s ,.:.:.:.:.-.O =.=.*.l   S.  d.m.m.p.  S.S.S.S.S.S.S.S.S.S.S.S.S.S.S.S.S.S.S.S.S.S.",
"S.S.S.S.S.S.S.S.S.S.S.S.S.S.S.S.S.S.S.S.S.S.  j.u.u.o.  j O *.*.=.*.1 *.=.=.#.#.  S.  d.m.m.A.  S.S.S.S.S.S.S.S.S.S.S.S.S.S.S.S.S.S.S.S.S.S.",
"S.S.S.S.S.S.S.S.S.S.S.S.S.S.S.S.S.S.S.S.S.S.  u.u.u.o.$   %.=.=.=.=.=.=.&.=.$.a   S.d.d.m.m.m.  S.S.S.S.S.S.S.S.S.S.S.S.S.S.S.S.S.S.S.S.S.S.",
"S.S.S.S.S.S.S.S.S.S.S.S.S.S.S.S.S.S.S.S.S.S.  O.u.w.o.    s #.l #.#.#.j :.=.=.#.  S.  d.h.g.m S.S.S.S.S.S.S.S.S.S.S.S.S.S.S.S.S.S.S.S.S.S.S.",
"S.S.S.S.S.S.S.S.S.S.S.S.S.S.S.S.S.S.S.S.S.S.S.  n o.>   d X   O a k l h >.=.=.#.  S.S.* '     S.S.S.S.S.S.S.S.S.S.S.S.S.S.S.S.S.S.S.S.S.S.S.",
"S.S.S.S.S.S.S.S.S.S.S.S.S.S.S.S.S.S.S.S.S.S.S.S.S.  S.< d d d u 2     -.=.=.=.#.  S.S.S.S.S.S.S.S.S.S.S.S.S.S.S.S.S.S.S.S.S.S.S.S.S.S.S.S.S.",
"S.S.S.S.S.S.S.S.S.S.S.S.S.S.S.S.S.S.S.S.S.S.S.S.S.S.S.  < i p i   S.S.#.#.l #.#.  S.S.S.S.S.S.S.S.S.S.S.S.S.S.S.S.S.S.S.S.S.S.S.S.S.S.S.S.S.",
"S.S.S.S.S.S.S.S.S.S.S.S.S.S.S.S.S.S.S.S.S.S.S.S.S.S.  <.7.5       S.S.  1.<.N v   S.S.S.S.S.S.S.S.S.S.S.S.S.S.S.S.S.S.S.S.S.S.S.S.S.S.S.S.S.",
"S.S.S.S.S.S.S.S.S.S.S.S.S.S.S.S.S.S.S.S.S.S.S.                              O     S.S.S.S.S.S.S.S.S.S.S.S.S.S.S.S.S.S.S.S.S.S.S.S.S.S.S.S.S.",
"S.S.S.S.S.S.S.S.S.S.S.S.S.S.S.S.S.S.S.S.S.S.  v j.j.7.7.  B Z   2.A.C.N.N.  U Y o   S.S.S.S.S.S.S.S.S.S.S.S.S.S.S.S.S.S.S.S.S.S.S.S.S.S.S.S.",
"S.S.S.S.S.S.S.S.S.S.S.S.S.S.S.S.S.S.S.S.S.  b 8.j.7.7.7.6.    j.Z.A.N.N.N.k.  U N.  S.S.S.S.S.S.S.S.S.S.S.S.S.S.S.S.S.S.S.S.S.S.S.S.S.S.S.S.",
"S.S.S.S.S.S.S.S.S.S.S.S.S.S.S.S.S.S.S.S.S.  7.7.8.7.7.7.2.1.  N.N.N.N.N.N.k.5 q C   S.S.S.S.S.S.S.S.S.S.S.S.S.S.S.S.S.S.S.S.S.S.S.S.S.S.S.S.",
"S.S.S.S.S.S.S.S.S.S.S.S.S.S.S.S.S.S.S.S.S.                                            S.S.S.S.S.S.S.S.S.S.S.S.S.S.S.S.S.S.S.S.S.S.S.S.S.S.S.",
"S.S.S.S.S.S.S.S.S.S.S.S.S.S.S.S.S.S.S.S.S.z 7.j.7.7.7.7.7.3 j.N.A.N.N.N.N.N.N.N.k.z   S.S.S.S.S.S.S.S.S.S.S.S.S.S.S.S.S.S.S.S.S.S.S.S.S.S.S.",
"S.S.S.S.S.S.S.S.S.S.S.S.S.S.S.S.S.S.S.S.                                              S.S.S.S.S.S.S.S.S.S.S.S.S.S.S.S.S.S.S.S.S.S.S.S.S.S.S.",
"S.S.S.S.S.S.S.S.S.S.S.S.S.S.S.S.S.S.S.S.S.S.S.S.S.S.S.S.S.S.S.S.S.S.S.S.S.S.S.S.S.S.S.S.S.S.S.S.S.S.S.S.S.S.S.S.S.S.S.S.S.S.S.S.S.S.S.S.S.S.",
"S.S.S.S.S.S.S.S.S.S.S.S.S.S.S.S.S.S.S.S.S.S.S.S.S.S.S.S.S.S.S.S.S.S.S.S.S.S.S.S.S.S.S.S.S.S.S.S.S.S.S.S.S.S.S.S.S.S.S.S.S.S.S.S.S.S.S.S.S.S.",
"S.S.S.S.S.S.S.S.S.S.S.S.S.S.S.S.S.S.S.S.S.S.S.S.S.S.S.S.S.S.S.S.S.S.S.S.S.S.S.S.S.S.S.S.S.S.S.S.S.S.S.S.S.S.S.S.S.S.S.S.S.S.S.S.S.S.S.S.S.S.",
"S.S.S.S.S.S.S.S.S.S.S.S.S.S.S.S.S.S.S.S.S.S.S.S.S.S.S.S.S.S.S.S.S.S.S.S.S.S.S.S.S.S.S.S.S.S.S.S.S.S.S.S.S.S.S.S.S.S.S.S.S.S.S.S.S.S.S.S.S.S.",
"S.S.S.S.S.S.S.S.S.S.S.S.S.S.S.S.S.S.S.S.S.S.S.S.S.S.S.S.S.S.S.S.S.S.S.S.S.S.S.S.S.S.S.S.S.S.S.S.S.S.S.S.S.S.S.S.S.S.S.S.S.S.S.S.S.S.S.S.S.S.",
"S.S.S.S.S.S.S.S.S.S.S.S.S.S.S.S.S.S.S.S.S.S.S.S.S.S.S.S.S.S.S.S.S.S.S.S.S.S.S.S.S.S.S.S.S.S.S.S.S.S.S.S.S.S.S.S.S.S.S.S.S.S.S.S.S.S.S.S.S.S.",
"S.S.S.S.S.S.S.S.S.S.S.S.S.S.S.S.S.S.S.S.S.S.S.S.S.S.S.S.S.S.S.S.S.S.S.S.S.S.S.S.S.S.S.S.S.S.S.S.S.S.S.S.S.S.S.S.S.S.S.S.S.S.S.S.S.S.S.S.S.S.",
"S.S.S.S.S.S.S.S.S.S.S.S.S.S.S.S.S.S.S.S.S.S.S.S.S.S.S.S.S.S.S.S.S.S.S.S.S.S.S.S.S.S.S.S.S.S.S.S.S.S.S.S.S.S.S.S.S.S.S.S.S.S.S.S.S.S.S.S.S.S."
};
