/* XPM */
static char *result[] = {
/* columns rows colors chars-per-pixel */
"70 70 163 2 ",
"   c #000000",
".  c #0A0303",
"X  c #0B0B0B",
"o  c #080706",
"O  c #120202",
"+  c #190405",
"@  c #140F07",
"#  c #180D0D",
"$  c #16120E",
"%  c #050D14",
"&  c #09121B",
"*  c #1A1A1A",
"=  c #1C1A17",
"-  c #210607",
";  c #280507",
":  c #340000",
">  c #390B0E",
",  c #241F1A",
"<  c #0D1A28",
"1  c #071C32",
"2  c #112132",
"3  c #2C2C2C",
"4  c #342D27",
"5  c #37322D",
"6  c #3A3530",
"7  c #3F3C3A",
"8  c #450000",
"9  c #480000",
"0  c #580507",
"q  c #450D12",
"w  c #780000",
"e  c #67131A",
"r  c #79151C",
"t  c #672200",
"y  c #43332A",
"u  c #473A2C",
"i  c #58442F",
"p  c #5D4E3E",
"a  c #765728",
"s  c #0A2C4D",
"d  c #0B3055",
"f  c #1F3E5E",
"g  c #183048",
"h  c #203F5F",
"j  c #113E6B",
"k  c #1F405F",
"l  c #25496D",
"z  c #214060",
"x  c #274D73",
"c  c #2B547D",
"v  c #285077",
"b  c #4B4B4B",
"n  c #4B4844",
"m  c #534141",
"M  c #545453",
"N  c #615952",
"B  c #757575",
"V  c #800000",
"C  c #9C0000",
"Z  c #81141C",
"A  c #90161E",
"S  c #A20000",
"D  c #BE0000",
"F  c #A9161E",
"G  c #9D3300",
"H  c #831920",
"J  c #8D1B22",
"K  c #941B23",
"L  c #9D1D27",
"P  c #A31D26",
"I  c #A71E28",
"U  c #AA2028",
"Y  c #B3222B",
"T  c #CB0000",
"R  c #D50000",
"E  c #D80C07",
"W  c #DE1300",
"Q  c #E21B00",
"!  c #EC2D00",
"~  c #EE3300",
"^  c #F13800",
"/  c #D04500",
"(  c #EF4F00",
")  c #F94900",
"_  c #F64400",
"`  c #FE5400",
"'  c #FE6215",
"]  c #81654A",
"[  c #FE7F41",
"{  c #AF875F",
"}  c #918579",
"|  c #B49577",
" . c #C59446",
".. c #FE8B52",
"X. c #DAA24C",
"o. c #EDAE51",
"O. c #C5986B",
"+. c #C59F78",
"@. c #FEA578",
"#. c #F8CD68",
"$. c #2C5680",
"%. c #2E5A86",
"&. c #2F5D8B",
"*. c #30608F",
"=. c #326496",
"-. c #336699",
";. c #34699E",
":. c #376DA3",
">. c #3B75AF",
",. c #3E78B3",
"<. c #407CB7",
"1. c #9D9083",
"2. c #959595",
"3. c #999999",
"4. c gray53",
"5. c #AA9C8E",
"6. c #B1A294",
"7. c gray64",
"8. c #AFAFAF",
"9. c #AAA7A4",
"0. c #BDBDBD",
"q. c #BAB8B6",
"w. c #FF938E",
"e. c #FF9C92",
"r. c #EA8782",
"t. c #C5A688",
"y. c #C4AF9B",
"u. c #C5AE97",
"i. c #E7BA8C",
"p. c #FFB38E",
"a. c #FFA09C",
"s. c #E7BC91",
"d. c #C3ADAF",
"f. c #C5B2A0",
"g. c #CBBFBF",
"h. c #E4B0B0",
"j. c #FFB5B2",
"k. c #EFC296",
"l. c #FFCC99",
"z. c #D9C7B5",
"x. c #D8C6B4",
"c. c #FEC2A4",
"v. c #FFD3A7",
"b. c #FFD9B3",
"n. c #FFD7B8",
"m. c #C5C5C5",
"M. c #CCCCCC",
"N. c #DDDDDD",
"B. c #D5D5D5",
"V. c #D6CCCC",
"C. c #EDDAC6",
"Z. c #F9DDC9",
"A. c #FFDBD9",
"S. c #FEE2CB",
"D. c #FBE2C9",
"F. c #FFEAD5",
"G. c #FEE5D9",
"H. c #E6E6E6",
"J. c #ECECEC",
"K. c #F3F3F3",
"L. c #FEFEFE",
"P. c #FFF9F3",
"I. c None",
/* pixels */
"I.I.I.I.I.I.I.I.I.I.I.I.I.I.I.I.I.I.I.I.I.I.I.I.I.I.I.I.I.I.I.I.I.I.I.I.I.I.I.I.I.I.I.I.I.I.I.I.I.I.I.I.I.I.I.I.I.I.I.I.I.I.I.I.I.I.I.I.I.I.",
"I.I.I.I.I.I.I.I.I.I.I.I.I.I.I.I.I.I.I.I.I.I.I.I.I.I.I.I.I.I.I.I.I.I.I.I.I.I.I.I.I.I.I.I.I.I.I.I.I.I.I.I.I.I.I.I.I.I.I.I.I.I.I.I.I.I.I.I.I.I.",
"I.I.I.I.I.I.I.I.I.I.I.I.I.I.I.I.I.I.I.I.I.I.I.I.I.I.I.I.I.I.I.I.I.I.I.I.I.I.I.I.I.I.I.I.I.I.I.I.I.I.I.I.I.I.I.I.I.I.I.I.I.I.I.I.I.I.I.I.I.I.",
"I.I.I.I.I.I.I.I.I.I.I.I.I.I.I.I.I.I.I.I.I.I.I.I.I.I.I.I.I.I.I.I.I.I.I.I.I.I.I.I.I.I.I.I.I.I.I.I.I.I.I.I.I.I.I.I.I.I.I.I.I.I.I.I.I.I.I.I.I.I.",
"I.I.I.I.I.I.I.I.I.I.I.I.I.I.I.I.I.I.I.I.I.I.I.I.I.I.I.I.I.I.I.I.I.I.I.I.I.I.I.I.I.I.I.I.I.I.I.I.I.I.I.I.I.I.I.I.I.I.I.I.I.I.I.I.I.I.I.I.I.I.",
"I.I.I.I.I.I.I.I.I.I.I.I.I.I.I.I.I.I.I.I.I.I.I.I.I.I.I.I.I.I.I.I.I.I.I.I.I.I.I.I.I.I.I.I.I.I.I.I.I.I.I.I.I.I.I.I.I.I.I.I.I.I.I.I.I.I.I.I.I.I.",
"I.I.I.I.I.I.I.I.I.I.I.I.I.I.I.I.I.I.I.I.I.I.I.I.I.I.I.  ; w .     I.I.I.I.I.I.I.I.I.I.I.I.I.I.I.I.I.I.I.I.I.I.I.I.I.I.I.I.I.I.I.I.I.I.I.I.I.",
"I.I.I.I.I.I.I.I.I.I.I.I.I.I.I.I.I.I.I.I.I.I.I.I.I.I.  R ` ` ` R V   I.I.I.I.I.I.I.I.I.I.I.I.I.I.I.I.I.I.I.I.I.I.I.I.I.I.I.I.I.I.I.I.I.I.I.I.",
"I.I.I.I.I.I.I.I.I.I.I.I.I.I.I.I.I.I.I.I.I.I.I.I.I.  E L.L.L.L.` ` R   I.I.I.I.I.I.I.I.I.I.I.I.I.I.I.I.I.I.I.I.I.I.I.I.I.I.I.I.I.I.I.I.I.I.I.",
"I.I.I.I.I.I.I.I.I.I.I.I.I.I.I.I.I.I.I.I.I.I.I.I.I.  K.K.L.L.L.L...` R   I.I.I.I.I.I.I.I.I.I.I.I.I.I.I.I.I.I.I.I.I.I.I.I.I.I.I.I.I.I.I.I.I.I.",
"I.I.I.I.I.I.I.I.I.I.I.I.I.I.I.I.I.I.I.I.I.I.I.I.  V.L.K.K.K.L.L.L.c.` D   I.I.I.I.I.I.I.I.I.I.I.I.I.I.I.I.I.I.I.I.I.I.I.I.I.I.I.I.I.I.I.I.I.",
"I.I.I.I.I.I.I.I.I.I.I.I.I.I.I.I.I.I.I.I.I.I.I.I.  K.K.K.K.K.K.K.K.L.p._ :           I.I.I.I.I.I.I.I.I.I.I.I.I.I.I.I.I.I.I.I.I.I.I.I.I.I.I.I.",
"I.I.I.I.I.I.I.I.I.I.I.I.I.I.I.I.I.I.I.I.I.I.I.I.  K.K.K.K.K.K.K.K.K.L.@.Q   S ` ` D   I.I.I.I.I.I.I.I.I.I.I.I.I.I.I.I.I.I.I.I.I.I.I.I.I.I.I.",
"I.I.I.I.I.I.I.I.I.I.I.I.I.I.I.I.I.I.I.I.I.I.I.I.X K.K.J.K.K.K.K.K.K.K.L.@.W   / ` Q . I.I.I.I.I.I.I.I.I.I.I.I.I.I.I.I.I.I.I.I.I.I.I.I.I.I.I.",
"I.I.I.I.I.I.I.I.I.I.I.I.I.I.I.I.I.I.I.I.I.I.I.I.m J.J.J.K.J.J.K.K.K.K.K.L.G._     R A   I.I.I.I.I.I.I.I.I.I.I.I.I.I.I.I.I.I.I.I.I.I.I.I.I.I.",
"I.I.I.I.I.I.I.I.I.I.I.I.I.I.I.I.I.I.I.I.I.I.I.  g.H.J.J.J.J.J.K.K.J.J.K.J.K.L.` R     I.I.I.I.I.I.I.I.I.I.I.I.I.I.I.I.I.I.I.I.I.I.I.I.I.I.I.",
"I.I.I.I.I.I.I.I.I.I.I.I.I.I.I.I.I.I.I.I.I.I.I.    7.M.H.J.J.J.J.K.J.J.J.J.K.K.L...` R     I.I.I.I.I.I.I.I.I.I.I.I.I.I.I.I.I.I.I.I.I.I.I.I.I.",
"I.I.I.I.I.I.I.I.I.I.I.I.I.I.I.I.I.I.I.I.I.I.I.O U +   3 M.H.J.H.J.J.J.J.J.J.J.J.J.L.' ` R     I.I.I.I.I.I.I.I.I.I.I.I.I.I.I.I.I.I.I.I.I.I.I.",
"I.I.I.I.I.I.I.I.I.I.I.I.I.I.I.I.I.I.I.I.I.I.  ; H K Y e     M.N.H.J.H.J.J.J.J.J.J.J.K.' ` ` R     I.I.I.I.I.I.I.I.I.I.I.I.I.I.I.I.I.I.I.I.I.",
"I.I.I.I.I.I.I.I.I.I.I.I.I.I.I.I.I.I.I.I.I.  8 .   q L L Y U     B M.H.J.H.H.J.J.H.J.J.J.^ ` ` ^ O   I.I.I.I.I.I.I.I.I.I.I.I.I.I.I.I.I.I.I.I.",
"I.I.I.I.I.I.I.I.I.I.I.I.I.I.I.I.I.I.I.I.  R ~ ` ` t   . L L Y Y ;   X M.M.H.H.H.J.J.J.J.R R ^ ` ` 8   I.I.I.I.I.I.I.I.I.I.I.I.I.I.I.I.I.I.I.",
"I.I.I.I.I.I.I.I.I.I.I.I.I.I.I.I.I.I.I.  R ` ` ` ` ` ` (     K L L Y J     M.M.M.M.N.H.h.R R R R L L   I.I.I.I.I.I.I.I.I.I.I.I.I.I.I.I.I.I.I.",
"I.I.I.I.I.I.I.I.I.I.I.I.I.I.I.I.I.I.  R ! ` ` ` ` ` ` ` ` ` .   + L L Y U     u M.M.M.L L L L L L L 0 I.I.I.I.I.I.I.I.I.I.I.I.I.I.I.I.I.I.I.",
"I.I.I.I.I.I.I.I.I.I.I.I.I.I.I.I.I.  R R ` ` ` ` ` ` ` ` ` ` ` ` G     L L I Y q     d.L L L L L L L   I.I.I.I.I.I.I.I.I.I.I.I.I.I.I.I.I.I.I.",
"I.I.I.I.I.I.I.I.I.I.I.I.I.I.I.I.I.  R R ^ ` ` ` ` ) ` ` ` ` ) R R R R     e P H Y K     r L L L L L   I.I.I.I.I.I.I.I.I.I.I.I.I.I.I.I.I.I.I.",
"I.I.I.I.I.I.I.I.I.I.I.I.I.I.I.I.I.  R R R R R E Q Q R R R R R R R R R R R :   . H H U U +   L L r   I.I.I.I.I.I.I.I.I.I.I.I.I.I.I.I.I.I.I.I.",
"I.I.I.I.I.I.I.I.I.I.I.I.I.I.I.I.I.  L R R R R R R R R R R R R R R R R R R F L       r H K U       I.I.I.I.I.I.I.I.I.I.I.I.I.I.I.I.I.I.I.I.I.",
"I.I.I.I.I.I.I.I.I.I.I.I.I.I.I.I.I.I.  Z F R R R R R R R R R R R R R I L K     #.o.o.o   > +   I.I.I.I.I.I.I.I.I.I.I.I.I.I.I.I.I.I.I.I.I.I.I.",
"I.I.I.I.I.I.I.I.I.I.I.I.I.I.I.I.I.I.I.    + L L P L P P L L L L K -     @ . o.o.o.o.o.o.a   I.I.I.I.I.I.I.I.I.I.I.I.I.I.I.I.I.I.I.I.I.I.I.I.",
"I.I.I.I.I.I.I.I.I.I.I.I.I.I.I.I.I.I.I.I.I.I.                    o    .o.o.  o.o.o.o.o.o.. I.I.I.I.I.I.I.I.I.I.I.I.I.I.I.I.I.I.I.I.I.I.I.I.I.",
"I.I.I.I.I.I.I.I.I.I.I.I.I.I.I.I.I.I.I.I.I.I.I.9.6.        F.5.  X.C.7         o.o.        I.I.I.I.I.I.I.I.I.I.I.I.I.I.I.I.I.I.I.I.I.I.I.I.I.",
"I.I.I.I.I.I.I.I.I.I.I.I.I.I.I.I.I.I.I.I.I.I.I.3 m.o F.F.1.F.F.F.N   3.L.  C.C. .X.5 F.L.  I.I.I.I.I.I.I.I.I.I.I.I.I.I.I.I.I.I.I.I.I.I.I.I.I.",
"I.I.I.I.I.I.I.I.I.I.I.I.I.I.I.I.I.I.I.I.I.I.  o * * x.F.F.F.F.F.F.  * *     F.6 @ l.l.F.P.  I.I.I.I.I.I.I.I.I.I.I.I.I.I.I.I.I.I.I.I.I.I.I.I.",
"I.I.I.I.I.I.I.I.I.I.I.I.I.I.I.I.I.I.I.I.I.I.9., * * F.F.Z.e.Z.F.F.  * *   D.F.F.D.l.l.l.F.  I.I.I.I.I.I.I.I.I.I.I.I.I.I.I.I.I.I.I.I.I.I.I.I.",
"I.I.I.I.I.I.I.I.I.I.I.I.I.I.I.I.I.I.I.I.I.  M q.* X z.w.L.w.w.w.F.n = *   } F.F.l.l.l.l.F.  I.I.I.I.I.I.I.I.I.I.I.I.I.I.I.I.I.I.I.I.I.I.I.I.",
"I.I.I.I.I.I.I.I.I.I.I.I.I.I.I.I.I.I.I.I.I.I.  L.    . w.w.w.w.w.  F.      F.F.F.l.l.l.F.F.  I.I.I.I.I.I.I.I.I.I.I.I.I.I.I.I.I.I.I.I.I.I.I.I.",
"I.I.I.I.I.I.I.I.I.I.I.I.I.I.I.I.I.I.I.I.I.I.  w.a.z.  w.w.w.w.w.5 F.F.C.w.j.A.l.l.b.F.z.  I.I.I.I.I.I.I.I.I.I.I.I.I.I.I.I.I.I.I.I.I.I.I.I.I.",
"I.I.I.I.I.I.I.I.I.I.I.I.I.I.I.I.I.I.I.I.I.I.I.# r.s.l.i.4   u l.F.F.F.n.w.w.a.s.    I.I.I.I.I.I.I.I.I.I.I.I.I.I.I.I.I.I.I.I.I.I.I.I.I.I.I.I.",
"I.I.I.I.I.I.I.I.I.I.I.I.I.I.I.I.I.I.I.I.I.I.I.I.I.      | l.l.l.l.l.k.p         I.I.I.I.I.I.I.I.I.I.I.I.I.I.I.I.I.I.I.I.I.I.I.I.I.I.I.I.I.I.",
"I.I.I.I.I.I.I.I.I.I.I.I.I.I.I.I.I.I.I.I.I.I.I.I.I.I.I.I.            < c -.  o 4.L.M   I.I.I.I.I.I.I.I.I.I.I.I.I.I.I.I.I.I.I.I.I.I.I.I.I.I.I.",
"I.I.I.I.I.I.I.I.I.I.I.I.I.I.I.I.I.I.I.I.I.I.I.I.I.I.I.  m.& . L.L.  -.-.< L.3 L.L.L.2.I.I.I.I.I.I.I.I.I.I.I.I.I.I.I.I.I.I.I.I.I.I.I.I.I.I.I.",
"I.I.I.I.I.I.I.I.I.I.I.I.I.I.I.I.I.I.I.I.I.I.I.I.I.I.  m.0.=.2 < 2 x -.-.o L.B.H.L.L.L.b I.I.I.I.I.I.I.I.I.I.I.I.I.I.I.I.I.I.I.I.I.I.I.I.I.I.",
"I.I.I.I.I.I.I.I.I.I.I.I.I.I.I.I.I.I.I.I.I.I.I.I.I.I.  m.o j h h f f f f o L.  H.H.L.L.    I.I.I.I.I.I.I.I.I.I.I.I.I.I.I.I.I.I.I.I.I.I.I.I.I.",
"I.I.I.I.I.I.I.I.I.I.I.I.I.I.I.I.I.I.I.I.I.I.I.I.I.  f.    ,.<.<.,.,.>.  z N.J.* H.H.  F.  I.I.I.I.I.I.I.I.I.I.I.I.I.I.I.I.I.I.I.I.I.I.I.I.I.",
"I.I.I.I.I.I.I.I.I.I.I.I.I.I.I.I.I.I.I.I.I.I.I.I.  y.f.f.  :.:.:.:.:.-.  -.%.  0.b   S.F.F.  I.I.I.I.I.I.I.I.I.I.I.I.I.I.I.I.I.I.I.I.I.I.I.I.",
"I.I.I.I.I.I.I.I.I.I.I.I.I.I.I.I.I.I.I.I.I.I.I.I.o f.f.{ 2 >.>.>.>.>.:.  -.-.-.c     l.F.F.6 I.I.I.I.I.I.I.I.I.I.I.I.I.I.I.I.I.I.I.I.I.I.I.I.",
"I.I.I.I.I.I.I.I.I.I.I.I.I.I.I.I.I.I.I.I.I.I.I.  f.f.u.i f >.>.>.>.>.:.  -.-.-.$.    l.D.F.F.  I.I.I.I.I.I.I.I.I.I.I.I.I.I.I.I.I.I.I.I.I.I.I.",
"I.I.I.I.I.I.I.I.I.I.I.I.I.I.I.I.I.I.I.I.I.I.I.  f.f.+., x ,.>.>.>.>.-.% -.-.$.$.  I.u b.F.F.  I.I.I.I.I.I.I.I.I.I.I.I.I.I.I.I.I.I.I.I.I.I.I.",
"I.I.I.I.I.I.I.I.I.I.I.I.I.I.I.I.I.I.I.I.I.I.I.= m.f.u.$ g             -.-.*.$.$.    s.F.F.L.X I.I.I.I.I.I.I.I.I.I.I.I.I.I.I.I.I.I.I.I.I.I.I.",
"I.I.I.I.I.I.I.I.I.I.I.I.I.I.I.I.I.I.I.I.I.I.I.4 f.f.y.O.  $.$.%.&.&.%.$.=.-.=.&     l.F.F.F.  I.I.I.I.I.I.I.I.I.I.I.I.I.I.I.I.I.I.I.I.I.I.I.",
"I.I.I.I.I.I.I.I.I.I.I.I.I.I.I.I.I.I.I.I.I.I.I.  t.u.O.$ &   $.$.$.$.$.g >.-.-.$.I.  , l.v.l.  I.I.I.I.I.I.I.I.I.I.I.I.I.I.I.I.I.I.I.I.I.I.I.",
"I.I.I.I.I.I.I.I.I.I.I.I.I.I.I.I.I.I.I.I.I.I.I.I.  y ]   j j           v ;.-.-.$.  I.        I.I.I.I.I.I.I.I.I.I.I.I.I.I.I.I.I.I.I.I.I.I.I.I.",
"I.I.I.I.I.I.I.I.I.I.I.I.I.I.I.I.I.I.I.I.I.I.I.I.I.I.I.1 j j j d s I.I.-.-.-.-.$.  I.I.I.I.I.I.I.I.I.I.I.I.I.I.I.I.I.I.I.I.I.I.I.I.I.I.I.I.I.",
"I.I.I.I.I.I.I.I.I.I.I.I.I.I.I.I.I.I.I.I.I.I.I.I.I.I.    o s d d   I.I.z l x v $.  I.I.I.I.I.I.I.I.I.I.I.I.I.I.I.I.I.I.I.I.I.I.I.I.I.I.I.I.I.",
"I.I.I.I.I.I.I.I.I.I.I.I.I.I.I.I.I.I.I.I.I.I.I.I.I.I.  8.m.7.      I.I.  H.H.H.N.  I.I.I.I.I.I.I.I.I.I.I.I.I.I.I.I.I.I.I.I.I.I.I.I.I.I.I.I.I.",
"I.I.I.I.I.I.I.I.I.I.I.I.I.I.I.I.I.I.I.I.I.I.I.                            .       I.I.I.I.I.I.I.I.I.I.I.I.I.I.I.I.I.I.I.I.I.I.I.I.I.I.I.I.I.",
"I.I.I.I.I.I.I.I.I.I.I.I.I.I.I.I.I.I.I.I.I.I.  7.m.m.8.8.  0 S   H.L.L.H.H.  T R y   I.I.I.I.I.I.I.I.I.I.I.I.I.I.I.I.I.I.I.I.I.I.I.I.I.I.I.I.",
"I.I.I.I.I.I.I.I.I.I.I.I.I.I.I.I.I.I.I.I.I.  3.8.0.8.8.8.7.    H.J.L.H.H.H.M.  R H.  I.I.I.I.I.I.I.I.I.I.I.I.I.I.I.I.I.I.I.I.I.I.I.I.I.I.I.I.",
"I.I.I.I.I.I.I.I.I.I.I.I.I.I.I.I.I.I.I.I.I.  8.8.8.8.8.8.3.3.  H.H.H.H.H.H.M.B 8 C   I.I.I.I.I.I.I.I.I.I.I.I.I.I.I.I.I.I.I.I.I.I.I.I.I.I.I.I.",
"I.I.I.I.I.I.I.I.I.I.I.I.I.I.I.I.I.I.I.I.I.                                            I.I.I.I.I.I.I.I.I.I.I.I.I.I.I.I.I.I.I.I.I.I.I.I.I.I.I.",
"I.I.I.I.I.I.I.I.I.I.I.I.I.I.I.I.I.I.I.I.I.b 8.m.8.8.8.8.8.3 m.H.L.H.H.H.H.H.H.H.M.b   I.I.I.I.I.I.I.I.I.I.I.I.I.I.I.I.I.I.I.I.I.I.I.I.I.I.I.",
"I.I.I.I.I.I.I.I.I.I.I.I.I.I.I.I.I.I.I.I.                                              I.I.I.I.I.I.I.I.I.I.I.I.I.I.I.I.I.I.I.I.I.I.I.I.I.I.I.",
"I.I.I.I.I.I.I.I.I.I.I.I.I.I.I.I.I.I.I.I.I.I.I.I.I.I.I.I.I.I.I.I.I.I.I.I.I.I.I.I.I.I.I.I.I.I.I.I.I.I.I.I.I.I.I.I.I.I.I.I.I.I.I.I.I.I.I.I.I.I.",
"I.I.I.I.I.I.I.I.I.I.I.I.I.I.I.I.I.I.I.I.I.I.I.I.I.I.I.I.I.I.I.I.I.I.I.I.I.I.I.I.I.I.I.I.I.I.I.I.I.I.I.I.I.I.I.I.I.I.I.I.I.I.I.I.I.I.I.I.I.I.",
"I.I.I.I.I.I.I.I.I.I.I.I.I.I.I.I.I.I.I.I.I.I.I.I.I.I.I.I.I.I.I.I.I.I.I.I.I.I.I.I.I.I.I.I.I.I.I.I.I.I.I.I.I.I.I.I.I.I.I.I.I.I.I.I.I.I.I.I.I.I.",
"I.I.I.I.I.I.I.I.I.I.I.I.I.I.I.I.I.I.I.I.I.I.I.I.I.I.I.I.I.I.I.I.I.I.I.I.I.I.I.I.I.I.I.I.I.I.I.I.I.I.I.I.I.I.I.I.I.I.I.I.I.I.I.I.I.I.I.I.I.I.",
"I.I.I.I.I.I.I.I.I.I.I.I.I.I.I.I.I.I.I.I.I.I.I.I.I.I.I.I.I.I.I.I.I.I.I.I.I.I.I.I.I.I.I.I.I.I.I.I.I.I.I.I.I.I.I.I.I.I.I.I.I.I.I.I.I.I.I.I.I.I.",
"I.I.I.I.I.I.I.I.I.I.I.I.I.I.I.I.I.I.I.I.I.I.I.I.I.I.I.I.I.I.I.I.I.I.I.I.I.I.I.I.I.I.I.I.I.I.I.I.I.I.I.I.I.I.I.I.I.I.I.I.I.I.I.I.I.I.I.I.I.I.",
"I.I.I.I.I.I.I.I.I.I.I.I.I.I.I.I.I.I.I.I.I.I.I.I.I.I.I.I.I.I.I.I.I.I.I.I.I.I.I.I.I.I.I.I.I.I.I.I.I.I.I.I.I.I.I.I.I.I.I.I.I.I.I.I.I.I.I.I.I.I.",
"I.I.I.I.I.I.I.I.I.I.I.I.I.I.I.I.I.I.I.I.I.I.I.I.I.I.I.I.I.I.I.I.I.I.I.I.I.I.I.I.I.I.I.I.I.I.I.I.I.I.I.I.I.I.I.I.I.I.I.I.I.I.I.I.I.I.I.I.I.I."
};
