/* XPM */
static char *result[] = {
/* columns rows colors chars-per-pixel */
"70 70 167 2 ",
"   c #000000",
".  c #0B0303",
"X  c #03060A",
"o  c #04080C",
"O  c #090909",
"+  c #080807",
"@  c #120303",
"#  c #1A0604",
"$  c #1A150D",
"%  c #070E15",
"&  c #0A141F",
"*  c #1A1612",
"=  c #1A1A1A",
"-  c gray7",
";  c #390709",
":  c #291E0E",
">  c #391300",
",  c #201B16",
"<  c #26211C",
"1  c #3E3016",
"2  c #0F1E2D",
"3  c #081521",
"4  c #07213A",
"5  c #13263A",
"6  c #2C2C2C",
"7  c #34302C",
"8  c #3B3835",
"9  c #5D0000",
"0  c #540F15",
"q  c #5A1116",
"w  c #6D0000",
"e  c #790000",
"r  c #6F0C10",
"t  c #6B141A",
"y  c #77161D",
"u  c #4B3E32",
"i  c #5F4620",
"p  c #48433D",
"a  c #594735",
"s  c #7E5E2C",
"d  c #162B42",
"f  c #1A354F",
"g  c #0B3055",
"h  c #1F3E5D",
"j  c #092A4A",
"k  c #0E3760",
"l  c #113E6B",
"z  c #224567",
"x  c #274E75",
"c  c #284E75",
"v  c #29527B",
"b  c #5E4646",
"n  c #565656",
"m  c #464646",
"M  c #7B4644",
"N  c #775F47",
"B  c #796048",
"V  c gray42",
"C  c #696665",
"Z  c #7D7D7D",
"A  c #8B0000",
"S  c #841219",
"D  c #A30000",
"F  c #B40000",
"G  c #BF0B0F",
"H  c #BD0000",
"J  c #BB0D12",
"K  c #AD151C",
"L  c #B21219",
"P  c #831920",
"I  c #8C1922",
"U  c #931B23",
"Y  c #9D1D27",
"T  c #A11D26",
"R  c #A61F28",
"E  c #AE2029",
"W  c #B3222B",
"Q  c #CB0304",
"!  c #C90608",
"~  c #C60000",
"^  c #D50000",
"/  c #DA0A00",
"(  c #E01700",
")  c #E21A00",
"_  c #EB2D00",
"`  c #E72300",
"'  c #EF3500",
"]  c #F23A00",
"[  c #A07839",
"{  c #FA4B00",
"}  c #F64200",
"|  c #F55100",
" . c #FE5400",
".. c #FE5907",
"X. c #FE5D0E",
"o. c #FE5F10",
"O. c #84684C",
"+. c #847C76",
"@. c #D97D79",
"#. c #A18444",
"$. c #BF9044",
"%. c #9A8B7E",
"&. c #B58B62",
"*. c #FE8245",
"=. c #E6A94F",
"-. c #EDAE51",
";. c #C5996C",
":. c #C8817A",
">. c #C59D77",
",. c #2C5680",
"<. c #2D5984",
"1. c #2E5D8B",
"2. c #305F8F",
"3. c #316294",
"4. c #336699",
"5. c #34699D",
"6. c #366CA1",
"7. c #3B75AF",
"8. c #3F78B0",
"9. c #437FBA",
"0. c #9C8E81",
"q. c #9D9083",
"w. c #989898",
"e. c #898989",
"r. c #B39A93",
"t. c #AFA092",
"y. c #B7A999",
"u. c #AFAFAF",
"i. c #A2A2A2",
"p. c gray71",
"a. c #BCBCBC",
"s. c #B8B6B5",
"d. c #FF938E",
"f. c #FF9C98",
"g. c #C5AD96",
"h. c #C0AE9C",
"j. c #C5A586",
"k. c #FDA596",
"l. c #C1AEAF",
"z. c #C5B2A0",
"x. c #FEACA2",
"c. c #FFCC99",
"v. c #DDCBB9",
"b. c #FFCFA0",
"n. c #FFC7AB",
"m. c #FFD0A2",
"M. c #FFDCB9",
"N. c #C4C4C4",
"B. c #CCCCCC",
"V. c #DECCCC",
"C. c #D5D5D5",
"Z. c #DFDFDF",
"A. c #E6D4C0",
"S. c #FFDECB",
"D. c #E7D1D1",
"F. c #FFDAD8",
"G. c #FBE6D1",
"H. c #FFEAD5",
"J. c #FFEDDA",
"K. c #E6E6E6",
"L. c #ECECEC",
"P. c #FFF6EC",
"I. c #FFF0E0",
"U. c #F3F3F3",
"Y. c #FFFFFF",
"T. c #FEF7F3",
"R. c None",
/* pixels */
"R.R.R.R.R.R.R.R.R.R.R.R.R.R.R.R.R.R.R.R.R.R.R.R.R.R.R.R.R.R.R.R.R.R.R.R.R.R.R.R.R.R.R.R.R.R.R.R.R.R.R.R.R.R.R.R.R.R.R.R.R.R.R.R.R.R.R.R.R.R.",
"R.R.R.R.R.R.R.R.R.R.R.R.R.R.R.R.R.R.R.R.R.R.R.R.R.R.R.R.R.R.R.R.R.R.R.R.R.R.R.R.R.R.R.R.R.R.R.R.R.R.R.R.R.R.R.R.R.R.R.R.R.R.R.R.R.R.R.R.R.R.",
"R.R.R.R.R.R.R.R.R.R.R.R.R.R.R.R.R.R.R.R.R.R.R.R.R.R.R.R.R.R.R.R.R.R.R.R.R.R.R.R.R.R.R.R.R.R.R.R.R.R.R.R.R.R.R.R.R.R.R.R.R.R.R.R.R.R.R.R.R.R.",
"R.R.R.R.R.R.R.R.R.R.R.R.R.R.R.R.R.R.R.R.R.R.R.R.R.R.R.R.R.R.R.R.R.R.R.R.R.R.R.R.R.R.R.R.R.R.R.R.R.R.R.R.R.R.R.R.R.R.R.R.R.R.R.R.R.R.R.R.R.R.",
"R.R.R.R.R.R.R.R.R.R.R.R.R.R.R.R.R.R.R.R.R.R.R.R.R.R.R.R.R.R.R.R.R.R.R.R.R.R.R.R.R.R.R.R.R.R.R.R.R.R.R.R.R.R.R.R.R.R.R.R.R.R.R.R.R.R.R.R.R.R.",
"R.R.R.R.R.R.R.R.R.R.R.R.R.R.R.R.R.R.R.R.R.R.R.R.R.R.R.R.R.R.R.R.R.R.R.R.R.R.R.R.R.R.R.R.R.R.R.R.R.R.R.R.R.R.R.R.R.R.R.R.R.R.R.R.R.R.R.R.R.R.",
"R.R.R.R.R.R.R.R.R.R.R.R.R.R.R.R.R.R.R.R.R.R.R.R.R.R.    .     R.R.R.R.R.R.R.R.R.R.R.R.R.R.R.R.R.R.R.R.R.R.R.R.R.R.R.R.R.R.R.R.R.R.R.R.R.R.R.",
"R.R.R.R.R.R.R.R.R.R.R.R.R.R.R.R.R.R.R.R.R.R.R.R.R.  ^ {  ._ ^ .   R.R.R.R.R.R.R.R.R.R.R.R.R.R.R.R.R.R.R.R.R.R.R.R.R.R.R.R.R.R.R.R.R.R.R.R.R.",
"R.R.R.R.R.R.R.R.R.R.R.R.R.R.R.R.R.R.R.R.R.R.R.R.  ~ Y.Y.Y.n. .` D   R.R.R.R.R.R.R.R.R.R.R.R.R.R.R.R.R.R.R.R.R.R.R.R.R.R.R.R.R.R.R.R.R.R.R.R.",
"R.R.R.R.R.R.R.R.R.R.R.R.R.R.R.R.R.R.R.R.R.R.R.R.  Y.U.Y.Y.Y.Y.| { F   R.R.R.R.R.R.R.R.R.R.R.R.R.R.R.R.R.R.R.R.R.R.R.R.R.R.R.R.R.R.R.R.R.R.R.",
"R.R.R.R.R.R.R.R.R.R.R.R.R.R.R.R.R.R.R.R.R.R.R.  V.U.U.U.U.Y.Y.Y.o.{ 9   R.R.R.R.R.R.R.R.R.R.R.R.R.R.R.R.R.R.R.R.R.R.R.R.R.R.R.R.R.R.R.R.R.R.",
"R.R.R.R.R.R.R.R.R.R.R.R.R.R.R.R.R.R.R.R.R.R.R.  U.U.Y.U.U.U.U.Y.Y.X.)   R.        R.R.R.R.R.R.R.R.R.R.R.R.R.R.R.R.R.R.R.R.R.R.R.R.R.R.R.R.R.",
"R.R.R.R.R.R.R.R.R.R.R.R.R.R.R.R.R.R.R.R.R.R.R.  U.U.U.U.U.U.U.U.U.Y...^   ^  . .e   R.R.R.R.R.R.R.R.R.R.R.R.R.R.R.R.R.R.R.R.R.R.R.R.R.R.R.R.",
"R.R.R.R.R.R.R.R.R.R.R.R.R.R.R.R.R.R.R.R.R.R.R.  L.U.L.U.U.U.U.U.U.U.Y.X.^   |  .)   R.R.R.R.R.R.R.R.R.R.R.R.R.R.R.R.R.R.R.R.R.R.R.R.R.R.R.R.",
"R.R.R.R.R.R.R.R.R.R.R.R.R.R.R.R.R.R.R.R.R.R.R.b U.L.L.U.U.L.L.U.U.U.U.Y.*.)     ^ S   R.R.R.R.R.R.R.R.R.R.R.R.R.R.R.R.R.R.R.R.R.R.R.R.R.R.R.",
"R.R.R.R.R.R.R.R.R.R.R.R.R.R.R.R.R.R.R.R.R.R.  l.L.L.L.L.L.U.L.U.L.U.L.U.U.T. .H     R.R.R.R.R.R.R.R.R.R.R.R.R.R.R.R.R.R.R.R.R.R.R.R.R.R.R.R.",
"R.R.R.R.R.R.R.R.R.R.R.R.R.R.R.R.R.R.R.R.R.R.  m B.C.L.L.L.L.L.L.L.L.L.L.U.L.Y.X.{ ~     R.R.R.R.R.R.R.R.R.R.R.R.R.R.R.R.R.R.R.R.R.R.R.R.R.R.",
"R.R.R.R.R.R.R.R.R.R.R.R.R.R.R.R.R.R.R.R.R.R.  t     a.C.L.L.L.L.L.L.L.L.L.U.L.L.Y. . .^     R.R.R.R.R.R.R.R.R.R.R.R.R.R.R.R.R.R.R.R.R.R.R.R.",
"R.R.R.R.R.R.R.R.R.R.R.R.R.R.R.R.R.R.R.R.R.  t P W E .   8 B.L.K.L.L.L.L.L.L.L.L.L.T... .{ F     R.R.R.R.R.R.R.R.R.R.R.R.R.R.R.R.R.R.R.R.R.R.",
"R.R.R.R.R.R.R.R.R.R.R.R.R.R.R.R.R.R.R.R.        U U E W q     B.B.L.L.K.L.L.L.L.L.L.L.{  . ._ .   R.R.R.R.R.R.R.R.R.R.R.R.R.R.R.R.R.R.R.R.R.",
"R.R.R.R.R.R.R.R.R.R.R.R.R.R.R.R.R.R.R.  w ^  .|     q Y Y W E     C B.B.K.L.K.L.L.L.L.Q ^ }  . .;   R.R.R.R.R.R.R.R.R.R.R.R.R.R.R.R.R.R.R.R.",
"R.R.R.R.R.R.R.R.R.R.R.R.R.R.R.R.R.R.  ^ /  . . . . .>     Y U W W ;     B.B.B.C.L.K.D.^ ^ / ^ Y Y   R.R.R.R.R.R.R.R.R.R.R.R.R.R.R.R.R.R.R.R.",
"R.R.R.R.R.R.R.R.R.R.R.R.R.R.R.R.R.  ^ ^  . . . . . . . .|     I Y Y W Y     w.B.B.B.Y Y Y Y Y Y Y r R.R.R.R.R.R.R.R.R.R.R.R.R.R.R.R.R.R.R.R.",
"R.R.R.R.R.R.R.R.R.R.R.R.R.R.R.R.  ~ ^  . . . . . . . . . . . .#   @ Y Y W W #   - B.Y Y Y Y Y Y Y @ R.R.R.R.R.R.R.R.R.R.R.R.R.R.R.R.R.R.R.R.",
"R.R.R.R.R.R.R.R.R.R.R.R.R.R.R.R.  ^ ^  . . . . . . . . . . .' ^ ^ D     U Y I W y     S Y Y Y Y Y   R.R.R.R.R.R.R.R.R.R.R.R.R.R.R.R.R.R.R.R.",
"R.R.R.R.R.R.R.R.R.R.R.R.R.R.R.R.  ^ ^ ^ ^ ` { { { ] / ^ ^ ^ ^ ^ ^ ^ ^ ^ .   ; P P W E +   U Y U   R.R.R.R.R.R.R.R.R.R.R.R.R.R.R.R.R.R.R.R.R.",
"R.R.R.R.R.R.R.R.R.R.R.R.R.R.R.R.  J ^ ^ ^ ^ ^ ^ ^ ^ ^ ^ ^ ^ ^ ^ ^ ^ ^ ^ ! Y       S S U E       R.R.R.R.R.R.R.R.R.R.R.R.R.R.R.R.R.R.R.R.R.R.",
"R.R.R.R.R.R.R.R.R.R.R.R.R.R.R.R.R.  Y ^ ^ ^ ^ ^ ^ ^ ^ ^ ^ ^ ^ ^ ^ ! Y Y @   #.-.-.    0 0   R.R.R.R.R.R.R.R.R.R.R.R.R.R.R.R.R.R.R.R.R.R.R.R.",
"R.R.R.R.R.R.R.R.R.R.R.R.R.R.R.R.R.R.    Y Y T L ! ! ! G K T Y Y I @       -.-.-.-.-.-.i   R.R.R.R.R.R.R.R.R.R.R.R.R.R.R.R.R.R.R.R.R.R.R.R.R.",
"R.R.R.R.R.R.R.R.R.R.R.R.R.R.R.R.R.R.R.R.                          =.-.-.  -.-.-.-.-.-.< R.R.R.R.R.R.R.R.R.R.R.R.R.R.R.R.R.R.R.R.R.R.R.R.R.R.",
"R.R.R.R.R.R.R.R.R.R.R.R.R.R.R.R.R.R.R.R.R.R.+.H.    $.  H.< $ -.z.y.        -.-.1       R.R.R.R.R.R.R.R.R.R.R.R.R.R.R.R.R.R.R.R.R.R.R.R.R.R.",
"R.R.R.R.R.R.R.R.R.R.R.R.R.R.R.R.R.R.R.R.R.R.X Z V J.A.O H.H.H.O   Z Y.  q.v.[ -.  J.Y.  R.R.R.R.R.R.R.R.R.R.R.R.R.R.R.R.R.R.R.R.R.R.R.R.R.R.",
"R.R.R.R.R.R.R.R.R.R.R.R.R.R.R.R.R.R.R.R.R.    = = +.H.H.H.H.H.H.p = = X . H.8 s m.c.J.P.  R.R.R.R.R.R.R.R.R.R.R.R.R.R.R.R.R.R.R.R.R.R.R.R.R.",
"R.R.R.R.R.R.R.R.R.R.R.R.R.R.R.R.R.R.R.R.R.    = = H.H.H.S.H.H.H.  = = O H.H.H.G.c.c.c.H.  R.R.R.R.R.R.R.R.R.R.R.R.R.R.R.R.R.R.R.R.R.R.R.R.R.",
"R.R.R.R.R.R.R.R.R.R.R.R.R.R.R.R.R.R.R.R.R.V O = = p :.Y.f.d.d.H.t.= =     H.H.M.c.c.c.H.X R.R.R.R.R.R.R.R.R.R.R.R.R.R.R.R.R.R.R.R.R.R.R.R.R.",
"R.R.R.R.R.R.R.R.R.R.R.R.R.R.R.R.R.R.R.R.R.. s.      d.d.d.d.d.  H.      H.H.H.c.c.c.M.H.  R.R.R.R.R.R.R.R.R.R.R.R.R.R.R.R.R.R.R.R.R.R.R.R.R.",
"R.R.R.R.R.R.R.R.R.R.R.R.R.R.R.R.R.R.R.R.R.  @.k.X   d.d.d.d.d.  H.H.0.x.d.F.c.c.b.H.H.  R.R.R.R.R.R.R.R.R.R.R.R.R.R.R.R.R.R.R.R.R.R.R.R.R.R.",
"R.R.R.R.R.R.R.R.R.R.R.R.R.R.R.R.R.R.R.R.R.R.M d.k.c.a       B H.H.H.H.d.d.d.c.<   R.R.R.R.R.R.R.R.R.R.R.R.R.R.R.R.R.R.R.R.R.R.R.R.R.R.R.R.R.",
"R.R.R.R.R.R.R.R.R.R.R.R.R.R.R.R.R.R.R.R.R.R.R.R.    * c.c.c.c.c.c.c.c.u       R.R.R.R.R.R.R.R.R.R.R.R.R.R.R.R.R.R.R.R.R.R.R.R.R.R.R.R.R.R.R.",
"R.R.R.R.R.R.R.R.R.R.R.R.R.R.R.R.R.R.R.R.R.R.R.R.R.R.R.              & <.X 6   Y.6   R.R.R.R.R.R.R.R.R.R.R.R.R.R.R.R.R.R.R.R.R.R.R.R.R.R.R.R.",
"R.R.R.R.R.R.R.R.R.R.R.R.R.R.R.R.R.R.R.R.R.R.R.R.R.R.  N.  c Y.Y.O 4.4.<.Y.  U.Y.Y.C.  R.R.R.R.R.R.R.R.R.R.R.R.R.R.R.R.R.R.R.R.R.R.R.R.R.R.R.",
"R.R.R.R.R.R.R.R.R.R.R.R.R.R.R.R.R.R.R.R.R.R.R.R.R.  N.N.z z X X % 5.4.  Y.n K.Y.Y.Y.s.  R.R.R.R.R.R.R.R.R.R.R.R.R.R.R.R.R.R.R.R.R.R.R.R.R.R.",
"R.R.R.R.R.R.R.R.R.R.R.R.R.R.R.R.R.R.R.R.R.R.R.R.R.  N.V 1.1.1.1.1.1.1.  Y.  K.K.Y.Y.    R.R.R.R.R.R.R.R.R.R.R.R.R.R.R.R.R.R.R.R.R.R.R.R.R.R.",
"R.R.R.R.R.R.R.R.R.R.R.R.R.R.R.R.R.R.R.R.R.R.R.R.  z.    8.9.9.9.9.9.  v C.Y.O K.K.  H.7   R.R.R.R.R.R.R.R.R.R.R.R.R.R.R.R.R.R.R.R.R.R.R.R.R.",
"R.R.R.R.R.R.R.R.R.R.R.R.R.R.R.R.R.R.R.R.R.R.R.  y.z.z.. 3.v v v v v   4.,.+ K.    m.H.H.  R.R.R.R.R.R.R.R.R.R.R.R.R.R.R.R.R.R.R.R.R.R.R.R.R.",
"R.R.R.R.R.R.R.R.R.R.R.R.R.R.R.R.R.R.R.R.R.R.R.O z.z.;.X 7.7.7.7.7.7.  4.4.4.c     c.H.H.G.  R.R.R.R.R.R.R.R.R.R.R.R.R.R.R.R.R.R.R.R.R.R.R.R.",
"R.R.R.R.R.R.R.R.R.R.R.R.R.R.R.R.R.R.R.R.R.R.  z.z.g.&.2 7.7.7.7.7.7.  4.4.4.,.h   , c.H.H.  R.R.R.R.R.R.R.R.R.R.R.R.R.R.R.R.R.R.R.R.R.R.R.R.",
"R.R.R.R.R.R.R.R.R.R.R.R.R.R.R.R.R.R.R.R.R.R.  z.z.;.$ 5 7.7.7.7.7.5.  4.4.3.,.h     c.H.H.y.R.R.R.R.R.R.R.R.R.R.R.R.R.R.R.R.R.R.R.R.R.R.R.R.",
"R.R.R.R.R.R.R.R.R.R.R.R.R.R.R.R.R.R.R.R.R.R.%.N.z.>.  o   o o X o   4.4.4.,.,.% R.  c.H.I.P.  R.R.R.R.R.R.R.R.R.R.R.R.R.R.R.R.R.R.R.R.R.R.R.",
"R.R.R.R.R.R.R.R.R.R.R.R.R.R.R.R.R.R.R.R.R.R.0.z.z.g.;.  v <.3.4.4.1.,.3.4.4.d     c.m.H.H.H.  R.R.R.R.R.R.R.R.R.R.R.R.R.R.R.R.R.R.R.R.R.R.R.",
"R.R.R.R.R.R.R.R.R.R.R.R.R.R.R.R.R.R.R.R.R.R.  j.g.;.* 3   ,.,.,.,.,.v 8.6.4.,.  R.  c.c.b.  R.R.R.R.R.R.R.R.R.R.R.R.R.R.R.R.R.R.R.R.R.R.R.R.",
"R.R.R.R.R.R.R.R.R.R.R.R.R.R.R.R.R.R.R.R.R.R.    N O.  l l       X % 3 4.4.4.<.  R.        R.R.R.R.R.R.R.R.R.R.R.R.R.R.R.R.R.R.R.R.R.R.R.R.R.",
"R.R.R.R.R.R.R.R.R.R.R.R.R.R.R.R.R.R.R.R.R.R.R.R.R.R.X l l l k g R.R.f 4.4.4.v   R.R.R.R.R.R.R.R.R.R.R.R.R.R.R.R.R.R.R.R.R.R.R.R.R.R.R.R.R.R.",
"R.R.R.R.R.R.R.R.R.R.R.R.R.R.R.R.R.R.R.R.R.R.R.R.R.R.    j g g 4 R.R.2 z x v v   R.R.R.R.R.R.R.R.R.R.R.R.R.R.R.R.R.R.R.R.R.R.R.R.R.R.R.R.R.R.",
"R.R.R.R.R.R.R.R.R.R.R.R.R.R.R.R.R.R.R.R.R.R.R.R.R.  e.N.s.      R.R.  D.L.K.K.  R.R.R.R.R.R.R.R.R.R.R.R.R.R.R.R.R.R.R.R.R.R.R.R.R.R.R.R.R.R.",
"R.R.R.R.R.R.R.R.R.R.R.R.R.R.R.R.R.R.R.R.R.R.                          X .       R.R.R.R.R.R.R.R.R.R.R.R.R.R.R.R.R.R.R.R.R.R.R.R.R.R.R.R.R.R.",
"R.R.R.R.R.R.R.R.R.R.R.R.R.R.R.R.R.R.R.R.R.  C N.N.u.u.O . D   p.Y.Y.K.K.  A ^ r.  R.R.R.R.R.R.R.R.R.R.R.R.R.R.R.R.R.R.R.R.R.R.R.R.R.R.R.R.R.",
"R.R.R.R.R.R.R.R.R.R.R.R.R.R.R.R.R.R.R.R.  6 u.N.u.u.u.u.  . i.L.Y.K.K.K.C.  ^ K.  R.R.R.R.R.R.R.R.R.R.R.R.R.R.R.R.R.R.R.R.R.R.R.R.R.R.R.R.R.",
"R.R.R.R.R.R.R.R.R.R.R.R.R.R.R.R.R.R.R.R.  u.u.u.u.u.u.w.w.  K.K.K.K.K.K.B.N.  D   R.R.R.R.R.R.R.R.R.R.R.R.R.R.R.R.R.R.R.R.R.R.R.R.R.R.R.R.R.",
"R.R.R.R.R.R.R.R.R.R.R.R.R.R.R.R.R.R.R.R.                                            R.R.R.R.R.R.R.R.R.R.R.R.R.R.R.R.R.R.R.R.R.R.R.R.R.R.R.R.",
"R.R.R.R.R.R.R.R.R.R.R.R.R.R.R.R.R.R.R.R.O u.N.u.u.u.u.u.u.n K.Y.K.K.L.K.K.K.K.C.a.  R.R.R.R.R.R.R.R.R.R.R.R.R.R.R.R.R.R.R.R.R.R.R.R.R.R.R.R.",
"R.R.R.R.R.R.R.R.R.R.R.R.R.R.R.R.R.R.R.R.                                            R.R.R.R.R.R.R.R.R.R.R.R.R.R.R.R.R.R.R.R.R.R.R.R.R.R.R.R.",
"R.R.R.R.R.R.R.R.R.R.R.R.R.R.R.R.R.R.R.R.R.R.R.R.R.R.R.R.R.R.R.R.R.R.R.R.R.R.R.R.R.R.R.R.R.R.R.R.R.R.R.R.R.R.R.R.R.R.R.R.R.R.R.R.R.R.R.R.R.R.",
"R.R.R.R.R.R.R.R.R.R.R.R.R.R.R.R.R.R.R.R.R.R.R.R.R.R.R.R.R.R.R.R.R.R.R.R.R.R.R.R.R.R.R.R.R.R.R.R.R.R.R.R.R.R.R.R.R.R.R.R.R.R.R.R.R.R.R.R.R.R.",
"R.R.R.R.R.R.R.R.R.R.R.R.R.R.R.R.R.R.R.R.R.R.R.R.R.R.R.R.R.R.R.R.R.R.R.R.R.R.R.R.R.R.R.R.R.R.R.R.R.R.R.R.R.R.R.R.R.R.R.R.R.R.R.R.R.R.R.R.R.R.",
"R.R.R.R.R.R.R.R.R.R.R.R.R.R.R.R.R.R.R.R.R.R.R.R.R.R.R.R.R.R.R.R.R.R.R.R.R.R.R.R.R.R.R.R.R.R.R.R.R.R.R.R.R.R.R.R.R.R.R.R.R.R.R.R.R.R.R.R.R.R.",
"R.R.R.R.R.R.R.R.R.R.R.R.R.R.R.R.R.R.R.R.R.R.R.R.R.R.R.R.R.R.R.R.R.R.R.R.R.R.R.R.R.R.R.R.R.R.R.R.R.R.R.R.R.R.R.R.R.R.R.R.R.R.R.R.R.R.R.R.R.R.",
"R.R.R.R.R.R.R.R.R.R.R.R.R.R.R.R.R.R.R.R.R.R.R.R.R.R.R.R.R.R.R.R.R.R.R.R.R.R.R.R.R.R.R.R.R.R.R.R.R.R.R.R.R.R.R.R.R.R.R.R.R.R.R.R.R.R.R.R.R.R.",
"R.R.R.R.R.R.R.R.R.R.R.R.R.R.R.R.R.R.R.R.R.R.R.R.R.R.R.R.R.R.R.R.R.R.R.R.R.R.R.R.R.R.R.R.R.R.R.R.R.R.R.R.R.R.R.R.R.R.R.R.R.R.R.R.R.R.R.R.R.R.",
"R.R.R.R.R.R.R.R.R.R.R.R.R.R.R.R.R.R.R.R.R.R.R.R.R.R.R.R.R.R.R.R.R.R.R.R.R.R.R.R.R.R.R.R.R.R.R.R.R.R.R.R.R.R.R.R.R.R.R.R.R.R.R.R.R.R.R.R.R.R."
};
