/* XPM */
static char *result[] = {
/* columns rows colors chars-per-pixel */
"64 64 240 2 ",
"   c #271E13",
".  c #2B1E14",
"X  c #251E1A",
"o  c #2A1E1C",
"O  c #351F15",
"+  c #1D2317",
"@  c #2D230F",
"#  c #2B2215",
"$  c #23211D",
"%  c #2C241C",
"&  c #2B2B1D",
"*  c #232115",
"=  c #32241B",
"-  c #342B1E",
";  c #3D2D1D",
":  c #322514",
">  c #3D321D",
",  c #3B3A1C",
"<  c #36321D",
"1  c #251E25",
"2  c #251E2A",
"3  c #291D24",
"4  c #1F2031",
"5  c #1F2221",
"6  c #242224",
"7  c #2B2322",
"8  c #25232A",
"9  c #29242B",
"0  c #2A2A25",
"q  c #342523",
"w  c #342C24",
"e  c #3C2C23",
"r  c #372A28",
"t  c #3B3325",
"y  c #3A3924",
"u  c #333425",
"i  c #2A2935",
"p  c #2B2C3D",
"a  c #262736",
"s  c #352E38",
"d  c #2E313B",
"f  c #412D1D",
"g  c #42341D",
"h  c #4B341E",
"j  c #45381B",
"k  c #503018",
"l  c #422B23",
"z  c #422B2C",
"x  c #433124",
"c  c #4A3422",
"v  c #4C3B23",
"b  c #443429",
"n  c #4C382B",
"m  c #553D24",
"M  c #553D2D",
"N  c #5D3E2A",
"B  c #573823",
"V  c #4A3738",
"C  c #583B39",
"Z  c #633B2A",
"A  c #5E521F",
"S  c #5C4426",
"D  c #5D442A",
"F  c #574929",
"G  c #5C4B2B",
"H  c #584828",
"J  c #5C5029",
"K  c #5F5E24",
"L  c #554839",
"P  c #504734",
"I  c #634426",
"U  c #614E26",
"Y  c #63442A",
"T  c #6B462C",
"R  c #644D2A",
"E  c #6A4B2A",
"W  c #6C4325",
"Q  c #754D29",
"!  c #62522A",
"~  c #625B2C",
"^  c #6D5A2A",
"/  c #685628",
"(  c #7C552B",
")  c #735B2B",
"_  c #7C5A2D",
"`  c #725B26",
"'  c #694634",
"]  c #695635",
"[  c #7B5934",
"{  c #61622E",
"}  c #7B622D",
"|  c #7C692F",
" . c #636131",
".. c #7D6433",
"X. c #2C2E42",
"o. c #272B41",
"O. c #2D3044",
"+. c #2D324A",
"@. c #333145",
"#. c #32354C",
"$. c #39374A",
"%. c #2E3553",
"&. c #2D3955",
"*. c #2E3B5B",
"=. c #2F3658",
"-. c #323654",
";. c #323955",
":. c #393952",
">. c #32375A",
",. c #333A5B",
"<. c #312F4C",
"1. c #343E63",
"2. c #393B62",
"3. c #353F6A",
"4. c #383F6D",
"5. c #353F71",
"6. c #423A43",
"7. c #354165",
"8. c #394164",
"9. c #36446D",
"0. c #39436D",
"q. c #374471",
"w. c #384372",
"e. c #354579",
"r. c #835C2B",
"t. c #86562A",
"y. c #805931",
"u. c #8D5432",
"i. c #92562F",
"p. c #88652B",
"a. c #96652C",
"s. c #997A2F",
"d. c #8C6333",
"f. c #866536",
"g. c #956C35",
"h. c #9D6C31",
"j. c #976735",
"k. c #8E7633",
"l. c #897538",
"z. c #957B35",
"x. c #977535",
"c. c #87732B",
"v. c #A36B2C",
"b. c #BD782F",
"n. c #A86736",
"m. c #B76837",
"M. c #A47334",
"N. c #AC7532",
"B. c #AC7833",
"V. c #AE793C",
"C. c #A5753B",
"Z. c #BB7D3A",
"A. c #B57737",
"S. c #AE732D",
"D. c #C57939",
"F. c #DB7535",
"G. c #D47D36",
"H. c #D27A3A",
"J. c #C86C2E",
"K. c #9F7643",
"L. c #AF7742",
"P. c #9F872D",
"I. c #9E8438",
"U. c #A5842D",
"Y. c #B38B29",
"T. c #A38434",
"R. c #AB8435",
"E. c #A68934",
"W. c #AE8D34",
"Q. c #A7873A",
"!. c #BD8334",
"~. c #BB8938",
"^. c #A79B35",
"/. c #BC953B",
"(. c #B89636",
"). c #A5A636",
"_. c #BDA43B",
"`. c #BBBA38",
"'. c #DA972D",
"]. c #C58334",
"[. c #CA8436",
"{. c #CA893A",
"}. c #D48B34",
"|. c #D28C3C",
" X c #D78536",
".X c #C49434",
"XX c #CE943B",
"oX c #C39C3C",
"OX c #C99C3B",
"+X c #C79836",
"@X c #D49134",
"#X c #DC9434",
"$X c #D59A35",
"%X c #DC9C34",
"&X c #D5943C",
"*X c #D9933B",
"=X c #D39C3B",
"-X c #DA9A3A",
";X c #D9892F",
":X c #E19636",
">X c #E0972F",
",X c #C5A23E",
"<X c #CDA23B",
"1X c #CEA93B",
"2X c #CDAC37",
"3X c #DCA436",
"4X c #D4A33B",
"5X c #D2AB3D",
"6X c #DBAE3C",
"7X c #D6A838",
"8X c #DDB434",
"9X c #DDBA34",
"0X c #D5B23D",
"qX c #DDB53A",
"wX c #D9B83A",
"eX c #DAB12D",
"rX c #E2B333",
"tX c #E0B239",
"yX c #E0B32B",
"uX c #D8CB3F",
"iX c #DBD839",
"pX c #CEC037",
"aX c #AE8040",
"sX c #BE8B45",
"dX c #BE9745",
"fX c #CC8D42",
"gX c #C88745",
"hX c #D58B44",
"jX c #C99641",
"kX c #D49645",
"lX c #CDA841",
"zX c #D5AE42",
"xX c #D6AE46",
"cX c #DDB542",
"vX c #D2B243",
"bX c #D4B050",
"nX c #E1B540",
"mX c #D3CD42",
"MX c #D6D243",
"NX c #CEC544",
/* pixels */
"q.q.0.9.q.q.w.q.q.q.q.q.q.q.q.q.q.q.q.q.q.q.q.q.q.q.q.q.q.0.q.q.9.q.w.w.w.q.q.q.q.q.q.q.q.q.q.q.q.q.q.q.q.q.q.q.q.q.9.q.q.9.q.q.",
"q.w.w.9.,.*.,.q.q.q.q.9.q.q.q.q.q.q.q.q.q.q.q.q.q.q.q.q.q.9.;.1.*.1.7.9.w.w.q.q.q.q.q.q.q.q.q.q.q.q.q.q.q.q.q.q.9.=.&.,.9.q.q.q.",
"q.q.9.,.g g j :.2.1.1.1.7.1.2.w.9.q.q.q.q.q.q.q.w.0.1.1.1.,.g t , j $.1.7.2.2.0.q.q.q.q.q.9.q.q.w.3.2.1.1.7.1.1.,.P < ; :.9.q.q.",
"q.q.3.r [.6XuX .+ o o X X 5 * ,.q.w.w.q.q.w.w.e.0.p   1 X t nXiXiXwX~ 1 X   6 0.w.w.q.q.w.w.w.0.8.+ * $ * o o 3 x MXyX$XD %.q.q.",
"q.q.1.w [.6X9XR [ <X0X2XzX0XqXv =.9.9.9.9.9.9.9.i l.5X8XI.e &XqXqX%XY _ 0XzXoX9 8.9.9.9.9.9.9.8.9 vXvXxX0X0X=Xh.t qX8X&XD %.4.0.",
"q.q.1.q J.@X&XY # Q =X,X: * lXv 6 6 6 1 1 6 5 5 3 d.}.;XQ.f *X#X;X*XT ( }.G.!.7 1 6 8 5 5 5 1 3 = bXj @ s.3XM.o l $X&XF.N %.e.q.",
"q.q.9.,.l h h d.W.l.Q $XdX= XXc r.].(._.`.`./.Z.v d.a.l W m.:XG.F.;XD.u.c W ].7 M.(.2X`._.(./.V.= &X< l.+Xa.^ /.C.k h l $.4.q.q.",
"q.q.q.7.7 l.n v.#X.Xk.Q kX% S 0 v J J U { K J S q i.b.v.m.}.F.Z M m.F.Z.v.S.A.7 S J K { ~ U U H o Y 7 B.a.| ~.#X!.% z.t -.w.q.q.",
"q.q.q.7.6 .Xs._ N.>X.Xp._ % +.+.+.+.+.+.+.+.+.+.+.C Q ( ( ( Q $.+.' Q ( ( ( ' @.+.+.+.+.+.+.+.+.+.+.6 Y | Y.:XZ.t.c.-Xb &.q.q.q.",
"q.q.q.9.6 !.3Xg.[ A.>X+X] 6 9.q.q.q.q.q.q.q.q.q.w.-.X.p p p p 0.9.#.p p p X.X.5.0.w.q.q.q.q.q.q.q.9.a H R.%X].d.( xX*Xl -.q.q.q.",
"q.q.q.9.1 D.Z.$Xs.` A.@XcX% 7.q.q.w.w.q.q.q.q.w.w.e.q.w.q.q.w.q.w.q.q.q.q.q.q.q.w.w.q.q.w.q.q.q.q.9.8 R.>X[.f.} 3XV.}.c %.w.q.q.",
"q.q.q.7.$ !.N f.OXl.m gXsX7 9.q.q.q.q.0.q.q.q.q.0.w.q.q.q.q.q.0.w.q.w.q.q.q.q.0.q.q.q.q.q.q.q.q.q.9.a h.gX_ G <XB.: gXx =.q.q.q.",
"q.9.q.5.2 D.Y % X 2 1 7 2 0.w.w.q.q.q.q.q.q.q.9.q.q.q.q.q.q.q.q.q.q.q.q.q.q.q.q.q.q.q.q.q.q.q.q.e.9.9.i 3 8 3 $ q l gXl -.q.w.q.",
"q.q.q.9.6 m. XD @.0.q.0.w.w.q.q.q.q.q.q.q.q.q.w.q.q.q.q.q.q.q.q.q.q.q.q.q.q.q.q.q.q.q.q.q.q.q.q.q.e.w.w.w.q.,.m kXfXJ.z ,.9.q.q.",
"q.q.q.9.3.r r % +.q.0.q.q.9.q.q.q.q.q.q.q.q.q.q.q.q.q.q.q.q.q.q.q.q.q.q.q.q.q.q.q.q.q.q.q.q.q.q.q.q.q.q.0.q.-.3 e ; r :.9.q.q.q.",
"q.q.q.q.q.6 r.M +.w.w.q.q.q.w.q.q.q.q.q.q.q.q.q.q.q.q.q.q.q.q.0.q.q.q.q.q.q.q.q.q.q.q.q.q.q.0.q.q.q.q.q.q.q.7.+.- M.0 1.q.q.q.q.",
"q.q.q.9.w.6 B.G @.q.w.q.q.q.q.q.q.q.q.q.q.q.q.q.q.q.q.q.q.q.q.q.q.q.q.q.q.q.q.q.q.q.q.q.0.q.q.q.q.q.q.q.q.q.q.,.e OX0 2.q.q.q.q.",
"q.q.q.q.q.8 ^.~ +.w.w.q.q.q.q.q.q.q.q.q.q.q.q.q.0.q.q.q.q.q.q.q.q.q.q.q.q.q.q.q.q.q.q.q.q.q.q.q.q.q.q.q.q.q.q.,.t pXw 1.q.q.q.q.",
"q.q.q.q.q.6 ).{ O.w.q.q.q.q.q.q.q.q.q.q.q.q.q.q.q.q.q.q.q.q.q.q.q.0.q.q.q.q.q.q.q.q.q.q.q.q.q.q.q.q.q.q.q.q.9.,.y MXu 1.q.q.q.q.",
"q.q.q.q.q.6 ).{ +.w.q.q.q.q.q.q.q.q.q.q.q.q.q.q.q.q.q.q.q.q.q.q.q.q.q.q.q.q.0.q.q.q.q.q.q.q.q.q.q.q.q.q.q.q.9.>.y MXw 1.q.q.q.q.",
"q.q.q.q.q.6 ).{ +.w.q.q.q.q.q.q.q.q.q.q.q.q.q.q.q.q.q.q.q.q.q.q.q.q.q.q.q.q.q.q.q.q.q.q.q.q.q.q.q.q.q.q.q.q.q.,.y mXw 1.q.q.q.q.",
"q.q.q.q.q.9 E.R +.w.w.q.q.q.9.q.q.q.q.0.q.q.q.q.q.q.q.q.q.q.q.q.q.q.q.q.q.q.q.q.q.q.q.0.q.q.q.q.q.q.q.q.q.q.q.>.t 5Xw 1.q.q.q.q.",
"q.q.q.q.q.6 E.! +.q.w.q.q.q.q.q.q.q.q.q.q.q.q.q.q.q.0.q.q.q.q.q.q.q.q.q.q.q.q.q.q.q.q.q.q.q.q.q.q.q.q.q.q.q.q.>.u lXu 2.q.q.q.q.",
"q.q.q.q.0.8 M.G @.w.w.q.q.q.q.q.q.q.q.q.q.q.q.q.q.q.q.q.q.q.q.q.q.q.q.q.q.q.q.q.q.q.q.q.q.q.q.q.q.q.q.q.q.q.q.>.l XXw ,.q.q.q.q.",
"q.q.9.9.p 6 b - +.q.q.q.q.q.q.q.q.q.q.q.q.q.q.q.q.q.q.q.q.q.q.q.q.q.q.q.q.q.q.q.q.q.q.q.q.q.q.9.q.q.q.q.q.q.w.*.6 m 6 9 1.q.w.q.",
"q.q.9.s z.P.U.P.] %.w.q.q.q.q.q.q.q.q.q.q.q.q.q.q.q.0.q.q.q.q.q.q.q.q.q.q.q.q.q.9.q.q.q.q.q.q.q.q.q.q.q.q.q.1.P T.T.P.T.P ,.q.q.",
"q.9.,.< 5Xf. .(.| X.q.w.q.q.q.q.q.q.q.q.q.q.q.q.q.q.q.q.q.q.q.q.q.q.q.q.q.q.q.q.q.q.q.q.q.q.q.q.q.q.q.q.q.q.>.F 1X` [ +XY +.q.q.",
"q.q.3.w 5Xr.l T.| X.q.q.q.q.q.q.q.q.q.q.q.q.q.q.q.q.q.q.q.q.q.q.q.q.0.q.q.q.q.q.q.q.q.q.q.q.w.q.q.q.q.q.q.9.-.F lXX R D.D %.e.q.",
"q.9.7.& T.B./ W.| X.q.q.q.q.q.q.0.q.q.q.q.q.q.q.q.q.q.q.q.q.q.q.q.q.q.q.q.q.q.q.q.q.q.q.q.q.q.q.q.q.q.q.q.9.%.F ,X# v.n.c %.q.q.",
"q.9.:.> , , W.rX| X.q.q.q.q.q.9.q.q.q.q.q.q.q.q.q.q.q.q.q.q.q.q.q.q.q.q.q.q.q.q.q.q.q.q.q.q.q.q.q.9.q.q.q.9.,.F <X> < , l $.9.q.",
"w.=.t kXiXiX9XcX..O.q.q.q.q.q.q.q.q.q.q.q.q.q.0.q.q.q.q.q.q.q.q.q.q.q.q.q.q.q.q.q.q.q.q.q.q.q.q.q.q.q.q.q.q.=.H kXeXiXiX7XT +.q.",
"w.-.l &X8XwX%XE @.9.q.q.q.q.q.q.q.q.q.q.q.q.q.q.q.q.q.q.q.q.q.q.q.q.q.q.q.q.q.q.q.q.q.q.q.9.q.q.q.q.q.q.q.q.q.;.b cX9X9X%XT +.q.",
"w.-.l kXtXtX%XI O.w.w.q.q.q.q.q.q.q.0.q.q.q.q.q.q.q.q.q.q.q.q.q.q.q.q.q.q.q.q.q.q.q.q.q.q.q.q.q.q.q.q.q.q.q.q.,.t cXtXrX%XT #.q.",
"e.-.e  X'.#X3X.X] #.q.q.q.q.q.q.q.q.q.q.q.q.q.q.q.q.q.q.q.q.0.q.q.q.q.q.q.q.q.q.q.q.q.q.q.q.q.q.q.q.q.q.q.q.,.P /.'.'.>X XW #.q.",
"w.3.$.Z D S (.>X[ X.q.q.q.q.q.q.q.q.q.q.q.q.q.q.q.q.q.q.q.q.q.q.q.q.q.0.q.q.q.q.q.q.q.q.q.q.q.q.q.q.q.q.q.9.:.F 5XD Y S M V 3.q.",
"q.q.1.9 } r.} ~.( X.q.q.q.q.q.q.q.q.q.q.q.q.q.q.q.q.q.q.q.q.q.q.q.q.q.q.q.q.q.q.q.q.q.q.q.q.q.q.q.q.q.q.q.q.-.F ,X% ( [ b %.q.q.",
"q.q.1.r 2XM.x v.y.O.q.q.q.q.q.q.q.q.q.q.q.q.q.q.q.q.q.q.q.q.q.q.q.0.q.q.q.q.q.q.q.q.q.q.q.q.q.q.0.q.q.q.q.0.;.H +X% i.|.Z -.q.q.",
"q.q.7.0 <XW c N.( X.0.q.q.q.q.q.q.q.q.q.q.q.q.q.q.q.q.q.q.q.q.q.q.q.q.q.q.0.q.q.q.q.q.q.q.q.q.q.q.q.q.q.q.0.&.S D.j B D.D +.q.q.",
"q.q.7.s M.B.A.V.' +.w.q.q.q.q.q.q.q.q.q.q.q.q.q.q.q.q.q.q.q.q.q.q.q.q.q.q.q.q.q.q.q.q.q.q.q.q.0.q.q.q.q.q.q.*.P m.V.N.n.C &.e.q.",
"q.9.q.7.8 X % % @.q.w.q.q.q.q.q.q.q.q.q.q.q.q.q.q.q.q.q.q.q.q.q.q.q.q.q.q.q.q.q.q.q.q.q.q.q.q.q.q.q.q.q.q.q.9.;.X = o 6 >.9.e.q.",
"q.q.w.q.w.3 K.T @.q.q.q.q.q.q.q.q.0.q.q.q.q.q.q.q.q.q.q.q.q.q.q.q.q.q.q.q.q.q.q.q.q.q.q.q.q.q.q.q.q.q.q.q.q.q.-.w gX& 8.0.q.w.q.",
"q.q.w.0.0.9 R.R +.w.q.q.q.q.q.q.q.q.q.q.q.q.q.q.q.q.q.q.q.q.q.q.q.q.q.q.q.q.q.0.q.q.q.q.q.q.q.q.q.q.q.q.q.q.q.,.t zXw 1.q.q.q.q.",
"q.q.q.q.q.8 ^.~ O.w.q.q.q.q.q.w.q.q.q.q.q.0.q.q.q.q.q.q.q.q.q.0.q.q.q.q.q.q.q.q.q.q.q.q.q.q.q.q.q.q.q.q.q.q.q.=.u uX0 1.q.q.q.q.",
"q.q.q.q.q.8 ). .#.q.q.q.q.q.q.q.q.q.q.q.q.q.q.q.q.q.q.9.q.q.q.q.q.q.q.q.q.q.q.q.q.q.q.q.q.q.q.q.q.q.q.q.q.q.9.,.y MXu ,.q.q.q.q.",
"q.q.q.q.q.8 ). .+.q.q.q.q.q.q.q.q.q.q.q.q.q.q.q.q.q.q.q.q.q.q.q.0.q.q.q.q.q.q.q.q.q.q.q.q.q.q.q.q.q.q.q.q.q.q.,.y MXu ,.q.q.q.q.",
"q.q.q.q.q.6 ^.K @.e.q.q.q.q.q.q.q.0.q.q.q.q.q.q.q.q.q.q.q.q.q.q.q.q.q.q.q.q.q.q.q.q.q.q.q.q.q.0.q.q.q.q.q.q.q.=.y NXe 1.q.q.q.q.",
"q.q.q.q.q.8 E.~ @.q.0.q.q.q.q.q.q.q.q.q.q.q.q.q.q.q.q.q.q.q.q.q.q.q.q.q.q.0.q.q.q.q.q.q.q.q.q.q.q.q.q.q.q.q.w.,.t 1Xw 1.q.q.q.q.",
"q.q.q.q.q.8 T.R #.q.0.q.q.q.q.q.q.q.q.q.q.q.q.q.q.q.q.q.q.q.q.q.q.q.q.q.q.q.q.q.0.q.q.q.q.q.q.q.q.q.q.q.q.e.w.,.t <Xw 2.q.q.q.0.",
"q.q.q.w.0.6 j.Y O.w.w.q.q.q.q.q.q.q.q.q.q.q.q.q.q.q.q.q.q.q.q.q.q.q.q.q.q.q.q.q.q.q.q.q.q.q.q.q.q.q.q.9.q.w.q.,.r ~.r ,.9.w.w.w.",
"q.q.w.7.6 1 7 6 +.w.q.q.q.q.q.q.q.q.q.q.q.q.q.q.q.q.q.q.q.q.q.q.q.q.q.q.q.q.q.q.q.q.q.q.q.q.q.q.q.q.q.q.q.w.q.*.1 = + 1 -.w.q.q.",
"q.q.1.r (._.].D +.q.q.q.q.q.q.q.q.q.q.q.q.q.q.w.q.q.q.q.q.q.q.q.q.q.q.q.q.q.q.q.q.w.q.q.q.q.q.q.q.q.q.q.q.w.q.,.w ~.oX_.G -.e.q.",
"q.q.1.r 1XJ v 0 6 a 8 a q.q.0.q.q.0.q.q.q.q.q.9.w.w.9.q.q.q.q.q.9.9.q.q.q.q.9.e.9.q.q.w.9.q.q.q.q.q.q.q.q.q.q.-.$ b v ,XG %.q.q.",
"q.q.1.r 5Xt ..h.S F z.f.X.9.0.q.q.q.q.q.q.q.q.w.9.q.q.q.q.q.q.q.q.q.q.q.q.q.w.q.9.w.q.q.q.q.q.q.q.q.q.q.q.=.i a w z.w (.! %.9.w.",
"q.q.1.e 1Xs..Xg.f.W.:XD.6 0.q.q.q.q.q.q.q.q.q.w.q.=.p O.O.O.+.q.q.%.O.O.O.O.@.q.9.0.q.q.q.q.q.q.q.q.q.q.,.L p.^ ; =Xz.2XJ %.9.q.",
"q.q.3.- 2X7XS.[ U.%X].y.X q.q.q.w.q.q.5.q.q.q.q.=.L ` ) ^ { ^ $.%.L ^ ^ ^ ` ] #.9.q.q.q.q.q.q.q.q.q.q.q.o.( %X(.) j.=XrXG #.q.q.",
"q.q.1.0 <XA./ W.%X[.a.P 6 -.*.,.,.>.>.>.,.,.,.,.9 k.,XY./.rX7XJ F (.yX<XW.(.oX6 -.;.,.,.,.,.,.-.*.:.*.,.p Y b.%X<XS M.4XR %.w.q.",
"q.q.1.q L.l B.:X[.f.U +X% ; 2 e l e > > < t e ; o d.t.8 E 1XrXtXyX8XlX..- v ].% ; e l > > > > t l 4 e 7 - t E ].$X$X- K.M #.w.q.",
"q.q.1.. O . j.hXr.` 4XsX. fX= K.XXkX0X0X0X0X&XfXm a.t.I M.x nXqXrXqX^ ( d.B gX# gXjX5X0X0X0X0XvXgX. Z.m f.-Xz.I hXD.= @   #.q.q.",
"q.*.t fX2X5XR % y.|.N.O   fX= 7 = q % % % % % % 2 u.G.fXx.e &XtX8X%XR [ hXhXL.3 = 7 & 7 7 % % & = 6 !.m . ( $XR.= t ,X5XXX' %.q.",
"q.>.x &XtXtXH j.}.#X#XfXfXF.= -.4.0.0.q.0.9.0.8.4.s = O q l H.@X$XH.Z 6 = O q 2.2.9.0.9.0.9.0.0.8.3 m. XfX|.*XkXV.: 2X8X>XE +.q.",
"w.=.e G.#X%XS t c c c c c x ;.9.w.q.q.q.q.q.q.q.w.9.,.,.,.:.h c h c $.*.1.*.1.e.q.q.q.q.q.q.w.w.9.2.b h c c h c x - .X-X XI #.q.",
"w.3.$.D I ' $.-.&.%.&.-.%.-.9.0.q.q.q.q.q.q.q.q.w.q.q.q.q.q.%.=.%.-.3.w.w.w.q.q.q.q.q.q.q.q.w.q.9.q.>.-.-.-.%.-.-.#.Y D Y 6.1.q.",
"w.w.4.+.O.<.7.q.q.q.q.q.w.q.q.q.q.q.q.q.q.q.q.q.q.q.q.q.q.q.q.q.w.q.q.q.q.q.q.q.q.q.q.q.q.q.q.q.e.w.w.q.q.q.q.q.0.0.+.<.O.1.w.q.",
"q.q.w.w.q.q.q.q.q.q.q.q.q.q.q.q.q.q.q.q.q.q.q.q.q.q.q.q.q.q.q.q.q.q.q.q.q.q.q.q.q.q.q.q.q.q.q.q.q.q.w.q.q.q.q.q.q.w.q.q.q.q.q.q."
};
