/* XPM */
static char *result[] = {
/* columns rows colors chars-per-pixel */
"70 70 159 2 ",
"   c #000000",
".  c #0B0303",
"X  c #0D0A05",
"o  c #0B0B0A",
"O  c #05090E",
"+  c #140303",
"@  c #1D0000",
"#  c #150A03",
"$  c #14110E",
"%  c #1C1509",
"&  c #0A141E",
"*  c #141414",
"=  c #1E1313",
"-  c #1A1A1A",
";  c #290609",
":  c #380609",
">  c #20180C",
",  c #221F1C",
"<  c #24211E",
"1  c #0C1723",
"2  c #081E35",
"3  c #2C2B2B",
"4  c #272523",
"5  c #322D29",
"6  c #36312C",
"7  c #3D3328",
"8  c #393939",
"9  c #450000",
"0  c #43090D",
"q  c #5E0000",
"w  c #4D1000",
"e  c #470D11",
"r  c #5B1116",
"t  c #640F14",
"y  c #7B141C",
"u  c #642100",
"i  c #44332A",
"p  c #453F3A",
"a  c #162C42",
"s  c #1A344D",
"d  c #0B3054",
"f  c #1F3F5D",
"g  c #0F3962",
"h  c #113E6B",
"j  c #214060",
"k  c #24486B",
"l  c #284E74",
"z  c #295077",
"x  c #2A537D",
"c  c gray30",
"v  c gray37",
"b  c #515151",
"n  c #635B53",
"m  c #656565",
"M  c #766C63",
"N  c #7C7C7C",
"B  c #727272",
"V  c #810000",
"C  c #9C0000",
"Z  c #821017",
"A  c #92171F",
"S  c #A20000",
"D  c #AB0000",
"F  c #B40000",
"G  c #BE0000",
"H  c #AB151C",
"J  c #B31118",
"K  c #972200",
"L  c #9F2400",
"P  c #831920",
"I  c #8A1922",
"U  c #901720",
"Y  c #921B23",
"T  c #9C1D27",
"R  c #A11C26",
"E  c #AC2029",
"W  c #B3222B",
"Q  c #C40000",
"!  c #CC0203",
"~  c #C6080B",
"^  c #D50000",
"/  c #D80600",
"(  c #DE1200",
")  c #E11900",
"_  c #E62100",
"`  c #EF3400",
"'  c #F33D00",
"]  c #E24B00",
"[  c #F64300",
"{  c #F84600",
"}  c #FA4B00",
"|  c #FE5400",
" . c #FE5806",
".. c #A25757",
"X. c #82776D",
"o. c #AD823D",
"O. c #8E8276",
"+. c #BC9670",
"@. c #C89344",
"#. c #D19B49",
"$. c #DEA44C",
"%. c #E3A74E",
"&. c #EDAE51",
"*. c #C5986B",
"=. c #FF9D6D",
"-. c #FFD26B",
";. c #2C5680",
":. c #336699",
">. c #33679A",
",. c #376EA4",
"<. c #386FA6",
"1. c #3870A7",
"2. c #3B75AF",
"3. c #3E79B4",
"4. c #8D8D8D",
"5. c #8A8887",
"6. c #9D8F81",
"7. c #979797",
"8. c #A0A0A0",
"9. c #A9A6A4",
"0. c #AFAFAF",
"q. c #BDBDBD",
"w. c #B1B1B1",
"e. c #F68E89",
"r. c #FF938E",
"t. c #FF9590",
"y. c #FF9D98",
"u. c #CEAB88",
"i. c #C5AF99",
"p. c #EBBD8F",
"a. c #FDBB9A",
"s. c #C5B3A1",
"d. c #CABAA9",
"f. c #FFBFBC",
"g. c #FFCC99",
"h. c #FAC997",
"j. c #DAC9B7",
"k. c #FFD9B4",
"l. c #FFDBB8",
"z. c #C4C4C4",
"x. c #CCCCCC",
"c. c #D5D5D5",
"v. c gray86",
"b. c #EBD8C4",
"n. c #FFD9C7",
"m. c #E8DBDB",
"M. c #FFE4CA",
"N. c #FAE1C7",
"B. c #FCE6D2",
"V. c #FFEAD5",
"C. c #FFEBDC",
"Z. c #E6E6E6",
"A. c #ECECEC",
"S. c #E8E5E2",
"D. c #FFF1E2",
"F. c #F3F3F3",
"G. c #FEFEFE",
"H. c #FFFBF6",
"J. c None",
/* pixels */
"J.J.J.J.J.J.J.J.J.J.J.J.J.J.J.J.J.J.J.J.J.J.J.J.J.J.J.J.J.J.J.J.J.J.J.J.J.J.J.J.J.J.J.J.J.J.J.J.J.J.J.J.J.J.J.J.J.J.J.J.J.J.J.J.J.J.J.J.J.J.",
"J.J.J.J.J.J.J.J.J.J.J.J.J.J.J.J.J.J.J.J.J.J.J.J.J.J.J.J.J.J.J.J.J.J.J.J.J.J.J.J.J.J.J.J.J.J.J.J.J.J.J.J.J.J.J.J.J.J.J.J.J.J.J.J.J.J.J.J.J.J.",
"J.J.J.J.J.J.J.J.J.J.J.J.J.J.J.J.J.J.J.J.J.J.J.J.J.J.J.J.J.J.J.J.J.J.J.J.J.J.J.J.J.J.J.J.J.J.J.J.J.J.J.J.J.J.J.J.J.J.J.J.J.J.J.J.J.J.J.J.J.J.",
"J.J.J.J.J.J.J.J.J.J.J.J.J.J.J.J.J.J.J.J.J.J.J.J.J.J.J.J.J.J.J.J.J.J.J.J.J.J.J.J.J.J.J.J.J.J.J.J.J.J.J.J.J.J.J.J.J.J.J.J.J.J.J.J.J.J.J.J.J.J.",
"J.J.J.J.J.J.J.J.J.J.J.J.J.J.J.J.J.J.J.J.J.J.J.J.J.J.J.J.J.J.J.J.J.J.J.J.J.J.J.J.J.J.J.J.J.J.J.J.J.J.J.J.J.J.J.J.J.J.J.J.J.J.J.J.J.J.J.J.J.J.",
"J.J.J.J.J.J.J.J.J.J.J.J.J.J.J.J.J.J.J.J.J.J.J.J.J.J.J.J.J.J.J.J.J.J.J.J.        J.J.J.J.J.J.J.J.J.J.J.J.J.J.J.J.J.J.J.J.J.J.J.J.J.J.J.J.J.J.",
"J.J.J.J.J.J.J.J.J.J.J.J.J.J.J.J.J.J.J.J.J.J.J.J.J.J.J.J.J.J.J.J.J.J.    F ^ ^ ^   J.J.J.J.J.J.J.J.J.J.J.J.J.J.J.J.J.J.J.J.J.J.J.J.J.J.J.J.J.",
"J.J.J.J.J.J.J.J.J.J.J.J.J.J.J.J.J.J.J.J.J.J.J.J.J.J.J.J.J.J.J.J.J.  q / |  .C.=.^   J.J.J.J.J.J.J.J.J.J.J.J.J.J.J.J.J.J.J.J.J.J.J.J.J.J.J.J.",
"J.J.J.J.J.J.J.J.J.J.J.J.J.J.J.J.J.J.J.J.J.J.J.J.J.J.J.J.J.J.J.J.  S [ | G.G.G.G.H...  J.J.J.J.J.J.J.J.J.J.J.J.J.J.J.J.J.J.J.J.J.J.J.J.J.J.J.",
"J.J.J.J.J.J.J.J.J.J.J.J.J.J.J.J.J.J.J.J.J.J.J.J.J.J.J.J.J.J.J.  q {  .G.G.G.G.F.F.F.  J.J.J.J.J.J.J.J.J.J.J.J.J.J.J.J.J.J.J.J.J.J.J.J.J.J.J.",
"J.J.J.J.J.J.J.J.J.J.J.J.J.J.J.J.J.J.J.J.J.J.J.J.J.J.J.J.J.J.J.  ) | G.G.H.F.F.G.F.F.= J.J.J.J.J.J.J.J.J.J.J.J.J.J.J.J.J.J.J.J.J.J.J.J.J.J.J.",
"J.J.J.J.J.J.J.J.J.J.J.J.J.J.J.J.J.J.J.J.J.J.J.J.J.    @ .     ^ | G.F.F.F.F.F.F.F.F.m.  J.J.J.J.J.J.J.J.J.J.J.J.J.J.J.J.J.J.J.J.J.J.J.J.J.J.",
"J.J.J.J.J.J.J.J.J.J.J.J.J.J.J.J.J.J.J.J.J.J.J.J.J.  | | |   ^ | G.F.F.F.F.F.F.F.F.A.F.  J.J.J.J.J.J.J.J.J.J.J.J.J.J.J.J.J.J.J.J.J.J.J.J.J.J.",
"J.J.J.J.J.J.J.J.J.J.J.J.J.J.J.J.J.J.J.J.J.J.J.J.  ^ [ |   Q | G.F.F.F.F.F.F.F.A.F.A.A.  J.J.J.J.J.J.J.J.J.J.J.J.J.J.J.J.J.J.J.J.J.J.J.J.J.J.",
"J.J.J.J.J.J.J.J.J.J.J.J.J.J.J.J.J.J.J.J.J.J.J.J.  J     ^  .G.A.F.F.A.A.F.A.A.A.A.A.A.  J.J.J.J.J.J.J.J.J.J.J.J.J.J.J.J.J.J.J.J.J.J.J.J.J.J.",
"J.J.J.J.J.J.J.J.J.J.J.J.J.J.J.J.J.J.J.J.J.J.J.J.    G | a.G.F.F.A.F.A.F.A.A.A.A.A.A.x.  J.J.J.J.J.J.J.J.J.J.J.J.J.J.J.J.J.J.J.J.J.J.J.J.J.J.",
"J.J.J.J.J.J.J.J.J.J.J.J.J.J.J.J.J.J.J.J.J.J.    D { | G.A.A.A.A.A.A.A.A.A.A.A.A.x.6       J.J.J.J.J.J.J.J.J.J.J.J.J.J.J.J.J.J.J.J.J.J.J.J.J.",
"J.J.J.J.J.J.J.J.J.J.J.J.J.J.J.J.J.J.J.J.J.  V ` | G.F.A.A.A.A.A.A.A.Z.A.A.Z.x.    r W Y   J.J.J.J.J.J.J.J.J.J.J.J.J.J.J.J.J.J.J.J.J.J.J.J.J.",
"J.J.J.J.J.J.J.J.J.J.J.J.J.J.J.J.J.J.J.  . ( | | G.A.A.A.A.A.A.A.A.A.A.c.q.    Y W T P e     J.J.J.J.J.J.J.J.J.J.J.J.J.J.J.J.J.J.J.J.J.J.J.J.",
"J.J.J.J.J.J.J.J.J.J.J.J.J.J.J.J.J.J.  ! | | | ^ A.A.A.A.A.A.A.Z.v.x.v   . E W T T .   u ' ^     J.J.J.J.J.J.J.J.J.J.J.J.J.J.J.J.J.J.J.J.J.J.",
"J.J.J.J.J.J.J.J.J.J.J.J.J.J.J.J.J.  ^ | | ^ ^ ^ A.A.A.Z.Z.v.x.x.o   ; W E R T     ] | | | | ^ .   J.J.J.J.J.J.J.J.J.J.J.J.J.J.J.J.J.J.J.J.J.",
"J.J.J.J.J.J.J.J.J.J.J.J.J.J.J.J.J.: T T ! ^ ^ ^ Z.v.x.x.x.x.    I W T T y     | | | | | | | | ^ 9   J.J.J.J.J.J.J.J.J.J.J.J.J.J.J.J.J.J.J.J.",
"J.J.J.J.J.J.J.J.J.J.J.J.J.J.J.J.  T T T T T T T T x.x.9.    R W T T +   # | | | | | | | | | | } ^ .   J.J.J.J.J.J.J.J.J.J.J.J.J.J.J.J.J.J.J.",
"J.J.J.J.J.J.J.J.J.J.J.J.J.J.J.J.  y T R T T T T T 3   + W E T T     K | | | | | | | | | | | | | ^ ^   J.J.J.J.J.J.J.J.J.J.J.J.J.J.J.J.J.J.J.",
"J.J.J.J.J.J.J.J.J.J.J.J.J.J.J.J.J.  T T T T T     r W Y P I     ^ ^ ^ ^ ^ ^ _ | | | | | | | / ^ ^ ^   J.J.J.J.J.J.J.J.J.J.J.J.J.J.J.J.J.J.J.",
"J.J.J.J.J.J.J.J.J.J.J.J.J.J.J.J.J.J.  t T ;   I W Z P e   . ^ ^ ^ ^ ^ ^ ^ ^ ^ ^ ^ ^ ^ ^ ^ ^ ^ ^ ^ ~   J.J.J.J.J.J.J.J.J.J.J.J.J.J.J.J.J.J.J.",
"J.J.J.J.J.J.J.J.J.J.J.J.J.J.J.J.J.J.J.      E P P X   %   U T ! ^ ^ ^ ^ ^ ^ ^ ^ ^ ^ ^ ^ ^ ^ ^ ^ R   J.J.J.J.J.J.J.J.J.J.J.J.J.J.J.J.J.J.J.J.",
"J.J.J.J.J.J.J.J.J.J.J.J.J.J.J.J.J.J.J.J.J.  .     @.&.&.-.X   + T T R J ^ ^ ^ ^ ^ ^ ^ ^ ^ H T 0   J.J.J.J.J.J.J.J.J.J.J.J.J.J.J.J.J.J.J.J.J.",
"J.J.J.J.J.J.J.J.J.J.J.J.J.J.J.J.J.J.J.J.J.J.  %.&.&.&.&.&.&.  %.X   .   ; y Y T T T Y ;       J.J.J.J.J.J.J.J.J.J.J.J.J.J.J.J.J.J.J.J.J.J.J.",
"J.J.J.J.J.J.J.J.J.J.J.J.J.J.J.J.J.J.J.J.J.J.J.% &.&.&.&.&.o.  &.$.  b.#.$.  4   X X   p 5.J.J.J.J.J.J.J.J.J.J.J.J.J.J.J.J.J.J.J.J.J.J.J.J.J.",
"J.J.J.J.J.J.J.J.J.J.J.J.J.J.J.J.J.J.J.J.J.J.J.        &.&.      c.m 5   o V.V.    O.p m * J.J.J.J.J.J.J.J.J.J.J.J.J.J.J.J.J.J.J.J.J.J.J.J.J.",
"J.J.J.J.J.J.J.J.J.J.J.J.J.J.J.J.J.J.J.J.J.J.J.O D.V.n $.  V.O.  z.- , V.V.V.V.V.V.j.* - .   J.J.J.J.J.J.J.J.J.J.J.J.J.J.J.J.J.J.J.J.J.J.J.J.",
"J.J.J.J.J.J.J.J.J.J.J.J.J.J.J.J.J.J.J.J.J.J.  V.n.g.g.  C.B.$ . - -   V.V.V.V.V.V.B - - O   J.J.J.J.J.J.J.J.J.J.J.J.J.J.J.J.J.J.J.J.J.J.J.J.",
"J.J.J.J.J.J.J.J.J.J.J.J.J.J.J.J.J.J.J.J.J.J.  V.g.g.g.M.V.B.O   - -   V.V.r.r.G.V.X.- - 4 9.J.J.J.J.J.J.J.J.J.J.J.J.J.J.J.J.J.J.J.J.J.J.J.J.",
"J.J.J.J.J.J.J.J.J.J.J.J.J.J.J.J.J.J.J.J.J.J.  V.g.g.g.g.B.C.d.  - - j.6.t.r.r.r.r.< . * S.  J.J.J.J.J.J.J.J.J.J.J.J.J.J.J.J.J.J.J.J.J.J.J.J.",
"J.J.J.J.J.J.J.J.J.J.J.J.J.J.J.J.J.J.J.J.J.J.  b.V.g.g.g.l.B.V.    o V.  r.r.r.r.r..   , 9.  J.J.J.J.J.J.J.J.J.J.J.J.J.J.J.J.J.J.J.J.J.J.J.J.",
"J.J.J.J.J.J.J.J.J.J.J.J.J.J.J.J.J.J.J.J.J.J.J.  6 M.j.g.g.k.y.r.V.V.V.N.o e.r.e.= +.n.y.r.J.J.J.J.J.J.J.J.J.J.J.J.J.J.J.J.J.J.J.J.J.J.J.J.J.",
"J.J.J.J.J.J.J.J.J.J.J.J.J.J.J.J.J.J.J.J.J.J.J.J.J.J.      p.r.r.g.g.l.M.V.g.g.g.g.u.    J.J.J.J.J.J.J.J.J.J.J.J.J.J.J.J.J.J.J.J.J.J.J.J.J.J.",
"J.J.J.J.J.J.J.J.J.J.J.J.J.J.J.J.J.J.J.J.J.J.J.J.J.J.J.              o $ 7 * .       J.J.J.J.J.J.J.J.J.J.J.J.J.J.J.J.J.J.J.J.J.J.J.J.J.J.J.J.",
"J.J.J.J.J.J.J.J.J.J.J.J.J.J.J.J.J.J.J.J.J.J.J.J.J.J.  Z.G.3 . >.:.:.q.G.G.O     J.J.J.J.J.J.J.J.J.J.J.J.J.J.J.J.J.J.J.J.J.J.J.J.J.J.J.J.J.J.",
"J.J.J.J.J.J.J.J.J.J.J.J.J.J.J.J.J.J.J.J.J.J.J.J.J.  Z.H.G.G.    >.>.  G.H.  a z.  J.J.J.J.J.J.J.J.J.J.J.J.J.J.J.J.J.J.J.J.J.J.J.J.J.J.J.J.J.",
"J.J.J.J.J.J.J.J.J.J.J.J.J.J.J.J.J.J.J.J.J.J.J.J.J.  Z.G.G.G.  - >.>.>.>.>.>.>.8.4.J.J.J.J.J.J.J.J.J.J.J.J.J.J.J.J.J.J.J.J.J.J.J.J.J.J.J.J.J.",
"J.J.J.J.J.J.J.J.J.J.J.J.J.J.J.J.J.J.J.J.J.J.J.J.J.  Z.G.G.G.                      J.J.J.J.J.J.J.J.J.J.J.J.J.J.J.J.J.J.J.J.J.J.J.J.J.J.J.J.J.",
"J.J.J.J.J.J.J.J.J.J.J.J.J.J.J.J.J.J.J.J.J.J.J.J.J.  * z.G.G.. :.  1.2.2.2.2.2.    J.J.J.J.J.J.J.J.J.J.J.J.J.J.J.J.J.J.J.J.J.J.J.J.J.J.J.J.J.",
"J.J.J.J.J.J.J.J.J.J.J.J.J.J.J.J.J.J.J.J.J.J.J.J.J.  g.V.M   >.>.  <.2.2.2.2.2.  J.J.J.J.J.J.J.J.J.J.J.J.J.J.J.J.J.J.J.J.J.J.J.J.J.J.J.J.J.J.",
"J.J.J.J.J.J.J.J.J.J.J.J.J.J.J.J.J.J.J.J.J.J.J.J.J.  g.V.V.    $   ,.2.2.2.2.2.s J.J.J.J.J.J.J.J.J.J.J.J.J.J.J.J.J.J.J.J.J.J.J.J.J.J.J.J.J.J.",
"J.J.J.J.J.J.J.J.J.J.J.J.J.J.J.J.J.J.J.J.J.J.J.J.J.  g.V.V.V.V.V.p & 2.2.2.2.3.f O   J.J.J.J.J.J.J.J.J.J.J.J.J.J.J.J.J.J.J.J.J.J.J.J.J.J.J.J.",
"J.J.J.J.J.J.J.J.J.J.J.J.J.J.J.J.J.J.J.J.J.J.J.J.J.  g.M.V.V.V.H.D.  2.2.2.2.<.x 7 s.  J.J.J.J.J.J.J.J.J.J.J.J.J.J.J.J.J.J.J.J.J.J.J.J.J.J.J.",
"J.J.J.J.J.J.J.J.J.J.J.J.J.J.J.J.J.J.J.J.J.J.J.J.J.J.. g.g.V.V.V.k.  O       x & 6.i.  J.J.J.J.J.J.J.J.J.J.J.J.J.J.J.J.J.J.J.J.J.J.J.J.J.J.J.",
"J.J.J.J.J.J.J.J.J.J.J.J.J.J.J.J.J.J.J.J.J.J.J.J.J.J.    g.g.g.h.  z ;.;.;.;.;.  *.s.  J.J.J.J.J.J.J.J.J.J.J.J.J.J.J.J.J.J.J.J.J.J.J.J.J.J.J.",
"J.J.J.J.J.J.J.J.J.J.J.J.J.J.J.J.J.J.J.J.J.J.J.J.J.J.J.J.      & s x ;.;.;.1   g   i   J.J.J.J.J.J.J.J.J.J.J.J.J.J.J.J.J.J.J.J.J.J.J.J.J.J.J.",
"J.J.J.J.J.J.J.J.J.J.J.J.J.J.J.J.J.J.J.J.J.J.J.J.J.J.J.  ;.>.>.>.z         d h h 2 J.J.J.J.J.J.J.J.J.J.J.J.J.J.J.J.J.J.J.J.J.J.J.J.J.J.J.J.J.",
"J.J.J.J.J.J.J.J.J.J.J.J.J.J.J.J.J.J.J.J.J.J.J.J.J.J.J.  ;.>.>.>.>.J.J.  d h h g d   J.J.J.J.J.J.J.J.J.J.J.J.J.J.J.J.J.J.J.J.J.J.J.J.J.J.J.J.",
"J.J.J.J.J.J.J.J.J.J.J.J.J.J.J.J.J.J.J.J.J.J.J.J.J.J.J.  ;.z l k j J.J.  d d 2       J.J.J.J.J.J.J.J.J.J.J.J.J.J.J.J.J.J.J.J.J.J.J.J.J.J.J.J.",
"J.J.J.J.J.J.J.J.J.J.J.J.J.J.J.J.J.J.J.J.J.J.J.J.J.J.J.  v.Z.A.S.  J.J.      N o           J.J.J.J.J.J.J.J.J.J.J.J.J.J.J.J.J.J.J.J.J.J.J.J.J.",
"J.J.J.J.J.J.J.J.J.J.J.J.J.J.J.J.J.J.J.J.J.J.J.J.J.J.J.                  J.  w L   0.0.z.z.    J.J.J.J.J.J.J.J.J.J.J.J.J.J.J.J.J.J.J.J.J.J.J.",
"J.J.J.J.J.J.J.J.J.J.J.J.J.J.J.J.J.J.J.J.J.J.J.J.J.J.  i ^ !   Z.Z.H.G.Z.  C C   0.0.0.z.z.0.  J.J.J.J.J.J.J.J.J.J.J.J.J.J.J.J.J.J.J.J.J.J.J.",
"J.J.J.J.J.J.J.J.J.J.J.J.J.J.J.J.J.J.J.J.J.J.J.J.J.J.  Z.^   x.Z.Z.Z.G.A.Z.  . 5.0.0.0.0.0.w.0.  J.J.J.J.J.J.J.J.J.J.J.J.J.J.J.J.J.J.J.J.J.J.",
"J.J.J.J.J.J.J.J.J.J.J.J.J.J.J.J.J.J.J.J.J.J.J.J.J.J.  C 9 B x.Z.Z.Z.Z.Z.Z.    7.N -             J.J.J.J.J.J.J.J.J.J.J.J.J.J.J.J.J.J.J.J.J.J.",
"J.J.J.J.J.J.J.J.J.J.J.J.J.J.J.J.J.J.J.J.J.J.J.J.J.                            * v q.q.w.0.z.0.* J.J.J.J.J.J.J.J.J.J.J.J.J.J.J.J.J.J.J.J.J.J.",
"J.J.J.J.J.J.J.J.J.J.J.J.J.J.J.J.J.J.J.J.J.J.J.J.J.  c x.Z.Z.Z.Z.Z.Z.Z.G.Z.z.3 0.7.b o             J.J.J.J.J.J.J.J.J.J.J.J.J.J.J.J.J.J.J.J.J.",
"J.J.J.J.J.J.J.J.J.J.J.J.J.J.J.J.J.J.J.J.J.J.J.J.J.                                J.J.J.J.J.J.J.J.J.J.J.J.J.J.J.J.J.J.J.J.J.J.J.J.J.J.J.J.J.",
"J.J.J.J.J.J.J.J.J.J.J.J.J.J.J.J.J.J.J.J.J.J.J.J.J.J.J.J.J.J.J.J.J.J.J.J.J.J.J.J.J.J.J.J.J.J.J.J.J.J.J.J.J.J.J.J.J.J.J.J.J.J.J.J.J.J.J.J.J.J.",
"J.J.J.J.J.J.J.J.J.J.J.J.J.J.J.J.J.J.J.J.J.J.J.J.J.J.J.J.J.J.J.J.J.J.J.J.J.J.J.J.J.J.J.J.J.J.J.J.J.J.J.J.J.J.J.J.J.J.J.J.J.J.J.J.J.J.J.J.J.J.",
"J.J.J.J.J.J.J.J.J.J.J.J.J.J.J.J.J.J.J.J.J.J.J.J.J.J.J.J.J.J.J.J.J.J.J.J.J.J.J.J.J.J.J.J.J.J.J.J.J.J.J.J.J.J.J.J.J.J.J.J.J.J.J.J.J.J.J.J.J.J.",
"J.J.J.J.J.J.J.J.J.J.J.J.J.J.J.J.J.J.J.J.J.J.J.J.J.J.J.J.J.J.J.J.J.J.J.J.J.J.J.J.J.J.J.J.J.J.J.J.J.J.J.J.J.J.J.J.J.J.J.J.J.J.J.J.J.J.J.J.J.J.",
"J.J.J.J.J.J.J.J.J.J.J.J.J.J.J.J.J.J.J.J.J.J.J.J.J.J.J.J.J.J.J.J.J.J.J.J.J.J.J.J.J.J.J.J.J.J.J.J.J.J.J.J.J.J.J.J.J.J.J.J.J.J.J.J.J.J.J.J.J.J.",
"J.J.J.J.J.J.J.J.J.J.J.J.J.J.J.J.J.J.J.J.J.J.J.J.J.J.J.J.J.J.J.J.J.J.J.J.J.J.J.J.J.J.J.J.J.J.J.J.J.J.J.J.J.J.J.J.J.J.J.J.J.J.J.J.J.J.J.J.J.J.",
"J.J.J.J.J.J.J.J.J.J.J.J.J.J.J.J.J.J.J.J.J.J.J.J.J.J.J.J.J.J.J.J.J.J.J.J.J.J.J.J.J.J.J.J.J.J.J.J.J.J.J.J.J.J.J.J.J.J.J.J.J.J.J.J.J.J.J.J.J.J.",
"J.J.J.J.J.J.J.J.J.J.J.J.J.J.J.J.J.J.J.J.J.J.J.J.J.J.J.J.J.J.J.J.J.J.J.J.J.J.J.J.J.J.J.J.J.J.J.J.J.J.J.J.J.J.J.J.J.J.J.J.J.J.J.J.J.J.J.J.J.J."
};
