/* XPM */
static char *result[] = {
/* columns rows colors chars-per-pixel */
"70 70 157 2 ",
"   c #000000",
".  c #0A0201",
"X  c #030609",
"o  c #050A0F",
"O  c #0C0C0B",
"+  c #140102",
"@  c #150B08",
"#  c #15110D",
"$  c #181309",
"%  c #060C13",
"&  c #080F18",
"*  c #04111E",
"=  c #141414",
"-  c #1B1B1B",
";  c #1A1816",
":  c #290000",
">  c #2B0709",
",  c #220609",
"<  c #3E1400",
"1  c #211B15",
"2  c #311E1B",
"3  c #23201D",
"4  c #0D1926",
"5  c #08223B",
"6  c #15293D",
"7  c gray14",
"8  c #282828",
"9  c #292622",
"0  c #302D28",
"q  c #3C2422",
"w  c #37322E",
"e  c gray20",
"r  c #3D3733",
"t  c #41080B",
"y  c #5C1117",
"u  c #620000",
"i  c #6D0000",
"p  c #6F151B",
"a  c #70141B",
"s  c #613736",
"d  c #594320",
"f  c #162C42",
"g  c #18314A",
"h  c #0B2F54",
"j  c #0B3055",
"k  c #1B3651",
"l  c #1E3C59",
"z  c #213E5B",
"x  c #0F3A65",
"c  c #113E6B",
"v  c #23476B",
"b  c #284E75",
"n  c #2C557F",
"m  c #4B4B4B",
"M  c #555555",
"N  c #5B5B5A",
"B  c #6E5757",
"V  c #7F6A56",
"C  c #676767",
"Z  c #7C7C7C",
"A  c gray45",
"S  c #8F0000",
"D  c #940000",
"F  c #9D0000",
"G  c #81191F",
"H  c #86161D",
"J  c #A20000",
"K  c #AA0000",
"L  c #BD0000",
"P  c #A8191D",
"I  c #A23600",
"U  c #841920",
"Y  c #8D1922",
"T  c #941922",
"R  c #9D1D27",
"E  c #A31A23",
"W  c #A21E28",
"Q  c #A81720",
"!  c #AD202A",
"~  c #B3222B",
"^  c #CE0101",
"/  c #C50405",
"(  c #D50000",
")  c #E21D00",
"_  c #C02900",
"`  c #E72300",
"'  c #F23A00",
"]  c #946C32",
"[  c #DB4900",
"{  c #F64100",
"}  c #FB4D00",
"|  c #FE5400",
" . c #FE5908",
".. c #FD702C",
"X. c #FF7D3C",
"o. c #B96A67",
"O. c #DB4444",
"+. c #B2843D",
"@. c #C18D42",
"#. c #D79E4A",
"$. c #FE915C",
"%. c #ECAE51",
"&. c #C6A37F",
"*. c #FDCF69",
"=. c #2C5680",
"-. c #2D5985",
";. c #2F5E8D",
":. c #305F8F",
">. c #326394",
",. c #336699",
"<. c #35699D",
"1. c #376CA2",
"2. c #3B75AE",
"3. c #417DB9",
"4. c #838383",
"5. c #8B8B8B",
"6. c #959595",
"7. c #9A9A9A",
"8. c #B1A294",
"9. c gray64",
"0. c #AFAFAF",
"q. c #BFB0A0",
"w. c #B3B3B3",
"e. c #BBBBBB",
"r. c #E18282",
"t. c #F48D88",
"y. c #FF938E",
"u. c #FF9995",
"i. c #E6A98D",
"p. c #FFA798",
"a. c #D0BFAE",
"s. c #FFCC99",
"d. c #FFD1A3",
"f. c #FFD7AE",
"g. c #E0CDBB",
"h. c #FFDCB8",
"j. c #C4C4C4",
"k. c #CCCCCC",
"l. c #D2D2D2",
"z. c #DADADA",
"x. c #FFDDCA",
"c. c #FFE7CE",
"v. c #F9E5D0",
"b. c #FFEAD5",
"n. c #FFE4DE",
"m. c #FFEBD8",
"M. c #E5E5E5",
"N. c #ECECEC",
"B. c #EBE3E3",
"V. c #FFEFE8",
"C. c #FFEBE1",
"Z. c #FEF1E4",
"A. c #FFF1EA",
"S. c #F3F3F3",
"D. c #FEFEFE",
"F. c #FFF8F4",
"G. c None",
/* pixels */
"G.G.G.G.G.G.G.G.G.G.G.G.G.G.G.G.G.G.G.G.G.G.G.G.G.G.G.G.G.G.G.G.G.G.G.G.G.G.G.G.G.G.G.G.G.G.G.G.G.G.G.G.G.G.G.G.G.G.G.G.G.G.G.G.G.G.G.G.G.G.",
"G.G.G.G.G.G.G.G.G.G.G.G.G.G.G.G.G.G.G.G.G.G.G.G.G.G.G.G.G.G.G.G.G.G.G.G.G.G.G.G.G.G.G.G.G.G.G.G.G.G.G.G.G.G.G.G.G.G.G.G.G.G.G.G.G.G.G.G.G.G.",
"G.G.G.G.G.G.G.G.G.G.G.G.G.G.G.G.G.G.G.G.G.G.G.G.G.G.G.G.G.G.G.G.G.G.G.G.G.G.G.G.G.G.G.G.G.G.G.G.G.G.G.G.G.G.G.G.G.G.G.G.G.G.G.G.G.G.G.G.G.G.",
"G.G.G.G.G.G.G.G.G.G.G.G.G.G.G.G.G.G.G.G.G.G.G.G.G.G.G.G.G.G.G.G.G.G.G.G.G.G.G.G.G.G.G.G.G.G.G.G.G.G.G.G.G.G.G.G.G.G.G.G.G.G.G.G.G.G.G.G.G.G.",
"G.G.G.G.G.G.G.G.G.G.G.G.G.G.G.G.G.G.G.G.G.G.G.G.G.G.G.G.G.G.G.G.G.G.G.G.        G.G.G.G.G.G.G.G.G.G.G.G.G.G.G.G.G.G.G.G.G.G.G.G.G.G.G.G.G.G.",
"G.G.G.G.G.G.G.G.G.G.G.G.G.G.G.G.G.G.G.G.G.G.G.G.G.G.G.G.G.G.G.G.G.G.  . ( ( ( S   G.G.G.G.G.G.G.G.G.G.G.G.G.G.G.G.G.G.G.G.G.G.G.G.G.G.G.G.G.",
"G.G.G.G.G.G.G.G.G.G.G.G.G.G.G.G.G.G.G.G.G.G.G.G.G.G.G.G.G.G.G.G.G.  ( { | $.A...L   G.G.G.G.G.G.G.G.G.G.G.G.G.G.G.G.G.G.G.G.G.G.G.G.G.G.G.G.",
"G.G.G.G.G.G.G.G.G.G.G.G.G.G.G.G.G.G.G.G.G.G.G.G.G.G.G.G.G.G.G.G.  ( | X.D.D.D.D.F.  G.G.G.G.G.G.G.G.G.G.G.G.G.G.G.G.G.G.G.G.G.G.G.G.G.G.G.G.",
"G.G.G.G.G.G.G.G.G.G.G.G.G.G.G.G.G.G.G.G.G.G.G.G.G.G.G.G.G.G.G.  ( | A.D.D.D.F.D.S.N.  G.G.G.G.G.G.G.G.G.G.G.G.G.G.G.G.G.G.G.G.G.G.G.G.G.G.G.",
"G.G.G.G.G.G.G.G.G.G.G.G.G.G.G.G.G.G.G.G.G.G.G.G.G.G.    G.G.  ^ | F.D.D.S.S.S.S.S.S.  G.G.G.G.G.G.G.G.G.G.G.G.G.G.G.G.G.G.G.G.G.G.G.G.G.G.G.",
"G.G.G.G.G.G.G.G.G.G.G.G.G.G.G.G.G.G.G.G.G.G.G.G.G.  i ` u   u | A.D.S.S.S.S.S.S.S.S.  G.G.G.G.G.G.G.G.G.G.G.G.G.G.G.G.G.G.G.G.G.G.G.G.G.G.G.",
"G.G.G.G.G.G.G.G.G.G.G.G.G.G.G.G.G.G.G.G.G.G.G.G.  ( | | t   { C.D.S.S.S.S.S.S.S.S.S.B G.G.G.G.G.G.G.G.G.G.G.G.G.G.G.G.G.G.G.G.G.G.G.G.G.G.G.",
"G.G.G.G.G.G.G.G.G.G.G.G.G.G.G.G.G.G.G.G.G.G.G.G.  ( `     } F.F.S.S.N.S.S.S.S.N.S.N.B.  G.G.G.G.G.G.G.G.G.G.G.G.G.G.G.G.G.G.G.G.G.G.G.G.G.G.",
"G.G.G.G.G.G.G.G.G.G.G.G.G.G.G.G.G.G.G.G.G.G.G.G.      K | D.S.S.S.S.S.N.N.S.N.N.N.S.N.  G.G.G.G.G.G.G.G.G.G.G.G.G.G.G.G.G.G.G.G.G.G.G.G.G.G.",
"G.G.G.G.G.G.G.G.G.G.G.G.G.G.G.G.G.G.G.G.G.G.G.    J }  .D.S.N.S.N.S.N.N.N.N.N.N.N.k.k.  G.G.G.G.G.G.G.G.G.G.G.G.G.G.G.G.G.G.G.G.G.G.G.G.G.G.",
"G.G.G.G.G.G.G.G.G.G.G.G.G.G.G.G.G.G.G.G.G.    K ' | D.N.S.N.N.N.N.N.N.N.N.N.N.z.k.      G.G.G.G.G.G.G.G.G.G.G.G.G.G.G.G.G.G.G.G.G.G.G.G.G.G.",
"G.G.G.G.G.G.G.G.G.G.G.G.G.G.G.G.G.G.G.G.  D ' | n.F.N.N.N.N.N.N.N.N.N.M.N.l.Z     Y ~ U   G.G.G.G.G.G.G.G.G.G.G.G.G.G.G.G.G.G.G.G.G.G.G.G.G.",
"G.G.G.G.G.G.G.G.G.G.G.G.G.G.G.G.G.G.  + ) | |  .N.N.N.N.N.N.N.M.N.N.z.k.=   > ~ ! W U .   G.G.G.G.G.G.G.G.G.G.G.G.G.G.G.G.G.G.G.G.G.G.G.G.G.",
"G.G.G.G.G.G.G.G.G.G.G.G.G.G.G.G.G.  L | | | ( r.N.N.N.N.M.N.M.M.k.e.    U ~ ! R Y     [ ( .   G.G.G.G.G.G.G.G.G.G.G.G.G.G.G.G.G.G.G.G.G.G.G.",
"G.G.G.G.G.G.G.G.G.G.G.G.G.G.G.G.  Y | ' ( ( ( O.M.N.M.N.l.k.k.e     ! ~ R R @     | | | | ( J   G.G.G.G.G.G.G.G.G.G.G.G.G.G.G.G.G.G.G.G.G.G.",
"G.G.G.G.G.G.G.G.G.G.G.G.G.G.G.G.  R R R R Q P E k.k.k.k.k.    y ~ W R R     I | | | | | | | ( (   G.G.G.G.G.G.G.G.G.G.G.G.G.G.G.G.G.G.G.G.G.",
"G.G.G.G.G.G.G.G.G.G.G.G.G.G.G.G.  R R R R R R R k.k.5.    W ~ R T p     | | | | | | | | | | | ( ^   G.G.G.G.G.G.G.G.G.G.G.G.G.G.G.G.G.G.G.G.",
"G.G.G.G.G.G.G.G.G.G.G.G.G.G.G.G.  R R R R R R R     @ ~ ! R R     : | | | | | | | | | | | | | ( (   G.G.G.G.G.G.G.G.G.G.G.G.G.G.G.G.G.G.G.G.",
"G.G.G.G.G.G.G.G.G.G.G.G.G.G.G.G.G.  R R R Y     G ~ Y U Y     / ( ( ( ( ( ( { | | | | | | | ( ( ( S   G.G.G.G.G.G.G.G.G.G.G.G.G.G.G.G.G.G.G.",
"G.G.G.G.G.G.G.G.G.G.G.G.G.G.G.G.G.G.    H   W ~ G U >   . ( ( ( ( ( ( ( ( ( ( ( ( ( ( ( ( ( ( ( ( + G.G.G.G.G.G.G.G.G.G.G.G.G.G.G.G.G.G.G.G.",
"G.G.G.G.G.G.G.G.G.G.G.G.G.G.G.G.G.G.G.G.  a U G     ]     R R ( ( ( ( ( ( ( ( ( ( ( ( ( ( ( ( ( T   G.G.G.G.G.G.G.G.G.G.G.G.G.G.G.G.G.G.G.G.",
"G.G.G.G.G.G.G.G.G.G.G.G.G.G.G.G.G.G.G.G.G.      %.%.%.*.%.    > R R E / ( ( ( ( ( ( ( ( ^ E R     G.G.G.G.G.G.G.G.G.G.G.G.G.G.G.G.G.G.G.G.G.",
"G.G.G.G.G.G.G.G.G.G.G.G.G.G.G.G.G.G.G.G.G.G.  %.%.%.%.%.%.  %.@.X     . t a T R R R H t       G.G.G.G.G.G.G.G.G.G.G.G.G.G.G.G.G.G.G.G.G.G.G.",
"G.G.G.G.G.G.G.G.G.G.G.G.G.G.G.G.G.G.G.G.G.G.  %.%.%.%.%.%.  %.+.  8.  %.d 0 X @       z.  G.G.G.G.G.G.G.G.G.G.G.G.G.G.G.G.G.G.G.G.G.G.G.G.G.",
"G.G.G.G.G.G.G.G.G.G.G.G.G.G.G.G.G.G.G.G.G.G.    7   #.%.      l.D.v.    b.b.    X X D.D.  G.G.G.G.G.G.G.G.G.G.G.G.G.G.G.G.G.G.G.G.G.G.G.G.G.",
"G.G.G.G.G.G.G.G.G.G.G.G.G.G.G.G.G.G.G.G.G.G.X m.b.b.  $ v.b.  ; - X b.b.b.b.b.b.b.  k.j.  G.G.G.G.G.G.G.G.G.G.G.G.G.G.G.G.G.G.G.G.G.G.G.G.G.",
"G.G.G.G.G.G.G.G.G.G.G.G.G.G.G.G.G.G.G.G.G.  Z.c.s.s.  b.b.v.  - ; = b.b.b.b.b.b.b.X ; N O   G.G.G.G.G.G.G.G.G.G.G.G.G.G.G.G.G.G.G.G.G.G.G.G.",
"G.G.G.G.G.G.G.G.G.G.G.G.G.G.G.G.G.G.G.G.G.  b.d.s.s.s.b.b.g.  - - X b.b.y.y.D.x.b.X ; 0.-   G.G.G.G.G.G.G.G.G.G.G.G.G.G.G.G.G.G.G.G.G.G.G.G.",
"G.G.G.G.G.G.G.G.G.G.G.G.G.G.G.G.G.G.G.G.G.  b.c.s.s.s.b.b.b.  O - r b.y.y.y.y.y..   ; Z.    G.G.G.G.G.G.G.G.G.G.G.G.G.G.G.G.G.G.G.G.G.G.G.G.",
"G.G.G.G.G.G.G.G.G.G.G.G.G.G.G.G.G.G.G.G.G.G.  b.d.s.s.s.b.c.a.  X b.w y.y.y.y.y.o.    C.  G.G.G.G.G.G.G.G.G.G.G.G.G.G.G.G.G.G.G.G.G.G.G.G.G.",
"G.G.G.G.G.G.G.G.G.G.G.G.G.G.G.G.G.G.G.G.G.G.G.  9 ; s.s.y.u.y.p.b.b.b.  o.y.t.s ; b.n.y.  G.G.G.G.G.G.G.G.G.G.G.G.G.G.G.G.G.G.G.G.G.G.G.G.G.",
"G.G.G.G.G.G.G.G.G.G.G.G.G.G.G.G.G.G.G.G.G.G.G.G.G.G.    # i.p.s.s.s.f.h.d.s.s.s.s.X   G.G.G.G.G.G.G.G.G.G.G.G.G.G.G.G.G.G.G.G.G.G.G.G.G.G.G.",
"G.G.G.G.G.G.G.G.G.G.G.G.G.G.G.G.G.G.G.G.G.G.G.G.G.G.G.G.  X         X 1 # O       G.G.G.G.G.G.G.G.G.G.G.G.G.G.G.G.G.G.G.G.G.G.G.G.G.G.G.G.G.",
"G.G.G.G.G.G.G.G.G.G.G.G.G.G.G.G.G.G.G.G.G.G.G.G.G.G.  z.M.  v <.,.  D.D.- ,.4.  G.G.G.G.G.G.G.G.G.G.G.G.G.G.G.G.G.G.G.G.G.G.G.G.G.G.G.G.G.G.",
"G.G.G.G.G.G.G.G.G.G.G.G.G.G.G.G.G.G.G.G.G.G.G.G.G.  M.D.D.D.  <.,.,.4.m   ,.    G.G.G.G.G.G.G.G.G.G.G.G.G.G.G.G.G.G.G.G.G.G.G.G.G.G.G.G.G.G.",
"G.G.G.G.G.G.G.G.G.G.G.G.G.G.G.G.G.G.G.G.G.G.G.G.G.  M.D.D.D.  f ,.,.<.,.,.,.  = G.G.G.G.G.G.G.G.G.G.G.G.G.G.G.G.G.G.G.G.G.G.G.G.G.G.G.G.G.G.",
"G.G.G.G.G.G.G.G.G.G.G.G.G.G.G.G.G.G.G.G.G.G.G.G.G.  M.D.D.D.  g       X 4 z %   G.G.G.G.G.G.G.G.G.G.G.G.G.G.G.G.G.G.G.G.G.G.G.G.G.G.G.G.G.G.",
"G.G.G.G.G.G.G.G.G.G.G.G.G.G.G.G.G.G.G.G.G.G.G.G.G.  M.D.D.D.X ,.f 1.>.v 6 & k   G.G.G.G.G.G.G.G.G.G.G.G.G.G.G.G.G.G.G.G.G.G.G.G.G.G.G.G.G.G.",
"G.G.G.G.G.G.G.G.G.G.G.G.G.G.G.G.G.G.G.G.G.G.G.G.G.G.  X w 8.    3   l 2.2.2.:.  G.G.G.G.G.G.G.G.G.G.G.G.G.G.G.G.G.G.G.G.G.G.G.G.G.G.G.G.G.G.",
"G.G.G.G.G.G.G.G.G.G.G.G.G.G.G.G.G.G.G.G.G.G.G.G.G.G.  s.b.b.8.m.b.Z.0 :.2.2.2.o G.G.G.G.G.G.G.G.G.G.G.G.G.G.G.G.G.G.G.G.G.G.G.G.G.G.G.G.G.G.",
"G.G.G.G.G.G.G.G.G.G.G.G.G.G.G.G.G.G.G.G.G.G.G.G.G.G.  &.b.b.m.m.b.D.b.  2.2.3.g G.G.G.G.G.G.G.G.G.G.G.G.G.G.G.G.G.G.G.G.G.G.G.G.G.G.G.G.G.G.",
"G.G.G.G.G.G.G.G.G.G.G.G.G.G.G.G.G.G.G.G.G.G.G.G.G.G.G.  s.b.m.m.b.b.s.% <.,.  k G.G.G.G.G.G.G.G.G.G.G.G.G.G.G.G.G.G.G.G.G.G.G.G.G.G.G.G.G.G.",
"G.G.G.G.G.G.G.G.G.G.G.G.G.G.G.G.G.G.G.G.G.G.G.G.G.G.G.  V s.s.s.s.s.  -.,.,.=.  G.G.G.G.G.G.G.G.G.G.G.G.G.G.G.G.G.G.G.G.G.G.G.G.G.G.G.G.G.G.",
"G.G.G.G.G.G.G.G.G.G.G.G.G.G.G.G.G.G.G.G.G.G.G.G.G.G.G.  %   1 @     =.n =.n b     G.G.G.G.G.G.G.G.G.G.G.G.G.G.G.G.G.G.G.G.G.G.G.G.G.G.G.G.G.",
"G.G.G.G.G.G.G.G.G.G.G.G.G.G.G.G.G.G.G.G.G.G.G.G.G.G.  =.,.,.2.<.=.=.=.n g     c c   G.G.G.G.G.G.G.G.G.G.G.G.G.G.G.G.G.G.G.G.G.G.G.G.G.G.G.G.",
"G.G.G.G.G.G.G.G.G.G.G.G.G.G.G.G.G.G.G.G.G.G.G.G.G.G.X =.,.,.2.,.        5 c c c x 4 G.G.G.G.G.G.G.G.G.G.G.G.G.G.G.G.G.G.G.G.G.G.G.G.G.G.G.G.",
"G.G.G.G.G.G.G.G.G.G.G.G.G.G.G.G.G.G.G.G.G.G.G.G.G.    n ;.<.<.l G.G.G.G.h h c j       G.      G.G.G.G.G.G.G.G.G.G.G.G.G.G.G.G.G.G.G.G.G.G.G.",
"G.G.G.G.G.G.G.G.G.G.G.G.G.G.G.G.G.G.G.G.G.G.G.G.      M   g =.  G.G.G.G.. h h   9.    ; 0.e.N   G.G.G.G.G.G.G.G.G.G.G.G.G.G.G.G.G.G.G.G.G.G.",
"G.G.G.G.G.G.G.G.G.G.G.G.G.G.G.G.G.G.G.G.G.G.G.  M.( }   X A     G.G.G.G.G.X     .   9.0.j.j.e.w.  G.G.G.G.G.G.G.G.G.G.G.G.G.G.G.G.G.G.G.G.G.",
"G.G.G.G.G.G.G.G.G.G.G.G.G.G.G.G.G.G.G.G.G.    P ( ^         G.G.G.G.G.G.G.G.. I F X 0.0.0.0.0.0.-   G.G.G.G.G.G.G.G.G.G.G.G.G.G.G.G.G.G.G.G.",
"G.G.G.G.G.G.G.G.G.G.G.G.G.G.G.G.G.G.G.G.G.  m       k.M.M.M.  G.G.G.G.G.G.G.2 J . 7.0.0.0.7     w.8 G.G.G.G.G.G.G.G.G.G.G.G.G.G.G.G.G.G.G.G.",
"G.G.G.G.G.G.G.G.G.G.G.G.G.G.G.G.G.G.G.G.    l.S.  M l.M.M.M.D.  G.G.G.G.G.G.q F   7.7     0.0.j.6.    G.G.G.G.G.G.G.G.G.G.G.G.G.G.G.G.G.G.G.",
"G.G.G.G.G.G.G.G.G.G.G.G.G.G.G.G.G.G.G.G.G.G.  e.M.=   M.M.M.D.7.  G.G.G.G.G.  :     5.0.0.6.      G.G.G.G.G.G.G.G.G.G.G.G.G.G.G.G.G.G.G.G.G.",
"G.G.G.G.G.G.G.G.G.G.G.G.G.G.G.G.G.G.G.G.G.G.G.    M.D.  k.B.M.M.  G.G.G.G.G.  C w.0.7.      G.G.G.G.G.G.G.G.G.G.G.G.G.G.G.G.G.G.G.G.G.G.G.G.",
"G.G.G.G.G.G.G.G.G.G.G.G.G.G.G.G.G.G.G.G.G.G.G.G.G.  z.M.X X M.M.  G.G.G.G.G.  4.      G.G.G.G.G.G.G.G.G.G.G.G.G.G.G.G.G.G.G.G.G.G.G.G.G.G.G.",
"G.G.G.G.G.G.G.G.G.G.G.G.G.G.G.G.G.G.G.G.G.G.G.G.G.G.  7 M.e.  Z   G.G.G.G.G.    G.G.G.G.G.G.G.G.G.G.G.G.G.G.G.G.G.G.G.G.G.G.G.G.G.G.G.G.G.G.",
"G.G.G.G.G.G.G.G.G.G.G.G.G.G.G.G.G.G.G.G.G.G.G.G.G.G.G.    D.M.  G.G.G.G.G.G.G.G.G.G.G.G.G.G.G.G.G.G.G.G.G.G.G.G.G.G.G.G.G.G.G.G.G.G.G.G.G.G.",
"G.G.G.G.G.G.G.G.G.G.G.G.G.G.G.G.G.G.G.G.G.G.G.G.G.G.G.G.G.  8   G.G.G.G.G.G.G.G.G.G.G.G.G.G.G.G.G.G.G.G.G.G.G.G.G.G.G.G.G.G.G.G.G.G.G.G.G.G.",
"G.G.G.G.G.G.G.G.G.G.G.G.G.G.G.G.G.G.G.G.G.G.G.G.G.G.G.G.G.G.  G.G.G.G.G.G.G.G.G.G.G.G.G.G.G.G.G.G.G.G.G.G.G.G.G.G.G.G.G.G.G.G.G.G.G.G.G.G.G.",
"G.G.G.G.G.G.G.G.G.G.G.G.G.G.G.G.G.G.G.G.G.G.G.G.G.G.G.G.G.G.G.G.G.G.G.G.G.G.G.G.G.G.G.G.G.G.G.G.G.G.G.G.G.G.G.G.G.G.G.G.G.G.G.G.G.G.G.G.G.G.",
"G.G.G.G.G.G.G.G.G.G.G.G.G.G.G.G.G.G.G.G.G.G.G.G.G.G.G.G.G.G.G.G.G.G.G.G.G.G.G.G.G.G.G.G.G.G.G.G.G.G.G.G.G.G.G.G.G.G.G.G.G.G.G.G.G.G.G.G.G.G.",
"G.G.G.G.G.G.G.G.G.G.G.G.G.G.G.G.G.G.G.G.G.G.G.G.G.G.G.G.G.G.G.G.G.G.G.G.G.G.G.G.G.G.G.G.G.G.G.G.G.G.G.G.G.G.G.G.G.G.G.G.G.G.G.G.G.G.G.G.G.G.",
"G.G.G.G.G.G.G.G.G.G.G.G.G.G.G.G.G.G.G.G.G.G.G.G.G.G.G.G.G.G.G.G.G.G.G.G.G.G.G.G.G.G.G.G.G.G.G.G.G.G.G.G.G.G.G.G.G.G.G.G.G.G.G.G.G.G.G.G.G.G.",
"G.G.G.G.G.G.G.G.G.G.G.G.G.G.G.G.G.G.G.G.G.G.G.G.G.G.G.G.G.G.G.G.G.G.G.G.G.G.G.G.G.G.G.G.G.G.G.G.G.G.G.G.G.G.G.G.G.G.G.G.G.G.G.G.G.G.G.G.G.G.",
"G.G.G.G.G.G.G.G.G.G.G.G.G.G.G.G.G.G.G.G.G.G.G.G.G.G.G.G.G.G.G.G.G.G.G.G.G.G.G.G.G.G.G.G.G.G.G.G.G.G.G.G.G.G.G.G.G.G.G.G.G.G.G.G.G.G.G.G.G.G."
};
