/* XPM */
static char *result[] = {
/* columns rows colors chars-per-pixel */
"70 70 156 2 ",
"   c #000000",
".  c #0C0101",
"X  c #0C0906",
"o  c #03060A",
"O  c #05090E",
"+  c #0B0A0A",
"@  c #140405",
"#  c #1A0406",
"$  c #1A1309",
"%  c #050C13",
"&  c #09121B",
"*  c #141313",
"=  c #1A1A1A",
"-  c #1B1713",
";  c #240000",
":  c #270709",
">  c #31090C",
",  c #330000",
"<  c #211C17",
"1  c #2A231C",
"2  c #0D1B29",
"3  c #10202F",
"4  c #112132",
"5  c #132639",
"6  c #232323",
"7  c #2F2A27",
"8  c gray17",
"9  c #332F2A",
"0  c #35312E",
"q  c gray21",
"w  c #420000",
"e  c #510000",
"r  c #420C11",
"t  c #5D0D11",
"y  c #640000",
"u  c #740000",
"i  c #7A0000",
"p  c #75151C",
"a  c #781219",
"s  c #772800",
"d  c #563230",
"f  c #5A421F",
"g  c #5A4320",
"h  c #514336",
"j  c #5C4C3C",
"k  c #604822",
"l  c #7E5D2B",
"z  c #7F602E",
"x  c #0A2C4F",
"c  c #0B2F53",
"v  c #0B3055",
"b  c #0C3359",
"n  c #1E3B59",
"m  c #113E6B",
"M  c #214263",
"N  c #25486B",
"B  c #274E75",
"V  c #2C567F",
"C  c #4C4946",
"Z  c #5C5C5C",
"A  c #675E55",
"S  c #686868",
"D  c #77706A",
"F  c #797979",
"G  c gray45",
"H  c #8A0200",
"J  c #980000",
"K  c #80191F",
"L  c #A00000",
"P  c #B80000",
"I  c #BC0D12",
"U  c #AD151C",
"Y  c #9A3300",
"T  c #841920",
"R  c #8A1A22",
"E  c #951B24",
"W  c #9D1D27",
"Q  c #A21C25",
"!  c #A41F28",
"~  c #AD2029",
"^  c #B3222B",
"/  c #CB0607",
"(  c #D50000",
")  c #D90E06",
"_  c #DF1400",
"`  c #E21A00",
"'  c #E82600",
"]  c #EC2E00",
"[  c #EF3400",
"{  c #F33C00",
"}  c #A97D3A",
"|  c #ED4A00",
" . c #FA4B00",
".. c #FE5400",
"X. c #FE5E10",
"o. c #9C5A57",
"O. c #C8736F",
"+. c #CF7773",
"@. c #B98A41",
"#. c #C28F43",
"$. c #CF9A48",
"%. c #D79E49",
"&. c #FE9059",
"*. c #EDAE51",
"=. c #FF9968",
"-. c #C7A27E",
";. c #2C5680",
":. c #30608F",
">. c #326495",
",. c #336699",
"<. c #37699B",
"1. c #386FA6",
"2. c #3B75AF",
"3. c #3C76B0",
"4. c #4682BE",
"5. c #8D8D8D",
"6. c #9B8F82",
"7. c #9B9B9B",
"8. c gray59",
"9. c #A99C8E",
"0. c #A4A4A4",
"q. c #AEAEAE",
"w. c #AFA7A5",
"e. c gray70",
"r. c gray74",
"t. c #FF938E",
"y. c #FF9E90",
"u. c #FFA099",
"i. c #FDBD97",
"p. c #FFB7AC",
"a. c #FFCC99",
"s. c #FFD5A9",
"d. c #FFC9B7",
"f. c #FFDAB5",
"g. c #C5C5C5",
"h. c #CCCCCC",
"j. c #CCC6C7",
"k. c #D4D4D4",
"l. c #EDDAC6",
"z. c #EFDBC8",
"x. c #FFDDCA",
"c. c #F4D8D8",
"v. c #F6E2CE",
"b. c #FDE5CD",
"n. c #FFE3C7",
"m. c #FFEAD5",
"M. c #FFECD9",
"N. c #E6E6E6",
"B. c #ECECEC",
"V. c #EBE4E4",
"C. c #FEEDE5",
"Z. c #FFF2EC",
"A. c #F3F3F3",
"S. c #FEFEFE",
"D. c #FFF8F1",
"F. c None",
/* pixels */
"F.F.F.F.F.F.F.F.F.F.F.F.F.F.F.F.F.F.F.F.F.F.F.F.F.F.F.F.F.F.F.F.F.F.F.F.F.F.F.F.F.F.F.F.F.F.F.F.F.F.F.F.F.F.F.F.F.F.F.F.F.F.F.F.F.F.F.F.F.F.",
"F.F.F.F.F.F.F.F.F.F.F.F.F.F.F.F.F.F.F.F.F.F.F.F.F.F.F.F.F.F.F.F.F.F.F.F.F.F.F.F.F.F.F.F.F.F.F.F.F.F.F.F.F.F.F.F.F.F.F.F.F.F.F.F.F.F.F.F.F.F.",
"F.F.F.F.F.F.F.F.F.F.F.F.F.F.F.F.F.F.F.F.F.F.F.F.F.F.F.F.F.F.F.F.F.F.F.F.F.F.F.F.F.F.F.F.F.F.F.F.F.F.F.F.F.F.F.F.F.F.F.F.F.F.F.F.F.F.F.F.F.F.",
"F.F.F.F.F.F.F.F.F.F.F.F.F.F.F.F.F.F.F.F.F.F.F.F.F.F.F.F.F.F.F.F.F.F.F.F.      F.F.F.F.F.F.F.F.F.F.F.F.F.F.F.F.F.F.F.F.F.F.F.F.F.F.F.F.F.F.F.",
"F.F.F.F.F.F.F.F.F.F.F.F.F.F.F.F.F.F.F.F.F.F.F.F.F.F.F.F.F.F.F.F.F.F.  w ( ( (     F.F.F.F.F.F.F.F.F.F.F.F.F.F.F.F.F.F.F.F.F.F.F.F.F.F.F.F.F.",
"F.F.F.F.F.F.F.F.F.F.F.F.F.F.F.F.F.F.F.F.F.F.F.F.F.F.F.F.F.F.F.F.    ( ....=.d.(   F.F.F.F.F.F.F.F.F.F.F.F.F.F.F.F.F.F.F.F.F.F.F.F.F.F.F.F.F.",
"F.F.F.F.F.F.F.F.F.F.F.F.F.F.F.F.F.F.F.F.F.F.F.F.F.F.F.F.F.F.F.  ; ) ..Z.S.S.S.S.c.  F.F.F.F.F.F.F.F.F.F.F.F.F.F.F.F.F.F.F.F.F.F.F.F.F.F.F.F.",
"F.F.F.F.F.F.F.F.F.F.F.F.F.F.F.F.F.F.F.F.F.F.F.F.F.F.F.F.F.F.  . ` ..S.S.S.S.A.A.S.. F.F.F.F.F.F.F.F.F.F.F.F.F.F.F.F.F.F.F.F.F.F.F.F.F.F.F.F.",
"F.F.F.F.F.F.F.F.F.F.F.F.F.F.F.F.F.F.F.F.F.F.F.F.F.F.    F.F.  ( ..S.S.S.A.A.A.A.S.V.  F.F.F.F.F.F.F.F.F.F.F.F.F.F.F.F.F.F.F.F.F.F.F.F.F.F.F.",
"F.F.F.F.F.F.F.F.F.F.F.F.F.F.F.F.F.F.F.F.F.F.F.F.  . { { ,   ( ..S.A.A.A.A.A.A.A.A.A.  F.F.F.F.F.F.F.F.F.F.F.F.F.F.F.F.F.F.F.F.F.F.F.F.F.F.F.",
"F.F.F.F.F.F.F.F.F.F.F.F.F.F.F.F.F.F.F.F.F.F.F.F.  ......  ( ..S.A.A.A.A.A.A.A.A.B.A.  F.F.F.F.F.F.F.F.F.F.F.F.F.F.F.F.F.F.F.F.F.F.F.F.F.F.F.",
"F.F.F.F.F.F.F.F.F.F.F.F.F.F.F.F.F.F.F.F.F.F.F.  ( ( H   ( ..S.A.A.A.A.A.B.A.B.B.A.B.  F.F.F.F.F.F.F.F.F.F.F.F.F.F.F.F.F.F.F.F.F.F.F.F.F.F.F.",
"F.F.F.F.F.F.F.F.F.F.F.F.F.F.F.F.F.F.F.F.F.F.F.  :   ;  .&.S.A.A.A.B.B.A.A.B.B.B.B.B.  F.F.F.F.F.F.F.F.F.F.F.F.F.F.F.F.F.F.F.F.F.F.F.F.F.F.F.",
"F.F.F.F.F.F.F.F.F.F.F.F.F.F.F.F.F.F.F.F.F.F.    e ' ..S.B.B.A.B.A.B.B.B.B.B.B.B.B.h.8 F.F.F.F.F.F.F.F.F.F.F.F.F.F.F.F.F.F.F.F.F.F.F.F.F.F.F.",
"F.F.F.F.F.F.F.F.F.F.F.F.F.F.F.F.F.F.F.F.    H ' ..C.S.B.A.B.B.B.A.B.B.B.B.B.B.h.q.      F.F.F.F.F.F.F.F.F.F.F.F.F.F.F.F.F.F.F.F.F.F.F.F.F.F.",
"F.F.F.F.F.F.F.F.F.F.F.F.F.F.F.F.F.F.F.  i ] ..X.S.B.B.B.B.B.N.B.N.B.B.N.N.h.+   @ W ^   F.F.F.F.F.F.F.F.F.F.F.F.F.F.F.F.F.F.F.F.F.F.F.F.F.F.",
"F.F.F.F.F.F.F.F.F.F.F.F.F.F.F.F.F.  . _ ......B.B.B.B.B.B.B.B.B.N.N.h.0.    T ~ ~ T T     F.F.F.F.F.F.F.F.F.F.F.F.F.F.F.F.F.F.F.F.F.F.F.F.F.",
"F.F.F.F.F.F.F.F.F.F.F.F.F.F.F.F.  i ......( ( B.B.B.B.N.N.N.N.h.h.*   @ ~ ^ W ~ >     ( u   F.F.F.F.F.F.F.F.F.F.F.F.F.F.F.F.F.F.F.F.F.F.F.F.",
"F.F.F.F.F.F.F.F.F.F.F.F.F.F.F.F.. W ( ( ( ( ( N.N.N.N.k.h.h.8.    T ^ ! W W     s ......[ (   F.F.F.F.F.F.F.F.F.F.F.F.F.F.F.F.F.F.F.F.F.F.F.",
"F.F.F.F.F.F.F.F.F.F.F.F.F.F.F.  W W W W W W ~ j.h.h.h.h.o   # ^ ^ W W >     ..............{ (   F.F.F.F.F.F.F.F.F.F.F.F.F.F.F.F.F.F.F.F.F.F.",
"F.F.F.F.F.F.F.F.F.F.F.F.F.F.F.  W W W W W W W W h.F     E ^ ! W W     Y ....................( (   F.F.F.F.F.F.F.F.F.F.F.F.F.F.F.F.F.F.F.F.F.",
"F.F.F.F.F.F.F.F.F.F.F.F.F.F.F.F.  W W W W W W     > ~ ^ W W #     ` ..........................( P   F.F.F.F.F.F.F.F.F.F.F.F.F.F.F.F.F.F.F.F.",
"F.F.F.F.F.F.F.F.F.F.F.F.F.F.F.F.  . W W R     R ^ R T K     H ( ( ( ( ( ( { ................( ( (   F.F.F.F.F.F.F.F.F.F.F.F.F.F.F.F.F.F.F.F.",
"F.F.F.F.F.F.F.F.F.F.F.F.F.F.F.F.F.        ^ ~ T K :     / ( ( ( ( ( ( ( ( ( ( ( ( ( ( ( ( ( ( ( (   F.F.F.F.F.F.F.F.F.F.F.F.F.F.F.F.F.F.F.F.",
"F.F.F.F.F.F.F.F.F.F.F.F.F.F.F.F.F.F.F.F.  T p     } %.  # W U ( ( ( ( ( ( ( ( ( ( ( ( ( ( ( ( /   F.F.F.F.F.F.F.F.F.F.F.F.F.F.F.F.F.F.F.F.F.",
"F.F.F.F.F.F.F.F.F.F.F.F.F.F.F.F.F.F.F.F.F.  $ *.*.*.*.*.}     p W W I ( ( ( ( ( ( ( ( ( ( Q W     F.F.F.F.F.F.F.F.F.F.F.F.F.F.F.F.F.F.F.F.F.",
"F.F.F.F.F.F.F.F.F.F.F.F.F.F.F.F.F.F.F.F.F.  *.*.*.*.*.*.@.l *.f       # a E W W W W W t       F.F.F.F.F.F.F.F.F.F.F.F.F.F.F.F.F.F.F.F.F.F.F.",
"F.F.F.F.F.F.F.F.F.F.F.F.F.F.F.F.F.F.F.F.F.  #.k g *.*.*.  $.@.  0 X *.%.  -         9   F.F.F.F.F.F.F.F.F.F.F.F.F.F.F.F.F.F.F.F.F.F.F.F.F.F.",
"F.F.F.F.F.F.F.F.F.F.F.F.F.F.F.F.F.F.F.F.F.    h.e.  *.X A   = S.7     z.m.l.    6.S.D.  F.F.F.F.F.F.F.F.F.F.F.F.F.F.F.F.F.F.F.F.F.F.F.F.F.F.",
"F.F.F.F.F.F.F.F.F.F.F.F.F.F.F.F.F.F.F.F.F.  m.m.n.  } 9.m.  = 8 = m.m.m.m.m.m.m.  S.6   F.F.F.F.F.F.F.F.F.F.F.F.F.F.F.F.F.F.F.F.F.F.F.F.F.F.",
"F.F.F.F.F.F.F.F.F.F.F.F.F.F.F.F.F.F.F.F.  S.m.a.a.  l.m.m.O = = = m.m.m.m.m.m.m.  = *     F.F.F.F.F.F.F.F.F.F.F.F.F.F.F.F.F.F.F.F.F.F.F.F.F.",
"F.F.F.F.F.F.F.F.F.F.F.F.F.F.F.F.F.F.F.F.  M.m.a.a.a.v.m.m.  = = = m.m.u.t.S.p.m.  = +     F.F.F.F.F.F.F.F.F.F.F.F.F.F.F.F.F.F.F.F.F.F.F.F.F.",
"F.F.F.F.F.F.F.F.F.F.F.F.F.F.F.F.F.F.F.F.  D m.a.a.a.n.m.m.    =   m.O.t.t.t.t.o.  = C     F.F.F.F.F.F.F.F.F.F.F.F.F.F.F.F.F.F.F.F.F.F.F.F.F.",
"F.F.F.F.F.F.F.F.F.F.F.F.F.F.F.F.F.F.F.F.F.  z.m.a.a.a.b.d.x.    m.l.t.t.t.t.t.t.9   m.    F.F.F.F.F.F.F.F.F.F.F.F.F.F.F.F.F.F.F.F.F.F.F.F.F.",
"F.F.F.F.F.F.F.F.F.F.F.F.F.F.F.F.F.F.F.F.F.F.      j a.y.t.t.t.m.m.m.. o.t.t.+.  s.S.t.d F.F.F.F.F.F.F.F.F.F.F.F.F.F.F.F.F.F.F.F.F.F.F.F.F.F.",
"F.F.F.F.F.F.F.F.F.F.F.F.F.F.F.F.F.F.F.F.F.F.F.F.F.      h i.a.a.a.s.f.s.a.a.a.a.h     F.F.F.F.F.F.F.F.F.F.F.F.F.F.F.F.F.F.F.F.F.F.F.F.F.F.F.",
"F.F.F.F.F.F.F.F.F.F.F.F.F.F.F.F.F.F.F.F.F.F.F.F.F.F.F.F.  +         + - <       F.F.F.F.F.F.F.F.F.F.F.F.F.F.F.F.F.F.F.F.F.F.F.F.F.F.F.F.F.F.",
"F.F.F.F.F.F.F.F.F.F.F.F.F.F.F.F.F.F.F.F.F.F.F.F.F.F.  F q   ,.>.>.k.S.S.B     F.F.F.F.F.F.F.F.F.F.F.F.F.F.F.F.F.F.F.F.F.F.F.F.F.F.F.F.F.F.F.",
"F.F.F.F.F.F.F.F.F.F.F.F.F.F.F.F.F.F.F.F.F.F.F.F.F.  N.S.S.B.& ,.,.        ,.  F.F.F.F.F.F.F.F.F.F.F.F.F.F.F.F.F.F.F.F.F.F.F.F.F.F.F.F.F.F.F.",
"F.F.F.F.F.F.F.F.F.F.F.F.F.F.F.F.F.F.F.F.F.F.F.F.F.  N.S.S.S.  ,.,.,.,.,.,.N   F.F.F.F.F.F.F.F.F.F.F.F.F.F.F.F.F.F.F.F.F.F.F.F.F.F.F.F.F.F.F.",
"F.F.F.F.F.F.F.F.F.F.F.F.F.F.F.F.F.F.F.F.F.F.F.F.F.  N.S.S.S.k.2     o <.4.2.  F.F.F.F.F.F.F.F.F.F.F.F.F.F.F.F.F.F.F.F.F.F.F.F.F.F.F.F.F.F.F.",
"F.F.F.F.F.F.F.F.F.F.F.F.F.F.F.F.F.F.F.F.F.F.F.F.F.F.7.N.S.0.  %   m.m.* 3 1.    F.F.F.F.F.F.F.F.F.F.F.F.F.F.F.F.F.F.F.F.F.F.F.F.F.F.F.F.F.F.",
"F.F.F.F.F.F.F.F.F.F.F.F.F.F.F.F.F.F.F.F.F.F.F.F.F.F.  F   v.m.7 m.m.S.m.  2.    F.F.F.F.F.F.F.F.F.F.F.F.F.F.F.F.F.F.F.F.F.F.F.F.F.F.F.F.F.F.",
"F.F.F.F.F.F.F.F.F.F.F.F.F.F.F.F.F.F.F.F.F.F.F.F.F.F.    a.m.m.m.m.m.m.a.  2.N   F.F.F.F.F.F.F.F.F.F.F.F.F.F.F.F.F.F.F.F.F.F.F.F.F.F.F.F.F.F.",
"F.F.F.F.F.F.F.F.F.F.F.F.F.F.F.F.F.F.F.F.F.F.F.F.F.F.  V   a.m.m.m.m.a.-.5 2.B % F.F.F.F.F.F.F.F.F.F.F.F.F.F.F.F.F.F.F.F.F.F.F.F.F.F.F.F.F.F.",
"F.F.F.F.F.F.F.F.F.F.F.F.F.F.F.F.F.F.F.F.F.F.F.F.F.F.  N M + a.a.a.a.-.  4 o 4 o F.F.F.F.F.F.F.F.F.F.F.F.F.F.F.F.F.F.F.F.F.F.F.F.F.F.F.F.F.F.",
"F.F.F.F.F.F.F.F.F.F.F.F.F.F.F.F.F.F.F.F.F.F.F.F.F.F.F.o ;.n   1 1   & ,.>.;.V     F.F.F.F.F.F.F.F.F.F.F.F.F.F.F.F.F.F.F.F.F.F.F.F.F.F.F.F.F.",
"F.F.F.F.F.F.F.F.F.F.F.F.F.F.F.F.F.F.F.F.F.F.F.F.F.  B V ,.,.,.V ;.;.V V ;.;.  % m   F.F.F.F.F.F.F.F.F.F.F.F.F.F.F.F.F.F.F.F.F.F.F.F.F.F.F.F.",
"F.F.F.F.F.F.F.F.F.F.F.F.F.F.F.F.F.F.F.              ;.,.,.,.2.;.;.;.V M     m m m x   F.F.        F.F.F.F.F.F.F.F.F.F.F.F.F.F.F.F.F.F.F.F.F.",
"F.F.F.F.F.F.F.F.F.F.F.F.F.F.F.F.F.F.  h.* J ) ( |     :.,.,.,.          v b m m v   e.    e.g.e.5.  F.F.F.F.F.F.F.F.F.F.F.F.F.F.F.F.F.F.F.F.",
"F.F.F.F.F.F.F.F.F.F.F.F.F.F.F.F.F.F.F.= S.    y (   r.o >.,.o F.F.F.F.F.  v v b   G     q.r.g.q.e.q.  F.F.F.F.F.F.F.F.F.F.F.F.F.F.F.F.F.F.F.",
"F.F.F.F.F.F.F.F.F.F.F.F.F.F.F.F.F.F.F.  N.  h.5.        O % F.F.F.F.F.F.F.  v     .   q.q.q.q.q..   q.  F.F.F.F.F.F.F.F.F.F.F.F.F.F.F.F.F.F.",
"F.F.F.F.F.F.F.F.F.F.F.F.F.F.F.F.F.F.F.  N.S G N.N.q.    F.F.F.F.F.F.F.F.F.F.      L   q.q.q.Z   0.g.C   F.F.F.F.F.F.F.F.F.F.F.F.F.F.F.F.F.F.",
"F.F.F.F.F.F.F.F.F.F.F.F.F.F.F.F.F.F.F.F.  N.  N.N.N.* F.F.F.F.F.F.F.F.F.F.F.F.  q.L   7.7.  = q.0.    F.F.F.F.F.F.F.F.F.F.F.F.F.F.F.F.F.F.F.",
"F.F.F.F.F.F.F.F.F.F.F.F.F.F.F.F.F.F.F.F.  N.  N.N.A.N.  F.F.F.F.F.F.F.F.F.F.F.  w.L   .   r.q.o   F.F.F.F.F.F.F.F.F.F.F.F.F.F.F.F.F.F.F.F.F.",
"F.F.F.F.F.F.F.F.F.F.F.F.F.F.F.F.F.F.F.F.  g.h.8 N.S.S.  F.F.F.F.F.F.F.F.F.F.F.F.  w   0.q.Z   F.F.F.F.F.F.F.F.F.F.F.F.F.F.F.F.F.F.F.F.F.F.F.",
"F.F.F.F.F.F.F.F.F.F.F.F.F.F.F.F.F.F.F.F.F.  N.  N.A.h.  F.F.F.F.F.F.F.F.F.F.F.F.  + q.q.    F.F.F.F.F.F.F.F.F.F.F.F.F.F.F.F.F.F.F.F.F.F.F.F.",
"F.F.F.F.F.F.F.F.F.F.F.F.F.F.F.F.F.F.F.F.F.  S.X N.N.  F.F.F.F.F.F.F.F.F.F.F.F.F.  6     F.F.F.F.F.F.F.F.F.F.F.F.F.F.F.F.F.F.F.F.F.F.F.F.F.F.",
"F.F.F.F.F.F.F.F.F.F.F.F.F.F.F.F.F.F.F.F.F.F.5.S.+     F.F.F.F.F.F.F.F.F.F.F.F.F.F.  F.F.F.F.F.F.F.F.F.F.F.F.F.F.F.F.F.F.F.F.F.F.F.F.F.F.F.F.",
"F.F.F.F.F.F.F.F.F.F.F.F.F.F.F.F.F.F.F.F.F.F.  q.  F.F.F.F.F.F.F.F.F.F.F.F.F.F.F.F.F.F.F.F.F.F.F.F.F.F.F.F.F.F.F.F.F.F.F.F.F.F.F.F.F.F.F.F.F.",
"F.F.F.F.F.F.F.F.F.F.F.F.F.F.F.F.F.F.F.F.F.F.    F.F.F.F.F.F.F.F.F.F.F.F.F.F.F.F.F.F.F.F.F.F.F.F.F.F.F.F.F.F.F.F.F.F.F.F.F.F.F.F.F.F.F.F.F.F.",
"F.F.F.F.F.F.F.F.F.F.F.F.F.F.F.F.F.F.F.F.F.F.F.F.F.F.F.F.F.F.F.F.F.F.F.F.F.F.F.F.F.F.F.F.F.F.F.F.F.F.F.F.F.F.F.F.F.F.F.F.F.F.F.F.F.F.F.F.F.F.",
"F.F.F.F.F.F.F.F.F.F.F.F.F.F.F.F.F.F.F.F.F.F.F.F.F.F.F.F.F.F.F.F.F.F.F.F.F.F.F.F.F.F.F.F.F.F.F.F.F.F.F.F.F.F.F.F.F.F.F.F.F.F.F.F.F.F.F.F.F.F.",
"F.F.F.F.F.F.F.F.F.F.F.F.F.F.F.F.F.F.F.F.F.F.F.F.F.F.F.F.F.F.F.F.F.F.F.F.F.F.F.F.F.F.F.F.F.F.F.F.F.F.F.F.F.F.F.F.F.F.F.F.F.F.F.F.F.F.F.F.F.F.",
"F.F.F.F.F.F.F.F.F.F.F.F.F.F.F.F.F.F.F.F.F.F.F.F.F.F.F.F.F.F.F.F.F.F.F.F.F.F.F.F.F.F.F.F.F.F.F.F.F.F.F.F.F.F.F.F.F.F.F.F.F.F.F.F.F.F.F.F.F.F.",
"F.F.F.F.F.F.F.F.F.F.F.F.F.F.F.F.F.F.F.F.F.F.F.F.F.F.F.F.F.F.F.F.F.F.F.F.F.F.F.F.F.F.F.F.F.F.F.F.F.F.F.F.F.F.F.F.F.F.F.F.F.F.F.F.F.F.F.F.F.F.",
"F.F.F.F.F.F.F.F.F.F.F.F.F.F.F.F.F.F.F.F.F.F.F.F.F.F.F.F.F.F.F.F.F.F.F.F.F.F.F.F.F.F.F.F.F.F.F.F.F.F.F.F.F.F.F.F.F.F.F.F.F.F.F.F.F.F.F.F.F.F.",
"F.F.F.F.F.F.F.F.F.F.F.F.F.F.F.F.F.F.F.F.F.F.F.F.F.F.F.F.F.F.F.F.F.F.F.F.F.F.F.F.F.F.F.F.F.F.F.F.F.F.F.F.F.F.F.F.F.F.F.F.F.F.F.F.F.F.F.F.F.F.",
"F.F.F.F.F.F.F.F.F.F.F.F.F.F.F.F.F.F.F.F.F.F.F.F.F.F.F.F.F.F.F.F.F.F.F.F.F.F.F.F.F.F.F.F.F.F.F.F.F.F.F.F.F.F.F.F.F.F.F.F.F.F.F.F.F.F.F.F.F.F.",
"F.F.F.F.F.F.F.F.F.F.F.F.F.F.F.F.F.F.F.F.F.F.F.F.F.F.F.F.F.F.F.F.F.F.F.F.F.F.F.F.F.F.F.F.F.F.F.F.F.F.F.F.F.F.F.F.F.F.F.F.F.F.F.F.F.F.F.F.F.F."
};
