/* XPM */
static char *result[] = {
/* columns rows colors chars-per-pixel */
"70 70 166 2 ",
"   c #000000",
".  c #0B0303",
"X  c #0B0904",
"o  c #0C0C0C",
"O  c #02080E",
"+  c #130202",
"@  c #140805",
"#  c #16120E",
"$  c #060D14",
"%  c #040F19",
"&  c #09121B",
"*  c gray7",
"=  c #1A1A1A",
"-  c #1A1111",
";  c #220000",
":  c #220608",
">  c #2D0507",
",  c #330000",
"<  c #3B0507",
"1  c #211C18",
"2  c #2B241D",
"3  c #362913",
"4  c #0E1C2A",
"5  c #0C1824",
"6  c #13273A",
"7  c #152A3F",
"8  c #232323",
"9  c #2D2D2D",
"0  c #322E2A",
"q  c gray21",
"w  c #4E0000",
"e  c #530000",
"r  c #4E0F12",
"t  c #500F14",
"y  c #5A1115",
"u  c #610100",
"i  c #680000",
"p  c #7B161D",
"a  c #6C141A",
"s  c #422F2F",
"d  c #433D38",
"f  c #584A3C",
"g  c #684E25",
"h  c #172C42",
"j  c #19314A",
"k  c #0B3055",
"l  c #1C3956",
"z  c #1D3A58",
"x  c #0A2A4B",
"c  c #213F5E",
"v  c #113E6B",
"b  c #254A6D",
"n  c #234669",
"m  c #254A70",
"M  c #2A527B",
"N  c #4A4A4A",
"B  c gray27",
"V  c #7C4F4B",
"C  c #6B5952",
"Z  c #6A5746",
"A  c #71675D",
"S  c #646363",
"D  c #6A6765",
"F  c #7C6660",
"G  c #7A7066",
"H  c #747474",
"J  c #7B7B7B",
"K  c #830101",
"L  c #8A141B",
"P  c #A00000",
"I  c #A80707",
"U  c #BF0000",
"Y  c #BA0E13",
"T  c #A9161F",
"R  c #B21218",
"E  c #8F2F00",
"W  c #831920",
"Q  c #881922",
"!  c #9D1D27",
"~  c #A51D27",
"^  c #AD212A",
"/  c #B3222B",
"(  c #CC0000",
")  c #C20A0D",
"_  c #C80709",
"`  c #D50000",
"'  c #DC0E00",
"]  c #D60C0C",
"[  c #E41D00",
"{  c #C32C00",
"}  c #EA2A00",
"|  c #E82700",
" . c #ED3000",
".. c #DB3836",
"X. c #825F2C",
"o. c #D74700",
"O. c #FA4B00",
"+. c #FE5400",
"@. c #FF6A22",
"#. c #FE7937",
"$. c #834B49",
"%. c #B05F66",
"&. c #81776C",
"*. c #AA7575",
"=. c #B1853F",
"-. c #BD8E43",
";. c #92867A",
":. c #AA8E72",
">. c #CE9747",
",. c #D59E4A",
"<. c #E3A64D",
"1. c #EDAE51",
"2. c #F2C261",
"3. c #2C5680",
"4. c #2F5D8C",
"5. c #305F8E",
"6. c #306192",
"7. c #336699",
"8. c #35699D",
"9. c #376EA4",
"0. c #3B75AE",
"q. c #3870A7",
"w. c #3D78B2",
"e. c #417DB7",
"r. c #4480BC",
"t. c #4784C0",
"y. c gray52",
"u. c #978F87",
"i. c #9F9284",
"p. c #939393",
"a. c #9C9494",
"s. c #AB9D8F",
"d. c #A4A4A4",
"f. c #AFAFAF",
"g. c #B3B1AF",
"h. c #B5B5B5",
"j. c #BBBBBB",
"k. c #E18484",
"l. c #FF938E",
"z. c #FF9C93",
"x. c #F48D88",
"c. c #CEA780",
"v. c #D3AA80",
"b. c #DFB58A",
"n. c #C7B7A7",
"m. c #FFB5A7",
"M. c #FFCC99",
"N. c #FFD2A5",
"B. c #FFC2BF",
"V. c #FFD8B1",
"C. c #C4C4C4",
"Z. c #CCCCCC",
"A. c #D3D3D3",
"S. c #D9D9D9",
"D. c #EEDAC7",
"F. c #F2DECA",
"G. c #FDE4CE",
"H. c #F5E1CD",
"J. c #FDE6D2",
"K. c #FFEAD5",
"L. c #E6E5E5",
"P. c #ECECEC",
"I. c #F3F3F3",
"U. c #FEFEFE",
"Y. c #FFF8F0",
"T. c None",
/* pixels */
"T.T.T.T.T.T.T.T.T.T.T.T.T.T.T.T.T.T.T.T.T.T.T.T.T.T.T.T.T.T.T.T.T.T.T.T.T.T.T.T.T.T.T.T.T.T.T.T.T.T.T.T.T.T.T.T.T.T.T.T.T.T.T.T.T.T.T.T.T.T.",
"T.T.T.T.T.T.T.T.T.T.T.T.T.T.T.T.T.T.T.T.T.T.T.T.T.T.T.T.T.T.T.T.T.T.T.T.T.T.T.T.T.T.T.T.T.T.T.T.T.T.T.T.T.T.T.T.T.T.T.T.T.T.T.T.T.T.T.T.T.T.",
"T.T.T.T.T.T.T.T.T.T.T.T.T.T.T.T.T.T.T.T.T.T.T.T.T.T.T.T.T.T.T.T.T.T.T.T.T.T.T.T.T.T.T.T.T.T.T.T.T.T.T.T.T.T.T.T.T.T.T.T.T.T.T.T.T.T.T.T.T.T.",
"T.T.T.T.T.T.T.T.T.T.T.T.T.T.T.T.T.T.T.T.T.T.T.T.T.T.T.T.T.T.T.T.T.T.T.T.T.T.T.T.T.T.T.T.T.T.T.T.T.T.T.T.T.T.T.T.T.T.T.T.T.T.T.T.T.T.T.T.T.T.",
"T.T.T.T.T.T.T.T.T.T.T.T.T.T.T.T.T.T.T.T.T.T.T.T.T.T.T.T.T.T.T.T.T.T.T.T.T.T.T.T.T.T.T.T.T.T.T.T.T.T.T.T.T.T.T.T.T.T.T.T.T.T.T.T.T.T.T.T.T.T.",
"T.T.T.T.T.T.T.T.T.T.T.T.T.T.T.T.T.T.T.T.T.T.T.T.T.T.T.T.T.T.T.T.T.T.T.      .   T.T.T.T.T.T.T.T.T.T.T.T.T.T.T.T.T.T.T.T.T.T.T.T.T.T.T.T.T.T.",
"T.T.T.T.T.T.T.T.T.T.T.T.T.T.T.T.T.T.T.T.T.T.T.T.T.T.T.T.T.T.T.T.T.    ` ' +.+.`   T.T.T.T.T.T.T.T.T.T.T.T.T.T.T.T.T.T.T.T.T.T.T.T.T.T.T.T.T.",
"T.T.T.T.T.T.T.T.T.T.T.T.T.T.T.T.T.T.T.T.T.T.T.T.T.T.T.T.T.T.T.T.  ; ` +.#.U.U.U.]   T.T.T.T.T.T.T.T.T.T.T.T.T.T.T.T.T.T.T.T.T.T.T.T.T.T.T.T.",
"T.T.T.T.T.T.T.T.T.T.T.T.T.T.T.T.T.T.T.T.T.T.T.T.T.T.T.T.T.T.T.  ; [ +.U.U.U.U.U.I.s T.T.T.T.T.T.T.T.T.T.T.T.T.T.T.T.T.T.T.T.T.T.T.T.T.T.T.T.",
"T.T.T.T.T.T.T.T.T.T.T.T.T.T.T.T.T.T.T.T.T.T.T.T.T.T.T.T.T.T.T.  ' +.U.U.U.U.I.I.I.I.  T.T.T.T.T.T.T.T.T.T.T.T.T.T.T.T.T.T.T.T.T.T.T.T.T.T.T.",
"T.T.T.T.T.T.T.T.T.T.T.T.T.T.T.T.T.T.T.T.T.T.T.T.T.T.      T.  ` +.U.U.I.I.I.I.I.I.I.  T.T.T.T.T.T.T.T.T.T.T.T.T.T.T.T.T.T.T.T.T.T.T.T.T.T.T.",
"T.T.T.T.T.T.T.T.T.T.T.T.T.T.T.T.T.T.T.T.T.T.T.T.    +.+.'   ` +.U.I.I.I.I.I.I.I.I.I.- T.T.T.T.T.T.T.T.T.T.T.T.T.T.T.T.T.T.T.T.T.T.T.T.T.T.T.",
"T.T.T.T.T.T.T.T.T.T.T.T.T.T.T.T.T.T.T.T.T.T.T.T.  ` +.+.  U +.U.I.I.I.I.I.I.I.I.I.I.a.T.T.T.T.T.T.T.T.T.T.T.T.T.T.T.T.T.T.T.T.T.T.T.T.T.T.T.",
"T.T.T.T.T.T.T.T.T.T.T.T.T.T.T.T.T.T.T.T.T.T.T.T.  ` i   ( +.U.I.I.I.I.P.I.P.I.P.P.P.P.  T.T.T.T.T.T.T.T.T.T.T.T.T.T.T.T.T.T.T.T.T.T.T.T.T.T.",
"T.T.T.T.T.T.T.T.T.T.T.T.T.T.T.T.T.T.T.T.T.T.T.T.    , O.@.U.I.P.I.I.P.I.P.I.P.P.P.P.Z.  T.T.T.T.T.T.T.T.T.T.T.T.T.T.T.T.T.T.T.T.T.T.T.T.T.T.",
"T.T.T.T.T.T.T.T.T.T.T.T.T.T.T.T.T.T.T.T.T.T.    w [ +.U.P.I.P.I.P.P.P.P.P.P.P.P.L.Z.S   T.T.T.T.T.T.T.T.T.T.T.T.T.T.T.T.T.T.T.T.T.T.T.T.T.T.",
"T.T.T.T.T.T.T.T.T.T.T.T.T.T.T.T.T.T.T.T.T.  e [ +.J.I.I.P.P.P.P.P.P.P.P.P.P.L.Z.    r >   T.T.T.T.T.T.T.T.T.T.T.T.T.T.T.T.T.T.T.T.T.T.T.T.T.",
"T.T.T.T.T.T.T.T.T.T.T.T.T.T.T.T.T.T.T.  + ' +.+.U.P.P.P.P.P.P.P.P.P.L.P.A.y.    ! / W W   T.T.T.T.T.T.T.T.T.T.T.T.T.T.T.T.T.T.T.T.T.T.T.T.T.",
"T.T.T.T.T.T.T.T.T.T.T.T.T.T.T.T.T.T.  ` +.+.+...P.P.P.P.P.P.L.P.P.S.Z.=   : ^ ^ ! ! +   ,   T.T.T.T.T.T.T.T.T.T.T.T.T.T.T.T.T.T.T.T.T.T.T.T.",
"T.T.T.T.T.T.T.T.T.T.T.T.T.T.T.T.T.  } +.+.` ` k.P.P.P.L.L.P.A.Z.j.    p ^ ^ ! Q     o.+.} (   T.T.T.T.T.T.T.T.T.T.T.T.T.T.T.T.T.T.T.T.T.T.T.",
"T.T.T.T.T.T.T.T.T.T.T.T.T.T.T.T.  ! ~ ` ` ` ` ] P.L.L.Z.Z.Z.N   . ~ / ! ! >   . +.+.+.+.+.+.`   T.T.T.T.T.T.T.T.T.T.T.T.T.T.T.T.T.T.T.T.T.T.",
"T.T.T.T.T.T.T.T.T.T.T.T.T.T.T.T.  ! ! ! ! ! ! ! Z.Z.Z.Z.    t / ~ ! !     E +.+.+.+.+.+.+.+.O.`   T.T.T.T.T.T.T.T.T.T.T.T.T.T.T.T.T.T.T.T.T.",
"T.T.T.T.T.T.T.T.T.T.T.T.T.T.T.T.  ! ! ! ! ! ! ! %.p.    ! / ! ! a     +.+.+.+.+.+.+.+.+.+.+.+.` `   T.T.T.T.T.T.T.T.T.T.T.T.T.T.T.T.T.T.T.T.",
"T.T.T.T.T.T.T.T.T.T.T.T.T.T.T.T.  ! ! ! ! ! ! @   : ^ ^ ! ! .   , ` ` [ +.+.+.+.+.+.+.+.+.+.+.` ` < T.T.T.T.T.T.T.T.T.T.T.T.T.T.T.T.T.T.T.T.",
"T.T.T.T.T.T.T.T.T.T.T.T.T.T.T.T.T.  p ! !     p / Q W p     I ` ` ` ` ` ` ` ` `  .O.+.O.| ` ` ` ` K   T.T.T.T.T.T.T.T.T.T.T.T.T.T.T.T.T.T.T.",
"T.T.T.T.T.T.T.T.T.T.T.T.T.T.T.T.T.T.      y / W W <     ! Y ` ` ` ` ` ` ` ` ` ` ` ` ` ` ` ` ` ` `   T.T.T.T.T.T.T.T.T.T.T.T.T.T.T.T.T.T.T.T.",
"T.T.T.T.T.T.T.T.T.T.T.T.T.T.T.T.T.T.T.T.T.. W     X.1.2.  . ~ ! ) ` ` ` ` ` ` ` ` ` ` ` ` ` ` !     T.T.T.T.T.T.T.T.T.T.T.T.T.T.T.T.T.T.T.T.",
"T.T.T.T.T.T.T.T.T.T.T.T.T.T.T.T.T.T.T.T.T.    <.1.1.1.1.1.,.      L ! ! ~ T Y _ _ ) R ~ ! ! .   T.T.T.T.T.T.T.T.T.T.T.T.T.T.T.T.T.T.T.T.T.T.",
"T.T.T.T.T.T.T.T.T.T.T.T.T.T.T.T.T.T.T.T.T.T.  1.1.1.1.1.1.  1.1.1.                          T.T.T.T.T.T.T.T.T.T.T.T.T.T.T.T.T.T.T.T.T.T.T.T.",
"T.T.T.T.T.T.T.T.T.T.T.T.T.T.T.T.T.T.T.T.T.T.  g   X 1.1.-.  X   X K.@ =.  K.  >.X   s.U.  T.T.T.T.T.T.T.T.T.T.T.T.T.T.T.T.T.T.T.T.T.T.T.T.T.",
"T.T.T.T.T.T.T.T.T.T.T.T.T.T.T.T.T.T.T.T.T.T.  H Y.u.3 1.  1   U.U.d   K.K.K.  A K.  U.I.  T.T.T.T.T.T.T.T.T.T.T.T.T.T.T.T.T.T.T.T.T.T.T.T.T.",
"T.T.T.T.T.T.T.T.T.T.T.T.T.T.T.T.T.T.T.T.T.  h.K.N.M.    K.H.  = = * K.K.K.K.K.K.K.. = p.  T.T.T.T.T.T.T.T.T.T.T.T.T.T.T.T.T.T.T.T.T.T.T.T.T.",
"T.T.T.T.T.T.T.T.T.T.T.T.T.T.T.T.T.T.T.T.T.  K.V.M.M.= K.K.K.0 = = * K.K.K.G.K.K.K.o = D S   T.T.T.T.T.T.T.T.T.T.T.T.T.T.T.T.T.T.T.T.T.T.T.T.",
"T.T.T.T.T.T.T.T.T.T.T.T.T.T.T.T.T.T.T.T.T.  K.N.M.M.M.K.K.G.  = =   K.C l.l.U.l.K.  = A.    T.T.T.T.T.T.T.T.T.T.T.T.T.T.T.T.T.T.T.T.T.T.T.T.",
"T.T.T.T.T.T.T.T.T.T.T.T.T.T.T.T.T.T.T.T.T.  H.K.M.M.M.J.K.K.      D.G l.l.l.l.l.$.  * K.    T.T.T.T.T.T.T.T.T.T.T.T.T.T.T.T.T.T.T.T.T.T.T.T.",
"T.T.T.T.T.T.T.T.T.T.T.T.T.T.T.T.T.T.T.T.T.T.  D.K.M.M.M.m.B.z.&.J.K.;.l.l.l.l.l.X n.V l.  T.T.T.T.T.T.T.T.T.T.T.T.T.T.T.T.T.T.T.T.T.T.T.T.T.",
"T.T.T.T.T.T.T.T.T.T.T.T.T.T.T.T.T.T.T.T.T.T.T.T.T.  . M.z.l.l.z.K.K.K.v.      - M.N.l.x.T.T.T.T.T.T.T.T.T.T.T.T.T.T.T.T.T.T.T.T.T.T.T.T.T.T.",
"T.T.T.T.T.T.T.T.T.T.T.T.T.T.T.T.T.T.T.T.T.T.T.T.T.T.T.      2 b.M.M.M.M.M.M.M.:.    T.T.T.T.T.T.T.T.T.T.T.T.T.T.T.T.T.T.T.T.T.T.T.T.T.T.T.T.",
"T.T.T.T.T.T.T.T.T.T.T.T.T.T.T.T.T.T.T.T.T.T.T.T.T.T.T.      6.4               T.T.T.T.T.T.T.T.T.T.T.T.T.T.T.T.T.T.T.T.T.T.T.T.T.T.T.T.T.T.T.",
"T.T.T.T.T.T.T.T.T.T.T.T.T.T.T.T.T.T.T.T.T.T.T.T.T.T.  L.U.8   7.7.6 U.U.9 7.q   T.T.T.T.T.T.T.T.T.T.T.T.T.T.T.T.T.T.T.T.T.T.T.T.T.T.T.T.T.T.",
"T.T.T.T.T.T.T.T.T.T.T.T.T.T.T.T.T.T.T.T.T.T.T.T.T.  L.U.U.U.  6.7.7.    % 7.    T.T.T.T.T.T.T.T.T.T.T.T.T.T.T.T.T.T.T.T.T.T.T.T.T.T.T.T.T.T.",
"T.T.T.T.T.T.T.T.T.T.T.T.T.T.T.T.T.T.T.T.T.T.T.T.T.  L.U.U.U.  4 7.7.7.6.M c %   T.T.T.T.T.T.T.T.T.T.T.T.T.T.T.T.T.T.T.T.T.T.T.T.T.T.T.T.T.T.",
"T.T.T.T.T.T.T.T.T.T.T.T.T.T.T.T.T.T.T.T.T.T.T.T.T.  L.U.U.U.  4.c 0.t.r.w.w.4   T.T.T.T.T.T.T.T.T.T.T.T.T.T.T.T.T.T.T.T.T.T.T.T.T.T.T.T.T.T.",
"T.T.T.T.T.T.T.T.T.T.T.T.T.T.T.T.T.T.T.T.T.T.T.T.T.  d.Z.P.U.  7.4 & 6 b 6.9.b   T.T.T.T.T.T.T.T.T.T.T.T.T.T.T.T.T.T.T.T.T.T.T.T.T.T.T.T.T.T.",
"T.T.T.T.T.T.T.T.T.T.T.T.T.T.T.T.T.T.T.T.T.T.T.T.T.T.# K.J.n.7     0.0.0.0.w.8.  T.T.T.T.T.T.T.T.T.T.T.T.T.T.T.T.T.T.T.T.T.T.T.T.T.T.T.T.T.T.",
"T.T.T.T.T.T.T.T.T.T.T.T.T.T.T.T.T.T.T.T.T.T.T.T.T.T.  K.K.K.i.K.K.  9.0.0.0.0.4 T.T.T.T.T.T.T.T.T.T.T.T.T.T.T.T.T.T.T.T.T.T.T.T.T.T.T.T.T.T.",
"T.T.T.T.T.T.T.T.T.T.T.T.T.T.T.T.T.T.T.      T.T.T.T.  M.K.K.K.K.U.K.  0.0.0.q.z T.T.T.T.T.T.T.T.T.T.T.T.T.T.T.T.T.T.T.T.T.T.T.T.T.T.T.T.T.T.",
"T.T.T.T.T.T.T.T.T.T.T.T.T.T.T.T.T.T.T.  Z.        T.  M.G.K.K.K.K.J.  &     $ & T.T.T.T.T.T.T.T.T.T.T.T.T.T.T.T.T.T.T.T.T.T.T.T.T.T.T.T.T.T.",
"T.T.T.T.T.T.T.T.T.T.T.T.T.T.T.T.T.T.T.  L.  P L.F   3.  M.M.M.M.M.2 h 7.6.3.3.  T.T.T.T.T.T.T.T.T.T.T.T.T.T.T.T.T.T.T.T.T.T.T.T.T.T.T.T.T.T.",
"T.T.T.T.T.T.T.T.T.T.T.T.T.T.T.T.T.T.T.  L.    ` `   M l   Z c.f   h 3.3.M 3.  % & T.T.T.T.T.T.T.T.T.T.T.T.T.T.T.T.T.T.T.T.T.T.T.T.T.T.T.T.T.",
"T.T.T.T.T.T.T.T.T.T.T.T.T.T.T.T.T.T.T.  L.  j.  (   M 7.7.q.4.l m b j       v v v   T.T.T.T.T.T.T.T.T.T.T.T.T.T.T.T.T.T.T.T.T.T.T.T.T.T.T.T.",
"T.T.T.T.T.T.T.T.T.T.T.T.T.T.T.T.T.T.T.  P.  Z.A.      3.7.7.  T.    T.T.k v v v k   T.T.T.T.T.T.T.T.T.T.T.T.T.T.T.T.T.T.T.T.T.T.T.T.T.T.T.T.",
"T.T.T.T.T.T.T.T.T.T.T.T.T.T.T.T.T.T.T.  P.  L.L.Z.  d.& 7.  T.T.T.T.T.T.$ k v x   H   T.T.T.T.T.T.T.T.T.T.T.T.T.T.T.T.T.T.T.T.T.T.T.T.T.T.T.",
"T.T.T.T.T.T.T.T.T.T.T.T.T.T.T.T.T.T.T.  I.  L.L.L.        T.T.T.T.T.T.T.  k $                 T.T.T.T.T.T.T.T.T.T.T.T.T.T.T.T.T.T.T.T.T.T.T.",
"T.T.T.T.T.T.T.T.T.T.T.T.T.T.T.T.T.T.T.= U.o L.P.P.  T.T.T.T.T.T.T.T.T.T.T.    { u   f.f.C.C.p.  T.T.T.T.T.T.T.T.T.T.T.T.T.T.T.T.T.T.T.T.T.T.",
"T.T.T.T.T.T.T.T.T.T.T.T.T.T.T.T.T.T.T.J I.q L.U.I.  T.T.T.T.T.T.T.T.T.T.T.  *.P   f.f.f.h.h.f.p.  T.T.T.T.T.T.T.T.T.T.T.T.T.T.T.T.T.T.T.T.T.",
"T.T.T.T.T.T.T.T.T.T.T.T.T.T.T.T.T.T.T.S.j.H L.U.  T.T.T.T.T.T.T.T.T.T.T.T.  I + J d.f.f.f.f.f.f.  T.T.T.T.T.T.T.T.T.T.T.T.T.T.T.T.T.T.T.T.T.",
"T.T.T.T.T.T.T.T.T.T.T.T.T.T.T.T.T.T.  S.N A.L.    T.T.T.T.T.T.T.T.T.T.T.T.  u   O             * =   T.T.T.T.T.T.T.T.T.T.T.T.T.T.T.T.T.T.T.T.",
"T.T.T.T.T.T.T.T.T.T.T.T.T.T.T.T.T.T.          T.T.T.T.T.T.T.T.T.T.T.T.T.  * B h.C.h.f.f.f.f.C.f.H   T.T.T.T.T.T.T.T.T.T.T.T.T.T.T.T.T.T.T.T.",
"T.T.T.T.T.T.T.T.T.T.T.T.T.T.T.T.T.T.T.T.T.T.T.T.T.T.T.T.T.T.T.T.T.T.T.T.T.8 J S 8                 T.T.T.T.T.T.T.T.T.T.T.T.T.T.T.T.T.T.T.T.T.",
"T.T.T.T.T.T.T.T.T.T.T.T.T.T.T.T.T.T.T.T.T.T.T.T.T.T.T.T.T.T.T.T.T.T.T.T.T.    T.T.T.T.T.T.T.T.T.T.T.T.T.T.T.T.T.T.T.T.T.T.T.T.T.T.T.T.T.T.T.",
"T.T.T.T.T.T.T.T.T.T.T.T.T.T.T.T.T.T.T.T.T.T.T.T.T.T.T.T.T.T.T.T.T.T.T.T.T.T.T.T.T.T.T.T.T.T.T.T.T.T.T.T.T.T.T.T.T.T.T.T.T.T.T.T.T.T.T.T.T.T.",
"T.T.T.T.T.T.T.T.T.T.T.T.T.T.T.T.T.T.T.T.T.T.T.T.T.T.T.T.T.T.T.T.T.T.T.T.T.T.T.T.T.T.T.T.T.T.T.T.T.T.T.T.T.T.T.T.T.T.T.T.T.T.T.T.T.T.T.T.T.T.",
"T.T.T.T.T.T.T.T.T.T.T.T.T.T.T.T.T.T.T.T.T.T.T.T.T.T.T.T.T.T.T.T.T.T.T.T.T.T.T.T.T.T.T.T.T.T.T.T.T.T.T.T.T.T.T.T.T.T.T.T.T.T.T.T.T.T.T.T.T.T.",
"T.T.T.T.T.T.T.T.T.T.T.T.T.T.T.T.T.T.T.T.T.T.T.T.T.T.T.T.T.T.T.T.T.T.T.T.T.T.T.T.T.T.T.T.T.T.T.T.T.T.T.T.T.T.T.T.T.T.T.T.T.T.T.T.T.T.T.T.T.T.",
"T.T.T.T.T.T.T.T.T.T.T.T.T.T.T.T.T.T.T.T.T.T.T.T.T.T.T.T.T.T.T.T.T.T.T.T.T.T.T.T.T.T.T.T.T.T.T.T.T.T.T.T.T.T.T.T.T.T.T.T.T.T.T.T.T.T.T.T.T.T.",
"T.T.T.T.T.T.T.T.T.T.T.T.T.T.T.T.T.T.T.T.T.T.T.T.T.T.T.T.T.T.T.T.T.T.T.T.T.T.T.T.T.T.T.T.T.T.T.T.T.T.T.T.T.T.T.T.T.T.T.T.T.T.T.T.T.T.T.T.T.T.",
"T.T.T.T.T.T.T.T.T.T.T.T.T.T.T.T.T.T.T.T.T.T.T.T.T.T.T.T.T.T.T.T.T.T.T.T.T.T.T.T.T.T.T.T.T.T.T.T.T.T.T.T.T.T.T.T.T.T.T.T.T.T.T.T.T.T.T.T.T.T.",
"T.T.T.T.T.T.T.T.T.T.T.T.T.T.T.T.T.T.T.T.T.T.T.T.T.T.T.T.T.T.T.T.T.T.T.T.T.T.T.T.T.T.T.T.T.T.T.T.T.T.T.T.T.T.T.T.T.T.T.T.T.T.T.T.T.T.T.T.T.T.",
"T.T.T.T.T.T.T.T.T.T.T.T.T.T.T.T.T.T.T.T.T.T.T.T.T.T.T.T.T.T.T.T.T.T.T.T.T.T.T.T.T.T.T.T.T.T.T.T.T.T.T.T.T.T.T.T.T.T.T.T.T.T.T.T.T.T.T.T.T.T."
};
