/* XPM */
static char *result[] = {
/* columns rows colors chars-per-pixel */
"70 70 167 2 ",
"   c #000000",
".  c #0B0202",
"X  c #0D0A05",
"o  c #05090D",
"O  c #0B0B0A",
"+  c #140303",
"@  c #120F0C",
"#  c #180702",
"$  c #15120E",
"%  c #1C1509",
"&  c #040C14",
"*  c #030F1B",
"=  c #0A131C",
"-  c #151514",
";  c #1E1313",
":  c #1A1A1A",
">  c #1F1915",
",  c #2A0807",
"<  c #380609",
"1  c #20180C",
"2  c #221F1C",
"3  c #24211E",
"4  c #0D1925",
"5  c #08213B",
"6  c #132638",
"7  c #252524",
"8  c #2B2A2A",
"9  c #292622",
"0  c #322D29",
"q  c #36312C",
"w  c #3D3328",
"e  c #3F3F3F",
"r  c gray20",
"t  c #440507",
"y  c #5E0000",
"u  c #470D11",
"i  c #5B1116",
"p  c #611500",
"a  c #640F14",
"s  c #7B141C",
"d  c #642100",
"f  c #463F3A",
"g  c #0A2C4F",
"h  c #162C42",
"j  c #1A344E",
"k  c #0C3054",
"l  c #1F3D5B",
"z  c #1B3651",
"x  c #113E6B",
"c  c #154575",
"v  c #24476A",
"b  c #274D72",
"n  c #2A537D",
"m  c #4C4C4C",
"M  c gray37",
"N  c #635B53",
"B  c #656565",
"V  c #777777",
"C  c #810000",
"Z  c #821017",
"A  c #92171F",
"S  c #A80000",
"D  c #BE0000",
"F  c #B40000",
"G  c #AB151C",
"H  c #B31118",
"J  c #972200",
"K  c #831920",
"L  c #8A1922",
"P  c #921B23",
"I  c #9C1D27",
"U  c #901720",
"Y  c #A11C26",
"T  c #AC2029",
"R  c #B3222B",
"E  c #CC0303",
"W  c #C50507",
"Q  c #D50000",
"!  c #D80600",
"~  c #DE1200",
"^  c #E11900",
"/  c #E62100",
"(  c #EF3400",
")  c #F33D00",
"_  c #E24B00",
"`  c #F64300",
"'  c #F94900",
"]  c #FE5400",
"[  c #FE5806",
"{  c #A25757",
"}  c #8A725A",
"|  c #81766C",
" . c #83786D",
".. c #AD823D",
"X. c #9D8062",
"o. c #8E8276",
"O. c #8F8378",
"+. c #BC9670",
"@. c #C89344",
"#. c #D19B49",
"$. c #DEA44C",
"%. c #E3A74E",
"&. c #EDAE51",
"*. c #C5986B",
"=. c #FF9D6D",
"-. c #FFD26B",
";. c #2C5680",
":. c #2F5B87",
">. c #305F8F",
",. c #336699",
"<. c #326496",
"1. c #376DA3",
"2. c #386FA6",
"3. c #3870A7",
"4. c #3B75AF",
"5. c #3E79B4",
"6. c #8A8887",
"7. c #9D8F81",
"8. c #9C9C9C",
"9. c #959595",
"0. c #A29488",
"q. c #A9A6A4",
"w. c #ADADAD",
"e. c #A0A0A0",
"r. c #B2B2B2",
"t. c #BDBDBD",
"y. c #F68E89",
"u. c #FF938E",
"i. c #FF9A95",
"p. c #CAA989",
"a. c #D2AB84",
"s. c #C5AD96",
"d. c #EBBD8F",
"f. c #FDBB9A",
"g. c #CCAEA6",
"h. c #C5B2A0",
"j. c #CABAA9",
"k. c #C5BEB8",
"l. c #FFBFBC",
"z. c #FFCC99",
"x. c #FFD09F",
"c. c #DAC9B7",
"v. c #E7C5A4",
"b. c #FFD3A5",
"n. c #FFDDBB",
"m. c #FFD9B5",
"M. c #C5C5C5",
"N. c #CCCCCC",
"B. c #D4D4D4",
"V. c #DBDBDB",
"C. c #EBD8C4",
"Z. c #FFD9C7",
"A. c #E5D8D8",
"S. c #FFE1C2",
"D. c #FFE5CB",
"F. c #F4E0CC",
"G. c #FCE6D2",
"H. c #FFEAD5",
"J. c #FFEBDC",
"K. c #E6E6E6",
"L. c #ECECEC",
"P. c #E8E5E2",
"I. c #FFF1E2",
"U. c #F3F3F3",
"Y. c #FEFEFE",
"T. c #FFFBF6",
"R. c None",
/* pixels */
"R.R.R.R.R.R.R.R.R.R.R.R.R.R.R.R.R.R.R.R.R.R.R.R.R.R.R.R.R.R.R.R.R.R.R.R.R.R.R.R.R.R.R.R.R.R.R.R.R.R.R.R.R.R.R.R.R.R.R.R.R.R.R.R.R.R.R.R.R.R.",
"R.R.R.R.R.R.R.R.R.R.R.R.R.R.R.R.R.R.R.R.R.R.R.R.R.R.R.R.R.R.R.R.R.R.R.R.R.R.R.R.R.R.R.R.R.R.R.R.R.R.R.R.R.R.R.R.R.R.R.R.R.R.R.R.R.R.R.R.R.R.",
"R.R.R.R.R.R.R.R.R.R.R.R.R.R.R.R.R.R.R.R.R.R.R.R.R.R.R.R.R.R.R.R.R.R.R.R.R.R.R.R.R.R.R.R.R.R.R.R.R.R.R.R.R.R.R.R.R.R.R.R.R.R.R.R.R.R.R.R.R.R.",
"R.R.R.R.R.R.R.R.R.R.R.R.R.R.R.R.R.R.R.R.R.R.R.R.R.R.R.R.R.R.R.R.R.R.R.R.R.R.R.R.R.R.R.R.R.R.R.R.R.R.R.R.R.R.R.R.R.R.R.R.R.R.R.R.R.R.R.R.R.R.",
"R.R.R.R.R.R.R.R.R.R.R.R.R.R.R.R.R.R.R.R.R.R.R.R.R.R.R.R.R.R.R.R.R.R.R.R.R.R.R.R.R.R.R.R.R.R.R.R.R.R.R.R.R.R.R.R.R.R.R.R.R.R.R.R.R.R.R.R.R.R.",
"R.R.R.R.R.R.R.R.R.R.R.R.R.R.R.R.R.R.R.R.R.R.R.R.R.R.R.R.R.R.R.R.R.R.R.R.R.R.        R.R.R.R.R.R.R.R.R.R.R.R.R.R.R.R.R.R.R.R.R.R.R.R.R.R.R.R.",
"R.R.R.R.R.R.R.R.R.R.R.R.R.R.R.R.R.R.R.R.R.R.R.R.R.R.R.R.R.R.R.R.R.R.R.R.    F Q Q Q   R.R.R.R.R.R.R.R.R.R.R.R.R.R.R.R.R.R.R.R.R.R.R.R.R.R.R.",
"R.R.R.R.R.R.R.R.R.R.R.R.R.R.R.R.R.R.R.R.R.R.R.R.R.R.R.R.R.R.R.R.R.R.R.  y ! ] [ J.=.Q   R.R.R.R.R.R.R.R.R.R.R.R.R.R.R.R.R.R.R.R.R.R.R.R.R.R.",
"R.R.R.R.R.R.R.R.R.R.R.R.R.R.R.R.R.R.R.R.R.R.R.R.R.R.R.R.R.R.R.R.R.R.  S ` ] Y.Y.Y.Y.T.{   R.R.R.R.R.R.R.R.R.R.R.R.R.R.R.R.R.R.R.R.R.R.R.R.R.",
"R.R.R.R.R.R.R.R.R.R.R.R.R.R.R.R.R.R.R.R.R.R.R.R.R.R.R.R.R.R.R.R.R.  y ` [ Y.Y.Y.Y.U.U.U.  R.R.R.R.R.R.R.R.R.R.R.R.R.R.R.R.R.R.R.R.R.R.R.R.R.",
"R.R.R.R.R.R.R.R.R.R.R.R.R.R.R.R.R.R.R.R.R.R.R.R.R.R.R.R.R.R.R.R.R.  ^ ] Y.Y.T.U.U.Y.U.U.2 R.R.R.R.R.R.R.R.R.R.R.R.R.R.R.R.R.R.R.R.R.R.R.R.R.",
"R.R.R.R.R.R.R.R.R.R.R.R.R.R.R.R.R.R.R.R.R.R.R.R.R.R.R.    # .     Q ] Y.U.U.U.U.U.U.U.U.A.  R.R.R.R.R.R.R.R.R.R.R.R.R.R.R.R.R.R.R.R.R.R.R.R.",
"R.R.R.R.R.R.R.R.R.R.R.R.R.R.R.R.R.R.R.R.R.R.R.R.R.R.R.  ] ] ]   Q ] Y.U.U.U.U.U.U.U.U.L.U.  R.R.R.R.R.R.R.R.R.R.R.R.R.R.R.R.R.R.R.R.R.R.R.R.",
"R.R.R.R.R.R.R.R.R.R.R.R.R.R.R.R.R.R.R.R.R.R.R.R.R.R.  Q ` ]   E ] Y.U.U.U.U.U.U.U.L.U.L.L.  R.R.R.R.R.R.R.R.R.R.R.R.R.R.R.R.R.R.R.R.R.R.R.R.",
"R.R.R.R.R.R.R.R.R.R.R.R.R.R.R.R.R.R.R.R.R.R.R.R.R.R.  H     Q [ Y.L.U.U.L.L.U.L.L.L.L.L.L.  R.R.R.R.R.R.R.R.R.R.R.R.R.R.R.R.R.R.R.R.R.R.R.R.",
"R.R.R.R.R.R.R.R.R.R.R.R.R.R.R.R.R.R.R.R.R.R.R.R.R.R.    D ] f.Y.U.U.L.U.L.U.L.L.L.L.L.L.N.  R.R.R.R.R.R.R.R.R.R.R.R.R.R.R.R.R.R.R.R.R.R.R.R.",
"R.R.R.R.R.R.R.R.R.R.R.R.R.R.R.R.R.R.R.R.R.R.R.R.    S ' ] Y.U.L.L.L.L.L.L.L.L.L.L.K.N.r       R.R.R.R.R.R.R.R.R.R.R.R.R.R.R.R.R.R.R.R.R.R.R.",
"R.R.R.R.R.R.R.R.R.R.R.R.R.R.R.R.R.R.R.R.R.R.R.  C ( ] Y.U.L.L.L.L.L.L.L.L.L.L.K.N.    i R P   R.R.R.R.R.R.R.R.R.R.R.R.R.R.R.R.R.R.R.R.R.R.R.",
"R.R.R.R.R.R.R.R.R.R.R.R.R.R.R.R.R.R.R.R.R.  . ~ ] ] Y.L.L.L.L.L.L.L.L.L.K.B.t.    I R I K u     R.R.R.R.R.R.R.R.R.R.R.R.R.R.R.R.R.R.R.R.R.R.",
"R.R.R.R.R.R.R.R.R.R.R.R.R.R.R.R.R.R.R.R.  E ] ] ] Q L.L.L.L.L.K.L.K.V.N.M   . T R I I .   d ) Q     R.R.R.R.R.R.R.R.R.R.R.R.R.R.R.R.R.R.R.R.",
"R.R.R.R.R.R.R.R.R.R.R.R.R.R.R.R.R.R.R.  Q ] ] Q Q Q L.K.K.K.K.V.N.N.O   , R T I I     _ ] ] ] ] Q .   R.R.R.R.R.R.R.R.R.R.R.R.R.R.R.R.R.R.R.",
"R.R.R.R.R.R.R.R.R.R.R.R.R.R.R.R.R.R.R.< I I E Q Q Q K.V.N.N.N.N.    L R I I s     ] ] ] ] ] ] ] ] Q t   R.R.R.R.R.R.R.R.R.R.R.R.R.R.R.R.R.R.",
"R.R.R.R.R.R.R.R.R.R.R.R.R.R.R.R.R.R.  I I I I I I I I N.N.w.    Y R I I +   # ] ] ] ] ] ] ] ] ] ] ' Q +   R.R.R.R.R.R.R.R.R.R.R.R.R.R.R.R.R.",
"R.R.R.R.R.R.R.R.R.R.R.R.R.R.R.R.R.R.  s I Y I I I Y I 8   + R T I I     J ] ] ] ] ] ] ] ] ] ] ] ] ] Q Q   R.R.R.R.R.R.R.R.R.R.R.R.R.R.R.R.R.",
"R.R.R.R.R.R.R.R.R.R.R.R.R.R.R.R.R.R.R.  I I I I I     i R P K L     Q Q Q Q Q Q / ] ] ] ] ] ] ] ! Q Q Q   R.R.R.R.R.R.R.R.R.R.R.R.R.R.R.R.R.",
"R.R.R.R.R.R.R.R.R.R.R.R.R.R.R.R.R.R.R.R.  a I ,   L R K K u   . Q Q Q Q Q Q Q Q Q Q Q Q Q Q Q Q Q Q Q W   R.R.R.R.R.R.R.R.R.R.R.R.R.R.R.R.R.",
"R.R.R.R.R.R.R.R.R.R.R.R.R.R.R.R.R.R.R.R.R.      T K K .   %   U I W Q Q Q Q Q Q Q Q Q Q Q Q Q Q Q Q Y   R.R.R.R.R.R.R.R.R.R.R.R.R.R.R.R.R.R.",
"R.R.R.R.R.R.R.R.R.R.R.R.R.R.R.R.R.R.R.R.R.R.R.  .     @.&.&.-.X   + I I Y W Q Q Q Q Q Q Q Q Q G I u   R.R.R.R.R.R.R.R.R.R.R.R.R.R.R.R.R.R.R.",
"R.R.R.R.R.R.R.R.R.R.R.R.R.R.R.R.R.R.R.R.R.R.R.R.  %.&.&.&.&.&.&.  %.O       , s P I I P U ,       R.R.R.R.R.R.R.R.R.R.R.R.R.R.R.R.R.R.R.R.R.",
"R.R.R.R.R.R.R.R.R.R.R.R.R.R.R.R.R.R.R.R.R.R.R.R.R.% &.&.&.&.&...  &.$.  C.#.$.  9   X X . f 6.R.R.R.R.R.R.R.R.R.R.R.R.R.R.R.R.R.R.R.R.R.R.R.",
"R.R.R.R.R.R.R.R.R.R.R.R.R.R.R.R.R.R.R.R.R.R.R.R.R.        &.&.      B.B 0   O H.H.    o.e M - R.R.R.R.R.R.R.R.R.R.R.R.R.R.R.R.R.R.R.R.R.R.R.",
"R.R.R.R.R.R.R.R.R.R.R.R.R.R.R.R.R.R.R.R.R.R.R.R.R.o I.H.N $.  H.O.  M.: 3 H.H.H.H.H.H.c.: : o   R.R.R.R.R.R.R.R.R.R.R.R.R.R.R.R.R.R.R.R.R.R.",
"R.R.R.R.R.R.R.R.R.R.R.R.R.R.R.R.R.R.R.R.R.R.R.R.  J.S.z.z.  H.H.$ o : :   H.H.H.H.H.H. .: : O   R.R.R.R.R.R.R.R.R.R.R.R.R.R.R.R.R.R.R.R.R.R.",
"R.R.R.R.R.R.R.R.R.R.R.R.R.R.R.R.R.R.R.R.R.R.R.R.  H.z.z.z.D.H.H..   : :   H.H.u.u.Y.H. .: : 7 q.R.R.R.R.R.R.R.R.R.R.R.R.R.R.R.R.R.R.R.R.R.R.",
"R.R.R.R.R.R.R.R.R.R.R.R.R.R.R.R.R.R.R.R.R.R.R.R.  H.z.z.z.z.G.H.j.  : : c.7.u.u.u.u.u.:   - P.  R.R.R.R.R.R.R.R.R.R.R.R.R.R.R.R.R.R.R.R.R.R.",
"R.R.R.R.R.R.R.R.R.R.R.R.R.R.R.R.R.R.R.R.R.R.R.R.  C.G.z.z.z.m.G.H.    O H.  u.u.u.u.u..   2 q.  R.R.R.R.R.R.R.R.R.R.R.R.R.R.R.R.R.R.R.R.R.R.",
"R.R.R.R.R.R.R.R.R.R.R.R.R.R.R.R.R.R.R.R.R.R.R.R.R.  q F.c.z.z.l.i.u.H.H.H.F.O y.u.y.; +.Z.i.u.R.R.R.R.R.R.R.R.R.R.R.R.R.R.R.R.R.R.R.R.R.R.R.",
"R.R.R.R.R.R.R.R.R.R.R.R.R.R.R.R.R.R.R.R.R.R.R.R.R.R.R.R.    o d.u.u.z.z.n.D.G.z.z.z.z.a.    R.R.R.R.R.R.R.R.R.R.R.R.R.R.R.R.R.R.R.R.R.R.R.R.",
"R.R.R.R.R.R.R.R.R.R.R.R.R.R.R.R.R.R.R.R.R.R.R.R.R.R.R.R.R.R.            @ $ w $ o       R.R.R.R.R.R.R.R.R.R.R.R.R.R.R.R.R.R.R.R.R.R.R.R.R.R.",
"R.R.R.R.R.R.R.R.R.R.R.R.R.R.R.R.R.R.R.R.R.R.R.R.R.R.R.R.  K.K.@ O ,.,.,.t.Y.Y.o     R.R.R.R.R.R.R.R.R.R.R.R.R.R.R.R.R.R.R.R.R.R.R.R.R.R.R.R.",
"R.R.R.R.R.R.R.R.R.R.R.R.R.R.R.R.R.R.R.R.R.R.R.R.R.R.R.  P.K.Y.Y.    ,.,.  Y.Y.  h M.  R.R.R.R.R.R.R.R.R.R.R.R.R.R.R.R.R.R.R.R.R.R.R.R.R.R.R.",
"R.R.R.R.R.R.R.R.R.R.R.R.R.R.R.R.R.R.R.R.R.R.R.R.R.R.R.o K.Y.Y.Y.  : ,.,.,.,.,.,.,.8.  R.R.R.R.R.R.R.R.R.R.R.R.R.R.R.R.R.R.R.R.R.R.R.R.R.R.R.",
"R.R.R.R.R.R.R.R.R.R.R.R.R.R.R.R.R.R.R.R.R.R.R.R.R.R.  r.U.Y.Y.Y.                      R.R.R.R.R.R.R.R.R.R.R.R.R.R.R.R.R.R.R.R.R.R.R.R.R.R.R.",
"R.R.R.R.R.R.R.R.R.R.R.R.R.R.R.R.R.R.R.R.R.R.R.R.R.R.  X.  T.Y.O 8 <.  3.4.4.4.4.4.    R.R.R.R.R.R.R.R.R.R.R.R.R.R.R.R.R.R.R.R.R.R.R.R.R.R.R.",
"R.R.R.R.R.R.R.R.R.R.R.R.R.R.R.R.R.R.R.R.R.R.R.R.R.R.  z.H.|     ,.,.  3.4.4.4.4.4.    R.R.R.R.R.R.R.R.R.R.R.R.R.R.R.R.R.R.R.R.R.R.R.R.R.R.R.",
"R.R.R.R.R.R.R.R.R.R.R.R.R.R.R.R.R.R.R.R.R.R.R.R.R.R.> S.H.H.  >.,.,.  1.4.4.4.4.4.j       R.R.R.R.R.R.R.R.R.R.R.R.R.R.R.R.R.R.R.R.R.R.R.R.R.",
"R.R.R.R.R.R.R.R.R.R.R.R.R.R.R.R.R.R.R.R.R.R.R.R.R.R.a.n.H.H.G.o.  ,.  1.4.4.4.4.5.l f h.k.  R.R.R.R.R.R.R.R.R.R.R.R.R.R.R.R.R.R.R.R.R.R.R.R.",
"R.R.R.R.R.R.R.R.R.R.R.R.R.R.R.R.R.R.R.R.R.R.R.R.R.R.} z.H.H.H.H.0.= 6 ,.4.4.4.4.1.n q p.s.h.  R.R.R.R.R.R.R.R.R.R.R.R.R.R.R.R.R.R.R.R.R.R.R.",
"R.R.R.R.R.R.R.R.R.R.R.R.R.R.R.R.R.R.R.R.R.R.R.R.R.R.  z.x.H.H.T.H.  ,.z         n = 7.*.*.s.  R.R.R.R.R.R.R.R.R.R.R.R.R.R.R.R.R.R.R.R.R.R.R.",
"R.R.R.R.R.R.R.R.R.R.R.R.R.R.R.R.R.R.R.R.R.R.R.R.R.R.R.  z.z.b.D.v.= b ;.:.;.;.;.;.  *.*.*.@ R.R.R.R.R.R.R.R.R.R.R.R.R.R.R.R.R.R.R.R.R.R.R.R.",
"R.R.R.R.R.R.R.R.R.R.R.R.R.R.R.R.R.R.R.R.R.R.R.R.R.R.R.R.    $     4.,.l ;.;.;.4           R.R.R.R.R.R.R.R.R.R.R.R.R.R.R.R.R.R.R.R.R.R.R.R.R.",
"R.R.R.R.R.R.R.R.R.R.R.R.R.R.R.R.R.R.R.R.R.R.R.R.R.R.R.R.R.R.v :.,.,.,.4       g c 5 R.R.R.R.R.R.R.R.R.R.R.R.R.R.R.R.R.R.R.R.R.R.R.R.R.R.R.R.",
"R.R.R.R.R.R.R.R.R.R.R.R.R.R.R.R.R.R.R.R.R.R.R.R.R.R.R.R.R.R.o n ,.,.:.;.& k x x x 5 R.R.R.R.R.R.R.R.R.R.R.R.R.R.R.R.R.R.R.R.R.R.R.R.R.R.R.R.",
"R.R.R.R.R.R.R.R.R.R.R.R.R.R.R.R.R.R.R.R.R.R.R.R.R.R.R.R.R.R.  ;.;.=       * h g k & R.R.R.R.R.R.R.R.R.R.R.R.R.R.R.R.R.R.R.R.R.R.R.R.R.R.R.R.",
"R.R.R.R.R.R.R.R.R.R.R.R.R.R.R.R.R.R.R.R.R.R.R.R.R.R.R.R.R.R.    9 N.o           e   R.R.R.R.R.R.R.R.R.R.R.R.R.R.R.R.R.R.R.R.R.R.R.R.R.R.R.R.",
"R.R.R.R.R.R.R.R.R.R.R.R.R.R.R.R.R.R.R.R.R.R.R.R.R.R.R.R.R.R.R.    p ,   K.K.Y.Y.        R.R.R.R.R.R.R.R.R.R.R.R.R.R.R.R.R.R.R.R.R.R.R.R.R.R.",
"R.R.R.R.R.R.R.R.R.R.R.R.R.R.R.R.R.R.R.R.R.R.R.R.R.R.R.R.R.R.R.  Q Q   K.K.K.U.L.K.  r.M.    R.R.R.R.R.R.R.R.R.R.R.R.R.R.R.R.R.R.R.R.R.R.R.R.",
"R.R.R.R.R.R.R.R.R.R.R.R.R.R.R.R.R.R.R.R.R.R.R.R.R.R.R.R.R.R.  g.Q   N.K.K.K.K.K.K.M.  M.w.  R.R.R.R.R.R.R.R.R.R.R.R.R.R.R.R.R.R.R.R.R.R.R.R.",
"R.R.R.R.R.R.R.R.R.R.R.R.R.R.R.R.R.R.R.R.R.R.R.R.R.R.R.R.R.R.  A.Q   N.8.@       O M   w.r.8.  R.R.R.R.R.R.R.R.R.R.R.R.R.R.R.R.R.R.R.R.R.R.R.",
"R.R.R.R.R.R.R.R.R.R.R.R.R.R.R.R.R.R.R.R.R.R.R.R.R.R.R.R.R.R.        O V Y.L.K.K.Y.B.O         R.R.R.R.R.R.R.R.R.R.R.R.R.R.R.R.R.R.R.R.R.R.R.",
"R.R.R.R.R.R.R.R.R.R.R.R.R.R.R.R.R.R.R.R.R.R.R.R.R.R.R.R.R.R.  B.V.K.K.N.m         8 9.M.M.w.  R.R.R.R.R.R.R.R.R.R.R.R.R.R.R.R.R.R.R.R.R.R.R.",
"R.R.R.R.R.R.R.R.R.R.R.R.R.R.R.R.R.R.R.R.R.R.R.R.R.R.R.R.R.R.R.                                R.R.R.R.R.R.R.R.R.R.R.R.R.R.R.R.R.R.R.R.R.R.R.",
"R.R.R.R.R.R.R.R.R.R.R.R.R.R.R.R.R.R.R.R.R.R.R.R.R.R.R.R.R.R.R.R.R.R.R.R.R.R.R.R.R.R.R.R.R.R.R.R.R.R.R.R.R.R.R.R.R.R.R.R.R.R.R.R.R.R.R.R.R.R.",
"R.R.R.R.R.R.R.R.R.R.R.R.R.R.R.R.R.R.R.R.R.R.R.R.R.R.R.R.R.R.R.R.R.R.R.R.R.R.R.R.R.R.R.R.R.R.R.R.R.R.R.R.R.R.R.R.R.R.R.R.R.R.R.R.R.R.R.R.R.R.",
"R.R.R.R.R.R.R.R.R.R.R.R.R.R.R.R.R.R.R.R.R.R.R.R.R.R.R.R.R.R.R.R.R.R.R.R.R.R.R.R.R.R.R.R.R.R.R.R.R.R.R.R.R.R.R.R.R.R.R.R.R.R.R.R.R.R.R.R.R.R.",
"R.R.R.R.R.R.R.R.R.R.R.R.R.R.R.R.R.R.R.R.R.R.R.R.R.R.R.R.R.R.R.R.R.R.R.R.R.R.R.R.R.R.R.R.R.R.R.R.R.R.R.R.R.R.R.R.R.R.R.R.R.R.R.R.R.R.R.R.R.R.",
"R.R.R.R.R.R.R.R.R.R.R.R.R.R.R.R.R.R.R.R.R.R.R.R.R.R.R.R.R.R.R.R.R.R.R.R.R.R.R.R.R.R.R.R.R.R.R.R.R.R.R.R.R.R.R.R.R.R.R.R.R.R.R.R.R.R.R.R.R.R.",
"R.R.R.R.R.R.R.R.R.R.R.R.R.R.R.R.R.R.R.R.R.R.R.R.R.R.R.R.R.R.R.R.R.R.R.R.R.R.R.R.R.R.R.R.R.R.R.R.R.R.R.R.R.R.R.R.R.R.R.R.R.R.R.R.R.R.R.R.R.R.",
"R.R.R.R.R.R.R.R.R.R.R.R.R.R.R.R.R.R.R.R.R.R.R.R.R.R.R.R.R.R.R.R.R.R.R.R.R.R.R.R.R.R.R.R.R.R.R.R.R.R.R.R.R.R.R.R.R.R.R.R.R.R.R.R.R.R.R.R.R.R.",
"R.R.R.R.R.R.R.R.R.R.R.R.R.R.R.R.R.R.R.R.R.R.R.R.R.R.R.R.R.R.R.R.R.R.R.R.R.R.R.R.R.R.R.R.R.R.R.R.R.R.R.R.R.R.R.R.R.R.R.R.R.R.R.R.R.R.R.R.R.R."
};
