/* XPM */
static char *result[] = {
/* columns rows colors chars-per-pixel */
"70 70 174 2 ",
"   c #000000",
".  c #0A0302",
"X  c #0A0907",
"o  c #030609",
"O  c #0A0A0A",
"+  c #04080C",
"@  c #120201",
"#  c #190000",
"$  c #1C150A",
"%  c #060B11",
"&  c #08121D",
"*  c #131313",
"=  c #1A1A1A",
"-  c #1E1A15",
";  c #230000",
":  c #2B0202",
">  c #240709",
",  c #2F070A",
"<  c #39090C",
"1  c #261C0E",
"2  c #271C16",
"3  c #29200F",
"4  c #2B221B",
"5  c #382A13",
"6  c #0C1924",
"7  c #112132",
"8  c #15293E",
"9  c #13263A",
"0  c #242221",
"q  c #2B2625",
"w  c #2D2D2D",
"e  c #382723",
"r  c #343433",
"t  c #3C3C3C",
"y  c #5B0000",
"u  c #500000",
"i  c #4D0C10",
"p  c #5B1116",
"a  c #6A0000",
"s  c #710000",
"d  c #7C0000",
"f  c #6F1117",
"g  c #731117",
"h  c #78161E",
"j  c #453318",
"k  c #403327",
"l  c #7F5D2B",
"z  c #172C43",
"x  c #1A354F",
"c  c #1C3955",
"v  c #184B7E",
"b  c #214263",
"n  c #264B6F",
"m  c #274D73",
"M  c #2A537C",
"N  c #4C4845",
"B  c #534B44",
"V  c #585049",
"C  c gray36",
"Z  c #695541",
"A  c #755F4A",
"S  c #62615F",
"D  c #71665C",
"F  c #646464",
"G  c #6C6C6C",
"H  c #736A60",
"J  c #7E7367",
"K  c #7C7C7C",
"L  c #860000",
"P  c #970000",
"I  c #89141C",
"U  c #96171E",
"Y  c #AB0000",
"T  c #B40000",
"R  c #B70F15",
"E  c #A8171F",
"W  c #8F2F00",
"Q  c #831920",
"!  c #8C1921",
"~  c #811720",
"^  c #941C24",
"/  c #9D1D27",
"(  c #AA1F29",
")  c #A11D27",
"_  c #AD212A",
"`  c #B3222B",
"'  c #CF0305",
"]  c #C10A0D",
"[  c #D50000",
"{  c #DA0900",
"}  c #DD1000",
"|  c #D71616",
" . c #E21B00",
".. c #E62200",
"X. c #EA2A00",
"o. c #CD2D2F",
"O. c #E94500",
"+. c #F94C00",
"@. c #F64100",
"#. c #FE5400",
"$. c #FE5B0B",
"%. c #FF702A",
"&. c #965753",
"*. c #9A7D5F",
"=. c #897E73",
"-. c #81807E",
";. c #D29A47",
":. c #CA9445",
">. c #FD8246",
",. c #E4A94F",
"<. c #EDAE51",
"1. c #C1966C",
"2. c #C5986B",
"3. c #C59E76",
"4. c #FF9C6B",
"5. c #C5A17D",
"6. c #FFD26B",
"7. c #2C5680",
"8. c #2F5E8E",
"9. c #2E5B87",
"0. c #305F8D",
"q. c #316294",
"w. c #336699",
"e. c #34699D",
"r. c #376DA4",
"t. c #386FA5",
"y. c #3B75AE",
"u. c #407CB6",
"i. c #848484",
"p. c #8E8E8E",
"a. c gray58",
"s. c #9B9A9A",
"d. c #999595",
"f. c #A89888",
"g. c #ACACAC",
"h. c #B9B9B9",
"j. c #FF938E",
"k. c #FF9B8F",
"l. c #FF9B96",
"z. c #C5AF9A",
"x. c #C5B19E",
"c. c #FEAD85",
"v. c #EDBF91",
"b. c #C5B2A0",
"n. c #CBBBAA",
"m. c #FFA9A5",
"M. c #FFCC9A",
"N. c #FBC997",
"B. c #D9C7B5",
"V. c #D5C4B3",
"C. c #FFD2A4",
"Z. c #FFD5AB",
"A. c #E5D2BF",
"S. c #FFDDBB",
"D. c #C3C3C3",
"F. c #CCCCCC",
"G. c #D2D2D2",
"H. c #DCDCDC",
"J. c #F3DFCB",
"K. c #FFDFCC",
"L. c #FFDFDE",
"P. c #F6E1CD",
"I. c #FCE5CD",
"U. c #FFE2C4",
"Y. c #FFEAD5",
"T. c #FFEDDB",
"R. c #E6E6E6",
"E. c #ECECEC",
"W. c #FFEEE9",
"Q. c #FFF1E3",
"!. c #F3F3F3",
"~. c #FFF9F3",
"^. c #FEFEFE",
"/. c None",
/* pixels */
"/./././././././././././././././././././././././././././././././././././././././././././././././././././././././././././././././././././././.",
"/./././././././././././././././././././././././././././././././././././././././././././././././././././././././././././././././././././././.",
"/./././././././././././././././././././././././././././././././././././././././././././././././././././././././././././././././././././././.",
"/./././././././././././././././././././././././././././././././././././././././././././././././././././././././././././././././././././././.",
"/./././././././././././././././././././././././././././././././././././.      /././././././././././././././././././././././././././././././.",
"/./././././././././././././././././././././././././././././././././.    [ [ [     /././././././././././././././././././././././././././././.",
"/././././././././././././././././././././././././././././././././.  [ +.#.%.c.[ . /././././././././././././././././././././././././././././.",
"/./././././././././././././././././././././././././././././././.  [ #.4.^.^.^.~.!.  /./././././././././././././././././././././././././././.",
"/././././././././././././././././././././././././././././././.  [ #.^.^.^.^.!.^.!.q /./././././././././././././././././././././././././././.",
"/./././././././././././././././././././././././././././././.  [ #.^.^.^.!.^.!.!.!.!.  /././././././././././././././././././././././././././.",
"/././././././././././././././././././././././././.  : d     T #.^.^.!.!.!.!.!.!.!.!.  /././././././././././././././././././././././././././.",
"/./././././././././././././././././././././././.  } #.#.@ ; +.^.^.!.!.!.!.!.!.!.!.!.  /././././././././././././././././././././././././././.",
"/./././././././././././././././././././././././.: [ #..   #.^.!.!.!.E.!.!.!.!.E.!.E.q /././././././././././././././././././././././././././.",
"/./././././././././././././././././././././././.g ;   L #.^.!.!.!.!.!.E.E.!.E.E.E.!.d./././././././././././././././././././././././././././.",
"/././././././././././././././././././././././.    s @.$.^.!.!.!.E.!.E.E.E.E.E.E.R.F.F.  /./././././././././././././././././././././././././.",
"/././././././././././././././././././././.    s X.#.^.!.E.E.E.E.E.E.E.E.E.E.E.H.D.      /./././././././././././././././././././././././././.",
"/./././././././././././././././././././.  y ..#.W.^.E.E.E.E.E.E.E.E.R.E.E.G.i.    ^ ` Q   /././././././././././././././././././././././././.",
"/./././././././././././././././././.    { #.#.>.E.E.E.E.E.E.E.E.R.E.R.F.=   > _ _ ^ Q     /././././././././././././././././././././././././.",
"/././././././././././././././././.  Y #.#.#.[ E.E.E.E.E.R.E.R.R.F.D.    h ` _ ^ Q     O.[     /././././././././././././././././././././././.",
"/./././././././././././././././.  U #.#.[ [ [ R.E.R.R.E.H.F.F.F     ( ` / ^ ,   @ #.#.#.#.[ #   /./././././././././././././././././././././.",
"/./././././././././././././././.  / / ) ] ' [ o.G.F.F.F.F.O   < ` ( / / .   W #.#.#.#.#.#.#.[ d   /././././././././././././././././././././.",
"/./././././././././././././././., / / / / / / / F.F.D.    ^ ` / ) h     #.#.#.#.#.#.#.#.#.#.#.[ u   /./././././././././././././././././././.",
"/./././././././././././././././.  / / / / / / / >     ( ` / / @   @ #.#.#.#.#.#.#.#.#.#.#.#.#.[ [   /./././././././././././././././././././.",
"/./././././././././././././././.  f / / / /     p ` ^ Q ^     P [ [ [ [ [ ..#.#.#.#.#.#.#.#.[ [ [ # /./././././././././././././././././././.",
"/././././././././././././././././.    ! h   ! ` Q Q p     [ [ [ [ [ [ [ [ [ [ [ [ [ [ [ [ [ [ [ [   /./././././././././././././././././././.",
"/././././././././././././././././././.    I Q Q .   j   , / R [ [ [ [ [ [ [ [ [ [ [ [ [ [ [ [ [ g   /./././././././././././././././././././.",
"/././././././././././././././././././././.      ;.<.<.6.l     ! ) / ] [ [ [ [ [ [ [ [ [ [ E /     /././././././././././././././././././././.",
"/./././././././././././././././././././././.5 <.<.<.<.<.<.  <.1       < I / / / / / ^ i       /././././././././././././././././././././././.",
"/./././././././././././././././././././././.  <.<.<.<.<.<.  <.,.  =.$ :.3 X           D.  /././././././././././././././././././././././././.",
"/./././././././././././././././././././././.        <.<.      K R.B.    Y.Y.    X   G.F.  /././././././././././././././././././././././././.",
"/./././././././././././././././././././././.  T.Y.P.j 1 Y.P.  F 0   Y.Y.Y.Y.Y.Y.Y.X s.S   /././././././././././././././././././././././././.",
"/././././././././././././././././././././.  Q.I.M.M.  P.Y.J   = = O Y.Y.Y.Y.Y.Y.A.* = r   /././././././././././././././././././././././././.",
"/././././././././././././././././././././.  Y.M.M.M.Z.Y.Y.N   = =   T.Y.j.j.W.T.J.* = =.s.  /./././././././././././././././././././././././.",
"/././././././././././././././././././././.  Y.C.M.M.M.Y.Y.Y.  = = H P.j.j.j.m.j.q   = ^.    /./././././././././././././././././././././././.",
"/././././././././././././././././././././.  V Y.M.M.M.M.Y.Y.0     Y.X j.j.j.j.j.e     ~.  /././././././././././././././././././././././././.",
"/./././././././././././././././././././././.    n.=.M.M.l.m.j.K.Y.Y.Y.X j.j.j.&.2 Y.L.j.  /././././././././././././././././././././././././.",
"/./././././././././././././././././././././././././.    *.k.j.M.C.S.I.Y.M.N.M.M.M.X   /././././././././././././././././././././././././././.",
"/././././././././././././././././././././././././././.            - k A Z e       /././././././././././././././././././././././././././././.",
"/././././././././././././././././././././././././.  F R.D.  w.w.w.  E.E.o 0.=   /./././././././././././././././././././././././././././././.",
"/./././././././././././././././././././././././.  H.R.^.^.i.  w.w.w.H.G.* w.O g././././././././././././././././././././././././././././././.",
"/././././././././././././././././././././././.  h.R.^.^.^.^.^.7.e.w.w.w.w.w.  D.  /././././././././././././././././././././././././././././.",
"/././././././././././././././././././././././.  2 E.^.^.^.  ^.c         o &   d.  /././././././././././././././././././././././././././././.",
"/./././././././././././././././././././././.  v.Y.X ^.^.  !.X w.b y.y.e.m z 6   O /.    /./././././././././././././././././././././././././.",
"/./././././././././././././././././././././.4 C.Y.Y.    R.  w.w.6 y.y.y.y.y.M       D B   /././././././././././././././././././././././././.",
"/././././././././././././././././././././.  M.Y.Y.Y.    n w.w.w.  y.y.y.y.y.y.  b.b.x.b.b.  /./././././././././././././././././././././././.",
"/././././././././././././././././././././.  M.Y.Y.Y.B.  7 w.w.w.  y.y.y.y.y.u.8 f.b.5.3.z.O /./././././././././././././././././././././././.",
"/././././././././././././././././././././.  M.M.Y.Y.Y.Y.  0.w.w.o w.y.y.t.e.  x J b.b.2.2.  /./././././././././././././././././././././././.",
"/./././././././././././././././././././././.  M.U.Y.~.T.  7.8.w.w.9 o x 7.q.8.  1.2.2.1.  /././././././././././././././././././././././././.",
"/././././././././././././././././././././././.  M.M.Y.V.o 7.w.y.y.b m 7.7.7.M           /./././././././././././././././././././././././././.",
"/./././././././././././././././././././././././.          M w.w.r.w.b 8 n     /././././././././././././././././././././././././././././././.",
"/././././././././././././././././././././././././././././.m 9.w.e.w.c   & 7.  /././././././././././././././././././././././././././././././.",
"/././././././././././././././././././././././././././././.  7.q.q.7   E.    G s.O   /./././././././././././././././././././././././././././.",
"/./././././././././././././././././././././././././././././.% 7.+ p.    N R.^.^.R.R.  /././././././././././././././././././././././././././.",
"/./././././././././././././././././././././././././././.    r   i.  +.  R.R.R.R.R.D.    /./././././././././././././././././././././././././.",
"/././././././././././././././././././././././././././.      P L    .a p.R.R.R.h.  = E.s.  /././././././././././././././././././././././././.",
"/././././././././././././././././././././././././././.  s.0     2 [ . F.F.g.  = E.^.=   /./././././././././././././././././././././././././.",
"/././././././././././././././././././././././././././.    g.d.  X | . i.  2 E.R.    /./././././././././././././././././././././././././././.",
"/././././././././././././././././././././././././././././.  g.D.  y   w R.R.    /./././././././././././././././././././././././././././././.",
"/./././././././././././././././././././././././././././././.  g.  r H.E.      /././././././././././././././././././././././././././././././.",
"/././././././././././././././././././././././././././././././.  C       g.g.  /././././././././././././././././././././././././././././././.",
"/./././././././././././././././././././././././././././././././.    g.* o i.  /././././././././././././././././././././././././././././././.",
"/././././././././././././././././././././././././././././././././.    D.t   /./././././././././././././././././././././././././././././././.",
"/./././././././././././././././././././././././././././././././././.    w   /./././././././././././././././././././././././././././././././.",
"/./././././././././././././././././././././././././././././././././././.  /././././././././././././././././././././././././././././././././.",
"/./././././././././././././././././././././././././././././././././././././././././././././././././././././././././././././././././././././.",
"/./././././././././././././././././././././././././././././././././././././././././././././././././././././././././././././././././././././.",
"/./././././././././././././././././././././././././././././././././././././././././././././././././././././././././././././././././././././.",
"/./././././././././././././././././././././././././././././././././././././././././././././././././././././././././././././././././././././.",
"/./././././././././././././././././././././././././././././././././././././././././././././././././././././././././././././././././././././.",
"/./././././././././././././././././././././././././././././././././././././././././././././././././././././././././././././././././././././."
};
