/* XPM */
static char *result[] = {
/* columns rows colors chars-per-pixel */
"70 70 161 2 ",
"   c #000000",
".  c #0A0202",
"X  c #04090E",
"o  c #0B0B0B",
"O  c #04060A",
"+  c #130202",
"@  c #1D0203",
"#  c #130D09",
"$  c #070D15",
"%  c #081119",
"&  c #131313",
"*  c #1A1312",
"=  c #1A1A1A",
"-  c #1F1A15",
";  c #260000",
":  c #370000",
">  c #3D0B0F",
",  c #261B0D",
"<  c #0B1520",
"1  c #101F2F",
"2  c #112232",
"3  c gray14",
"4  c #2D2D2D",
"5  c #2C2624",
"6  c #392A29",
"7  c #3C3127",
"8  c gray21",
"9  c #3A3A3A",
"0  c #490000",
"q  c #580507",
"w  c #441600",
"e  c #4A0D12",
"r  c #5C1016",
"t  c #640000",
"y  c #790000",
"u  c #681A00",
"i  c #631218",
"p  c #78151C",
"a  c #73151C",
"s  c #433D38",
"d  c #755728",
"f  c #7F602D",
"g  c #19324B",
"h  c #1E3C5B",
"j  c #24476A",
"k  c #274E75",
"l  c #2B547C",
"z  c #275078",
"x  c #434343",
"c  c gray30",
"v  c #4E4842",
"b  c #5E5D5D",
"n  c gray33",
"m  c #615851",
"M  c #626262",
"N  c #6C6C6B",
"B  c #766C62",
"V  c #7D7368",
"C  c #7D7D7D",
"Z  c #890000",
"A  c #820000",
"S  c #9C0000",
"D  c #80181F",
"F  c #A6090D",
"G  c #BE0608",
"H  c #B31218",
"J  c #831920",
"K  c #8F1B22",
"L  c #941B24",
"P  c #9D1D27",
"I  c #A71720",
"U  c #A41B24",
"Y  c #AA2029",
"T  c #B3222B",
"R  c #C40000",
"E  c #CA0203",
"W  c #C7070A",
"Q  c #D50000",
"!  c #D90800",
"~  c #D71010",
"^  c #E01700",
"/  c #C43E00",
"(  c #EA2900",
")  c #E72500",
"_  c #F23C00",
"`  c #E34B00",
"'  c #EE4E00",
"]  c #FA4B00",
"[  c #F64400",
"{  c #FE5400",
"}  c #FE5B0A",
"|  c #FE5807",
" . c #985754",
".. c #856E57",
"X. c #93795F",
"o. c #827569",
"O. c #987D63",
"+. c #D87D79",
"@. c #B2833E",
"#. c #AA8764",
"$. c #B58F69",
"%. c #B8936E",
"&. c #D09B48",
"*. c #FE884E",
"=. c #FE8E57",
"-. c #E0A64D",
";. c #EDAE51",
":. c #C5986B",
">. c #C49E78",
",. c #F8C360",
"<. c #2C5680",
"1. c #2D5985",
"2. c #2E5C8A",
"3. c #316395",
"4. c #336699",
"5. c #376DA4",
"6. c #3B75AF",
"7. c #4784C0",
"8. c #888888",
"9. c gray58",
"0. c #989898",
"q. c #A39688",
"w. c #B3A393",
"e. c #B9A99B",
"r. c #AEAEAE",
"t. c #B2B2B2",
"y. c gray",
"u. c #FF938E",
"i. c #C5A382",
"p. c #C5A688",
"a. c #D1AB85",
"s. c #DAB087",
"d. c #EEBF8F",
"f. c #C5B2A0",
"g. c #C8BAAC",
"h. c #FFAEAA",
"j. c #FFCC99",
"k. c #F8C497",
"l. c #FFD7AF",
"z. c #FFD0A1",
"x. c #FFCFBF",
"c. c #FFD9B3",
"v. c #C4C4C4",
"b. c #CCCCCC",
"n. c #D7D1CA",
"m. c #D4D4D4",
"M. c gray86",
"N. c #EDD9C6",
"B. c #F1DDC9",
"V. c #FFDEDC",
"C. c #FFE6CD",
"Z. c #FFEAD5",
"A. c #E5E5E5",
"S. c #ECECEC",
"D. c #ECE3E3",
"F. c #FFE4E2",
"G. c #FFF0E0",
"H. c #F3F3F3",
"J. c #FEFEFE",
"K. c #FFF8F2",
"L. c None",
/* pixels */
"L.L.L.L.L.L.L.L.L.L.L.L.L.L.L.L.L.L.L.L.L.L.L.L.L.L.L.L.L.L.L.L.L.L.L.L.L.L.L.L.L.L.L.L.L.L.L.L.L.L.L.L.L.L.L.L.L.L.L.L.L.L.L.L.L.L.L.L.L.L.",
"L.L.L.L.L.L.L.L.L.L.L.L.L.L.L.L.L.L.L.L.L.L.L.L.L.L.L.L.L.L.L.L.L.L.L.L.L.L.L.L.L.L.L.L.L.L.L.L.L.L.L.L.L.L.L.L.L.L.L.L.L.L.L.L.L.L.L.L.L.L.",
"L.L.L.L.L.L.L.L.L.L.L.L.L.L.L.L.L.L.L.L.L.L.L.L.L.L.L.L.L.L.L.L.L.L.L.L.L.L.L.L.L.L.L.L.L.L.L.L.L.L.L.L.L.L.L.L.L.L.L.L.L.L.L.L.L.L.L.L.L.L.",
"L.L.L.L.L.L.L.L.L.L.L.L.L.L.L.L.L.L.L.L.L.L.L.L.L.L.L.L.L.L.L.L.L.L.L.L.    L.L.L.L.L.L.L.L.L.L.L.L.L.L.L.L.L.L.L.L.L.L.L.L.L.L.L.L.L.L.L.L.",
"L.L.L.L.L.L.L.L.L.L.L.L.L.L.L.L.L.L.L.L.L.L.L.L.L.L.L.L.L.L.L.L.L.    . R Q +   L.L.L.L.L.L.L.L.L.L.L.L.L.L.L.L.L.L.L.L.L.L.L.L.L.L.L.L.L.L.",
"L.L.L.L.L.L.L.L.L.L.L.L.L.L.L.L.L.L.L.L.L.L.L.L.L.L.L.L.L.L.L.L.  + Q { { | { E   L.L.L.L.L.L.L.L.L.L.L.L.L.L.L.L.L.L.L.L.L.L.L.L.L.L.L.L.L.",
"L.L.L.L.L.L.L.L.L.L.L.L.L.L.L.L.L.L.L.L.L.L.L.L.L.L.L.L.L.L.L.  A ( { K.J.J.J.H.  L.L.L.L.L.L.L.L.L.L.L.L.L.L.L.L.L.L.L.L.L.L.L.L.L.L.L.L.L.",
"L.L.L.L.L.L.L.L.L.L.L.L.L.L.L.L.L.L.L.L.L.L.L.L.L.L.L.L.L.L.  t [ { J.J.J.J.J.H.H.  L.L.L.L.L.L.L.L.L.L.L.L.L.L.L.L.L.L.L.L.L.L.L.L.L.L.L.L.",
"L.L.L.L.L.L.L.L.L.L.L.L.L.L.L.L.L.L.L.L.L.L.L.L.L.L.L.L.L.  . ) | J.J.J.H.H.H.H.H.O L.L.L.L.L.L.L.L.L.L.L.L.L.L.L.L.L.L.L.L.L.L.L.L.L.L.L.L.",
"L.L.L.L.L.L.L.L.L.L.L.L.L.L.L.L.L.L.L.L.L.L.L.L.    q +     Q { J.H.H.H.H.H.H.H.H.5 L.L.L.L.L.L.L.L.L.L.L.L.L.L.L.L.L.L.L.L.L.L.L.L.L.L.L.L.",
"L.L.L.L.L.L.L.L.L.L.L.L.L.L.L.L.L.L.L.L.L.L.L.  0 { { {   Q { J.H.H.H.H.H.H.H.H.H.D.  L.L.L.L.L.L.L.L.L.L.L.L.L.L.L.L.L.L.L.L.L.L.L.L.L.L.L.",
"L.L.L.L.L.L.L.L.L.L.L.L.L.L.L.L.L.L.L.L.L.L.L.  Q ] '   Q { J.H.H.H.H.H.S.H.S.S.H.S.  L.L.L.L.L.L.L.L.L.L.L.L.L.L.L.L.L.L.L.L.L.L.L.L.L.L.L.",
"L.L.L.L.L.L.L.L.L.L.L.L.L.L.L.L.L.L.L.L.L.L.L.  E     ( *.J.H.H.H.S.H.S.S.S.S.H.S.S.  L.L.L.L.L.L.L.L.L.L.L.L.L.L.L.L.L.L.L.L.L.L.L.L.L.L.L.",
"L.L.L.L.L.L.L.L.L.L.L.L.L.L.L.L.L.L.L.L.L.L.L.    Q { J.H.H.H.S.H.S.S.S.S.S.S.S.S.b.  L.L.L.L.L.L.L.L.L.L.L.L.L.L.L.L.L.L.L.L.L.L.L.L.L.L.L.",
"L.L.L.L.L.L.L.L.L.L.L.L.L.L.L.L.L.L.L.L.L.  . Q { =.J.H.S.S.S.S.S.S.S.S.S.S.S.b.v.    L.L.L.L.L.L.L.L.L.L.L.L.L.L.L.L.L.L.L.L.L.L.L.L.L.L.L.",
"L.L.L.L.L.L.L.L.L.L.L.L.L.L.L.L.L.L.L.  . Q { } J.S.H.S.S.S.S.S.S.S.S.S.S.b.x   . L L   L.L.L.L.L.L.L.L.L.L.L.L.L.L.L.L.L.L.L.L.L.L.L.L.L.L.",
"L.L.L.L.L.L.L.L.L.L.L.L.L.L.L.L.L.    Q { { { S.S.S.S.S.S.S.S.S.S.S.M.v.    e T Y J J   L.L.L.L.L.L.L.L.L.L.L.L.L.L.L.L.L.L.L.L.L.L.L.L.L.L.",
"L.L.L.L.L.L.L.L.L.L.L.L.L.L.L.L.  ; ] { { ^ ~ S.S.S.A.S.A.S.A.M.b.M     Y T P P i     Q     L.L.L.L.L.L.L.L.L.L.L.L.L.L.L.L.L.L.L.L.L.L.L.L.",
"L.L.L.L.L.L.L.L.L.L.L.L.L.L.L.  @ _ { ! Q Q ! S.A.S.A.A.m.b.b.O   > T Y P P .   w { { { Q +   L.L.L.L.L.L.L.L.L.L.L.L.L.L.L.L.L.L.L.L.L.L.L.",
"L.L.L.L.L.L.L.L.L.L.L.L.L.L.L.  P P P I W W W m.b.b.b.b.8.    L T P P p     ` { { { { { { Q y   L.L.L.L.L.L.L.L.L.L.L.L.L.L.L.L.L.L.L.L.L.L.",
"L.L.L.L.L.L.L.L.L.L.L.L.L.L.L.  P P P P P P P b.b.b.o   + T T P P .   + { { { { { { { { { { Q y   L.L.L.L.L.L.L.L.L.L.L.L.L.L.L.L.L.L.L.L.L.",
"L.L.L.L.L.L.L.L.L.L.L.L.L.L.L.  P P P P P P P J     J T P P L     ` { { { { { { { { { { { { Q Q   L.L.L.L.L.L.L.L.L.L.L.L.L.L.L.L.L.L.L.L.L.",
"L.L.L.L.L.L.L.L.L.L.L.L.L.L.L.L.  P P P P +   + Y T J P +   . Q Q Q Q Q ] { { { { { { { { { Q Q R   L.L.L.L.L.L.L.L.L.L.L.L.L.L.L.L.L.L.L.L.",
"L.L.L.L.L.L.L.L.L.L.L.L.L.L.L.L.L.  q P   a T K J J     Z Q Q Q Q Q Q Q Q Q Q Q Q Q Q Q Q Q Q Q F   L.L.L.L.L.L.L.L.L.L.L.L.L.L.L.L.L.L.L.L.",
"L.L.L.L.L.L.L.L.L.L.L.L.L.L.L.L.L.L.L.  r J J e       . P H Q Q Q Q Q Q Q Q Q Q Q Q Q Q Q Q Q G   L.L.L.L.L.L.L.L.L.L.L.L.L.L.L.L.L.L.L.L.L.",
"L.L.L.L.L.L.L.L.L.L.L.L.L.L.L.L.L.L.L.L.      d ;.;.,.@.    L P U Q Q Q Q Q Q Q Q Q Q Q Q H P   L.L.L.L.L.L.L.L.L.L.L.L.L.L.L.L.L.L.L.L.L.L.",
"L.L.L.L.L.L.L.L.L.L.L.L.L.L.L.L.L.L.L.L.L.  ;.;.;.;.;.;.f ;.,     . p P P P P P P P P P +     L.L.L.L.L.L.L.L.L.L.L.L.L.L.L.L.L.L.L.L.L.L.L.",
"L.L.L.L.L.L.L.L.L.L.L.L.L.L.L.L.L.L.L.L.L.  ;.;.;.;.;.;.  ;.;.d     d                   L.L.L.L.L.L.L.L.L.L.L.L.L.L.L.L.L.L.L.L.L.L.L.L.L.L.",
"L.L.L.L.L.L.L.L.L.L.L.L.L.L.L.L.L.L.L.L.L.        -.;.#     . J.Z.    q.Z.&     = b.J.  L.L.L.L.L.L.L.L.L.L.L.L.L.L.L.L.L.L.L.L.L.L.L.L.L.L.",
"L.L.L.L.L.L.L.L.L.L.L.L.L.L.L.L.L.L.L.L.L.  K.Z.Z.  &.V Z.  8 b.O g.Z.Z.Z.N.Z.Z.  J.J.  L.L.L.L.L.L.L.L.L.L.L.L.L.L.L.L.L.L.L.L.L.L.L.L.L.L.",
"L.L.L.L.L.L.L.L.L.L.L.L.L.L.L.L.L.L.L.L.  J.Z.j.j.  B Z.B.  = = = Z.Z.Z.Z.Z.Z.Z.  = N   L.L.L.L.L.L.L.L.L.L.L.L.L.L.L.L.L.L.L.L.L.L.L.L.L.L.",
"L.L.L.L.L.L.L.L.L.L.L.L.L.L.L.L.L.L.L.L.  Z.l.j.j.j.Z.Z.N.  = = & Z.Z.x.u.h.Z.Z.. = b 3   L.L.L.L.L.L.L.L.L.L.L.L.L.L.L.L.L.L.L.L.L.L.L.L.L.",
"L.L.L.L.L.L.L.L.L.L.L.L.L.L.L.L.L.L.L.L.  Z.C.j.j.j.Z.Z.Z.  & =   Z.+.u.u.F.u.v   = n.    L.L.L.L.L.L.L.L.L.L.L.L.L.L.L.L.L.L.L.L.L.L.L.L.L.",
"L.L.L.L.L.L.L.L.L.L.L.L.L.L.L.L.L.L.L.L.L.O Z.j.j.j.j.Z.Z.s     Z.m u.u.u.u.u.+.    Z.    L.L.L.L.L.L.L.L.L.L.L.L.L.L.L.L.L.L.L.L.L.L.L.L.L.",
"L.L.L.L.L.L.L.L.L.L.L.L.L.L.L.L.L.L.L.L.L.    e.e.j.j.u.Z.u.x.Z.Z.Z.* u.u.u.u.  Z.V.u.  L.L.L.L.L.L.L.L.L.L.L.L.L.L.L.L.L.L.L.L.L.L.L.L.L.L.",
"L.L.L.L.L.L.L.L.L.L.L.L.L.L.L.L.L.L.L.L.L.L.L.L.L.    i.u.u.j.l.C.Z.Z.d.$.%.j.j.a. .# L.L.L.L.L.L.L.L.L.L.L.L.L.L.L.L.L.L.L.L.L.L.L.L.L.L.L.",
"L.L.L.L.L.L.L.L.L.L.L.L.L.L.L.L.L.L.L.L.L.L.L.L.L.L.L.        = ..k.j.j.s.7       L.L.L.L.L.L.L.L.L.L.L.L.L.L.L.L.L.L.L.L.L.L.L.L.L.L.L.L.L.",
"L.L.L.L.L.L.L.L.L.L.L.L.L.L.L.L.L.L.L.L.L.L.L.L.    A.A.  4.4.3.O c & 3 2   &   L.L.L.L.L.L.L.L.L.L.L.L.L.L.L.L.L.L.L.L.L.L.L.L.L.L.L.L.L.L.",
"L.L.L.L.L.L.L.L.L.L.L.L.L.L.L.L.L.L.L.L.L.L.L.  A.A.S.J.J.  4.4.4.  m.& z h v.o L.L.L.L.L.L.L.L.L.L.L.L.L.L.L.L.L.L.L.L.L.L.L.L.L.L.L.L.L.L.",
"L.L.L.L.L.L.L.L.L.L.L.L.L.L.L.L.L.L.L.L.L.L.  #.y.J.J.J.J.    4.4.4.4.4.4.4.O v.  L.L.L.L.L.L.L.L.L.L.L.L.L.L.L.L.L.L.L.L.L.L.L.L.L.L.L.L.L.",
"L.L.L.L.L.L.L.L.L.L.L.L.L.L.L.L.L.L.L.L.  . j.Z.  J.J.J.J.= b 1.2     O l 7.  v.c L.  5 .   L.L.L.L.L.L.L.L.L.L.L.L.L.L.L.L.L.L.L.L.L.L.L.L.",
"L.L.L.L.L.L.L.L.L.L.L.L.L.L.L.L.L.L.L.L.  j.Z.Z.w.H.J.o   J.  g 4.6.5.h   2     o.  w.g.p.f.  L.L.L.L.L.L.L.L.L.L.L.L.L.L.L.L.L.L.L.L.L.L.L.",
"L.L.L.L.L.L.L.L.L.L.L.L.L.L.L.L.L.L.L.  j.c.Z.Z.o     b.A.O 4.3.4.6.6.6.6.6.    f.f.f.>.:.i.  L.L.L.L.L.L.L.L.L.L.L.L.L.L.L.L.L.L.L.L.L.L.L.",
"L.L.L.L.L.L.L.L.L.L.L.L.L.L.L.L.L.L.L.  j.Z.Z.Z.O L.  t.  4.4.4.j 6.6.6.6.6.%   f.f.f.f.:.:.  L.L.L.L.L.L.L.L.L.L.L.L.L.L.L.L.L.L.L.L.L.L.L.",
"L.L.L.L.L.L.L.L.L.L.L.L.L.L.L.L.L.L.L.  j.z.Z.Z.Z.&   l <.4.4.4.$ 6.6.6.6.6.1.X :.p.>.:.:.  L.L.L.L.L.L.L.L.L.L.L.L.L.L.L.L.L.L.L.L.L.L.L.L.",
"L.L.L.L.L.L.L.L.L.L.L.L.L.L.L.L.L.L.L.L.  j.Z.Z.J.    z <.4.4.4.  4.6.5.4.h   $ #.:.:.%.  L.L.L.L.L.L.L.L.L.L.L.L.L.L.L.L.L.L.L.L.L.L.L.L.L.",
"L.L.L.L.L.L.L.L.L.L.L.L.L.L.L.L.L.L.L.L.  #.j.Z.G.  L.< <.<.4.4.4.h   k 4.4.<.          L.L.L.L.L.L.L.L.L.L.L.L.L.L.L.L.L.L.L.L.L.L.L.L.L.L.",
"L.L.L.L.L.L.L.L.L.L.L.L.L.L.L.L.L.L.L.L.L.    O.  L.L.  <.<.2.4.6.4.4.g j l O   8 y.4   L.L.L.L.L.L.L.L.L.L.L.L.L.L.L.L.L.L.L.L.L.L.L.L.L.L.",
"L.L.L.L.L.L.L.L.L.L.L.L.L.L.L.L.L.L.L.L.L.L.L.L.L.      X l 1.4.4.4.<.  9   O J.J.H.A.A.    L.L.L.L.L.L.L.L.L.L.L.L.L.L.L.L.L.L.L.L.L.L.L.L.",
"L.L.L.L.L.L.L.L.L.L.L.L.L.L.L.L.L.L.L.L.L.L.L.L.L.  0.  @   <.1.4.4.h r.    A.A.A.A.r.  A.=   L.L.L.L.L.L.L.L.L.L.L.L.L.L.L.L.L.L.L.L.L.L.L.",
"L.L.L.L.L.L.L.L.L.L.L.L.L.L.L.L.L.L.L.L.L.L.L.L.L.  r.    0 : <.l 1.    / o A.A.A.c   J.r.  L.L.L.L.L.L.L.L.L.L.L.L.L.L.L.L.L.L.L.L.L.L.L.L.",
"L.L.L.L.L.L.L.L.L.L.L.L.L.L.L.L.L.L.L.L.L.L.L.L.L.  r.= 0.M     $ g = u G c A.A.& O S.9   L.L.L.L.L.L.L.L.L.L.L.L.L.L.L.L.L.L.L.L.L.L.L.L.L.",
"L.L.L.L.L.L.L.L.L.L.L.L.L.L.L.L.L.L.L.L.L.L.L.L.L.L.n v.o r.r.=       ! Q   b.O 4 A.o   L.L.L.L.L.L.L.L.L.L.L.L.L.L.L.L.L.L.L.L.L.L.L.L.L.L.",
"L.L.L.L.L.L.L.L.L.L.L.L.L.L.L.L.L.L.L.L.L.L.L.L.L.L.  r.  r.r.r.      A.Q     #.A.O   L.L.L.L.L.L.L.L.L.L.L.L.L.L.L.L.L.L.L.L.L.L.L.L.L.L.L.",
"L.L.L.L.L.L.L.L.L.L.L.L.L.L.L.L.L.L.L.L.L.L.L.L.L.L.  r.  r.r.r.N L.  6 S   A.A.  L.L.L.L.L.L.L.L.L.L.L.L.L.L.L.L.L.L.L.L.L.L.L.L.L.L.L.L.L.",
"L.L.L.L.L.L.L.L.L.L.L.L.L.L.L.L.L.L.L.L.L.L.L.L.L.L.  r.O r.r.v.9.  L.    J.A.  L.L.L.L.L.L.L.L.L.L.L.L.L.L.L.L.L.L.L.L.L.L.L.L.L.L.L.L.L.L.",
"L.L.L.L.L.L.L.L.L.L.L.L.L.L.L.L.L.L.L.L.L.L.L.L.L.L.L.C v.3 r.v.& L.L.    b.  L.L.L.L.L.L.L.L.L.L.L.L.L.L.L.L.L.L.L.L.L.L.L.L.L.L.L.L.L.L.L.",
"L.L.L.L.L.L.L.L.L.L.L.L.L.L.L.L.L.L.L.L.L.L.L.L.L.L.L.  v.  r.t.  L.L.L.    L.L.L.L.L.L.L.L.L.L.L.L.L.L.L.L.L.L.L.L.L.L.L.L.L.L.L.L.L.L.L.L.",
"L.L.L.L.L.L.L.L.L.L.L.L.L.L.L.L.L.L.L.L.L.L.L.L.L.L.L.  t.  r.  L.L.L.L.L.L.L.L.L.L.L.L.L.L.L.L.L.L.L.L.L.L.L.L.L.L.L.L.L.L.L.L.L.L.L.L.L.L.",
"L.L.L.L.L.L.L.L.L.L.L.L.L.L.L.L.L.L.L.L.L.L.L.L.L.L.L.  0.    L.L.L.L.L.L.L.L.L.L.L.L.L.L.L.L.L.L.L.L.L.L.L.L.L.L.L.L.L.L.L.L.L.L.L.L.L.L.L.",
"L.L.L.L.L.L.L.L.L.L.L.L.L.L.L.L.L.L.L.L.L.L.L.L.L.L.L.    L.L.L.L.L.L.L.L.L.L.L.L.L.L.L.L.L.L.L.L.L.L.L.L.L.L.L.L.L.L.L.L.L.L.L.L.L.L.L.L.L.",
"L.L.L.L.L.L.L.L.L.L.L.L.L.L.L.L.L.L.L.L.L.L.L.L.L.L.L.L.L.L.L.L.L.L.L.L.L.L.L.L.L.L.L.L.L.L.L.L.L.L.L.L.L.L.L.L.L.L.L.L.L.L.L.L.L.L.L.L.L.L.",
"L.L.L.L.L.L.L.L.L.L.L.L.L.L.L.L.L.L.L.L.L.L.L.L.L.L.L.L.L.L.L.L.L.L.L.L.L.L.L.L.L.L.L.L.L.L.L.L.L.L.L.L.L.L.L.L.L.L.L.L.L.L.L.L.L.L.L.L.L.L.",
"L.L.L.L.L.L.L.L.L.L.L.L.L.L.L.L.L.L.L.L.L.L.L.L.L.L.L.L.L.L.L.L.L.L.L.L.L.L.L.L.L.L.L.L.L.L.L.L.L.L.L.L.L.L.L.L.L.L.L.L.L.L.L.L.L.L.L.L.L.L.",
"L.L.L.L.L.L.L.L.L.L.L.L.L.L.L.L.L.L.L.L.L.L.L.L.L.L.L.L.L.L.L.L.L.L.L.L.L.L.L.L.L.L.L.L.L.L.L.L.L.L.L.L.L.L.L.L.L.L.L.L.L.L.L.L.L.L.L.L.L.L.",
"L.L.L.L.L.L.L.L.L.L.L.L.L.L.L.L.L.L.L.L.L.L.L.L.L.L.L.L.L.L.L.L.L.L.L.L.L.L.L.L.L.L.L.L.L.L.L.L.L.L.L.L.L.L.L.L.L.L.L.L.L.L.L.L.L.L.L.L.L.L.",
"L.L.L.L.L.L.L.L.L.L.L.L.L.L.L.L.L.L.L.L.L.L.L.L.L.L.L.L.L.L.L.L.L.L.L.L.L.L.L.L.L.L.L.L.L.L.L.L.L.L.L.L.L.L.L.L.L.L.L.L.L.L.L.L.L.L.L.L.L.L.",
"L.L.L.L.L.L.L.L.L.L.L.L.L.L.L.L.L.L.L.L.L.L.L.L.L.L.L.L.L.L.L.L.L.L.L.L.L.L.L.L.L.L.L.L.L.L.L.L.L.L.L.L.L.L.L.L.L.L.L.L.L.L.L.L.L.L.L.L.L.L.",
"L.L.L.L.L.L.L.L.L.L.L.L.L.L.L.L.L.L.L.L.L.L.L.L.L.L.L.L.L.L.L.L.L.L.L.L.L.L.L.L.L.L.L.L.L.L.L.L.L.L.L.L.L.L.L.L.L.L.L.L.L.L.L.L.L.L.L.L.L.L.",
"L.L.L.L.L.L.L.L.L.L.L.L.L.L.L.L.L.L.L.L.L.L.L.L.L.L.L.L.L.L.L.L.L.L.L.L.L.L.L.L.L.L.L.L.L.L.L.L.L.L.L.L.L.L.L.L.L.L.L.L.L.L.L.L.L.L.L.L.L.L."
};
