/* XPM */
static char *result[] = {
/* columns rows colors chars-per-pixel */
"70 70 225 2 ",
"   c #010101",
".  c #0C0101",
"X  c #0A0A0A",
"o  c #080909",
"O  c #140404",
"+  c #1B0202",
"@  c #130C0B",
"#  c #130E07",
"$  c #060D13",
"%  c #09121B",
"&  c #151515",
"*  c #1A1A1A",
"=  c #1B1714",
"-  c #16130F",
";  c #240300",
":  c #2A0705",
">  c #390A0E",
",  c #360607",
"<  c #3F0E10",
"1  c #241B17",
"2  c #391A1C",
"3  c #0C1A27",
"4  c #111D29",
"5  c #081C31",
"6  c #122233",
"7  c #14283B",
"8  c #0A233C",
"9  c #2C2C2B",
"0  c #262524",
"q  c #372C21",
"w  c #372B27",
"e  c #393129",
"r  c #343434",
"t  c #3B3B3B",
"y  c #363739",
"u  c #293139",
"i  c #2D231C",
"p  c #470506",
"a  c #5B0101",
"s  c #530202",
"d  c #471502",
"f  c #591903",
"g  c #480E12",
"h  c #4B1C18",
"j  c #5C1117",
"k  c #520F14",
"l  c #680300",
"z  c #780200",
"x  c #64180D",
"c  c #641319",
"v  c #6B141A",
"b  c #76161C",
"n  c #7B1900",
"m  c #4E3019",
"M  c #682405",
"N  c #732600",
"B  c #5F1C21",
"V  c #453F39",
"C  c #453835",
"Z  c #483A2C",
"A  c #643538",
"S  c #57442E",
"D  c #684D25",
"F  c #6F5030",
"G  c #172D43",
"H  c #1A334B",
"J  c #1B3651",
"K  c #1D3A57",
"L  c #0A2845",
"P  c #24374A",
"I  c #2C3D4F",
"U  c #663E42",
"Y  c #224467",
"T  c #274D73",
"R  c #2A527C",
"E  c #365777",
"W  c #4C4C4C",
"Q  c #494745",
"!  c gray36",
"~  c #585452",
"^  c #525154",
"/  c #655C54",
"(  c #6F5F4D",
")  c #7B644A",
"_  c #746659",
"`  c #5C6266",
"'  c #636363",
"]  c #6D6C6C",
"[  c #786E67",
"{  c #737373",
"}  c #7B7B7B",
"|  c #75716D",
" . c #880000",
".. c #81151B",
"X. c #940303",
"o. c #AC151C",
"O. c #A2131A",
"+. c #B21110",
"@. c #8A2900",
"#. c #9A3202",
"$. c #9B2400",
"%. c #A82C00",
"&. c #B23502",
"*. c #AC3100",
"=. c #841920",
"-. c #871921",
";. c #941B24",
":. c #9D1D27",
">. c #A41F28",
",. c #AC202A",
"<. c #C90405",
"1. c #D50100",
"2. c #D90900",
"3. c #D80600",
"4. c #DE1700",
"5. c #E21D03",
"6. c #D72000",
"7. c #D8370B",
"8. c #C72801",
"9. c #EA2C00",
"0. c #E42100",
"q. c #EA3100",
"w. c #946932",
"e. c #936C32",
"r. c #AA7D3A",
"t. c #855D2D",
"y. c #FA4D00",
"u. c #F64200",
"i. c #FE5400",
"p. c #E14B00",
"a. c #DD5C35",
"s. c #FE7A39",
"d. c #907555",
"f. c #A27B42",
"g. c #84766D",
"h. c #9A5755",
"j. c #DE7C59",
"k. c #F97745",
"l. c #CA7772",
"z. c #B4853E",
"x. c #B1854E",
"c. c #9A836D",
"v. c #8A8178",
"b. c #958473",
"n. c #B79471",
"m. c #A68F7B",
"M. c #CB9545",
"N. c #F7814B",
"B. c #F18757",
"V. c #EDAE51",
"C. c #C3976B",
"Z. c #C6916D",
"A. c #F4906D",
"S. c #CEA57C",
"D. c #FEA578",
"F. c #2D5985",
"G. c #2E5A87",
"H. c #305E8D",
"J. c #326496",
"K. c #336699",
"L. c #35689C",
"P. c #30608F",
"I. c #376DA3",
"U. c #3A73AD",
"Y. c #3870A7",
"T. c #3C77B1",
"R. c #6B7D8F",
"E. c #76899C",
"W. c #7A94AD",
"Q. c #868686",
"!. c #929191",
"~. c #9D9D9D",
"^. c #9C908C",
"/. c #A39688",
"(. c #AB968B",
"). c #B7A798",
"_. c #9D9EA0",
"`. c #A3A2A2",
"'. c #AAAAAA",
"]. c #ACAAA7",
"[. c #B2B2B2",
"{. c #BEBEBE",
"}. c #ADB3B8",
"|. c #CC8789",
" X c #F58E89",
".X c #FE938E",
"XX c #FA9791",
"oX c #DAB28A",
"OX c #C4AC98",
"+X c #C5B09D",
"@X c #CDA985",
"#X c #F3AE91",
"$X c #C7B6A6",
"%X c #DFB6B7",
"&X c #F4BDAA",
"*X c #EFB7B4",
"=X c #DDC29B",
"-X c #FFCC9A",
";X c #F9C595",
":X c #DCCAB8",
">X c #FFD1A3",
",X c #FFD5AA",
"<X c #FCC9B8",
"1X c #FEDCB9",
"2X c #EDCEAE",
"3X c #C9C8C8",
"4X c #D4D4D4",
"5X c #DCDCDC",
"6X c #DAD5D5",
"7X c #FBD9C9",
"8X c #F2D1C5",
"9X c #FFE1C3",
"0X c #F5E1CD",
"qX c #FDE4D1",
"wX c #FFEAD5",
"eX c #FAEADF",
"rX c #E4E4E4",
"tX c #ECECEC",
"yX c #EEE8E6",
"uX c #F9EEE9",
"iX c #FEF4EB",
"pX c #F3F3F3",
"aX c #FCFCFC",
"sX c #FEF8F5",
"dX c None",
/* pixels */
"dXdXdXdXdXdXdXdXdXdXdXdXdXdXdXdXdXdXdXdXdXdXdXdXdXdXdXdXdXdXdXdXdXdXdXdXdXdXdXdXdXdXdXdXdXdXdXdXdXdXdXdXdXdXdXdXdXdXdXdXdXdXdXdXdXdXdXdXdXdX",
"dXdXdXdXdXdXdXdXdXdXdXdXdXdXdXdXdXdXdXdXdXdXdXdXdXdXdXdXdXdXdXdXdXdXdXdXdXdXdXdXdXdXdXdXdXdXdXdXdXdXdXdXdXdXdXdXdXdXdXdXdXdXdXdXdXdXdXdXdXdX",
"dXdXdXdXdXdXdXdXdXdXdXdXdXdXdXdXdXdXdXdXdXdXdXdXdXdXdXdXdXdXdXdXdXdXdXdXdXdXdXdXdXdXdXdXdXdXdXdXdXdXdXdXdXdXdXdXdXdXdXdXdXdXdXdXdXdXdXdXdXdX",
"dXdXdXdXdXdXdXdXdXdXdXdXdXdXdXdXdXdXdXdXdXdXdXdXdXdXdXdXdXdXdXdXdXdXdXdXdXdXdXdXdXdXdXdXdXdXdXdXdXdXdXdXdXdXdXdXdXdXdXdXdXdXdXdXdXdXdXdXdXdX",
"dXdXdXdXdXdXdXdXdXdXdXdXdXdXdXdXdXdXdXdXdXdXdXdXdXdXdXdXdXdXdXdXdXdXdXdX    s  .s . dXdXdXdXdXdXdXdXdXdXdXdXdXdXdXdXdXdXdXdXdXdXdXdXdXdXdXdX",
"dXdXdXdXdXdXdXdXdXdXdXdXdXdXdXdXdXdXdXdXdXdXdXdXdXdXdXdXdXdXdXdXdXdXdX  l n %.8.%.n p dXdXdXdXdXdXdXdXdXdXdXdXdXdXdXdXdXdXdXdXdXdXdXdXdXdXdX",
"dXdXdXdXdXdXdXdXdXdXdXdXdXdXdXdXdXdXdXdXdXdXdXdXdXdXdXdXdXdXdXdXdXdXdXa 4.k.A.D.D.A.h.  dXdXdXdXdXdXdXdXdXdXdXdXdXdXdXdXdXdXdXdXdXdXdXdXdXdX",
"dXdXdXdXdXdXdXdXdXdXdXdXdXdXdXdXdXdXdXdXdXdXdXdXdXdXdXdXdXdXdXdXdXdXs 6.N.7XaXaXaXsX}.W dXdXdXdXdXdXdXdXdXdXdXdXdXdXdXdXdXdXdXdXdXdXdXdXdXdX",
"dXdXdXdXdXdXdXdXdXdXdXdXdXdXdXdXdXdXdXdXdXdXdXdXdXdXdXdXdXdXdXdXdXs 4.N.uXaXaXaXaXpXsX[.  dXdXdXdXdXdXdXdXdXdXdXdXdXdXdXdXdXdXdXdXdXdXdXdXdX",
"dXdXdXdXdXdXdXdXdXdXdXdXdXdXdXdXdXdXdXdXdXdXdXdXdXdXdXdX: , : dXp 5.s.sXaXaXpXpXpXpXpX[.  dXdXdXdXdXdXdXdXdXdXdXdXdXdXdXdXdXdXdXdXdXdXdXdXdX",
"dXdXdXdXdXdXdXdXdXdXdXdXdXdXdXdXdXdXdXdXdXdXdXdXdXdX  ; $.6.z : %.s.aXpXpXpXpXpXpXpXpX[.@ dXdXdXdXdXdXdXdXdXdXdXdXdXdXdXdXdXdXdXdXdXdXdXdXdX",
"dXdXdXdXdXdXdXdXdXdXdXdXdXdXdXdXdXdXdXdXdXdXdXdXdXdX; &.i.&.d f s.aXpXpXpXpXpXpXpXpXpX5X^.dXdXdXdXdXdXdXdXdXdXdXdXdXdXdXdXdXdXdXdXdXdXdXdXdX",
"dXdXdXdXdXdXdXdXdXdXdXdXdXdXdXdXdXdXdXdXdXdXdXdXdX  X.1.l O M k.iXpXtXpXpXtXpXtXyXtXtXtX3X  dXdXdXdXdXdXdXdXdXdXdXdXdXdXdXdXdXdXdXdXdXdXdXdX",
"dXdXdXdXdXdXdXdXdXdXdXdXdXdXdXdXdXdXdXdXdXdXdXdXdX  + ; z 8.B.eXpXpXpXpXpXtXtXtXtXtXtXrX'.  dXdXdXdXdXdXdXdXdXdXdXdXdXdXdXdXdXdXdXdXdXdXdXdX",
"dXdXdXdXdXdXdXdXdXdXdXdXdXdXdXdXdXdXdXdXdXdXdXdX    z %.j.&X7XpXpXtXtXtXtXtXtXtXtXtX5X'.9   dXdXdXdXdXdXdXdXdXdXdXdXdXdXdXdXdXdXdXdXdXdXdXdX",
"dXdXdXdXdXdXdXdXdXdXdXdXdXdXdXdXdXdXdXdXdXdX     .*.a.XX7XtXtXtXyXtXtXtXtXtXtXrX4X!.Q C c k dXdXdXdXdXdXdXdXdXdXdXdXdXdXdXdXdXdXdXdXdXdXdXdX",
"dXdXdXdXdXdXdXdXdXdXdXdXdXdXdXdXdXdXdXdXdX+  .#.q.A.&XeXtXtXtXtXtXtXtXyXyX5X_.| ! A c v =.j   dXdXdXdXdXdXdXdXdXdXdXdXdXdXdXdXdXdXdXdXdXdXdX",
"dXdXdXdXdXdXdXdXdXdXdXdXdXdXdXdXdXdXdXdX: @.9.i.q.*XyXtXtXtXtXtXtXrX5X5Xv.' ~ B j b ;.k g f l . dXdXdXdXdXdXdXdXdXdXdXdXdXdXdXdXdXdXdXdXdXdX",
"dXdXdXdXdXdXdXdXdXdXdXdXdXdXdXdXdXdXdX: @.y.q.q.1.*XyXyXtXtXrX5X4X3X} } B g b >...j x M N %.0.l + dXdXdXdXdXdXdXdXdXdXdXdXdXdXdXdXdXdXdXdXdX",
"dXdXdXdXdXdXdXdXdXdXdXdXdXdXdXdXdXdX: x 7.7.<.<.<.%X5XrX5X5X3X!.Q.[ > > ;.;.b v x f @.y.i.i.i.0.a + dXdXdXdXdXdXdXdXdXdXdXdXdXdXdXdXdXdXdXdX",
"dXdXdXdXdXdXdXdXdXdXdXdXdXdXdXdXdX  g :.:.>.>.+.+.|.3X3X[._.| 2 > c >.-.b b d d *.i.i.i.i.i.i.i.5.l + dXdXdXdXdXdXdXdXdXdXdXdXdXdXdXdXdXdXdX",
"dXdXdXdXdXdXdXdXdXdXdXdXdXdXdXdXdXdX< :.:.:.:.>.:.;.^.].~ + g :.>.-.=.: : N p.i.i.i.i.i.i.i.i.i.i.5.a + dXdXdXdXdXdXdXdXdXdXdXdXdXdXdXdXdXdX",
"dXdXdXdXdXdXdXdXdXdXdXdXdXdXdXdXdXdX< ;.:.:.:.;.;.v : O c >.:.;.v . + <.9.y.y.i.y.i.i.i.i.i.i.y.y.5.1.a   dXdXdXdXdXdXdXdXdXdXdXdXdXdXdXdXdX",
"dXdXdXdXdXdXdXdXdXdXdXdXdXdXdXdXdXdXdX> :.:.;..   k :.;.-.v , . p 1.1.1.1.1.1.1.2.9.i.i.i.i.u.3.1.1.1.a   dXdXdXdXdXdXdXdXdXdXdXdXdXdXdXdXdX",
"dXdXdXdXdXdXdXdXdXdXdXdXdXdXdXdXdXdXdXdXO . O b :.-.-.< # < ..+.<.1.1.1.1.1.1.1.1.3.3.2.2.3.3.1.1.1.+.g dXdXdXdXdXdXdXdXdXdXdXdXdXdXdXdXdXdX",
"dXdXdXdXdXdXdXdXdXdXdXdXdXdXdXdXdXdXdXdXdXdX. c =.: @ t.z.D + d O.o.<.1.1.1.1.1.1.1.1.1.1.1.1.1.+.O.p O dXdXdXdXdXdXdXdXdXdXdXdXdXdXdXdXdXdX",
"dXdXdXdXdXdXdXdXdXdXdXdXdXdXdXdXdXdXdXdXdXdXdX: h w.r.M.V.M.z.t.h : , s O.o.o.o.o.o.o.o.o.o.o.a , , dXdXdXdXdXdXdXdXdXdXdXdXdXdXdXdXdXdXdXdX",
"dXdXdXdXdXdXdXdXdXdXdXdXdXdXdXdXdXdXdXdXdXdXdXdX- M.V.V.V.V.z.D r.e.e.. h < > > > > > > > > > dXdXdXdXdXdXdXdXdXdXdXdXdXdXdXdXdXdXdXdXdXdXdX",
"dXdXdXdXdXdXdXdXdXdXdXdXdXdXdXdXdXdXdXdXdXdXdXdX. S D F M.V.z.q D F =Xv.S # / b.V   o e Q.Q.  dXdXdXdXdXdXdXdXdXdXdXdXdXdXdXdXdXdXdXdXdXdXdX",
"dXdXdXdXdXdXdXdXdXdXdXdXdXdXdXdXdXdXdXdXdXdXdXdX  / [ e e.z.d.] X e `.g.m.g.:XwX).[ Q W aX6X  dXdXdXdXdXdXdXdXdXdXdXdXdXdXdXdXdXdXdXdXdXdXdX",
"dXdXdXdXdXdXdXdXdXdXdXdXdXdXdXdXdXdXdXdXdXdXdXdX~ :X9X_ D ) m.).# t W o :XwXqXwXwXwX/.9 '.~.  dXdXdXdXdXdXdXdXdXdXdXdXdXdXdXdXdXdXdXdXdXdXdX",
"dXdXdXdXdXdXdXdXdXdXdXdXdXdXdXdXdXdXdXdXdXdXdX  2X,X-Xn.( m.wX).o * *   :XwX7X0XqXqX/.o 9 ] 0 dXdXdXdXdXdXdXdXdXdXdXdXdXdXdXdXdXdXdXdXdXdXdX",
"dXdXdXdXdXdXdXdXdXdXdXdXdXdXdXdXdXdXdXdXdXdXdX  :X>X-X;X1XqXwX).  & * 9 ).8XXX<X8X*X(.o y ].^ o dXdXdXdXdXdXdXdXdXdXdXdXdXdXdXdXdXdXdXdXdXdX",
"dXdXdXdXdXdXdXdXdXdXdXdXdXdXdXdXdXdXdXdXdXdXdX  $X,X-X;X>X7XqXOX- o 9 :XS Z..X.X.X.Xh.2 V 8X  dXdXdXdXdXdXdXdXdXdXdXdXdXdXdXdXdXdXdXdXdXdXdX",
"dXdXdXdXdXdXdXdXdXdXdXdXdXdXdXdXdXdXdXdXdXdXdXdXo $X-X;X;X,X1X&XOX= | qX0 l. X X X X#X(.w #X  dXdXdXdXdXdXdXdXdXdXdXdXdXdXdXdXdXdXdXdXdXdXdX",
"dXdXdXdXdXdXdXdXdXdXdXdXdXdXdXdXdXdXdXdXdXdXdXdXdXX X X d.-X#X.X.XXXqXwX0XC @ @ @ C @X<X X.XdXdXdXdXdXdXdXdXdXdXdXdXdXdXdXdXdXdXdXdXdXdXdXdX",
"dXdXdXdXdXdXdXdXdXdXdXdXdXdXdXdXdXdXdXdXdXdXdXdXdXdXdXdX= 1 1 1 ~ ;X>X>X>XoXoXoXoX) = 1 w dXdXdXdXdXdXdXdXdXdXdXdXdXdXdXdXdXdXdXdXdXdXdXdXdX",
"dXdXdXdXdXdXdXdXdXdXdXdXdXdXdXdXdXdXdXdXdXdXdXdXdXdXdXdX      3 E ^ q q w w q h q 1 dXdXdXdXdXdXdXdXdXdXdXdXdXdXdXdXdXdXdXdXdXdXdXdXdXdXdXdX",
"dXdXdXdXdXdXdXdXdXdXdXdXdXdXdXdXdXdXdXdXdXdXdXdXdXdXdX!.~.'.~.` G F.Y 3 `.[.y % ! ! dXdXdXdXdXdXdXdXdXdXdXdXdXdXdXdXdXdXdXdXdXdXdXdXdXdXdXdX",
"dXdXdXdXdXdXdXdXdXdXdXdXdXdXdXdXdXdXdXdXdXdXdXdXdXdXdX`.rXaXpX`.* Y J.T E.W.E Y R.{ r dXdXdXdXdXdXdXdXdXdXdXdXdXdXdXdXdXdXdXdXdXdXdXdXdXdXdX",
"dXdXdXdXdXdXdXdXdXdXdXdXdXdXdXdXdXdXdXdXdXdXdXdXdXdXW {.sXaXaX6X] 3 T Y 6 G G H I ! } dXdXdXdXdXdXdXdXdXdXdXdXdXdXdXdXdXdXdXdXdXdXdXdXdXdXdX",
"dXdXdXdXdXdXdXdXdXdXdXdXdXdXdXdXdXdXdXdXdXdXdXdXdX  b.~.4XaX4X_.}.H H Y J H G 5 o W [.dXdXdXdXdXdXdXdXdXdXdXdXdXdXdXdXdXdXdXdXdXdXdXdXdXdXdX",
"dXdXdXdXdXdXdXdXdXdXdXdXdXdXdXdXdXdXdXdXdXdXdXdXdXS oXb.g.`.' r W.G.6 Y.U.U.K.F.7 t } dXdXdXdXdXdXdXdXdXdXdXdXdXdXdXdXdXdXdXdXdXdXdXdXdXdXdX",
"dXdXdXdXdXdXdXdXdXdXdXdXdXdXdXdXdXdXdXdXdXdXdXdX  @X9XwX] $ 4 J J.F.$ Y.U.T.U.T.J   = / e e dXdXdXdXdXdXdXdXdXdXdXdXdXdXdXdXdXdXdXdXdXdXdXdX",
"dXdXdXdXdXdXdXdXdXdXdXdXdXdXdXdXdXdXdXdXdXdXdXdX  S.9XwXg.I E F.J.F.  Y.U.U.U.T.K   V +X+X(.1 dXdXdXdXdXdXdXdXdXdXdXdXdXdXdXdXdXdXdXdXdXdXdX",
"dXdXdXdXdXdXdXdXdXdXdXdXdXdXdXdXdXdXdXdXdXdXdXdX  S.9XwXwX$XQ 4 K.G.$ I.U.U.I.Y.K o V +X@XS.OXdXdXdXdXdXdXdXdXdXdXdXdXdXdXdXdXdXdXdXdXdXdXdX",
"dXdXdXdXdXdXdXdXdXdXdXdXdXdXdXdXdXdXdXdXdXdXdXdX  S.9XwXwXeX^.6 K.J.F.F.J.R J % J J V OXC.C.C.- dXdXdXdXdXdXdXdXdXdXdXdXdXdXdXdXdXdXdXdXdXdX",
"dXdXdXdXdXdXdXdXdXdXdXdXdXdXdXdXdXdXdXdXdXdXdXdXdX) oX9XwXiX].u F.P.J.J.K.J.H.F.R P S C.C.d.# dXdXdXdXdXdXdXdXdXdXdXdXdXdXdXdXdXdXdXdXdXdXdX",
"dXdXdXdXdXdXdXdXdXdXdXdXdXdXdXdXdXdXdXdXdXdXdXdXdX- 1 n.>X>Xc.6 K.Y.I.R R F.F.Y 6 o # = 1 dXdXdXdXdXdXdXdXdXdXdXdXdXdXdXdXdXdXdXdXdXdXdXdXdX",
"dXdXdXdXdXdXdXdXdXdXdXdXdXdXdXdXdXdXdXdXdXdXdXdXdXdXdXq e q y T L.L.K.H.6 3 % % $ dXdXdXdXdXdXdXdXdXdXdXdXdXdXdXdXdXdXdXdXdXdXdXdXdXdXdXdXdX",
"dXdXdXdXdXdXdXdXdXdXdXdXdXdXdXdXdXdXdXdXdXdXdXdXdXdXdX  Q t 6 H.K.K.K.H.$ 8 8 3 dXdXdXdXdXdXdXdXdXdXdXdXdXdXdXdXdXdXdXdXdXdXdXdXdXdXdXdXdXdX",
"dXdXdXdXdXdXdXdXdXdXdXdXdXdXdXdXdXdXdXdXdXdXdXdXdXdXdX  ' ! % K G.F.K 7 5 L L dXdXdXdXdXdXdXdXdXdXdXdXdXdXdXdXdXdXdXdXdXdXdXdXdXdXdXdXdXdXdX",
"dXdXdXdXdXdXdXdXdXdXdXdXdXdXdXdXdXdXdXdXdXdXdXdXdXdXdX  ' !   % G H ` E.E.I dXdXdXdXdXdXdXdXdXdXdXdXdXdXdXdXdXdXdXdXdXdXdXdXdXdXdXdXdXdXdXdX",
"dXdXdXdXdXdXdXdXdXdXdXdXdXdXdXdXdXdXdXdXdXdXdXdXdXdXdX  ' ! * 9 O M Z.^.!.9 dXdXdXdXdXdXdXdXdXdXdXdXdXdXdXdXdXdXdXdXdXdXdXdXdXdXdXdXdXdXdXdX",
"dXdXdXdXdXdXdXdXdXdXdXdXdXdXdXdXdXdXdXdXdXdXdXdXdXdXdX  ' ! 9 ! ~ 8.%.S W W ^ W r dXdXdXdXdXdXdXdXdXdXdXdXdXdXdXdXdXdXdXdXdXdXdXdXdXdXdXdXdX",
"dXdXdXdXdXdXdXdXdXdXdXdXdXdXdXdXdXdXdXdXdXdXdXdXdXdXdXdX] !   C |.X.y 5XrXrXpX5X{ * dXdXdXdXdXdXdXdXdXdXdXdXdXdXdXdXdXdXdXdXdXdXdXdXdXdXdXdX",
"dXdXdXdXdXdXdXdXdXdXdXdXdXdXdXdXdXdXdXdXdXdXdXdXdXdXdXdXQ.~ X , X.= [.6XrXrXpXpX{.' dXdXdXdXdXdXdXdXdXdXdXdXdXdXdXdXdXdXdXdXdXdXdXdXdXdXdXdX",
"dXdXdXdXdXdXdXdXdXdXdXdXdXdXdXdXdXdXdXdXdXdXdXdXdXdXdXdX{ t o X @ & t !.4X6X4X4X4X}   dXdXdXdXdXdXdXdXdXdXdXdXdXdXdXdXdXdXdXdXdXdXdXdXdXdXdX",
"dXdXdXdXdXdXdXdXdXdXdXdXdXdXdXdXdXdXdXdXdXdXdXdXdXdXdXdX0 & W 4XrXrXpX5X] 0 $         dXdXdXdXdXdXdXdXdXdXdXdXdXdXdXdXdXdXdXdXdXdXdXdXdXdXdX",
"dXdXdXdXdXdXdXdXdXdXdXdXdXdXdXdXdXdXdXdXdXdXdXdXdXdXdXdX    o & & * * t Q.{.4X5X4X{   dXdXdXdXdXdXdXdXdXdXdXdXdXdXdXdXdXdXdXdXdXdXdXdXdXdXdX",
"dXdXdXdXdXdXdXdXdXdXdXdXdXdXdXdXdXdXdXdXdXdXdXdXdXdXdXdX        dXdXdXdXdXdXy 9 9 *   dXdXdXdXdXdXdXdXdXdXdXdXdXdXdXdXdXdXdXdXdXdXdXdXdXdXdX",
"dXdXdXdXdXdXdXdXdXdXdXdXdXdXdXdXdXdXdXdXdXdXdXdXdXdXdXdXdXdXdXdXdXdXdXdXdXdXdXdXdXdXdXdXdXdXdXdXdXdXdXdXdXdXdXdXdXdXdXdXdXdXdXdXdXdXdXdXdXdX",
"dXdXdXdXdXdXdXdXdXdXdXdXdXdXdXdXdXdXdXdXdXdXdXdXdXdXdXdXdXdXdXdXdXdXdXdXdXdXdXdXdXdXdXdXdXdXdXdXdXdXdXdXdXdXdXdXdXdXdXdXdXdXdXdXdXdXdXdXdXdX",
"dXdXdXdXdXdXdXdXdXdXdXdXdXdXdXdXdXdXdXdXdXdXdXdXdXdXdXdXdXdXdXdXdXdXdXdXdXdXdXdXdXdXdXdXdXdXdXdXdXdXdXdXdXdXdXdXdXdXdXdXdXdXdXdXdXdXdXdXdXdX",
"dXdXdXdXdXdXdXdXdXdXdXdXdXdXdXdXdXdXdXdXdXdXdXdXdXdXdXdXdXdXdXdXdXdXdXdXdXdXdXdXdXdXdXdXdXdXdXdXdXdXdXdXdXdXdXdXdXdXdXdXdXdXdXdXdXdXdXdXdXdX",
"dXdXdXdXdXdXdXdXdXdXdXdXdXdXdXdXdXdXdXdXdXdXdXdXdXdXdXdXdXdXdXdXdXdXdXdXdXdXdXdXdXdXdXdXdXdXdXdXdXdXdXdXdXdXdXdXdXdXdXdXdXdXdXdXdXdXdXdXdXdX",
"dXdXdXdXdXdXdXdXdXdXdXdXdXdXdXdXdXdXdXdXdXdXdXdXdXdXdXdXdXdXdXdXdXdXdXdXdXdXdXdXdXdXdXdXdXdXdXdXdXdXdXdXdXdXdXdXdXdXdXdXdXdXdXdXdXdXdXdXdXdX",
"dXdXdXdXdXdXdXdXdXdXdXdXdXdXdXdXdXdXdXdXdXdXdXdXdXdXdXdXdXdXdXdXdXdXdXdXdXdXdXdXdXdXdXdXdXdXdXdXdXdXdXdXdXdXdXdXdXdXdXdXdXdXdXdXdXdXdXdXdXdX",
"dXdXdXdXdXdXdXdXdXdXdXdXdXdXdXdXdXdXdXdXdXdXdXdXdXdXdXdXdXdXdXdXdXdXdXdXdXdXdXdXdXdXdXdXdXdXdXdXdXdXdXdXdXdXdXdXdXdXdXdXdXdXdXdXdXdXdXdXdXdX",
"dXdXdXdXdXdXdXdXdXdXdXdXdXdXdXdXdXdXdXdXdXdXdXdXdXdXdXdXdXdXdXdXdXdXdXdXdXdXdXdXdXdXdXdXdXdXdXdXdXdXdXdXdXdXdXdXdXdXdXdXdXdXdXdXdXdXdXdXdXdX"
};
