/* XPM */
static char *result[] = {
/* columns rows colors chars-per-pixel */
"70 70 166 2 ",
"   c #000000",
".  c #0B0303",
"X  c #0B0904",
"o  c #0C0C0C",
"O  c #02080E",
"+  c #130202",
"@  c #140805",
"#  c #16120E",
"$  c #060D14",
"%  c #040F19",
"&  c #09121B",
"*  c gray7",
"=  c #1A1A1A",
"-  c #1A1111",
";  c #220000",
":  c #220608",
">  c #2D0507",
",  c #330000",
"<  c #3B0507",
"1  c #211C18",
"2  c #2B241D",
"3  c #362913",
"4  c #0E1C2A",
"5  c #0C1824",
"6  c #13273A",
"7  c #152A3F",
"8  c #232323",
"9  c #2D2D2D",
"0  c #322E2A",
"q  c gray21",
"w  c #4E0000",
"e  c #530000",
"r  c #4E0F12",
"t  c #500F14",
"y  c #5A1115",
"u  c #610100",
"i  c #680000",
"p  c #7B161D",
"a  c #6C141A",
"s  c #422F2F",
"d  c #433D38",
"f  c #584A3C",
"g  c #684E25",
"h  c #172C42",
"j  c #19314A",
"k  c #0B3055",
"l  c #1C3956",
"z  c #1D3A58",
"x  c #0A2A4B",
"c  c #213F5E",
"v  c #113E6B",
"b  c #254A6D",
"n  c #234669",
"m  c #254A70",
"M  c #2A527B",
"N  c #4A4A4A",
"B  c gray27",
"V  c #7C4F4B",
"C  c #6B5952",
"Z  c #6A5746",
"A  c #71675D",
"S  c #646363",
"D  c #6A6765",
"F  c #7C6660",
"G  c #7A7066",
"H  c #747474",
"J  c #7B7B7B",
"K  c #830101",
"L  c #8A141B",
"P  c #A00000",
"I  c #A80707",
"U  c #BF0000",
"Y  c #BA0E13",
"T  c #A9161F",
"R  c #B21218",
"E  c #8F2F00",
"W  c #831920",
"Q  c #881922",
"!  c #9D1D27",
"~  c #A51D27",
"^  c #AD212A",
"/  c #B3222B",
"(  c #CC0000",
")  c #C20A0D",
"_  c #C80709",
"`  c #D50000",
"'  c #DC0E00",
"]  c #D60C0C",
"[  c #E41D00",
"{  c #C32C00",
"}  c #EA2A00",
"|  c #E82700",
" . c #ED3000",
".. c #DB3836",
"X. c #825F2C",
"o. c #D74700",
"O. c #FA4B00",
"+. c #FE5400",
"@. c #FF6A22",
"#. c #FE7937",
"$. c #834B49",
"%. c #B05F66",
"&. c #81776C",
"*. c #AA7575",
"=. c #B1853F",
"-. c #BD8E43",
";. c #92867A",
":. c #AA8E72",
">. c #CE9747",
",. c #D59E4A",
"<. c #E3A64D",
"1. c #EDAE51",
"2. c #F2C261",
"3. c #2C5680",
"4. c #2F5D8C",
"5. c #305F8E",
"6. c #306192",
"7. c #336699",
"8. c #35699D",
"9. c #376EA4",
"0. c #3B75AE",
"q. c #3870A7",
"w. c #3D78B2",
"e. c #417DB7",
"r. c #4480BC",
"t. c #4784C0",
"y. c gray52",
"u. c #978F87",
"i. c #9F9284",
"p. c #939393",
"a. c #9C9494",
"s. c #AB9D8F",
"d. c #A4A4A4",
"f. c #AFAFAF",
"g. c #B3B1AF",
"h. c #B5B5B5",
"j. c #BBBBBB",
"k. c #E18484",
"l. c #FF938E",
"z. c #FF9C93",
"x. c #F48D88",
"c. c #CEA780",
"v. c #D3AA80",
"b. c #DFB58A",
"n. c #C7B7A7",
"m. c #FFB5A7",
"M. c #FFCC99",
"N. c #FFD2A5",
"B. c #FFC2BF",
"V. c #FFD8B1",
"C. c #C4C4C4",
"Z. c #CCCCCC",
"A. c #D3D3D3",
"S. c #D9D9D9",
"D. c #EEDAC7",
"F. c #F2DECA",
"G. c #FDE4CE",
"H. c #F5E1CD",
"J. c #FDE6D2",
"K. c #FFEAD5",
"L. c #E6E5E5",
"P. c #ECECEC",
"I. c #F3F3F3",
"U. c #FEFEFE",
"Y. c #FFF8F0",
"T. c None",
/* pixels */
"T.T.T.T.T.T.T.T.T.T.T.T.T.T.T.T.T.T.T.T.T.T.T.T.T.T.T.T.T.T.T.T.T.T.T.T.T.T.T.T.T.T.T.T.T.T.T.T.T.T.T.T.T.T.T.T.T.T.T.T.T.T.T.T.T.T.T.T.T.T.",
"T.T.T.T.T.T.T.T.T.T.T.T.T.T.T.T.T.T.T.T.T.T.T.T.T.T.T.T.T.T.T.T.T.T.T.T.T.T.T.T.T.T.T.T.T.T.T.T.T.T.T.T.T.T.T.T.T.T.T.T.T.T.T.T.T.T.T.T.T.T.",
"T.T.T.T.T.T.T.T.T.T.T.T.T.T.T.T.T.T.T.T.T.T.T.T.T.T.T.T.T.T.T.T.T.T.T.T.T.T.T.T.T.T.T.T.T.T.T.T.T.T.T.T.T.T.T.T.T.T.T.T.T.T.T.T.T.T.T.T.T.T.",
"T.T.T.T.T.T.T.T.T.T.T.T.T.T.T.T.T.T.T.T.T.T.T.T.T.T.T.T.T.T.T.T.T.T.T.T.T.T.T.T.T.T.T.T.T.T.T.T.T.T.T.T.T.T.T.T.T.T.T.T.T.T.T.T.T.T.T.T.T.T.",
"T.T.T.T.T.T.T.T.T.T.T.T.T.T.T.T.T.T.T.T.T.T.T.T.T.T.T.T.T.T.T.T.T.T.T.T.T.T.T.T.T.T.T.T.T.T.T.T.T.T.T.T.T.T.T.T.T.T.T.T.T.T.T.T.T.T.T.T.T.T.",
"T.T.T.T.T.T.T.T.T.T.T.T.T.T.T.T.T.T.T.T.T.T.T.T.T.T.T.T.          T.T.T.T.T.T.T.T.T.T.T.T.T.T.T.T.T.T.T.T.T.T.T.T.T.T.T.T.T.T.T.T.T.T.T.T.T.",
"T.T.T.T.T.T.T.T.T.T.T.T.T.T.T.T.T.T.T.T.T.T.T.T.T.T.T.  ` +.+.' `     T.T.T.T.T.T.T.T.T.T.T.T.T.T.T.T.T.T.T.T.T.T.T.T.T.T.T.T.T.T.T.T.T.T.T.",
"T.T.T.T.T.T.T.T.T.T.T.T.T.T.T.T.T.T.T.T.T.T.T.T.T.T.  ` U.U.U.#.+.` ;   T.T.T.T.T.T.T.T.T.T.T.T.T.T.T.T.T.T.T.T.T.T.T.T.T.T.T.T.T.T.T.T.T.T.",
"T.T.T.T.T.T.T.T.T.T.T.T.T.T.T.T.T.T.T.T.T.T.T.T.T.T.s U.I.U.U.U.U.+.[ ;   T.T.T.T.T.T.T.T.T.T.T.T.T.T.T.T.T.T.T.T.T.T.T.T.T.T.T.T.T.T.T.T.T.",
"T.T.T.T.T.T.T.T.T.T.T.T.T.T.T.T.T.T.T.T.T.T.T.T.T.  I.I.U.I.U.U.U.U.+.'   T.T.T.T.T.T.T.T.T.T.T.T.T.T.T.T.T.T.T.T.T.T.T.T.T.T.T.T.T.T.T.T.T.",
"T.T.T.T.T.T.T.T.T.T.T.T.T.T.T.T.T.T.T.T.T.T.T.T.T.  I.I.I.I.I.I.I.U.U.+.`   T.      T.T.T.T.T.T.T.T.T.T.T.T.T.T.T.T.T.T.T.T.T.T.T.T.T.T.T.T.",
"T.T.T.T.T.T.T.T.T.T.T.T.T.T.T.T.T.T.T.T.T.T.T.T.T.- P.I.I.I.I.I.I.I.I.U.+.`   ' +.+.    T.T.T.T.T.T.T.T.T.T.T.T.T.T.T.T.T.T.T.T.T.T.T.T.T.T.",
"T.T.T.T.T.T.T.T.T.T.T.T.T.T.T.T.T.T.T.T.T.T.T.T.T.a.I.P.P.I.I.I.I.I.I.I.U.+.U   +.+.`   T.T.T.T.T.T.T.T.T.T.T.T.T.T.T.T.T.T.T.T.T.T.T.T.T.T.",
"T.T.T.T.T.T.T.T.T.T.T.T.T.T.T.T.T.T.T.T.T.T.T.T.  P.I.P.I.P.P.I.I.I.I.I.I.U.+.(   i `   T.T.T.T.T.T.T.T.T.T.T.T.T.T.T.T.T.T.T.T.T.T.T.T.T.T.",
"T.T.T.T.T.T.T.T.T.T.T.T.T.T.T.T.T.T.T.T.T.T.T.T.  Z.P.P.P.I.P.P.P.P.I.I.I.I.U.@.O.,     T.T.T.T.T.T.T.T.T.T.T.T.T.T.T.T.T.T.T.T.T.T.T.T.T.T.",
"T.T.T.T.T.T.T.T.T.T.T.T.T.T.T.T.T.T.T.T.T.T.T.T.  S Z.L.P.P.P.P.P.I.P.P.P.P.P.I.U.+.[ w     T.T.T.T.T.T.T.T.T.T.T.T.T.T.T.T.T.T.T.T.T.T.T.T.",
"T.T.T.T.T.T.T.T.T.T.T.T.T.T.T.T.T.T.T.T.T.T.T.  > r     Z.L.P.P.L.P.P.P.P.P.P.P.P.U.J.+.[ e   T.T.T.T.T.T.T.T.T.T.T.T.T.T.T.T.T.T.T.T.T.T.T.",
"T.T.T.T.T.T.T.T.T.T.T.T.T.T.T.T.T.T.T.T.T.T.T.  W W / !     y.A.P.P.P.P.P.P.P.P.P.P.P.U.+.+.' +   T.T.T.T.T.T.T.T.T.T.T.T.T.T.T.T.T.T.T.T.T.",
"T.T.T.T.T.T.T.T.T.T.T.T.T.T.T.T.T.T.T.T.T.T.  ,   @ ! ! ^ / :   * Z.S.P.P.P.P.P.P.P.P.P...+.+.+.`   T.T.T.T.T.T.T.T.T.T.T.T.T.T.T.T.T.T.T.T.",
"T.T.T.T.T.T.T.T.T.T.T.T.T.T.T.T.T.T.T.T.T.  ` } +.o.    Q ! ~ / W     j.Z.A.L.P.L.P.P.P.k.` ` +.+.}   T.T.T.T.T.T.T.T.T.T.T.T.T.T.T.T.T.T.T.",
"T.T.T.T.T.T.T.T.T.T.T.T.T.T.T.T.T.T.T.T.  ` +.+.+.+.+.+..   > ! ! / ~     N Z.Z.Z.L.L.P.] ` ` ` ` ! !   T.T.T.T.T.T.T.T.T.T.T.T.T.T.T.T.T.T.",
"T.T.T.T.T.T.T.T.T.T.T.T.T.T.T.T.T.T.T.  ` O.+.+.+.+.+.+.+.+.E     ! ! ^ / t     Z.Z.Z.Z.! ! ! ! ! ! !   T.T.T.T.T.T.T.T.T.T.T.T.T.T.T.T.T.T.",
"T.T.T.T.T.T.T.T.T.T.T.T.T.T.T.T.T.T.  ` ` +.+.+.+.+.+.+.+.+.+.+.+.    a ! ! / !     p.%.! ! ! ! ! ! !   T.T.T.T.T.T.T.T.T.T.T.T.T.T.T.T.T.T.",
"T.T.T.T.T.T.T.T.T.T.T.T.T.T.T.T.T.T.< ` ` +.+.+.+.+.+.+.+.+.+.+.[ ` ` ,   . ! ! / ~ :   @ ! ! ! ! ! !   T.T.T.T.T.T.T.T.T.T.T.T.T.T.T.T.T.T.",
"T.T.T.T.T.T.T.T.T.T.T.T.T.T.T.T.T.  K ` ` ` ` | O.+.O.} ` ` ` ` ` ` ` ` ` I     p W Q / p     ! ! p   T.T.T.T.T.T.T.T.T.T.T.T.T.T.T.T.T.T.T.",
"T.T.T.T.T.T.T.T.T.T.T.T.T.T.T.T.T.T.  ` ` ` ` ` ` ` ` ` ` ` ` ` ` ` ` ` ` ` Y ~     < Q W / y       T.T.T.T.T.T.T.T.T.T.T.T.T.T.T.T.T.T.T.T.",
"T.T.T.T.T.T.T.T.T.T.T.T.T.T.T.T.T.T.    ! ` ` ` ` ` ` ` ` ` ` ` ` ` ` ) ! !     2.1.X.    W X T.T.T.T.T.T.T.T.T.T.T.T.T.T.T.T.T.T.T.T.T.T.T.",
"T.T.T.T.T.T.T.T.T.T.T.T.T.T.T.T.T.T.T.T.  . ! ! ~ R ) _ _ Y T ! ! ! L       ,.1.1.1.1.1.<.    T.T.T.T.T.T.T.T.T.T.T.T.T.T.T.T.T.T.T.T.T.T.T.",
"T.T.T.T.T.T.T.T.T.T.T.T.T.T.T.T.T.T.T.T.T.T.                          1.1.1.  1.1.1.1.1.1.  T.T.T.T.T.T.T.T.T.T.T.T.T.T.T.T.T.T.T.T.T.T.T.T.",
"T.T.T.T.T.T.T.T.T.T.T.T.T.T.T.T.T.T.T.T.T.T.T.  U.s.  X >.  K.  -.@ K.X   X   -.1.1.X   g   T.T.T.T.T.T.T.T.T.T.T.T.T.T.T.T.T.T.T.T.T.T.T.T.",
"T.T.T.T.T.T.T.T.T.T.T.T.T.T.T.T.T.T.T.T.T.T.T.  I.U.  K.A   K.K.H.  d U.U.  1   1.3 u.Y.H   T.T.T.T.T.T.T.T.T.T.T.T.T.T.T.T.T.T.T.T.T.T.T.T.",
"T.T.T.T.T.T.T.T.T.T.T.T.T.T.T.T.T.T.T.T.T.T.T.  p.= . K.K.K.K.K.K.K.* = =   H.K.    M.N.K.g.  T.T.T.T.T.T.T.T.T.T.T.T.T.T.T.T.T.T.T.T.T.T.T.",
"T.T.T.T.T.T.T.T.T.T.T.T.T.T.T.T.T.T.T.T.T.T.  S D = o K.K.K.J.K.K.K.* = = 0 K.K.K.1 M.M.V.K.  T.T.T.T.T.T.T.T.T.T.T.T.T.T.T.T.T.T.T.T.T.T.T.",
"T.T.T.T.T.T.T.T.T.T.T.T.T.T.T.T.T.T.T.T.T.T.    A.=   J.l.U.l.l.C K.  = =   J.K.K.M.M.M.N.K.  T.T.T.T.T.T.T.T.T.T.T.T.T.T.T.T.T.T.T.T.T.T.T.",
"T.T.T.T.T.T.T.T.T.T.T.T.T.T.T.T.T.T.T.T.T.T.    K.*   $.l.l.l.l.l.G D.      K.K.J.M.M.M.K.H.  T.T.T.T.T.T.T.T.T.T.T.T.T.T.T.T.T.T.T.T.T.T.T.",
"T.T.T.T.T.T.T.T.T.T.T.T.T.T.T.T.T.T.T.T.T.T.T.  z.V g.@ l.l.l.l.l.;.K.J.&.l.D.m.M.M.M.K.D.  T.T.T.T.T.T.T.T.T.T.T.T.T.T.T.T.T.T.T.T.T.T.T.T.",
"T.T.T.T.T.T.T.T.T.T.T.T.T.T.T.T.T.T.T.T.T.T.T.T.x.l.N.M.-       v.K.K.K.z.l.l.z.M..   T.T.T.T.T.T.T.T.T.T.T.T.T.T.T.T.T.T.T.T.T.T.T.T.T.T.T.",
"T.T.T.T.T.T.T.T.T.T.T.T.T.T.T.T.T.T.T.T.T.T.T.T.T.T.    :.M.M.M.M.M.M.M.b.2       T.T.T.T.T.T.T.T.T.T.T.T.T.T.T.T.T.T.T.T.T.T.T.T.T.T.T.T.T.",
"T.T.T.T.T.T.T.T.T.T.T.T.T.T.T.T.T.T.T.T.T.T.T.T.T.T.T.T.T.              4 6.      T.T.T.T.T.T.T.T.T.T.T.T.T.T.T.T.T.T.T.T.T.T.T.T.T.T.T.T.T.",
"T.T.T.T.T.T.T.T.T.T.T.T.T.T.T.T.T.T.T.T.T.T.T.T.T.T.T.T.  q 7.9 U.U.6 7.7.  8 U.L.  T.T.T.T.T.T.T.T.T.T.T.T.T.T.T.T.T.T.T.T.T.T.T.T.T.T.T.T.",
"T.T.T.T.T.T.T.T.T.T.T.T.T.T.T.T.T.T.T.T.T.T.T.T.T.T.T.T.    8.$     7.7.6.  U.U.U.L.  T.T.T.T.T.T.T.T.T.T.T.T.T.T.T.T.T.T.T.T.T.T.T.T.T.T.T.",
"T.T.T.T.T.T.T.T.T.T.T.T.T.T.T.T.T.T.T.T.T.T.T.T.T.T.T.T.  $ z M 6.7.7.7.4   U.U.U.L.  T.T.T.T.T.T.T.T.T.T.T.T.T.T.T.T.T.T.T.T.T.T.T.T.T.T.T.",
"T.T.T.T.T.T.T.T.T.T.T.T.T.T.T.T.T.T.T.T.T.T.T.T.T.T.T.T.  4 w.e.r.t.0.c 4.  U.U.U.P.  T.T.T.T.T.T.T.T.T.T.T.T.T.T.T.T.T.T.T.T.T.T.T.T.T.T.T.",
"T.T.T.T.T.T.T.T.T.T.T.T.T.T.T.T.T.T.T.T.T.T.T.T.T.T.T.T.  m 9.5.n 6 & 4 7.  U.P.Z.d.  T.T.T.T.T.T.T.T.T.T.T.T.T.T.T.T.T.T.T.T.T.T.T.T.T.T.T.",
"T.T.T.T.T.T.T.T.T.T.T.T.T.T.T.T.T.T.T.T.T.T.T.T.T.T.T.T.  9.0.0.0.0.0.    7 n.J.J.# T.T.T.T.T.T.T.T.T.T.T.T.T.T.T.T.T.T.T.T.T.T.T.T.T.T.T.T.",
"T.T.T.T.T.T.T.T.T.T.T.T.T.T.T.T.T.T.T.T.T.T.T.T.T.T.T.T.4 0.0.0.0.9.  J.J.i.K.K.K.  T.T.T.T.T.T.T.T.T.T.T.T.T.T.T.T.T.T.T.T.T.T.T.T.T.T.T.T.",
"T.T.T.T.T.T.T.T.T.T.T.T.T.T.T.T.T.T.T.T.T.T.T.T.T.T.T.T.l q.0.0.w.  K.U.K.K.K.K.M.  T.T.T.T.      T.T.T.T.T.T.T.T.T.T.T.T.T.T.T.T.T.T.T.T.T.",
"T.T.T.T.T.T.T.T.T.T.T.T.T.T.T.T.T.T.T.T.T.T.T.T.T.T.T.T.5 $     &   J.K.K.K.K.J.M.  T.        Z.  T.T.T.T.T.T.T.T.T.T.T.T.T.T.T.T.T.T.T.T.T.",
"T.T.T.T.T.T.T.T.T.T.T.T.T.T.T.T.T.T.T.T.T.T.T.T.T.T.T.T.  3.3.6.7.h 2 M.M.M.M.M.  3.  F L.P   L.  T.T.T.T.T.T.T.T.T.T.T.T.T.T.T.T.T.T.T.T.T.",
"T.T.T.T.T.T.T.T.T.T.T.T.T.T.T.T.T.T.T.T.T.T.T.T.T.T.T.% %   3.3.3.3.h   f c.Z   l 3.  ` `     L.  T.T.T.T.T.T.T.T.T.T.T.T.T.T.T.T.T.T.T.T.T.",
"T.T.T.T.T.T.T.T.T.T.T.T.T.T.T.T.T.T.T.T.T.T.T.T.T.T.  v v v       j b m l 4.q.7.7.M   (   j.  L.  T.T.T.T.T.T.T.T.T.T.T.T.T.T.T.T.T.T.T.T.T.",
"T.T.T.T.T.T.T.T.T.T.T.T.T.T.T.T.T.T.T.T.T.T.T.T.T.T.  k v v v k T.T.    T.  7.7.M       A.Z.  L.  T.T.T.T.T.T.T.T.T.T.T.T.T.T.T.T.T.T.T.T.T.",
"T.T.T.T.T.T.T.T.T.T.T.T.T.T.T.T.T.T.T.T.T.T.T.T.T.  H   x v k $ T.T.T.T.T.T.  7.& d.  Z.L.L.  P.  T.T.T.T.T.T.T.T.T.T.T.T.T.T.T.T.T.T.T.T.T.",
"T.T.T.T.T.T.T.T.T.T.T.T.T.T.T.T.T.T.T.T.T.    .           O k   T.T.T.T.T.T.T.        L.L.L.  I.  T.T.T.T.T.T.T.T.T.T.T.T.T.T.T.T.T.T.T.T.T.",
"T.T.T.T.T.T.T.T.T.T.T.T.T.T.T.T.T.T.T.T.  p.C.C.h.f.  u {     T.T.T.T.T.T.T.T.T.T.T.  P.L.L.* U.= T.T.T.T.T.T.T.T.T.T.T.T.T.T.T.T.T.T.T.T.T.",
"T.T.T.T.T.T.T.T.T.T.T.T.T.T.T.T.T.T.T.  p.f.h.f.f.f.f.  P *.  T.T.T.T.T.T.T.T.T.T.T.  I.U.L.q I.J T.T.T.T.T.T.T.T.T.T.T.T.T.T.T.T.T.T.T.T.T.",
"T.T.T.T.T.T.T.T.T.T.T.T.T.T.T.T.T.T.T.  f.f.f.f.f.f.d.J + I   T.T.T.T.T.T.T.T.T.T.T.T.  U.L.H j.S.T.T.T.T.T.T.T.T.T.T.T.T.T.T.T.T.T.T.T.T.T.",
"T.T.T.T.T.T.T.T.T.T.T.T.T.T.T.T.T.T.  = *             X   u   T.T.T.T.T.T.T.T.T.T.T.T.    L.A.N S.  T.T.T.T.T.T.T.T.T.T.T.T.T.T.T.T.T.T.T.T.",
"T.T.T.T.T.T.T.T.T.T.T.T.T.T.T.T.T.T.  H f.C.f.f.f.f.h.C.h.B *   T.T.T.T.T.T.T.T.T.T.T.T.T.          T.T.T.T.T.T.T.T.T.T.T.T.T.T.T.T.T.T.T.T.",
"T.T.T.T.T.T.T.T.T.T.T.T.T.T.T.T.T.T.T.              X 3 $.r.8 T.T.T.T.T.T.T.T.T.T.T.T.T.T.T.T.T.T.T.T.T.T.T.T.T.T.T.T.T.T.T.T.T.T.T.T.T.T.T.",
"T.T.T.T.T.T.T.T.T.T.T.T.T.T.T.T.T.T.T.T.T.T.T.T.T.T.T.T.T.    T.T.T.T.T.T.T.T.T.T.T.T.T.T.T.T.T.T.T.T.T.T.T.T.T.T.T.T.T.T.T.T.T.T.T.T.T.T.T.",
"T.T.T.T.T.T.T.T.T.T.T.T.T.T.T.T.T.T.T.T.T.T.T.T.T.T.T.T.T.T.T.T.T.T.T.T.T.T.T.T.T.T.T.T.T.T.T.T.T.T.T.T.T.T.T.T.T.T.T.T.T.T.T.T.T.T.T.T.T.T.",
"T.T.T.T.T.T.T.T.T.T.T.T.T.T.T.T.T.T.T.T.T.T.T.T.T.T.T.T.T.T.T.T.T.T.T.T.T.T.T.T.T.T.T.T.T.T.T.T.T.T.T.T.T.T.T.T.T.T.T.T.T.T.T.T.T.T.T.T.T.T.",
"T.T.T.T.T.T.T.T.T.T.T.T.T.T.T.T.T.T.T.T.T.T.T.T.T.T.T.T.T.T.T.T.T.T.T.T.T.T.T.T.T.T.T.T.T.T.T.T.T.T.T.T.T.T.T.T.T.T.T.T.T.T.T.T.T.T.T.T.T.T.",
"T.T.T.T.T.T.T.T.T.T.T.T.T.T.T.T.T.T.T.T.T.T.T.T.T.T.T.T.T.T.T.T.T.T.T.T.T.T.T.T.T.T.T.T.T.T.T.T.T.T.T.T.T.T.T.T.T.T.T.T.T.T.T.T.T.T.T.T.T.T.",
"T.T.T.T.T.T.T.T.T.T.T.T.T.T.T.T.T.T.T.T.T.T.T.T.T.T.T.T.T.T.T.T.T.T.T.T.T.T.T.T.T.T.T.T.T.T.T.T.T.T.T.T.T.T.T.T.T.T.T.T.T.T.T.T.T.T.T.T.T.T.",
"T.T.T.T.T.T.T.T.T.T.T.T.T.T.T.T.T.T.T.T.T.T.T.T.T.T.T.T.T.T.T.T.T.T.T.T.T.T.T.T.T.T.T.T.T.T.T.T.T.T.T.T.T.T.T.T.T.T.T.T.T.T.T.T.T.T.T.T.T.T.",
"T.T.T.T.T.T.T.T.T.T.T.T.T.T.T.T.T.T.T.T.T.T.T.T.T.T.T.T.T.T.T.T.T.T.T.T.T.T.T.T.T.T.T.T.T.T.T.T.T.T.T.T.T.T.T.T.T.T.T.T.T.T.T.T.T.T.T.T.T.T.",
"T.T.T.T.T.T.T.T.T.T.T.T.T.T.T.T.T.T.T.T.T.T.T.T.T.T.T.T.T.T.T.T.T.T.T.T.T.T.T.T.T.T.T.T.T.T.T.T.T.T.T.T.T.T.T.T.T.T.T.T.T.T.T.T.T.T.T.T.T.T.",
"T.T.T.T.T.T.T.T.T.T.T.T.T.T.T.T.T.T.T.T.T.T.T.T.T.T.T.T.T.T.T.T.T.T.T.T.T.T.T.T.T.T.T.T.T.T.T.T.T.T.T.T.T.T.T.T.T.T.T.T.T.T.T.T.T.T.T.T.T.T."
};
