/* XPM */
static char *result[] = {
/* columns rows colors chars-per-pixel */
"70 70 174 2 ",
"   c #000000",
".  c #0A0302",
"X  c #0A0907",
"o  c #030609",
"O  c #0A0A0A",
"+  c #04080C",
"@  c #120201",
"#  c #190000",
"$  c #1C150A",
"%  c #060B11",
"&  c #08121D",
"*  c #131313",
"=  c #1A1A1A",
"-  c #1E1A15",
";  c #230000",
":  c #2B0202",
">  c #240709",
",  c #2F070A",
"<  c #39090C",
"1  c #261C0E",
"2  c #271C16",
"3  c #29200F",
"4  c #2B221B",
"5  c #382A13",
"6  c #0C1924",
"7  c #112132",
"8  c #15293E",
"9  c #13263A",
"0  c #242221",
"q  c #2B2625",
"w  c #2D2D2D",
"e  c #382723",
"r  c #343433",
"t  c #3C3C3C",
"y  c #5B0000",
"u  c #500000",
"i  c #4D0C10",
"p  c #5B1116",
"a  c #6A0000",
"s  c #710000",
"d  c #7C0000",
"f  c #6F1117",
"g  c #731117",
"h  c #78161E",
"j  c #453318",
"k  c #403327",
"l  c #7F5D2B",
"z  c #172C43",
"x  c #1A354F",
"c  c #1C3955",
"v  c #184B7E",
"b  c #214263",
"n  c #264B6F",
"m  c #274D73",
"M  c #2A537C",
"N  c #4C4845",
"B  c #534B44",
"V  c #585049",
"C  c gray36",
"Z  c #695541",
"A  c #755F4A",
"S  c #62615F",
"D  c #71665C",
"F  c #646464",
"G  c #6C6C6C",
"H  c #736A60",
"J  c #7E7367",
"K  c #7C7C7C",
"L  c #860000",
"P  c #970000",
"I  c #89141C",
"U  c #96171E",
"Y  c #AB0000",
"T  c #B40000",
"R  c #B70F15",
"E  c #A8171F",
"W  c #8F2F00",
"Q  c #831920",
"!  c #8C1921",
"~  c #811720",
"^  c #941C24",
"/  c #9D1D27",
"(  c #AA1F29",
")  c #A11D27",
"_  c #AD212A",
"`  c #B3222B",
"'  c #CF0305",
"]  c #C10A0D",
"[  c #D50000",
"{  c #DA0900",
"}  c #DD1000",
"|  c #D71616",
" . c #E21B00",
".. c #E62200",
"X. c #EA2A00",
"o. c #CD2D2F",
"O. c #E94500",
"+. c #F94C00",
"@. c #F64100",
"#. c #FE5400",
"$. c #FE5B0B",
"%. c #FF702A",
"&. c #965753",
"*. c #9A7D5F",
"=. c #897E73",
"-. c #81807E",
";. c #D29A47",
":. c #CA9445",
">. c #FD8246",
",. c #E4A94F",
"<. c #EDAE51",
"1. c #C1966C",
"2. c #C5986B",
"3. c #C59E76",
"4. c #FF9C6B",
"5. c #C5A17D",
"6. c #FFD26B",
"7. c #2C5680",
"8. c #2F5E8E",
"9. c #2E5B87",
"0. c #305F8D",
"q. c #316294",
"w. c #336699",
"e. c #34699D",
"r. c #376DA4",
"t. c #386FA5",
"y. c #3B75AE",
"u. c #407CB6",
"i. c #848484",
"p. c #8E8E8E",
"a. c gray58",
"s. c #9B9A9A",
"d. c #999595",
"f. c #A89888",
"g. c #ACACAC",
"h. c #B9B9B9",
"j. c #FF938E",
"k. c #FF9B8F",
"l. c #FF9B96",
"z. c #C5AF9A",
"x. c #C5B19E",
"c. c #FEAD85",
"v. c #EDBF91",
"b. c #C5B2A0",
"n. c #CBBBAA",
"m. c #FFA9A5",
"M. c #FFCC9A",
"N. c #FBC997",
"B. c #D9C7B5",
"V. c #D5C4B3",
"C. c #FFD2A4",
"Z. c #FFD5AB",
"A. c #E5D2BF",
"S. c #FFDDBB",
"D. c #C3C3C3",
"F. c #CCCCCC",
"G. c #D2D2D2",
"H. c #DCDCDC",
"J. c #F3DFCB",
"K. c #FFDFCC",
"L. c #FFDFDE",
"P. c #F6E1CD",
"I. c #FCE5CD",
"U. c #FFE2C4",
"Y. c #FFEAD5",
"T. c #FFEDDB",
"R. c #E6E6E6",
"E. c #ECECEC",
"W. c #FFEEE9",
"Q. c #FFF1E3",
"!. c #F3F3F3",
"~. c #FFF9F3",
"^. c #FEFEFE",
"/. c None",
/* pixels */
"/./././././././././././././././././././././././././././././././././././././././././././././././././././././././././././././././././././././.",
"/./././././././././././././././././././././././././././././././././././././././././././././././././././././././././././././././././././././.",
"/./././././././././././././././././././././././././././././././././././././././././././././././././././././././././././././././././././././.",
"/./././././././././././././././././././././././././././././././././././././././././././././././././././././././././././././././././././././.",
"/././././././././././././././././././././././././././././.      /./././././././././././././././././././././././././././././././././././././.",
"/././././././././././././././././././././././././././.    [ [ [     /./././././././././././././././././././././././././././././././././././.",
"/././././././././././././././././././././././././././.. { c.%.#.+.[   /././././././././././././././././././././././././././././././././././.",
"/./././././././././././././././././././././././././.  !.~.^.^.^.4.#.[   /./././././././././././././././././././././././././././././././././.",
"/./././././././././././././././././././././././././.q !.!.^.^.^.^.^.#.[   /././././././././././././././././././././././././././././././././.",
"/././././././././././././././././././././././././.  !.!.!.!.!.^.^.^.^.#.[   /./././././././././././././././././././././././././././././././.",
"/././././././././././././././././././././././././.  !.!.!.!.!.!.!.!.^.^.#.T     d :   /././././././././././././././././././././././././././.",
"/././././././././././././././././././././././././.  !.!.!.!.!.!.!.!.!.^.^.#.; @ #.#.}   /./././././././././././././././././././././././././.",
"/././././././././././././././././././././././././.q !.E.E.!.!.!.!.!.!.!.!.^.#.    #.[ : /./././././././././././././././././././././././././.",
"/././././././././././././././././././././././././.d.E.E.E.E.E.E.E.!.E.!.!.!.^.#.L   ; g /./././././././././././././././././././././././././.",
"/./././././././././././././././././././././././.  F.F.E.E.E.E.E.E.!.E.!.E.!.E.^.$.@.s     /././././././././././././././././././././././././.",
"/./././././././././././././././././././././././.      F.H.E.E.E.E.E.E.E.!.E.E.!.!.^.#.X.s     /././././././././././././././././././././././.",
"/././././././././././././././././././././././.  Q ` ^     i.G.R.E.E.E.E.E.E.E.E.E.E.~.Q.#...y   /./././././././././././././././././././././.",
"/././././././././././././././././././././././.    Q ^ _ ` >   = F.R.R.E.E.E.E.E.E.E.E.E.>.#.#.}     /./././././././././././././././././././.",
"/././././././././././././././././././././.    [ O.    Q / _ _ h     D.F.R.R.E.E.E.E.E.E.E.[ #.#.#.Y   /././././././././././././././././././.",
"/./././././././././././././././././././.  @ [ #.#.#.#.@   , / / ` (     S F.F.H.R.R.E.R.E.[ [ [ #.#.U   /./././././././././././././././././.",
"/././././././././././././././././././.  d [ #.#.#.#.#.#.#.W     / / ( ` <   + F.F.F.F.G.o.' ' ] ) / /   /./././././././././././././././././.",
"/./././././././././././././././././.  u [ #.#.#.#.#.#.#.#.#.#.#.    ~ / / ` ^     D.F.F./ / / / / / / : /./././././././././././././././././.",
"/./././././././././././././././././.  [ [ #.#.#.#.#.#.#.#.#.#.#.#.#.@   @ / / ` (     > / / / / / / /   /./././././././././././././././././.",
"/./././././././././././././././././.# [ [ [ #.#.#.#.#.#.#.#...[ [ [ [ [ P     / Q ^ ` p     / / / / f   /./././././././././././././././././.",
"/./././././././././././././././././.  [ [ [ [ [ [ [ [ [ [ [ [ [ [ [ [ [ [ [ [     p Q Q ` ^   h !     /././././././././././././././././././.",
"/./././././././././././././././././.  g [ [ [ [ [ [ [ [ [ [ [ [ [ [ [ [ [ R / ,   j     Q I Q     /././././././././././././././././././././.",
"/././././././././././././././././././.    / ( [ [ [ [ [ [ [ [ [ [ ] ) / !     l 6.<.<.;.      /././././././././././././././././././././././.",
"/././././././././././././././././././././.      i ^ / / / / / I <       1 <.  <.<.<.<.<.<.5 /./././././././././././././././././././././././.",
"/././././././././././././././././././././././.  D.          o 3 :.$ =.  ,.<.  <.<.<.<.<.<.  /./././././././././././././././././././././././.",
"/././././././././././././././././././././././.  F.G.  X     Y.Y.    B.E.K       <.<.        /./././././././././././././././././././././././.",
"/././././././././././././././././././././././.  S s.X Y.Y.Y.Y.Y.Y.Y.  0 F   I.Y.1 j P.Y.T.  /./././././././././././././././././././././././.",
"/././././././././././././././././././././././.  r = * A.Y.Y.Y.Y.Y.Y.O = =   J Y.P.  M.M.I.Q.  /././././././././././././././././././././././.",
"/./././././././././././././././././././././.  s.=.= * J.Y.W.j.k.Y.Y.  = =   B Y.Y.Z.M.M.M.Y.  /././././././././././././././././././././././.",
"/./././././././././././././././././././././.    ^.=   q j.m.j.j.j.P.D = =   Y.Y.Y.M.M.M.C.Y.  /././././././././././././././././././././././.",
"/././././././././././././././././././././././.  ~.    e j.j.j.j.j.o Y.    4 Y.Y.M.M.M.M.Y.V   /././././././././././././././././././././././.",
"/././././././././././././././././././././././.  j.L.Y.4 &.j.j.j.X Y.Y.Y.K.j.m.l.M.M.=.n.    /./././././././././././././././././././././././.",
"/././././././././././././././././././././././././.  o M.M.M.N.C.Y.Y.S.C.M.j.k.*.    /./././././././././././././././././././././././././././.",
"/././././././././././././././././././././././././././.      e Z A k -             /././././././././././././././././././././././././././././.",
"/./././././././././././././././././././././././././././.  = 8.  R.E.  w.w.w.  D.R.F   /././././././././././././././././././././././././././.",
"/./././././././././././././././././././././././././././.g.o w.* H.H.q.w.w.  i.^.^.R.H.  /./././././././././././././././././././././././././.",
"/././././././././././././././././././././././././././.  D.  w.w.q.w.w.w.M ^.^.^.^.^.R.h.  /././././././././././././././././././././././././.",
"/././././././././././././././././././././././././././.  d.  & o         c ^.  ^.^.^.E.2   /././././././././././././././././././././././././.",
"/./././././././././././././././././././././././.    /.O   6 z M w.y.y.b w.o !.  ^.^.o Y.N.  /./././././././././././././././././././././././.",
"/././././././././././././././././././././././.  B D       M y.y.y.y.y.6 w.w.  R.    Y.Y.C.4 /./././././././././././././././././././././././.",
"/./././././././././././././././././././././.  b.b.x.b.b.o t.y.y.y.y.y.  w.w.w.n     T.Y.Y.M.  /././././././././././././././././././././././.",
"/./././././././././././././././././././././.X x.3.5.b.f.8 u.y.y.y.y.y.  w.w.w.7   B.Y.Y.Y.M.  /././././././././././././././././././././././.",
"/./././././././././././././././././././././.  2.2.b.b.J x   e.r.y.y.w.o w.q.0.  Y.Y.Y.Y.M.M.  /././././././././././././././././././././././.",
"/././././././././././././././././././././././.  1.2.2.1.  8.q.7.x o 9 w.w.q.7.  Y.~.Y.U.M.  /./././././././././././././././././././././././.",
"/./././././././././././././././././././././././.          7.7.7.M M b y.y.w.M o V.Y.M.M.  /././././././././././././././././././././././././.",
"/././././././././././././././././././././././././././././.    n 8 b q.r.w.w.M           /./././././././././././././././././././././././././.",
"/././././././././././././././././././././././././././././.  v &   c w.w.w.9.m /././././././././././././././././././././././././././././././.",
"/./././././././././././././././././././././././././.  O d.G     E.  7 q.w.7.  /././././././././././././././././././././././././././././././.",
"/././././././././././././././././././././././././.  R.R.^.^.R.N     p.+ 7.% /./././././././././././././././././././././././././././././././.",
"/./././././././././././././././././././././././.    D.R.R.R.R.R.  #.  i.  r     /./././././././././././././././././././././././././././././.",
"/././././././././././././././././././././././.  d.E.=   h.R.R.R.a.a  .  L P .     /././././././././././././././././././././././././././././.",
"/./././././././././././././././././././././././.  = ^.E.=   g.F.F.@ [ 2     0 d.  /././././././././././././././././././././././././././././.",
"/./././././././././././././././././././././././././.  o R.R.0   i.. | X   a.g.    /././././././././././././././././././././././././././././.",
"/./././././././././././././././././././././././././././.    R.R.w   y   D.g.  /././././././././././././././././././././././././././././././.",
"/././././././././././././././././././././././././././././.      R.H.r   g.  /./././././././././././././././././././././././././././././././.",
"/././././././././././././././././././././././././././././.  g.g.      C   /././././././././././././././././././././././././././././././././.",
"/././././././././././././././././././././././././././././.  i.O O g.    /./././././././././././././././././././././././././././././././././.",
"/./././././././././././././././././././././././././././././.  t D.o   /././././././././././././././././././././././././././././././././././.",
"/./././././././././././././././././././././././././././././.  w     /./././././././././././././././././././././././././././././././././././.",
"/././././././././././././././././././././././././././././././.  /./././././././././././././././././././././././././././././././././././././.",
"/./././././././././././././././././././././././././././././././././././././././././././././././././././././././././././././././././././././.",
"/./././././././././././././././././././././././././././././././././././././././././././././././././././././././././././././././././././././.",
"/./././././././././././././././././././././././././././././././././././././././././././././././././././././././././././././././././././././.",
"/./././././././././././././././././././././././././././././././././././././././././././././././././././././././././././././././././././././.",
"/./././././././././././././././././././././././././././././././././././././././././././././././././././././././././././././././././././././.",
"/./././././././././././././././././././././././././././././././././././././././././././././././././././././././././././././././././././././."
};
