/* XPM */
static char *result[] = {
/* columns rows colors chars-per-pixel */
"70 70 156 2 ",
"   c #000000",
".  c #0C0101",
"X  c #0C0906",
"o  c #03060A",
"O  c #05090E",
"+  c #0B0A0A",
"@  c #140405",
"#  c #1A0406",
"$  c #1A1309",
"%  c #050C13",
"&  c #09121B",
"*  c #141313",
"=  c #1A1A1A",
"-  c #1B1713",
";  c #240000",
":  c #270709",
">  c #31090C",
",  c #330000",
"<  c #211C17",
"1  c #2A231C",
"2  c #0D1B29",
"3  c #10202F",
"4  c #112132",
"5  c #132639",
"6  c #232323",
"7  c #2F2A27",
"8  c gray17",
"9  c #332F2A",
"0  c #35312E",
"q  c gray21",
"w  c #420000",
"e  c #510000",
"r  c #420C11",
"t  c #5D0D11",
"y  c #640000",
"u  c #740000",
"i  c #7A0000",
"p  c #75151C",
"a  c #781219",
"s  c #772800",
"d  c #563230",
"f  c #5A421F",
"g  c #5A4320",
"h  c #514336",
"j  c #5C4C3C",
"k  c #604822",
"l  c #7E5D2B",
"z  c #7F602E",
"x  c #0A2C4F",
"c  c #0B2F53",
"v  c #0B3055",
"b  c #0C3359",
"n  c #1E3B59",
"m  c #113E6B",
"M  c #214263",
"N  c #25486B",
"B  c #274E75",
"V  c #2C567F",
"C  c #4C4946",
"Z  c #5C5C5C",
"A  c #675E55",
"S  c #686868",
"D  c #77706A",
"F  c #797979",
"G  c gray45",
"H  c #8A0200",
"J  c #980000",
"K  c #80191F",
"L  c #A00000",
"P  c #B80000",
"I  c #BC0D12",
"U  c #AD151C",
"Y  c #9A3300",
"T  c #841920",
"R  c #8A1A22",
"E  c #951B24",
"W  c #9D1D27",
"Q  c #A21C25",
"!  c #A41F28",
"~  c #AD2029",
"^  c #B3222B",
"/  c #CB0607",
"(  c #D50000",
")  c #D90E06",
"_  c #DF1400",
"`  c #E21A00",
"'  c #E82600",
"]  c #EC2E00",
"[  c #EF3400",
"{  c #F33C00",
"}  c #A97D3A",
"|  c #ED4A00",
" . c #FA4B00",
".. c #FE5400",
"X. c #FE5E10",
"o. c #9C5A57",
"O. c #C8736F",
"+. c #CF7773",
"@. c #B98A41",
"#. c #C28F43",
"$. c #CF9A48",
"%. c #D79E49",
"&. c #FE9059",
"*. c #EDAE51",
"=. c #FF9968",
"-. c #C7A27E",
";. c #2C5680",
":. c #30608F",
">. c #326495",
",. c #336699",
"<. c #37699B",
"1. c #386FA6",
"2. c #3B75AF",
"3. c #3C76B0",
"4. c #4682BE",
"5. c #8D8D8D",
"6. c #9B8F82",
"7. c #9B9B9B",
"8. c gray59",
"9. c #A99C8E",
"0. c #A4A4A4",
"q. c #AEAEAE",
"w. c #AFA7A5",
"e. c gray70",
"r. c gray74",
"t. c #FF938E",
"y. c #FF9E90",
"u. c #FFA099",
"i. c #FDBD97",
"p. c #FFB7AC",
"a. c #FFCC99",
"s. c #FFD5A9",
"d. c #FFC9B7",
"f. c #FFDAB5",
"g. c #C5C5C5",
"h. c #CCCCCC",
"j. c #CCC6C7",
"k. c #D4D4D4",
"l. c #EDDAC6",
"z. c #EFDBC8",
"x. c #FFDDCA",
"c. c #F4D8D8",
"v. c #F6E2CE",
"b. c #FDE5CD",
"n. c #FFE3C7",
"m. c #FFEAD5",
"M. c #FFECD9",
"N. c #E6E6E6",
"B. c #ECECEC",
"V. c #EBE4E4",
"C. c #FEEDE5",
"Z. c #FFF2EC",
"A. c #F3F3F3",
"S. c #FEFEFE",
"D. c #FFF8F1",
"F. c None",
/* pixels */
"F.F.F.F.F.F.F.F.F.F.F.F.F.F.F.F.F.F.F.F.F.F.F.F.F.F.F.F.F.F.F.F.F.F.F.F.F.F.F.F.F.F.F.F.F.F.F.F.F.F.F.F.F.F.F.F.F.F.F.F.F.F.F.F.F.F.F.F.F.F.",
"F.F.F.F.F.F.F.F.F.F.F.F.F.F.F.F.F.F.F.F.F.F.F.F.F.F.F.F.F.F.F.F.F.F.F.F.F.F.F.F.F.F.F.F.F.F.F.F.F.F.F.F.F.F.F.F.F.F.F.F.F.F.F.F.F.F.F.F.F.F.",
"F.F.F.F.F.F.F.F.F.F.F.F.F.F.F.F.F.F.F.F.F.F.F.F.F.F.F.F.F.F.F.F.F.F.F.F.F.F.F.F.F.F.F.F.F.F.F.F.F.F.F.F.F.F.F.F.F.F.F.F.F.F.F.F.F.F.F.F.F.F.",
"F.F.F.F.F.F.F.F.F.F.F.F.F.F.F.F.F.F.F.F.F.F.F.F.F.F.F.F.F.      F.F.F.F.F.F.F.F.F.F.F.F.F.F.F.F.F.F.F.F.F.F.F.F.F.F.F.F.F.F.F.F.F.F.F.F.F.F.",
"F.F.F.F.F.F.F.F.F.F.F.F.F.F.F.F.F.F.F.F.F.F.F.F.F.F.F.    ( ( ( w   F.F.F.F.F.F.F.F.F.F.F.F.F.F.F.F.F.F.F.F.F.F.F.F.F.F.F.F.F.F.F.F.F.F.F.F.",
"F.F.F.F.F.F.F.F.F.F.F.F.F.F.F.F.F.F.F.F.F.F.F.F.F.F.F.  ( d.=.....(     F.F.F.F.F.F.F.F.F.F.F.F.F.F.F.F.F.F.F.F.F.F.F.F.F.F.F.F.F.F.F.F.F.F.",
"F.F.F.F.F.F.F.F.F.F.F.F.F.F.F.F.F.F.F.F.F.F.F.F.F.F.  c.S.S.S.S.Z...) ;   F.F.F.F.F.F.F.F.F.F.F.F.F.F.F.F.F.F.F.F.F.F.F.F.F.F.F.F.F.F.F.F.F.",
"F.F.F.F.F.F.F.F.F.F.F.F.F.F.F.F.F.F.F.F.F.F.F.F.F.F.X A.A.A.S.S.S.S...`     F.F.F.F.F.F.F.F.F.F.F.F.F.F.F.F.F.F.F.F.F.F.F.F.F.F.F.F.F.F.F.F.",
"F.F.F.F.F.F.F.F.F.F.F.F.F.F.F.F.F.F.F.F.F.F.F.F.F.  V.A.A.A.A.A.S.S.S...(   F.F.    F.F.F.F.F.F.F.F.F.F.F.F.F.F.F.F.F.F.F.F.F.F.F.F.F.F.F.F.",
"F.F.F.F.F.F.F.F.F.F.F.F.F.F.F.F.F.F.F.F.F.F.F.F.F.  A.A.A.A.A.A.A.A.S.S...(   , { { .   F.F.F.F.F.F.F.F.F.F.F.F.F.F.F.F.F.F.F.F.F.F.F.F.F.F.",
"F.F.F.F.F.F.F.F.F.F.F.F.F.F.F.F.F.F.F.F.F.F.F.F.F.  B.A.A.A.A.A.A.A.A.A.S...(   .... .  F.F.F.F.F.F.F.F.F.F.F.F.F.F.F.F.F.F.F.F.F.F.F.F.F.F.",
"F.F.F.F.F.F.F.F.F.F.F.F.F.F.F.F.F.F.F.F.F.F.F.F.F.  A.B.A.A.A.B.A.B.A.A.A.S...(   H ( (   F.F.F.F.F.F.F.F.F.F.F.F.F.F.F.F.F.F.F.F.F.F.F.F.F.",
"F.F.F.F.F.F.F.F.F.F.F.F.F.F.F.F.F.F.F.F.F.F.F.F.F.  B.B.B.B.A.A.B.B.A.A.A.B.S.&. .;   :   F.F.F.F.F.F.F.F.F.F.F.F.F.F.F.F.F.F.F.F.F.F.F.F.F.",
"F.F.F.F.F.F.F.F.F.F.F.F.F.F.F.F.F.F.F.F.F.F.F.F.F.8 h.B.B.B.B.B.B.A.B.B.A.B.B.A.S...' e     F.F.F.F.F.F.F.F.F.F.F.F.F.F.F.F.F.F.F.F.F.F.F.F.",
"F.F.F.F.F.F.F.F.F.F.F.F.F.F.F.F.F.F.F.F.F.F.F.F.      q.h.B.B.B.B.B.B.B.B.B.B.A.A.A.C...' H     F.F.F.F.F.F.F.F.F.F.F.F.F.F.F.F.F.F.F.F.F.F.",
"F.F.F.F.F.F.F.F.F.F.F.F.F.F.F.F.F.F.F.F.F.F.F.F.  ^ ! .   X h.N.B.B.N.B.B.B.B.B.B.B.A.S.X...] i   F.F.F.F.F.F.F.F.F.F.F.F.F.F.F.F.F.F.F.F.F.",
"F.F.F.F.F.F.F.F.F.F.F.F.F.F.F.F.F.F.F.F.F.F.F.    T T ~ ^ T     7.h.N.B.N.B.B.B.B.B.B.B.B.......` .   F.F.F.F.F.F.F.F.F.F.F.F.F.F.F.F.F.F.F.",
"F.F.F.F.F.F.F.F.F.F.F.F.F.F.F.F.F.F.F.F.F.F.  u (     r W W ^ ~ #   * h.h.N.N.B.N.B.N.B.B.( ( ......i   F.F.F.F.F.F.F.F.F.F.F.F.F.F.F.F.F.F.",
"F.F.F.F.F.F.F.F.F.F.F.F.F.F.F.F.F.F.F.F.F.  ( [ ......s     E W ~ ~ R     8.h.h.k.N.N.B.B.( ( ( ( ( W . F.F.F.F.F.F.F.F.F.F.F.F.F.F.F.F.F.F.",
"F.F.F.F.F.F.F.F.F.F.F.F.F.F.F.F.F.F.F.F.  ( { ..............    > W W ^ ~ #   O h.h.h.h.j.W W W W W W W   F.F.F.F.F.F.F.F.F.F.F.F.F.F.F.F.F.",
"F.F.F.F.F.F.F.F.F.F.F.F.F.F.F.F.F.F.F.  ( ( ....................Y     E Q Q ^ E     F h.W W W W W W W W   F.F.F.F.F.F.F.F.F.F.F.F.F.F.F.F.F.",
"F.F.F.F.F.F.F.F.F.F.F.F.F.F.F.F.F.F.  P ( ..........................`     # W W ^ ~ >     W W W W W W   F.F.F.F.F.F.F.F.F.F.F.F.F.F.F.F.F.F.",
"F.F.F.F.F.F.F.F.F.F.F.F.F.F.F.F.F.F.  ( ( ( ................{ ( ( ( ( ( ( H     p T R ^ R     R W W .   F.F.F.F.F.F.F.F.F.F.F.F.F.F.F.F.F.F.",
"F.F.F.F.F.F.F.F.F.F.F.F.F.F.F.F.F.F.  ( ( ( ( ( ( ( ( ( ( ( ( ( ( ( ( ( ( ( ( / X   : T K ~ ^         F.F.F.F.F.F.F.F.F.F.F.F.F.F.F.F.F.F.F.",
"F.F.F.F.F.F.F.F.F.F.F.F.F.F.F.F.F.F.F.  / ( ( ( ( ( ( ( ( ( ( ( ( ( ( ( ( U W #   %.}     p T   F.F.F.F.F.F.F.F.F.F.F.F.F.F.F.F.F.F.F.F.F.F.",
"F.F.F.F.F.F.F.F.F.F.F.F.F.F.F.F.F.F.F.    W Q ( ( ( ( ( ( ( ( ( ( I W W p     } *.*.*.*.*.$   F.F.F.F.F.F.F.F.F.F.F.F.F.F.F.F.F.F.F.F.F.F.F.",
"F.F.F.F.F.F.F.F.F.F.F.F.F.F.F.F.F.F.F.F.F.      t E W W W W E a #       f *.l @.*.*.*.*.*.*.  F.F.F.F.F.F.F.F.F.F.F.F.F.F.F.F.F.F.F.F.F.F.F.",
"F.F.F.F.F.F.F.F.F.F.F.F.F.F.F.F.F.F.F.F.F.F.F.F.  0         -   %.*.X 0   @.%.  *.*.*.f k #.  F.F.F.F.F.F.F.F.F.F.F.F.F.F.F.F.F.F.F.F.F.F.F.",
"F.F.F.F.F.F.F.F.F.F.F.F.F.F.F.F.F.F.F.F.F.F.F.F.  D.S.6.    l.m.l.    7 S.6   A   *.  e.h.    F.F.F.F.F.F.F.F.F.F.F.F.F.F.F.F.F.F.F.F.F.F.F.",
"F.F.F.F.F.F.F.F.F.F.F.F.F.F.F.F.F.F.F.F.F.F.F.F.  8 S.  m.m.m.m.m.m.m.= 8 =   m.-.o.  n.m.M.  F.F.F.F.F.F.F.F.F.F.F.F.F.F.F.F.F.F.F.F.F.F.F.",
"F.F.F.F.F.F.F.F.F.F.F.F.F.F.F.F.F.F.F.F.F.F.F.    + =   m.m.m.m.m.m.m.= = = + m.m.v.  a.a.m.S.  F.F.F.F.F.F.F.F.F.F.F.F.F.F.F.F.F.F.F.F.F.F.",
"F.F.F.F.F.F.F.F.F.F.F.F.F.F.F.F.F.F.F.F.F.F.F.    X =   m.p.S.t.u.m.m.= = =   m.m.m.a.a.a.m.M.  F.F.F.F.F.F.F.F.F.F.F.F.F.F.F.F.F.F.F.F.F.F.",
"F.F.F.F.F.F.F.F.F.F.F.F.F.F.F.F.F.F.F.F.F.F.F.    C =   o.t.t.t.t.O.m.  =     m.m.b.a.a.a.m.D   F.F.F.F.F.F.F.F.F.F.F.F.F.F.F.F.F.F.F.F.F.F.",
"F.F.F.F.F.F.F.F.F.F.F.F.F.F.F.F.F.F.F.F.F.F.F.    m.  9 t.t.t.t.t.t.l.m.    x.d.b.a.a.a.M.z.  F.F.F.F.F.F.F.F.F.F.F.F.F.F.F.F.F.F.F.F.F.F.F.",
"F.F.F.F.F.F.F.F.F.F.F.F.F.F.F.F.F.F.F.F.F.F.F.F.d t.S.s.  +.t.t.o.o m.m.m.t.t.t.y.a.j       F.F.F.F.F.F.F.F.F.F.F.F.F.F.F.F.F.F.F.F.F.F.F.F.",
"F.F.F.F.F.F.F.F.F.F.F.F.F.F.F.F.F.F.F.F.F.F.F.F.F.    h a.a.a.a.s.f.s.a.a.a.a.d       F.F.F.F.F.F.F.F.F.F.F.F.F.F.F.F.F.F.F.F.F.F.F.F.F.F.F.",
"F.F.F.F.F.F.F.F.F.F.F.F.F.F.F.F.F.F.F.F.F.F.F.F.F.F.F.F.      < - +         o   F.F.F.F.F.F.F.F.F.F.F.F.F.F.F.F.F.F.F.F.F.F.F.F.F.F.F.F.F.F.",
"F.F.F.F.F.F.F.F.F.F.F.F.F.F.F.F.F.F.F.F.F.F.F.F.F.F.F.F.F.    B S.S.k.>.,.,.  q F   F.F.F.F.F.F.F.F.F.F.F.F.F.F.F.F.F.F.F.F.F.F.F.F.F.F.F.F.",
"F.F.F.F.F.F.F.F.F.F.F.F.F.F.F.F.F.F.F.F.F.F.F.F.F.F.F.F.F.  ,.        ,.,.& B.S.S.N.  F.F.F.F.F.F.F.F.F.F.F.F.F.F.F.F.F.F.F.F.F.F.F.F.F.F.F.",
"F.F.F.F.F.F.F.F.F.F.F.F.F.F.F.F.F.F.F.F.F.F.F.F.F.F.F.F.F.  M ,.,.<.,.,.,.  S.S.S.N.  F.F.F.F.F.F.F.F.F.F.F.F.F.F.F.F.F.F.F.F.F.F.F.F.F.F.F.",
"F.F.F.F.F.F.F.F.F.F.F.F.F.F.F.F.F.F.F.F.F.F.F.F.F.F.F.F.F.  3.4.<.o     2 k.S.S.S.N.  F.F.F.F.F.F.F.F.F.F.F.F.F.F.F.F.F.F.F.F.F.F.F.F.F.F.F.",
"F.F.F.F.F.F.F.F.F.F.F.F.F.F.F.F.F.F.F.F.F.F.F.F.F.F.F.F.    1.3 * m.m.  %   0.S.N.7.F.F.F.F.F.F.F.F.F.F.F.F.F.F.F.F.F.F.F.F.F.F.F.F.F.F.F.F.",
"F.F.F.F.F.F.F.F.F.F.F.F.F.F.F.F.F.F.F.F.F.F.F.F.F.F.F.F.    2.  m.S.m.m.7 m.v.  F   F.F.F.F.F.F.F.F.F.F.F.F.F.F.F.F.F.F.F.F.F.F.F.F.F.F.F.F.",
"F.F.F.F.F.F.F.F.F.F.F.F.F.F.F.F.F.F.F.F.F.F.F.F.F.F.F.F.  N 2.  a.m.m.m.m.m.m.a.    F.F.F.F.F.F.F.F.F.F.F.F.F.F.F.F.F.F.F.F.F.F.F.F.F.F.F.F.",
"F.F.F.F.F.F.F.F.F.F.F.F.F.F.F.F.F.F.F.F.F.F.F.F.F.F.F.F.% B 2.5 -.a.m.m.m.m.a.  V   F.F.F.F.F.F.F.F.F.F.F.F.F.F.F.F.F.F.F.F.F.F.F.F.F.F.F.F.",
"F.F.F.F.F.F.F.F.F.F.F.F.F.F.F.F.F.F.F.F.F.F.F.F.F.F.F.F.o 4 o 4   -.a.a.a.a.X M N   F.F.F.F.F.F.F.F.F.F.F.F.F.F.F.F.F.F.F.F.F.F.F.F.F.F.F.F.",
"F.F.F.F.F.F.F.F.F.F.F.F.F.F.F.F.F.F.F.F.F.F.F.F.F.F.F.    V ;.,.,.&   1 1   n ;.o F.F.F.F.F.F.F.F.F.F.F.F.F.F.F.F.F.F.F.F.F.F.F.F.F.F.F.F.F.",
"F.F.F.F.F.F.F.F.F.F.F.F.F.F.F.F.F.F.F.F.F.F.F.F.F.F.  m %   ;.;.;.;.;.;.V ,.,.,.V B   F.F.F.F.F.F.F.F.F.F.F.F.F.F.F.F.F.F.F.F.F.F.F.F.F.F.F.",
"F.F.F.F.F.F.F.F.F.F.F.F.F.F.F.F.F.F.F.        F.F.  x m m m     M ;.;.;.V 2.,.,.,.;.              F.F.F.F.F.F.F.F.F.F.F.F.F.F.F.F.F.F.F.F.F.",
"F.F.F.F.F.F.F.F.F.F.F.F.F.F.F.F.F.F.  5.e.g.e.    e.  v m m b c           ,.<.,.>.    | ( ) J * h.  F.F.F.F.F.F.F.F.F.F.F.F.F.F.F.F.F.F.F.F.",
"F.F.F.F.F.F.F.F.F.F.F.F.F.F.F.F.F.  q.q.e.g.r.q.    G   b v v   F.F.F.F.F.o ,.>.o r.  ( y     A.= F.F.F.F.F.F.F.F.F.F.F.F.F.F.F.F.F.F.F.F.F.",
"F.F.F.F.F.F.F.F.F.F.F.F.F.F.F.F.  q.  + q.q.e.q.q.  .     v   F.F.F.F.F.F.F.O %         5.h.  N.  F.F.F.F.F.F.F.F.F.F.F.F.F.F.F.F.F.F.F.F.F.",
"F.F.F.F.F.F.F.F.F.F.F.F.F.F.F.F.  C g.0.  Z q.e.q.  L .     F.F.F.F.F.F.F.F.F.F.    0.B.N.G Z N.  F.F.F.F.F.F.F.F.F.F.F.F.F.F.F.F.F.F.F.F.F.",
"F.F.F.F.F.F.F.F.F.F.F.F.F.F.F.F.F.    0.e.*   8.8.  L q.  F.F.F.F.F.F.F.F.F.F.F.F.* N.N.N.  B.X F.F.F.F.F.F.F.F.F.F.F.F.F.F.F.F.F.F.F.F.F.F.",
"F.F.F.F.F.F.F.F.F.F.F.F.F.F.F.F.F.F.F.    e.r.  +   J w.  F.F.F.F.F.F.F.F.F.F.F.  N.A.N.N.  N.  F.F.F.F.F.F.F.F.F.F.F.F.F.F.F.F.F.F.F.F.F.F.",
"F.F.F.F.F.F.F.F.F.F.F.F.F.F.F.F.F.F.F.F.F.  Z q.0.  w   F.F.F.F.F.F.F.F.F.F.F.F.  S.S.N.8 h.g.  F.F.F.F.F.F.F.F.F.F.F.F.F.F.F.F.F.F.F.F.F.F.",
"F.F.F.F.F.F.F.F.F.F.F.F.F.F.F.F.F.F.F.F.F.F.    q.q.+   F.F.F.F.F.F.F.F.F.F.F.F.  h.A.N.  N.  F.F.F.F.F.F.F.F.F.F.F.F.F.F.F.F.F.F.F.F.F.F.F.",
"F.F.F.F.F.F.F.F.F.F.F.F.F.F.F.F.F.F.F.F.F.F.F.F.    6   F.F.F.F.F.F.F.F.F.F.F.F.F.  N.N.X S.  F.F.F.F.F.F.F.F.F.F.F.F.F.F.F.F.F.F.F.F.F.F.F.",
"F.F.F.F.F.F.F.F.F.F.F.F.F.F.F.F.F.F.F.F.F.F.F.F.F.F.  F.F.F.F.F.F.F.F.F.F.F.F.F.F.    X S.5.F.F.F.F.F.F.F.F.F.F.F.F.F.F.F.F.F.F.F.F.F.F.F.F.",
"F.F.F.F.F.F.F.F.F.F.F.F.F.F.F.F.F.F.F.F.F.F.F.F.F.F.F.F.F.F.F.F.F.F.F.F.F.F.F.F.F.F.F.  e.  F.F.F.F.F.F.F.F.F.F.F.F.F.F.F.F.F.F.F.F.F.F.F.F.",
"F.F.F.F.F.F.F.F.F.F.F.F.F.F.F.F.F.F.F.F.F.F.F.F.F.F.F.F.F.F.F.F.F.F.F.F.F.F.F.F.F.F.F.F.    F.F.F.F.F.F.F.F.F.F.F.F.F.F.F.F.F.F.F.F.F.F.F.F.",
"F.F.F.F.F.F.F.F.F.F.F.F.F.F.F.F.F.F.F.F.F.F.F.F.F.F.F.F.F.F.F.F.F.F.F.F.F.F.F.F.F.F.F.F.F.F.F.F.F.F.F.F.F.F.F.F.F.F.F.F.F.F.F.F.F.F.F.F.F.F.",
"F.F.F.F.F.F.F.F.F.F.F.F.F.F.F.F.F.F.F.F.F.F.F.F.F.F.F.F.F.F.F.F.F.F.F.F.F.F.F.F.F.F.F.F.F.F.F.F.F.F.F.F.F.F.F.F.F.F.F.F.F.F.F.F.F.F.F.F.F.F.",
"F.F.F.F.F.F.F.F.F.F.F.F.F.F.F.F.F.F.F.F.F.F.F.F.F.F.F.F.F.F.F.F.F.F.F.F.F.F.F.F.F.F.F.F.F.F.F.F.F.F.F.F.F.F.F.F.F.F.F.F.F.F.F.F.F.F.F.F.F.F.",
"F.F.F.F.F.F.F.F.F.F.F.F.F.F.F.F.F.F.F.F.F.F.F.F.F.F.F.F.F.F.F.F.F.F.F.F.F.F.F.F.F.F.F.F.F.F.F.F.F.F.F.F.F.F.F.F.F.F.F.F.F.F.F.F.F.F.F.F.F.F.",
"F.F.F.F.F.F.F.F.F.F.F.F.F.F.F.F.F.F.F.F.F.F.F.F.F.F.F.F.F.F.F.F.F.F.F.F.F.F.F.F.F.F.F.F.F.F.F.F.F.F.F.F.F.F.F.F.F.F.F.F.F.F.F.F.F.F.F.F.F.F.",
"F.F.F.F.F.F.F.F.F.F.F.F.F.F.F.F.F.F.F.F.F.F.F.F.F.F.F.F.F.F.F.F.F.F.F.F.F.F.F.F.F.F.F.F.F.F.F.F.F.F.F.F.F.F.F.F.F.F.F.F.F.F.F.F.F.F.F.F.F.F.",
"F.F.F.F.F.F.F.F.F.F.F.F.F.F.F.F.F.F.F.F.F.F.F.F.F.F.F.F.F.F.F.F.F.F.F.F.F.F.F.F.F.F.F.F.F.F.F.F.F.F.F.F.F.F.F.F.F.F.F.F.F.F.F.F.F.F.F.F.F.F.",
"F.F.F.F.F.F.F.F.F.F.F.F.F.F.F.F.F.F.F.F.F.F.F.F.F.F.F.F.F.F.F.F.F.F.F.F.F.F.F.F.F.F.F.F.F.F.F.F.F.F.F.F.F.F.F.F.F.F.F.F.F.F.F.F.F.F.F.F.F.F.",
"F.F.F.F.F.F.F.F.F.F.F.F.F.F.F.F.F.F.F.F.F.F.F.F.F.F.F.F.F.F.F.F.F.F.F.F.F.F.F.F.F.F.F.F.F.F.F.F.F.F.F.F.F.F.F.F.F.F.F.F.F.F.F.F.F.F.F.F.F.F."
};
