/* XPM */
static char *result[] = {
/* columns rows colors chars-per-pixel */
"70 70 225 2 ",
"   c #010101",
".  c #0C0101",
"X  c #0A0A0A",
"o  c #080909",
"O  c #140404",
"+  c #1B0202",
"@  c #130C0B",
"#  c #130E07",
"$  c #060D13",
"%  c #09121B",
"&  c #151515",
"*  c #1A1A1A",
"=  c #1B1714",
"-  c #16130F",
";  c #240300",
":  c #2A0705",
">  c #390A0E",
",  c #360607",
"<  c #3F0E10",
"1  c #241B17",
"2  c #391A1C",
"3  c #0C1A27",
"4  c #111D29",
"5  c #081C31",
"6  c #122233",
"7  c #14283B",
"8  c #0A233C",
"9  c #2C2C2B",
"0  c #262524",
"q  c #372C21",
"w  c #372B27",
"e  c #393129",
"r  c #343434",
"t  c #3B3B3B",
"y  c #363739",
"u  c #293139",
"i  c #2D231C",
"p  c #470506",
"a  c #5B0101",
"s  c #530202",
"d  c #471502",
"f  c #591903",
"g  c #480E12",
"h  c #4B1C18",
"j  c #5C1117",
"k  c #520F14",
"l  c #680300",
"z  c #780200",
"x  c #64180D",
"c  c #641319",
"v  c #6B141A",
"b  c #76161C",
"n  c #7B1900",
"m  c #4E3019",
"M  c #682405",
"N  c #732600",
"B  c #5F1C21",
"V  c #453F39",
"C  c #453835",
"Z  c #483A2C",
"A  c #643538",
"S  c #57442E",
"D  c #684D25",
"F  c #6F5030",
"G  c #172D43",
"H  c #1A334B",
"J  c #1B3651",
"K  c #1D3A57",
"L  c #0A2845",
"P  c #24374A",
"I  c #2C3D4F",
"U  c #663E42",
"Y  c #224467",
"T  c #274D73",
"R  c #2A527C",
"E  c #365777",
"W  c #4C4C4C",
"Q  c #494745",
"!  c gray36",
"~  c #585452",
"^  c #525154",
"/  c #655C54",
"(  c #6F5F4D",
")  c #7B644A",
"_  c #746659",
"`  c #5C6266",
"'  c #636363",
"]  c #6D6C6C",
"[  c #786E67",
"{  c #737373",
"}  c #7B7B7B",
"|  c #75716D",
" . c #880000",
".. c #81151B",
"X. c #940303",
"o. c #AC151C",
"O. c #A2131A",
"+. c #B21110",
"@. c #8A2900",
"#. c #9A3202",
"$. c #9B2400",
"%. c #A82C00",
"&. c #B23502",
"*. c #AC3100",
"=. c #841920",
"-. c #871921",
";. c #941B24",
":. c #9D1D27",
">. c #A41F28",
",. c #AC202A",
"<. c #C90405",
"1. c #D50100",
"2. c #D90900",
"3. c #D80600",
"4. c #DE1700",
"5. c #E21D03",
"6. c #D72000",
"7. c #D8370B",
"8. c #C72801",
"9. c #EA2C00",
"0. c #E42100",
"q. c #EA3100",
"w. c #946932",
"e. c #936C32",
"r. c #AA7D3A",
"t. c #855D2D",
"y. c #FA4D00",
"u. c #F64200",
"i. c #FE5400",
"p. c #E14B00",
"a. c #DD5C35",
"s. c #FE7A39",
"d. c #907555",
"f. c #A27B42",
"g. c #84766D",
"h. c #9A5755",
"j. c #DE7C59",
"k. c #F97745",
"l. c #CA7772",
"z. c #B4853E",
"x. c #B1854E",
"c. c #9A836D",
"v. c #8A8178",
"b. c #958473",
"n. c #B79471",
"m. c #A68F7B",
"M. c #CB9545",
"N. c #F7814B",
"B. c #F18757",
"V. c #EDAE51",
"C. c #C3976B",
"Z. c #C6916D",
"A. c #F4906D",
"S. c #CEA57C",
"D. c #FEA578",
"F. c #2D5985",
"G. c #2E5A87",
"H. c #305E8D",
"J. c #326496",
"K. c #336699",
"L. c #35689C",
"P. c #30608F",
"I. c #376DA3",
"U. c #3A73AD",
"Y. c #3870A7",
"T. c #3C77B1",
"R. c #6B7D8F",
"E. c #76899C",
"W. c #7A94AD",
"Q. c #868686",
"!. c #929191",
"~. c #9D9D9D",
"^. c #9C908C",
"/. c #A39688",
"(. c #AB968B",
"). c #B7A798",
"_. c #9D9EA0",
"`. c #A3A2A2",
"'. c #AAAAAA",
"]. c #ACAAA7",
"[. c #B2B2B2",
"{. c #BEBEBE",
"}. c #ADB3B8",
"|. c #CC8789",
" X c #F58E89",
".X c #FE938E",
"XX c #FA9791",
"oX c #DAB28A",
"OX c #C4AC98",
"+X c #C5B09D",
"@X c #CDA985",
"#X c #F3AE91",
"$X c #C7B6A6",
"%X c #DFB6B7",
"&X c #F4BDAA",
"*X c #EFB7B4",
"=X c #DDC29B",
"-X c #FFCC9A",
";X c #F9C595",
":X c #DCCAB8",
">X c #FFD1A3",
",X c #FFD5AA",
"<X c #FCC9B8",
"1X c #FEDCB9",
"2X c #EDCEAE",
"3X c #C9C8C8",
"4X c #D4D4D4",
"5X c #DCDCDC",
"6X c #DAD5D5",
"7X c #FBD9C9",
"8X c #F2D1C5",
"9X c #FFE1C3",
"0X c #F5E1CD",
"qX c #FDE4D1",
"wX c #FFEAD5",
"eX c #FAEADF",
"rX c #E4E4E4",
"tX c #ECECEC",
"yX c #EEE8E6",
"uX c #F9EEE9",
"iX c #FEF4EB",
"pX c #F3F3F3",
"aX c #FCFCFC",
"sX c #FEF8F5",
"dX c None",
/* pixels */
"dXdXdXdXdXdXdXdXdXdXdXdXdXdXdXdXdXdXdXdXdXdXdXdXdXdXdXdXdXdXdXdXdXdXdXdXdXdXdXdXdXdXdXdXdXdXdXdXdXdXdXdXdXdXdXdXdXdXdXdXdXdXdXdXdXdXdXdXdXdX",
"dXdXdXdXdXdXdXdXdXdXdXdXdXdXdXdXdXdXdXdXdXdXdXdXdXdXdXdXdXdXdXdXdXdXdXdXdXdXdXdXdXdXdXdXdXdXdXdXdXdXdXdXdXdXdXdXdXdXdXdXdXdXdXdXdXdXdXdXdXdX",
"dXdXdXdXdXdXdXdXdXdXdXdXdXdXdXdXdXdXdXdXdXdXdXdXdXdXdXdXdXdXdXdXdXdXdXdXdXdXdXdXdXdXdXdXdXdXdXdXdXdXdXdXdXdXdXdXdXdXdXdXdXdXdXdXdXdXdXdXdXdX",
"dXdXdXdXdXdXdXdXdXdXdXdXdXdXdXdXdXdXdXdXdXdXdXdXdXdXdXdXdXdXdXdXdXdXdXdXdXdXdXdXdXdXdXdXdXdXdXdXdXdXdXdXdXdXdXdXdXdXdXdXdXdXdXdXdXdXdXdXdXdX",
"dXdXdXdXdXdXdXdXdXdXdXdXdXdXdXdXdXdXdXdXdXdXdXdXdXdXdXdX. s  .s     dXdXdXdXdXdXdXdXdXdXdXdXdXdXdXdXdXdXdXdXdXdXdXdXdXdXdXdXdXdXdXdXdXdXdXdX",
"dXdXdXdXdXdXdXdXdXdXdXdXdXdXdXdXdXdXdXdXdXdXdXdXdXdXdXp n &.7.*.n l   dXdXdXdXdXdXdXdXdXdXdXdXdXdXdXdXdXdXdXdXdXdXdXdXdXdXdXdXdXdXdXdXdXdXdX",
"dXdXdXdXdXdXdXdXdXdXdXdXdXdXdXdXdXdXdXdXdXdXdXdXdXdX  h.A.D.D.A.k.4.a dXdXdXdXdXdXdXdXdXdXdXdXdXdXdXdXdXdXdXdXdXdXdXdXdXdXdXdXdXdXdXdXdXdXdX",
"dXdXdXdXdXdXdXdXdXdXdXdXdXdXdXdXdXdXdXdXdXdXdXdXdXdXW {.pXaXaXsX7XN.4.s dXdXdXdXdXdXdXdXdXdXdXdXdXdXdXdXdXdXdXdXdXdXdXdXdXdXdXdXdXdXdXdXdXdX",
"dXdXdXdXdXdXdXdXdXdXdXdXdXdXdXdXdXdXdXdXdXdXdXdXdX  [.pXpXaXaXaXaXiXk.5.s dXdXdXdXdXdXdXdXdXdXdXdXdXdXdXdXdXdXdXdXdXdXdXdXdXdXdXdXdXdXdXdXdX",
"dXdXdXdXdXdXdXdXdXdXdXdXdXdXdXdXdXdXdXdXdXdXdXdXdX  [.pXpXpXpXpXpXaXsXs.5.p dX: , : dXdXdXdXdXdXdXdXdXdXdXdXdXdXdXdXdXdXdXdXdXdXdXdXdXdXdXdX",
"dXdXdXdXdXdXdXdXdXdXdXdXdXdXdXdXdXdXdXdXdXdXdXdXdX@ [.pXpXpXpXpXsXpXpXaXs.%.: z 4.$.;   dXdXdXdXdXdXdXdXdXdXdXdXdXdXdXdXdXdXdXdXdXdXdXdXdXdX",
"dXdXdXdXdXdXdXdXdXdXdXdXdXdXdXdXdXdXdXdXdXdXdXdXdX^.6XpXpXpXpXpXpXpXpXpXaXs.f d &.i.&.; dXdXdXdXdXdXdXdXdXdXdXdXdXdXdXdXdXdXdXdXdXdXdXdXdXdX",
"dXdXdXdXdXdXdXdXdXdXdXdXdXdXdXdXdXdXdXdXdXdXdXdX  3XtXtXtXtXpXpXpXpXpXpXpXuXk.M # l 1.X.  dXdXdXdXdXdXdXdXdXdXdXdXdXdXdXdXdXdXdXdXdXdXdXdXdX",
"dXdXdXdXdXdXdXdXdXdXdXdXdXdXdXdXdXdXdXdXdXdXdXdX  '.rXtXtXtXtXtXtXtXtXpXpXpXyXB.8.z ; +   dXdXdXdXdXdXdXdXdXdXdXdXdXdXdXdXdXdXdXdXdXdXdXdXdX",
"dXdXdXdXdXdXdXdXdXdXdXdXdXdXdXdXdXdXdXdXdXdXdXdX  9 '.5XyXtXtXtXtXtXtXpXtXpXpX0X&Xj.&.z     dXdXdXdXdXdXdXdXdXdXdXdXdXdXdXdXdXdXdXdXdXdXdXdX",
"dXdXdXdXdXdXdXdXdXdXdXdXdXdXdXdXdXdXdXdXdXdXdXdXg c C W !.6XrXtXtXtXtXtXtXtXtXtXtX7XXXa.%. .    dXdXdXdXdXdXdXdXdXdXdXdXdXdXdXdXdXdXdXdXdXdX",
"dXdXdXdXdXdXdXdXdXdXdXdXdXdXdXdXdXdXdXdXdXdXdX  j =.v c A ~ ] _.5XyXyXuXtXtXtXtXtXpXeX&XB.q.#. .+ dXdXdXdXdXdXdXdXdXdXdXdXdXdXdXdXdXdXdXdXdX",
"dXdXdXdXdXdXdXdXdXdXdXdXdXdXdXdXdXdXdXdXdXdX. l f g k ;.=.c v ~ ' Q.5X6XrXtXyXtXtXrXtXyX<X9.i.9.@.: dXdXdXdXdXdXdXdXdXdXdXdXdXdXdXdXdXdXdXdX",
"dXdXdXdXdXdXdXdXdXdXdXdXdXdXdXdXdXdXdXdXdX+ l 0.#.N M x j =.:.b g h { R.3X4XrXrXrXtXyXyX%X2.q.q.y.@.: dXdXdXdXdXdXdXdXdXdXdXdXdXdXdXdXdXdXdX",
"dXdXdXdXdXdXdXdXdXdXdXdXdXdXdXdXdXdXdXdX+ a 5.i.i.i.i.@.f f v b :.:.> > g.Q.!.{.rX5XrXrX%X<.<.<.7.7.x : dXdXdXdXdXdXdXdXdXdXdXdXdXdXdXdXdXdX",
"dXdXdXdXdXdXdXdXdXdXdXdXdXdXdXdXdXdXdX+ l 5.i.i.i.i.i.i.i.*.d f v b b ,.c > 2 | ~.[.3X3X|.+.+.>.>.:.:.<   dXdXdXdXdXdXdXdXdXdXdXdXdXdXdXdXdX",
"dXdXdXdXdXdXdXdXdXdXdXdXdXdXdXdXdXdX+ a 5.i.i.i.i.i.i.i.i.i.i.p.@.: : -.-.>.:.g O ~ '.m.;.:.:.:.:.:.:.g dXdXdXdXdXdXdXdXdXdXdXdXdXdXdXdXdXdX",
"dXdXdXdXdXdXdXdXdXdXdXdXdXdXdXdXdX  a 1.5.y.y.i.i.i.i.i.i.y.y.y.u.9.<.+ O v ;.:.>.v O : v ;.;.:.:.:.;.< dXdXdXdXdXdXdXdXdXdXdXdXdXdXdXdXdXdX",
"dXdXdXdXdXdXdXdXdXdXdXdXdXdXdXdXdX  a 1.1.2.2.q.i.i.i.y.q.2.1.1.1.1.1.1.<.p   > v -.;.:.k   . ;.:.:.> dXdXdXdXdXdXdXdXdXdXdXdXdXdXdXdXdXdXdX",
"dXdXdXdXdXdXdXdXdXdXdXdXdXdXdXdXdXdXg +.1.1.1.3.3.2.2.2.1.1.1.1.1.1.1.1.1.<.+...< # > ....>.v O . O dXdXdXdXdXdXdXdXdXdXdXdXdXdXdXdXdXdXdXdX",
"dXdXdXdXdXdXdXdXdXdXdXdXdXdXdXdXdXdXO p O.<.1.1.1.1.1.1.1.1.1.1.1.1.1.<.o.O.p + D M.t.O > -.c . dXdXdXdXdXdXdXdXdXdXdXdXdXdXdXdXdXdXdXdXdXdX",
"dXdXdXdXdXdXdXdXdXdXdXdXdXdXdXdXdXdXdXdX: , a >.o.o.o.o.o.o.o.o.o.O.s , : g w.r.M.V.M.z.e.m + dXdXdXdXdXdXdXdXdXdXdXdXdXdXdXdXdXdXdXdXdXdXdX",
"dXdXdXdXdXdXdXdXdXdXdXdXdXdXdXdXdXdXdXdXdXdXdX> > > > > > > > > < h # e.e.r.F r.V.V.V.V.M.# dXdXdXdXdXdXdXdXdXdXdXdXdXdXdXdXdXdXdXdXdXdXdXdX",
"dXdXdXdXdXdXdXdXdXdXdXdXdXdXdXdXdXdXdXdXdXdXdX  Q.Q.e o   V v./ # S v.=XF D Z z.V.z.F D m   dXdXdXdXdXdXdXdXdXdXdXdXdXdXdXdXdXdXdXdXdXdXdXdX",
"dXdXdXdXdXdXdXdXdXdXdXdXdXdXdXdXdXdXdXdXdXdXdX  6XaXW W [ ).qX:Xv.n.| `.t X _ d.z.e.e [ /   dXdXdXdXdXdXdXdXdXdXdXdXdXdXdXdXdXdXdXdXdXdXdXdX",
"dXdXdXdXdXdXdXdXdXdXdXdXdXdXdXdXdXdXdXdXdXdXdX  ~.'.9 /.wXwXwXqX0X:X  W y X ).^.) D ) 9X:X/ dXdXdXdXdXdXdXdXdXdXdXdXdXdXdXdXdXdXdXdXdXdXdXdX",
"dXdXdXdXdXdXdXdXdXdXdXdXdXdXdXdXdXdXdXdXdXdXdX0 ] 9 o /.qXqXqX7XwX:Xo * *   ).0X/.) n.-X1X:X  dXdXdXdXdXdXdXdXdXdXdXdXdXdXdXdXdXdXdXdXdXdXdX",
"dXdXdXdXdXdXdXdXdXdXdXdXdXdXdXdXdXdXdXdXdXdXo ^ '.y X (.*X8X<XXX1X).w * & . ).wXwX,X;X-X>X8X  dXdXdXdXdXdXdXdXdXdXdXdXdXdXdXdXdXdXdXdXdXdXdX",
"dXdXdXdXdXdXdXdXdXdXdXdXdXdXdXdXdXdXdXdXdXdXdX  8XV 1 h..X.X.X.XZ.S :X9   * ).qX9X>X-X-X2X$X  dXdXdXdXdXdXdXdXdXdXdXdXdXdXdXdXdXdXdXdXdXdXdX",
"dXdXdXdXdXdXdXdXdXdXdXdXdXdXdXdXdXdXdXdXdXdXdX  %X2 (.#X.X X X Xl.0 0X| = +X<X<X,X;X;X>X$X  dXdXdXdXdXdXdXdXdXdXdXdXdXdXdXdXdXdXdXdXdXdXdXdX",
"dXdXdXdXdXdXdXdXdXdXdXdXdXdXdXdXdXdXdXdXdXdXdXdX.X X<X@XZ O @ # r 0XwXqXXX.X.X#X-Xd.  X # dXdXdXdXdXdXdXdXdXdXdXdXdXdXdXdXdXdXdXdXdXdXdXdXdX",
"dXdXdXdXdXdXdXdXdXdXdXdXdXdXdXdXdXdXdXdXdXdXdXdXdXh 0 & ) oXoXoXoX-X>X>X;X( > = 1 = dXdXdXdXdXdXdXdXdXdXdXdXdXdXdXdXdXdXdXdXdXdXdXdXdXdXdXdX",
"dXdXdXdXdXdXdXdXdXdXdXdXdXdXdXdXdXdXdXdXdXdXdXdXdXdXdXdXi w q q q q q q ^ F.3       dXdXdXdXdXdXdXdXdXdXdXdXdXdXdXdXdXdXdXdXdXdXdXdXdXdXdXdX",
"dXdXdXdXdXdXdXdXdXdXdXdXdXdXdXdXdXdXdXdXdXdXdXdXdXdXdXdX! ^ % y [.`.3 Y F.G ` ~.'.~.!.dXdXdXdXdXdXdXdXdXdXdXdXdXdXdXdXdXdXdXdXdXdXdXdXdXdXdX",
"dXdXdXdXdXdXdXdXdXdXdXdXdXdXdXdXdXdXdXdXdXdXdXdXdXdXdXr { R.Y E W.E.T J.Y * _.pXaXrX`.dXdXdXdXdXdXdXdXdXdXdXdXdXdXdXdXdXdXdXdXdXdXdXdXdXdXdX",
"dXdXdXdXdXdXdXdXdXdXdXdXdXdXdXdXdXdXdXdXdXdXdXdXdXdXdX} ' I H G L 7 K R 3 { 4XaXaXaX{.W dXdXdXdXdXdXdXdXdXdXdXdXdXdXdXdXdXdXdXdXdXdXdXdXdXdX",
"dXdXdXdXdXdXdXdXdXdXdXdXdXdXdXdXdXdXdXdXdXdXdXdXdXdXdX[.W o 4 G H H Y H G }.`.4XaX4X^.b.  dXdXdXdXdXdXdXdXdXdXdXdXdXdXdXdXdXdXdXdXdXdXdXdXdX",
"dXdXdXdXdXdXdXdXdXdXdXdXdXdXdXdXdXdXdXdXdXdXdXdXdXdXdX} t 6 F.L.Y.T.U.6 H.W.u ' ~.E.b.oXS dXdXdXdXdXdXdXdXdXdXdXdXdXdXdXdXdXdXdXdXdXdXdXdXdX",
"dXdXdXdXdXdXdXdXdXdXdXdXdXdXdXdXdXdXdXdXdXdXdXdXe e / *   K U.T.T.T.Y.o F.L.H 3 o _ wX9XoX  dXdXdXdXdXdXdXdXdXdXdXdXdXdXdXdXdXdXdXdXdXdXdXdX",
"dXdXdXdXdXdXdXdXdXdXdXdXdXdXdXdXdXdXdXdXdXdXdX1 ).OXOXt   K T.U.U.T.I.  G.K.F.E I b.wX9XS.  dXdXdXdXdXdXdXdXdXdXdXdXdXdXdXdXdXdXdXdXdXdXdXdX",
"dXdXdXdXdXdXdXdXdXdXdXdXdXdXdXdXdXdXdXdXdXdXdX+XC.OX+XS o K U.I.Y.U.I.$ G.K.4 W +XqXwX9XS.  dXdXdXdXdXdXdXdXdXdXdXdXdXdXdXdXdXdXdXdXdXdXdXdX",
"dXdXdXdXdXdXdXdXdXdXdXdXdXdXdXdXdXdXdXdXdXdX@ C.n.C.OXV J J % J R J.R F.J.J.5 ^.eXwXwX9XS.  dXdXdXdXdXdXdXdXdXdXdXdXdXdXdXdXdXdXdXdXdXdXdXdX",
"dXdXdXdXdXdXdXdXdXdXdXdXdXdXdXdXdXdXdXdXdXdXdXX x.C.C.S P R F.H.J.K.J.J.J.F.u '.iXwX9XoX) dXdXdXdXdXdXdXdXdXdXdXdXdXdXdXdXdXdXdXdXdXdXdXdXdX",
"dXdXdXdXdXdXdXdXdXdXdXdXdXdXdXdXdXdXdXdXdXdXdXdXdX1 = X o 6 Y F.G.R R I.Y.K.6 c.>X>Xn.1 & dXdXdXdXdXdXdXdXdXdXdXdXdXdXdXdXdXdXdXdXdXdXdXdXdX",
"dXdXdXdXdXdXdXdXdXdXdXdXdXdXdXdXdXdXdXdXdXdXdXdXdXdXdXdXdX$ % % % 6 H.L.L.L.T y e e q dXdXdXdXdXdXdXdXdXdXdXdXdXdXdXdXdXdXdXdXdXdXdXdXdXdXdX",
"dXdXdXdXdXdXdXdXdXdXdXdXdXdXdXdXdXdXdXdXdXdXdXdXdXdXdXdXdXdX3 8 7 $ P.K.K.K.G.6 V Q   dXdXdXdXdXdXdXdXdXdXdXdXdXdXdXdXdXdXdXdXdXdXdXdXdXdXdX",
"dXdXdXdXdXdXdXdXdXdXdXdXdXdXdXdXdXdXdXdXdXdXdXdXdXdXdXdXdXdXdXL L 5 7 K R H.K % ! !   dXdXdXdXdXdXdXdXdXdXdXdXdXdXdXdXdXdXdXdXdXdXdXdXdXdXdX",
"dXdXdXdXdXdXdXdXdXdXdXdXdXdXdXdXdXdXdXdXdXdXdXdXdXdXdXdXdXdXdXdXI E.} ' J G %   ! '   dXdXdXdXdXdXdXdXdXdXdXdXdXdXdXdXdXdXdXdXdXdXdXdXdXdXdX",
"dXdXdXdXdXdXdXdXdXdXdXdXdXdXdXdXdXdXdXdXdXdXdXdXdXdXdXdXdXdXdXdX9 !.!.Z.x O 9 * ! '   dXdXdXdXdXdXdXdXdXdXdXdXdXdXdXdXdXdXdXdXdXdXdXdXdXdXdX",
"dXdXdXdXdXdXdXdXdXdXdXdXdXdXdXdXdXdXdXdXdXdXdXdXdXdXdXdXdXr W ^ W W W #.8.F ' 0 ! '   dXdXdXdXdXdXdXdXdXdXdXdXdXdXdXdXdXdXdXdXdXdXdXdXdXdXdX",
"dXdXdXdXdXdXdXdXdXdXdXdXdXdXdXdXdXdXdXdXdXdXdXdXdXdXdXdX* { 5XpXrXrX5Xt X.|.C o ! ] dXdXdXdXdXdXdXdXdXdXdXdXdXdXdXdXdXdXdXdXdXdXdXdXdXdXdXdX",
"dXdXdXdXdXdXdXdXdXdXdXdXdXdXdXdXdXdXdXdXdXdXdXdXdXdXdXdX' {.aXtXyXrX4X[.*  ., X ~ Q.dXdXdXdXdXdXdXdXdXdXdXdXdXdXdXdXdXdXdXdXdXdXdXdXdXdXdXdX",
"dXdXdXdXdXdXdXdXdXdXdXdXdXdXdXdXdXdXdXdXdXdXdXdXdXdXdX  { 4X4X4X4X4X!.t & @ @ o t { dXdXdXdXdXdXdXdXdXdXdXdXdXdXdXdXdXdXdXdXdXdXdXdXdXdXdXdX",
"dXdXdXdXdXdXdXdXdXdXdXdXdXdXdXdXdXdXdXdXdXdXdXdXdXdXdX    o   o 0 { 5XpXyXrX4XW & 0 dXdXdXdXdXdXdXdXdXdXdXdXdXdXdXdXdXdXdXdXdXdXdXdXdXdXdXdX",
"dXdXdXdXdXdXdXdXdXdXdXdXdXdXdXdXdXdXdXdXdXdXdXdXdXdXdX  { 4X6X4X{.Q.t * & & & o   o dXdXdXdXdXdXdXdXdXdXdXdXdXdXdXdXdXdXdXdXdXdXdXdXdXdXdXdX",
"dXdXdXdXdXdXdXdXdXdXdXdXdXdXdXdXdXdXdXdXdXdXdXdXdXdXdX  & 9 r r dXdXdXdXdXdX        dXdXdXdXdXdXdXdXdXdXdXdXdXdXdXdXdXdXdXdXdXdXdXdXdXdXdXdX",
"dXdXdXdXdXdXdXdXdXdXdXdXdXdXdXdXdXdXdXdXdXdXdXdXdXdXdXdXdXdXdXdXdXdXdXdXdXdXdXdXdXdXdXdXdXdXdXdXdXdXdXdXdXdXdXdXdXdXdXdXdXdXdXdXdXdXdXdXdXdX",
"dXdXdXdXdXdXdXdXdXdXdXdXdXdXdXdXdXdXdXdXdXdXdXdXdXdXdXdXdXdXdXdXdXdXdXdXdXdXdXdXdXdXdXdXdXdXdXdXdXdXdXdXdXdXdXdXdXdXdXdXdXdXdXdXdXdXdXdXdXdX",
"dXdXdXdXdXdXdXdXdXdXdXdXdXdXdXdXdXdXdXdXdXdXdXdXdXdXdXdXdXdXdXdXdXdXdXdXdXdXdXdXdXdXdXdXdXdXdXdXdXdXdXdXdXdXdXdXdXdXdXdXdXdXdXdXdXdXdXdXdXdX",
"dXdXdXdXdXdXdXdXdXdXdXdXdXdXdXdXdXdXdXdXdXdXdXdXdXdXdXdXdXdXdXdXdXdXdXdXdXdXdXdXdXdXdXdXdXdXdXdXdXdXdXdXdXdXdXdXdXdXdXdXdXdXdXdXdXdXdXdXdXdX",
"dXdXdXdXdXdXdXdXdXdXdXdXdXdXdXdXdXdXdXdXdXdXdXdXdXdXdXdXdXdXdXdXdXdXdXdXdXdXdXdXdXdXdXdXdXdXdXdXdXdXdXdXdXdXdXdXdXdXdXdXdXdXdXdXdXdXdXdXdXdX",
"dXdXdXdXdXdXdXdXdXdXdXdXdXdXdXdXdXdXdXdXdXdXdXdXdXdXdXdXdXdXdXdXdXdXdXdXdXdXdXdXdXdXdXdXdXdXdXdXdXdXdXdXdXdXdXdXdXdXdXdXdXdXdXdXdXdXdXdXdXdX",
"dXdXdXdXdXdXdXdXdXdXdXdXdXdXdXdXdXdXdXdXdXdXdXdXdXdXdXdXdXdXdXdXdXdXdXdXdXdXdXdXdXdXdXdXdXdXdXdXdXdXdXdXdXdXdXdXdXdXdXdXdXdXdXdXdXdXdXdXdXdX",
"dXdXdXdXdXdXdXdXdXdXdXdXdXdXdXdXdXdXdXdXdXdXdXdXdXdXdXdXdXdXdXdXdXdXdXdXdXdXdXdXdXdXdXdXdXdXdXdXdXdXdXdXdXdXdXdXdXdXdXdXdXdXdXdXdXdXdXdXdXdX",
"dXdXdXdXdXdXdXdXdXdXdXdXdXdXdXdXdXdXdXdXdXdXdXdXdXdXdXdXdXdXdXdXdXdXdXdXdXdXdXdXdXdXdXdXdXdXdXdXdXdXdXdXdXdXdXdXdXdXdXdXdXdXdXdXdXdXdXdXdXdX"
};
