/* XPM */
static char *result[] = {
/* columns rows colors chars-per-pixel */
"70 70 157 2 ",
"   c #000000",
".  c #0A0201",
"X  c #030609",
"o  c #050A0F",
"O  c #0C0C0B",
"+  c #140102",
"@  c #150B08",
"#  c #15110D",
"$  c #181309",
"%  c #060C13",
"&  c #080F18",
"*  c #04111E",
"=  c #141414",
"-  c #1B1B1B",
";  c #1A1816",
":  c #290000",
">  c #2B0709",
",  c #220609",
"<  c #3E1400",
"1  c #211B15",
"2  c #311E1B",
"3  c #23201D",
"4  c #0D1926",
"5  c #08223B",
"6  c #15293D",
"7  c gray14",
"8  c #282828",
"9  c #292622",
"0  c #302D28",
"q  c #3C2422",
"w  c #37322E",
"e  c gray20",
"r  c #3D3733",
"t  c #41080B",
"y  c #5C1117",
"u  c #620000",
"i  c #6D0000",
"p  c #6F151B",
"a  c #70141B",
"s  c #613736",
"d  c #594320",
"f  c #162C42",
"g  c #18314A",
"h  c #0B2F54",
"j  c #0B3055",
"k  c #1B3651",
"l  c #1E3C59",
"z  c #213E5B",
"x  c #0F3A65",
"c  c #113E6B",
"v  c #23476B",
"b  c #284E75",
"n  c #2C557F",
"m  c #4B4B4B",
"M  c #555555",
"N  c #5B5B5A",
"B  c #6E5757",
"V  c #7F6A56",
"C  c #676767",
"Z  c #7C7C7C",
"A  c gray45",
"S  c #8F0000",
"D  c #940000",
"F  c #9D0000",
"G  c #81191F",
"H  c #86161D",
"J  c #A20000",
"K  c #AA0000",
"L  c #BD0000",
"P  c #A8191D",
"I  c #A23600",
"U  c #841920",
"Y  c #8D1922",
"T  c #941922",
"R  c #9D1D27",
"E  c #A31A23",
"W  c #A21E28",
"Q  c #A81720",
"!  c #AD202A",
"~  c #B3222B",
"^  c #CE0101",
"/  c #C50405",
"(  c #D50000",
")  c #E21D00",
"_  c #C02900",
"`  c #E72300",
"'  c #F23A00",
"]  c #946C32",
"[  c #DB4900",
"{  c #F64100",
"}  c #FB4D00",
"|  c #FE5400",
" . c #FE5908",
".. c #FD702C",
"X. c #FF7D3C",
"o. c #B96A67",
"O. c #DB4444",
"+. c #B2843D",
"@. c #C18D42",
"#. c #D79E4A",
"$. c #FE915C",
"%. c #ECAE51",
"&. c #C6A37F",
"*. c #FDCF69",
"=. c #2C5680",
"-. c #2D5985",
";. c #2F5E8D",
":. c #305F8F",
">. c #326394",
",. c #336699",
"<. c #35699D",
"1. c #376CA2",
"2. c #3B75AE",
"3. c #417DB9",
"4. c #838383",
"5. c #8B8B8B",
"6. c #959595",
"7. c #9A9A9A",
"8. c #B1A294",
"9. c gray64",
"0. c #AFAFAF",
"q. c #BFB0A0",
"w. c #B3B3B3",
"e. c #BBBBBB",
"r. c #E18282",
"t. c #F48D88",
"y. c #FF938E",
"u. c #FF9995",
"i. c #E6A98D",
"p. c #FFA798",
"a. c #D0BFAE",
"s. c #FFCC99",
"d. c #FFD1A3",
"f. c #FFD7AE",
"g. c #E0CDBB",
"h. c #FFDCB8",
"j. c #C4C4C4",
"k. c #CCCCCC",
"l. c #D2D2D2",
"z. c #DADADA",
"x. c #FFDDCA",
"c. c #FFE7CE",
"v. c #F9E5D0",
"b. c #FFEAD5",
"n. c #FFE4DE",
"m. c #FFEBD8",
"M. c #E5E5E5",
"N. c #ECECEC",
"B. c #EBE3E3",
"V. c #FFEFE8",
"C. c #FFEBE1",
"Z. c #FEF1E4",
"A. c #FFF1EA",
"S. c #F3F3F3",
"D. c #FEFEFE",
"F. c #FFF8F4",
"G. c None",
/* pixels */
"G.G.G.G.G.G.G.G.G.G.G.G.G.G.G.G.G.G.G.G.G.G.G.G.G.G.G.G.G.G.G.G.G.G.G.G.G.G.G.G.G.G.G.G.G.G.G.G.G.G.G.G.G.G.G.G.G.G.G.G.G.G.G.G.G.G.G.G.G.G.",
"G.G.G.G.G.G.G.G.G.G.G.G.G.G.G.G.G.G.G.G.G.G.G.G.G.G.G.G.G.G.G.G.G.G.G.G.G.G.G.G.G.G.G.G.G.G.G.G.G.G.G.G.G.G.G.G.G.G.G.G.G.G.G.G.G.G.G.G.G.G.",
"G.G.G.G.G.G.G.G.G.G.G.G.G.G.G.G.G.G.G.G.G.G.G.G.G.G.G.G.G.G.G.G.G.G.G.G.G.G.G.G.G.G.G.G.G.G.G.G.G.G.G.G.G.G.G.G.G.G.G.G.G.G.G.G.G.G.G.G.G.G.",
"G.G.G.G.G.G.G.G.G.G.G.G.G.G.G.G.G.G.G.G.G.G.G.G.G.G.G.G.G.G.G.G.G.G.G.G.G.G.G.G.G.G.G.G.G.G.G.G.G.G.G.G.G.G.G.G.G.G.G.G.G.G.G.G.G.G.G.G.G.G.",
"G.G.G.G.G.G.G.G.G.G.G.G.G.G.G.G.G.G.G.G.G.G.G.G.G.G.G.G.        G.G.G.G.G.G.G.G.G.G.G.G.G.G.G.G.G.G.G.G.G.G.G.G.G.G.G.G.G.G.G.G.G.G.G.G.G.G.",
"G.G.G.G.G.G.G.G.G.G.G.G.G.G.G.G.G.G.G.G.G.G.G.G.G.G.G.  D ( ( ( .   G.G.G.G.G.G.G.G.G.G.G.G.G.G.G.G.G.G.G.G.G.G.G.G.G.G.G.G.G.G.G.G.G.G.G.G.",
"G.G.G.G.G.G.G.G.G.G.G.G.G.G.G.G.G.G.G.G.G.G.G.G.G.G.  L ..V.$.| { (   G.G.G.G.G.G.G.G.G.G.G.G.G.G.G.G.G.G.G.G.G.G.G.G.G.G.G.G.G.G.G.G.G.G.G.",
"G.G.G.G.G.G.G.G.G.G.G.G.G.G.G.G.G.G.G.G.G.G.G.G.G.G.  F.D.D.D.D.X.| (   G.G.G.G.G.G.G.G.G.G.G.G.G.G.G.G.G.G.G.G.G.G.G.G.G.G.G.G.G.G.G.G.G.G.",
"G.G.G.G.G.G.G.G.G.G.G.G.G.G.G.G.G.G.G.G.G.G.G.G.G.  N.S.S.F.D.D.D.V.| (   G.G.G.G.G.G.G.G.G.G.G.G.G.G.G.G.G.G.G.G.G.G.G.G.G.G.G.G.G.G.G.G.G.",
"G.G.G.G.G.G.G.G.G.G.G.G.G.G.G.G.G.G.G.G.G.G.G.G.G.X S.S.S.F.S.S.D.D.F.| ^   G.G.    G.G.G.G.G.G.G.G.G.G.G.G.G.G.G.G.G.G.G.G.G.G.G.G.G.G.G.G.",
"G.G.G.G.G.G.G.G.G.G.G.G.G.G.G.G.G.G.G.G.G.G.G.G.G.  S.S.S.S.S.S.S.S.D.A.| u   u ) i   G.G.G.G.G.G.G.G.G.G.G.G.G.G.G.G.G.G.G.G.G.G.G.G.G.G.G.",
"G.G.G.G.G.G.G.G.G.G.G.G.G.G.G.G.G.G.G.G.G.G.G.G.G.B S.S.S.S.S.S.S.S.S.D.C.{   < | | (   G.G.G.G.G.G.G.G.G.G.G.G.G.G.G.G.G.G.G.G.G.G.G.G.G.G.",
"G.G.G.G.G.G.G.G.G.G.G.G.G.G.G.G.G.G.G.G.G.G.G.G.  B.N.S.S.N.S.N.S.S.S.S.F.F.}   . ` (   G.G.G.G.G.G.G.G.G.G.G.G.G.G.G.G.G.G.G.G.G.G.G.G.G.G.",
"G.G.G.G.G.G.G.G.G.G.G.G.G.G.G.G.G.G.G.G.G.G.G.G.  N.N.N.N.N.N.S.N.S.N.S.S.S.D.| K   .   G.G.G.G.G.G.G.G.G.G.G.G.G.G.G.G.G.G.G.G.G.G.G.G.G.G.",
"G.G.G.G.G.G.G.G.G.G.G.G.G.G.G.G.G.G.G.G.G.G.G.G.  k.k.N.N.N.N.N.N.S.N.S.N.S.S.D. .} F     G.G.G.G.G.G.G.G.G.G.G.G.G.G.G.G.G.G.G.G.G.G.G.G.G.",
"G.G.G.G.G.G.G.G.G.G.G.G.G.G.G.G.G.G.G.G.G.G.G.G.      k.z.N.N.N.N.N.N.N.N.N.N.N.S.D.| ' J     G.G.G.G.G.G.G.G.G.G.G.G.G.G.G.G.G.G.G.G.G.G.G.",
"G.G.G.G.G.G.G.G.G.G.G.G.G.G.G.G.G.G.G.G.G.G.G.  U ~ Y     Z l.N.N.M.N.N.N.N.N.N.N.N.F.n.| ' D   G.G.G.G.G.G.G.G.G.G.G.G.G.G.G.G.G.G.G.G.G.G.",
"G.G.G.G.G.G.G.G.G.G.G.G.G.G.G.G.G.G.G.G.G.G.G.  . U R ! ~ >   = k.M.M.N.N.M.N.N.N.N.N.N. .| | ) +   G.G.G.G.G.G.G.G.G.G.G.G.G.G.G.G.G.G.G.G.",
"G.G.G.G.G.G.G.G.G.G.G.G.G.G.G.G.G.G.G.G.G.  . ( [     Y R R ~ Y     e.k.M.M.N.N.N.N.N.N.r.( | | | L   G.G.G.G.G.G.G.G.G.G.G.G.G.G.G.G.G.G.G.",
"G.G.G.G.G.G.G.G.G.G.G.G.G.G.G.G.G.G.G.G.  J ( | | | | .   , R R ~ W     e k.k.l.M.M.M.N.O.( ( ( ' } Y   G.G.G.G.G.G.G.G.G.G.G.G.G.G.G.G.G.G.",
"G.G.G.G.G.G.G.G.G.G.G.G.G.G.G.G.G.G.G.  ( ( | | | | | | | I     W R W ~ y     k.k.k.k.k.E P Q R R R R   G.G.G.G.G.G.G.G.G.G.G.G.G.G.G.G.G.G.",
"G.G.G.G.G.G.G.G.G.G.G.G.G.G.G.G.G.G.  ^ ( | | | | | | | | | | |     y W R ~ W     5.k.k.R R R R R R R   G.G.G.G.G.G.G.G.G.G.G.G.G.G.G.G.G.G.",
"G.G.G.G.G.G.G.G.G.G.G.G.G.G.G.G.G.G.  ( ( | | | | | | | | | | | | | :     R R ~ ~ @     R R R R R R R   G.G.G.G.G.G.G.G.G.G.G.G.G.G.G.G.G.G.",
"G.G.G.G.G.G.G.G.G.G.G.G.G.G.G.G.G.  S ( ( ( | | | | | | | { ( ( ( ( ( ( /     Y U U ~ U     T R R R   G.G.G.G.G.G.G.G.G.G.G.G.G.G.G.G.G.G.G.",
"G.G.G.G.G.G.G.G.G.G.G.G.G.G.G.G.G.G.+ ( ( ( ( ( ( ( ( ( ( ( ( ( ( ( ( ( ( ( ( .   > U U ! W   H     G.G.G.G.G.G.G.G.G.G.G.G.G.G.G.G.G.G.G.G.",
"G.G.G.G.G.G.G.G.G.G.G.G.G.G.G.G.G.G.  T ( ( ( ( ( ( ( ( ( ( ( ( ( ( ( ( ( R R     ]     G G p   G.G.G.G.G.G.G.G.G.G.G.G.G.G.G.G.G.G.G.G.G.G.",
"G.G.G.G.G.G.G.G.G.G.G.G.G.G.G.G.G.G.G.    R E ^ ( ( ( ( ( ( ( ( / E R R >     %.*.%.%.%..     G.G.G.G.G.G.G.G.G.G.G.G.G.G.G.G.G.G.G.G.G.G.G.",
"G.G.G.G.G.G.G.G.G.G.G.G.G.G.G.G.G.G.G.G.G.      t H R R R T p t .     . @.%.  %.%.%.%.%.%.  G.G.G.G.G.G.G.G.G.G.G.G.G.G.G.G.G.G.G.G.G.G.G.G.",
"G.G.G.G.G.G.G.G.G.G.G.G.G.G.G.G.G.G.G.G.G.G.G.  z.      $ X 0 d %.  8.  +.%.  %.%.%.%.%.%.  G.G.G.G.G.G.G.G.G.G.G.G.G.G.G.G.G.G.G.G.G.G.G.G.",
"G.G.G.G.G.G.G.G.G.G.G.G.G.G.G.G.G.G.G.G.G.G.G.  D.D.  .     b.b.    v.D.l.      %.#.  7     G.G.G.G.G.G.G.G.G.G.G.G.G.G.G.G.G.G.G.G.G.G.G.G.",
"G.G.G.G.G.G.G.G.G.G.G.G.G.G.G.G.G.G.G.G.G.G.G.  j.k.  b.b.b.b.b.b.b.  - -   b.b.$   b.b.m.X G.G.G.G.G.G.G.G.G.G.G.G.G.G.G.G.G.G.G.G.G.G.G.G.",
"G.G.G.G.G.G.G.G.G.G.G.G.G.G.G.G.G.G.G.G.G.G.  O N - X b.b.b.b.b.b.b.= - -   v.b.b.  s.s.c.Z.  G.G.G.G.G.G.G.G.G.G.G.G.G.G.G.G.G.G.G.G.G.G.G.",
"G.G.G.G.G.G.G.G.G.G.G.G.G.G.G.G.G.G.G.G.G.G.  - 0.- X b.x.D.y.y.b.b.X ; -   g.b.b.s.s.s.d.b.  G.G.G.G.G.G.G.G.G.G.G.G.G.G.G.G.G.G.G.G.G.G.G.",
"G.G.G.G.G.G.G.G.G.G.G.G.G.G.G.G.G.G.G.G.G.G.    C.-   . y.y.y.y.y.b.r - O   b.b.b.s.s.s.c.b.  G.G.G.G.G.G.G.G.G.G.G.G.G.G.G.G.G.G.G.G.G.G.G.",
"G.G.G.G.G.G.G.G.G.G.G.G.G.G.G.G.G.G.G.G.G.G.G.  Z.    o.y.y.y.y.y.w b.X   a.x.b.s.s.s.d.b.  G.G.G.G.G.G.G.G.G.G.G.G.G.G.G.G.G.G.G.G.G.G.G.G.",
"G.G.G.G.G.G.G.G.G.G.G.G.G.G.G.G.G.G.G.G.G.G.G.  y.n.b.1 s t.y.o.  b.b.b.p.y.u.y.s.s.; 9   G.G.G.G.G.G.G.G.G.G.G.G.G.G.G.G.G.G.G.G.G.G.G.G.G.",
"G.G.G.G.G.G.G.G.G.G.G.G.G.G.G.G.G.G.G.G.G.G.G.G.G.  . s.s.s.s.d.h.f.s.s.s.p.i.#     G.G.G.G.G.G.G.G.G.G.G.G.G.G.G.G.G.G.G.G.G.G.G.G.G.G.G.G.",
"G.G.G.G.G.G.G.G.G.G.G.G.G.G.G.G.G.G.G.G.G.G.G.G.G.G.G.      O # 1 X         X   G.G.G.G.G.G.G.G.G.G.G.G.G.G.G.G.G.G.G.G.G.G.G.G.G.G.G.G.G.G.",
"G.G.G.G.G.G.G.G.G.G.G.G.G.G.G.G.G.G.G.G.G.G.G.G.G.G.G.G.  4.,.- D.D.  ,.<.v   M.z.  G.G.G.G.G.G.G.G.G.G.G.G.G.G.G.G.G.G.G.G.G.G.G.G.G.G.G.G.",
"G.G.G.G.G.G.G.G.G.G.G.G.G.G.G.G.G.G.G.G.G.G.G.G.G.G.G.G.    ,.  m 4.,.,.,.  D.D.D.M.  G.G.G.G.G.G.G.G.G.G.G.G.G.G.G.G.G.G.G.G.G.G.G.G.G.G.G.",
"G.G.G.G.G.G.G.G.G.G.G.G.G.G.G.G.G.G.G.G.G.G.G.G.G.G.G.G.=   ,.,.<.,.,.,.f   D.D.D.M.  G.G.G.G.G.G.G.G.G.G.G.G.G.G.G.G.G.G.G.G.G.G.G.G.G.G.G.",
"G.G.G.G.G.G.G.G.G.G.G.G.G.G.G.G.G.G.G.G.G.G.G.G.G.G.G.G.  % z 4 o       g   D.D.D.M.  G.G.G.G.G.G.G.G.G.G.G.G.G.G.G.G.G.G.G.G.G.G.G.G.G.G.G.",
"G.G.G.G.G.G.G.G.G.G.G.G.G.G.G.G.G.G.G.G.G.G.G.G.G.G.G.G.  k & 6 v >.1.6 ,.X D.D.D.M.  G.G.G.G.G.G.G.G.G.G.G.G.G.G.G.G.G.G.G.G.G.G.G.G.G.G.G.",
"G.G.G.G.G.G.G.G.G.G.G.G.G.G.G.G.G.G.G.G.G.G.G.G.G.G.G.G.  :.2.2.2.l   3     8.w .   G.G.G.G.G.G.G.G.G.G.G.G.G.G.G.G.G.G.G.G.G.G.G.G.G.G.G.G.",
"G.G.G.G.G.G.G.G.G.G.G.G.G.G.G.G.G.G.G.G.G.G.G.G.G.G.G.G.o 2.2.2.:.0 C.b.b.q.b.b.s.  G.G.G.G.G.G.G.G.G.G.G.G.G.G.G.G.G.G.G.G.G.G.G.G.G.G.G.G.",
"G.G.G.G.G.G.G.G.G.G.G.G.G.G.G.G.G.G.G.G.G.G.G.G.G.G.G.G.g 3.2.2.  b.D.b.b.b.b.b.8.  G.G.G.G.G.G.G.G.G.G.G.G.G.G.G.G.G.G.G.G.G.G.G.G.G.G.G.G.",
"G.G.G.G.G.G.G.G.G.G.G.G.G.G.G.G.G.G.G.G.G.G.G.G.G.G.G.G.k   ,.<.% s.b.b.b.b.b.s.. G.G.G.G.G.G.G.G.G.G.G.G.G.G.G.G.G.G.G.G.G.G.G.G.G.G.G.G.G.",
"G.G.G.G.G.G.G.G.G.G.G.G.G.G.G.G.G.G.G.G.G.G.G.G.G.G.G.G.  -.,.>.-.  s.s.s.s.s.V . G.G.G.G.G.G.G.G.G.G.G.G.G.G.G.G.G.G.G.G.G.G.G.G.G.G.G.G.G.",
"G.G.G.G.G.G.G.G.G.G.G.G.G.G.G.G.G.G.G.G.G.G.G.G.G.G.G.    b =.n =.=.    O 1   %   G.G.G.G.G.G.G.G.G.G.G.G.G.G.G.G.G.G.G.G.G.G.G.G.G.G.G.G.G.",
"G.G.G.G.G.G.G.G.G.G.G.G.G.G.G.G.G.G.G.G.G.G.G.G.G.G.  c c     g =.=.=.=.<.2.,.>.=.  G.G.G.G.G.G.G.G.G.G.G.G.G.G.G.G.G.G.G.G.G.G.G.G.G.G.G.G.",
"G.G.G.G.G.G.G.G.G.G.G.G.G.G.G.G.G.G.G.G.G.G.G.G.G.G.* x c c c 5         <.2.,.,.=.X G.G.G.G.G.G.G.G.G.G.G.G.G.G.G.G.G.G.G.G.G.G.G.G.G.G.G.G.",
"G.G.G.G.G.G.G.G.G.G.G.G.G.G.G.G.G.G.G.G.G.      G.      j c j j G.G.G.G.z ,.,.;.n     G.G.G.G.G.G.G.G.G.G.G.G.G.G.G.G.G.G.G.G.G.G.G.G.G.G.G.",
"G.G.G.G.G.G.G.G.G.G.G.G.G.G.G.G.G.G.G.G.  N e.0.-     9.  j h   G.G.G.G.  =.k   M       G.G.G.G.G.G.G.G.G.G.G.G.G.G.G.G.G.G.G.G.G.G.G.G.G.G.",
"G.G.G.G.G.G.G.G.G.G.G.G.G.G.G.G.G.G.G.  0.e.j.j.0.9.  .     X G.G.G.G.G.    A X   } ( M.  G.G.G.G.G.G.G.G.G.G.G.G.G.G.G.G.G.G.G.G.G.G.G.G.G.",
"G.G.G.G.G.G.G.G.G.G.G.G.G.G.G.G.G.G.  - 0.0.0.0.0.0.X F _   G.G.G.G.G.G.G.G.        ^ ( P     G.G.G.G.G.G.G.G.G.G.G.G.G.G.G.G.G.G.G.G.G.G.G.",
"G.G.G.G.G.G.G.G.G.G.G.G.G.G.G.G.G.G.8 w.    7 0.0.0.6.. J 2 G.G.G.G.G.G.G.  M.M.M.k.      m   G.G.G.G.G.G.G.G.G.G.G.G.G.G.G.G.G.G.G.G.G.G.G.",
"G.G.G.G.G.G.G.G.G.G.G.G.G.G.G.G.G.    6.j.0.0.    7 6.  J q G.G.G.G.G.G.  D.N.M.M.l.M   F.l.    G.G.G.G.G.G.G.G.G.G.G.G.G.G.G.G.G.G.G.G.G.G.",
"G.G.G.G.G.G.G.G.G.G.G.G.G.G.G.G.G.G.G.      6.0.w.5.    :   G.G.G.G.G.  6.D.M.M.M.  = M.w.  G.G.G.G.G.G.G.G.G.G.G.G.G.G.G.G.G.G.G.G.G.G.G.G.",
"G.G.G.G.G.G.G.G.G.G.G.G.G.G.G.G.G.G.G.G.G.G.      7.0.w.C   G.G.G.G.G.  M.M.M.k.  D.M.    G.G.G.G.G.G.G.G.G.G.G.G.G.G.G.G.G.G.G.G.G.G.G.G.G.",
"G.G.G.G.G.G.G.G.G.G.G.G.G.G.G.G.G.G.G.G.G.G.G.G.G.      4.  G.G.G.G.G.  M.M.. X M.z.  G.G.G.G.G.G.G.G.G.G.G.G.G.G.G.G.G.G.G.G.G.G.G.G.G.G.G.",
"G.G.G.G.G.G.G.G.G.G.G.G.G.G.G.G.G.G.G.G.G.G.G.G.G.G.G.G.    G.G.G.G.G.  Z   e.M.7   G.G.G.G.G.G.G.G.G.G.G.G.G.G.G.G.G.G.G.G.G.G.G.G.G.G.G.G.",
"G.G.G.G.G.G.G.G.G.G.G.G.G.G.G.G.G.G.G.G.G.G.G.G.G.G.G.G.G.G.G.G.G.G.G.G.  M.D.    G.G.G.G.G.G.G.G.G.G.G.G.G.G.G.G.G.G.G.G.G.G.G.G.G.G.G.G.G.",
"G.G.G.G.G.G.G.G.G.G.G.G.G.G.G.G.G.G.G.G.G.G.G.G.G.G.G.G.G.G.G.G.G.G.G.G.  e   G.G.G.G.G.G.G.G.G.G.G.G.G.G.G.G.G.G.G.G.G.G.G.G.G.G.G.G.G.G.G.",
"G.G.G.G.G.G.G.G.G.G.G.G.G.G.G.G.G.G.G.G.G.G.G.G.G.G.G.G.G.G.G.G.G.G.G.G.G.  G.G.G.G.G.G.G.G.G.G.G.G.G.G.G.G.G.G.G.G.G.G.G.G.G.G.G.G.G.G.G.G.",
"G.G.G.G.G.G.G.G.G.G.G.G.G.G.G.G.G.G.G.G.G.G.G.G.G.G.G.G.G.G.G.G.G.G.G.G.G.G.G.G.G.G.G.G.G.G.G.G.G.G.G.G.G.G.G.G.G.G.G.G.G.G.G.G.G.G.G.G.G.G.",
"G.G.G.G.G.G.G.G.G.G.G.G.G.G.G.G.G.G.G.G.G.G.G.G.G.G.G.G.G.G.G.G.G.G.G.G.G.G.G.G.G.G.G.G.G.G.G.G.G.G.G.G.G.G.G.G.G.G.G.G.G.G.G.G.G.G.G.G.G.G.",
"G.G.G.G.G.G.G.G.G.G.G.G.G.G.G.G.G.G.G.G.G.G.G.G.G.G.G.G.G.G.G.G.G.G.G.G.G.G.G.G.G.G.G.G.G.G.G.G.G.G.G.G.G.G.G.G.G.G.G.G.G.G.G.G.G.G.G.G.G.G.",
"G.G.G.G.G.G.G.G.G.G.G.G.G.G.G.G.G.G.G.G.G.G.G.G.G.G.G.G.G.G.G.G.G.G.G.G.G.G.G.G.G.G.G.G.G.G.G.G.G.G.G.G.G.G.G.G.G.G.G.G.G.G.G.G.G.G.G.G.G.G.",
"G.G.G.G.G.G.G.G.G.G.G.G.G.G.G.G.G.G.G.G.G.G.G.G.G.G.G.G.G.G.G.G.G.G.G.G.G.G.G.G.G.G.G.G.G.G.G.G.G.G.G.G.G.G.G.G.G.G.G.G.G.G.G.G.G.G.G.G.G.G.",
"G.G.G.G.G.G.G.G.G.G.G.G.G.G.G.G.G.G.G.G.G.G.G.G.G.G.G.G.G.G.G.G.G.G.G.G.G.G.G.G.G.G.G.G.G.G.G.G.G.G.G.G.G.G.G.G.G.G.G.G.G.G.G.G.G.G.G.G.G.G."
};
