/* XPM */
static char *result[] = {
/* columns rows colors chars-per-pixel */
"70 70 167 2 ",
"   c #000000",
".  c #0B0202",
"X  c #0D0A05",
"o  c #05090D",
"O  c #0B0B0A",
"+  c #140303",
"@  c #120F0C",
"#  c #180702",
"$  c #15120E",
"%  c #1C1509",
"&  c #040C14",
"*  c #030F1B",
"=  c #0A131C",
"-  c #151514",
";  c #1E1313",
":  c #1A1A1A",
">  c #1F1915",
",  c #2A0807",
"<  c #380609",
"1  c #20180C",
"2  c #221F1C",
"3  c #24211E",
"4  c #0D1925",
"5  c #08213B",
"6  c #132638",
"7  c #252524",
"8  c #2B2A2A",
"9  c #292622",
"0  c #322D29",
"q  c #36312C",
"w  c #3D3328",
"e  c #3F3F3F",
"r  c gray20",
"t  c #440507",
"y  c #5E0000",
"u  c #470D11",
"i  c #5B1116",
"p  c #611500",
"a  c #640F14",
"s  c #7B141C",
"d  c #642100",
"f  c #463F3A",
"g  c #0A2C4F",
"h  c #162C42",
"j  c #1A344E",
"k  c #0C3054",
"l  c #1F3D5B",
"z  c #1B3651",
"x  c #113E6B",
"c  c #154575",
"v  c #24476A",
"b  c #274D72",
"n  c #2A537D",
"m  c #4C4C4C",
"M  c gray37",
"N  c #635B53",
"B  c #656565",
"V  c #777777",
"C  c #810000",
"Z  c #821017",
"A  c #92171F",
"S  c #A80000",
"D  c #BE0000",
"F  c #B40000",
"G  c #AB151C",
"H  c #B31118",
"J  c #972200",
"K  c #831920",
"L  c #8A1922",
"P  c #921B23",
"I  c #9C1D27",
"U  c #901720",
"Y  c #A11C26",
"T  c #AC2029",
"R  c #B3222B",
"E  c #CC0303",
"W  c #C50507",
"Q  c #D50000",
"!  c #D80600",
"~  c #DE1200",
"^  c #E11900",
"/  c #E62100",
"(  c #EF3400",
")  c #F33D00",
"_  c #E24B00",
"`  c #F64300",
"'  c #F94900",
"]  c #FE5400",
"[  c #FE5806",
"{  c #A25757",
"}  c #8A725A",
"|  c #81766C",
" . c #83786D",
".. c #AD823D",
"X. c #9D8062",
"o. c #8E8276",
"O. c #8F8378",
"+. c #BC9670",
"@. c #C89344",
"#. c #D19B49",
"$. c #DEA44C",
"%. c #E3A74E",
"&. c #EDAE51",
"*. c #C5986B",
"=. c #FF9D6D",
"-. c #FFD26B",
";. c #2C5680",
":. c #2F5B87",
">. c #305F8F",
",. c #336699",
"<. c #326496",
"1. c #376DA3",
"2. c #386FA6",
"3. c #3870A7",
"4. c #3B75AF",
"5. c #3E79B4",
"6. c #8A8887",
"7. c #9D8F81",
"8. c #9C9C9C",
"9. c #959595",
"0. c #A29488",
"q. c #A9A6A4",
"w. c #ADADAD",
"e. c #A0A0A0",
"r. c #B2B2B2",
"t. c #BDBDBD",
"y. c #F68E89",
"u. c #FF938E",
"i. c #FF9A95",
"p. c #CAA989",
"a. c #D2AB84",
"s. c #C5AD96",
"d. c #EBBD8F",
"f. c #FDBB9A",
"g. c #CCAEA6",
"h. c #C5B2A0",
"j. c #CABAA9",
"k. c #C5BEB8",
"l. c #FFBFBC",
"z. c #FFCC99",
"x. c #FFD09F",
"c. c #DAC9B7",
"v. c #E7C5A4",
"b. c #FFD3A5",
"n. c #FFDDBB",
"m. c #FFD9B5",
"M. c #C5C5C5",
"N. c #CCCCCC",
"B. c #D4D4D4",
"V. c #DBDBDB",
"C. c #EBD8C4",
"Z. c #FFD9C7",
"A. c #E5D8D8",
"S. c #FFE1C2",
"D. c #FFE5CB",
"F. c #F4E0CC",
"G. c #FCE6D2",
"H. c #FFEAD5",
"J. c #FFEBDC",
"K. c #E6E6E6",
"L. c #ECECEC",
"P. c #E8E5E2",
"I. c #FFF1E2",
"U. c #F3F3F3",
"Y. c #FEFEFE",
"T. c #FFFBF6",
"R. c None",
/* pixels */
"R.R.R.R.R.R.R.R.R.R.R.R.R.R.R.R.R.R.R.R.R.R.R.R.R.R.R.R.R.R.R.R.R.R.R.R.R.R.R.R.R.R.R.R.R.R.R.R.R.R.R.R.R.R.R.R.R.R.R.R.R.R.R.R.R.R.R.R.R.R.",
"R.R.R.R.R.R.R.R.R.R.R.R.R.R.R.R.R.R.R.R.R.R.R.R.R.R.R.R.R.R.R.R.R.R.R.R.R.R.R.R.R.R.R.R.R.R.R.R.R.R.R.R.R.R.R.R.R.R.R.R.R.R.R.R.R.R.R.R.R.R.",
"R.R.R.R.R.R.R.R.R.R.R.R.R.R.R.R.R.R.R.R.R.R.R.R.R.R.R.R.R.R.R.R.R.R.R.R.R.R.R.R.R.R.R.R.R.R.R.R.R.R.R.R.R.R.R.R.R.R.R.R.R.R.R.R.R.R.R.R.R.R.",
"R.R.R.R.R.R.R.R.R.R.R.R.R.R.R.R.R.R.R.R.R.R.R.R.R.R.R.R.R.R.R.R.R.R.R.R.R.R.R.R.R.R.R.R.R.R.R.R.R.R.R.R.R.R.R.R.R.R.R.R.R.R.R.R.R.R.R.R.R.R.",
"R.R.R.R.R.R.R.R.R.R.R.R.R.R.R.R.R.R.R.R.R.R.R.R.R.R.R.R.R.R.R.R.R.R.R.R.R.R.R.R.R.R.R.R.R.R.R.R.R.R.R.R.R.R.R.R.R.R.R.R.R.R.R.R.R.R.R.R.R.R.",
"R.R.R.R.R.R.R.R.R.R.R.R.R.R.R.R.R.R.R.R.R.R.R.R.R.R.R.R.        R.R.R.R.R.R.R.R.R.R.R.R.R.R.R.R.R.R.R.R.R.R.R.R.R.R.R.R.R.R.R.R.R.R.R.R.R.R.",
"R.R.R.R.R.R.R.R.R.R.R.R.R.R.R.R.R.R.R.R.R.R.R.R.R.R.R.  Q Q Q F     R.R.R.R.R.R.R.R.R.R.R.R.R.R.R.R.R.R.R.R.R.R.R.R.R.R.R.R.R.R.R.R.R.R.R.R.",
"R.R.R.R.R.R.R.R.R.R.R.R.R.R.R.R.R.R.R.R.R.R.R.R.R.R.  Q =.J.[ ] ! y   R.R.R.R.R.R.R.R.R.R.R.R.R.R.R.R.R.R.R.R.R.R.R.R.R.R.R.R.R.R.R.R.R.R.R.",
"R.R.R.R.R.R.R.R.R.R.R.R.R.R.R.R.R.R.R.R.R.R.R.R.R.  { Y.Y.Y.Y.Y.] ` S   R.R.R.R.R.R.R.R.R.R.R.R.R.R.R.R.R.R.R.R.R.R.R.R.R.R.R.R.R.R.R.R.R.R.",
"R.R.R.R.R.R.R.R.R.R.R.R.R.R.R.R.R.R.R.R.R.R.R.R.R.  U.U.U.Y.Y.Y.Y.[ ` y   R.R.R.R.R.R.R.R.R.R.R.R.R.R.R.R.R.R.R.R.R.R.R.R.R.R.R.R.R.R.R.R.R.",
"R.R.R.R.R.R.R.R.R.R.R.R.R.R.R.R.R.R.R.R.R.R.R.R.R.> U.U.U.T.U.Y.Y.Y.] ^   R.R.R.R.R.R.R.R.R.R.R.R.R.R.R.R.R.R.R.R.R.R.R.R.R.R.R.R.R.R.R.R.R.",
"R.R.R.R.R.R.R.R.R.R.R.R.R.R.R.R.R.R.R.R.R.R.R.R.  A.U.U.U.U.U.U.U.U.Y.] Q     . #     R.R.R.R.R.R.R.R.R.R.R.R.R.R.R.R.R.R.R.R.R.R.R.R.R.R.R.",
"R.R.R.R.R.R.R.R.R.R.R.R.R.R.R.R.R.R.R.R.R.R.R.R.  U.U.U.U.U.U.U.U.U.U.Y.] Q   ] ] ]   R.R.R.R.R.R.R.R.R.R.R.R.R.R.R.R.R.R.R.R.R.R.R.R.R.R.R.",
"R.R.R.R.R.R.R.R.R.R.R.R.R.R.R.R.R.R.R.R.R.R.R.R.  U.L.L.L.U.L.U.U.U.U.U.Y.] W   ] ) Q   R.R.R.R.R.R.R.R.R.R.R.R.R.R.R.R.R.R.R.R.R.R.R.R.R.R.",
"R.R.R.R.R.R.R.R.R.R.R.R.R.R.R.R.R.R.R.R.R.R.R.R.  L.L.L.U.L.L.U.U.U.U.U.U.Y.[ Q     H   R.R.R.R.R.R.R.R.R.R.R.R.R.R.R.R.R.R.R.R.R.R.R.R.R.R.",
"R.R.R.R.R.R.R.R.R.R.R.R.R.R.R.R.R.R.R.R.R.R.R.R.  N.K.L.L.L.L.L.L.L.L.U.L.U.T.f.] D     R.R.R.R.R.R.R.R.R.R.R.R.R.R.R.R.R.R.R.R.R.R.R.R.R.R.",
"R.R.R.R.R.R.R.R.R.R.R.R.R.R.R.R.R.R.R.R.R.R.R.      r N.L.L.L.L.L.L.L.L.L.L.U.L.Y.] ' S     R.R.R.R.R.R.R.R.R.R.R.R.R.R.R.R.R.R.R.R.R.R.R.R.",
"R.R.R.R.R.R.R.R.R.R.R.R.R.R.R.R.R.R.R.R.R.R.R.  P R i     N.K.L.L.L.L.L.L.L.L.L.L.U.Y.] ( C   R.R.R.R.R.R.R.R.R.R.R.R.R.R.R.R.R.R.R.R.R.R.R.",
"R.R.R.R.R.R.R.R.R.R.R.R.R.R.R.R.R.R.R.R.R.R.    u Z I R I     t.B.K.L.L.L.L.L.L.L.L.L.Y.] ] ~ .   R.R.R.R.R.R.R.R.R.R.R.R.R.R.R.R.R.R.R.R.R.",
"R.R.R.R.R.R.R.R.R.R.R.R.R.R.R.R.R.R.R.R.    Q ) d   . I I R T     M N.V.K.L.K.L.L.L.L.L.Q ] ] ] E   R.R.R.R.R.R.R.R.R.R.R.R.R.R.R.R.R.R.R.R.",
"R.R.R.R.R.R.R.R.R.R.R.R.R.R.R.R.R.R.R.  . Q ] ] ] ] _     I I T R ,   O N.N.V.L.L.K.L.L.Q Q Q [ ] Q   R.R.R.R.R.R.R.R.R.R.R.R.R.R.R.R.R.R.R.",
"R.R.R.R.R.R.R.R.R.R.R.R.R.R.R.R.R.R.  t Q ] ] ] ] ] ] ] ]     s I I R P     N.N.N.N.V.K.Q Q Q Q I I < R.R.R.R.R.R.R.R.R.R.R.R.R.R.R.R.R.R.R.",
"R.R.R.R.R.R.R.R.R.R.R.R.R.R.R.R.R.  + Q ' ] ] ] ] ] ] ] ] ] ] #   + I I R Y     q.N.N.I I I I I I I I   R.R.R.R.R.R.R.R.R.R.R.R.R.R.R.R.R.R.",
"R.R.R.R.R.R.R.R.R.R.R.R.R.R.R.R.R.  Q Q ] ] ] ] ] ] ] ] ] ] ] ] [ J     I I T R +   8 I I I I I I I s   R.R.R.R.R.R.R.R.R.R.R.R.R.R.R.R.R.R.",
"R.R.R.R.R.R.R.R.R.R.R.R.R.R.R.R.R.  Q Q Q ! ] ] ] ] ] ] ] ^ Q Q Q Q Q Q     L K P R i     I I I I I   R.R.R.R.R.R.R.R.R.R.R.R.R.R.R.R.R.R.R.",
"R.R.R.R.R.R.R.R.R.R.R.R.R.R.R.R.R.  W Q Q Q Q Q Q Q Q Q Q Q Q Q Q Q Q Q Q Q .   u K K R L   , I a   R.R.R.R.R.R.R.R.R.R.R.R.R.R.R.R.R.R.R.R.",
"R.R.R.R.R.R.R.R.R.R.R.R.R.R.R.R.R.R.  Y Q Q Q Q Q Q Q Q Q Q Q Q Q Q Q Q E I U   %   . K K T       R.R.R.R.R.R.R.R.R.R.R.R.R.R.R.R.R.R.R.R.R.",
"R.R.R.R.R.R.R.R.R.R.R.R.R.R.R.R.R.R.R.  u I G Q Q Q Q Q Q Q Q Q W Y I I .   X -.&.&.@.    .   R.R.R.R.R.R.R.R.R.R.R.R.R.R.R.R.R.R.R.R.R.R.R.",
"R.R.R.R.R.R.R.R.R.R.R.R.R.R.R.R.R.R.R.R.R.      , U I I I P Z ,       . %.  &.&.&.&.&.&.%.  R.R.R.R.R.R.R.R.R.R.R.R.R.R.R.R.R.R.R.R.R.R.R.R.",
"R.R.R.R.R.R.R.R.R.R.R.R.R.R.R.R.R.R.R.R.R.R.R.6.f   X X   9   $.#.C.  $.&.  ..&.&.&.&.&.1 R.R.R.R.R.R.R.R.R.R.R.R.R.R.R.R.R.R.R.R.R.R.R.R.R.",
"R.R.R.R.R.R.R.R.R.R.R.R.R.R.R.R.R.R.R.R.R.R.R.- B e o.    H.H.O   0 B V.      &.&.        R.R.R.R.R.R.R.R.R.R.R.R.R.R.R.R.R.R.R.R.R.R.R.R.R.",
"R.R.R.R.R.R.R.R.R.R.R.R.R.R.R.R.R.R.R.R.R.R.  . : - c.H.H.H.H.H.H.3 : M.  O.H.  $.N H.I.. R.R.R.R.R.R.R.R.R.R.R.R.R.R.R.R.R.R.R.R.R.R.R.R.R.",
"R.R.R.R.R.R.R.R.R.R.R.R.R.R.R.R.R.R.R.R.R.R.  o : : V H.H.H.H.H.H.  : : o @ H.H.  z.z.S.H.  R.R.R.R.R.R.R.R.R.R.R.R.R.R.R.R.R.R.R.R.R.R.R.R.",
"R.R.R.R.R.R.R.R.R.R.R.R.R.R.R.R.R.R.R.R.R.R.q.9 : >  .H.Y.u.u.H.H.  : :   . H.H.D.z.z.z.H.  R.R.R.R.R.R.R.R.R.R.R.R.R.R.R.R.R.R.R.R.R.R.R.R.",
"R.R.R.R.R.R.R.R.R.R.R.R.R.R.R.R.R.R.R.R.R.R.  P.-   3 u.u.u.u.u.7.c.: :   j.H.H.z.z.z.z.H.  R.R.R.R.R.R.R.R.R.R.R.R.R.R.R.R.R.R.R.R.R.R.R.R.",
"R.R.R.R.R.R.R.R.R.R.R.R.R.R.R.R.R.R.R.R.R.R.  q.2   . u.u.u.u.u.  H.O     H.H.n.z.z.z.H.C.  R.R.R.R.R.R.R.R.R.R.R.R.R.R.R.R.R.R.R.R.R.R.R.R.",
"R.R.R.R.R.R.R.R.R.R.R.R.R.R.R.R.R.R.R.R.R.R.R.u.i.Z.+.; y.u.y.O Z.H.H.H.u.i.m.z.z.c.G.q   R.R.R.R.R.R.R.R.R.R.R.R.R.R.R.R.R.R.R.R.R.R.R.R.R.",
"R.R.R.R.R.R.R.R.R.R.R.R.R.R.R.R.R.R.R.R.R.R.R.R.    p.z.z.z.z.G.G.m.x.z.u.u.d..     R.R.R.R.R.R.R.R.R.R.R.R.R.R.R.R.R.R.R.R.R.R.R.R.R.R.R.R.",
"R.R.R.R.R.R.R.R.R.R.R.R.R.R.R.R.R.R.R.R.R.R.R.R.R.R.      . $ w - O             R.R.R.R.R.R.R.R.R.R.R.R.R.R.R.R.R.R.R.R.R.R.R.R.R.R.R.R.R.R.",
"R.R.R.R.R.R.R.R.R.R.R.R.R.R.R.R.R.R.R.R.R.R.R.R.R.R.R.R.    o Y.Y.t.,.,.,.o - K.K.  R.R.R.R.R.R.R.R.R.R.R.R.R.R.R.R.R.R.R.R.R.R.R.R.R.R.R.R.",
"R.R.R.R.R.R.R.R.R.R.R.R.R.R.R.R.R.R.R.R.R.R.R.R.R.R.R.  M.h   Y.Y.  ,.,.    Y.Y.L.K.  R.R.R.R.R.R.R.R.R.R.R.R.R.R.R.R.R.R.R.R.R.R.R.R.R.R.R.",
"R.R.R.R.R.R.R.R.R.R.R.R.R.R.R.R.R.R.R.R.R.R.R.R.R.R.R.  e.,.,.,.<.,.,.,.:   Y.Y.Y.K.. R.R.R.R.R.R.R.R.R.R.R.R.R.R.R.R.R.R.R.R.R.R.R.R.R.R.R.",
"R.R.R.R.R.R.R.R.R.R.R.R.R.R.R.R.R.R.R.R.R.R.R.R.R.R.R.                      Y.Y.Y.U.r.  R.R.R.R.R.R.R.R.R.R.R.R.R.R.R.R.R.R.R.R.R.R.R.R.R.R.",
"R.R.R.R.R.R.R.R.R.R.R.R.R.R.R.R.R.R.R.R.R.R.R.R.R.R.R.    4.4.4.4.4.3.  <.8 O Y.T.  X.  R.R.R.R.R.R.R.R.R.R.R.R.R.R.R.R.R.R.R.R.R.R.R.R.R.R.",
"R.R.R.R.R.R.R.R.R.R.R.R.R.R.R.R.R.R.R.R.R.R.R.R.R.R.R.    4.4.4.4.4.2.  ,.,.    V G.z.  R.R.R.R.R.R.R.R.R.R.R.R.R.R.R.R.R.R.R.R.R.R.R.R.R.R.",
"R.R.R.R.R.R.R.R.R.R.R.R.R.R.R.R.R.R.R.R.R.R.R.R.R.      z 4.4.4.4.4.2.  ,.,.>.  H.G.S.> R.R.R.R.R.R.R.R.R.R.R.R.R.R.R.R.R.R.R.R.R.R.R.R.R.R.",
"R.R.R.R.R.R.R.R.R.R.R.R.R.R.R.R.R.R.R.R.R.R.R.R.  k.h.f l 5.4.4.4.4.1.  ,.  O.G.H.H.n.a.R.R.R.R.R.R.R.R.R.R.R.R.R.R.R.R.R.R.R.R.R.R.R.R.R.R.",
"R.R.R.R.R.R.R.R.R.R.R.R.R.R.R.R.R.R.R.R.R.R.R.  h.s.p.q n 2.4.4.4.4.,.6 & 0.H.H.H.H.z.} R.R.R.R.R.R.R.R.R.R.R.R.R.R.R.R.R.R.R.R.R.R.R.R.R.R.",
"R.R.R.R.R.R.R.R.R.R.R.R.R.R.R.R.R.R.R.R.R.R.R.  s.*.*.7.4 n         z ,.  H.T.H.H.x.z.  R.R.R.R.R.R.R.R.R.R.R.R.R.R.R.R.R.R.R.R.R.R.R.R.R.R.",
"R.R.R.R.R.R.R.R.R.R.R.R.R.R.R.R.R.R.R.R.R.R.R.R.@ *.*.*.  n n ;.:.;.n b = v.D.b.z.z.  R.R.R.R.R.R.R.R.R.R.R.R.R.R.R.R.R.R.R.R.R.R.R.R.R.R.R.",
"R.R.R.R.R.R.R.R.R.R.R.R.R.R.R.R.R.R.R.R.R.R.R.R.R.          4 n ;.;.l ,.4.    @     R.R.R.R.R.R.R.R.R.R.R.R.R.R.R.R.R.R.R.R.R.R.R.R.R.R.R.R.",
"R.R.R.R.R.R.R.R.R.R.R.R.R.R.R.R.R.R.R.R.R.R.R.R.R.R.R.R.5 c k       4 ,.,.,.:.v R.R.R.R.R.R.R.R.R.R.R.R.R.R.R.R.R.R.R.R.R.R.R.R.R.R.R.R.R.R.",
"R.R.R.R.R.R.R.R.R.R.R.R.R.R.R.R.R.R.R.R.R.R.R.R.R.R.R.R.5 x x x k & n :.,.,.;.o R.R.R.R.R.R.R.R.R.R.R.R.R.R.R.R.R.R.R.R.R.R.R.R.R.R.R.R.R.R.",
"R.R.R.R.R.R.R.R.R.R.R.R.R.R.R.R.R.R.R.R.R.R.R.R.R.R.R.R.& k g h *       = ;.;.  R.R.R.R.R.R.R.R.R.R.R.R.R.R.R.R.R.R.R.R.R.R.R.R.R.R.R.R.R.R.",
"R.R.R.R.R.R.R.R.R.R.R.R.R.R.R.R.R.R.R.R.R.R.R.R.R.R.R.R.  e           . M.7     R.R.R.R.R.R.R.R.R.R.R.R.R.R.R.R.R.R.R.R.R.R.R.R.R.R.R.R.R.R.",
"R.R.R.R.R.R.R.R.R.R.R.R.R.R.R.R.R.R.R.R.R.R.R.R.R.R.        Y.Y.L.K.  , p     R.R.R.R.R.R.R.R.R.R.R.R.R.R.R.R.R.R.R.R.R.R.R.R.R.R.R.R.R.R.R.",
"R.R.R.R.R.R.R.R.R.R.R.R.R.R.R.R.R.R.R.R.R.R.R.R.    M.r.  K.L.U.K.K.K.  Q Q   R.R.R.R.R.R.R.R.R.R.R.R.R.R.R.R.R.R.R.R.R.R.R.R.R.R.R.R.R.R.R.",
"R.R.R.R.R.R.R.R.R.R.R.R.R.R.R.R.R.R.R.R.R.R.R.R.  w.M.  N.K.K.K.K.K.K.N.  ! g.  R.R.R.R.R.R.R.R.R.R.R.R.R.R.R.R.R.R.R.R.R.R.R.R.R.R.R.R.R.R.",
"R.R.R.R.R.R.R.R.R.R.R.R.R.R.R.R.R.R.R.R.R.R.R.  8.r.w.  M .       @ 8.N.  E A.  R.R.R.R.R.R.R.R.R.R.R.R.R.R.R.R.R.R.R.R.R.R.R.R.R.R.R.R.R.R.",
"R.R.R.R.R.R.R.R.R.R.R.R.R.R.R.R.R.R.R.R.R.R.R.        o B.Y.K.K.L.Y.V O         R.R.R.R.R.R.R.R.R.R.R.R.R.R.R.R.R.R.R.R.R.R.R.R.R.R.R.R.R.R.",
"R.R.R.R.R.R.R.R.R.R.R.R.R.R.R.R.R.R.R.R.R.R.R.  w.M.M.9.8         m N.K.K.V.B.  R.R.R.R.R.R.R.R.R.R.R.R.R.R.R.R.R.R.R.R.R.R.R.R.R.R.R.R.R.R.",
"R.R.R.R.R.R.R.R.R.R.R.R.R.R.R.R.R.R.R.R.R.R.R.                                R.R.R.R.R.R.R.R.R.R.R.R.R.R.R.R.R.R.R.R.R.R.R.R.R.R.R.R.R.R.R.",
"R.R.R.R.R.R.R.R.R.R.R.R.R.R.R.R.R.R.R.R.R.R.R.R.R.R.R.R.R.R.R.R.R.R.R.R.R.R.R.R.R.R.R.R.R.R.R.R.R.R.R.R.R.R.R.R.R.R.R.R.R.R.R.R.R.R.R.R.R.R.",
"R.R.R.R.R.R.R.R.R.R.R.R.R.R.R.R.R.R.R.R.R.R.R.R.R.R.R.R.R.R.R.R.R.R.R.R.R.R.R.R.R.R.R.R.R.R.R.R.R.R.R.R.R.R.R.R.R.R.R.R.R.R.R.R.R.R.R.R.R.R.",
"R.R.R.R.R.R.R.R.R.R.R.R.R.R.R.R.R.R.R.R.R.R.R.R.R.R.R.R.R.R.R.R.R.R.R.R.R.R.R.R.R.R.R.R.R.R.R.R.R.R.R.R.R.R.R.R.R.R.R.R.R.R.R.R.R.R.R.R.R.R.",
"R.R.R.R.R.R.R.R.R.R.R.R.R.R.R.R.R.R.R.R.R.R.R.R.R.R.R.R.R.R.R.R.R.R.R.R.R.R.R.R.R.R.R.R.R.R.R.R.R.R.R.R.R.R.R.R.R.R.R.R.R.R.R.R.R.R.R.R.R.R.",
"R.R.R.R.R.R.R.R.R.R.R.R.R.R.R.R.R.R.R.R.R.R.R.R.R.R.R.R.R.R.R.R.R.R.R.R.R.R.R.R.R.R.R.R.R.R.R.R.R.R.R.R.R.R.R.R.R.R.R.R.R.R.R.R.R.R.R.R.R.R.",
"R.R.R.R.R.R.R.R.R.R.R.R.R.R.R.R.R.R.R.R.R.R.R.R.R.R.R.R.R.R.R.R.R.R.R.R.R.R.R.R.R.R.R.R.R.R.R.R.R.R.R.R.R.R.R.R.R.R.R.R.R.R.R.R.R.R.R.R.R.R.",
"R.R.R.R.R.R.R.R.R.R.R.R.R.R.R.R.R.R.R.R.R.R.R.R.R.R.R.R.R.R.R.R.R.R.R.R.R.R.R.R.R.R.R.R.R.R.R.R.R.R.R.R.R.R.R.R.R.R.R.R.R.R.R.R.R.R.R.R.R.R.",
"R.R.R.R.R.R.R.R.R.R.R.R.R.R.R.R.R.R.R.R.R.R.R.R.R.R.R.R.R.R.R.R.R.R.R.R.R.R.R.R.R.R.R.R.R.R.R.R.R.R.R.R.R.R.R.R.R.R.R.R.R.R.R.R.R.R.R.R.R.R."
};
