/* XPM */
static char *result[] = {
/* columns rows colors chars-per-pixel */
"70 70 159 2 ",
"   c #000000",
".  c #0B0303",
"X  c #0D0A05",
"o  c #0B0B0A",
"O  c #05090E",
"+  c #140303",
"@  c #1D0000",
"#  c #150A03",
"$  c #14110E",
"%  c #1C1509",
"&  c #0A141E",
"*  c #141414",
"=  c #1E1313",
"-  c #1A1A1A",
";  c #290609",
":  c #380609",
">  c #20180C",
",  c #221F1C",
"<  c #24211E",
"1  c #0C1723",
"2  c #081E35",
"3  c #2C2B2B",
"4  c #272523",
"5  c #322D29",
"6  c #36312C",
"7  c #3D3328",
"8  c #393939",
"9  c #450000",
"0  c #43090D",
"q  c #5E0000",
"w  c #4D1000",
"e  c #470D11",
"r  c #5B1116",
"t  c #640F14",
"y  c #7B141C",
"u  c #642100",
"i  c #44332A",
"p  c #453F3A",
"a  c #162C42",
"s  c #1A344D",
"d  c #0B3054",
"f  c #1F3F5D",
"g  c #0F3962",
"h  c #113E6B",
"j  c #214060",
"k  c #24486B",
"l  c #284E74",
"z  c #295077",
"x  c #2A537D",
"c  c gray30",
"v  c gray37",
"b  c #515151",
"n  c #635B53",
"m  c #656565",
"M  c #766C63",
"N  c #7C7C7C",
"B  c #727272",
"V  c #810000",
"C  c #9C0000",
"Z  c #821017",
"A  c #92171F",
"S  c #A20000",
"D  c #AB0000",
"F  c #B40000",
"G  c #BE0000",
"H  c #AB151C",
"J  c #B31118",
"K  c #972200",
"L  c #9F2400",
"P  c #831920",
"I  c #8A1922",
"U  c #901720",
"Y  c #921B23",
"T  c #9C1D27",
"R  c #A11C26",
"E  c #AC2029",
"W  c #B3222B",
"Q  c #C40000",
"!  c #CC0203",
"~  c #C6080B",
"^  c #D50000",
"/  c #D80600",
"(  c #DE1200",
")  c #E11900",
"_  c #E62100",
"`  c #EF3400",
"'  c #F33D00",
"]  c #E24B00",
"[  c #F64300",
"{  c #F84600",
"}  c #FA4B00",
"|  c #FE5400",
" . c #FE5806",
".. c #A25757",
"X. c #82776D",
"o. c #AD823D",
"O. c #8E8276",
"+. c #BC9670",
"@. c #C89344",
"#. c #D19B49",
"$. c #DEA44C",
"%. c #E3A74E",
"&. c #EDAE51",
"*. c #C5986B",
"=. c #FF9D6D",
"-. c #FFD26B",
";. c #2C5680",
":. c #336699",
">. c #33679A",
",. c #376EA4",
"<. c #386FA6",
"1. c #3870A7",
"2. c #3B75AF",
"3. c #3E79B4",
"4. c #8D8D8D",
"5. c #8A8887",
"6. c #9D8F81",
"7. c #979797",
"8. c #A0A0A0",
"9. c #A9A6A4",
"0. c #AFAFAF",
"q. c #BDBDBD",
"w. c #B1B1B1",
"e. c #F68E89",
"r. c #FF938E",
"t. c #FF9590",
"y. c #FF9D98",
"u. c #CEAB88",
"i. c #C5AF99",
"p. c #EBBD8F",
"a. c #FDBB9A",
"s. c #C5B3A1",
"d. c #CABAA9",
"f. c #FFBFBC",
"g. c #FFCC99",
"h. c #FAC997",
"j. c #DAC9B7",
"k. c #FFD9B4",
"l. c #FFDBB8",
"z. c #C4C4C4",
"x. c #CCCCCC",
"c. c #D5D5D5",
"v. c gray86",
"b. c #EBD8C4",
"n. c #FFD9C7",
"m. c #E8DBDB",
"M. c #FFE4CA",
"N. c #FAE1C7",
"B. c #FCE6D2",
"V. c #FFEAD5",
"C. c #FFEBDC",
"Z. c #E6E6E6",
"A. c #ECECEC",
"S. c #E8E5E2",
"D. c #FFF1E2",
"F. c #F3F3F3",
"G. c #FEFEFE",
"H. c #FFFBF6",
"J. c None",
/* pixels */
"J.J.J.J.J.J.J.J.J.J.J.J.J.J.J.J.J.J.J.J.J.J.J.J.J.J.J.J.J.J.J.J.J.J.J.J.J.J.J.J.J.J.J.J.J.J.J.J.J.J.J.J.J.J.J.J.J.J.J.J.J.J.J.J.J.J.J.J.J.J.",
"J.J.J.J.J.J.J.J.J.J.J.J.J.J.J.J.J.J.J.J.J.J.J.J.J.J.J.J.J.J.J.J.J.J.J.J.J.J.J.J.J.J.J.J.J.J.J.J.J.J.J.J.J.J.J.J.J.J.J.J.J.J.J.J.J.J.J.J.J.J.",
"J.J.J.J.J.J.J.J.J.J.J.J.J.J.J.J.J.J.J.J.J.J.J.J.J.J.J.J.J.J.J.J.J.J.J.J.J.J.J.J.J.J.J.J.J.J.J.J.J.J.J.J.J.J.J.J.J.J.J.J.J.J.J.J.J.J.J.J.J.J.",
"J.J.J.J.J.J.J.J.J.J.J.J.J.J.J.J.J.J.J.J.J.J.J.J.J.J.J.J.J.J.J.J.J.J.J.J.J.J.J.J.J.J.J.J.J.J.J.J.J.J.J.J.J.J.J.J.J.J.J.J.J.J.J.J.J.J.J.J.J.J.",
"J.J.J.J.J.J.J.J.J.J.J.J.J.J.J.J.J.J.J.J.J.J.J.J.J.J.J.J.J.J.J.J.J.J.J.J.J.J.J.J.J.J.J.J.J.J.J.J.J.J.J.J.J.J.J.J.J.J.J.J.J.J.J.J.J.J.J.J.J.J.",
"J.J.J.J.J.J.J.J.J.J.J.J.J.J.J.J.J.J.J.J.J.J.J.J.J.J.        J.J.J.J.J.J.J.J.J.J.J.J.J.J.J.J.J.J.J.J.J.J.J.J.J.J.J.J.J.J.J.J.J.J.J.J.J.J.J.J.",
"J.J.J.J.J.J.J.J.J.J.J.J.J.J.J.J.J.J.J.J.J.J.J.J.J.  ^ ^ ^ F     J.J.J.J.J.J.J.J.J.J.J.J.J.J.J.J.J.J.J.J.J.J.J.J.J.J.J.J.J.J.J.J.J.J.J.J.J.J.",
"J.J.J.J.J.J.J.J.J.J.J.J.J.J.J.J.J.J.J.J.J.J.J.J.  ^ =.C. .| / q   J.J.J.J.J.J.J.J.J.J.J.J.J.J.J.J.J.J.J.J.J.J.J.J.J.J.J.J.J.J.J.J.J.J.J.J.J.",
"J.J.J.J.J.J.J.J.J.J.J.J.J.J.J.J.J.J.J.J.J.J.J.  ..F.G.G.G.G.| [ S   J.J.J.J.J.J.J.J.J.J.J.J.J.J.J.J.J.J.J.J.J.J.J.J.J.J.J.J.J.J.J.J.J.J.J.J.",
"J.J.J.J.J.J.J.J.J.J.J.J.J.J.J.J.J.J.J.J.J.J.J.  F.G.F.G.G.G.G. .{ q   J.J.J.J.J.J.J.J.J.J.J.J.J.J.J.J.J.J.J.J.J.J.J.J.J.J.J.J.J.J.J.J.J.J.J.",
"J.J.J.J.J.J.J.J.J.J.J.J.J.J.J.J.J.J.J.J.J.J.J.- F.F.F.F.F.G.G.G.| )   J.J.J.J.J.J.J.J.J.J.J.J.J.J.J.J.J.J.J.J.J.J.J.J.J.J.J.J.J.J.J.J.J.J.J.",
"J.J.J.J.J.J.J.J.J.J.J.J.J.J.J.J.J.J.J.J.J.J.  m.F.F.F.F.F.F.F.F.G.| ^     . @     J.J.J.J.J.J.J.J.J.J.J.J.J.J.J.J.J.J.J.J.J.J.J.J.J.J.J.J.J.",
"J.J.J.J.J.J.J.J.J.J.J.J.J.J.J.J.J.J.J.J.J.J.  F.A.F.F.F.F.F.F.F.F.G.| ^   | | |   J.J.J.J.J.J.J.J.J.J.J.J.J.J.J.J.J.J.J.J.J.J.J.J.J.J.J.J.J.",
"J.J.J.J.J.J.J.J.J.J.J.J.J.J.J.J.J.J.J.J.J.J.  F.F.A.A.F.F.A.F.F.F.F.G.| Q   | [ ^   J.J.J.J.J.J.J.J.J.J.J.J.J.J.J.J.J.J.J.J.J.J.J.J.J.J.J.J.",
"J.J.J.J.J.J.J.J.J.J.J.J.J.J.J.J.J.J.J.J.J.J.  A.A.A.F.A.A.F.F.F.F.F.F.G. .^     J   J.J.J.J.J.J.J.J.J.J.J.J.J.J.J.J.J.J.J.J.J.J.J.J.J.J.J.J.",
"J.J.J.J.J.J.J.J.J.J.J.J.J.J.J.J.J.J.J.J.J.J.  x.Z.A.A.A.A.A.A.A.A.F.A.F.H.a.| G     J.J.J.J.J.J.J.J.J.J.J.J.J.J.J.J.J.J.J.J.J.J.J.J.J.J.J.J.",
"J.J.J.J.J.J.J.J.J.J.J.J.J.J.J.J.J.J.J.J.J.      8 x.A.A.A.A.A.A.A.A.A.A.F.A.G.| { D     J.J.J.J.J.J.J.J.J.J.J.J.J.J.J.J.J.J.J.J.J.J.J.J.J.J.",
"J.J.J.J.J.J.J.J.J.J.J.J.J.J.J.J.J.J.J.J.J.  Y W r     x.Z.A.A.Z.A.A.A.A.A.A.A.F.G.| ` V   J.J.J.J.J.J.J.J.J.J.J.J.J.J.J.J.J.J.J.J.J.J.J.J.J.",
"J.J.J.J.J.J.J.J.J.J.J.J.J.J.J.J.J.J.J.J.    e Z T W Y     d.c.Z.A.A.A.A.A.A.A.A.A.G.| | ( .   J.J.J.J.J.J.J.J.J.J.J.J.J.J.J.J.J.J.J.J.J.J.J.",
"J.J.J.J.J.J.J.J.J.J.J.J.J.J.J.J.J.J.    ^ ' u   . T T W E     v x.v.Z.A.Z.A.A.A.A.A.^ | | | !   J.J.J.J.J.J.J.J.J.J.J.J.J.J.J.J.J.J.J.J.J.J.",
"J.J.J.J.J.J.J.J.J.J.J.J.J.J.J.J.J.    ^ | | | | ]     T T E W ;   $ x.x.v.A.A.A.Z.A.^ ^ ^  .| ^   J.J.J.J.J.J.J.J.J.J.J.J.J.J.J.J.J.J.J.J.J.",
"J.J.J.J.J.J.J.J.J.J.J.J.J.J.J.J.  9 ^ | | | | | | | |     y T T W I     x.x.x.x.v.Z.^ ^ ^ ^ T T : J.J.J.J.J.J.J.J.J.J.J.J.J.J.J.J.J.J.J.J.J.",
"J.J.J.J.J.J.J.J.J.J.J.J.J.J.J.  + ^ } | | | | | | | | | | #   + T T W R     9.x.x.T T R T T T T T   J.J.J.J.J.J.J.J.J.J.J.J.J.J.J.J.J.J.J.J.",
"J.J.J.J.J.J.J.J.J.J.J.J.J.J.J.  ^ ^ | | | | | | | | | | | | | K     T T E W +   3 T T T T T T T y   J.J.J.J.J.J.J.J.J.J.J.J.J.J.J.J.J.J.J.J.",
"J.J.J.J.J.J.J.J.J.J.J.J.J.J.J.  ^ ^ ^ / | | | | | | | ) ^ ^ ^ ^ ^ ^     I P Y W r     T T T T T   J.J.J.J.J.J.J.J.J.J.J.J.J.J.J.J.J.J.J.J.J.",
"J.J.J.J.J.J.J.J.J.J.J.J.J.J.J.  ~ ^ ^ ^ ^ ^ ^ ^ ^ ^ ^ ^ ^ ^ ^ ^ ^ ^ ^ ^     e P P W I   ; T t   J.J.J.J.J.J.J.J.J.J.J.J.J.J.J.J.J.J.J.J.J.J.",
"J.J.J.J.J.J.J.J.J.J.J.J.J.J.J.J.  R ^ ^ ^ ^ ^ ^ ^ ^ ^ ^ ^ ^ ^ ^ ^ ^ ! T U   %   . P P E       J.J.J.J.J.J.J.J.J.J.J.J.J.J.J.J.J.J.J.J.J.J.J.",
"J.J.J.J.J.J.J.J.J.J.J.J.J.J.J.J.J.  0 T H ^ ^ ^ ^ ^ ^ ^ ^ ! ~ R T T +   X -.&.&.@.        J.J.J.J.J.J.J.J.J.J.J.J.J.J.J.J.J.J.J.J.J.J.J.J.J.",
"J.J.J.J.J.J.J.J.J.J.J.J.J.J.J.J.J.J.J.      ; U T T T Y Z ;       . %.  &.&.&.&.&.&.%.  J.J.J.J.J.J.J.J.J.J.J.J.J.J.J.J.J.J.J.J.J.J.J.J.J.J.",
"J.J.J.J.J.J.J.J.J.J.J.J.J.J.J.J.J.J.J.J.J.5.p   X X   4   %.#.b.  $.&.  o.&.&.&.&.&.> J.J.J.J.J.J.J.J.J.J.J.J.J.J.J.J.J.J.J.J.J.J.J.J.J.J.J.",
"J.J.J.J.J.J.J.J.J.J.J.J.J.J.J.J.J.J.J.J.J.* m 8 O.    V.V.o   6 m v.      &.&.        J.J.J.J.J.J.J.J.J.J.J.J.J.J.J.J.J.J.J.J.J.J.J.J.J.J.J.",
"J.J.J.J.J.J.J.J.J.J.J.J.J.J.J.J.J.J.J.J.  . - - j.V.V.V.V.V.V., - z.  O.V.  $.n V.D.. J.J.J.J.J.J.J.J.J.J.J.J.J.J.J.J.J.J.J.J.J.J.J.J.J.J.J.",
"J.J.J.J.J.J.J.J.J.J.J.J.J.J.J.J.J.J.J.J.  o - - B V.V.V.V.V.V.  - - X $ V.V.  g.g.N.C.  J.J.J.J.J.J.J.J.J.J.J.J.J.J.J.J.J.J.J.J.J.J.J.J.J.J.",
"J.J.J.J.J.J.J.J.J.J.J.J.J.J.J.J.J.J.J.J.9.4 - - X.V.G.r.r.V.C.  - -   . V.V.M.g.g.g.V.  J.J.J.J.J.J.J.J.J.J.J.J.J.J.J.J.J.J.J.J.J.J.J.J.J.J.",
"J.J.J.J.J.J.J.J.J.J.J.J.J.J.J.J.J.J.J.J.  S.=   < r.r.r.r.r.6.j.- -   d.V.V.g.g.g.g.V.  J.J.J.J.J.J.J.J.J.J.J.J.J.J.J.J.J.J.J.J.J.J.J.J.J.J.",
"J.J.J.J.J.J.J.J.J.J.J.J.J.J.J.J.J.J.J.J.  9.<   . r.r.r.r.r.  V.o     V.V.l.g.g.g.V.b.  J.J.J.J.J.J.J.J.J.J.J.J.J.J.J.J.J.J.J.J.J.J.J.J.J.J.",
"J.J.J.J.J.J.J.J.J.J.J.J.J.J.J.J.J.J.J.J.J.r.y.n.+.= e.r.e.o N.C.V.B.t.y.k.h.g.j.N.6   J.J.J.J.J.J.J.J.J.J.J.J.J.J.J.J.J.J.J.J.J.J.J.J.J.J.J.",
"J.J.J.J.J.J.J.J.J.J.J.J.J.J.J.J.J.J.J.J.J.J.    u.g.g.g.g.B.M.l.g.g.t.r.p..     J.J.J.J.J.J.J.J.J.J.J.J.J.J.J.J.J.J.J.J.J.J.J.J.J.J.J.J.J.J.",
"J.J.J.J.J.J.J.J.J.J.J.J.J.J.J.J.J.J.J.J.J.J.J.J.      . $ 7 * o               J.J.J.J.J.J.J.J.J.J.J.J.J.J.J.J.J.J.J.J.J.J.J.J.J.J.J.J.J.J.J.",
"J.J.J.J.J.J.J.J.J.J.J.J.J.J.J.J.J.J.J.J.J.J.J.J.J.J.    O G.G.q.:.:.:.O 3 G.Z.  J.J.J.J.J.J.J.J.J.J.J.J.J.J.J.J.J.J.J.J.J.J.J.J.J.J.J.J.J.J.",
"J.J.J.J.J.J.J.J.J.J.J.J.J.J.J.J.J.J.J.J.J.J.J.J.J.  z.a   G.G.  :.:.    G.G.G.Z.  J.J.J.J.J.J.J.J.J.J.J.J.J.J.J.J.J.J.J.J.J.J.J.J.J.J.J.J.J.",
"J.J.J.J.J.J.J.J.J.J.J.J.J.J.J.J.J.J.J.J.J.J.J.J.J.4.8.>.:.:.:.:.:.:.-   G.G.G.Z.  J.J.J.J.J.J.J.J.J.J.J.J.J.J.J.J.J.J.J.J.J.J.J.J.J.J.J.J.J.",
"J.J.J.J.J.J.J.J.J.J.J.J.J.J.J.J.J.J.J.J.J.J.J.J.J.                      G.G.G.Z.  J.J.J.J.J.J.J.J.J.J.J.J.J.J.J.J.J.J.J.J.J.J.J.J.J.J.J.J.J.",
"J.J.J.J.J.J.J.J.J.J.J.J.J.J.J.J.J.J.J.J.J.J.J.J.J.    2.2.2.2.2.1.  :.o G.G.z.*   J.J.J.J.J.J.J.J.J.J.J.J.J.J.J.J.J.J.J.J.J.J.J.J.J.J.J.J.J.",
"J.J.J.J.J.J.J.J.J.J.J.J.J.J.J.J.J.J.J.J.J.J.J.J.J.J.  2.2.2.2.2.<.  :.:.  M B.g.  J.J.J.J.J.J.J.J.J.J.J.J.J.J.J.J.J.J.J.J.J.J.J.J.J.J.J.J.J.",
"J.J.J.J.J.J.J.J.J.J.J.J.J.J.J.J.J.J.J.J.J.J.J.J.J.J.s 2.2.2.2.2.,.  $     V.V.g.  J.J.J.J.J.J.J.J.J.J.J.J.J.J.J.J.J.J.J.J.J.J.J.J.J.J.J.J.J.",
"J.J.J.J.J.J.J.J.J.J.J.J.J.J.J.J.J.J.J.J.J.J.J.J.  O j 3.2.2.2.2.& p V.V.V.V.V.g.  J.J.J.J.J.J.J.J.J.J.J.J.J.J.J.J.J.J.J.J.J.J.J.J.J.J.J.J.J.",
"J.J.J.J.J.J.J.J.J.J.J.J.J.J.J.J.J.J.J.J.J.J.J.  s.6 x <.2.2.2.2.  D.H.V.V.V.M.g.  J.J.J.J.J.J.J.J.J.J.J.J.J.J.J.J.J.J.J.J.J.J.J.J.J.J.J.J.J.",
"J.J.J.J.J.J.J.J.J.J.J.J.J.J.J.J.J.J.J.J.J.J.J.  i.6.& x           k.V.V.C.g.g.. J.J.J.J.J.J.J.J.J.J.J.J.J.J.J.J.J.J.J.J.J.J.J.J.J.J.J.J.J.J.",
"J.J.J.J.J.J.J.J.J.J.J.J.J.J.J.J.J.J.J.J.J.J.J.  s.*.  ;.;.;.;.;.z   h.g.g.g.    J.J.J.J.J.J.J.J.J.J.J.J.J.J.J.J.J.J.J.J.J.J.J.J.J.J.J.J.J.J.",
"J.J.J.J.J.J.J.J.J.J.J.J.J.J.J.J.J.J.J.J.J.J.J.  i   g   1 ;.;.;.;.s &       J.J.J.J.J.J.J.J.J.J.J.J.J.J.J.J.J.J.J.J.J.J.J.J.J.J.J.J.J.J.J.J.",
"J.J.J.J.J.J.J.J.J.J.J.J.J.J.J.J.J.J.J.J.J.J.J.J.J.2 h h d         z >.:.:.;.  J.J.J.J.J.J.J.J.J.J.J.J.J.J.J.J.J.J.J.J.J.J.J.J.J.J.J.J.J.J.J.",
"J.J.J.J.J.J.J.J.J.J.J.J.J.J.J.J.J.J.J.J.J.J.J.J.  d g h h d   J.J.>.:.:.:.;.  J.J.J.J.J.J.J.J.J.J.J.J.J.J.J.J.J.J.J.J.J.J.J.J.J.J.J.J.J.J.J.",
"J.J.J.J.J.J.J.J.J.J.J.J.J.J.J.J.J.J.J.J.J.J.J.J.      2 d d   J.J.j k l z ;.  J.J.J.J.J.J.J.J.J.J.J.J.J.J.J.J.J.J.J.J.J.J.J.J.J.J.J.J.J.J.J.",
"J.J.J.J.J.J.J.J.J.J.J.J.J.J.J.J.J.J.J.J.J.          o N       J.J.  S.A.Z.v.  J.J.J.J.J.J.J.J.J.J.J.J.J.J.J.J.J.J.J.J.J.J.J.J.J.J.J.J.J.J.J.",
"J.J.J.J.J.J.J.J.J.J.J.J.J.J.J.J.J.J.J.    z.z.w.0.  L w   J.                  J.J.J.J.J.J.J.J.J.J.J.J.J.J.J.J.J.J.J.J.J.J.J.J.J.J.J.J.J.J.J.",
"J.J.J.J.J.J.J.J.J.J.J.J.J.J.J.J.J.J.J.  0.z.z.0.0.0.  S C   Z.G.H.Z.Z.  ! ^ i   J.J.J.J.J.J.J.J.J.J.J.J.J.J.J.J.J.J.J.J.J.J.J.J.J.J.J.J.J.J.",
"J.J.J.J.J.J.J.J.J.J.J.J.J.J.J.J.J.J.  w.0.0.0.0.0.0.4.    Z.F.H.Z.Z.Z.x.  ^ Z.  J.J.J.J.J.J.J.J.J.J.J.J.J.J.J.J.J.J.J.J.J.J.J.J.J.J.J.J.J.J.",
"J.J.J.J.J.J.J.J.J.J.J.J.J.J.J.J.J.J.            - N 7.    Z.Z.Z.Z.Z.Z.x.B 9 C   J.J.J.J.J.J.J.J.J.J.J.J.J.J.J.J.J.J.J.J.J.J.J.J.J.J.J.J.J.J.",
"J.J.J.J.J.J.J.J.J.J.J.J.J.J.J.J.J.J.* 0.z.0.w.q.q.v *                             J.J.J.J.J.J.J.J.J.J.J.J.J.J.J.J.J.J.J.J.J.J.J.J.J.J.J.J.J.",
"J.J.J.J.J.J.J.J.J.J.J.J.J.J.J.J.J.            o b 7.0.3 z.Z.G.Z.Z.Z.Z.Z.Z.Z.x.c   J.J.J.J.J.J.J.J.J.J.J.J.J.J.J.J.J.J.J.J.J.J.J.J.J.J.J.J.J.",
"J.J.J.J.J.J.J.J.J.J.J.J.J.J.J.J.J.J.J.J.J.J.J.J.J.                                J.J.J.J.J.J.J.J.J.J.J.J.J.J.J.J.J.J.J.J.J.J.J.J.J.J.J.J.J.",
"J.J.J.J.J.J.J.J.J.J.J.J.J.J.J.J.J.J.J.J.J.J.J.J.J.J.J.J.J.J.J.J.J.J.J.J.J.J.J.J.J.J.J.J.J.J.J.J.J.J.J.J.J.J.J.J.J.J.J.J.J.J.J.J.J.J.J.J.J.J.",
"J.J.J.J.J.J.J.J.J.J.J.J.J.J.J.J.J.J.J.J.J.J.J.J.J.J.J.J.J.J.J.J.J.J.J.J.J.J.J.J.J.J.J.J.J.J.J.J.J.J.J.J.J.J.J.J.J.J.J.J.J.J.J.J.J.J.J.J.J.J.",
"J.J.J.J.J.J.J.J.J.J.J.J.J.J.J.J.J.J.J.J.J.J.J.J.J.J.J.J.J.J.J.J.J.J.J.J.J.J.J.J.J.J.J.J.J.J.J.J.J.J.J.J.J.J.J.J.J.J.J.J.J.J.J.J.J.J.J.J.J.J.",
"J.J.J.J.J.J.J.J.J.J.J.J.J.J.J.J.J.J.J.J.J.J.J.J.J.J.J.J.J.J.J.J.J.J.J.J.J.J.J.J.J.J.J.J.J.J.J.J.J.J.J.J.J.J.J.J.J.J.J.J.J.J.J.J.J.J.J.J.J.J.",
"J.J.J.J.J.J.J.J.J.J.J.J.J.J.J.J.J.J.J.J.J.J.J.J.J.J.J.J.J.J.J.J.J.J.J.J.J.J.J.J.J.J.J.J.J.J.J.J.J.J.J.J.J.J.J.J.J.J.J.J.J.J.J.J.J.J.J.J.J.J.",
"J.J.J.J.J.J.J.J.J.J.J.J.J.J.J.J.J.J.J.J.J.J.J.J.J.J.J.J.J.J.J.J.J.J.J.J.J.J.J.J.J.J.J.J.J.J.J.J.J.J.J.J.J.J.J.J.J.J.J.J.J.J.J.J.J.J.J.J.J.J.",
"J.J.J.J.J.J.J.J.J.J.J.J.J.J.J.J.J.J.J.J.J.J.J.J.J.J.J.J.J.J.J.J.J.J.J.J.J.J.J.J.J.J.J.J.J.J.J.J.J.J.J.J.J.J.J.J.J.J.J.J.J.J.J.J.J.J.J.J.J.J.",
"J.J.J.J.J.J.J.J.J.J.J.J.J.J.J.J.J.J.J.J.J.J.J.J.J.J.J.J.J.J.J.J.J.J.J.J.J.J.J.J.J.J.J.J.J.J.J.J.J.J.J.J.J.J.J.J.J.J.J.J.J.J.J.J.J.J.J.J.J.J."
};
