/* XPM */
static char *result[] = {
/* columns rows colors chars-per-pixel */
"70 70 161 2 ",
"   c #000000",
".  c #0A0202",
"X  c #04090E",
"o  c #0B0B0B",
"O  c #04060A",
"+  c #130202",
"@  c #1D0203",
"#  c #130D09",
"$  c #070D15",
"%  c #081119",
"&  c #131313",
"*  c #1A1312",
"=  c #1A1A1A",
"-  c #1F1A15",
";  c #260000",
":  c #370000",
">  c #3D0B0F",
",  c #261B0D",
"<  c #0B1520",
"1  c #101F2F",
"2  c #112232",
"3  c gray14",
"4  c #2D2D2D",
"5  c #2C2624",
"6  c #392A29",
"7  c #3C3127",
"8  c gray21",
"9  c #3A3A3A",
"0  c #490000",
"q  c #580507",
"w  c #441600",
"e  c #4A0D12",
"r  c #5C1016",
"t  c #640000",
"y  c #790000",
"u  c #681A00",
"i  c #631218",
"p  c #78151C",
"a  c #73151C",
"s  c #433D38",
"d  c #755728",
"f  c #7F602D",
"g  c #19324B",
"h  c #1E3C5B",
"j  c #24476A",
"k  c #274E75",
"l  c #2B547C",
"z  c #275078",
"x  c #434343",
"c  c gray30",
"v  c #4E4842",
"b  c #5E5D5D",
"n  c gray33",
"m  c #615851",
"M  c #626262",
"N  c #6C6C6B",
"B  c #766C62",
"V  c #7D7368",
"C  c #7D7D7D",
"Z  c #890000",
"A  c #820000",
"S  c #9C0000",
"D  c #80181F",
"F  c #A6090D",
"G  c #BE0608",
"H  c #B31218",
"J  c #831920",
"K  c #8F1B22",
"L  c #941B24",
"P  c #9D1D27",
"I  c #A71720",
"U  c #A41B24",
"Y  c #AA2029",
"T  c #B3222B",
"R  c #C40000",
"E  c #CA0203",
"W  c #C7070A",
"Q  c #D50000",
"!  c #D90800",
"~  c #D71010",
"^  c #E01700",
"/  c #C43E00",
"(  c #EA2900",
")  c #E72500",
"_  c #F23C00",
"`  c #E34B00",
"'  c #EE4E00",
"]  c #FA4B00",
"[  c #F64400",
"{  c #FE5400",
"}  c #FE5B0A",
"|  c #FE5807",
" . c #985754",
".. c #856E57",
"X. c #93795F",
"o. c #827569",
"O. c #987D63",
"+. c #D87D79",
"@. c #B2833E",
"#. c #AA8764",
"$. c #B58F69",
"%. c #B8936E",
"&. c #D09B48",
"*. c #FE884E",
"=. c #FE8E57",
"-. c #E0A64D",
";. c #EDAE51",
":. c #C5986B",
">. c #C49E78",
",. c #F8C360",
"<. c #2C5680",
"1. c #2D5985",
"2. c #2E5C8A",
"3. c #316395",
"4. c #336699",
"5. c #376DA4",
"6. c #3B75AF",
"7. c #4784C0",
"8. c #888888",
"9. c gray58",
"0. c #989898",
"q. c #A39688",
"w. c #B3A393",
"e. c #B9A99B",
"r. c #AEAEAE",
"t. c #B2B2B2",
"y. c gray",
"u. c #FF938E",
"i. c #C5A382",
"p. c #C5A688",
"a. c #D1AB85",
"s. c #DAB087",
"d. c #EEBF8F",
"f. c #C5B2A0",
"g. c #C8BAAC",
"h. c #FFAEAA",
"j. c #FFCC99",
"k. c #F8C497",
"l. c #FFD7AF",
"z. c #FFD0A1",
"x. c #FFCFBF",
"c. c #FFD9B3",
"v. c #C4C4C4",
"b. c #CCCCCC",
"n. c #D7D1CA",
"m. c #D4D4D4",
"M. c gray86",
"N. c #EDD9C6",
"B. c #F1DDC9",
"V. c #FFDEDC",
"C. c #FFE6CD",
"Z. c #FFEAD5",
"A. c #E5E5E5",
"S. c #ECECEC",
"D. c #ECE3E3",
"F. c #FFE4E2",
"G. c #FFF0E0",
"H. c #F3F3F3",
"J. c #FEFEFE",
"K. c #FFF8F2",
"L. c None",
/* pixels */
"L.L.L.L.L.L.L.L.L.L.L.L.L.L.L.L.L.L.L.L.L.L.L.L.L.L.L.L.L.L.L.L.L.L.L.L.L.L.L.L.L.L.L.L.L.L.L.L.L.L.L.L.L.L.L.L.L.L.L.L.L.L.L.L.L.L.L.L.L.L.",
"L.L.L.L.L.L.L.L.L.L.L.L.L.L.L.L.L.L.L.L.L.L.L.L.L.L.L.L.L.L.L.L.L.L.L.L.L.L.L.L.L.L.L.L.L.L.L.L.L.L.L.L.L.L.L.L.L.L.L.L.L.L.L.L.L.L.L.L.L.L.",
"L.L.L.L.L.L.L.L.L.L.L.L.L.L.L.L.L.L.L.L.L.L.L.L.L.L.L.L.L.L.L.L.L.L.L.L.L.L.L.L.L.L.L.L.L.L.L.L.L.L.L.L.L.L.L.L.L.L.L.L.L.L.L.L.L.L.L.L.L.L.",
"L.L.L.L.L.L.L.L.L.L.L.L.L.L.L.L.L.L.L.L.L.L.L.L.L.L.L.L.L.L.    L.L.L.L.L.L.L.L.L.L.L.L.L.L.L.L.L.L.L.L.L.L.L.L.L.L.L.L.L.L.L.L.L.L.L.L.L.L.",
"L.L.L.L.L.L.L.L.L.L.L.L.L.L.L.L.L.L.L.L.L.L.L.L.L.L.L.L.  + Q E       L.L.L.L.L.L.L.L.L.L.L.L.L.L.L.L.L.L.L.L.L.L.L.L.L.L.L.L.L.L.L.L.L.L.L.",
"L.L.L.L.L.L.L.L.L.L.L.L.L.L.L.L.L.L.L.L.L.L.L.L.L.L.L.  R { } { { Q +   L.L.L.L.L.L.L.L.L.L.L.L.L.L.L.L.L.L.L.L.L.L.L.L.L.L.L.L.L.L.L.L.L.L.",
"L.L.L.L.L.L.L.L.L.L.L.L.L.L.L.L.L.L.L.L.L.L.L.L.L.L.L.. J.J.J.J.K.{ ) A   L.L.L.L.L.L.L.L.L.L.L.L.L.L.L.L.L.L.L.L.L.L.L.L.L.L.L.L.L.L.L.L.L.",
"L.L.L.L.L.L.L.L.L.L.L.L.L.L.L.L.L.L.L.L.L.L.L.L.L.L.  H.H.H.J.J.J.J.{ [ t   L.L.L.L.L.L.L.L.L.L.L.L.L.L.L.L.L.L.L.L.L.L.L.L.L.L.L.L.L.L.L.L.",
"L.L.L.L.L.L.L.L.L.L.L.L.L.L.L.L.L.L.L.L.L.L.L.L.L.L.  H.J.H.H.H.J.J.J.} ) .   L.L.L.L.L.L.L.L.L.L.L.L.L.L.L.L.L.L.L.L.L.L.L.L.L.L.L.L.L.L.L.",
"L.L.L.L.L.L.L.L.L.L.L.L.L.L.L.L.L.L.L.L.L.L.L.L.L.L.5 H.H.H.H.H.H.H.H.J.| Q     + q     L.L.L.L.L.L.L.L.L.L.L.L.L.L.L.L.L.L.L.L.L.L.L.L.L.L.",
"L.L.L.L.L.L.L.L.L.L.L.L.L.L.L.L.L.L.L.L.L.L.L.L.L.  D.H.S.H.H.H.H.H.H.H.J.{ Q   { { { 0   L.L.L.L.L.L.L.L.L.L.L.L.L.L.L.L.L.L.L.L.L.L.L.L.L.",
"L.L.L.L.L.L.L.L.L.L.L.L.L.L.L.L.L.L.L.L.L.L.L.L.L.  H.S.S.H.H.H.H.H.H.H.H.J.{ Q   ' ] Q   L.L.L.L.L.L.L.L.L.L.L.L.L.L.L.L.L.L.L.L.L.L.L.L.L.",
"L.L.L.L.L.L.L.L.L.L.L.L.L.L.L.L.L.L.L.L.L.L.L.L.L.  S.S.S.S.S.H.H.S.H.H.H.S.J.*.(     E   L.L.L.L.L.L.L.L.L.L.L.L.L.L.L.L.L.L.L.L.L.L.L.L.L.",
"L.L.L.L.L.L.L.L.L.L.L.L.L.L.L.L.L.L.L.L.L.L.L.L.L.  b.S.S.S.S.S.S.S.S.S.S.H.H.H.J.{ Q     L.L.L.L.L.L.L.L.L.L.L.L.L.L.L.L.L.L.L.L.L.L.L.L.L.",
"L.L.L.L.L.L.L.L.L.L.L.L.L.L.L.L.L.L.L.L.L.L.L.L.L.    v.b.S.S.S.S.S.S.S.S.S.H.S.S.J.=.{ Q .   L.L.L.L.L.L.L.L.L.L.L.L.L.L.L.L.L.L.L.L.L.L.L.",
"L.L.L.L.L.L.L.L.L.L.L.L.L.L.L.L.L.L.L.L.L.L.L.L.  L L .   x b.S.S.S.S.S.S.S.S.S.S.H.S.J.} { Q .   L.L.L.L.L.L.L.L.L.L.L.L.L.L.L.L.L.L.L.L.L.",
"L.L.L.L.L.L.L.L.L.L.L.L.L.L.L.L.L.L.L.L.L.L.L.L.  J J Y T e     v.M.S.S.S.S.S.S.S.S.S.S.S.{ { { Q     L.L.L.L.L.L.L.L.L.L.L.L.L.L.L.L.L.L.L.",
"L.L.L.L.L.L.L.L.L.L.L.L.L.L.L.L.L.L.L.L.L.L.    Q     i P U T U     M b.M.A.A.S.S.S.A.S.S.~ ^ { { ] ;   L.L.L.L.L.L.L.L.L.L.L.L.L.L.L.L.L.L.",
"L.L.L.L.L.L.L.L.L.L.L.L.L.L.L.L.L.L.L.L.L.  + Q { { { w   . P P Y T >   O b.b.m.A.A.A.S.S.Q Q Q ! { _ @   L.L.L.L.L.L.L.L.L.L.L.L.L.L.L.L.L.",
"L.L.L.L.L.L.L.L.L.L.L.L.L.L.L.L.L.L.L.L.  y Q { { { { { { `     p P U T L     8.b.b.b.b.M.W W W I P P P   L.L.L.L.L.L.L.L.L.L.L.L.L.L.L.L.L.",
"L.L.L.L.L.L.L.L.L.L.L.L.L.L.L.L.L.L.L.  y Q { { { { { { { { { { +   . P P Y T +   o b.b.b.P P P P P P P   L.L.L.L.L.L.L.L.L.L.L.L.L.L.L.L.L.",
"L.L.L.L.L.L.L.L.L.L.L.L.L.L.L.L.L.L.L.  Q Q { { { { { { { { { { { { `     L P P T J     J P P P P P P P   L.L.L.L.L.L.L.L.L.L.L.L.L.L.L.L.L.",
"L.L.L.L.L.L.L.L.L.L.L.L.L.L.L.L.L.L.  R Q Q { { { { { { { { { [ Q Q Q Q Q . . # P J T Y +   + P P P P   L.L.L.L.L.L.L.L.L.L.L.L.L.L.L.L.L.L.",
"L.L.L.L.L.L.L.L.L.L.L.L.L.L.L.L.L.L.  F Q Q Q Q Q Q Q Q Q Q Q Q Q Q Q Q Q Q Q Z     p J K T a   P q   L.L.L.L.L.L.L.L.L.L.L.L.L.L.L.L.L.L.L.",
"L.L.L.L.L.L.L.L.L.L.L.L.L.L.L.L.L.L.L.  G Q Q Q Q Q Q Q Q Q Q Q Q Q Q Q Q Q H P .   .   e p J r   L.L.L.L.L.L.L.L.L.L.L.L.L.L.L.L.L.L.L.L.L.",
"L.L.L.L.L.L.L.L.L.L.L.L.L.L.L.L.L.L.L.L.  P H Q Q Q Q Q Q Q Q Q Q Q Q I P L     @.,.;.;.d       L.L.L.L.L.L.L.L.L.L.L.L.L.L.L.L.L.L.L.L.L.L.",
"L.L.L.L.L.L.L.L.L.L.L.L.L.L.L.L.L.L.L.L.L.    @ P P P P P P P P P p .     , ;.f ;.;.;.;.;.;.  L.L.L.L.L.L.L.L.L.L.L.L.L.L.L.L.L.L.L.L.L.L.L.",
"L.L.L.L.L.L.L.L.L.L.L.L.L.L.L.L.L.L.L.L.L.L.L.L.                  d     d ;.;.  ;.;.;.;.;.;.  L.L.L.L.L.L.L.L.L.L.L.L.L.L.L.L.L.L.L.L.L.L.L.",
"L.L.L.L.L.L.L.L.L.L.L.L.L.L.L.L.L.L.L.L.L.L.L.L.  J.b.=     & Z.q.    Z.J.      # ;.-.        L.L.L.L.L.L.L.L.L.L.L.L.L.L.L.L.L.L.L.L.L.L.L.",
"L.L.L.L.L.L.L.L.L.L.L.L.L.L.L.L.L.L.L.L.L.L.L.L.  J.J.  Z.Z.N.Z.Z.Z.g.O m.8   Z.V &.  Z.Z.K.  L.L.L.L.L.L.L.L.L.L.L.L.L.L.L.L.L.L.L.L.L.L.L.",
"L.L.L.L.L.L.L.L.L.L.L.L.L.L.L.L.L.L.L.L.L.L.L.L.  N =   Z.Z.Z.Z.Z.Z.Z.= = =   B.Z.B   j.j.Z.J.  L.L.L.L.L.L.L.L.L.L.L.L.L.L.L.L.L.L.L.L.L.L.",
"L.L.L.L.L.L.L.L.L.L.L.L.L.L.L.L.L.L.L.L.L.L.L.  3 b =   Z.Z.h.u.x.Z.Z.& = =   N.Z.Z.j.j.j.l.Z.  L.L.L.L.L.L.L.L.L.L.L.L.L.L.L.L.L.L.L.L.L.L.",
"L.L.L.L.L.L.L.L.L.L.L.L.L.L.L.L.L.L.L.L.L.L.L.    n.=   v u.F.u.u.+.Z.  = =   Z.Z.Z.j.j.j.C.Z.  L.L.L.L.L.L.L.L.L.L.L.L.L.L.L.L.L.L.L.L.L.L.",
"L.L.L.L.L.L.L.L.L.L.L.L.L.L.L.L.L.L.L.L.L.L.L.    Z.    +.u.u.u.u.u.m Z.    s Z.Z.j.j.j.j.Z.O L.L.L.L.L.L.L.L.L.L.L.L.L.L.L.L.L.L.L.L.L.L.L.",
"L.L.L.L.L.L.L.L.L.L.L.L.L.L.L.L.L.L.L.L.L.L.L.L.  u.V.C.  u.u.u.u.* C.Z.C.N.u.V.u.j.j.e.e.    L.L.L.L.L.L.L.L.L.L.L.L.L.L.L.L.L.L.L.L.L.L.L.",
"L.L.L.L.L.L.L.L.L.L.L.L.L.L.L.L.L.L.L.L.L.L.L.L.L.#  .a.j.j.%.$.d.Z.Z.C.l.k.u.u.>.    L.L.L.L.L.L.L.L.L.L.L.L.L.L.L.L.L.L.L.L.L.L.L.L.L.L.L.",
"L.L.L.L.L.L.L.L.L.L.L.L.L.L.L.L.L.L.L.L.L.L.L.L.L.L.L.      7 s.j.j.k...-         L.L.L.L.L.L.L.L.L.L.L.L.L.L.L.L.L.L.L.L.L.L.L.L.L.L.L.L.L.",
"L.L.L.L.L.L.L.L.L.L.L.L.L.L.L.L.L.L.L.L.L.L.L.L.L.L.L.L.  =   2 3 & c O 3.4.4.  A.A.O   L.L.L.L.L.L.L.L.L.L.L.L.L.L.L.L.L.L.L.L.L.L.L.L.L.L.",
"L.L.L.L.L.L.L.L.L.L.L.L.L.L.L.L.L.L.L.L.L.L.L.L.L.L.L.L.o v.h z & m.  4.4.4.  J.J.S.A.A.  L.L.L.L.L.L.L.L.L.L.L.L.L.L.L.L.L.L.L.L.L.L.L.L.L.",
"L.L.L.L.L.L.L.L.L.L.L.L.L.L.L.L.L.L.L.L.L.L.L.L.L.L.L.  v.O 4.4.4.4.4.4.4.    J.J.J.J.y.#.  L.L.L.L.L.L.L.L.L.L.L.L.L.L.L.L.L.L.L.L.L.L.L.L.",
"L.L.L.L.L.L.L.L.L.L.L.L.L.L.L.L.L.L.L.L.L.L.  O 5   L.c v.  7.<.$     2 1.b = J.J.J.J.  Z.j..   L.L.L.L.L.L.L.L.L.L.L.L.L.L.L.L.L.L.L.L.L.L.",
"L.L.L.L.L.L.L.L.L.L.L.L.L.L.L.L.L.L.L.L.L.  f.i.g.w.  o.    2   h 5.6.4.g   J.  o J.H.w.Z.Z.j.  L.L.L.L.L.L.L.L.L.L.L.L.L.L.L.L.L.L.L.L.L.L.",
"L.L.L.L.L.L.L.L.L.L.L.L.L.L.L.L.L.L.L.L.L.  i.:.:.f.f.f.    6.6.6.6.6.4.3.4.O A.b.    o Z.Z.c.j.  L.L.L.L.L.L.L.L.L.L.L.L.L.L.L.L.L.L.L.L.L.",
"L.L.L.L.L.L.L.L.L.L.L.L.L.L.L.L.L.L.L.L.L.  :.:.f.f.f.f.  % 6.6.6.6.6.j 4.4.4.  t.  L.O Z.Z.Z.j.  L.L.L.L.L.L.L.L.L.L.L.L.L.L.L.L.L.L.L.L.L.",
"L.L.L.L.L.L.L.L.L.L.L.L.L.L.L.L.L.L.L.L.L.L.  :.:.i.p.:.X 1.6.6.6.6.6.$ 4.4.4.<.l   & Z.Z.Z.z.j.  L.L.L.L.L.L.L.L.L.L.L.L.L.L.L.L.L.L.L.L.L.",
"L.L.L.L.L.L.L.L.L.L.L.L.L.L.L.L.L.L.L.L.L.L.L.  $.:.:.#.$   h 4.5.6.4.  4.4.4.<.z     J.Z.Z.j.  L.L.L.L.L.L.L.L.L.L.L.L.L.L.L.L.L.L.L.L.L.L.",
"L.L.L.L.L.L.L.L.L.L.L.L.L.L.L.L.L.L.L.L.L.L.L.L.          l 3.4.k   h 4.4.4.l <.< L.  G.Z.j.O.  L.L.L.L.L.L.L.L.L.L.L.L.L.L.L.L.L.L.L.L.L.L.",
"L.L.L.L.L.L.L.L.L.L.L.L.L.L.L.L.L.L.L.L.L.L.L.L.  5 v.8   O <.j g 4.4.6.4.2.<.<.  L.L.  X.    L.L.L.L.L.L.L.L.L.L.L.L.L.L.L.L.L.L.L.L.L.L.L.",
"L.L.L.L.L.L.L.L.L.L.L.L.L.L.L.L.L.L.L.L.L.L.    A.A.H.J.J.O   9   1.4.4.4.1.<.O       L.L.L.L.L.L.L.L.L.L.L.L.L.L.L.L.L.L.L.L.L.L.L.L.L.L.L.",
"L.L.L.L.L.L.L.L.L.L.L.L.L.L.L.L.L.L.L.L.L.  = A.  r.A.A.A.A.    r.h 4.4.1.<.  @   0.  L.L.L.L.L.L.L.L.L.L.L.L.L.L.L.L.L.L.L.L.L.L.L.L.L.L.L.",
"L.L.L.L.L.L.L.L.L.L.L.L.L.L.L.L.L.L.L.L.L.L.  r.J.  c A.A.A.o /     <.<.<.: 0     r.  L.L.L.L.L.L.L.L.L.L.L.L.L.L.L.L.L.L.L.L.L.L.L.L.L.L.L.",
"L.L.L.L.L.L.L.L.L.L.L.L.L.L.L.L.L.L.L.L.L.L.L.  x A.O & A.A.c G u = g $     b 0.= r.  L.L.L.L.L.L.L.L.L.L.L.L.L.L.L.L.L.L.L.L.L.L.L.L.L.L.L.",
"L.L.L.L.L.L.L.L.L.L.L.L.L.L.L.L.L.L.L.L.L.L.L.L.  o A.4 O b.  Q !       = r.r.o v.n L.L.L.L.L.L.L.L.L.L.L.L.L.L.L.L.L.L.L.L.L.L.L.L.L.L.L.L.",
"L.L.L.L.L.L.L.L.L.L.L.L.L.L.L.L.L.L.L.L.L.L.L.L.L.    A.C     Q A.      t.r.r.  r.  L.L.L.L.L.L.L.L.L.L.L.L.L.L.L.L.L.L.L.L.L.L.L.L.L.L.L.L.",
"L.L.L.L.L.L.L.L.L.L.L.L.L.L.L.L.L.L.L.L.L.L.L.L.L.L.L.  D.A.  S 6   L.N t.r.r.  r.  L.L.L.L.L.L.L.L.L.L.L.L.L.L.L.L.L.L.L.L.L.L.L.L.L.L.L.L.",
"L.L.L.L.L.L.L.L.L.L.L.L.L.L.L.L.L.L.L.L.L.L.L.L.L.L.L.L.  A.J.    L.  9.v.r.r.O r.  L.L.L.L.L.L.L.L.L.L.L.L.L.L.L.L.L.L.L.L.L.L.L.L.L.L.L.L.",
"L.L.L.L.L.L.L.L.L.L.L.L.L.L.L.L.L.L.L.L.L.L.L.L.L.L.L.L.L.  b.    L.L.& v.r.3 v.C L.L.L.L.L.L.L.L.L.L.L.L.L.L.L.L.L.L.L.L.L.L.L.L.L.L.L.L.L.",
"L.L.L.L.L.L.L.L.L.L.L.L.L.L.L.L.L.L.L.L.L.L.L.L.L.L.L.L.L.L.    L.L.L.  r.r.  v.  L.L.L.L.L.L.L.L.L.L.L.L.L.L.L.L.L.L.L.L.L.L.L.L.L.L.L.L.L.",
"L.L.L.L.L.L.L.L.L.L.L.L.L.L.L.L.L.L.L.L.L.L.L.L.L.L.L.L.L.L.L.L.L.L.L.L.  r.  t.  L.L.L.L.L.L.L.L.L.L.L.L.L.L.L.L.L.L.L.L.L.L.L.L.L.L.L.L.L.",
"L.L.L.L.L.L.L.L.L.L.L.L.L.L.L.L.L.L.L.L.L.L.L.L.L.L.L.L.L.L.L.L.L.L.L.L.L.    0.  L.L.L.L.L.L.L.L.L.L.L.L.L.L.L.L.L.L.L.L.L.L.L.L.L.L.L.L.L.",
"L.L.L.L.L.L.L.L.L.L.L.L.L.L.L.L.L.L.L.L.L.L.L.L.L.L.L.L.L.L.L.L.L.L.L.L.L.L.L.    L.L.L.L.L.L.L.L.L.L.L.L.L.L.L.L.L.L.L.L.L.L.L.L.L.L.L.L.L.",
"L.L.L.L.L.L.L.L.L.L.L.L.L.L.L.L.L.L.L.L.L.L.L.L.L.L.L.L.L.L.L.L.L.L.L.L.L.L.L.L.L.L.L.L.L.L.L.L.L.L.L.L.L.L.L.L.L.L.L.L.L.L.L.L.L.L.L.L.L.L.",
"L.L.L.L.L.L.L.L.L.L.L.L.L.L.L.L.L.L.L.L.L.L.L.L.L.L.L.L.L.L.L.L.L.L.L.L.L.L.L.L.L.L.L.L.L.L.L.L.L.L.L.L.L.L.L.L.L.L.L.L.L.L.L.L.L.L.L.L.L.L.",
"L.L.L.L.L.L.L.L.L.L.L.L.L.L.L.L.L.L.L.L.L.L.L.L.L.L.L.L.L.L.L.L.L.L.L.L.L.L.L.L.L.L.L.L.L.L.L.L.L.L.L.L.L.L.L.L.L.L.L.L.L.L.L.L.L.L.L.L.L.L.",
"L.L.L.L.L.L.L.L.L.L.L.L.L.L.L.L.L.L.L.L.L.L.L.L.L.L.L.L.L.L.L.L.L.L.L.L.L.L.L.L.L.L.L.L.L.L.L.L.L.L.L.L.L.L.L.L.L.L.L.L.L.L.L.L.L.L.L.L.L.L.",
"L.L.L.L.L.L.L.L.L.L.L.L.L.L.L.L.L.L.L.L.L.L.L.L.L.L.L.L.L.L.L.L.L.L.L.L.L.L.L.L.L.L.L.L.L.L.L.L.L.L.L.L.L.L.L.L.L.L.L.L.L.L.L.L.L.L.L.L.L.L.",
"L.L.L.L.L.L.L.L.L.L.L.L.L.L.L.L.L.L.L.L.L.L.L.L.L.L.L.L.L.L.L.L.L.L.L.L.L.L.L.L.L.L.L.L.L.L.L.L.L.L.L.L.L.L.L.L.L.L.L.L.L.L.L.L.L.L.L.L.L.L.",
"L.L.L.L.L.L.L.L.L.L.L.L.L.L.L.L.L.L.L.L.L.L.L.L.L.L.L.L.L.L.L.L.L.L.L.L.L.L.L.L.L.L.L.L.L.L.L.L.L.L.L.L.L.L.L.L.L.L.L.L.L.L.L.L.L.L.L.L.L.L.",
"L.L.L.L.L.L.L.L.L.L.L.L.L.L.L.L.L.L.L.L.L.L.L.L.L.L.L.L.L.L.L.L.L.L.L.L.L.L.L.L.L.L.L.L.L.L.L.L.L.L.L.L.L.L.L.L.L.L.L.L.L.L.L.L.L.L.L.L.L.L.",
"L.L.L.L.L.L.L.L.L.L.L.L.L.L.L.L.L.L.L.L.L.L.L.L.L.L.L.L.L.L.L.L.L.L.L.L.L.L.L.L.L.L.L.L.L.L.L.L.L.L.L.L.L.L.L.L.L.L.L.L.L.L.L.L.L.L.L.L.L.L."
};
