/* XPM */
static char *result[] = {
/* columns rows colors chars-per-pixel */
"64 64 172 2 ",
"   c #050506",
".  c #090605",
"X  c #090A07",
"o  c #060609",
"O  c #08070C",
"+  c #06090A",
"@  c #0B0B0C",
"#  c #130B03",
"$  c #190D07",
"%  c #120F0A",
"&  c #0F100F",
"*  c #1A1205",
"=  c #11110E",
"-  c #1C140B",
";  c #1E190D",
":  c #0E0E11",
">  c #110F12",
",  c #0F1113",
"<  c #131314",
"1  c #1A1613",
"2  c #161817",
"3  c #1E1A13",
"4  c #161619",
"5  c #18171C",
"6  c #16191A",
"7  c #1B1B1C",
"8  c #241706",
"9  c #231A0D",
"0  c #291E0E",
"q  c #251D13",
"w  c #2A1E14",
"e  c #241E1A",
"r  c #1B201C",
"t  c #25200E",
"y  c #262015",
"u  c #2B2215",
"i  c #24211B",
"p  c #2D241A",
"a  c #2E291D",
"s  c #322516",
"d  c #32261A",
"f  c #382618",
"g  c #332A1D",
"h  c #392C1D",
"j  c #37301E",
"k  c #38301F",
"l  c #1E1D21",
"z  c #201F23",
"x  c #1F2124",
"c  c #232324",
"v  c #2A2622",
"b  c #2C2924",
"n  c #252529",
"m  c #28272B",
"M  c #27282C",
"N  c #2B2B2D",
"B  c #322721",
"V  c #352C22",
"C  c #392E23",
"Z  c #312E2B",
"A  c #3C2F28",
"S  c #2E302F",
"D  c #363023",
"F  c #3B3225",
"G  c #3E3826",
"H  c #34322C",
"J  c #3D342A",
"K  c #3F382A",
"L  c #2E2E31",
"P  c #312F34",
"I  c #2E3034",
"U  c #323234",
"Y  c #3B3732",
"T  c #363837",
"R  c #3D3934",
"E  c #353539",
"W  c #38373C",
"Q  c #37383C",
"!  c #3A3A3C",
"~  c #423426",
"^  c #443927",
"/  c #42362A",
"(  c #453A2C",
")  c #4A3D2E",
"_  c #503F2E",
"`  c #443C32",
"'  c #4A3E31",
"]  c #423D39",
"[  c #513F31",
"{  c #46402E",
"}  c #4A412F",
"|  c #51442F",
" . c #474030",
".. c #4D4233",
"X. c #44413C",
"o. c #4C443C",
"O. c #524435",
"+. c #584735",
"@. c #534836",
"#. c #5A4936",
"$. c #534639",
"%. c #584638",
"&. c #554A3A",
"*. c #5B4C3C",
"=. c #5A503E",
"-. c #604D3E",
";. c #3E3E42",
":. c #403F44",
">. c #434244",
",. c #4C4A45",
"<. c #454449",
"1. c #4D4D49",
"2. c #534C44",
"3. c #5D4E41",
"4. c #534E4A",
"5. c #4F5047",
"6. c #575047",
"7. c #5D5242",
"8. c #54514C",
"9. c #59524B",
"0. c #545553",
"q. c #5E5952",
"w. c #604F40",
"e. c #615344",
"r. c #635946",
"t. c #65564A",
"y. c #64594A",
"u. c #695D4D",
"i. c #645C53",
"p. c #6A5E51",
"a. c #6D6455",
"s. c #66635E",
"d. c #716556",
"f. c #706758",
"g. c #74685A",
"h. c #7B6E5F",
"j. c #656562",
"k. c #6A6763",
"l. c #6A6A65",
"z. c #69676C",
"x. c #6C6A6B",
"c. c #736F6C",
"v. c #73716E",
"b. c #747574",
"n. c #7A7876",
"m. c #7B7C7A",
"M. c #82827E",
"N. c #848482",
"B. c #898A86",
"V. c #8D8C8B",
"C. c #908F8D",
"Z. c #8C9192",
"A. c #959393",
"S. c #9D9796",
"D. c #9B9A98",
"F. c #A6A4A0",
"G. c #A9A6A2",
"H. c #ADADAC",
"J. c #B0AEAA",
"K. c #AEB1AD",
"L. c #B2B2AE",
"P. c #B3B3B1",
"I. c #B9B6B4",
"U. c #B9B8B5",
"Y. c #BDBDBB",
"T. c #C2BEBC",
"R. c #C2C1BD",
"E. c #C4C3C1",
"W. c #C6C8C7",
"Q. c #CBCACA",
"!. c #CED0CD",
"~. c #E3E2E1",
/* pixels */
": 7 < l P c z < l E x @ c L c = : 7 L l l M 7 @ M n M < n 4 N , @ 7 < c m c m + c E z @ c U l + 7 c P 7 M n 7 @ n c m : l 4 T @ ",
"L c P U U U ! ! ;.;.>.;.>.E ! ! L L Q E E E U U E I L E M Z L I I c P E E ! >.! :.! :.P >.! ;.! N N E U E U T L Q E L L L M L L ",
"c c l < @ > 4 : l 4 < < > < < 4 I l l , l > < 6 , @ O : + @ + : M M l 4 o 7 7 @ 7 7 4 @ 4 < 5 < L 5 l < 7 4 < , @ @ @ @ O X O + ",
"n L c < 4 5 4 o < 5 + : @ 4 + & L 4 : 4 < : l l o 7 < l @ n l o l M l z 4 7 4 o 4 4 O : + 7 O = c < < < < < l 7 O l 4 n < n 7   ",
"m L c < o : n < m @ + n 7 m v M N l : + l < < < < c H m c N m ] >.<.T v c c U v 7 < > c 7 n U c M l @ @ N = 4 <   < n , O 2 + c ",
": I l 4 4 c < : 7 7 7 n 7 c : @ N m , @ 4 ] J ' g ..&.O.@.} ' ' ..' ..@.O...F h ( Z c c 7 x @ @ c n < @ 7 n < 7 7 x 6 5 > 4 4 l ",
"l l l 4 5 < > O + + o o o + + + @ 6 < @ Y ( @.' V d ` &.=.O.} ` { O.&.e.G F 9 $.@.) ( 7 + + o   @ < @ @ 1 @ < @ x 6 l 6 , 4 , l ",
"4 O 5 U : < z l z 5 n M c U ! Q U ! ! q.3.@...} { q &...*.O.......' $.@.&.g g @...@.7.q.J U U ! M P U E U S ! N U L c c 4 c n M ",
"< c 7 X 4 X 4 6 < z l M n 4 O O c H K ..@.7.$.( ..p ..O.*.) ..' ) ....7.} d O.( @.*.@...=.1 6 < 7 7 n & < 6 7 X l l c m 4 < 4 X ",
"7 l c l c L l l U z l l , , l < R @.y ( &.......} g V =.*.( ' ( ) ) &.7.&.p ....o...@.*.9 ..{ b 7 @ < 7 7 & x < l L N 7 < X + < ",
"l 4 7 < < @ i L L l M n 4 4 l Y ..$.$.9 $...e.) } ..g &.&.O.O...o.' &...` ( ' ( 7.@.*.q ....O. .Y 4 x 6 v n U 1 c L m N c 4 < < ",
"@ 7 H 4 n m 7 @ n c M o 7 n &.%.$...( $.y @.7.=.' V - e e q e p p p g p q p / 3.r.&.B ..( ....&.O.6.i n N 7 n   l L l : c n e X ",
"U L ! E ! ! ! U E E Q E ! &.O.$.$.&...O.( g ..p q % p e F i p p p F ( ' g y q y ( ( B ....&.$.=.....8.! ! ! <.;.:.! <.:.<.X.>.;.",
"I c l < 7 < 4 4 X + + 1 F F $.$.......} ' q 9 1 y K F B =.V K / y / d O.H C V p y 3 / ( ......&.@.( ( ! @ & 7 : < 4 < @ < < < 4 ",
"L 4 , < 4 @ c 4 + 7 7 o.) p a ..7.O.e.&.' e 3 g G V C p *.g V g w g p +.V C F ( q y ( @.7.=.*.&.g w ^ ..R 7 < X < 4 @ < : 7 @ : ",
"P M < @ c 7 c + @ 7 2.) @.o.V ; ` / =.$.y e D s F J V g *.V Z.B * M.,.O.V B J } u g q / 7.( ( u d ' ..$.` H S 1 m % , M 7 N N L ",
"M n < + 7 N < 7 z 2.( &...' $.' - ..*.1 y J / d h ` ( d *.a ( g w R s @.g ' ( ~ d J C ; ..3.9 D $...' 2.) e.Y & 2 i 4 n l n   @ ",
"@ < < @ 7 < < < R } *.O...' O.....p 1 w / V ' u /  .C s *.B p g u w C @.s A ( ) d ( J F - y / ....' ..$.*...o., : o o @ + @ + + ",
"M H S U U P T c ` *.O.7...) O.) &.y # *./ G ) f F / V u e.C b ~ u d Z @.d A F ) s ~ ( C o.y ..' ......*...&.$.] l 5 M n c U U U ",
"n 7 c < 4 7 c p 7.......} e.*.@.q < d *.V g ) s F J F a w.F V ( u C A @.d A F ~ s ^ V g &.9 g ` &.y.O.( &...( 6.l x L M U 4 @ O ",
"4 1 < 7 1 X 1 g 7.y.$.{ @...3./ % J g *.J p ) s k ' J u e.V p d y u g %.a J ( ^ s / d F +.p 9 F $.&.( =.F p.e.} ;.l l 4 > < c O ",
"+ @ 7 7 n n T @.....g.&.V o.$.y B ~ / #.F a ) s F F F a *.w n.d 9 v.` [ V F V ^ s G g F O.O.g u ..*.( C h...O.} Y l M n 4 < > X ",
"< c % c N 7 X.@.....) e.u.D V - J A ( #.D g ) s / D F d *.g k.h 8 s.` $.B F V ) d ~ V V O.[ F 9 F V ..a.^ O.} ../ n n , 5 : M @ ",
"I m ! T ! ! ,.=.{ $.( @.} 2.y p C A ) #.V g ) s } V J V w.g y d p q C %.F J V +.d K V V +.O.V F q ` =.3.~ O.O.O.' ;.;.E L E E U ",
"x n l : O % Z *.*.....o...D 4 G C A ) #.B h G s _ B D g w.B g o.y d g %.g C B #.w A B g +.O.V V g p ) ..O.} O.&...o o     o o O ",
"x M n 4 < l Z *.*.) ..O...p y F g A ( #.B g J w _ p F p 7.d f ( u d h @.d F p *.u C V B O...C g g y / 3.) ..&.*...7 7 7 + l < O ",
"M L n 4 @ < ] ( O.*...&.&.d - - h g ) #.J C F w ^ p ` p *.V v g t g p O.d ' d ' u A J J | _ g d B q ..7.) *.&.~ =.r n 6 + : O M ",
"> E 7 4 7 c Z / ~ ( / / ~ q >.s.' d ) -./ F J u ) ` ( p *.F Z.g 9 M.1.O.g ` / [ w F J / +._ u 2.V.- J ~ G ( F / ) n 4 7 : 4 < 7 ",
"l 5 7 4 < 4 Z e.r.7.7.O.7.g ; ; ' B ) #.F F J s ) / A B %.A F V u J d O.V V / ..p F G / | O.p G J y =...=.*.r.=.=.7 x 7 < 6 < l ",
"4 @ 7 P < 4 T &. .( ......p - t / u ~ ) d s p 9 f u g w ..d p / p y p } B g u ~ - d p B ~ ~ y J q y ( ' O.( ..O...I c c l c m M ",
": 7 4 > 4 @ J O.........$.a ,.0.j.n.N.D.P.U.U.P.T.H.A.N.b.z.8.6.u ,.s.j.m.V.D.T.L.U.L.Y.G.C.m.l.c.V ) $.O...O.@.&.c v x 2 1 < @ ",
"l l c c 7 L X.t.7.{ 7.r.@.a N W.N U N e H.U n 7 T.! N Z c J.z.] 0 T W.n H N 7 Y.r n 1 Q.i N L l ~.Y G 7.r...&.y.&.U N c @ @ X 4 ",
"z 7 5 < @ : ] / ..&.) $.@.p = 7 @ < % < = = < X v = = < @ c < y 9 @ v + 4 < = e   < . b = < = @ b q o.3.~ *.O.F 7.U m Z n 4 < : ",
"4 l P 7 n n Y / F ../ G ( q O.C h C g *.( C ' d ) / D V -.A V $.u F C @./ C / @.s ( F k +.C F d G q J ( D ..G F ..! c 4 N T c @ ",
"N L E T T E ,.p.g.a.d.7.7.a 9 g h ~ g #.G C F d ) ( K B -.F f B t p C %.F F / O.u / V F @.g F d p e *.&.a.a.g.u.y.:.>.! >.! ! ! ",
"P 7 l 4 z < Y ..^ ( ( } } p b H B f V e.( ' O.d ~ ( F V *.g 0.h 9 6.H @.F C / ..p ' ' ` *.g d a q.q ( ) { ( ) ) ) 7 < @ < < 4 4 ",
"m 4 < 4 7 @ X.O.) ..' ) $.B R 5.^ f g *.) u O.d ^ ( V D 3.g b.g 9 v.o.O.J F ( ) s ) s ( &.g s ` n.w o.' ..' ..O.&.7 @ 4 + 7 + < ",
"L c 4 @ r c ` e.7...3.y.O.a # u / C g -./ a O.s ( ( F B w.g w C w w B @.D J / ) s [ p / @.F f ( w q / 7.e.' &.y.*.< 7 n 7 c c n ",
"n x 4 @ 7 m R ..$.....&.$.a g F ( d p *.g J *.s h ` D B e.h A ' a g C @.V C ( ~ s @.J g *.u g ( V p ` 3...o.O.) =.l 5 v 7 z X @ ",
"  @ < @ 2 @ R $...7.......p ` D ..k p -.C F O.s F / G a e.B C ..u / B &.V F ( ~ s ' J C #.p V ` J w ..*.( *...( *.@   o         ",
"I T ! H U U 6.a.f.y.a.&.&.p p d / V u e.C C ' f ) V A d 3.g ~ F 0 F g O.C F V [ s ( A V #.p V / d q $...d.u.g.a.7.z I n L E U Q ",
"c 7 m 7 < 7 o.` ( ( ) ( ..p y p / g p -.g C ..p / C F C w.d ] g 9 X.C O.J C F ) s ) J B #.g h G o.q { ) ( ( ) ) } n L c M 4 : o ",
"< < 4 6 5 < o.$.} ....( ..d X.j.C h g *.g C ' s ^ C ~ B *.p V.g 9 m.4.[ F F C _ s ( / d *.B g Y V.q o.) ......O.@.n c c 4 < l o ",
"+ @ e 4 c M 9.3.&...&.7.*.b $ ; ( B V -.d ( ( f ( F / V *.C v g y g B %.J J F [ s G ` s &.V g K b u ( 7.*.' &.*.@.l M M 5 < @ O ",
": l @ n M n 6.$.&...@.=.o.p p V ( B g +.~ ( ) s ) J ( F e.C p / p s J @./ / / ) s / ..F O.D V ( u u ( 3.@.....$.e.n M @ l : L @ ",
"E n L E U U i...$.=...$.*.a F s ( s 9 O.k p k 9 f p C u [ w g O.t g g } d C g ~ 8 f d g ) y p F g u &.*.) 7.&.( 7.! L U n U E L ",
"c n l : @ > 2.` ....$.^ ( ; ,.j.l.b.m.S.I.I.I.J.T.F.A.m.l.v.0.8.p 1.x.k.m.B.D.T.K.I.J.R.F.V.m.k.n.p F G ........@., @ : O @ @ : ",
"l M c 5 < 1 ,.&.....@...*.b N Q.U H I e P.! n 3 R.! m H c K.x.] s T R.v N Z 7 E.c n 1 !.r H H l ~.H ....o.$.$.@...x < l @ x 5   ",
"n L l : + < 6.$.} ........a & & X = = 1 @ = < @ i < @ = @ 3 % i t @ 7   , = % 5 X < + 7 @ , = @ e q  .( $...) @.) v L @ < < o M ",
": L l : 4 c 2.&.O.$...@.&.V * s ~ ~ p e.V C ` f ) g G g -.J p h w u ~ &.F A g $.s ( F J *.g ~ F B p  .*.&...&.&.*.c 4 l : < 4 l ",
"l , l 4 4 4 o.7.7...&.7.' p Y 1.V B p 3.V C F s ( V F V *.V b.p 0 x.] [ J J d ..u F V D #.a g b b.; ( 7.*.) e.e.7.l l 5 < 4 7 l ",
"4 O l ;.: 5 9.( O.&.| $.*.d H X.F g V e.g F J y ^ V / V *.p l.g 9 k./ %.F F g _ u G C D #.V g D v.; o.7.^ *.7.F r.Q n c l x N m ",
": l 7 @ 6 + ] F C F ( C F q # d A h B e.F C ~ u ^ A F g -.f p d u q h +.F J g ) s J A C +.C B F w - V D J F V / } x n v 7 4 + = ",
"l z e n 7 L 2.e.r.*.t.&.3.B F F C g g -.D V J 0 / g F B e.g V ' u g F +.C F b _ p C B C @.C g g g p *.@.e.7.t.e.=.I m r = @ @ 7 ",
"l 4 7 < @ < 2.O.) ( O.) ` p F G J C g #.F g J y / F C g *.V h ( y h d O.B G V _ u J g G @.g g h ~ y ( ) ..' ( O.} T N N 7 @ < = ",
"@ 7 Q 5 n n o.o.} ) O...$.V $ - V g p *.V V F s ~ C C u 3.g p g 0 p y O.p F V ) u F C B @.a j p a p ..O.O.' $...*.T c < i I e X ",
"U E W ! ! ! q.y.r.@.u.e.' p <.s.p / V *.C C C w ( V V p *.V Z.B ; M.5...d D V } u F C C %.J F D B.9 G 7.y.*.7.u.3.>.>.;.<.;.>.! ",
"M l 5 4 4 < 2.` [ &.( &.O.d ; w ( / h *.C F F s ~ V k w *.B H p 9 K a O.d F V [ y F J g @.V ( C Y y ) e.F $.&.~ *.7 & % < < < < ",
"L 4 : : 4 < ` V g V ` ` ` p . q q Z y J q p V u F q q w O.Z q p p p V ` u V a ( # y y q C q B q $ 3 V J g ..` F F 7 + < @ 7 @ @ ",
"L l 4   l 4 7     7 M 7   4 @ n n I n 4   @ n : 7 < > Z n m c Z I z 4 o 7 7 5 @   4 c , @ < @ n M L c < o , n 5 c & @ N n n m P ",
"c M : o 5 P @ 7 l l < < : , < x O L l : 7 c < @ , z 4 v l z   X L M < X 7 M @ 5 7 c 6 7 < < 2 r , I 5 7 c n < % 4 7 7 c e c O O ",
": : 4 < 5 < < 4 l 6 x 7 < 4 4 l l l l 4 7 < < : +   +   @ + X O O < 4 & 7 : < 4 x 7 x , 4 6 < 7 l 5 l 4 5 5 < + % @ @ + @ @   o ",
"n I I L N N T N L c c 7 < 7 n x : O l E > < l < l 4 L l m L L U M L L I N m U n n c c 7 6 5 v c 4 @ 7 E : : 5 5 c 7 L l M L L Q ",
"v 7 n 7 7 7 c + L l r c @ < + , : l l : l O 4 o l l n c L 5 @ : c l i & 7 4 c : N x 6 r 6 < + @   l c : c o < > l n M N E 4 : o "
};
