/* XPM */
static char *result[] = {
/* columns rows colors chars-per-pixel */
"64 64 245 2 ",
"   c #11222F",
".  c #092638",
"X  c #062B3D",
"o  c #0B2B3D",
"O  c #15293A",
"+  c #08323B",
"@  c #12343D",
"#  c #052C43",
"$  c #0B2C43",
"%  c #082E4A",
"&  c #122C44",
"*  c #172F49",
"=  c #043244",
"-  c #0C3245",
";  c #05344D",
":  c #0B334B",
">  c #0A394E",
",  c #133345",
"<  c #13344B",
"1  c #1B364A",
"2  c #14394D",
"3  c #002F5A",
"4  c #043554",
"5  c #0A3553",
"6  c #023955",
"7  c #0B3A54",
"8  c #02365B",
"9  c #0C3758",
"0  c #013A5A",
"q  c #0A3C5A",
"w  c #133951",
"e  c #153955",
"r  c #273B44",
"t  c #2C3E4C",
"y  c #2A3E52",
"u  c #303E51",
"i  c #013D61",
"p  c #093C61",
"a  c #02465B",
"s  c #00445C",
"d  c #10415E",
"f  c #274449",
"g  c #2B414E",
"h  c #2B4453",
"j  c #2D4954",
"k  c #284558",
"l  c #364850",
"z  c #374857",
"x  c #3A645D",
"c  c #014161",
"v  c #0B4C67",
"b  c #13506A",
"n  c #015E72",
"m  c #274A62",
"M  c #334F61",
"N  c #3B5865",
"B  c #15646F",
"V  c #016273",
"C  c #196673",
"Z  c #186773",
"A  c #1B6974",
"S  c #3C6665",
"D  c #29777E",
"F  c #424E59",
"G  c #465658",
"H  c #486257",
"J  c #495C66",
"K  c #4B5E6A",
"L  c #426567",
"P  c #19837E",
"I  c #0F7886",
"U  c #157C85",
"Y  c #187B88",
"T  c #1C7B8B",
"R  c #197D90",
"E  c #287886",
"W  c #2B7C84",
"Q  c #2B7B89",
"!  c #367B86",
"~  c #337C84",
"^  c #207C90",
"/  c #697C87",
"(  c #6C7D89",
")  c #08878D",
"_  c #1B8383",
"`  c #15848D",
"'  c #1C848B",
"]  c #18888B",
"[  c #0C8696",
"{  c #048B95",
"}  c #0B8A94",
"|  c #06869B",
" . c #0C879A",
".. c #058C9B",
"X. c #0B8A9B",
"o. c #138594",
"O. c #1B8692",
"+. c #138A95",
"@. c #12869A",
"#. c #19839E",
"$. c #12899B",
"%. c #1A8B9C",
"&. c #059198",
"*. c #0D929B",
"=. c #129398",
"-. c #24828B",
";. c #29848D",
":. c #34848D",
">. c #39848A",
",. c #388892",
"<. c #2A989B",
"1. c #3B969A",
"2. c #3D9D9C",
"3. c #2DA59F",
"4. c #37A19D",
"5. c #0C86A1",
"6. c #058CA1",
"7. c #0B8AA1",
"8. c #188AA3",
"9. c #0B91A3",
"0. c #1695A3",
"q. c #3A9CA7",
"w. c #3E9FB0",
"e. c #2EA5A3",
"r. c #2CA9A5",
"t. c #2EA6AA",
"y. c #33A4A4",
"u. c #3AA2A5",
"i. c #33A8A7",
"p. c #34A3AB",
"a. c #3CA3AB",
"s. c #35A5B1",
"d. c #448D98",
"f. c #4C9496",
"g. c #429C9C",
"h. c #49989A",
"j. c #539496",
"k. c #599995",
"l. c #529598",
"z. c #539B9B",
"x. c #5C9B9C",
"c. c #6B868C",
"v. c #708F94",
"b. c #679799",
"n. c #49A19D",
"m. c #58A29E",
"M. c #75A39C",
"N. c #439DA3",
"B. c #409FAA",
"V. c #599DA7",
"C. c #5C9DA4",
"Z. c #619BA1",
"A. c #44A3A5",
"S. c #57A3A5",
"D. c #41A4B1",
"F. c #66AAAA",
"G. c #70A9AF",
"H. c #68B4BB",
"J. c #77B9B9",
"K. c #7ABDC4",
"L. c #7BCED7",
"P. c #7ED1D8",
"I. c #A7B1B7",
"U. c #A9B6BB",
"Y. c #AEBAC2",
"T. c #B2BDC5",
"R. c #83D1D7",
"E. c #99D4DB",
"W. c #ACC7CC",
"Q. c #B5C7CC",
"!. c #ADC9D1",
"~. c #B8CBD5",
"^. c #AAD8DB",
"/. c #B3D6DB",
"(. c #B7D5DB",
"). c #BBDADD",
"_. c #98D7E0",
"`. c #A7DCE7",
"'. c #BADDE4",
"]. c #9CE5E6",
"[. c #A7E5E7",
"{. c #BBE5E7",
"}. c #BDE6E9",
"|. c #B6EBEB",
" X c #BCECEC",
".X c #BDF1F0",
"XX c #C4C9D0",
"oX c #C2D5DC",
"OX c #CBD4DC",
"+X c #C7D8DD",
"@X c #D6DBDD",
"#X c #D7E2DF",
"$X c #CBDBE2",
"%X c #D4DCE5",
"&X c #C2E3E5",
"*X c #CAE4E8",
"=X c #C4EBEC",
"-X c #CAECEC",
";X c #D3E2E6",
":X c #DCE5E5",
">X c #D6E7EA",
",X c #DBE5E9",
"<X c #DDEDED",
"1X c #C8F2EC",
"2X c #D3F1ED",
"3X c #D9F1ED",
"4X c #CAECF1",
"5X c #D7ECF2",
"6X c #CAF7FA",
"7X c #D6F4F3",
"8X c #DCF3F3",
"9X c #D9F9F6",
"0X c #D3F5FB",
"qX c #DBF5FB",
"wX c #D4FBFD",
"eX c #DCF9FB",
"rX c #E7E6E7",
"tX c #ECE4E5",
"yX c #E4EAE5",
"uX c #EAEAE6",
"iX c #E5EBEC",
"pX c #ECEDEC",
"aX c #F2EBE5",
"sX c #F3E6E8",
"dX c #F2ECEB",
"fX c #F9EAED",
"gX c #EBF3E7",
"hX c #E5F2ED",
"jX c #ECF1EC",
"kX c #F2F1ED",
"lX c #F9F0EC",
"zX c #E4ECF2",
"xX c #EBEDF2",
"cX c #E6ECF9",
"vX c #EBEEFA",
"bX c #F2EDF2",
"nX c #F6ECF8",
"mX c #E4F3F3",
"MX c #EBF3F4",
"NX c #E3F5FA",
"BX c #EBF3FA",
"VX c #E4FAFA",
"CX c #EAF9FB",
"ZX c #F2F2F4",
"AX c #F4F3F7",
/* pixels */
"0 mXp.NXpXN 6 ).l dXX.W @ 4 fXX.{ sX8 + Q | dXj.|.y.F.iXmXt.qX4 6 mXp.mXiXS.r.|.k.dX{ W X 8 uX .X.kX0 $ D { vXz +X8 J zX8Xy.BX6 ",
"NXu.g.aX- 5 XXj 0 uX4X{ 6XW *.6...9.W 0X..-XAXq.F.+Xe.A.uXU.6 MXBX4 I.xXA.r.&Xb.t.xX5X..0XW 9.X. .*.W 0X{ 4XdX0 j Q.4 ; aXN.A.BX",
"p.A.jXBX0 hX} d.6 @ pX! ~ $.1XhXjX1X[ D ~ pXh.r.J 6 uX0 *X6 Y.0 8 U.6 *X8 bX6 J y.f.pXW Q } -XsXdX X[ W ! pXO 6 d.$.<X6 BXjXA.p.",
"mXfXMX5X: VX=.{.!.o wX} 9XdXuXh.h.sXdXwX} qXj.].).6 CX- BXX VXo.` VX. BX$ VXq /.[.j.wX} 7XpXuXz.l.sXbXwX) wXo !.&X*.VX2 5XAXaXNX",
"pX% 8 $ 6 4 6 g 5 G hX=.] mXp.y.3.q.mX' ) MXM.i.x.0 6 ; CXX.X.7.6.| X.CX4 6 q C.p.b.MX+.-.hXq.y.a.a.mX] { hXG 9 h q 5 6 , 0 5 pX",
"N 4 <XCX4 kX2 oXt jXL.@.nX7Xy.uXuXe.9XnX .L.bXx.yX4 pXO.X.H.4 E E 6 K.[ ' jX> >Xx.pXR.X.bXeXy.bXxXe.7XnXo.L.pXt OXw dX4 VX<X5 M ",
"6 XX{ *.9 , dXv.-X^.vXiXfXa.g.6 6 4.2.fXBXBX_.}.W.6 8X8Xo.n ) BX<Xo.V R 5XqX6 W.}.^.BXMXbXu.4.6 6 g.u.fXuXBX^.=Xv.aX, 6 *.} XX0 ",
"oXj ,.'.j OXc.2.m.t.y.V.>X-Xh (.~.g -X2X;.{ } m 7   $.o.c =XAXZXnXCX=Xc o.X.  e k { [ :.2X-Xh ~.~.k -X2XS.u.s.m.2.v.OXg '.,.h oX",
"l 6 5 !.5 t -Xz.M.$ k.(.dXzX8 = = 8 <XpX^.! o H g CX}.[.,.Q OX0 6 OX! ! [.&XMXj G $ ~ ^.uXiX6 % # 0 pXkX/.k.o M.z.-Xt 4 ~.4 i l ",
"pXkX, o G pX[.p.$ 6 >X6 2 6 pX( ( kX4 w 5 >X6 : 0 :  .s @.F.= 0 6 # G.$.a ..= 0 $ 6 :X4 e 0 rX( ( pX0 7 6 >X6 $ y.[.aXF o , sXuX",
"} -XkX0XMXR.zX<.x.>X4 o pX-._ $. ._ -.MXo 5 ,Xj ; uXBXU #.` hXq 0 iXo.%.T NXjX; t ,X> o BX-.-.5.7._ ;.pX+ 5 >Xb.2.zXR.NX6XpX5X..",
"E &.D } ) @.xXC.).6 o X Y *. .o.%.o.{ R $ o 4 XX$ : X...b O.zXdXuXZXO.v {  .; o ~.4 o # Y } } %.%.[ ..Y o o 6 (.S.iX| [ { ! &.! ",
"@ 6XW 7X_ nXfX2XuX2 xXT 6.A 0 ,.,.s C ..-.MXw dXf 0 pX8XR c 9.eXwXX.a @.8XpX6 f dX2 MXU ..C s ,.,.s C 6.-.MX2 dXhXfXBX-.9XW 0X@ ",
"0 D } bXMX9Xp.&XBX6 ' } A $.7XjXpX7X .Z { -.0 ZX+X6 BXW  .Q 8 a c 0 Q  .W BX0 +XcX4 -.{ A [ eXuXrX9X$.C &.-.0 BX{.i.9XzXdX[ E 6 ",
"fX} 1XtXp.r.N.k 0 pX_  .c 7XU.$ $ U.MXa [ _ xX8 t - 4 4 bX .@.X...@.} sX4 4 $ h 0 pX_ +.0 NXU.$ $ U.8X0 o._ pX6 y n.3.t.dX X{ tX",
"..6.iXf.e.pX5 (.$ /  .%.,.jXo 6 0 $ uX,.%. .c.: =Xy.uX6 ;X4 ZX=X XBX6 ;X6 iXy.-X> (  .%.,.jX$ 6 6 o pX,.%.5.( # (.6 uXy.f.MX7.X.",
"..9.hXl.e.iX6 ~.- /  .%.,.rX- 6 6 # uX,.%.X.( - =Xr.uX4 MX5 q 0 0 q ; jX4 jXi.-X= / } $.,.yX$ 0 6 $ uX,.%. ./ # (.4 rX3.l.jX| X.",
"dX) 1XrXq.y.q.z 0 uX_  .0 NXU.- $ U.BXs } ' iX8 h g.i.s.tX:X8 bXdX8 >XtXq.i.h.h 8 rXP } s NXY.$ % U.NX0 $._ uX0 h N.e.q.tX=XX.dX",
"6 D { xXjX8Xu.=XBX6 -.X.Z  .3XpXpXmX[ B { -.6 vX=Xu.mXAXpXa.j.i.p.l.a.jXpXmXi.&XxX0 ^ } Z o.9XuXjXBX .A { ;.8 MX&Xa.eXhXdX[ W 0 ",
"+ 0XD 7X] nXfX2XdX> iXT &.B c ,.,.s C ..' jX> sX2XgXD.eX!.n.BXl.j.BXm.!.qXq.aX<XpXe iX' &.B i :.:.0 Z ..Y iXw dX1XfXAX] eXE 6X+ ",
"Q { ! o.{  .MX:./.4 . = U }  .%.%.} *.T = X 4 /.V.hXy.G.<XBX0 1 1 6 BXmXF.u.mXS./.6 o # I *.[ %.%.) *.' - o 4 /.! iXX.) } ! &.W ",
" .5XmXwXjXL.vX{ >.yX5 o MX-.U X. .' -.MX+ 9 8Xz.y.uXpX0 < i xX# $ pX0 : 0 pXfX3.z.3X5 # iX-.P ..X._ _ MXo ; rX>...BXL.mXwXgX4X7.",
"jXAXh.j.M.xXE. .& 4 ,X4 < 6 uXc.( AX4 w 4 <Xt.g.0 % 6 @XxX- xX% : pX- bX@X6 - 0 1.y.5X4 w 0 rXc.c.uX0 w 6 ,X8 - } E.dXM.z.z.kXkX",
"b.s.e.].p.Z.{.m J o h !.sXiX0 : # 8 5XdX(.z.g.S k AXpX5 dXZX* . . , bXpX6 xXZXj S 1.z./.pXiX8 = # 8 zXtXQ.k X G m {.Z.i.].i.s.b.",
"|.x.J ).C.yXW.4 h 8 7 < r +Xj =X Xg =X2XV.3.0 M > Y.zXuX- 7 r m m r 9 $ pXzXT.% h 0 i.V.7X-Xk |. Xg +Xt < 7 0 h 0 !.yXx.).N m.|.",
"r.*X6 7 0 4 4   mX: kX7 0 0 , i.i.n.y.gXhXaX$ kXT.BX, & :X$ ,X,X5XzX< %X- * BXY.bX$ dXhXaXq.n.y.y., 0 0 7 pX: yXO 6 5 q 7 4 {.i.",
"F.r.pXCX6 uX0X@.}. .MX{ xXmX8 dXdXu.NXq.i.xX6 iXzX* jX$ rXZXq.e * q.cXpX$ dX& xXjX6 hXi.A.mXr.uXpX4 BXuX$.MX . X@.8XpX6 VXiXq.F.",
"MXq.0 $ ; U NX@.[.s Y ..2X~ 7 4 4 s.ZXeXF.0 @X9 uX- X aX|.6 bX`._.bX8 {.aX# : dXq @X8 G.wXBXw.4 4 4 ! 3X..U c [.+.VXU ; - 0 q.mX",
"mXpX*XMXmXX.O.a :.o.8.v R X.tX;XiXbXZX!.mX- bXsX- $XrX XxX` 9.6...5.} hX X<X%X- dXdX: xX!.jXtXZX;XbXX.R b 8.@.>.c R  .VXMX*XpXhX",
"s.Y.4 . X.H.n =X,.F.-.` a Q [ 4 9 :Xq.h.CX0 < AXe - iX8 } 6X7.J.J.6.6XO.6 xX$ : ZX: 0 CXz.a.:Xw 5 $.Q c ` ` G.>.=Xn H.X.+ 6 U.p.",
"8X6 I.NX..0 +.BXOX= 8XpX5.0 +.ZX7 8 j.cX0 uXpX1 1 zXq.pX0.| sXxXMXfX6.7.sX1.vX1 r xXyX6 vXz.4 c bX@.8 7.MXuX. oXBXO.6 X.7XI.4 mX",
"4 BX8 o.7.Q iXMX8 6 6 jXwX6 .. X0 dXp.l.2 # ; . k 5X* `.6.K.BX8 0 BXK.6.`.e <Xk o % X 2 C.s.sX0 =XX.a wXdX0 8 0 uXiXQ ..o.8 BX9 ",
"q zX0 O...E iXuX0 6 c uX9X0 X.=X8 dXp.f.2 # % . m >X< `.6.J.xX8 0 BXK...`.* >Xm o : # , C.u.dX0 =X{ a wXjXs 0 8 rXmXW ..o.8 BX7 ",
"NX6 U.BX..q +.BXOX= BXxX..0 @.BX5 8 f.BX0 tXpXk e vX1.rX8.5.fXrXxXfX6.9.pXq.BX* 1 pXuX6 cXl.8 6 ZX#.0  .bXBX# OXBXO.6 6.qXI.; NX",
"p.I.7 . X.H.V =Xd.F.-.T a Q  .6 9 :Xa.h.CX6 : ZX< $ xX6 } 6X6.R.L.5.6X` 8 xX$ - ZX- 6 CXh.p.:Xw 4 } Q s T T H.>.=Xn H.X.. 4 I.p.",
"8XMX*XBX8X .O.c ! @.8.b 8.7.dX%XMXsXjX!.hX: xXuX& $XgX.XjXo.7.6.{ { ` iX.XpX$X< uXxX- iX~.dXuXBX%XxX .8.b 8.@.:.a T X.NXBX*XpX<X",
"pXA.0 - ; ] qX$.[.a T { <XE 6 4 4 a.xX9XG.q @Xd xX5 o sX|.0 ZX`.`.pX6 |.uX# 4 uXq @X0 J.wXdXq.; 4 6 E <XX.U a [.$.qX_ 5 1 4 q.hX",
"S.s.bXCX6 jX5X$.}.7.BX..iXiX4 pXdXy.mXD.r.MX6 pXzX& dXo uXBXN.* * q.CXrX$ jX$ zXjX0 pXy.B.NXp.pXuX6 zXpX .xX . X .qXjX6 mXhXy.S.",
"r.$X6 w q 5 6   hX= dX7 0 0 , e.r.h.u.gXMXaX= BXT.xX, $ %X- cX>X5XxX& %X, * MXY.AX- dXMXaXi.g.e.y.< 0 6 d uX$ mX  6 5 6 e 6 &Xi.",
"|.m.M (.Z.%XW.; h 0 9 , r +Xj =X=Xh =X<XV.e.8 z 4 Y.xXdX$ 9 1 k k 1 7 - pXxXU.5 z 0 y.V.3X-Xg  X Xj $Xt : 7 8 j 5 W.:XS./.N m.|.",
"k.i.e.[.y.b.|.y G o g ~.sX<X0 : : 0 iXpX(.z.1.L h vXpX7 uXpXr o . & jXsX6 MXAXz x g.l./.pXyX8 : : 0 iXsXQ.y o J f {.b.a.].e.s.k.",
"kXZXj.f.b.bXE.{ & 6 :X6 w 4 pX( ( kX0 w 4 7Xy.1.0 % 0 @XbX: xX> % zX$ ZX@Xq $ 8 1.e.2X6 w 6 jX( ( jX0 2 8 ,X6 $ 6.E.dXb.z.h.fXdX",
"X.4XjXwXhXP.NXI ! >X5 o MX-.P  .X.P -.MX$ 5 2Xz.y.sXpX6 e 0 sX# # uX6 w 6 jXdXy.x.5X5 $ MX-.'  .X._ -.MX$ % ,X>.{ BXP.mX0XjX6X} ",
"~ { >.[ ) X.BX:./.6 . X Y *.[ %.%.@.*.U # $ 6 !.S.mXy.J.uXCX0 < 2 0 BXpXG.y.kXV.^.4 o # Y *. .%.%. .X.^ = o 6 /.:.iX7.} } ~ ..W ",
"o 0XE qX` nXbX2XuXw mX^ ..Z c :.,.c C &.T iX2 pX3XjXq.wX~.S.vXj.f.BXz.~.0Xu.hX3XdXw xXT ..B s >.:.s B | Y MX< jX2XdXnX' 9XW 6X, ",
"0 W [ dXxXmXa.&XMX0 -.{ A [ BXpXuX8X[ C } -.6 BX=Xu.zXpXjXp.f.p.u.f.a.ZXjX8Xi.&XBX6 _ { Z X.NXxXiXVX .A &.-.0 pX&Xy.VXmXkXX.D 6 ",
"sX&.=XtXq.i.2.h 8 pX'  .c 7XU.$ # Y.9Xs X._ uX0 k 4.e.p.uX#X8 bXsXi :XrXq.u.g.k 0 pX_ $.s 8XI.o o T.zXi  .U uX0 h 2.y.p.sX|. .sX",
" .9.xXl.3.uX4 (.: ( 7.%.,.pXX 6 0 $ dX,.@...( : 4Xy.uX4 xX> q i 0 p 7 iX6 dXi.=X# / $.%.,.MXo 8 6 $ MX,.%.6.( : ~.0 tXe.h.jX..X.",
" .0.dXl.3.rX4 ~.$ / 7.%.:.uX$ 0 6 $ uX,.%.X.( - =Xi.uX7 ;X5 AX&X=XZX4 %X4 kXe.-X# ( $.$.,.yXX 6 0 # uX:.%.X.( : (.8 uX3.f.pX9.X.",
"lX..1XuXD.y.2.h 8 pX_  .0 NXU.$ # U.8Xi  ._ pX6 h $ 4 4 MX@. .X.{  .@.pX6 4 , t 8 uX_ [ 0 NXU.$ $ I.qXc [ _ pX8 u 2.y.w.tX X..sX",
"6 Q [ xXjXNXu.=XMX0 ^ &.C o.qXpXpXVX .A { -.6 jX$X0 vX!  .E 6 a a 0 Q  .W MX8 +XiX0 -.X.Z  .eXjXuXqXo.A *.-.; NX&Xq.eXmXuX[ D 0 ",
"o wXQ qX` nXfX2XpXw jXT | B s :.>.i C ..Y MXd kXg 6 pX8X#.a ..qXeX8.a %.7XiX6 g sXw MXR ..Z 0 :.:.c A &.` hX2 pX8XsXbX] 9XD 0X@ ",
"-.{ ! } ) @.MXC.^.6 o + T *. .%.@.$.X.I : . 4 ~.$ 6  .{ b O.xXdXkXxX` b ..$.4 < Q.6 $ = U &.} %.o. .X.U ; o 8 (.C.iX$.) ) ~ { ! ",
"X.-XjX0XhXR.zX4.x.>X; $ MX-._ X.X._ -.MX$ > ,Xh 7 uXMXY #.` MX8 8 ZX] 8.U zXpX; g <X> $ MX-.P 5.5._ -.BX. > >Xb.4.zXR.MX6XjX4X .",
"bXZX< o J dX^.i.$ 6 ,X4 < 8 uXv.( pX6 2 6 ,X4 o 0 :  .s $.G.$ 6 8 # F.8.a X., i o 4 ,X4 e 8 uX( c.uX6 2 6 ,X4 $ i.^.dXJ & & pXxX",
"z 0 4 Q.4 t -Xn.I.o x./.kXiX8 # # 8 yXtX^.>.$ K h mX}.[.,.W oX8 0 OX! :.[. XhXj J % ~ /.dXiXi # $ 8 5XuX(.Z.X M.S.=Xg 5 !.7 4 z ",
"$Xj d.&Xt OXb.2.1.3.r.V.3X-Xg ~.~.h -X1X,.} | k d   @.$.c =XvXdXBXBX=Xa +. .  p f 6.{ :.2X-Xg oX~.y -X3XS.r.p.S.1.c.$Xl '.d.j ).",
"8 Q. .*.6 1 uXv.&X^.vXpXfXq.A.6 6 2.u.sXjXBXE.|.~.6 0X5X` n o.zXhXo.n R qX0X6 Q.{.E.BXmXdXu.g.8 6 g.y.fXiXBX^.&Xv.jX1 0 =. .Q.6 ",
"K 6 <XVX5 dXw OXt dXR.} vX7X3.uXuXa.qXnXo.P.dXb.yX: xX' $.K.4 Q E 6 H.$.` uX: :Xb.kXR.} vX7Xr.pXZXe.9XZX[ L.ZXz +X2 dX4 NX<X> J ",
"iX% p o 0 4 q t 6 l BX0.-.mXu.y.y.a.mX] ) MXM.i.C.q 6 ; VX..........X.VX; 6 q C.i.b.MX} ' jXp.3.y.A.hX] ) BXl 5 g 6 6 6 - i : iX",
"mXdXMX5X< NX0.'.!.@ 6X} 7XdXsXh.h.sXpX0X} 0Xm.].).: 8X2 BX+ 9XO.O.9XX BX& NXw (.[.z.0X) wXdXsXh.h.uXbX9X) 6XO !.'.=.eX, >XBXfXNX",
"p.N.pXAX6 8X{ d.q , dX! ;.} -XjXjX-X[ D ~ jXl.p.N 4 hX0 *X0 Y.8 0 U.6 ;X4 xX6 N i.z.hXd.W } .XhXjX=X} W >.jX, 5 g.} <X4 %X@Xf.p.",
"MXu.N.dX$ 4 XXl i kX-X{ wXW &..... .;.0X{ .XkXt.m.*Xu.A.zXY.; MXmX4 Y.iXu.e.*Xb.s.kX=X{ 0XW 0.| ..*.! 0X{ 4XsX3 r Y.# 7 tXg.q.BX",
"0 VXs.8XpXN 6 oXl jXX.D , 0 dXX.X.sX0 + W 7.gXz.|.s.S.iXmXp.VX0 7 NXp.mXmXF.r.|.k.pX*.W o 8 sXX.X.dX4 + ! $.BXF oX8 N xXmXp.BX7 "
};
