/* XPM */
static char *result[] = {
/* columns rows colors chars-per-pixel */
"64 64 216 2 ",
"   c #1E2C02",
".  c #232C05",
"X  c #282B08",
"o  c #253204",
"O  c #2A3406",
"+  c #253803",
"@  c #2C3C05",
"#  c #26320A",
"$  c #2B350B",
"%  c #2E3B0C",
"&  c #32340D",
"*  c #333C0C",
"=  c #312B11",
"-  c #2D3410",
";  c #2D3911",
":  c #353615",
">  c #373717",
",  c #333B13",
"<  c #3B3C14",
"1  c #3B361D",
"2  c #3D3A1B",
"3  c #3C3722",
"4  c #423C1D",
"5  c #433E22",
"6  c #453E2A",
"7  c #2B4000",
"8  c #314406",
"9  c #34430C",
"0  c #39420E",
"q  c #374B0E",
"w  c #3A4C0D",
"e  c #3D510E",
"r  c #354214",
"t  c #3B4413",
"y  c #364811",
"u  c #3C4C13",
"i  c #374118",
"p  c #3D421B",
"a  c #3C4A1A",
"s  c #3E5113",
"d  c #3D511C",
"f  c #41540D",
"g  c #424C15",
"h  c #42421B",
"j  c #45461A",
"k  c #434D1C",
"l  c #4C4D1C",
"z  c #435415",
"x  c #495116",
"c  c #455A15",
"v  c #495D16",
"b  c #44531B",
"n  c #4A541D",
"m  c #465A1A",
"M  c #4B5C1C",
"N  c #525D1E",
"B  c #4C6316",
"V  c #4B641B",
"C  c #4D621C",
"Z  c #51651E",
"A  c #536A1E",
"S  c #586F1F",
"D  c #57701F",
"F  c #59711F",
"G  c #454322",
"H  c #4A4425",
"J  c #454B22",
"K  c #4C4C23",
"L  c #4B4528",
"P  c #4E4A29",
"I  c #524D2C",
"U  c #445222",
"Y  c #4A5423",
"T  c #4D5C23",
"R  c #4F522C",
"E  c #4E5F2B",
"W  c #525424",
"Q  c #535C23",
"!  c #5B5F27",
"~  c #53542B",
"^  c #59562E",
"/  c #545C2B",
"(  c #5A5D2D",
")  c #534D32",
"_  c #565233",
"`  c #595534",
"'  c #575D32",
"]  c #5C5B34",
"[  c #5C563A",
"{  c #5E5A39",
"}  c #615C36",
"|  c #625D3D",
" . c #4E6221",
".. c #4E6329",
"X. c #536423",
"o. c #596525",
"O. c #556B23",
"+. c #5A6D25",
"@. c #55642A",
"#. c #5A642B",
"$. c #566A29",
"%. c #5B6C2B",
"&. c #5C7325",
"*. c #5F7825",
"=. c #5D732A",
"-. c #5F7928",
";. c #5D6332",
":. c #5E6B31",
">. c #5C6339",
",. c #5E7230",
"<. c #62642D",
"1. c #626D2D",
"2. c #617526",
"3. c #617926",
"4. c #61742C",
"5. c #6A752F",
"6. c #637B2B",
"7. c #687E2E",
"8. c #636634",
"9. c #636B33",
"0. c #696D35",
"q. c #64623C",
"w. c #68653C",
"e. c #656B3A",
"r. c #6B6B3C",
"t. c #716F3D",
"y. c #657333",
"u. c #6A7335",
"i. c #667C31",
"p. c #6A7C34",
"a. c #66723B",
"s. c #6C743B",
"d. c #6D7A39",
"f. c #727B35",
"g. c #72743D",
"h. c #737B3D",
"j. c #797E3D",
"k. c #645E41",
"l. c #666142",
"z. c #6A6444",
"x. c #6D6A44",
"c. c #6C6649",
"v. c #6E6949",
"b. c #706745",
"n. c #716C46",
"m. c #736D4C",
"M. c #786F4E",
"N. c #6D7342",
"B. c #6F7D41",
"V. c #747442",
"C. c #797746",
"Z. c #757B42",
"A. c #7B7C45",
"S. c #75724D",
"D. c #79744E",
"F. c #757B4A",
"G. c #7D7E4A",
"H. c #746F51",
"J. c #767152",
"K. c #7B7453",
"L. c #7D7954",
"P. c #7C7659",
"I. c #7E7959",
"U. c #807E4D",
"Y. c #817B55",
"T. c #84795A",
"R. c #827C5B",
"E. c #857E61",
"W. c #887F60",
"Q. c #67802D",
"!. c #69822E",
"~. c #678031",
"^. c #6B8233",
"/. c #6D8038",
"(. c #708534",
"). c #728936",
"_. c #73833D",
"`. c #748A3B",
"'. c #78913E",
"]. c #758342",
"[. c #7B8245",
"{. c #7C8B44",
"}. c #76834A",
"|. c #7D824B",
" X c #7C8A4A",
".X c #7E8352",
"XX c #85864B",
"oX c #82844C",
"OX c #84894D",
"+X c #848452",
"@X c #898654",
"#X c #858A52",
"$X c #8A8B54",
"%X c #86825C",
"&X c #8A825D",
"*X c #868A58",
"=X c #8D8E5A",
"-X c #908E5B",
";X c #8E9057",
":X c #92925B",
">X c #95985E",
",X c #868161",
"<X c #8A8363",
"1X c #8E8A64",
"2X c #8D886A",
"3X c #918766",
"4X c #928C6C",
"5X c #8D9166",
"6X c #959461",
"7X c #999663",
"8X c #999767",
"9X c #9A9A63",
"0X c #99926B",
"qX c #938E71",
"wX c #9B9375",
"eX c #ACA984",
/* pixels */
"O , # p * o $ 2 $ > $ , X . C ; 9 T @ + s ; ; r d m % % u m d  .+.s + y 9 # s c q 8 M  .d O.+ ; % # * U % % % O O * O O * & , > ",
"* O.=.s.i.X.M w.n.z.[ m.z.w. .+.V +.~.-.O.=.-.Q.Q.*.&.c &.Q.Z +.6.O.V &.-.V &.Q.F Q.X.-.D V &.^.+.6.3.Z =.C  .4.&.%.@.O.M C.+X, ",
"9 =.+.].6.&.M w.n.| ` n.l.{  .=.A A Q.7.&.O.Q.Q.*.`.~.C !.Q.=.O.Q.^.^.*.O.A ^.-.Q.O.X.=.^.&.O.*.6.6.6.=.c A &.i.^.=.A +.M G.G.- ",
"O &.D Z.&.C +.x.z.k.` | >.P s z V  .*.S O.B O.Q.!.D X.8 (.6.p.8 7 e e q 8 + A e y q s M &.Z &.A *.*.*.Z M O.=.&.7.X.N C z 8.<.$ ",
"a }.p.Z.=.4.4.%X<XR.P T s N.9 Z. XQ / %X<X_. X XL.%XY.I %X%X1X6.*.-.&.Q.&.B ^.-.D V B  .v %.} S.I.I.D.%XL.N.C.I.2XD.d.y.M @.:.E ",
"w ^.=.u.p.6.Z e.L.K.z i.].@.O.=.A < n r.] 7.(.7.h L.^ h L.D.S.S -.*.Q.&.A  .Q.-.&.&.V ,.(.4.S.S.J.K.J.K.w.S.x.P.V.#.=.=.O.+.V ; ",
"z A `.d.'.7.O.r.n.z.$ $.y.@.4.C =.> { ] ^ 3.2.6.h q./ l J.I.m.A ^.6.Q.*.&.s '.Q.+.O.m %.4.p.i.i.r.N.8.;.Q ! #.g.>./ 6.-.M @.=.% ",
"X &.3.u.7.6.O.M q.{ r =.d / X.+.X.& Y W ;.6.^.F H ;.v.> K.D.n.&.&.&.-.B B A -.&.=.C  .b @.O. .C b ; u z 6.X.u Q r.m.).*.c =.&.# ",
"& b X.T m w k w 8.x.z.I.m.M.V.oXoXZ./ B.0.u.1.+.| S.] 1 R.J.D.=.6.V X.A Z c 3.O.m X.b M | ` S C A X.V  .V +. .+.p.d.-X-X$Xj.j.o.",
", T n |.*X+XG.Z m 9.{ %X<Xq.$X$X$Xg 4.m c p.{.5.H R.x.5 R.%XD.Q.Q.=.Q.^.&.M 4.A A &.b l.m.w. .X.-.&.A c &.=.+.A 6.y.$X:Xj.XXOX* ",
"Q 1.u.0.:XG.V.z X.X.H R.I.m.G.+XA.%.c +.@.i._.1.P M.z.= K.,X+Xi.^.6.i.`.Z z O.6.M b O.K.l.Y T *.=.+.c O.+.O.M 6.2.].#XOX[.u.[.n ",
"t U.s.y.@X=Xr.s.S.w.J / / x.K.V.g.a d.u.#X#XA.+XR.R.I.H K.x.8.d. XoXu.[.%.h.[.1.0.#.z +Xt.y.m +.V  .u c F.|. Xh.s.9X$X;XA.X.2.o ",
"l -XV.9.G.G.t.K.I.M.k o.@.q.v.;.o.%.5.OXoX+X=X@XI.R.M.L K.K.w.[.oX9X:X;XOXZ.j.A.[.*X! :XA.u.+.6.A C m ] +X=XV.9.Z.7X7X#Xg.O.i.$ ",
"< %XL.J.8.N.8.m.z.l.g v X.9.r.y.Z n oX$X;XF.=X+XS.I.K.5 S.{ z.A.h.oX$Xj.oX0.A.U.j.G.0.oX[.d.+.Z C M Z ] .XA.Z.;.U.+XoXZ.o.O.C # ",
", +.O.d.T.S.x.X.M M z +.v @.Y X.%.* 1.u.%.m.<XL.z.z.l.4 D.m.S.h.s.s.y.%.1.h.#XOXXX:XG.%.B =.Z O.].T.n.H z.| [ q.v.x.*.C +.=.7.# ",
"* =.&.1.n.n.| o.M X.M S %.@.X.=.M * 4.C X.M.T.k.M.H.m.G I.c.n.OXg.s._.d.o.F.oX:XoXoXh.+.O.S V +.OXS.Y.H z.k.k.S.m.x.^.=.c +.i.o ",
"O X.i.T / q.W C n M b @.C @.T X.N , %.O.M w.l.| [ z.{ H c.z.x.j.[.s.d.d.o.h.G.1.Z.A.0. .X.=.-.6.+.X.Y 1 c.{ ) m.m.S.=.V M v ^.$ ",
"f c +.u.n #.Q D.z.c.r.A.=X|.n 4.+.t O.n l <XY.k.T Q X.I k.M.K.#.+.X.L.l.l.%.+.o.u.oXs.=.*.&.6.*.:.W } H c.| ` Z A @.O.6.c +.6.; ",
"X S &.%./ q._ L.Y.M.~ @X|.6XX.p./.* +.o.k T.K.k.@.M b 2 z.S.Y.+.o.Q x.l.#.i.^.7.%.j.s.=.-.^.6.*.h.v.M.H v.l._ X.C &.A +.z 4.^.$ ",
"% O.O.0.] x.k.| k.b./ r.n.|.4.M o.& o.m g K.K.` M n b : l.q.z.z T Q q.l.@.C O.6.o.o.#.B O.+.+.7.|.S.n.G k.l._  .m T B B w O.O.  ",
"R Z.B.@XI.T.m.P.3XT.H.,X<XeXwXW.<XY.1X%XW.E.K.m.[ 2X4Xz.<X2XJ.I.qXwX4Xx.m X.e.c.wX<XY.4XL.S.4X4XwXqX2XH J.J.l.,X<XqXT.,XI.=X|.i ",
"a Z.Z.G.M.K.k.m.W.K.I K.I.<XD.Y.M.1 I.T.m.k.c.m.L I.m.L K.m.K.H.J.J.%XS.W %.e.| L.K.z.z.M.m.I.K.,XK.K.5 R.L.z.%XR.S.l.K.l.X.O.; ",
"* g.oX+Xz.K.l.c.v.m._ m.z.L.H.S.S.4 R.I.z.H.R.M.h M.m.4 P.M.m.I.J.J.J.J.q.Q / ~ M.I.c.c.b.z.l.x.%XK.M.2 M.z.l.%X%Xv.c.v.z.C  .  ",
"* g.s.C.c.z.[ [ | | H H.k.H.k.z.k.1 k.H.[ _ | k.2 k.[ 1 c.z.M.c.m.[ z.z.^ T Y Y M.K.l.z.w.n.| | J.L.q.t _ [ _ c.J.q.> G <  .@.# ",
"g 6.%.2.Y.S.z.D.m.n.I m.m.R.Y.K.T.1 Y.M.v.z.m.} & C M H P.P.m.K.m.| X. .M 1.@Xg.5.0.1.g.C.g.oXU.C.S.] z a.8.] R.%XL.%.+.V  .C   ",
"8 &.6.1.K.M.m.K.b.m.I z.P.m.R.Y.K.1 R.M.v.l.q.] , o.M G J.m.S.K.I.} O.w b 1.7Xg.oXoXC.oX$XU.XXA.C.K.v.;.q.q.q.R.L.m.m &.6.+.O.. ",
"9 6.&.9.V.Y.x.c.m.k.P z.c.J.K.m.c.= Y.b.q.' / J $ T c 5 P.S.M.J.c.} %.N m 0.$X:X#XG.A.g.;XG.oXj.A.c.q.t #.8.U +XG.m.w C X.B C   ",
"b 7.i.$.@.g.I.E.R.E.M.2XI.,XJ.m.J._ L.#. .b Z.}.r +.Q > E.E.<X,XK.H.<X0XL.D.Z.[.d.j.Z.8Xg.j.h.Z.A.K.c.q.V.a.@.L.n.g.&.Z A B V o ",
"* M *._.).y.g.v.R.I._ H.z.| z.v.k.: b y T  .*.*.u &.C < <XL.H.M.L.v.I.R.N.;.p.+.6./.2.oX;XoXoX[.A.T.S.% O. .m q.w.N.O.Q.`.^.O.  ",
"t O.&.}.=.X.#.S.J.K.P n.| c.m.l.q.* O.&.X.Z M &.c *.&.t D.K.H.K.m.o.v.x.D.X.6.M 3.6.B 0.XXoXXX[.F.c.Q M X.v @.;.e.V.+.6.*.6.O.# ",
"a @.B 9.m @.%.> 5 1 = 1 3 6 1 3 5 . O e M o +.m u # 8 t t g ( 2 < , o $ $ 9 y c e o @ t 4 h R 2 q.1 % M  .O.z a J r M m A &.&.; ",
"Y p.4.%.V.G.@X,XR.v.5 K.S.K.z.c.c.% 4.^.*.=.$.V p.^.~.%.O.i.4.<X1XQ V 6.-.O.^.O.=.+.+.] ,XI.J.v.,Xc.k.s.#.<.Z.s.0.p.-.&.V 6.^.$ ",
", 4.=.@.#.Q V.K.c.I.5 M.m.H.H.M.z., +.3.6.=.X.4.=.6.2.l Q.2.4.L.C.#.C i.+.M -.^.`.X.6.` I.8.q.c.2X| { #.u.g.g.Z.1.p.6.V C *.*., ",
"< r.m.%XoXG.r.k.k.c.5 K.c.,Xz.z.k., 6.O.`.Z 6.c =.6.2.g 2.6.C s.V.' V c M c O.C O.C M Y x.^ q.| I._ n #.g.oXoXXXXX1.=.A V C 6.  ",
"< l.m.Y.9XoXr.d.V.n.I R.K.K.=X&XY.N &.Z 6.O.V m X.A *.b O.+.d Z  .X.O.D Z 0 =.M O.m q c 6.*.S +.h.+.C o.[.>XG.A.+XA.+.O.V X.X.$ ",
"h c.J.D.oXoXG.o.#.x.P <XR.L.=X@XY.0 -.v m o.+.M X.6.X.n o.Z  .A =.6.Q.(.&.q O.7.-.&.c  .&.&.^.&.d.4.S %.$XoXj.oX:X|.2.&.d v =.# ",
"2 D.x.S.oX-X8.n g } j K.z.x.+XU.C.* ^.2.x #.V O.&.6.4.g M X.A X.&.!.3.&.*.u A V -.~.m =.&.6.*.+.A C y.y.oXh.u.#X|.+X-.6.V O.*.+ ",
", 5X.X%X@X+XA.q.| l.4 C.r.e.O.o.M 0 o.+.+.2.4.^.4.^.%.Q u.s._.^.4._.{.}.].d.f.6.`.`.M M B c M &.C s +.d.>X*Xu.Z.j.@.&.+.O.6.%.# ",
"% X.V y.XX;XG.S.M.c.L e.b.r.4.4.O.i Z 4.X.p._.(.(.^.2.Q m Z Q.6.Q.^.&.i.7.=._.Q.*.B m O.~.-.3.6.Z. .#.#.V.r.r.oX0.y.=.+.&.Q.~.U ",
"r i.+.X.g.U.V.K.T.Y.j r.r.S.X.v z * &.+.6.Z (.6.3.6.+.l e X.i.3.!.2.&.~.O.A A 6.Q.A O.A D 6.F V Z.S.;.L b.n.| #.M M B *.Q.&.=.  ",
"b 6.&.b n , b G.7X@XV.>X;X>X8X0X+X2 $.O.6.+.@.$.O.u.5.d.o.b ; m Z q m Z =.-.O.{.{.{.4.h. X_.i.%.+X3X4XV.Y.@XR.Z.s.m +.+.=.=.p.# ",
"r +.&.y.+.O.M oX-X#Xn i.*.h.q.{ ( & =.-.=.M s +.+.).(.i.=.=.-.6.B V C =.&.^.=.&.*.=. .O.O.=.-.^.*XK.n.@X[.*Xj.7.+.m v 3.=.*.6.o ",
"u &.i.d.A u.1.g.g.:.z 6.2.u.x.#.T $ i.7.=.+.C  .%.=.&./.4.^.~.&.=.O.m &.6.O. .^.=.+.M C O.+.O.+.:Xg.e.7X7X[.o.4.O.+.V *.Q.!.-.# ",
"% 6.&.#.m x o.1.g.b u 6.&.p.J R R a.%.@. .b C d U M m ..@.V ^.7.^.=.M a U y a a ..r U E ..a b T *Xo.X. XS.u.@.M u b w c D =.=.  ",
"@ *.(.1.oXXXC.d. X].z 6.i.p.6.^.&.0 :X#XV.g.:X=X+XG.[.S.P.6.~.&.X.).C :.&.&.&.y.@.>.#.:. . .=.X.C O.o.r O.Z m &.=.m +.O.C c +.+ ",
"w F (.h.U.oXV.S 6.Q.s i.6.b *.7.Q.* $X:XG.#X:XOXoXoXZ.S.P.-.+.6.~.-.O.,.-.-.X.@.@.;.#.X.-.~.3.7.7.-.6.d M B O.6.=.,.3.~.X.*.X.o ",
"z 6.=.A A.oXV.%.7.X.t O.=.@.6.T X.& 1.s.0.j.oX*XoXG.N.x.x.O.O.+.-.+.C $.+. . .T #.a.$.=.+.V i.^.=.&.O.w X.b Y T @.:.+. .s m V m ",
"f 6.h.1.U.-XoX1.4.+.x.M.S.I.I.e.;.H K.c.x.r.V.g.G.Z.9.{ v.z.n.{ +.6. .u C m C O.C v =.O.V  .=.y.8XL.n.#.%.y.>.S.J.z.A &.V X.m # ",
"g o.#.%.G.oXG.p.7.2.K M.m.m.m.J.m.P R.I.S.V.A.A.t.U.r.k.J.K.S.| X.X.=.t @.C @.%.*.X.A +.&.&._.XX6X%Xm.n #.0.] v.c.z.O.6.&.Q.6.$ ",
"O T #.Z.@XU.t.4.2.Z ` M.M.x.S.x.8.H I.E.M.F.U.G.8.8.8.[ z.M.c.[ M %. .9 A C s =.Q.6.V @.6.7.&.4.1X<Xz.l / _ ] c.z.{ +.C %.-.*.+ ",
"b x.w.R.D.D.S.K.M.n.[ I.c.x.=.+.C s =.V Z %.&.X.X.M Z n.m.z.S.{ 2.+.-.- i J a C *.O.v -.&.6.6.2.U.P.m., z N W | l.l.1.Z m &.i.o ",
". z.m.P.S.S.r.D.S.S.{ m.J.z.Z C +.s &.O.i.&.i.7.2.7.A v.l.m.n.[ =.4.=.H J.J./ O.6.6.&.y.3.=.+.M C.b.n.* 4.M Y l.m.l.X.N Z 6.3.O ",
"> m.m.L.x.8.b w.z.v.) H.%XN.M @.2.z 7.O.=.O.4.Z %.p.+.c.z.c.| [ Z A X.4 z.l.9.X.B ~.O.,.6.X.C Z +XP.b.< n X.n c.k.l.m C m +.6.$ ",
"h n.F.Z.u. .a S.I.P.W.2X,X<XoXu.XX0.OXXXZ.OX#XOXoX;X>XK.M.D.r./ X.M v n.K.M.q.#.&.u.X.r.|.G.h.|.1XT.T.z.m.K.D.+X.XZ.u.:.Q M X.o ",
"t m.Y.|.7.*.^.K.<XI.| T.I.m.=X=XoX0.;XoXoX=X7X#XoX+X@XD.P.L.oXq.O.C M m.I.Y.V.2.^.`.*.A.A.h.XXZ.U.L.W.` K.K.m.4.^.).&.Q.*.*.6.o ",
"p K.D. XO.6.4.K.R.J.] I.z.z.#X=X=X1.XX$XA.OX@X#XXXA.g.m.v.G.$Xs.@.V @.z.S.w.;.V *.*.A S.@Xj.o.g.@XK.m.I P.M.z.2.~.~.`.*.F &.&.o ",
"h H.x.>.O.*.=.~ ) _ , < p 4 W t.r.K ~ [ 8.l ( ^ I P I r.Q oXV.Z.V.u.5.A.h.s.#.0.[.d.d.V.r.oXj.8.t.l ^ W ( ~ ;.$.c Y M b g b b % ",
"h c.z.F.3.6.Z x.L.m.* +.X.%.4.2.o.h Y.M.] Z y.o.oXU.Y.<.G.9X@XU.#XA.u.G.+X:Xg. X:X#X9.0.XX#XoXg.r.U.7X@X:X=X@.O.+.i.^.~.4.M X.. ",
": z.l.K.i.O.Z { | m.* #.x #.O.S X.4 K.I.| O.o.=.w.Y.D.g.#XU.-X-X:X#Xg.oXG.-XG.[.h.9.V.G.;X@XXXoXA.C.-X@XoXs.s. .=.4.*.&.X.@.X.$ ",
"* / / x.b t T ~ W K X h t x j & X X W K x Q +.Z W 0 4 l ! 0.0.o.g.r.g.g.<.o.o.W x n n W n W ( #.0.l g 0 g 9 u J r M X.X.e e C m ",
"$ 4.=.N./ J b *._.4.9 #.N M o. .X.0 i.i.p.6.6.X.j./.4.M  .:.y.u.OXoXh.Z.1.{.f.i.Q.*.O.=.Q.Z  .6.=.&.*.6.Q.+.w i.&.+.i.-.Q.Q.*.+ ",
"& &.&.F.M Y 8 y.+.6.* O.*.O.&.X.+.t 6.6.4.@.=.X.X.+.b o.X.$.7.O.[.1.X.y.1.d.1.%.Q.6.f O.O.C O.Z @.3.&.&.,.&.A -.-.&.&.+.O.^.6.$ ",
"; T n >.J U , r z k % b M t M M T & z m z ; m Z d k a ; U U s $ n b m m #.#.#.@.M a u b m z X.y.#.s M b Y C s m  .m $.M b s m > ",
"q.Z.d.*X*X*X+X.XS.N.w.+XL.F.K.I.S.J S.e.@.W 8.N :.:.x.y.:.:.F.0.F.OXoX}.s.V.e.u./ 0.>.:.Q ;.d.e. XN.b M 9.=.9.9.y.}.}.L.G.+XV.e."
};
