/* XPM */
static char *_b1e261899fc422a9ace7792ac5684be0gNWmxd0AgUHIS73[] = {
/* columns rows colors chars-per-pixel */
"64 64 163 2 ",
"   c #371C07",
".  c #351E0C",
"X  c #391F0B",
"o  c #36210D",
"O  c #3C230E",
"+  c #3C280F",
"@  c #372010",
"#  c #3D2512",
"$  c #3E2913",
"%  c #3D2618",
"&  c #3F2919",
"*  c #40250F",
"=  c #42290F",
"-  c #492B0F",
";  c #412613",
":  c #442A15",
">  c #492D16",
",  c #432719",
"<  c #452C1A",
"1  c #4A2E1A",
"2  c #512F14",
"3  c #512F1A",
"4  c #473217",
"5  c #4C3116",
"6  c #46301A",
"7  c #4D321B",
"8  c #4D381D",
"9  c #503017",
"0  c #52351E",
"q  c #59351B",
"w  c #54391E",
"e  c #5A391E",
"r  c #452E21",
"t  c #4B2F21",
"y  c #473022",
"u  c #4D3322",
"i  c #4E3821",
"p  c #523621",
"a  c #583724",
"s  c #553922",
"d  c #583A22",
"f  c #593B21",
"g  c #583D22",
"h  c #593E23",
"j  c #5E3C21",
"k  c #583924",
"l  c #5A3B26",
"z  c #5A3B27",
"x  c #583C24",
"c  c #593D25",
"v  c #5A3C24",
"b  c #5B3D25",
"n  c #5A3F24",
"m  c #583C26",
"M  c #593D27",
"N  c #583E27",
"B  c #5A3E26",
"V  c #5B3F27",
"C  c #5D3D24",
"Z  c #5C3C25",
"A  c #5C3E24",
"S  c #5D3D26",
"D  c #5C3E26",
"F  c #5D3F27",
"G  c #5E3E27",
"H  c #5B3D25",
"J  c #503428",
"K  c #553C28",
"L  c #543B29",
"P  c #5A3E28",
"I  c #5B3F29",
"U  c #5B3F2A",
"Y  c #5F3F28",
"T  c #5D3E29",
"R  c #613E25",
"E  c #623F29",
"W  c #574227",
"Q  c #5A4027",
"!  c #5D4225",
"~  c #5D4227",
"^  c #5D4126",
"/  c #5C4028",
"(  c #5D4129",
")  c #5E4028",
"_  c #5F4129",
"`  c #5C402A",
"'  c #5D412B",
"]  c #5C422B",
"[  c #5E422A",
"{  c #5F452D",
"}  c #5D442E",
"|  c #5E4129",
" . c #614226",
".. c #624327",
"X. c #624226",
"o. c #614329",
"O. c #61412A",
"+. c #61432B",
"@. c #60422A",
"#. c #62422B",
"$. c #65432A",
"%. c #64442B",
"&. c #66442B",
"*. c #64462A",
"=. c #66472B",
"-. c #60412C",
";. c #63432C",
":. c #62442C",
">. c #63452D",
",. c #65452E",
"<. c #66462F",
"1. c #63432B",
"2. c #6A4729",
"3. c #69472B",
"4. c #69472C",
"5. c #69462C",
"6. c #67482C",
"7. c #66482C",
"8. c #68482F",
"9. c #6B492E",
"0. c #694A2E",
"q. c #6D4B2F",
"w. c #6A492D",
"e. c #714E2E",
"r. c #624631",
"t. c #654631",
"y. c #674730",
"u. c #654631",
"i. c #694633",
"p. c #664830",
"a. c #674833",
"s. c #664931",
"d. c #694932",
"f. c #694B33",
"g. c #6A4C34",
"h. c #6B4B32",
"j. c #6A4E39",
"k. c #704E33",
"l. c #724F33",
"z. c #714E38",
"x. c #6F5034",
"c. c #6F5139",
"v. c #765337",
"b. c #735235",
"n. c #795533",
"m. c #7D5937",
"M. c #72523B",
"N. c #73533A",
"B. c #7A573B",
"V. c #79563A",
"C. c #76583E",
"Z. c #7B5A3E",
"A. c #755641",
"S. c #7B5C43",
"D. c #825D3C",
"F. c #815E44",
"G. c #836145",
"H. c #846146",
"J. c #83664A",
"K. c #8D6A4D",
"L. c #876951",
"P. c #8B6B52",
"I. c #967258",
/* pixels */
"( n n n n n x n ( ( : ; ; > : > 0 x x 1 0 p p p p p 8 7 0 0 p 0 p p p p p 7 p $ u 7 1 1 < ; $ # 6 u < : # # p i i { g.y.;.$.L.S ",
"n n n m n m x n { ; ; O : : > 7 7 7 > > e 0 p p p x p 8 0 0 0 p 7 7 7 7 1 ; < 1 : ; % # ; # ; , ; : 7 p < < u i u < { p > n ( n ",
"P ( n n P z z ; ; < $ # 7 4 7 7 7 7 1 7 e e p p p p p p p 0 8 1 < < 1 ; # 8 7 1 ; 7 p.h.y.M.k.3.0.4.T 0 : & y u y ; 7 n T :.( ( ",
"( n ( n x P p 1 7 < $ $ : 8 7 7 7 7 7 0 7 7 7 0 p 7 7 0 7 1 r < < < # # n 0 p 1 : h.b.3.T <.( #.n ( <.3.S : # r < @ : ( :.( #.( ",
"P z n n m #.m m < ; O # ; < 7 z 7 7 8 7 7 7 1 7 0 p 1 < < < < < & < 8 n 0 x 7 7 p G.6.X.#.T m n n n S S S <.( : # 4 < n ( #.( #.",
"( ( m Q $.z < < : O # ; ; ; ; 1 1 < 1 7 n n m ( : r 6 r < < < < 1 z O 0 f x 7 * V.q.X.$.<.S h.0.x n S ( S S C n > # O ; K ( #.:.",
"` m P 1 1 7 < 1 O $ 7 : : : ; ; < < < < < , < < < < < , # < u 7 8 7 0 * 0 x 1 7 0.0.#.;.~ $.p.S m n f x f f S #.$.$.0 # , r.p.;.",
"; , , < , 7 7 O O : r.p 7 7 ; # ; # , < < < , # , ; < O # u > 7 7 1 7 7 # @ : n $.$.;.#.p m x n n n 7 7 0 T g.#.n ~ b.f O < 7 < ",
", , , , < # ; p ( 7 7 7 7 > 7 : ; ; ; ; ; ; ; O < $ # O p 1 1 7 0 1 8 7 0 1 : $.$.<.#.#.S S x ( m p M.:.y.f S ( #.#.X.D.7 # 1 , ",
"# O ; < x x p i p 5 x 7 7 7 > < ; ; : : : : O # # 1 7 p O < : 1 7 7 1 7 # p : V.$.$.#.S ( #.( n S.<.#.( #.x ( f S T n V.q : O O ",
"u p i 1 7 7 : 1 0 w f w 0 0 0 7 7 : ; ; : # ; 7 7 m x p x ; : < : > < : # : p e.0.#.T z T T S n 0 p.n 0 0 x h.<.m #.#.&.G.> : 1 ",
"i i i i 1 : 2 e q.b.S f $.x.b.k.( $ < : O ; 9 0 0 n S T f x O : ; # # % O 1 S 4.$.S S X.~ ..:.S n x p x n n p p n #.#.T l.7 : 7 ",
"u i y # n 3.b.v.S #.#.S ( #.l.p.: ; o O 1 7 0 0 p f ( ~ #.( 1 @ # # # 0 p # X.0.X.X.T X...X.#.#.( ( n ( S S n #.:.<.<.T $.: : ; ",
"p : ; 6.7 k.b.i.:.( S ( ( x > : 8 7 4 : 7 7 0 0 x C ( T #.#.6.O : ; 7 7 : : B.3.#.S ~ $.$.X.$.#.X.X.#.( ( { ( <.#.#.E #.X.; : : ",
"p 8 S $.0 h.;.#.:.( ( ( ( ( > 0 x 7 7 m : 0 x x x S S #.;.;.S : ; O : < : ; 0.4.$.z $.$.$.$.4.$.X.$.;.T ( #.;.<.~ { S S T : : O ",
"1 : 2.q 0 e ( ( ( { #.( #.7 > g.g x * p 8 x x n ( S #.#.:.:.( h.O X : ; ; y.- 4.X.#.X.$.$.$.$.$.#.$.X.X.#.S #.<.~ { ( ( m ; # O ",
"# 2.q.n 0 0 n ~ ( ( n n T 7 7 M.n n ; 1 0 x n ( ( ( #.#.g.h.<.#.z S ; O : A.: $.C #.#.$.#.X.$.$.#.<.#.( #.#.#.( ( Q C T p ; # # ",
"0 0.S w 7 0 n n n ( n n n 0 0 M.g.:.O 1 g ( ( ( ( ( ;.<.g.h.7 x x S 7 # ; c.> $.#.#.#.#.$.#.$.$.#.X.#.( #.#.#.( { ..S P x < < # ",
"^ Q 0 0 x p n x m m n m n p.0 : g.O : 7 ` ( #.( $.&.T <.<.7 9 w w f ~ ; O ( O N.X.#.&.E ;.;.&.$.;.;.:.#.:.:.( ` W n #.~ 7 1 7 O ",
"$.9 0 0 x p p m x n n f g x 1 ; # o > 7 Q ~ #.( Q ( #.z 3 5 0 w 0 e C 1 + ; : 4.$.S ( #.#.#.&.#.;.;.( ( ( n ( ( Q ( S ( 1 : : ; ",
"#.1 7 p p p p x m n P n n x < 1 # p : 4 7 n ( e 0 e p x 7 8 0 w p w X.&.p ( > f S.2.<.( #.#.<.#.( #.( S Q ( f ~ ` ( T ( 1 1 1 : ",
"e 7 1 p 0 e x x n x n n n n < , > p : : 8 0 x 0 0 p x p 0 7 w w z e C &.7 X.9 : 4 f k.$.<.#.;.<.<.;.#.( ` n ` :.` :.e 1 < ; : :.",
"f 1 0 0 p p 0 m x x n n n { < ; 0 1 : 1 7 g x 0 0 0 p p p 0 p p w f R 0 1 0.6.p ; : e k.h.4.0.h.g.h.;.;.#.:.( ( #.T m < < ; # <.",
"N.7 0 7 p p 0 0 x x x x ` 1 1 ; 0 x : 1 4 i : s 7 8 0 x w f f z C f q.; m h.C p 1 ; : 0 N.h.<.6.h.<.h.$.:.:.:.( $.p < , ; O 7 3.",
"$.x 0 p x 0 p 0 x x x x ( p # : 0 n : O @ 7 p 0 0 g 0 0 p 0 z f f n < ; h.0.#.f 7 : ; : 0 5 C 4.$.0.<.y.T #.~ y.u r : : ; # 7 b.",
"4.x 1 0 7 0 x p 0 p x n 7 1 < : p n ; 7 m 0 8 0 0 0 0 0 0 x f p p : u f g.0.f f 7 7 : ; > : 7 : <.J.b.g.y.h.j.r , ; : : # ; 1 p ",
"0 f 7 7 0 7 7 7 8 8 p ^ J 1 O 1 0 m # 7 P 7 7 0 0 0 x x f p p < < : O 7 <.<.C z 0 9 : : : : 9 : 7 1 < y r y < ; < 1 : : O 7 1 0 ",
"7 0 7 > 7 0 0 p p p ~ P J 1 1 ; p : ; # ; : < : 8 0 0 0 p i < 1 ` 7 O # #.<.S T x 0 > : : ; ; # : 7 1 r , & & : 1 : ; ; < : : p ",
"< < 1 p p 0 w w f :.y 7 # X * :.M.: 1 : , < : 7 7 1 i p 1 < 7 8 m p m # $.0.#.X.f 0 1 : : : * 1 1 1 : < < 7 : ; ; # : : : >.> 7 ",
", < < < > T p 7 < < & # O : n w 3 0 0 . . . # ; , 1 u 1 0 P.t u r.p n # : 3.X.S f w 7 7 : : * > : : : : ; : $ : 1 0 1 1 : n S $ ",
": $ ; < < & # & # @ O # o ; 0 0 0 9 p ; S.0.S ` . @ $ <.h.p u J 7 1 p ; w $.#.T z w 7 9 1 1 0 > > 9 > ; O # ; ; 1 7 1 : 7 p.( : ",
"# # O o O : < < : : 7 1 # : 1 > > 0 O P 0 7 i 8 : # <.F.p p p p J 7 1 : h.0.<.#.R j x w 7 p 1 * 0 f : > 1 7 ; ; : ; : ; 1 n e w ",
"0 : : ; < < < < : 7 7 7 # ; ; : ; ; : < < < < p # 7 K.x p m p m L J 7 1 w 0.$.0.=...X.#.> ; ; : - > 4.f 0 7 : ; # 7 1 : O z 0 p ",
"p 7 1 1 7 1 7 7 7 > : : O ; # O O ; O # & < < : : I.X.x p x 0 x p m p 7 > 5 p...7 7 1 : < : O C X.e Z p 7 1 : p # 7 7 ; $ 0 0 0 ",
"0 7 1 : 7 7 0 1 7 0 7 0 ; : 9 0.$.X.2.m X o @ $ n p X.x p p p z p p x q > 0 < : : : : : ; > 9 R f p 0 0 7 : < A.; O ; O # 4 0 9 ",
"7 7 7 7 7 7 7 7 x 7 : : S e $.Q S S #.k.2.: # i p J h.p x p p f m x p f x 0 1 : x : : O O : 7 9 w w 9 w { , # 0 > @ # 7 : # : p ",
"0 0 7 1 7 7 7 p : O 4 S C #.S S <.#.#.#.=.q.1 o J p v.z n Z n 0 S x n n x p 0 7 7 7 1 : ; ; : : : O ; O O ; # # ; ; O 8 : O # 7 ",
"# O X ; : 1 7 : : e X.n S z z #.#.#.;.;.~ X.X.0 1 m Z.T ( #.R S C p w f x x z x 0 7 7 0 7 = : 7 O 7 7 ; p 7 p 7 # ; 7 : * O ; # ",
"# i 7 : : O * 9 3.S T S z z z T T ( #.;.z R S #.$ ( k.#.#.S T S #.S S m x x z w 7 7 > 7 7 : 0 : O : O $ > m 7 O : R b.q.X.p : o ",
"< ; p 7 7 # h.X.X.( f f z z z #.T #.<.S S S z T T L &.$.;.E #.T S S T m x x p 0 7 0 p 7 7 4 7 > :.0.T m P # O q V.h.7 Q ..x.e.: ",
"O $ # p 8 : 2.4...S T p x f x #.( ( #.h.z S ( #.~ x , { X.4.T ;.S S S m P m p i 0 p p p u p 0 1 X.R n x 0 : R Z.7 0 : : 0 x f X.",
"~ 8 O ; # 9 2.0.$.S z p p 7 : n > f #.S #.S S #.S 0.: < P 3.<.<.( z n p m p p p p p p p p m 0 5 m m x w : $.$.0 0 7 1 7 7 7 7 w ",
"p b.x 4 1 5 3.~ $.p 9 p.#.( n #.n ( ( ( f f ( S #.;.0.1 u $.h.<.#.x P m K p p p p p x p x m 7 : x x 0 : ; 0.x 0 7 0 7 1 1 7 7 0 ",
"p m j x O 7 : : 7 n n p x 7 > x f n T f 0 n n f $.#.2.> m n b.$.:.m m m m m p p p p m m 0 0 7 n 0 0 m ; $.p 0 0 7 0 > J.x 7 7 0 ",
"0 p 7 0 O : O ` x x x x m 0 0 0 x n S S g S R <.#.#.=.h.x <.b.h.S x ( m z m p p p x p m p x 1 O p : O $.x 9 p 7 4 1 0 7 7 0 0 7 ",
"x x 0 p # # : 7 0 x x a p x 0 x x f.S f 0 n n #.#.#.$...0 :.( v.n n x ( P { m P m p P ( m M.< 0 O @ > H.x 9 > k.J.7 7 7 p p p 0 ",
"p p x p # # < 4 x 0 x n S ( n x 0 0 0 0 x n f z n ( ;.#.7 < 1 g.x.n ..=.7 M.P :.#.( { x p O O ; 7 # X.f 7 1 H.X.#.p 7 0 x 0 p p ",
"x 0 7 u O # : < : ; x 9 0 0 7 8 0 x x x f w n f n x S X.0 < ; < 1 0 :.; 6.0.$.3.p.> 7 1 # # : i : * h.f 0 0 X.#.#.0 1 0 0 p 0 p ",
"0 0 1 7 # # : # # < 7 0 0 0 p p x x x x 0 f x x x x n w 0 : 7 < : < # p.F.0.0.<.0 m # # # : 8 : ; p F.z x f S C 0 1 7 0 e 0 7 0 ",
"p 1 7 7 ; # # # ; 7 7 7 ; ; ; < x x x x 0 x x x f f x w 7 : : y < 7 : > 7 7 8 1 : , o @ < 1 : : o # 0 n f 0 > 1 7 7 x 0 e 0 0 m ",
"0 : < 7 # @ O # # < 1 : < ; ; : 7 w x x e m p x x x 0 p x : ; ; , # 7 7 < < , , , @ < O $ ; : 7 : # : n w 0 9 p p x x x e 0 p p ",
"7 ; < O 7 7 : : < # # $ : 4 7 7 8 f 0 m x x x 0 0 x 0 0 0 : ; : O % 7 7 u < < ; : O < . : 7 p 7 x : : 9 0 0 f w f 0 e x x x x x ",
"; < @ 7 X.X.i p 7 0 8 # # : :.1 : 7 7 ~ n 0 0 0 0 0 x 0 7 : ; : $ # O ; $ O = O $ O # : p 1 7 0 9 : : #.K.C C x w x 7 p 0 7 p p ",
"7 O 7 Z.v.0.3.X.3.0.h.b.0.9 O # $ : < : : : 7 p 0 7 0 Q 7 O : 7 1 < o o 8 7 { 7 S 1 7 O 7 : 7 x 9 ; O < 7 q R f x x 7 0 0 0 1 1 ",
"; > Z.X.~ ..X.X.$.4.h.3.$.q.3.0.V.> ; < ; ; : : 7 7 1 7 # ; < 1 1 ; : O 0 0.V.N.Z.V.0 > : : : : : 7 8 $ < q 7 0.f x e a 0 4 1 $ ",
"f y.P ( ( { :.( T z S f z T $.q.b.e.; # # # # # : ; : : # 1 ; ; > ..7 # w 2.3.$.2.0.e x : : 1 > : : > 7 ; < 6 7 0 :.S 7 : 1 $ : ",
"z.;.T ~ ( #.( S S S x w p x w 3.#.k.; 1 1 7 p p 1 : O 1 $ : O ..b.m.h.O 7 0.$.$.0.0.0.#.f x 0 S #.f ( 0 O : < , < 1 1 1 , # : P ",
"X.#.S ( ( #.S S S n x x 0 p i f x 7 : : : : 1 1 > 7 w O $ 0 e.n.D.H.V.7 : 3.6.X.X.$.$.X.x.~ f 9 g.0.q.3.$.( # # < < < < # 4 7 ;.",
"S S T #.#.<.#.S f n f n m x f x : : O $ : : ; < < : > ; > b.n.D.K.p x C.: S ..$.X.X.~ 6.=.$.6.x.H.Z.q.0.X.X.j < < & O O 7 1 0 w ",
"n S S ;.#.;.S ( ( #.( n m g P : 1 O : : : f 7 ( p 8 : $.$.C f w w 0 e x   : p x X.$.X.~ ..$...X...$.$.=.$.X.R X.O 1 : : 7 p x n ",
"w n ;.#.$...S S #.( S ( ~ ( 7 y : f 0 7 7 3.h.C C f n f f w x w x x 7 e :.< y p 6.$.$.X...~ $.X...X.$.R X.^ $.q.O < ; 7 0 x n x ",
";.S ;.$.<.#.S #.( S ( S S :.y : 7 e ..7 S m f n f f x x z w x x p 0 0 x f ; 7 m $.6.X.....#...$.~ C f S f #.f 7 1 # m g.x m x ( ",
"#.<.<.#.:.T S n Z #.( #.7 P : 7 0 7 7 x f x g x x x x x 0 e 7 0 0 x x x x O y m $.$.R S X.~ X.^ X.S z S T 8 p O O T b.6.Q x #.<.",
"<.g.Q n S n n S Z E #.p.x 1 1 7 0 x x x e x x 0 0 x x 7 w 0 e 7 p p x x 0 p O 7 m 3.C f S ( ( Q S #.*.( 0 1 7 h.x m p $.<.h.<.y."
};
