/* XPM */
static char *_bd463832c284d74fa5028bcbec47ac1Xqhr4gl24uteWnVS[] = {
/* columns rows colors chars-per-pixel */
"64 64 251 2 ",
"   c #023502",
".  c #033D01",
"X  c #093C04",
"o  c #083C0A",
"O  c #044301",
"+  c #0A4404",
"@  c #054B01",
"#  c #0B4C03",
"$  c #0C4B0A",
"%  c #0B430A",
"&  c #124D0A",
"*  c #114E05",
"=  c #055301",
"-  c #0C5302",
";  c #0D5B02",
":  c #0D5209",
">  c #0B5B07",
",  c #125405",
"<  c #135B04",
"1  c #1A5D05",
"2  c #14530B",
"3  c #155C0B",
"4  c #1A5C0C",
"5  c #19540A",
"6  c #165313",
"7  c #165B10",
"8  c #1B5C13",
"9  c #1B5815",
"0  c #114A12",
"q  c #235E18",
"w  c #205F04",
"e  c #0D6103",
"r  c #0E600C",
"t  c #146303",
"y  c #1A6404",
"u  c #156B04",
"i  c #1B6A04",
"p  c #15620A",
"a  c #1B630B",
"s  c #1D6A0B",
"d  c #1D7203",
"f  c #1F710A",
"g  c #1C6312",
"h  c #1E6717",
"j  c #226C05",
"k  c #23650C",
"l  c #236D0B",
"z  c #266A0A",
"x  c #247304",
"c  c #257A04",
"v  c #2B7D05",
"b  c #24730B",
"n  c #2A750C",
"m  c #25790B",
"M  c #2C7B0D",
"N  c #2A7506",
"B  c #307D0D",
"V  c #32770D",
"C  c #236414",
"Z  c #246C13",
"A  c #296D14",
"S  c #24641B",
"D  c #256A1B",
"F  c #2B6C1B",
"G  c #28661A",
"H  c #257313",
"J  c #2B7413",
"K  c #2D7B14",
"L  c #2B731B",
"P  c #2E7B1A",
"I  c #267618",
"U  c #327C14",
"Y  c #32751C",
"T  c #337B1B",
"R  c #387D1C",
"E  c #337914",
"W  c #336F17",
"Q  c #1F5F22",
"!  c #255C21",
"~  c #296A24",
"^  c #316C26",
"/  c #2D7323",
"(  c #2E7B26",
")  c #337523",
"_  c #347B23",
"`  c #397C24",
"'  c #357B2A",
"]  c #3A7D2C",
"[  c #36752A",
"{  c #367632",
"}  c #427D2A",
"|  c #457F37",
" . c #2E820C",
".. c #2A8406",
"X. c #33840D",
"o. c #34890B",
"O. c #388A08",
"+. c #3D930C",
"@. c #2E8312",
"#. c #2F801C",
"$. c #338314",
"%. c #3A8615",
"&. c #368C14",
"*. c #3B8B14",
"=. c #34821A",
"-. c #3A841C",
";. c #3C8C1C",
":. c #35881D",
">. c #3C9315",
",. c #3D921B",
"<. c #3C9815",
"1. c #358423",
"2. c #3B8423",
"3. c #3D8A23",
"4. c #3C842B",
"5. c #3D8A2A",
"6. c #368726",
"7. c #3D9222",
"8. c #3D8632",
"9. c #2F8426",
"0. c #428C1D",
"q. c #418917",
"w. c #439514",
"e. c #43941C",
"r. c #449B1C",
"t. c #4A9C1D",
"y. c #469B16",
"u. c #40930F",
"i. c #4AA31C",
"p. c #48A318",
"a. c #52A61D",
"s. c #4AA30F",
"d. c #418625",
"f. c #428B24",
"g. c #42852C",
"h. c #438C2B",
"j. c #498D2A",
"k. c #439424",
"l. c #4A9525",
"z. c #459B23",
"x. c #4C9C24",
"c. c #45932A",
"v. c #4A942C",
"b. c #469A2D",
"n. c #4C9C2B",
"m. c #539D2D",
"M. c #519C25",
"N. c #438534",
"B. c #448B33",
"V. c #4B8C35",
"C. c #4A8B3B",
"Z. c #46873A",
"A. c #4B9433",
"S. c #4D9B33",
"D. c #4C933B",
"F. c #499637",
"G. c #529C34",
"H. c #589D36",
"J. c #52953D",
"K. c #549D3B",
"L. c #559837",
"P. c #4CA424",
"I. c #4DA22A",
"U. c #4BAA24",
"Y. c #53A424",
"T. c #54AA23",
"R. c #53A32C",
"E. c #55AA2C",
"W. c #59AC2C",
"Q. c #5AA826",
"!. c #5BB32B",
"~. c #59B427",
"^. c #4EA232",
"/. c #54A334",
"(. c #5AA534",
"). c #55AA32",
"_. c #5BAC34",
"`. c #55A33B",
"'. c #5AA43C",
"]. c #5CAB3B",
"[. c #55AA3B",
"{. c #5EB333",
"}. c #5EB23A",
"|. c #5BB634",
" X c #62BA2E",
".X c #63B72B",
"XX c #62AC3C",
"oX c #61A539",
"OX c #62B434",
"+X c #64BA33",
"@X c #63B33B",
"#X c #64BA3C",
"$X c #6ABD3D",
"%X c #69B83A",
"&X c #6CC23D",
"*X c #6BC436",
"=X c #6FC636",
"-X c #4A8B44",
";X c #518D41",
":X c #4D9444",
">X c #539C42",
",X c #5B9C44",
"<X c #559546",
"1X c #5BA442",
"2X c #5CAB42",
"3X c #59A446",
"4X c #5FB245",
"5X c #59A350",
"6X c #61A543",
"7X c #63AC43",
"8X c #65AA4B",
"9X c #63B243",
"0X c #6BBB44",
"qX c #6AB54B",
"wX c #6DBA4D",
"eX c #67B646",
"rX c #72BE4C",
"tX c #74BA46",
"yX c #65AA56",
"uX c #6AB452",
"iX c #6BB655",
"pX c #74BD54",
"aX c #74B85A",
"sX c #77BB63",
"dX c #6AB469",
"fX c #6DC34C",
"gX c #6DC344",
"hX c #74C945",
"jX c #73C34C",
"kX c #75CA4B",
"lX c #7ACC4C",
"zX c #76C546",
"xX c #79D446",
"cX c #74C354",
"vX c #79CA53",
"bX c #7AC35C",
"nX c #78C757",
"mX c #7CD253",
"MX c #6DC451",
"NX c #7DC864",
"BX c #84BC75",
"VX c #80D749",
"CX c #81CC5A",
"ZX c #82D35C",
"AX c #85D858",
"SX c #8AE358",
"DX c #84CB68",
"FX c #89D867",
"GX c #8FD474",
"HX c #90E163",
"JX c #93D482",
/* pixels */
"G U j . = cXpXS.W.o Y uXK.[ C.X 0XL O  .A . K 8X8 cXp vXb.wXb K b ;.`.8Xx.v N.Y K.Y J.' . 3 ; }.1.`.4XW.Y S.3.c # x #.= 3.v.; l ",
"  ..u ; R.  A.g.t v.f.; l.r.a v p m 2 @ ;   s c M.A.0X:.O [.k.].k.l.a n '.jXX.] d.j.) R i.].. +./.) # w.].7.-.z.9Xy &X).@ s   ` ",
"{.O & r.) = x.>.G %.g.i J I.DXj . | ^.# @.@ %.' VXy 5.zXm O ;.< ;.< 8X. c.R F b n D.: a.V.n y s ; X.+.N j # K # . z K g K.;.. , ",
"U 2 M 0Xh., X.6.8 P K x.;.3.u # P ZX`.J Z -.<XZ 2XR.& >.n J.y @ V.I.'.bXi $.K = 8.;  .2XsXcXOXF -.y B.;.3.7X>.6Xs z.@XR.H @.@X1.",
"4.k.-.b 7 n.AXi _.@ #Xc.I.8XE.$X2 4 - /.L.a b.$.qXS _.+X~ xX} m s x.>Xi.7XU s , 7XrXOX=.%X..< d.!.@ y.@ X.3.x J.e.# i.O ,X_ m.= ",
"v.p U 4 + n O.3.U 7.3.).jX].d H O P.b 3 DXS K.t b 6 W.v H b P +.-.^.+ 7.b 8X7.z.m -.c ] Z Q.8 2XY aXk.k.i.dX; O |.gXU `.OXiXp i ",
"&.g 0X/ g = E 9Xb k.@ g P s Z # AXK.A SX@Xn pXN.O =  .2.j.G.I rXn e fX5.k O.=.H ].W.K 2X; . #XXXa 9 K.i K ; c., I 4.-.g h @ hX].",
"!.. T j.@XCX, c.qX2 b K.R.O p y.L  .e - [ O a W.'.<X1Xg g eXU p.= 7.vX3 hX0 +.u J { A  .iXa O _.n 3 %.# 7./.O 3.[ u , +X,.].. J ",
"5 K qXS.C cX4 >.` E 4.p D x.i P.s l A , y y 2.* ].2.y ;XiX1 h.b /.H C l a =.k.k.* Z ;.T qX%X;.L L ].+.2.J.C K.Y %.$.s c.B a # v.",
"o x.+ y @., bXZ - = AX3.k.7Xl.`.< b ) [.A 2 Y.% x.V.f.Y [ uX= D : R.4 s =.S.d.J v . n 7X@ Z { ^.@ ).= x ) w K.X J eXp 2 a.K ] ].",
"U b.E.= $.4.D.OX_.Y.~.] kXn ; 0.n.qX:.K R 3.X.cXbXbXl.< < lX, +Xt X.`.W.}.l.jX*.~.q @ HXb.u 7 `.Z D.# A e.]., < 7.[.G &.S.OX- 2.",
"8 ; ;.8.5.' ].@ ].g 3 lX8 k.*.j s gX+XU %.X p d.=.iX:Xn @Xv.~ @ @ C H.!.t Z c.`.NXH 3 1Xn U = p ' bX~ . yX2Xe.  n.f.[ p ;.*.i K ",
"= 8 3 FXG T 1X`.GXn.;.n.O , f.n.E.J # ] b S * R.1XY t 3X5.) b ; l 0.V.Y.3.*.5X1 O B.&.g.G.4 vX@ ; 8 - g ; - >.+ z C.sXS < 8 = &.",
"&.: /.=.4.. # bX; 5.T.rXO DXe.uXR.h.i @ DXx R $.# Z 4 l.=.V.r.>XE ^ 5 f.P I.E :.p a a /.#XZ.$.$ wXf.= e.3 F.- O 1 x.AXt qX`.;.O ",
"aX/.d ; t O 2 r.;.@ < 2.nXr.%.O b _.ZX6 P.P P 3 M P 4.l.E.j T.= 7 y ..<X2XK x.t < DXJ.b `.@X<Xn.%X>X=.~.p.Y a W.G.n.OX=.p e.<Xo.",
"- c., , 0XT X.< ;.p , 3.U < +.n R (.[ 3 ,.Y z.G }.W.@ l.. x 3Xi d _.F e./.  X.L n.%.L -.Z.=.yXg b / jX2 ].A.v X A ~.[ m.x.s g.FX",
"z g . u O t.@ ' ^ N.H.uXqX+ @ A A # n.: $ 7 <X,XhXO J % a Z x.. < X.qXN.*.A.O wXs + T & t J.k.2 g.< L f.^ }.b 2XJ 9X2.v.c.< -.@ ",
"+ n R E.$ /.&XoX& {.' GX;.`.oX .y.AXJ , P Y . C +X_ *.b.A.% <.lX%.J x.n b k.GX_.Y N.k.. j G.c., w.$.A R.vXo.;.< ) < K.R $XO b /.",
"' ) X.J S.= L 3.x.$.O.V.DX= 6X@ g + @ j.N + , >.qXt @XaX; 3 p U.n.R nXmXm NXCX,XJXDXV.$ t.k.s O Z 2.6 F.W.E.OXOX@.S.2 &XD.3 y 3X",
"l.t.*.U . { =.n.@ k.g #Xj . ! j U p ) @X$.F.3.n.e.6 4.h.v.D.7.a vX] . i 0XS.W.2 M R.A.: @ yXvXA 2 nXk.J ;.@Xh.1 x.O -.; . f.lXi ",
"4.o.< B.OXOXE.J R.a O T n.i wX.XU R B.z.3 b.J t s.; c gX/ m.%Xl.<Xs.z c.< f.jX1._.< `.C R.kX7 c.W.2.; v 2.] +X` k._ ^.2.n J X.1X",
"l.v.s '.@ p =.` m.J + y t t Y.- }.O 0 c.j.m.< =.J K zX@XO DXT k.M 3 x ;.x >.D.p _ , {.O B.G R.].zXO ; 0XwXD.A n , b p.: Y 9 C pX",
"; OXP L S.o J F b.2.( t , Y.] n.G.qX/ < , ` ].n B.1Xg.p . . l.T e.. @X@ CXB o.# @ U >Xl.I.y O S.].) D.a.@ - 7 y.h.A.; n.C ,X`.O ",
"/.b.+ >.1 G t.7.L < ' T # q.# !.;.. M ) *X`.x.] $Xt k.k.e U 3.1.f.<X: 8X^.M G e.] '.K fX# # z g A.l.O.N I.D p Z N.% I aXF :X9 p ",
"2 H.=.n.a - N P ;.}.G.1X4 c.d . K -.Y.0Xb i D.v.3.3.B.$.AX5.].g.< B.K A.yX: aX=. X0X>.E 7Xb CX& A.R.4 <.*.m.M 3 eXt tXf.U n.l.}.",
"# x.].n.-.%.].t./.H (.P #X, E.f @ b `.$.@X@ ,.jX/.< 0.O XXSXa = :X|.4.p.@ u ; `.%XZ W.j &Xk.' E. XNXa.@ $.eX6.p ^.@Xt.8 /.= s w.",
"J.D @ , 9XL S.>.P @ $.P.6.@ =.L m.I.C.; @X; ) h.X.DX>.J.K p ~ &Xs.fX` 1._.7XO.P ZX3.w., 3 ;.Z _.5 ; 0Xz XX;.0.7X_ mX= _.Z y XX/.",
"-.,XpXJ < L y R Z.y.l.2 S.Z h 3 lXl.K M hXpX, U ,Xh.;Xa X C x {.a.b 7X4 C FX2XK.S.+Xh.A < @ +.. 7X# 1XP cXA.K.F :Xa n c.# L X.f.",
"U.f.;.X.-.< 1.c.+ , &Xk xXP K H., H {.L $ @ # x.G 4 1X8 H 7X1 &XqXzXQ., P./ _.R.$ ) F AX= h g OX/ U E.a n.b a qX# s.v.cXM A ) , ",
"6 @ K | _.y l.H 1 - k.cX4 XXJ - # , yXh.H # L 8XO t.k.3.. %.[ y 3XB @ uX-.n.. : 2 3.2.1Xc.nXa ; -.3._.1 @ g ;.L.= R.n h.1X  A.$.",
"6 3.[.b %.8 . n _ e.6Xb [.S.x A.m.[ g A v.Y 3 pXc.S.D.Q - _.%.g.n.w.z ; = + F , n a aXK./ (.Z $.d.V.+Xh.< 3 k.K.zX6.5 q &XE.P FX",
"k ( z.s OX#XC y x j y.Y 0X3 r.x.3.i y @ J.E /.x #X_.K g k.vX2.M < # D @X{.X.9X..l.7 f.@.W.t.T R.-.H + f.'.- / rX#  .N < n n 3X7 ",
"vXx.vXA.S.L hX4 G.s 2.h.b s I.M _.i %XF 4 vX=.fXs uX@ = lXi Y g 4 r.] _.FX%X1 d Y /.XX.._.n a J N.$.6.;X: S.O 8 0Xe.R.gXFXP A 3.",
",.6 A.< /.N e.N xX0X4X..*.<XG.OXk.R , O 0 2.s c.^ W.l.R.k.# y./.jXv ` ;.g.- t , 2 t = Y.@ @ s K l.j.-XR.E.: J C . O O a 3 k _.%.",
"P l ,.lX. aXO ;.I.].!.v.2 v.x G.b.@ W.x ` @XH ^.g . k f.7.M P.x # q ].F , }.3 - - %.- i [.y r.A J t $.E.qXO @ L : n.%XY @ $X].7 ",
". _.j.p i.; L E.i wX) 1X0XCXj.C , 7XA.E ../ k.$.a R.J M.> P !._ F.$.gX. a pXE DXh.f.y y L Z F.;.0X4XX.y.S.2 I e.# k.0Xt L # G.uX",
"k.3.. n W.u K.$., y.3 J L.@ qXyXE pX4.v.;.n.O.+ x.R.< t.= K Y /.b k.E n p.Z 7XuXbXd.k B C %.4 J _.J.w.. }.%.$.yX6.).Z , _.K.z bX",
"d.< -XzX3.sX5 # u - 3 ;.C j.2.nX. 4.h Q aXX wXP xX_.O   P M k.@ b / lXl O a 9 @ E J.a @ b Q.8XF 7 %.a - 2 eXr.s Z tXg.sXh.3.R %.",
"eX@XO E.; O i.I.S Y.O R L s W.U cXl.n.3 K aX2.d.@.h ' W.%.E z.n.. Z ;.}.E.A.. L J ;.$Xy F H < 5XDX`.vX@  . XOXz.@ [.< X y l.j X.",
"9X=.k.@ y 3 g w.6X-.E.c.'.E.O uXK n qXJ.FX` `.y.3 XX.X- J qXp z.$.3.).7XH L. XwX< b . P $.G y XX$.y { >.3...f.A.AXb % r.< Y N Y ",
"L A (.,.wX6 `.V ' kX. R.. G.4 H ;.&X. p 4.. y R - h.s /.1 e $.. hX/ ) R.p r ;   ;.;., ;.1X_ < C , ' c.< s $X< L p.jX .ZX2 v.- 3 ",
"i Z Y.7 .X@Xx j I h.J v.= c.=.~.eXv = ; B.`.l.~.$X_.y.).) P E.-.X e.l P - pXR.- 0X1 4.l.$X+X;.,.].; c.s.A Y %.5 n /.b.2Xv.k.p q ",
"@ %XJ 0.iXMX9XA.-.CX@ + S.B.G.K ,.A ! ~.K.n @ D.T c.p.R.] ; t h.Y j J 7XS.e @XJ > .  X8 - : u.e.y . < cXB ) 9 M J.f.@Xc.s 6 # xX",
"v.n uX4 n z   4.3 . 4.1.D OX@ v.R.s P ].1XK.y n ^ '.(.3 . . D.t y # hXA.t v.N B.k.wX3XX.a h 3 3.@ C 0.OXh.3 ] +X9 3.G.;.a /.E z ",
"^ u g.u n._.M A.< [.6.b @ X.A ~.fX2XC.=.x.@ Z @X%X(.SXy.3 _.) f X.C n + e.nXW.B , 8X4.4.wXO 0.eXT.= M U OXc.- f.4 ] d w.Y 2 @ l.",
"] % S e J e.i t DX>.l n.# _.i 9 A.. n Z d S.L @ HXG.W 6X0X7X;.4 7.`.e.yXO s % 5.X.3.c.A.3 b n.>X= jXb jXy J.GXsXC Y.N -.@ # C.j ",
"F . ZX%X$./ h.r.3 y f.=.OX{ ;.f.8.mX{.J.4 , Z %Xk.;.< ~ R.x.g = # #XS $.jXI.VXm G < n.-.sX#X$.l.b $.E.5.-.bX].O [.hXz.0XVXy lX'.",
"qXp 4 J z D ; 2X[.# E.}.AX. K = H Y j jXK H K.B.I.. u X.&.e.~ o.>.p z k.0X/.0.3.=.3 &Xa h.k.>XhXFX_.x G ; W.S.R.d.;.;.= 7 A H.p ",
"G.M FXm.^ s v ] =  Xl y.t.y y ~ Z a *.a 3.8 ` ZXpXY K U.C # p.x.%XR.) 1 p - 8._.s n Z 4.jXH q.8.; ,XR =.r.; _.6XT = c.@ A.a 1 J ",
"p.$.z.G.h.e.L i E R.z.. _.v.>.. ;.c.OX4XN.h P Y.@ B.*.h.%.wX_.kX2.`.lX@.g N OXx C j , ;.`.; -.t ] 4.n %X_.$.J @ -.~.O T.A C P G ",
"n ~ P O lX- T G.@ `.R.;.h.7 ;.vX2.=.s '.T >XF wX7Xi 4 j (.b D %.k.2XO G gX'.j.wX) - j E U pXC.p GXd.3.GXl @ M bX= {.U 1Xe.G H.e.",
"4.n $.< c.K.E lX  bXwXt # d.h.5.sX, v.Z f.U 2Xi j @ L f.- G.O ].9Xv.A U 8XS ) n e.(.@ P (.m.n.= %.k.Y.2 *.C %.- 2XC % [ m x.m.K.",
"^ X.h.n.; R.S.k.%.g E.R eXy pX%.a K A - ` g.gX4 e.cXu =. .ZXa kXp _ 7 x R.3.G.CX=.{ ZX2.R.k.L s x.r.g s k.3.I 6 '.u 1.4 z.3.C O ",
"@Xs y n.c.Y - *.M.l.;.V.|.5.&.z.X.4 ..$.< P P.t R.P.8 L ,.fX4 9XU ).e |.b 9XDXX._.4 ).T.x.y 8X. L %Xd.O =.t , ,.E.i.J _.R.&Xp 3.",
". 2.-.}.H _ @ @X$X/.8 jX} & CXyX5.:.t 3.g   K j < t *.@ K j l.>Xu # J t i 6 GXV.H., q XXD.g T.R.4 @ 3Xp vXp k n C.v.9 K.h.d '.A.",
"0XcX4 $.. < + y -.).,.$.C.B.g.FXt A J k.w.M < 9.K DX%.Z s M k.t % 3 4 3 P p.C <X0.7XFX/.>.>Xf.2.C 1 e.=.H / %.1 5.Y x.3 @ iX< $ ",
"g R.g S.;.j D.NX$ l.5X;.K e.`.d.-XM V.e.O $ ; n., E.v.8XA ) ~.8 S.;.].+ 3 qXU K.j.A ` < 9X-Xy b u `.- R.4 = K A iXF.vX1XK.Z.k L ",
"c. X8.;.r.t.@ a., Y.Y.2Xn.y.2.%.].VXt # nXU ).R.ZX-.z.@XhX=.FX>./ ;.w.y 3 @ AX|.B.D.`.n.tX, 3 n.W.$ n.# F.*.l W. .<.;.O #XjX$ f.",
"3XmXC y -.L A.,XW.cX3 M E.O.}.E.uXZ D 3 p   @XqX.X;.^ 3 n k.m b AX6.K.=.3 ] = @Xk.; j = vXOXO F X s s k.;.Y.z.kXH 4 O E >.< a mX",
"t O ;.+X3X. s < F c J a T g b < i y 9X) vX. -.c.Y., v.g S.NX+X0.qX+ %.1X*Xg l T A OX@X` O F.=.@ N.t = F p .XA.R.3 w.7 + * , v.ZX",
"' y U -.^ o.(.# 7 ).3.ZXa +XP X.kX .a @ n C c.&.4 R v zXJ V.P.` t.E &.k n K.{.n . L : DX, : %.< ~.R oX .@ 9X& : p ) V.E.t O -.h.",
"b . b.J @ ` `.K.:.R.E ZX- wXc.e.&.R iXG.< J & y ) =.< K :X4.P , = p AX; *.2XO . 6.$., d.Y.# M 2.h.J.D G.bX].i kX^./.w.wX3.=.aX2 ",
"wXJ !.= uX-.I i y k.n.3./.%Xq SX<X-.s SX_.jX7XfXNXzX; U S.yXw.< > < x.K.s - ;.s M #Xl.e.%.; R.Z /.Z ; ~.a , @ C ~.] h # [.j.&X/.",
"N.6XpXe.> I O.A.R.Y 1X2.k.= W k.4XC . =Xk.n _ p D.eXHXaXBXA.G.w.p 0X7 :XT s uXh.FX1 <.V.f.bX$.gX3.3._.X.J } ` 4 G :Xk.b H aXrXz."
};
