/* XPM */
static char *result[] = {
/* columns rows colors chars-per-pixel */
"64 64 197 2 ",
"   c #191818",
".  c #241E1C",
"X  c #2C221E",
"o  c #31241F",
"O  c #2C2624",
"+  c #2C2B29",
"@  c #252222",
"#  c #322621",
"$  c #3B2A22",
"%  c #362A23",
"&  c #3D3C39",
"*  c #442E25",
"=  c #463026",
"-  c #4B3227",
";  c #4D352A",
":  c #4C392E",
">  c #453228",
",  c #543629",
"<  c #513A2E",
"1  c #5C3A2C",
"2  c #443C31",
"3  c #533F3D",
"4  c #633D2D",
"5  c #5E4233",
"6  c #564638",
"7  c #624333",
"8  c #6E4432",
"9  c #6D4D3B",
"0  c #684A38",
"q  c #714632",
"w  c #734A36",
"e  c #7B4A35",
"r  c #7A4E39",
"t  c #77523D",
"y  c #7A513C",
"u  c #584442",
"i  c #5E5140",
"p  c #534A53",
"a  c #504750",
"s  c #5A545D",
"d  c #47414A",
"f  c #695947",
"g  c #7C5641",
"h  c #7D5E46",
"j  c #6A5659",
"k  c #736256",
"l  c #756E7B",
"z  c #7B7770",
"x  c #834E36",
"c  c #854F38",
"v  c #85523B",
"b  c #895139",
"n  c #8B583F",
"m  c #91573D",
"M  c #93593E",
"N  c #855A42",
"B  c #8C5A44",
"V  c #895A45",
"C  c #935C42",
"Z  c #9B5E42",
"A  c #8E6348",
"S  c #9D6245",
"D  c #9B6649",
"F  c #9E694B",
"G  c #936348",
"H  c #856B51",
"J  c #996952",
"K  c #9A7859",
"L  c #A26447",
"P  c #A46648",
"I  c #A56B4D",
"U  c #AD6C4C",
"Y  c #B06F4E",
"T  c #AF704F",
"R  c #B2714F",
"E  c #A57453",
"W  c #AC7353",
"Q  c #AC7B59",
"!  c #AD7A57",
"~  c #B47352",
"^  c #B97653",
"/  c #BD7A56",
"(  c #BB7C59",
")  c #B47B58",
"_  c #A06B53",
"`  c #8A6965",
"'  c #947A64",
"]  c #947875",
"[  c #8D736E",
"{  c #A47969",
"}  c #C07B57",
"|  c #C37E59",
" . c #B4825E",
".. c #BC815C",
"X. c #998476",
"o. c #AB8D69",
"O. c #B78660",
"+. c #BA8863",
"@. c #AD926D",
"#. c #B98878",
"$. c #B68B77",
"%. c #BD917C",
"&. c #BEA076",
"*. c #C5815B",
"=. c #CD855E",
"-. c #CF8760",
";. c #CD8B64",
":. c #C38761",
">. c #D18961",
",. c #CE9067",
"<. c #C4946B",
"1. c #CB936A",
"2. c #C8996F",
"3. c #D59067",
"4. c #D6946A",
"5. c #D8966B",
"6. c #D3996E",
"7. c #DA9A6E",
"8. c #C49874",
"9. c #DB9E71",
"0. c #D19D72",
"q. c #C8A87C",
"w. c #DDA275",
"e. c #D2A578",
"r. c #DBAD7E",
"t. c #D5A376",
"y. c #E3AB7B",
"u. c #E1A677",
"i. c #E6B07F",
"p. c #7F7387",
"a. c #947F90",
"s. c #86798E",
"d. c #938F86",
"f. c #99818B",
"g. c #9D8695",
"h. c #978290",
"j. c #A88982",
"k. c #A49F95",
"l. c #A4929F",
"z. c #B39990",
"x. c #BBA298",
"c. c #9688A0",
"v. c #988CA2",
"b. c #9F96A7",
"n. c #A69CAE",
"m. c #A798A7",
"M. c #A99FB2",
"N. c #AFA6B7",
"B. c #AEA8B4",
"V. c #B5ADBD",
"C. c #BEACB1",
"Z. c #B2A5AC",
"A. c #C69683",
"S. c #C1A28B",
"D. c #DBAB8F",
"F. c #D6A987",
"G. c #DAB789",
"H. c #C4AA9C",
"J. c #C4A692",
"K. c #CDB29F",
"L. c #D8B698",
"P. c #E5B383",
"I. c #E9B684",
"U. c #EBB986",
"Y. c #E5BC8A",
"T. c #EDBE8A",
"R. c #CCBFBD",
"E. c #C2B2B6",
"W. c #D4B8AA",
"Q. c #E3BDA1",
"!. c #EDC18C",
"~. c #F1C38E",
"^. c #EFC793",
"/. c #F3C690",
"(. c #F5CC95",
"). c #F8CF97",
"_. c #F2CC98",
"`. c #F8CF98",
"'. c #F8D098",
"]. c #DCC3B6",
"[. c #C0BAC6",
"{. c #CBC4CA",
"}. c #D7CBC8",
"|. c #DFD3CF",
" X c #CDC9D1",
".X c #D3CDD1",
"XX c #E6DDCE",
"oX c #EEDED5",
"OX c #E7DFDC",
"+X c #EDE1D1",
"@X c #F6EDDD",
"#X c #DDDBE0",
"$X c #E7E6E9",
"%X c #E6E5E8",
"&X c #EFEEF0",
"*X c #F2F2F3",
"=X c None",
/* pixels */
"=X=X=X=X=X=X=X=X=X=X=X=X=X=X=X=X=X=X=X=X=X=X=X=X=X=X>.-.>.>.-.>.>.| L b b b x =X=X=X=X=X=X=X=X=X=X=X=X=X=X=X=X=X=X=X=X=X=X=X=X=X",
"=X=X=X=X=X=X=X=X=X=X=X=X=X=X=X=X=X=X=X=X=X=X=X=X=X=X>.>.-.-.>.-.>.| L b b b b =X=X=X=X=X=X=X=X=X=X=X=X=X=X=X=X=X=X=X=X=X=X=X=X=X",
"=X=X=X=X=X=X=X=X=X=X=X=X=X=X=X=X=X=X=X=X=X=X=X=X=X>.-.>.4.5.5.5.5.3.) F S M M =X=X=X=X=X=X=X=X=X=X=X=X=X=X=X=X=X=X=X=X=X=X=X=X=X",
"=X=X=X=X=X=X=X=X=X=X=X=X=X=X=X=X=X=X=X=X=X=X=X=X>.>.>.7.i.U.U.U.I.i.r.0.:.^ P b =X=X=X=X=X=X=X=X=X=X=X=X=X=X=X=X=X=X=X=X=X=X=X=X",
"=X=X=X=X=X=X=X=X=X=X=X=X=X=X=X=X=X=X=X=X=X=X=X>.>.>.3.y.~.).'.'.'.'.'.(.y.3.~ M m =X=X=X=X=X=X=X=X=X=X=X=X=X=X=X=X=X=X=X=X=X=X=X",
"=X=X=X=X=X=X=X=X=X=X=X=X=X=X=X=X=X=X=X=X=X=X>.>.>.7.i.T.(.).'.'.'.'.'.).~.P.,.^ P m =X=X=X=X=X=X=X=X=X=X=X=X=X=X=X=X=X=X=X=X=X=X",
"=X=X=X=X=X=X=X=X=X=X=X=X=X=X=X=X=X=X=X=X=X=.=.=.>.y.(.`.).'.'.'.'.'.'.'.'.'.i.>.~ m b =X=X=X=X=X=X=X=X=X=X=X=X=X=X=X=X=X=X=X=X=X",
"=X=X=X=X=X=X=X=X=X=X=X=X=X=X=X=X=X=X=X=X=XI U / -.u./.).'.'.'.'.'.'.'.'.'.'.i.>.R m b =X=X=X=X=X=X=X=X=X=X=X=X=X=X=X=X=X=X=X=X=X",
"=X=X=X=X=X=X=X=X=X=X=X=X=X=X=X=X=X=X=X=X=Xb m Y -.u.(.).'.'.'.'.'.'.'.'.).).i.3.R m c =X=X=X=X=X=X=X=X=X=X=X=X=X=X=X=X=X=X=X=X=X",
"=X=X=X=X=X=X=X=X=X=X=X=X=X=X=X=X=X=X=X=X=Xb b U -.y./.).'.'.'.'.'.'.'.'.).).y.>.R m b =X=X=X=X=X=X=X=X=X=X=X=X=X=X=X=X=X=X=X=X=X",
"=X=X=X=X=X=X=X=X=X=X=X=X=X=X=X=X=X=X=X=X=Xc b U -.u.(.).'.'.'.'.'.'.'.'.'.).i.>.R n b =X=X=X=X=X=X=X=X=X=X=X=X=X=X=X=X=X=X=X=X=X",
"=X=X=X=X=X=X=X=X=X=X=X=X=X=X=X=X=X=X=X=X=Xb b Y -.9.i.T.).'.'.'.'.'.'.'.'.).i.3.R M M =X=X=X=X=X=X=X=X=X=X=X=X=X=X=X=X=X=X=X=X=X",
"=X=X=X=X=X=X=X=X=X=X=X=X=X=X=X=X=X=X=Xb b b b U -.>.5.y.~.'.'.'.'.'.'.'.'.).y.>.R M L } =.=X=X=X=X=X=X=X=X=X=X=X=X=X=X=X=X=X=X=X",
"=X=X=X=X=X=X=X=X=X=X=X=X=X=X=X=X=X=X=XS M M b L ^ | -.7.P.~.(.).'.'.'.).~.U.u.>.} L Y | >.=X=X=X=X=X=X=X=X=X=X=X=X=X=X=X=X=X=X=X",
"=X=X=X=X=X=X=X=X=X=X=X=X=X=X=X=X=X=X=X} ^ L b m Z R =.>.5.y.~.'.'.'.'.(.P.7.3.>.*.| | -.-.=X=X=X=X=X=X=X=X=X=X=X=X=X=X=X=X=X=X=X",
"=X=X=X=X=X=X=X=X=X=X=X=X=X=X=X=X=X=X=X>.| Z 8 e b L ^ } ( 3.y.T.!.T.P.r.,.} *.>.>.-.-.>.-.=X=X=X=X=X=X=X=X=X=X=X=X=X=X=X=X=X=X=X",
"=X=X=X=X=X=X=X=X=X=X=X=X=X=X=X=X=X=X=X>./ r $ 4 b M S S S R ,.9.9.6.+.E I L ~ =.-.-.-.>.>.=X=X=X=X=X=X=X=X=X=X=X=X=X=X=X=X=X=X=X",
"=X=X=X=X=X=X=X=X=X=X=X=X=X=X=X=X=X=X=X| W 7   , c B J V r M / >.>.| Z e V J W | =.-.-.*.| =X=X=X=X=X=X=X=X=X=X=X=X=X=X=X=X=X=X=X",
"=X=X=X=X=X=X=X=X=X=X=X=X=X=X=X=X=X=X=XL C < . , x Q J.X.6 w W >.>.( t : ' K.$.U R =.} U L =X=X=X=X=X=X=X=X=X=X=X=X=X=X=X=X=X=X=X",
"=X=X=X=X=X=X=X=X=X=X=X=X=X=X=X=X=X=X=Xb e *   - e z.+Xk.& < E >.>.~ 5 + d.@XS.B L } ~ C b =X=X=X=X=X=X=X=X=X=X=X=X=X=X=X=X=X=X=X",
"=X=X=X=X=X=X=X=X=X=X=X=X=X=X=X=X=X=X=X=X8 o   o = X.+Xk.& 6 +.u.4.~ 5 + d.@XJ.n M L L M =X=X=X=X=X=X=X=X=X=X=X=X=X=X=X=X=X=X=X=X",
"=X=X=X=X=X=X=X=X=X=X=X=X=X=X=X=X=X=X=X=X=X        z XXk.& i q.!.9.) 5 + d.@XJ.n b b b =X=X=X=X=X=X=X=X=X=X=X=X=X=X=X=X=X=X=X=X=X",
"=X=X=X=X=X=X=X=X=X=X=X=X=X=X=X=X=X=X=X=X=X=X      k K.&.X.o.G./.U.0.K g $.Q.#.n b b =X=X=X=X=X=X=X=X=X=X=X=X=X=X=X=X=X=X=X=X=X=X",
"=X=X=X=X=X=X=X=X=X=X=X=X=X=X=X=X=X=X=X=X=X=X=X    9 ..t.!.!.).).`.T.9.| -.>.Y b b =X=X=X=X=X=X=X=X=X=X=X=X=X=X=X=X=X=X=X=X=X=X=X",
"=X=X=X=X=X=X=X=X=X=X=X=X=X=X=X=X=X=X=X=X=X=X=X= = 7 y Q e.T.(.`.`./.w.=.} ~ S b b =X=X=X=X=X=X=X=X=X=X=X=X=X=X=X=X=X=X=X=X=X=X=X",
"=X=X=X=X=X=X=X=X=X=X=X=X=X=X=X=X=X=X=X=X=X=X=Xe e 1 % 9 ..w.~.`.`./.w.=.U m b b c b b =X=X=X=X=X=X=X=X=X=X=X=X=X=X=X=X=X=X=X=X=X",
"=X=X=X=X=X=X=X=X=X=X=X=X=X=X=X=X=X=X=X=X=X=X=XM L w - 1 N E <.e.e.8.Q G D S U Q ! Q E =X=X=X=X=X=X=X=X=X=X=X=X=X=X=X=X=X=X=X=X=X",
"=X=X=X=X=X=X=X=X=X=X=X=X=X=X=X=X=X=X=X=X=X=Xm U } D r 1 > 5 N F F C 7 : N *.1.P.Y.P.2.F b =X=X=X=X=X=X=X=X=X=X=X=X=X=X=X=X=X=X=X",
"=X=X=X=X=X=X=X=X=X=X=X=X=X=X=X=X=X=X=X=X=XZ S ~ -.Y b q < 7 n Z Z n 1 = B >.y.).'.'.e.F b =X=X=X=X=X=X=X=X=X=X=X=X=X=X=X=X=X=X=X",
"=X=X=X=X=X=X=X=X=X=X=X=X=X=X=X=X=X=X=X=X=X/ } *.-.Y m M D U ~ / ^ T n q P >.y.(.'.'.e.F b =X=X=X=X=X=X=X=X=X=X=X=X=X=X=X=X=X=X=X",
"=X=X=X=X=X=X=X=X=X=X=X=X=X=X=X=X=X=X=X=X=X*.>.-.>.Y m I ;.5.5.5.5.;.W Z U | 9.T./.).r.Q D =X=X=X=X=X=X=X=X=X=X=X=X=X=X=X=X=X=X=X",
"=X=X=X=X=X=X=X=X=X=X=X=X=X=X=X=X=X=X=X=XM ^ >.-.-.Y m W t.U.I.U.U.y.;.~ U L ( 9.P.).!.r.<.I b =X=X=X=X=X=X=X=X=X=X=X=X=X=X=X=X=X",
"=X=X=X=X=X=X=X=X=X=X=X=X=X=X=X=X=X=X=Xx M R >.*.=.P r  .Y.'.'.'.'./.u.*.L e L | w./.'.'.r.E b =X=X=X=X=X=X=X=X=X=X=X=X=X=X=X=X=X",
"=X=X=X=X=X=X=X=X=X=X=X=X=X=X=X=X=X. o 8 m Y >.^ P r ; H G.'.'.'.'.~.w.*.n * w D <.!.'.'.r.E b =X=X=X=X=X=X=X=X=X=X=X=X=X=X=X=X=X",
"=X=X=X=X=X=X=X=X=X=X=X=X=X=X=X=X=X  o 4 m Y *.U b ,   f F.).`.'.'.!.w.( 0   , c O.Y.).).r.E x =X=X=X=X=X=X=X=X=X=X=X=X=X=X=X=X=X",
"=X=X=X=X=X=X=X=X=X=X=X=X=X=X=X=X=X  o 4 b Z U M b , . 0 <.I./.`.'.!.1.D 1   5 P *.w.I.(.q.h - =X=X=X=X=X=X=X=X=X=X=X=X=X=X=X=X=X",
"=X=X=X=X=X=X=X=X=X=X=X=X=X=X=X=X=X  X 4 x b b b b 1 . 1 ~ 9.T.`.`.Y.O.r -   9 *.>.>.u.!.&.6   =X=X=X=X=X=X=X=X=X=X=X=X=X=X=X=X=X",
"=X=X=X=X=X=X=X=X=X=X=X=X=X=X=X=X=X  X 4 b b x 8 , 6 a j I :.9.P.P.0.A < u p ' t.7.>.;.1.K :   =X=X=X=X=X=X=X=X=X=X=X=X=X=X=X=X=X",
"=X=X=X=X=X=X=X=X=X=X=X=X=X=X=X=X=X  X 4 b b x , X a s.[ V I | >.>.( 7 O s s.x./.i.3./ D w %   =X=X=X=X=X=X=X=X=X=X=X=X=X=X=X=X=X",
"=X=X=X=X=X=X=X=X=X=X=X=X=X=X=X=X=X  X ; 1 4 1 3 d l M.l.j.$.A.A.A.j.` s p.c.H._.T.u. .t , #   =X=X=X=X=X=X=X=X=X=X=X=X=X=X=X=X=X",
"=X=X=X=X=X=X=X=X=X=X=X=X=X=X=X=X=X=X=XX X X O p s.m. X.X}.[.E.E.E.C.m.m.v.a.E.`.(.T.$.5 X =X=X=X=X=X=X=X=X=X=X=X=X=X=X=X=X=X=X=X",
"=X=X=X=X=X=X=X=X=X=X=X=X=X=X=X=X=X=X=X=X    X l N.[.#X$X$XOX X[.V.V.V.V.N.a.E.Q.`.`.@.2   =X=X=X=X=X=X=X=X=X=X=X=X=X=X=X=X=X=X=X",
"=X=X=X=X=X=X=X=X=X=X=X=X=X=X=X=X=X=X=X=X=X=X=XB. X#X&X*X*X$X#X XN.n.B.V.M.a.K.T.'.'.@.2   =X=X=X=X=X=X=X=X=X=X=X=X=X=X=X=X=X=X=X",
"=X=X=X=X=X=X=X=X=X=X=X=X=X=X=X=X=X=X=X=X=X=X=XR.R.}.oXoXoXOXOX Xm.h.m.N.M.a.x.Q.G.S.K 2   =X=X=X=X=X=X=X=X=X=X=X=X=X=X=X=X=X=X=X",
"=X=X=X=X=X=X=X=X=X=X=X=X=X=X=X=X=X=X=X=X=X=X=X{ { #.D.D.D.W.|.].$.` a.m.v.a.a.Z.X.f 6 =X=X=X=X=X=X=X=X=X=X=X=X=X=X=X=X=X=X=X=X=X",
"=X=X=X=X=X=X=X=X=X=X=X=X=X=X=X=X=X=X=X=X=X=X=XM C ~ ,.4.4.F.].E.' V ] a.l.a.a.a.s +   =X=X=X=X=X=X=X=X=X=X=X=X=X=X=X=X=X=X=X=X=X",
"=X=X=X=X=X=X=X=X=X=X=X=X=X=X=X=X=X=X=X=X=X=Xn L ~ ,.P.I.I.P.D.8._ C { 8.#.#.{ ` u @   =X=X=X=X=X=X=X=X=X=X=X=X=X=X=X=X=X=X=X=X=X",
"=X=X=X=X=X=X=X=X=X=X=X=X=X=X=X=X=X=X=X=X=Xx c I -.u./.`.`.U.7./ L C Y | | 3.} C 1 X   =X=X=X=X=X=X=X=X=X=X=X=X=X=X=X=X=X=X=X=X=X",
"=X=X=X=X=X=X=X=X=X=X=X=X=X=X=X=X=X=X=X=X=X- < C -.u.(.`.'.T.5.} S M ~ -.-.-.U m 1 .   =X=X=X=X=X=X=X=X=X=X=X=X=X=X=X=X=X=X=X=X=X",
"=X=X=X=X=X=X=X=X=X=X=X=X=X=X=X=X=X=X=X=X=X    t -.y./.`.'.U.7.} S M Y =.-.-.U b 1 .   =X=X=X=X=X=X=X=X=X=X=X=X=X=X=X=X=X=X=X=X=X",
"=X=X=X=X=X=X=X=X=X=X=X=X=X=X=X=X=X=X=X=X=X  . t =.y.(.!.I.6.( S q 4 n Y Y U Z b 1 .   =X=X=X=X=X=X=X=X=X=X=X=X=X=X=X=X=X=X=X=X=X",
"=X=X=X=X=X=X=X=X=X=X=X=X=X=X=X=X=X=X=X=X=X  . t =.u.(.U.5./ S q * o 4 m b b b b 1 .   =X=X=X=X=X=X=X=X=X=X=X=X=X=X=X=X=X=X=X=X=X",
"=X=X=X=X=X=X=X=X=X=X=X=X=X=X=X=X=X=X=X=X=X=X. 7 N  .y.w.3.*.Y v * X 1 c b b q 4 * . =X=X=X=X=X=X=X=X=X=X=X=X=X=X=X=X=X=X=X=X=X=X",
"=X=X=X=X=X=X=X=X=X=X=X=X=X=X=X=X=X=X=X=X=X=X=X# O g :.>.>.=.*.F ; X 1 b c c 1 . . =X=X=X=X=X=X=X=X=X=X=X=X=X=X=X=X=X=X=X=X=X=X=X",
"=X=X=X=X=X=X=X=X=X=X=X=X=X=X=X=X=X=X=X=X=X=X=X$ $ y *.>.>.>.>.E < . = 4 4 4 * . =X=X=X=X=X=X=X=X=X=X=X=X=X=X=X=X=X=X=X=X=X=X=X=X",
"=X=X=X=X=X=X=X=X=X=X=X=X=X=X=X=X=X=X=X=X=X=X=Xq q S *.>.>.=.>.I <   . o o X X =X=X=X=X=X=X=X=X=X=X=X=X=X=X=X=X=X=X=X=X=X=X=X=X=X",
"=X=X=X=X=X=X=X=X=X=X=X=X=X=X=X=X=X=X=X=X=X=X=XZ Z ^ 5.7.7.5.>.E <           =X=X=X=X=X=X=X=X=X=X=X=X=X=X=X=X=X=X=X=X=X=X=X=X=X=X",
"=X=X=X=X=X=X=X=X=X=X=X=X=X=X=X=X=X=X=X=X=X=Xb I ^ 6.I.T.T.y.5.I <     =X=X=X=X=X=X=X=X=X=X=X=X=X=X=X=X=X=X=X=X=X=X=X=X=X=X=X=X=X",
"=X=X=X=X=X=X=X=X=X=X=X=X=X=X=X=X=X=X=X=X=Xc b ~ 5.y.).).'.I.,.D ;   =X=X=X=X=X=X=X=X=X=X=X=X=X=X=X=X=X=X=X=X=X=X=X=X=X=X=X=X=X=X",
"=X=X=X=X=X=X=X=X=X=X=X=X=X=X=X=X=X=X=X=X=Xb n ..I.!.).'.'.r.) v *   =X=X=X=X=X=X=X=X=X=X=X=X=X=X=X=X=X=X=X=X=X=X=X=X=X=X=X=X=X=X",
"=X=X=X=X=X=X=X=X=X=X=X=X=X=X=X=X=X=X=X=X=Xb n +.!.!.!.!.!.&.A 4 %   =X=X=X=X=X=X=X=X=X=X=X=X=X=X=X=X=X=X=X=X=X=X=X=X=X=X=X=X=X=X",
"=X=X=X=X=X=X=X=X=X=X=X=X=X=X=X=X=X=X=X=X=Xb b F O.O.O.K h f : * o =X=X=X=X=X=X=X=X=X=X=X=X=X=X=X=X=X=X=X=X=X=X=X=X=X=X=X=X=X=X=X",
"=X=X=X=X=X=X=X=X=X=X=X=X=X=X=X=X=X=X=X=X=Xb b b c b v 1 X       =X=X=X=X=X=X=X=X=X=X=X=X=X=X=X=X=X=X=X=X=X=X=X=X=X=X=X=X=X=X=X=X",
"=X=X=X=X=X=X=X=X=X=X=X=X=X=X=X=X=X=X=X=X=X=X=X=X=X=X=X=X=X=X=X=X=X=X=X=X=X=X=X=X=X=X=X=X=X=X=X=X=X=X=X=X=X=X=X=X=X=X=X=X=X=X=X=X"
};
