/* XPM */
static char *result[] = {
/* columns rows colors chars-per-pixel */
"64 64 177 2 ",
"   c #9A7405",
".  c #9E7806",
"X  c #9E7608",
"o  c #9E790B",
"O  c #9D7A11",
"+  c #A47B06",
"@  c #AA7F07",
"#  c #A07509",
"$  c #A37E0B",
"%  c #A17B11",
"&  c #A17E1A",
"*  c #AB8107",
"=  c #AB820B",
"-  c #B28707",
";  c #B58907",
":  c #BA8D06",
">  c #B18608",
",  c #B48909",
"<  c #BA8D0A",
"1  c #BD9007",
"2  c #A98312",
"3  c #A2811D",
"4  c #AC881D",
"5  c #B88E16",
"6  c #B48D1A",
"7  c #B88E1B",
"8  c #B68E14",
"9  c #BC9316",
"0  c #A48322",
"q  c #A98A2C",
"w  c #BB9627",
"e  c #BA972E",
"r  c #BF9928",
"t  c #B4902A",
"y  c #AD8F37",
"u  c #AE903C",
"i  c #B0913A",
"p  c #B49431",
"a  c #C79607",
"s  c #C89607",
"d  c #CC9B07",
"f  c #C59509",
"g  c #C7990B",
"h  c #CB9A09",
"j  c #D09D07",
"k  c #D19E08",
"l  c #C99B15",
"z  c #C89D1B",
"x  c #D3A007",
"c  c #DFAA07",
"v  c #D5A109",
"b  c #DBA609",
"n  c #DDA909",
"m  c #DBA607",
"M  c #CEA11D",
"N  c #D5A511",
"B  c #D9A712",
"V  c #D7A816",
"C  c #DBA912",
"Z  c #E5AE06",
"A  c #E4AE0A",
"S  c #E8AF0B",
"D  c #EFB507",
"F  c #E7B10A",
"G  c #EBB209",
"H  c #FABE07",
"J  c #F1B708",
"K  c #F4BA09",
"L  c #FABE09",
"P  c #E1AD11",
"I  c #E6B213",
"U  c #ECB817",
"Y  c #E4B31F",
"T  c #F6BE13",
"R  c #C99F23",
"E  c #CDA121",
"W  c #C6A02A",
"Q  c #CAA12A",
"!  c #C0A13F",
"~  c #CAA73B",
"^  c #D7B036",
"/  c #E6B522",
"(  c #EDBB21",
")  c #E4B628",
"_  c #F0BE24",
"`  c #E4B830",
"'  c #E5BA3A",
"]  c #FEC107",
"[  c #FDC10A",
"{  c #F6C016",
"}  c #FDC414",
"|  c #FDC51A",
" . c #FEC723",
".. c #FEC826",
"X. c #F9C62A",
"o. c #FECA2B",
"O. c #FDCB33",
"+. c #FDCE3D",
"@. c #B29646",
"#. c #B29648",
"$. c #B3984A",
"%. c #B79D53",
"&. c #BAA258",
"*. c #BDA663",
"=. c #BFA966",
"-. c #BEA868",
";. c #CAA945",
":. c #C7A847",
">. c #C7AD5D",
",. c #C8AC54",
"<. c #DABA58",
"1. c #DCBA53",
"2. c #E6BC40",
"3. c #C5AF67",
"4. c #CAB168",
"5. c #C4AE71",
"6. c #C4B175",
"7. c #C4B178",
"8. c #C9B67E",
"9. c #FECF42",
"0. c #FED045",
"q. c #FED24D",
"w. c #FED353",
"e. c #FED55C",
"r. c #DEC168",
"t. c #FED763",
"y. c #FED866",
"u. c #FED96A",
"i. c #FEDC74",
"p. c #F5D77A",
"a. c #FFDE7C",
"s. c #F5D573",
"d. c #CBBA85",
"f. c #CDBC8C",
"g. c #D0BD80",
"h. c #D4C18B",
"j. c #CFC192",
"k. c #D2C293",
"l. c #D3C49A",
"z. c #FFDF82",
"x. c #F5DB8A",
"c. c #E9D492",
"v. c #FFE085",
"b. c #FEE28A",
"n. c #FDE494",
"m. c #D6CBA5",
"M. c #D9CCA4",
"N. c #DACEAA",
"B. c #D7CCAB",
"V. c #DBD1AE",
"C. c #DED5B7",
"Z. c #DFD8BC",
"A. c #E0D4B6",
"S. c #E0D7BD",
"D. c #E1DABE",
"F. c #FCEBBE",
"G. c #F6E5B2",
"H. c #E3DBC3",
"J. c #E5DFCA",
"K. c #FAEFCF",
"L. c #FAF0CE",
"P. c #E9E3D2",
"I. c #EBE7D9",
"U. c #EDEADF",
"Y. c #EEEBE1",
"T. c #F0EEE7",
"R. c #F1EFE8",
"E. c #F3F2ED",
"W. c #F8F5ED",
"Q. c #F7F7F7",
"!. c #F8F7F7",
"~. c #F6F8F7",
"^. c #F8F8F4",
"/. c #F7F7F8",
"(. c #F8F7F8",
"). c #F7F8F8",
"_. c #F8F8F8",
/* pixels */
"Q.Q.Q.Q.Q.Q.Q.Q.Q.Q.Q.Q.Q.Q.Q.Q.Q.Q.Q.Q.Q.Q.Q.Q.Q.Q.Q.Q.Q.Q.Q.Q.Q.Q.Q.Q.Q.Q.Q.Q.Q.Q.Q.Q.Q.Q.Q.Q.Q.Q.Q.Q.Q.Q.Q.Q.Q.Q.Q.Q.Q.Q.Q.Q.",
"Q.Q.Q.Q.Q.Q.Q.Q.Q.Q.Q.Q.Q.Q.Q.Q.Q.Q.Q.Q.Q.Q.Q.Q.Q.Q.Q.Q.Q.Q./.Q.Q.Q.Q.Q.Q.Q.Q.Q.Q.Q.Q.Q.Q.Q.Q.Q.Q.Q.Q.Q.Q./.Q.Q.Q.Q.Q.Q.Q.Q.Q./.",
"Q./.Q.E.U.U.U.^.Q.Y.Y.U.Y.Y.Y.).Q.Q.T.Y.^./.Q.Q.Q.Q.Q.Q.Q.Q.Q.Q.Q.Q.Q.Q.Q.Q.Q.Q.Q.Q.Q.Q.Y.Y.Q.Q.Q.^.Y.U.Y.Y.U.^.Q.Y.U.U.Y.Q.Q.Q.",
"Q././.k.O O O D.^.u O O O O &./.Q.Q.*.o H.~.Q.Q.Q.Q.Q.Q.Q.Q.Q.Q.Q.Q.Q.Q.Q.Q.Q.Q.Q.Q.Q.Q.3 0 R./.Q.N.O O O O O J.Q.O O O %.Q.Q.Q.",
"Q.Q.Q.j.  + - h.A.w - - > - ! C.C.C.:.- k.C.C.C.C.C.C.C.C.C.C.R.E.H.C.C.C.C.C.C.C.C.C.C.8 5 V.Z.C.d.; ; - - < k.C.- *   $./././.",
"Q.Q.Q.j.  d ] -   G [ [ [ [ n       m ] *                     D.T.y                     K K +     : [ [ [ [ L * X [ G X $./.Q.Q.",
"Q.Q.Q.H.7.~ x g h h k L [ ..( h h g ( o.N h Q E f h g z W z s 4.8.z g Q R s h h z Q l g o.X.h h s V ..| ] A d h h d M 6.l.!.Q.Q.",
"Q.Q.Q.Q._.7.  Z [ = + H } w.+.[ ] ] +.w.} ] q.0.[ ] ] ..w...[ - . D [ w.+.] ] ] o.w.| ] w.0.] [ ] | w.o.] : X G ]   u E.).Q.Q.Q.",
"Q.Q.Q.H.5.~ j s s j k H [ ..o.O.O.o.o...} [ o.o.o.O.O.o.o.} ] b v K [ ..o.O.O.o.o.o.[ ] o.o.O.o.O.o...| ] c k h f d M 6.k.!.Q.Q.",
"Q.Q.Q.k.  k ] ;   G [ [ ] [ | w.w.w. .[ ] ] [ } w.w.w.o.[ ] ] [ ] [ ] [ | w.w.w.o.[ ] ] ] [ q.w.q.+.[ [ ] ] L * X ] G X $.!.Q.Q.",
"Q.Q./.j.  k ] G A L L , 9 y.u.a.i.a.u.y.y.y.y.u.i.i.i.i.y.y.y.y.y.y.y.y.u.a.i.i.i.y.u.y.y.y.i.i.i.i.u.^ - A L G Z [ G   $.Q.Q.Q.",
"Q.Q./.j.  k ] [ L [ K $ 4 b.b.b.b.b.b.b.b.b.b.b.b.b.b.b.b.b.b.b.b.b.b.b.b.b.b.b.b.b.b.b.b.b.b.b.b.b.b.;.. c ] [ [ [ G X $.Q.Q.Q.",
"Q.Q.Q.f.  d ] +.q.} } s.x.W.W.W.W.W.W.W.W.W.W.W.^.W.W.W.W.W.W.W.W.W.W.W.W.W.W.W.W.W.W.W.W.W.W.W.W.W.W.G.p.O.[ +.0.] G X $.)./.Q.",
"Q.Q./.l.O k L +.q.} } a.n.).~.).Q.Q.Q.Q.Q.Q.Q.Q.!.Q.Q.!.Q.Q.Q.Q._._.Q.Q.Q.Q.Q.Q.~._.Q.Q.Q.Q.Q.Q._._.~.F.v.O.[ 9.q.L S % $._.Q./.",
"Q.Q./.Q.Q.6.  A [ 9.e.z.n.).~._.Q.Q.Q.Q.Q.Q.Q.Q.Q.Q.Q.Q.Q.Q.Q.Q.~.Q.Q.Q.Q.Q.Q.Q._.Q.Q.Q.Q.Q.Q.Q.Q.Q.!.F.v.y.q.| [   u E.Q.Q.Q.Q.",
"Q.Q.Q.Q.!.6.  A [ 0.w.z.n.).!.~.Q.Q.Q.Q.Q.Q./.Q.Q.Q.Q.Q.Q.Q.Q.Q.!.Q.Q.Q.Q.Q.Q.Q.Q.!.Q.Q.Q.Q.Q.Q.Q.Q./.F.v.y.w.} [   y E.Q.Q.Q.Q.",
"Q.Q.Q.Q.Q.6.  A [ 9.w.z.n./.Q.Q.Q.Q.Q.Q.Q.Q.Q.Q.Q.Q.Q.Q.Q.Q.Q.Q.Q.Q.Q.Q.Q.Q.Q.Q.Q.Q.Q.Q.Q.Q.Q.Q.Q.Q.Q.F.v.t.q.} [   y E.~.Q.Q.Q.",
"Q.Q./.J.f.:.a ( o.O.+.z.n.).Q.Q.Q.Q.Q.Q.Q.Q.Q.Q.Q.Q.Q./.Q.Q.Q.Q.Q.Q.Q.Q.Q.Q.Q.Q.Q.Q.Q.Q.Q.Q.Q.Q.Q.Q.Q.F.v.w.O.o.o.a W f.N.Q.Q.Q.",
"Q.Q.Q.j.  j [ +.w.} } a.n.).Q.Q.Q.Q.Q.Q.Q.Q.Q.Q.Q.Q.Q.Q.Q.Q.Q.Q.Q.Q.Q.Q.Q.Q.~.Q.Q.Q.Q.Q.Q.Q.Q.Q.Q.Q.Q.F.v.O.[ 0.w.[ G   @.Q.Q.Q.",
"Q.Q.Q.J.f.;.g ( o.[ } a.n.).Q.Q.Q.Q.Q.Q.Q.Q.Q.Q.Q.Q.Q.Q.Q.Q.Q.Q.Q.Q.Q.Q.Q.Q.Q.Q.Q.Q.Q.Q.Q.Q.Q.Q.Q.Q.Q.F.v.O.]  ...f R d.N.Q.Q.Q.",
"Q.Q.Q.Q.Q.6.  Z [ ] } a.n.).Q.Q.Q.Q./.Q.Q.Q.Q.Q.Q.Q.Q.Q.Q.Q.Q.Q.Q./.Q.Q.Q.Q.Q.Q.Q.Q.Q.Q.Q.Q.Q.Q.Q.Q.Q.F.v.O.] [ [   u E.Q.Q.Q.Q.",
"Q.Q.Q.Q.Q.6.  ` +.} } a.n.).Q.Q.Q.Q.Q.Q.Q.Q.Q.Q.Q.Q.Q.Q.Q.Q.Q.Q.Q.Q.Q.Q.Q.Q.Q.Q.Q.Q.Q.Q.Q.Q.Q.Q.Q.Q.Q.F.v.O.[ O.+.  y E.Q.Q.Q.Q.",
"Q.Q.Q.Q./.6.  ' w.} } a.n.).Q.Q.Q.Q.Q.Q.Q.Q.Q.Q.Q.Q.Q.Q.Q.Q.Q.Q.Q.Q.Q.Q.Q.Q.Q.Q.Q.Q.Q.Q.Q.Q.Q.Q.Q.Q.Q.F.v.O.[ 9.w.  y E.Q.Q.Q.Q.",
"Q.Q.Q.Q./.7.  A [ 9.w.z.n.).Q.Q.Q.Q.Q.Q.Q.Q.Q.Q.Q.Q.Q.Q.Q.Q./.Q.Q.Q.Q.Q.Q./.Q.Q.Q.Q.Q.Q.Q.Q.Q.Q.Q.Q.Q.F.v.t.q.| [   y E.Q.Q.Q.Q.",
"Q.Q.Q.Q./.6.  Z L 0.e.z.n.).Q.Q.Q.Q.Q.Q.Q.Q.Q.Q.Q.Q.Q.Q.Q.Q.Q.Q.Q.Q.Q.Q.Q.Q.Q.Q.Q.Q.Q.Q.Q.Q.Q.Q.Q.Q.~.F.v.t.q.| [   y E.!.Q.Q.Q.",
"Q.Q.Q.Q.~.6.  Z [ 9.w.z.n.).Q.Q.Q.Q.Q.Q.Q.Q.Q.Q.Q.Q.Q.Q.Q.Q.Q.~.Q.Q.Q.Q.Q.Q.Q.Q.Q.Q.Q.Q.Q.Q.Q.Q.Q.Q.~.F.v.y.w.} L   y E./.Q.!.Q.",
"Q.Q.Q.Q.~.6.  P | +.0.z.n.).Q.Q.Q.Q.Q.Q.Q.Q.Q.Q.Q.Q.Q.Q.Q.Q.Q.Q.Q.Q.Q.Q.Q.Q.Q.Q.Q.Q.Q.Q.Q.~.Q.Q.Q.Q.~.F.v.e.+. .|   y E.Q.Q.Q.Q.",
"Q.Q.Q.Q.~.6.  2.w.} } a.n.).Q.Q.Q.Q.Q.Q.Q.Q.Q.Q.Q.Q.Q.Q.Q.Q.Q.Q.Q.Q.Q.Q.Q.Q.Q.Q.Q.Q.Q.Q.Q.Q.Q.Q.Q.Q.~.F.v.O.[ 0.w.  y E.Q.Q.Q.Q.",
"Q.Q.Q.Q.Q.6.  ) O.[ } a.n./.Q.Q.Q.Q.Q.Q.Q.Q.Q.Q.Q.Q.Q.Q.Q.Q.Q.Q.Q.Q.Q.Q.Q.Q.Q.Q.Q.Q.Q.Q.Q.Q.Q.Q.Q.Q.Q.F.v.O.[ X.O.  u E.Q.Q.Q.Q.",
"Q.Q.Q.Q.Q.6.  A L [ } a.n./.Q.Q.Q.Q.Q.Q.Q.~.Q.Q.Q./.Q.Q.Q.Q.Q.Q.Q.Q.Q.Q./.Q.Q.Q.Q.Q.Q.Q.Q.Q.Q.Q.Q.Q.Q.F.z.O.[ [ L   y E.Q.Q.Q.Q.",
"Q.Q.Q.Q.Q.D.j.R f K } z.n.)./.Q.Q.Q.Q.Q./.Q.Q.Q.Q.Q.Q.Q.Q.Q.Q.Q.Q.Q.Q.Q.~.Q.Q.Q.Q.Q.Q.Q.Q.Q.Q.Q.Q.Q.Q.F.z.+.[ v f f.M.^.Q./.Q.Q.",
"Q.Q./.Q.Q.Q.Q.@.  G } a.n./.Q.Q.Q.Q.Q.Q.Q.Q.Q.Q.Q.Q.Q.Q.Q.Q.Q.Q.Q.Q.Q.Q.Q.Q.Q.Q.Q.Q.Q.Q.Q.Q.Q.Q.Q.Q.Q.F.v.O.[ *   Q.Q.Q.Q.Q.Q.Q.",
"Q.Q.Q.Q.~.l.@.V A L } a.n.).Q.Q.Q.Q.Q.Q.Q./.!.Q.Q.Q.Q.Q.Q.Q.Q.Q.Q.Q.Q./.Q.Q.Q.Q.Q.Q.Q.Q.Q.Q.Q.Q.Q.Q.Q.F.v.O.] G F @.-.^.~.Q.Q.Q.",
"Q.Q.Q.Q.~.-.  A [ [ } z.n.).Q.Q.Q.Q.Q.Q.Q.Q.Q.Q.Q.Q.Q.Q.Q.Q.Q.Q.Q.Q.Q.Q.Q.Q.Q.Q.Q.Q.~.!.Q.Q.Q.Q.Q.Q./.F.v.O.[ [ [   y E.~.~.Q.Q.",
"Q.Q.Q././.6.  ` 0.} } a.n.).Q.Q.Q.Q.Q.Q.Q.Q.Q.Q.Q.Q.Q.Q.Q.Q.Q.Q.Q.Q.Q.Q.Q.Q.Q.Q.Q.Q.Q./.Q.Q.Q.Q.Q.Q.Q.F.v.O.[ +.0.  y E.Q.Q.Q.Q.",
"Q.Q.Q.Q.~.6.  ' q.| | a.n.).Q.Q.Q.Q.Q.Q.Q.Q.Q.Q.Q.Q.Q.Q.Q.Q.Q.Q.Q.Q.Q.Q.Q.Q.Q.Q.Q.Q.Q.Q.Q.Q.Q.Q.Q.Q.Q.F.v.+.} +.q.  y R.Q.Q.Q.Q.",
"Q.Q.Q.Q.Q.6.  A [ 0.w.z.n.).Q.Q.Q.Q.Q.Q.Q.Q.Q.Q.Q.Q.Q.Q.Q.Q.Q.Q.Q.Q.Q.Q.Q.Q.Q.Q.Q.Q.Q.Q.Q.Q.Q.Q.Q.Q.Q.F.v.t.q.| L   y E.Q.Q.Q.Q.",
"Q.Q.Q.Q.Q.6.  Z [ 0.e.z.n.).Q.Q.Q.Q.Q.Q.Q.!.Q.Q.Q.Q.Q.Q.Q.Q.Q.Q.Q.Q.Q.Q.Q.Q.Q.Q.Q.Q.Q.!.Q.Q.Q.Q.Q.Q.Q.F.v.y.q.| L   y R.Q.Q.Q.Q.",
"Q.Q.Q.Q.Q.6.  A [ 9.w.z.n.).Q.Q.Q.Q.Q.Q.Q.~.Q.Q.Q.Q.Q.Q.Q.Q.Q.Q.Q./.Q.Q.Q.Q.Q.Q.Q.Q.Q.Q.Q.Q.Q.Q.Q.Q.Q.F.v.y.q.| [   y ^.Q.Q.Q.Q.",
"Q.Q.Q.Q./.5.  / ..O.+.z.n.).Q.Q.Q.Q.Q.Q.Q.Q.Q.Q./.Q.Q.Q.Q.Q.Q.Q.Q.Q.Q.Q.Q.Q.Q.Q.Q.Q.Q.Q.Q.Q.Q.Q.Q.Q.Q.F.z.w.O.....  y R.Q.Q.Q.Q.",
"Q.Q.Q.Q.Q.6.  2.w.} } a.n.).Q.Q.Q.Q.Q.~.!.Q.Q.Q.Q.Q.Q.Q.Q.Q.Q.Q.Q.Q.Q.Q.Q.Q.Q.Q.Q.Q.Q.Q.Q.Q.Q.Q./.~.~.F.b.O.[ 0.w.  y R./.Q.Q.Q.",
"Q.Q.Q./.Q.6.  / ..[ } a.n.).Q.Q.Q.Q.Q.Q.Q.Q.Q.Q.Q.Q.Q.Q.Q.Q.Q.Q.Q.Q.Q.Q.Q.Q.Q.Q.Q.Q.Q.Q.Q.Q.Q././.~.~.F.v.O.[ | ..  y ^././.Q.Q.",
"Q.Q.Q.)._.6.  c [ ] } a.n.)././.Q./.Q.Q.Q.Q.Q.Q.Q.Q.Q.Q.Q.~.!.Q.Q.Q.Q.Q.Q.Q.Q.Q.Q.Q.Q.Q.Q.Q.Q.Q.Q.Q.~.F.v.O.[ ] L   u E.(.Q.Q.Q.",
"Q.Q.Q.m.u Q F X.9.} } z.n.)././.Q.Q.Q.Q.Q.Q.Q.Q.Q.Q.Q.Q.Q.Q.Q.Q.Q.Q.Q.~.Q.Q.Q.Q.Q.Q.Q.Q.Q.Q.Q.Q.Q.Q.~.F.v.O.[ +.9.G C i 5.Q.Q.Q.",
"Q.Q.^.j.  j ] +.w.} } a.n.).Q.Q.Q.Q.Q.Q.Q.Q.Q.Q.Q.Q.Q.Q.Q.Q.Q.Q.Q.Q.Q.Q.Q.Q.Q.Q.Q.Q.Q.Q.Q.Q.Q.Q.Q.Q.Q.F.v.O.[ 9.w.] G X #.Q.Q.Q.",
"Q.Q.Q.E.I.3.+ I } 9.0.z.n.).Q.Q.Q.Q.Q.Q.Q.Q.Q.Q.Q.Q.Q.Q.Q.Q.Q.Q.Q.Q.Q.Q.Q.Q.Q./.Q.Q.Q.Q.Q.Q.Q.Q.Q.Q.Q.F.v.e.0.| [ @ p P.U.Q.Q.Q.",
"Q.Q.Q.Q._.6.  Z [ 0.w.z.n.).Q.Q.Q.Q.Q.Q.Q.Q.Q.Q.Q.Q.Q.Q.Q.Q.Q.Q.Q.Q.Q.Q.Q.Q.Q.Q.Q.Q.Q.Q.Q.!.Q.Q.Q.Q.Q.F.v.y.w.} [   u E.Q.Q.Q.Q.",
"Q.Q.Q.!.~.6.  Z [ 0.e.z.n.).Q.Q.Q.Q.Q.Q.Q.Q./.Q.Q.Q.Q.Q.Q.Q.Q.Q.Q.Q.Q.Q.Q.Q.Q.Q.Q.Q./.Q.Q.~.Q.Q.Q.Q.Q.F.v.y.q.| [   y E.Q.Q.Q.Q.",
"Q.Q.Q.I.C.,.: U | O.9.z.n./.Q.Q.Q.Q.Q.Q.Q.Q.~.Q.Q.Q.Q.Q.~.~.~.Q.Q.Q.~.~.Q.Q././.Q.Q.Q.~.Q.Q.Q.Q.Q.Q.Q.F.v.w.+...| : r N.H.Q.Q.Q.",
"Q.Q.Q.j.  k H +.w.} } a.n./.Q.Q.~.~.Q.Q.Q.Q.~.~.Q.Q.Q.Q.~.~.~.Q.Q.Q.~.~.Q./././.Q.Q.Q.).Q.Q.Q.Q.Q.Q.Q.F.v.O.[ 0.w.[ G X $.Q.Q.Q.",
"Q.Q.Q.j.  d [ ..+.} L 1.r.L.K.K.L.L.L.K.L.L.L.K.L.L.L.L.K.K.K.K.L.L.K.K.K.L.K.K.L.L.L.L.L.L.K.K.K.K.K.c.<.( [ o.+.] G . $.Q.Q.~.",
"Q.Q.Q.j.X j [ [ ] [ K + 2 v.v.v.v.v.v.v.v.v.v.v.v.v.v.v.b.v.v.v.v.v.v.v.v.v.z.b.v.v.v.v.v.v.v.b.v.v.z.;.  c [ [ ] ] G   $.Q.Q.Q.",
"Q.Q.Q.j.  k ] k a K L v N +.q.u.u.u.q.9.9.+.+.0.u.u.u.w.0.+.+.+.0.+.+.+.q.u.y.y.w.+.0.+.+.0.y.u.u.e.+./ k J [ d a ] G X $.~.Q.Q.",
"Q.Q.Q.j.  j ] -   G ] ] [ ] | w.w.w. .[ ] [ [ } w.w.w.o.] ] ] ] ] ] ] ] | w.w.w.o.] ] ] [ [ q.w.w.+.] ] [ [ ] =   L G # #.~.Q.Q.",
"Q.Q.Q.U.H.>.= b A < , L [ 0.O.| } } O.0.} [ +.+.| } | o.9. .[ f < J [ 0.O.| | } o.9.} [ +.9.| } | ..9...] d - b G = e C.P.Q.Q.Q.",
"Q.Q.Q.Q.Q.5.X Z [ * + H } w.+.[ ] ] +.w.} ] w.0.] ] [ o.w...] > . G [ w.+.] ] ] O.w.| [ q.q.[ ] ] | w...] : # G L X y E.^.Q.Q.Q.",
"Q.Q.Q.m.q M D : @ A D [ [ } P @ * * C } < * 2 = $ * * = 2 * @ M.J.t * 2 = + * * = 2 * $ { T * * = f } [ [ K G < * D n q -.Q.Q.Q.",
"Q.Q.Q.j.  h K 7 & S K K K K b 3 3 3 N K 6 3 3 3 3 3 3 3 3 3 3 J.E.u 3 3 3 3 3 3 3 3 3 3 G D 4 3 3 9 K J K J J 6 3 J A X $./.Q.Q.",
"Q.Q.Q.j.    . C.E.y X . .   %.^.E.R.&.X Z.E.E.E.E.R.E.R.R.E.R./.~.E.E.E.E.E.E.E.E.E.E.E.3 3 U.E.E.m.+ X . . % Z.E.. .   $.Q.Q.Q.",
"Q.Q.Q.N.@.@.@.J.(.-.@.@.@.@.8.Q.Q.Q.d.#.P.~.~.~.).).Q.Q./.).Q.Q.~.~.~.Q.~.Q.Q.Q.Q.Q.Q.Q.%.%.E.~.Q.H.#.#.#.#.$.P.!.@.#.#.6.Q.Q.Q.",
"Q.Q.Q.Q.Q.Q.Q.Q.Q.Q.Q.Q./.Q.Q.Q.Q.Q.Q.Q.Q.Q.Q.Q.).Q.Q.Q.Q.Q.Q.Q.Q.Q.Q.Q.Q.Q.Q.Q.Q.Q.Q.Q.Q.Q.Q.Q.Q.Q.Q.Q.Q.Q.Q.Q.Q.Q.Q.Q./.Q.Q.Q.",
"Q.Q.Q.Q.Q.Q.Q.Q.Q.Q.Q.Q.Q.Q.Q.Q.Q.Q.Q.Q.Q.Q.Q.Q././.Q.Q.Q.Q.Q./.Q.Q.Q.Q.Q.Q.Q.Q.Q.Q.Q.Q.Q.Q.Q.Q.Q.Q.Q.Q.Q.Q.Q.Q.Q.Q.Q.Q.Q.Q.Q.Q.",
"Q.Q.Q.Q.Q.Q.Q.Q.Q.Q.Q.Q.Q.Q.Q.Q.Q.Q.Q.Q.Q.Q.Q.Q.~.Q.Q.Q.Q.Q.Q.Q.Q.Q.Q.Q.Q.Q.Q.Q.Q.Q.Q.Q.Q.Q.Q.Q.Q.Q.Q.Q.Q.Q.Q./.Q.Q.Q.Q.Q.Q.Q.Q.",
"Q.Q.Q.Q.Q.Q.Q.Q.Q.Q.Q.Q./.Q.Q.Q.Q.Q.Q.Q.Q.Q.Q./.Q.Q.Q.Q.Q.Q.Q.Q.Q.Q.Q.Q.Q.Q.Q.Q.Q.Q.Q.Q.Q.Q.Q.Q.Q.Q.Q.Q.Q.Q.Q.Q.Q.Q.Q.Q.Q.Q.Q.Q."
};
