/* XPM */
static char *result[] = {
/* columns rows colors chars-per-pixel */
"64 64 134 2 ",
"   c #271F14",
".  c #1E260E",
"X  c #1D2C0D",
"o  c #1E2B11",
"O  c #212C0E",
"+  c #26310D",
"@  c #262315",
"#  c #292316",
"$  c #232C13",
"%  c #2B2C16",
"&  c #262318",
"*  c #2B2419",
"=  c #2D2C1A",
"-  c #32261D",
";  c #332B1D",
":  c #3A2E1F",
">  c #243113",
",  c #2D3416",
"<  c #2D3915",
"1  c #2E341A",
"2  c #2E3A19",
"3  c #313516",
"4  c #313B16",
"5  c #32341C",
"6  c #39351F",
"7  c #333B1C",
"8  c #393F1F",
"9  c #352D22",
"0  c #3A2E24",
"q  c #2F3820",
"w  c #353422",
"e  c #3C3425",
"r  c #353B21",
"t  c #3B3A24",
"y  c #363329",
"u  c #3C352A",
"i  c #3E3A2C",
"p  c #3D3630",
"a  c #3E3B31",
"s  c #413525",
"d  c #413A27",
"f  c #493926",
"g  c #42362A",
"h  c #48372C",
"j  c #433B2C",
"k  c #493D2E",
"l  c #423731",
"z  c #443D32",
"x  c #4A3E33",
"c  c #443D38",
"v  c #4C3F39",
"b  c #503F37",
"n  c #523F39",
"m  c #324416",
"M  c #35421D",
"N  c #39451D",
"B  c #3A4A1E",
"V  c #374322",
"C  c #3B4523",
"Z  c #3C4A23",
"A  c #3F432B",
"S  c #3D492A",
"D  c #404625",
"F  c #404926",
"G  c #43432C",
"H  c #49422F",
"J  c #42492D",
"K  c #47522E",
"L  c #454133",
"P  c #4B4235",
"I  c #474834",
"U  c #4A4A36",
"Y  c #46423A",
"T  c #4D443B",
"R  c #474838",
"E  c #4E4A3C",
"W  c #524435",
"Q  c #584537",
"!  c #594B36",
"~  c #53453C",
"^  c #58473C",
"/  c #534A3E",
"(  c #5B4A3C",
")  c #4F523B",
"_  c #57533F",
"`  c #624D3C",
"'  c #474540",
"]  c #4D4641",
"[  c #4E4A43",
"{  c #4F4C4B",
"}  c #534741",
"|  c #5A4742",
" . c #544B43",
".. c #5A4C44",
"X. c #554E49",
"o. c #5B4D4A",
"O. c #555145",
"+. c #5B5145",
"@. c #5B5B45",
"#. c #55514B",
"$. c #5C524B",
"%. c #5F584E",
"&. c #565553",
"*. c #5C5452",
"=. c #5E5953",
"-. c #5C5B5E",
";. c #624E42",
":. c #614E4B",
">. c #635245",
",. c #695443",
"<. c #615B46",
"1. c #63534B",
"2. c #6A5649",
"3. c #635A4D",
"4. c #6C5A4D",
"5. c #705947",
"6. c #715B4C",
"7. c #635553",
"8. c #6A5754",
"9. c #625A52",
"0. c #6B5B52",
"q. c #625A59",
"w. c #6C5D58",
"e. c #725D52",
"r. c #63604F",
"t. c #676151",
"y. c #6D6253",
"u. c #706257",
"i. c #7A6557",
"p. c #79625C",
"a. c #76685F",
"s. c #625E60",
"d. c #766461",
"f. c #776860",
/* pixels */
", , , 1 ; 9 9 9 9 9 9 9 9 9 9 9 1 M > < H z l c # c x c x c e e g l j P Y 9.9.3.#.#.L j j r 4 1 9 j j s s 3.6.e.6 G 8 $ , N J < ",
"1 d j @  .z a z a i a a u a l z D w z T E  .} X.# X.../ } ` } T x x W / ..| ..$.#.a L L P z = ~ x } +.k W 6.e.e.3.1.+.j o o O t ",
"j k k # j L i l L a =.i i u z 1 < 5 P | o.X.$.o.# =.o...| | ~ z j f g g j /  .X.} P z P T j & Y z s g j W W e.e.e.0...5 B P z a ",
"s s d # u u i z a c a i u a i a / | T j ..*.*.s.* s.o.o...^ ~ l j s g u j l Y Y T P c g l L @ I z z x s g j l } 8.:.+.L % L Y W ",
"s u u * u i i z c A i u a a j c $...6 5 g d 5 7 % t T P P H l 9 g a i i g z c L P L j $.T L & 1.Y P L h L l L E  .| w 1 7 P / z ",
"g l j # i g j k Y c a a a i j P P G e t w 5 5 Z % i j d j g j 9 l i i i i l z j j z j Y P ~ &  ...! 1.Y a L L c $.] 1.5 t  . .l ",
"E u P # j k k j x j j z j j l 6 Z , O $ X 1 = * 1 $ X , 1 * * & # * Z V L l L 5 c L z T | +.@ G K 9.U L Y z L L c I A 7 8. . . .",
"~ j j # k k k k L k x G G ~ x 5 Z k j 5 t k k g j j e i # i j i y $ X V 1 1 < Z 7 B V , t Z 7 J i L ~ | L z j a L w , > e / } [ ",
"g j f # W k k ..z k | S 5 j x g y.j g x j k ^ x x l z h   u u p u & = % 2 r 7 7 V $ 2 1 , N E a p p 9 ] T | a 5 a r 4 R 5 9.c = ",
"u k g * d P H x H H A N 5 3 j h $.j j k 5 3 ~ / g g Y u # u y y } # a a j i t t c G A A 5 F r i X.] 9 ] o.z Y T Y Y Y P | +...x ",
"l k G   P P G / 5 B Z < Z 4 F 7 4 Z C G 7 1 W l j j y p # y y u u & u a H H e H x L c c z c o.X.{ X.a &.X.] } ] W $.}  .+.w ~ d ",
", e G 9 5 N C Z Z N < > $ > C O 4 , % $ 1 t y 9 9 y 9 9 # u u [ p # i  .j L z L E L z j x Y X.&.d.&.9 &.=.| T ] } } ....o.n 7 1 ",
"5 r 7 6 7 5 5 1 5 2 @., t , 1 P l / P = 5 j +.* j j z u e y y u u # # # # * # @   k z j P E X.X.&.&.9 &.{ l } } ~  ...G +.;.| g ",
"8.} ~ ..| | x | 1 B 8 i u s j z P c L % 4.k P * L g u u y u i y  .# Y H j ~ / T L z ( z z v } #.#.$.9 ' a c X.o. .$.x 3 @.| ..j ",
"9.| / ~ ^ l W ( B m _ 0.( W z z c x ~ ; 2.` ,.; k i u u u c i O.X.# l j / ( k u P Y T P x x X. .} | y Y ' *.7.1.3.e  .......^ h ",
"3.W x z ~ | ..` , 0 i.2.2.>.+.c l Y ~ e e.y.4.* k z u j Q y u  .X.# a z P P _ P / R ~ E P E c ( P j 9 p ] X.*.X...g H : k Q >.1.",
"3.j j j c / ;.;.7 0 p.,.+.....E ..:.8.s 5.( 2.- k g g u L i j j u # L E E j P ..R O.#.#. .E j s j j s E  .X.} ] ] c W W W ! ( x ",
"+.j j i j P ( | U 5 ( >./ P c ..} ..k e >.2.j = z j j i u j L u c # Y [  .i i Y / R O.#.{ g H j Q 4.e l L z Y A c x Q Q Q ~ H g ",
"E , r j j z l s k ; t Z t c P c ..$.2.= >.,.@.- j ) ) l j j z t w # 5 [ #.Y  .E L c S #.r t i / d 8 M G L z j B C P P P ~ P N Z ",
"$ B Z t i j g g g 5 U M H } ..x ~ ..5 N 1.>.>./ Z B G S t.M A 1 O O $ ; y y y w 9 , Z Z , 2 M Z + B M B 5 < = C M Z B Z 7 B B > ",
"1 5 8 j j i j e 5 1 > 1 w | ..G L ~ 5 % 2.+.>.9. . . .E x  .../ P c  .O.X.} O.r 1 < , , 4 R 2 1 1 5 L j w 5 9 T x w 7 k 6 5 6 3 ",
"d u s e ! i i i i 1 X r.w.y.C r , , < 1 <.>.$.$.$... . .P u.+./ E | $.[ [ o.I  . .i 1 I Y #.$.9 i  .z j E z 9 u g x x H H k f e ",
"s e e e e u j i L % Z G 5 X $ C Z Z 3 , ( +.` ` $.O.#.O.L u.+...+.[ [ / .. .t [ E Y [ $.0 O.X.w $.6 L L ..:.9 v l v s k Q k g s ",
"s e e s e i j L Y 1 O V 7.o.] P H Z , J ..+.+. .O...+.#.T u.>.$.[  . .} X.[ [ ] E E P +.3.X.w w / / [ L x :.9 X.p o.k j ! P k s ",
"6 s s s e G F H B , S +.=.*.c j j G C * 2 I P P P  .O. .Y @.>. ./ } O.O.} [ E  .} / E O.$.U 8 ; O.I c T v v 9 ..p g ..x 3.;.h s ",
"s s e e D B B B Z O L $.*.X.o.7.P t 1 Z C G i L L G a z a i G z P O.} O. . ./ G ~ J }  .$.5 M 1 r r 7.*.*.:.u y.L 1.:.1.^ ;.W b ",
"7 7 $ D 3 3 S $ 1 9 d.*.=.q.7.3.j w 5 1 Z M w  .| [ u u L 1 r 1 X 3 6 x 1..., 3 C ! $.T V > N X O.u 1.7.7.O.Z m 7 Z , . t g N C ",
"; ; ; : 0 5 3 , 5 d.} *.7.7.z z L z 5 9 , 5 L i L L ..o.o.y.a.d.p.3...f.f.#  .G 6 q 7 , 5 5 i  .X.$.$.o.7.4 7 1 1 1 1 g e t 6 6 ",
"; s 6 f h j 6 w n } | ..o.7.7.d. .P j ; j w j z i L }  .o.X.o.1.$.1.$...| # u z t c  .L 5 L y o.$.| *.$.5 1 @ L ~ Q h : s 6 s 0 ",
"s 6 s e g g g / ..o.9.7.*.7.7.1.~ / z 9 z z L a j c P #.X.$.o.....:..... .# g i i L a O.L } y :.$.o.*.:.9 = # W ~ ~ k 0 e e s 0 ",
"s P ~ g t d g d j 1.o.7.7.7.7.*.$.Y / 9 L L c z L j j / X.#.o.$.x E l W ~ # j j L  .$.$.|  .g *.:.o.o.7.o.|   x x ~ s f j s s e ",
"j 1.O.j +.9.%.q.9.$.o.o.7.h l l P P ( e o.z ~ x j j j L  . .} [ v x ~ u l # g P  . .+. .P q.p 7.7.7.8.1.W ..* ~ n x b b x j Q W ",
"~ / 3.9.9.9.=.9.+.z } $.T 5 i 5 4 7 1 , 7 ....P ~ j g i z c % Y ~ ~ x ~ x * | ~ ] X.} T / $.g :.8.d.:.w.v }   ~ | | :.:.:.1.n x ",
"9 9 w 9 y 9 9 y 5 5 5 1 5 , , X 7 m Z Z Z Z : *  .l i i z / l l ~ ~ } } | * ^ T  .| } E ..o.0 1.o.7.o.| ~ x * g } | o.o.| :.:.| ",
"1.E ..$.$.3.$.P / ~ ....3.  w 1 o r i 5 | ..:.# l u P z z z l ( } ~ ~ ~ } - ~ n n v / ../ $.e +.$.1.| | ~ P C 4 = | X.o.:.:.:...",
"1.Q k $.1.$.j ( ..| ~ } :.# o.#.|  . .....| o.& } +.l i P j P P } | | | ..* v x W T N Z 5 N , D D C V 3 5 < Z 4 V 3 r +.1.:.:...",
"..k f k Q b P ~ ~ ~ | $.$.  $. .X.X.w.o.o.| } & .. .Y c / L z z P / ~ ~ ~   * * - * * # S 2 1 > O O 3 $ 1 X 4 X M Z V , % - - 9 ",
"3.:.,.` Q k P P W W Q ..1.@ $.} ] / } ~ ~ } | & ~ o.o... .P P j x P z k l 9 x a.c P P P P P $.[ E } X.*.1 5 . N w 5 , 7 8.1.2.1.",
"1...s Q x W P U H W ~ o.O.*  . .u P ~ ~ ~ ~ ~ & | | ..}  .#.L L L x k l z * u z L L L P x j 9 ~ j g L T 5 O c [ X.y w.:.1.1.:.:.",
";.Q k k W x P P z / .. ...#  ./  .P T T ~ P Y & *.o.o.o.| +.T T  .x x z x * j G L z z j z T w P T l j j 5 + j j j 9 g v } ;.;.:.",
"~ P k b ` ( Q W x / ~ / ..#  .} P j x P w z ~ 5 l z o.o.o.} ....o.X. . .H % 3 l u z i a i i 9 j T T t u , Z Z V a ; c } L o.;...",
"W k k ~ ( ( ^ W J  .t < 1 , / E L P x t 6 j z 1 3 a.....o.t B E t 1 w U 5 % C Z , N w 7 u u 9 L H j e 5 5 7 V M a 2 i } P $.| ..",
"; 0 ; : : - S Z < Z 1 1 Z B S P H x k x j g 5 2 Z Z # # * 1 o 1 = & @ 5 # # = , $ o 2 = & # # - 9 = * 9 9 ; > N , Z 2 Z 4 1 t : ",
"P j W P 5 1 , 4 2 o $ 7 1 M 1 x P u j g c i e y 5 w ..X...+. .0.u  .O.$.O.#. .[ c } l y [ { ] T P c T l =.5 5 5 i i G , w t x P ",
"Q ~ 4.2.>.; > 1 , P _ w $ X , 5 e j j j t u u a x x | | ....} ~ u ~ $.#.O.#.%. .#. .a $.[ [ E T P ~ $.&.L c E # Y a A j j j z k ",
"a a j T j 3 @.5 / $. ...j , <  .l j i z u u a l c c j l c z z T e Y $.$.i $.#.f...Y Y $.Y Y Y L P ( $.5 G X.c # j i c l z a j i ",
"i z z i i 1 _ 4.3.f.1.$.$.$ M O.X. .] c a u u u u l z x l z l z u c ..$.$.#.$.$.$.$.#.Y a c c z x .. .v Y P j * j i z i E z z u ",
"j z j i r 1 7 3.4.4.9./ E O o B X.q. .I a a y i p a Q x D j j z u P ..$.*.$.&.9.=.$.X.i A p z z x Y S A E i 6 # g l j j i z z a ",
"z z j A w 1 1 2 $.=.9.$.5 $ M H } I E L z a t Z t i i C A j z z 1 e ..$.$.$.t.$.$.q.9.E , 8 L z j ] w 1 C Y Y # ~ Y g g j z z a ",
"9 9 = > , , < Z #.#.Z +. .> , O.O.i B V i z B w Z C 7 J z l E u 5 / W 1.1.$...+.[  .@.4 > M 1 9 5 5 i 5 y e Y * e w ; ; ; ; , ; ",
"u h 2 % 3 6 < , L Y < M G # ; , B V 1 S 1 1 o 1 q 5 5 5 e 0 9 w , >.1.,.>.( ~ ~ P U 5 , , r 8 5 1 1 j 9 P l i w s s s j j a.# k ",
"s 4 2 1 ..O N B i L t / / # ( 5 , L j x A T i L y i g T c z z x ..1.>.1.>.....P g j E / 5 Z Z B 5 u r - u t s s s s g d k k # t ",
"e , d W T % > 4 Z = 9 9 e # P 5 g x x x c c ] | Y  .T P P z c z $.$.>.$.+.+.#.P P D E U , , 3 d g , 4 7 3 P e e s f k j s s # e ",
"e , >.Q s i e e 5 5 j j k # k :.W ~ v j z l z ] '  .E T P c A c -.&.#.#.O.#.{ &.c 5 ..j w k g k e ; 5 4 t d d e s f g j s e # e ",
"r t 2.k 1 V e 6 3 i g k k * ( ;.| | } C ~ E G E y } [ } E [ {  .&.&.{ S O.{  .X. .~ / Y s W k k s s s = g g j j u d s s u u * u ",
"i 7 ~ W 5 Z 6 e e u a.g j M ; * # - % 9 , , 4 N * @ > C # 1 % % 1 1 = < 2 # @ 2 7 , * # % % # # # * # , @ # # & % # # # # # # i ",
"j w P W 3 7 W s e g l j z 5 N e | | 8.:.:.% Z V < 1 w I U U 5 r i i R 2 1 r 2 7 B 7 , k k ^ ~ t w 5 w e g j g g W g s : P 5 t y ",
"j k x k W 5 @.k e u g i z x x j s P 7 Z M k j x & P Y |  .$.c [ I R Y 1 I a I 1 L u H j ..| / k l - k g j j j j x s s ; >.e e e ",
"t g k H W 0 >.j s e g l l z i u g 5 4 F 5 B x ` & L ~ P E #.O.a c L A 9 E E ] Y z x x ..| ..z e d 0 g s g g s d k s s = e.e u e ",
"d j k H f 0 ,.~ k t j i z z z l d t / 7 = e W T * W j P z O.$.#.L a a 9 z j c x P 1.o.....~ g d d 9 g g u ! j g s f s ; y.s P u ",
"e f j k k w +.P j i i z z j z i g e >.k g W ^ ~ * ~ ~ ~  .T L a z E a ; z P c z Y ~ $.o.$.U u e e 9 j g g j j j e.` ,.0 4.s t g ",
"i u j j z w @.x j j a l i c i j d t 3.j h ~ ~ } * ~ } ~ ~ g g G a A a 9 L T P ~ | X.$.*.j t V g g ; j t L g Q 4.e.5.! / 4.H e j ",
"i u G z j 1 <.z j t a j j i g j i e >.z v Y ~ ~ * ~ ~ ~ g g j a a a a 9 z T E } ~ o.$.c j t e m = 3 4 s j g ,.5.5.f 8  .>.7 i i ",
"M 2 Z Z 1 ; P z L j i j u E g t g t j w z P t i # x c x L x L l i 9 w - y u 9 e u c L e i e 5 t + 3 5 j s j s 6.6.6 4 F B V Z Z "
};
