/* XPM */
static char *bc91e65694e242af8ec3723a820059b0UZlhFm1oI7jhVJcA[] = {
/* columns rows colors chars-per-pixel */
"64 64 156 2 ",
"   c #020304",
".  c #060807",
"X  c #050608",
"o  c #0B0C0D",
"O  c #0E0E11",
"+  c #0F1112",
"@  c #131415",
"#  c #191917",
"$  c #161719",
"%  c #18171C",
"&  c #171918",
"*  c #1A1C1D",
"=  c #201E1F",
"-  c #1E201F",
";  c #20211F",
":  c #1C1D21",
">  c #1F2022",
",  c #232425",
"<  c #262827",
"1  c #292926",
"2  c #252629",
"3  c #27282A",
"4  c #2A2B2C",
"5  c #2E302E",
"6  c #31322E",
"7  c #2D2E31",
"8  c #302F34",
"9  c #2E3132",
"0  c #323334",
"q  c #363836",
"w  c #393A36",
"e  c #353639",
"r  c #393739",
"t  c #37393A",
"y  c #3B3C3C",
"u  c #403C3B",
"i  c #3E403F",
"p  c #41423E",
"a  c #3D3E41",
"s  c #403E41",
"d  c #3F4143",
"f  c #3F4749",
"g  c #424444",
"h  c #484745",
"j  c #464846",
"k  c #494946",
"l  c #444649",
"z  c #484649",
"x  c #46494C",
"c  c #4B4C4C",
"v  c #504F4C",
"b  c #4E504E",
"n  c #52524E",
"m  c #474A51",
"M  c #4C4E51",
"N  c #504F54",
"B  c #4E5153",
"V  c #4E5259",
"C  c #535454",
"Z  c #585654",
"A  c #565856",
"S  c #595A56",
"D  c #545659",
"F  c #56595B",
"G  c #5A5C5C",
"H  c #605F5B",
"J  c #5E605D",
"K  c #62625E",
"L  c #575B61",
"P  c #5C5E61",
"I  c #5E6163",
"U  c #626466",
"Y  c #666664",
"T  c #656665",
"R  c #636463",
"E  c #666862",
"W  c #676966",
"Q  c #666865",
"!  c #686866",
"~  c #6A6C67",
"^  c #6A6A66",
"/  c #606368",
"(  c #646368",
")  c #63676A",
"_  c #67666B",
"`  c #646669",
"'  c #676968",
"]  c #64686B",
"[  c #666A6B",
"{  c #66696B",
"}  c #686868",
"|  c #686A69",
" . c #6A6C6B",
".. c #6D6D6B",
"X. c #6F6E6A",
"o. c #6D6E69",
"O. c #6D6B6E",
"+. c #686C6D",
"@. c #6C6C6C",
"#. c #6C6E6D",
"$. c #6F6F6D",
"%. c #6E6E6F",
"&. c #6A6C6B",
"*. c #6F706B",
"=. c #6E706F",
"-. c #6E706C",
";. c #71726E",
":. c #6E6F71",
">. c #6D6E72",
",. c #6C6E71",
"<. c #6F7072",
"1. c #6F7073",
"2. c #717171",
"3. c #737270",
"4. c #707173",
"5. c #727272",
"6. c #727473",
"7. c #757573",
"8. c #757374",
"9. c #737473",
"0. c #767877",
"q. c #787974",
"w. c #7A7C76",
"e. c #747579",
"r. c #787679",
"t. c #7A7879",
"y. c #797979",
"u. c #7C7A7B",
"i. c #7B7D7C",
"p. c #7C7D7F",
"a. c #7A7C7B",
"s. c #7D807E",
"d. c #82817F",
"f. c #84807F",
"g. c #83847F",
"h. c #7E7E80",
"j. c #797D80",
"k. c #7F8082",
"l. c #818382",
"z. c #858482",
"x. c #838584",
"c. c #848685",
"v. c #838482",
"b. c #888785",
"n. c #868883",
"m. c #8A8A86",
"M. c #868789",
"N. c #898788",
"B. c #8A8B8D",
"V. c #8C908F",
"C. c #90928E",
"Z. c #8E8F92",
"A. c #8F9092",
"S. c #949494",
"D. c #969895",
"F. c #9B9A9C",
/* pixels */
"h h h h c k h k h k k g h k k k v C n n n n C C C C c c k k k h k c A Z G C k z p | 5.@.:.4.X.@.:.5.6.i.x.l.f.b.l.h.u.y.y.8.r.r.",
"G ' G ' R F K G S G P G W 5.C C C 7.h p.D S I G c C c c ' c k <.b B B F ( c B / P F P I U +.F A k c C B B c c l a 3 x F B D F F ",
"U U U U F C E E E @.G G E G C G T S t P ' I I B h c A D G k c c c c A C S R B P F C F P G F R D y R F M B M M z t y t B P F D D ",
"_ I _ I T G K E T E ! *.q.K X.~ X.A t c I G P S C c B B C A z C F B D R G D D A F I F S | P P z y D A F c l l j g 7 x d :.P P P ",
"P X P X.E K E K G P J R G o.G G S U e a :.:.P l c c M h c g a I P I P P F ) a c F I ' P G P I M d D C C c x B z M * x l M G P P ",
"P 7 P 7.*.! T T G P G D G S B g c { 0 e U U G z h c a z B a 3 S +.j.F z F F B I B I U P U D P x k S A B M x B P I # 0 d I C B B ",
"| o | o.E E R b G G A S C B A g z P 3 x I F A g z B z d c t z k G D c d M C A D B B I _ P P D c n B C g D A D D B * I F G P D D ",
"S ~ S ~ K H E g S U S G S D B z g D 7 g @.P M M h c a g c g z c S G n g h B D C F D { G I C D x k B c B B C M M M @ G M S C S S ",
"X.E X.E E R J G G S G D B c z g k I e l :.C B c c g x x l y y h K C c z c M D F F F D G G D A C c G C D l M M g B t k n B D C C ",
"~ K ~ K G E G J R G C F G C j y P { t g T F D D C l M c g 0 7 c H S k z c M D G P B B C S A S C y F C M x M x g c # n A C M C C ",
"E E E E | R G D | R R F C P A J c z h U T G G S C C _ z g 0 2 C E K R C G C P I F D M D G A A F k <.B M m x M a 0 4 c z I B G G ",
"*.~ *.~ U U U R C A R G n A T J c B j F U G A C n C | D x e 0 c n ;.A o.*.T :.A S D D D D I C y a 1.F D D B C c d 0 C c F C S S ",
"y _ y _ C t l t a j ! J p q k | G A h y I A S h S y c M P a 0 c ~ *.S c S G { U J P P I +.U { 4 c x y 9 9 F g d 0 , j t P c B B ",
"M z M z , + c F G t y h B G | _ @.I S . g M a 7 0 4 < D C G y t q # c c y t e G g y 0 t 9   , e e d g e e 3 a t 4 @ M G M c e e ",
"D c D c a k C G P E J X.o.7.J ! i.n.C.< U C D B S 9.C W ,.:.6.! J o M.R P P B P U G M c t * A A F A M D P L P { M , D B B D M M ",
"l z l z g M C A C A S ! K | 7.X.6.s.g.< k A B D A R o.C I R y.@.D : I ' D C B M P D c k a 3 c h c A F R B D F F x : D M M M c c ",
"a c a c e x P G C b G G G | _ @.7.7.m.# g c F P G I T P U P _ | D.& K F G D D C F B z z C 7 B h M C +.G M D B I l * C M M M x x ",
"y h y h 3 C M A n F G G K K W T ~ ;.m.1 k c S | C F ) ] U U S _ z.# B.U C F D D Q B M G I 7 g d z G T F M G G I M * E A B M x x ",
"g z g z 3 A G b K R F G E J c | 0.;.w.4 B S G B S G G +.+.@.T ;.o.o 0.I D P G R R m B A c 2 x z z F _ D x D S ' x * B B M B M M ",
"y z y z 2 C F c C S G G E U l.+.-.*.6.0 J J C G S S U U G G P J R & B.A S G | G J D F P e 7 g g h R D B F D K T m @ M D B M x x ",
"z z z z < D A c C S K ! R +.R D ! K *.4 F -.S R W +.D G F F P I I # l | S | A 4.R F x B 0 t a M g J b G B D G I P > B D I B M M ",
"B c B c 3 C M M I 6.I K | o.U C n G T 7 A T v.W W K J o.:.G G G T O D K n o.G D I A M z > & c h C ' n F C D P I ' 7 l M M B x x ",
"M P M P < S C F R E R W | J J C T X.-.7 z ' W v.C J I ' | ) E G o.+ k.R J R +.M C U M c z : h D G c c c C A D G U 9 a P M c x x ",
"t G t G a e G S S K E J T n R R W E s.3 G S S A @.S G C T 5.U A i.O :.U T _ W D G M h B { * b l g M G B B F U M R : G b B M d d ",
"l _ l _ z z C F M D F C w J K E E E ! 4 G J b F A A D C S G T T d o _ P D I R F D c b c S 3 j c j k A R C F F G T 3 F B M x a a ",
"l z l z y 7 B F G F F S C G K K T K *.4 n ! C E n G G F G G J ,.:.+ { P D D P F C z g g I - w j k g k A C F I P F a G D z x d d ",
"l t l t a 7 I S A G F P G ,.G | R ;.w.< n g n g A 7.S G R G U U 5.+ G G C P I M P P D h k & y g C z C k n R _ S R g S k M l g g ",
"l a l a z a S C G C G G G G U P ) _ z., c n S c G E ! R R D P @.4.# -.G F I I F F F M n c @ C i M c A A S I G S J y M M M x a a ",
"e l e l z t S S G S D P P G G P U { D.; z B M g C G C X.S G R { x & A T J J I J C G C G A o c y k P I G c C G D G e C M c x z z ",
"e z e z l C G C C C S P G G G U P 5.t > q a g D G K S A R / P e.M ; n E G J G A C D c c M o C h k K S D c D F F M , D M N c x x ",
"g z g z x D D M B G C G D D E G P _ g $ C g c A ! ! m.A G P _ { E , G q.R W | P D c C M g & h y n A n B C M L L l : 0 A c n B B ",
"z D z D l z D D C A S I U R G U ) _ g * w c M T | v.7.K G P T E ;.6 S @.o.S | F S M x z g * e k Z R C c c M c P l , x A c c x x ",
"c a c a x C G I K S S M G T P I ) I V.< c C C S C E R | P ( U E _ 2 w.S S G A A S C M c 0 e t c C C Z n C C D D P 3 _ M B z g g ",
"y k y k t G G ' S U F G P P | G ! R a.< h h A C ;.J G G U U P B S , 6.F S R C S S C M M 0 * 4 y n i C C S A D F F 9 C B x c c c ",
"p z p z q c D U c A C D P G E B G R _ < k j C ;.G C C D G x G _ C , U G A J R A c C c C g > a y c z c A C C C c G e G C n F c c ",
"g h g h 0 b A D n A C F I A X.R G K w.* S j h T C C C D U ( T J -.2 { C S C G B B A c k p 4 g c E t z A M g c C S 7 G n k C z z ",
"k k k k 0 c P A S S G S G S K T E K | 2 g g D M C G C T T K ! E | 0 *.C C C A C D D a c g 5 E S S g M C z M B F G t c G A n c c ",
"A n A n 4 c x t w p J G G K K n E K 7.@ P U b c h a d t h y 5.! ;.& h c A c c g j g c z c < M c c A P F C B B c 0 o 6 S C A C C ",
"0 t 0 t y * 0 * : * # 4 < 4 4 7 0 0 3 X 3 3 7 : : @ , 9 < * q q < c 4 4 , 0 g * 4 : e y q X w t 4 t 4 y 4 0 9 4 > = , 2 * : * * ",
"! 7 ! 7.q t G S S S b G S G & d G C z B C k { S B e 4 A J A C x d y x c P 4 g k G t 2 S S 9.z * G G S A C M c x x z 0 g < C h h ",
"R S R S g c k n n S C C S W > S k k d g c C C ) C t M C U C S F ) I I G A s.X.m.*.T { ' C I z > k n S C k M M l x l t h * w y y ",
"G S G S 0 C c S C G k c A A , h y t a h h c c S C e a C k c M G F P D G F A A D C F G C G P d < n A n n c a z z x d t g ; h d d ",
"R S R S 4 A z G b B M C n D , j a d g g c z k k M t A c D z c C I C U C G C C D B I ~ G M R c : S B B b c y g t t M z g * k z z ",
"B S B S 3 C F C A C A S C G > g g g g k c k c k c t G c G c c G P B A C A C G F D G S F F F ! > F c C g z y a g d t C y < 3 g g ",
"B C B C 7 z g k C n c c C G < w g g c h h M c C C e C A c F C A S A S G C A C D I G S D G G J 5 B k C c c d a C D z z D * e M M ",
"M D M D 0 q k C C c c M c G 3 h i y h c D C S S G y G F x B D F I C G E A G F I _ S G F J G F 3 C z k k g c C C B M g y $ t g g ",
"C D C D h j k M M x M A G D 3 w g t j c z C S n S l M B B k c C C C | n G A C A G G R G E G n 7 C C v c g h n h d d d a + c y y ",
"C G C G 7 k g C M M C c S S 7 i g g k h c b z c F 3 c G z b B D D D 4.G A F S R K C { S F J A , B M S c C g c c k k z a O t M M ",
"A P A P 0 g c A D C S S A G 4 z k g g z C G c M I e g C x C D F D G P F B F D F S S S A C R D < C M Z c c h g k n n C t O a y y ",
"C B C B a g t M D D C S A G 7 d d y g M P C c g G t g C g D F R | P P G C G D x i w g y e G D 7 C B k A C C C C A n S w @ a M M ",
"* < * < * 0 e 0 0 t t t 0 0   o + @ $ $ # # : , 0 o 1 4 a d M y g 0 e t 0 0 9 e , 2 * : 4 7 ,   0 0 7 < , 0 @ 0 4 4 * @ & : $ $ ",
"a c a c c h z C { A 2 C g C S G F _ M o.R G I { ,.D 7 , E G B K ! K M + U D F x D e e y C C b k t k M P B C C M C t h c P c c c ",
"g y g y g g h h C G t M c C S B M C C C A C D C G C t 4 b G Q E C S I > P I P D D M B K k M M h 4 n c l x x M F P S n B C c D D ",
"e d e d y h a g B x g z c A C C C M D M C C P F ) g 8 D D D G J G S C * F I B B B M b c z l n h 4 g l d a x M G c B x c M C c c ",
"t a t a y y d g C g g h n A M M B C D D F B D A G G M B x x l C C G t * V C F c C M B C C c c a a a M m x z M C c C V B c c M M ",
"a a a a g t M g M t < k n S G C C C B M D V B M C D a l M g l j C F g : L B F C F M z z C x g e e x c m M D c c c C c D c M M M ",
"d d d d g z M M D c 4 z C C C D B B F M M M S A M C t l c M a k B A y < P G U P G A B g b z e g t M M M M z N C c M B x c c x x ",
"y x y x f c C C A b g A c b c c F P C F B C D A M D q C c b z A M C q 7 c I G b b b c k B y a 0 7 c z F z k c C v C M M D M m m ",
"e l e l c D c G C C z g A A M C D L D M B A S F Z K q k S c C S C C h * h G K n A A A z a C h 3 2 d a n A c l M C M D C M M m m ",
"p g p g x z x c B A c D c A M D A m M M M C M A A G q c C D C Z A F P 2 B F C K C C C c d y c e 2 h p h M b x M B C C C B x x x ",
"g j g j g a c c S n z A C C G D D B B M D c D Z T R 0 G B B c c A C A > M G G G M n C A j t z t , h h c h C n B G D M C F D l l ",
"t k t k g t h k n A t U z x k A S S P P M c b c C G q c C M l c c c c * M C D D G T C D c g a 9 4 z g a h k C A F x c c D D x x ",
"y u y u c y p h b k 3 g z l B C c k C M S M c B C S 7 k M z c x x c B 2 c G P A D C k C C c d t 0 e a a B j k c b N c z c G M M ",
"g g g g p a y y y g s i i d y y y y y g i y a a y w y y y t w y t t t r t t t t q t r t t w q w w w y w t t t t t t t t t t y y "
};
