/* XPM */
static char *b8c97dde2f4a4283eb07c51acd1042e93Yy9jC3A8Wm0Dyot[] = {
/* columns rows colors chars-per-pixel */
"64 64 153 2 ",
"   c #070707",
".  c #0A0907",
"X  c #0D0D0B",
"o  c #100F0D",
"O  c #0F100B",
"+  c #11110E",
"@  c #110F10",
"#  c #141413",
"$  c #181715",
"%  c #161817",
"&  c #1A1917",
"*  c #171618",
"=  c #191718",
"-  c #1C1C1B",
";  c #211F1C",
":  c #22211E",
">  c #29261F",
",  c #1E1E21",
"<  c #221F20",
"1  c #1F2120",
"2  c #242423",
"3  c #292624",
"4  c #262825",
"5  c #2B2926",
"6  c #262729",
"7  c #29272A",
"8  c #2D2C2B",
"9  c #312927",
"0  c #312E2C",
"q  c #2F302B",
"w  c #34312E",
"e  c #39332F",
"r  c #2E2F31",
"t  c #312F30",
"y  c #2F3130",
"u  c #353433",
"i  c #393633",
"p  c #373936",
"a  c #3E3936",
"s  c #3C3B37",
"d  c #3E3B36",
"f  c #3B3C37",
"g  c #3B3936",
"h  c #363739",
"j  c #393738",
"k  c #373939",
"l  c gray22",
"z  c #393939",
"x  c #3A3839",
"c  c #3A3A38",
"v  c #3B3A38",
"b  c #3B3B39",
"n  c #3B393A",
"m  c #3A3A3A",
"M  c gray23",
"N  c #3C3B39",
"B  c #3F3B3A",
"V  c #3D3E39",
"C  c #3C3C3A",
"Z  c #3D3C3A",
"A  c #3D3D3B",
"S  c #3E3D3B",
"D  c #3D3B3C",
"F  c #3B3D3C",
"G  c #3C3C3C",
"H  c gray24",
"J  c #3F3E3C",
"K  c #3F3F3D",
"L  c #3E3E3E",
"P  c #3F3F3F",
"I  c #3C3C3B",
"U  c #403B36",
"Y  c #403C39",
"T  c #413E39",
"R  c #413D3A",
"E  c #423E3B",
"W  c #413D3C",
"Q  c #403F3D",
"!  c #433F3C",
"~  c #413E3B",
"^  c #3D403D",
"/  c #41403C",
"(  c #42413D",
")  c #41403E",
"_  c #41413F",
"`  c #42413F",
"'  c #43423E",
"]  c #44403D",
"[  c #45413E",
"{  c #44403F",
"}  c #43443F",
"|  c #42413E",
" . c #4A403E",
".. c #3E3F41",
"X. c #413F40",
"o. c #3F4141",
"O. c gray25",
"+. c #424041",
"@. c #414340",
"#. c #424240",
"$. c #434240",
"%. c #434341",
"&. c #434343",
"*. c #444341",
"=. c #474341",
"-. c #454442",
";. c #464543",
":. c #474644",
">. c #464644",
",. c #444342",
"<. c #484443",
"1. c #484743",
"2. c #484745",
"3. c #494643",
"4. c #434844",
"5. c #474843",
"6. c #484A45",
"7. c #494846",
"8. c #4A4947",
"9. c #4C4B46",
"0. c #4A4946",
"q. c #464749",
"w. c #494748",
"e. c #4B4A48",
"r. c gray29",
"t. c #4C4B49",
"y. c #4D4D4B",
"u. c #4E4D4B",
"i. c #4F4E4C",
"p. c #4F4F4D",
"a. c gray31",
"s. c #4C4B4A",
"d. c #504845",
"f. c #504F4D",
"g. c #514E4B",
"h. c #4E504F",
"j. c #52514D",
"k. c #50504E",
"l. c #52514F",
"z. c #53514E",
"x. c #4E4F51",
"c. c #565553",
"v. c #545353",
"b. c #595752",
"n. c #5C5857",
"m. c #5D5B56",
"M. c #575759",
"N. c #5B5B5C",
"B. c #605F5D",
"V. c #61605C",
"C. c #62615D",
"Z. c #656462",
"A. c #626361",
/* pixels */
"g v N N J Z Z Z Z 5 $ w #.u u u u v u v v v J F v v _ : 8 8 v g p Z Z N g g N Z Z f u 2 - ; w p g g g u g v i p [ 0 + 5 #.u g g ",
"v N Z J Z Z Z Z Z 3 # u _ g v v v J J J J J J J J J J 2 8 w N g #.-._ _ :.c.r.Z R R u 2 - & 8 Q Z v Z J Q _ R w Q 0 + 3 u p g N ",
"Z J Q Z Z Z N Z u 5 # w p Z v v v J J M v J o.#.#.v 5 2 8 2 N N i.Z Q y.y.J l.6.Q [ a 2 = & 0 n.-._ _ #.*.:._ _ a 0 # 3 g v g v ",
"y.-.:.v v y.u p u 3 = u u <.v 8 J u u x.#.#.#.J J 5 v = 2 2.N N u J J J J _ #.:.*.R [ : - = *.[ 2.6.y.p Z 8 l._ R 8 # p w Z _ *.",
"Z 3 5 u 3 3 8 5 8 u - p Z w 8 8 7 r.-.*.#.#.#.v 5 u u $ 2 Z N u Z J J J J :.Z u N 8 5 2 + - u f.6.w u g u 8 a 6.0 i # *.0 2 -.#.",
"2 8 0 w u w 8 3 8 g $ i u i.p u u 8 l.Z 5 u J 5 5 D 5 o 2 u p 8 8 8 8 3 5 5 3 ; 2 : ; - X - = : 2 - ; - ; w 8 8 8 2 + - 5 - 2 2 ",
"$ $ 8 : - 3 5 8 0 3 # 5 : 5 2 u - - $ % # = = 2 3 8 2 + : ; : : - - # $ $ $ # # + X X X X X X O o X o - - : 2 2 3 o X $ $ $ & & ",
"# $ # $ # $ $ & $ + + = & $ $ $ # # X . . . X $ $ = $ # # # # + o + . . - 6 u v v v f g # 5 0 0 5 2 ; o # u g g u 8 4 2 & # + X ",
"+ o # $ - - - ; - ; # o ; : < ; + 3 w 0 Z g u 8 8 # # ; 3 3 : : 5 5 2 = v u u u u u #.v 5 u [ Q R 5 5 + 8 6.#.4.} 6.<.Z g g g u ",
"2 + u w u 8 8 8 8 w 5 ; 5 0 w 0 + t.Z.l.g g y.Z i.8 : 3 3 2 3 2 5 8 2 @ u 8 u 8 u u u u 2 8 0 8 0 0 3 + #.Z u w C.u u u u #._ 9.",
"2 # 8 3 8 8 8 8 u 8 2 3 w 0 5 w # w u v u u u p _ 3 2 0 0 8 w 0 w w 2 @ p u u u u v v u 2 0 0 i w 0 5 # 5 u u i u u u w w w u p ",
"2 3 u 8 8 0 0 0 8 p ; 3 0 w 0 w # w k v Z Z J M v 3 5 u u u w g u u 2 X u v J J *.Q Q Q 2 2 <.a i a u + 3 u u u u u g g w w u 5 ",
"; 2 w w u u u p Z 5 $ 0 i i i 8 $ J -.r.#.J _ J :.8 8 u u u u g v Q 2 # Z :.J J Q Q u -.: 2 Y a a R a + 5 u v v Z _ ^ v Z Z u 8 ",
"# 2 g u t u u 5 N 5 # w a p e u $ 6.u _ u v Z ^ ^ 5 8 u 0 g v g u v 3 # 8 u = 3 7 < Z 8 ; : Y Y Y a 9 + Z u g a :.#._ J _ Z Q 2 ",
"@ u 8 8 u 2 u u 5 u X - 2 ; : : o 2 r.p 8 _ _ Z v 2 3 = 3 2 - - 3 2 2 . - - : : - & ; - X 2 N i w w : X 2 : 8 2 2 2 2 6.v J u 2 ",
"X $ $ - = $ $ - - % . # # X & $ + - 3 3 2 - & # # + # # # # + X X # 3 2 5 3 : - - ; - $ o = & $ $ # # X + ; & - : - = & & # - $ ",
"3 5 8 2 - = $ X - , 3 5 5 w &.2 v u t # 5 p Q 6.v.y.g t.6._ :.: = J v.b.N.n.t.y.c.l.c.y.Z $ . = 3 y u y u 8 5 - - X X . ; w w 0 ",
"N 2.a p R a 8 - :.u u h u u u M v u J # u y.u u u 0 Z t w u J 2 = 8 p w u u u u u u g p *.2 2 N r.r.o.v.y.A.y.v.0 0 & Q [ <.g.9.",
"a i v Z N Z 0 : 5 J u M v v v M v v 8 # D j D u u u u j g u u 3 # 5 #.u u p v j v Z Z g 8 3 2 _ J J h.o.#.^ :._ _ w : z.i p Z p ",
"Y R N Q N D 8 : v J ,.v J J J J #.J u # 3 N j N #.u v v J g g g # u N.p j Q v v g g J g _ : 2 N J 4.#.#.:.,.} #.2.0 ; *.i p Z j ",
"_ -.-.#.#.v u : #.J r.&.#.#.#.#.#.v u # u X.X.J N J v #.J Z J 8 X 3 l.-._ p B.t.Z g u p J ; 2 Q r.4.M 4.:.r.:.-.-.0 2 2._ Z -.v ",
"#.-.&.&.#.u g : = v &.&.J v v h u u 5 - 8 #.p :.N v J J Q _ Z 8 X 2 J 8 v.Z N g Z u N N _ ; : 0 0 r.#.v J :.6.4._ p 5 8 u *._ Q ",
"u 5 5 u q 8 8 - 6 J u u u u 2 u u k 2 & 8 w : 2 v J X.#.N ,.p 5 X - 2 w.3 u 2 : w 0 : : 2 & - u u 8 w w w w w u u 5 2 8 u w 5 8 ",
"$ = $ & & = - = % 2 # $ 3 = = 2 u k 2 $ - - - 3 ; w - 3 2 < : : X - < = - - = & $ = - o # + + - - = & & & - : 2 2 : & - - & # # ",
"# + X . . . $ $ # o X X X o + X o o : - + X X X X # # # + o X + # + + X + # $ = - - ; 2 2 2 : ; o X # = = = # # $ X # $ # - - - ",
"M.r.7 # v _ -.#.Z Z Z p v Z g 8 X Z r.Z v u J Z p Q g ; # - - - ; - & . $ 8 - - : 2 5 8 8 8 0 0 3 + - v &.#.M :.:.,.,.q.q.v.N.v.",
"..v.8 = f.u v Z u Z R R R [ [ a X u u u u -.w u u v r.u + 2 3 3 5 5 2 . 2 2 3 5 5 0 0 w u u a R 2 $ , J J M ..&.M.q.....#.....M ",
"..r.u = J g Z #.i.#._ R a a Q N X 3 u v g p p v g N v w # : 0 8 0 0 w $ : 6.0 u i i i i a Z R R 3 & - J u ..&.v.J J J M ..v J v ",
"..r.u # N Z p -.J _ _ J N Z _ Z = 5 v v v u J v v v #.0 + 5 u 0 p w u - - v.u p u u Z Z Z _ R z.5 & - u N.#.:.#.&.J F J ..&.#...",
"J q.h # w 8 Z N *.#.Q N J #.u 8 ; 8 #.#.u :.J v u J #.t X w N p u g v 3 X - p g Z Q Z J u Z R Q 2 - 3 x...J #...J J #.:.u u u M ",
"v 8 3 # 2 u u 8 g g w 8 8 u u u - 3 u 8 ,.r.#...#.J X.0 X 8 Z Z N v N u X 2 2.J v u Z _ Q g N _ 3 - 1 x.o.M J ..J M u h u u u h ",
"5 3 - X - - - - 0 8 8 w 8 : 5 2 = - 5 2 3 6 v u u #.J 8 # :.*.Z N *.Z N - - c.p f J 5 u *.-._ _ u & 3 &.F M J h h h h h &.k J u ",
"= # # $ $ # # X @ $ % # X # # # o + o X # - 8 u 8 5 4 3 + 2 8 5 5 8 u 8 - = - = = = $ 2 - - 8 6 - + = = 2 u 2 2 5 #.3 2 8 = - - ",
"# = - , 1 - = % , X X - 2 p a p e i a a p . X # # # # # X X # # # # X # 2 7 5 2 = $ X + # # $ - + . X . $ 2 = = = = = % $ $ X X ",
"6 5 7 r 8 7 8 7 8 - $ a <.d. .3.i i i ! ] : X - : 2 5 8 8 5 5 0 8 @ 8 :.v.v.v.v :.q.:.#.M u 5 2 # - 5 - - & $ = = $ + . . # , 2 ",
"h k h u y h u u u 7 $ u e w i e U i e 0 ! ; X 3 Q u Z u u g u u u = 3 N.u u u u u u v i.v.N.A.8 - 5 3 3 3 3 3 5 5 0 5 - $ 3 8 u ",
"&.....h h &.M F J 5 $ 8 i w w e w i 0 i a ; X 5 _ g g u g p v p u = 3 r.M F h h M v M x.&...i.5 - w 8 8 0 0 i i w w a - X 7 ,.o.",
",.,.&.&.&.h q.o.#.u $ 5 R i i e i i U a U : @ 5 #.u v Z Z _ p j ..= 2 J J M o.&.....o.o.M k q.7 - u w u a a a N N Q d.2 X 7 x.&.",
"8 u M.i.7 v.q.q.i.8 % 3 5 a i a R w 9.i <.w $ 8 _ _ *.*.Z _ Z Z 8 - 3 #.&.&.F ,.&.q.u M ..M y 8 ; #.i Z R _ <.*.<.[ e 2 X 3 J 5 ",
", 2 , 2 r 6 r h u u - 3 0 a i 5 w 9.i i a 3 - 8 c._ _ w 5 Z _ y.8 - 3 i.k M F y r u ......x.:.7 - N 8 Z u 0 9.[ u i w 2 X - 3 2 ",
"$ $ = = - - 3 5 3 : & : : R w w i i 0 0 5 > X 5 5 w 3 p N 2 #.u w - - 2 u 8 2 1 u #.h r.:.3 3 - + u 8 2 2 2 1 - : 3 p ; + : - = ",
"- X X X # $ = = = & X X # $ # # $ $ $ & - - o # - = = ; ; $ # # # X # # 2 2 # $ # # - = - = 1 # # # - # X . X X # $ & X + # = = ",
"8 8 # - & & & # + o - : - - & = $ $ # # # 8 J u v v u u u v J v u 2 o X X X . . . . . . = 2 3 3 5 8 8 8 8 3 3 X X X ; 3 i u u w ",
"g 8 # : 2 : : 2 ; X -.l.*.y.v c.3.[ -.Z + _ v i.r.:.u v i.u u v #.5 # N w i w w u 2 # 0 b.R u #.Z Q 6.-.-.6.w 8 # 3 6.u u u u u ",
"g 8 # 2 8 9 5 5 3 X u u u u w p :.u Z 5 # 8 r 5 u u v u u u J h M 3 # i 0 9 0 0 0 w = 2 _ N u J J v _ Q _ J N u $ 2 [ N N v p g ",
"Z 0 = 0 u w w w -.. w g u u g v g g g 8 # u u 8 8 u u v J u v M J 5 = a i w w u 0 w ; & u Q Q u Z Q *._ _ _ *.u : 2 :._ #._ _ v ",
"-.0 $ 3 R a i i w o 0 N N Z N N g g u 8 $ u h u h v J M J v J v :.5 < w i e w e w e ; $ 8 J Q :.-.t.t.2.r.r.c.u 2 2 -.6.#.-.-.#.",
"y.w $ *.[ [ R a 3 X 0 6.N g N N N g 8 3 - N J #.#...J v r.#.#.u J 5 3 p a i a i i i ; # 5 u g -.2.:.l.2.y.9.N u 3 2 t.r.6.:.Z Z ",
"-.u + [ Q Q N t.8 X 8 u p _ u 0 g J 0 = 3 u u #.:.u 2 u u J - - 3 2 : 5 w 0 3 ; Y 0 : . - t u u j u u u u w u 3 : $ 8 Q 5 J f.g ",
"0 3 X - $ = & ; : . - & - - : w 3 2 ; X + - & & : : 3 - = = $ - 2 $ & $ : ; - = $ & - X - = $ 2 3 2 2 3 3 5 8 u & & u 3 2 3 8 5 ",
": 2 X $ # $ # $ # . # # . . X X O # X . . . o o X X X o X X . X o X o X + X + o # - : : # o o X X # $ % = 2 5 - X X $ $ % % = - ",
"# & 3 0 8 0 u i u i t.d Q R i 3 X X 3 3 8 i 0 5 - $ 2 N g.t.[ <.-._ _ u = 2 #.-.-.a _ _ c.2.-._ v u 8 2 X X X # # X X X X O o X ",
"+ 2 i N 0 [ 0 0 0 2.u w a i <.a 2 : i 5 5 0 0 0 e & 2 #.i w i i i i i p ; 2 [ l.g c.j.n.y.J M M _ g v _ 3 , 3 :.g w p w 0 5 5 3 ",
"+ - 2 9 u i i i a a p i i g.N 0 : - e i w w w w w ; 2 8 u w R R R N a p 3 - 6.i g g v v M g M Z _ _ :.v 3 3 u 8 8 0 0 0 0 u i 3 ",
"# - 2 8 N p p p p g a a 9.<.R 3 ; - Q i u u i i 5 - 2 5 <.p a R R R [ [ 8 = _ v Z _ J #.-.-._ J _ J Z N 3 - u u u i i i w i p 3 ",
"# - 8 N R N R Q N N Q R Q Q N 2.= - i a N a p R 3 ; 5 y.R a R R R i [ [ u # u c.Z #.:.#.-.5.^ 4.#.:.M v 8 $ Z v v U Y R R i a 0 ",
"- ; _ g R R Q Q R Y :.6.2.Q _ 3 $ & g N 5 R p Y p 2 5 y.u i R Q Q ! [ [ u $ u #.v -.5.-.-._ -.o.f M v u 0 $ g.R i R R R Q a N w ",
"; $ 3 5 R [ n.Q N N Q J i Q -.3 # $ 2 g 0 0 8 N 5 2 u w [ [ u 0 i R N t.- & 8 :.-.-.6.l.w :.3 ^ 4.o.^ 0 - # 3 a 0 g.-._ w [ i w ",
"- $ 2 2 3 #.2 w 8 8 u J u 8 -.- # # u i [ w w 0 w : # u 8 2 2 - - : - ; + & 5 u u 5 3 3 5 : 8 4.o.k u : & # 3 : 0 5 5 u : 8 0 i ",
". . + - - - : - - - - 2 2 - : $ . o 3 3 ; ; & & - & X . X . X X X X X # + X + & = $ # $ - $ = 2 2 : 2 & o o # # $ - - # - = - < ",
"5 8 8 5 8 8 5 : X X X X X X X X X X X X o + + # - 8 + X - 5 u u u 0 8 0 5 - 2 : - $ .   . . X X o # $ # $ # # X X . . X + - - 3 ",
"[ <.6.6.<.3.[ m.5 X X 3 u g #.y.6.Z -.i.t.:.6._ u v.u + w g Z A.-.y.-._ u _ Z g p u 0 & - = 8 u g Z 0 8 0 0 5 5 2 : X 5 u <.[ [ ",
"w 8 / [ z.u w :._ 3 - g N -.8 5 5 8 8 8 #.u 8 u u u _ & 8 Q f.N N g Z g 5 6.N :.f.<.#.w - 8 [ w w v u g u i i <.Y d + p -.w 0 u ",
"u Q u g v N p u C.5 & w r.0 u w u w u u u u u u 8 u t.- 8 Z g N R p v N g u v N Z Z u 2 - 2 a i p u u u w u w w 9.e + 5 g.w w w "
};
