/* XPM */
static char *_6881d39675c4805c218c1f182a344aalBgzCfc9uzaKNzkT[] = {
/* columns rows colors chars-per-pixel */
"64 64 225 2 ",
"   c #040403",
".  c #080604",
"X  c #0A0A06",
"o  c #050609",
"O  c #06090C",
"+  c #0C0C0B",
"@  c #060807",
"#  c #110E0C",
"$  c #0E110E",
"%  c #13110E",
"&  c #0C0D12",
"*  c #0D1012",
"=  c #0F121A",
"-  c #141413",
";  c #191614",
":  c #161916",
">  c #1A1A16",
",  c #131619",
"<  c #16191B",
"1  c #1C1C1B",
"2  c #19171C",
"3  c #100D14",
"4  c #211E1B",
"5  c #1E211D",
"6  c #23221E",
"7  c #1C1E21",
"8  c #151924",
"9  c #0C1622",
"0  c #211F22",
"q  c #1D2123",
"w  c #1F2528",
"e  c #1E2632",
"r  c #242423",
"t  c #292723",
"y  c #252824",
"u  c #2B2A26",
"i  c #242629",
"p  c #25292C",
"a  c #2C2C2B",
"s  c #292728",
"d  c #312E2A",
"f  c #322D25",
"g  c #2E302F",
"h  c #27302F",
"j  c #33322D",
"k  c #3A372F",
"l  c #2C2D31",
"z  c #212530",
"x  c #312F37",
"c  c #2E3134",
"v  c #2C313B",
"b  c #343433",
"n  c #393633",
"m  c #363835",
"M  c #3B3A35",
"N  c #34363A",
"B  c #36393B",
"V  c #3C3C3B",
"C  c #3A3639",
"Z  c #423D35",
"A  c #423E3A",
"S  c #3F413C",
"D  c #44423D",
"F  c #4A453E",
"G  c #4C483F",
"H  c #3A3E41",
"J  c #353C44",
"K  c #3E4143",
"L  c #3C424B",
"P  c #34404E",
"I  c #3A4855",
"U  c #2F414F",
"Y  c #444443",
"T  c #4A4642",
"R  c #464846",
"E  c #4C4945",
"W  c #43454A",
"Q  c #464A4C",
"!  c #4B4C4B",
"~  c #514C44",
"^  c #524E4B",
"/  c #4E504E",
"(  c #53524D",
")  c #59554D",
"_  c #5A564B",
"`  c #444B52",
"'  c #4B4E52",
"]  c #454C57",
"[  c #4D5154",
"{  c #4C545C",
"}  c #47535E",
"|  c #545453",
" . c #595652",
".. c #5C5A55",
"X. c #53565A",
"o. c #555A5C",
"O. c #5C5C5B",
"+. c #565855",
"@. c #514F50",
"#. c #625D55",
"$. c #625E5A",
"%. c #605A4E",
"&. c #5C605C",
"*. c #64625D",
"=. c #69645C",
"-. c #6D6A5F",
";. c #666357",
":. c #716B5F",
">. c #4C5462",
",. c #4A5666",
"<. c #545B63",
"1. c #5B5E62",
"2. c #555D69",
"3. c #4E5D72",
"4. c #615F60",
"5. c #5D6265",
"6. c #5D646C",
"7. c #57646C",
"8. c #5C6671",
"9. c #596779",
"0. c #646463",
"q. c #6A6662",
"w. c #666866",
"e. c #6B6A65",
"r. c #63666A",
"t. c #656A6D",
"y. c #6C6C6B",
"u. c #69676A",
"i. c #726C64",
"p. c #726E69",
"a. c #6E706C",
"s. c #73726D",
"d. c #79746D",
"f. c #7B776C",
"g. c #646C73",
"h. c #6B6E72",
"j. c #686D78",
"k. c #6D7175",
"l. c #6B737B",
"z. c #66717C",
"x. c #737473",
"c. c #7A7672",
"v. c #767874",
"b. c #7B7A75",
"n. c #73767A",
"m. c #74797C",
"M. c #7C7C7B",
"N. c #78777C",
"B. c #827E7A",
"V. c #827C73",
"C. c #7E807D",
"Z. c #83827C",
"A. c #89847D",
"S. c #858470",
"D. c #85806D",
"F. c #5A6B84",
"G. c #5B7295",
"H. c #677588",
"J. c #737781",
"K. c #747B83",
"L. c #7B7E82",
"P. c #787D88",
"I. c #677C9B",
"U. c #6B7FA0",
"Y. c #7D8184",
"T. c #7C828A",
"R. c #7C878F",
"E. c #768597",
"W. c #768BA8",
"Q. c #7A98B8",
"!. c #6C8BA7",
"~. c #838483",
"^. c #8A8580",
"/. c #858885",
"(. c #8B8A85",
"). c #82858A",
"_. c #858A8D",
"`. c #8A8C8B",
"'. c #918F8A",
"]. c #918D86",
"[. c #8C918E",
"{. c #95938D",
"}. c #9C988E",
"|. c #848B93",
" X c #8A8E93",
".X c #888E99",
"XX c #8C9196",
"oX c #8C939A",
"OX c #879199",
"+X c #939694",
"@X c #92959A",
"#X c #9B9C9B",
"$X c #989897",
"%X c #A49D96",
"&X c #ACA89E",
"*X c #8B96A8",
"=X c #949BA2",
"-X c #9B9EA3",
";X c #9297A0",
":X c #899CB6",
">X c #848FA3",
",X c #99A1A9",
"<X c #96A4B5",
"1X c #A1A6AB",
"2X c #AAACAA",
"3X c #A7A7A4",
"4X c #B7B5AD",
"5X c #ADB2B3",
"6X c #B5B6B3",
"7X c #BBBCB9",
"8X c #AEABAA",
"9X c #C0BBB7",
"0X c #BEC0BD",
"qX c #C3C1BB",
"wX c #A7B5C5",
"eX c #B6BECC",
"rX c #98A9C5",
"tX c #BCC6CD",
"yX c #C9C7C2",
"uX c #D4D2CC",
"iX c #D6D4D2",
"pX c #E2DFDB",
"aX c #ECE8E2",
"sX c #FBFAF4",
"dX c #F2F1EB",
/* pixels */
"A.A.(.b.aXs.d W 4 j f.&XyX#.T =.1 Z uXA.].~ #.) q.> > a n # 1 E O.y.e.n ..( V V 6 u 9Xe.b.s.+.E b O t ( V a a j 1 a V n X + e.$.",
"].^.k }.$X$X{.> > D p.f.-.$.E ( r ;._ }.&X=.}.d.$.A d...( V D s...V n Y ! V Y T a (.A.b.i.q.Z.O.W 1 T n n u V b V D a r 2 n $XN.",
"b.A.q.b.( B.n % u ;...Z.T t {.A r e.)  .4 p.e.....A.c.*.s.r ^ *.| n 1 a b a b / a %X..q.V ^ =.*.V 1 b.> b b n r V V n a i $.M.R ",
"D j n ! $X^ A s 6 F =.=.A ~ ~ ! ! ( T T (  .$.^ T q.p.Y Y q Y Y n V r u V n n y 2 r ..! ..s.) Y n , c V B b n a i ! b a 7 b 0.0.",
"j D n 6 Y a m z   6 1 u G ) E n X 0.=.A (  .M M A T T M ' ; | r a j V u b - r a 6 n n  .].(.-.| 1., a 6 1 q b g b a l q o a Y r ",
"; X . . X X +   % % 4 u d j d u   X n M A  .A ( D E V s i 6 0 u Y n r b 6 8 e - @ , r ( E ..O.N 1 - , e v p c n p 1 1 O < 1 r j ",
"% ; D T ].$XuXaXdXpXn % a + . f $.u ..# u n ( > > ( ..E ..E M X r + - r * 1 o @ + > , | Y O & X ).O X o @ X - - X + j n - B   @ ",
"6 n  .A.A.8X%XV.i.B.b.r b + n A ..+ ~ Y D A ~ D d.%.e. .$...c.s.( ~ q.y.j b % d  .D p.p.( s.O. .e.s.D O.r 1 1 O.v.+.y.=.b.h.w.a ",
"+ #.=.].=.A.e.$...=.) j r u G B.{.qXB.{.b.A p.Z.i.d.q.=.3Xc.p.p. ...(.s.r O.j ~  .q.;...y.v.y...( +.Y O.> T ( Z.v.v./.e.(  .*.V ",
"+ M i.d.f.i.#.$.....~ W   j ].A.b.%X- 4XE B.:.].Z.{.p.p.$.e.A.^.s.b.B.| s 5 O.( O.*.v.W O.0.*.y.E +.O.e.@ ..b.s.s.s.0.*.K W O.n ",
"> Z e.i.#.) ;.c.=.=.=.l D  .q.^.d.2X> D 2 A.A.s.M.v.q. .Z $.c.#.^. .E W , b.| 0.o.u.5.O.| +.q.X.M.0.O.=.a ( w.k.v.q.e.O.+. .s.l ",
"# Z ^.p.;.#.p.]. .=.j   d ! T  .b A.=.1 o ~ a.e.=.0.$...{.*.e.*.T ( ~ V , M y.e.e...( 0.W | $. .M.( 0.H b ! *.v.O.x.O.m.0.@.C , ",
". D Z p.t ^ #.p.( m n + j t =.Z =.(  .T D - B.O.=.~ (  .( ( $.q.F ~ M V   ; 6X( q. .M.a.;.| w.h.p.y.e.! j  .v.y.s.( u.v.c n r + ",
"X i.G T D Z ..D A M b # 6 t 6 j ! ;.E T ! X 6 !  .! D n n n n Y a j } l @ 6 b E ! m ~ ^ u.y.h.r.x.o.e.Y a *.( o.b ..X.' W W   ] ",
"+ > D ( T Z D T O.a r - - 1 1 t r u j ! Q - - b b Y a V V b b n n V w c u 1 t ! V a b m B Q { ` g.[ ' < 1 <.5.X.! | o.Q m 7 2 w ",
"V v.X > + 1   @ @ - + V - X , - > ; 1 > $ @ % + n b a r u t 1 a a l 7 r ).u r b b Y n 7 B 2 1 , q < i 1 n.q I N W K o O - - b.& ",
"i.c.#.k # T ; ; M u ; X ; 1 t Z # % j 6 j u D ..( W - % 4 k i.A.E ^.`.D  .^ D ^ #X`.^.b , Y V V b D E A R T E a $X, r ; % r q j ",
"Z ;.i.Z.^ - % =.4X4X4Xd.( T 1 - G }. .=.=.*.s.e.e.| V @ u uX0.$Xv.0.s...e.s.0.y.v.A.`.@.n 2Xs.O.`.s.$.s.C.y.v.x.= - w.y.u.L.0.! ",
"f #.V.A.M O.r B.p. .v.p.s.q.D % $.M q.e.*.( *. ... .n   A x.( | | ( =.M.Z.Z.u.u.y.^ t.! e.Z.w.R 0.r.1.] n.`._.' ' a )._.[ L.L.oX",
";.i.~ f.=.+.j y.j v.Z.v.y...+.+ M j ~ n E  ...O.( ( b . O.Y ( ( ..$.M...`.b.y.r.t.).K.' n w.x.b.N.`.e.M.|.L.).O.W c t.n.L.L.).T.",
"G %.) ~ s.1 1 V a.y.b.C.b.X w.X ( T E Y T ^ Y ( ( ( ..& E T n +.0.b.+.O.e.Q o.m.T.J.I <.d y.1..Xk.P.j.T.7.K.-Xk.7 a W.).M.L.T.n.",
"Z M #.k D - 1 ! D  .Z.D y.a.b 4 a Y b u Y  .E ;.O.D a O V | m V | n .. .u.y.r.N.6.l.E.{ r @XQ 9.,.} 8.t.] } ' W i r !.t.XXT.x.k.",
"u 6 4 -   j =   E ! Y m a a a - + > r V a u a b t a a % T n r b a b B W R b n b r V N c X ! 1.2.W [ B a a q q o 5.& 1.' <.1.b l ",
"d t j ! b E  .e.0.Y Y O.b.7XyXqX2X}.{.p.O.r d % E V b A Y j r |   X @ O.=.w.3X7 u V V a r r S Q V ] j.R r - g Y | u.! 7 ! e.N.Y.",
"u D n j =.=.c.3X( D M.b.s.sX7X8Xq.&.! / S M ! b b.=.^.c...q.^.Z.0.- ..v.e.(._.8 E +.| D 9.I ,.F.H.9.} l b - 3Xk.n.n._., 5XK.N.r.",
"u d n n T ;.d.q.b A.b.0.*.x.E e.v.w.! O.| Y E ( T s.i.f.].E Y p.0.- ! c.q.q.W & r m <.H.F.U.!.G.I.F.F.l l 1 H.,.W.1.h.H  Xm.t.K.",
"b u n V ( $.=.$.u.j 6 Y T a *.y.m w.0.O.| ! t (  .-.p.c.d.(.q.e.| > / d...e.).o n W 2.>.W.!.Q.Q.eX*X9.V r > E.E.<Xr.n.K X.o.X.c ",
"u 6 4 4 T  .-.=.$.1 D  .V +.0.v.b.s.u.M.m R 6 1 V ! =...-.`.D j  .+ O.y.u.w.n X b a L 2.9.3.,.} H.I J s l r 2.T.|.Z.x.g ' t.X.5.",
"r t     - - > r g - r A e.V b V Y n b j n @X+ D t r a D ..y.D b < 1 w.! &.m W + Y V r y i c L x B s w b i   5 < r a l i m h.5.` ",
"+ X a w.E + a j 1 a 5 r - 1 a r 1 + @ X 1 + > > j + ,   - * X @ V   > - , % , | - | V K r a - - * , + < B ^.| o b C r   i s a b ",
";.d.-.*.- n |  .yXdXsXy.y.| ! @ a a e.sXsXaXb.M.b.#XM.v.( S r s.yXp.(.y.u.u.B 3Xb % Y.X X n.T.| r.:X:X:X*XtXO W ! _.|.T.|.T.h.H ",
"=._ ) ..4.X E x.u.v.3X}.uXyX6Xk.i j y.v.M.^.b.M.p.C.Z.^.b.- ) pXs.^.k.x.).h.1 N./.5.>XwXh.r.  5X*XJ.>.l.t.=XX.r h.R.;XY.|.|.T.T.",
"( #.#.~ b.+ ! | M.a.^.5X7XpX6X#X1.( Z.s.b.B.;.s.D.A.].`.{.1 #.s.s.a.~.~.).).XXr <X>X*X<XrXeXl ,XT.j.l.j.y.m.Y b k.T.;X|.,X;X-X.X",
"$.;.;.#.b.b Y o.1.L._. X).k.k.o.! 0.y.M.C...b.V./.S.`.`.L. .M *./.L.).).L./.x.h.( ,X<X*X.Xl.r (..XT.5.m.k.N.i H k.5.m.Y.T.|.P.P.",
"d.p.s.y.Y - E 5.r.b.m.Y.L.).T.X.l V +.~.v.M.M.b.s./.w.M.@X/ D e._.x.b.Y.~._.Y.y.` O v.h. Xl.n _.M.m.Y.n.t.y.i ! t.t.l.T.).m.|.m.",
"D =.M...V + R 0.k.k.Y.k.n.T.XXh.W ! n.v.O.w.O.w.a.s.~.a. X' b ..e.N.N.b.e.y.u.N.m.V tX, O.Y.1 /.N.+XK 0.u.b < B h.m.T.Y.L.Y..XL.",
" .q.V K N X K 1.h.k.n.).T.).l.<.q 1 OXOXN.C.v.w./.Z.C.$Xu.m j p.C.x.-X/.M.e./ y.x.B , x.h.+ X ( a.v.y.Y ! l X | [ k.J.T.k.L.L.g.",
"! n Q v @ j l B k.h.T.n.T.E.2.p O 1 H } 8.7.t._.v.s.x.#Xo.V Y V $XM./.k.! _.~.h.1.W N - a o.- | y.[ B n j   j b m x.k.Y.T.@Xr.Q ",
"4 2 1 % % 1 r r s r o 8 1 b 6 - t 6 n @ & l < O @ X / x.6., X , , 5 y u a 6 6 % X @ b 1 - , j Y a n b.P.L.`. XM.x.g l B c b Y V ",
"b e.).L.#X,X7XXXm.o.l r yXZ.{.3XiXW -X).k.6.w n  .O.w.1.+.O.n.0.Q L t.+ M.d +._.|.;XJ.OXT.XX@X=.L.a t.z.).@X1XT.@X! X.r i 1.W y.",
"M m.R.r.+X X;X.X.X6.l.b ,XL. Xy.C.+ [.l. X6.c | X.o.X.1.! X.1.! 0.{ 8.J 6 w.`.).).Y. X`.x.Y C.0.5.m ' 1X&.Y.=X=X@XoXg., X.C.m.v.",
"R _.<.6.1XeXI =XoX@XX.X.l.g.6.j.<.a L.m.K.T.] L F.1.[ ! V | ! a ! V W b 3 `.C.#X X@X_.v.| ).).x.m.o.t.|.-X=X1Xm.@Xn.Q + K.#Xn.' ",
"Y |.|.R.;X,X<XH.wX<XK o.,XQ.G.E.R L.l.T.L.m.X < 9 5.o.B s ! R O.O.Y ! b X L.6X+X`./.k.v._._.M.)., o.).oX-X@X,Xm.-X@X' + H r.R E ",
"o ,X,X9.U P } >.} <.l * * l c B O O z.6.B a R.- - i 7 q b a c g c Y j 1 6Xm b Y b. .+.^.b.M.h.W Y y <.` 2.v c b [ B 1 t + > 6 1 ",
"1 V t l v.V ! a V a ~.u | ` b @XZ.y.&.D M d , ; 1 a 6 - a K +X_.x.`.s.+.D ! +.m ! n - D o.' a x.6.L o.] g.{ V W r a 1.v., 0.e.D ",
"o.m.t.k.r.-Xk.L.h.Y.o.! J + K.H.:XE.7.u.n.5.m.L.n.k.{ h._. XY.`._.[.C.+X`.2X#X`.1 Y | w.O.o.r.t.h.' l.l.t.l.g.0.0.o.o.! m % n | ",
"l.j.R.T.6.J.g.6.{ <.{ <.5.H ] 3.H.Q.,.` H 6.` >.1.X.l ,._.@X_.`.(.).6X3X0X2X6Xb.4 V B x.O.! 5.o.1.t.k._.XXr.k.0.x.y.1.| | !  .W ",
"j.j.6.,.z.6.1.o.>.F.E.9.7 <.8.,.!.>.` { ] L 8.H ' ' N z.j.-XXX_.+XC.2X5X3X3X#XZ.X d Y E Y A [ [ 1.Q | t.X.i R y n ! Q c + M.Y V ",
"8.6.{ 8.l.2.o.b H L J L O a { 9 I 9.>.<.Q H 5.v 6.5.N & X.1.y.Y...( s.w.*.O.D 1 6 1 6 r n ( ! o.5.' R X.5.5.W r > 1 1 1 | a , r ",
"L W p p J L c b s l b l n a s B N N c B b i 7 N c - - Y @ Y b l 1 ; - @ ; 1 1 , u - X . . , 6 - 1 1 - 1 , , - , + + 1 a # a X r ",
"m u.n a a a 1 . u l K * - & X O a Q m o.w.W X.V r , .Xa j u + . 1 $ + 1 n s r D r b t j E r r , X.V a V Y V W a > 6 . ( ! W V D ",
"a m c K Q K ` ` L , | o.>X>XP.;X|.B [ T..Xr.w.N.y.- , | [ r V Y b ! 0. ...! s. .#Xe.q.e.( D + - V D u n j T Y n u a D `.$.0.D =.",
"b b a V K H ` ' I.s ' k.j.K.K.' W l o.n.n.K.@X`.+X2X,X(.3X@ Y n V / Y D Y Y V 6 *.f. .i.=.s.  Y V b D b u M j j ; b ..=.( ( # E ",
"i B H n H [ N <.b 2 5.k.t.<.L.5.6.+ <.L.r.m.( v.x.$XL.y.a X a u V b b a n b 6 u ..( {. .=. .  a a D b n t t V Y 1 V .. .0.D ;.( ",
"s V b a a l B N c q p o.l r.O.h.[ * h.5.1.t.O.V V u.w.! a c n b n  .j m 6 > 1 - E ~ $XZ.k *.@ 1 u j j d j b j b X r n u f ) ~ b ",
"* 2 q V l c i 7 , O , p l H o.V B 1 l K W O.| w.! X.! 1 , y.b V u 7 d 6 % + X > 6 f  .*.u - 6XX % 1 + X   . X X ^ v.1 t b a 6 # ",
"  $ 1 - , a l H 1.5.tXh $ H 1 - b H > ! B B Y * v.s.+...y.a.(.6 % k.X e.+ > + 6 ( s.yXyX2X2X=.O.D > 4 b.! T q.#.e.s.w.b x.- a ! ",
"! ` i Y [ XX5.t.m.g.<.*X[ o.< | H.<X1XB o.X 0.2Xb.(.`.s.O.~.v.4.q.f.M.X v.( T ( p.) #.q...e.e.T ( b Y  .b.-.=.p.q.q...j ! O.( ..",
"O.0.R m r.m.v.M.n.k.t.k.{ < m 7.1.m.o _.r.' M.OX[./.N.b.*.s.$.#X(.b...r d T ~ ;.b.;.y.q.#.p.c.O.) b D  .s.f.i. .T E ..(   s.d. .",
"y.O.W / ' ).N.a.).5.[ r.H o X.x.N.k.o r.Y.B `./.N.`.x.0.s.v.q.^.-.( V r E ( e.B.e.s.b. .s.c.=.q.$.M D b.d.#.q.$.( ( =.r n ..#.c.",
"x.0.H W 1.y.0.n.J.j.h.[ B B r.y.N.B |.).l 1 _.Y.y.x.x.w.b.y...c. .G b % a A.....) ( q.( #.#.;.=.E a ~ e. .$.#.`...( j 6 d / ) =.",
"0.k.E ( X.Y.H r.| 1.H b ' b b | S Y.5.r.1.  h.h.u.1...O.+.e.e.~ ) Z r . j D T ( ....~ ~ q.i.f.V.G   Z e. .s.~ D p.M j D j 6  .~ ",
"W y.2 n | ' ! E t.' W a a 2 c a b m L.| h.b 7 X.0.' n n V j b E j n j   j M ..n j j d A D M T M =.  b T ^ ~ T ! ..1 ; - > t r 6 ",
", - + - [ ! Y | V Y - , c , , c N r a r | b   , V V a r a r 6 u r - X n 1 > a t n 6 4 , % # # 1 1 b.X ; + -     @ +  .% X % % - "
};
