/* XPM */
static char *result[] = {
/* columns rows colors chars-per-pixel */
"64 64 232 2 ",
"   c #194776",
".  c #1E597E",
"X  c #255473",
"o  c #33677E",
"O  c #1C4D8B",
"+  c #1E4C85",
"@  c #1B5588",
"#  c #175495",
"$  c #265C8C",
"%  c #245A94",
"&  c #204C87",
"*  c #286487",
"=  c #317083",
"-  c #2B6595",
";  c #236090",
":  c #2E7497",
">  c #377692",
",  c #326B85",
"<  c #145EA1",
"1  c #225FA4",
"2  c #1C6BAA",
"3  c #1666A5",
"4  c #1D70AE",
"5  c #1C75B1",
"6  c #0F66A6",
"7  c #206DAB",
"8  c #2C6FA9",
"9  c #2073AE",
"0  c #2977AA",
"q  c #3273A4",
"w  c #3578AC",
"e  c #257CB3",
"r  c #2C7BB3",
"t  c #257AB7",
"y  c #457688",
"u  c #2C7FC3",
"i  c #3A8AA6",
"p  c #2A83BA",
"a  c #3983B3",
"s  c #3D8AB3",
"d  c #3585B7",
"f  c #2896BC",
"g  c #3B9CB2",
"h  c #3292BD",
"j  c #3B92A8",
"k  c #39A2BA",
"l  c #4899AB",
"z  c #428BB6",
"x  c #4594BB",
"c  c #4A94BC",
"v  c #4C98BE",
"b  c #4294B5",
"n  c #529BB7",
"m  c #4D91A8",
"M  c #51A3AF",
"N  c #4EAEBA",
"B  c #4CA8B7",
"V  c #53A6B6",
"C  c #53A9B5",
"Z  c #52ADBA",
"A  c #5FADBC",
"S  c #54B3BE",
"D  c #7AB6BE",
"F  c #66B2BD",
"G  c #3287C2",
"H  c #3A94C5",
"J  c #3A9AD4",
"K  c #279EC0",
"L  c #32A0C2",
"P  c #2EAADA",
"I  c #2EA7D8",
"U  c #34A5DA",
"Y  c #39A7D9",
"T  c #33ACDB",
"R  c #3AA9DA",
"E  c #37A5D7",
"W  c #3DB1DC",
"Q  c #3DBBE6",
"!  c #3CBBE8",
"~  c #3FA8E1",
"^  c #4D96C6",
"/  c #4899C6",
"(  c #539AC6",
")  c #59A6C9",
"_  c #4EB3CF",
"`  c #5ABAC2",
"'  c #57B7C5",
"]  c #44A4DF",
"[  c #49A6DA",
"{  c #4AB5DF",
"}  c #57B1D4",
"|  c #69BACD",
" . c #69B5D4",
".. c #72B8D7",
"X. c #6DAFC7",
"o. c #45A3E3",
"O. c #4AAAEB",
"+. c #4AA6E7",
"@. c #53A5E6",
"#. c #52AAED",
"$. c #5BADEC",
"%. c #53A9E9",
"&. c #45BAE5",
"*. c #47B9E7",
"=. c #56B8E7",
"-. c #58A8F3",
";. c #4BBCF2",
":. c #5FBCF2",
">. c #5DB3F3",
",. c #63B9EE",
"<. c #63BBF4",
"1. c #67BBF5",
"2. c #5DC8D6",
"3. c #5FD4DB",
"4. c #64C9D8",
"5. c #77C2DC",
"6. c #62D3DB",
"7. c #6DDADD",
"8. c #78D8DA",
"9. c #4FC6ED",
"0. c #5DC5ED",
"q. c #57C4E8",
"w. c #5ACBFA",
"e. c #59C9F6",
"r. c #5BD4FD",
"t. c #5CDBFD",
"y. c #57D4FC",
"u. c #6ACDED",
"i. c #65C6ED",
"p. c #73CCEC",
"a. c #7DCDEE",
"s. c #76C2E9",
"d. c #6ADAE5",
"f. c #65C4F3",
"g. c #6AC5F4",
"h. c #64CBF3",
"j. c #6BCAF4",
"k. c #66C2FB",
"l. c #69C6FB",
"z. c #64CDFB",
"x. c #6ACDFB",
"c. c #72CDFA",
"v. c #7CCEFB",
"b. c #75C7F6",
"n. c #65D4F4",
"m. c #63D4FC",
"M. c #6DD5FC",
"N. c #63DCFB",
"B. c #6DDAFB",
"V. c #6BD9F5",
"C. c #7CD3F5",
"Z. c #73D4FA",
"A. c #7DD3FB",
"S. c #73DBFB",
"D. c #7CDBF9",
"F. c #78D8F4",
"G. c #77DFE2",
"H. c #5EEDF4",
"J. c #5DE1FC",
"K. c #5DE1F7",
"L. c #6AE4EC",
"P. c #67E5EA",
"I. c #74E5EC",
"U. c #7CE6EB",
"Y. c #7DE6E9",
"T. c #66E7F1",
"R. c #62ECF6",
"E. c #64E4FC",
"W. c #64EDFB",
"Q. c #6CEDFC",
"!. c #69E7FA",
"~. c #7BE6F5",
"^. c #7BECF3",
"/. c #74E2FB",
"(. c #7DE4FB",
"). c #75EEFB",
"_. c #7DECFC",
"`. c #74EEF3",
"'. c #65F1FC",
"]. c #75F2FC",
"[. c #7BF3FB",
"{. c #7AF2F6",
"}. c #8EBFC3",
"|. c #9AC2C9",
" X c #89DCDC",
".X c #84CFEA",
"XX c #86D3E9",
"oX c #83CEF1",
"OX c #81CFFE",
"+X c #83D4FD",
"@X c #85DAFC",
"#X c #8BDCFC",
"$X c #86D9F3",
"%X c #93DDF8",
"&X c #88E5E9",
"*X c #98E5E9",
"=X c #84E4FC",
"-X c #8AE3FC",
";X c #84ECFD",
":X c #8AECFE",
">X c #88EBF5",
",X c #95EAF5",
"<X c #9DEBF6",
"1X c #95E5FC",
"2X c #9BE6FA",
"3X c #94ECFC",
"4X c #9CECFC",
"5X c #98E5F6",
"6X c #84F2FD",
"7X c #8BF2FB",
"8X c #99F7FB",
"9X c #A4E8EC",
"0X c #A3E6F4",
"qX c #A3ECF4",
"wX c #ACEAF5",
"eX c #A3EDFB",
"rX c #AAEDFC",
"tX c #A9E7F2",
"yX c #B4EEF9",
"uX c #ADF2FC",
"iX c #A7F7FD",
"pX c #BAF2F4",
"aX c #B4F3FB",
"sX c #BBF4FD",
"dX c #BBF9FD",
"fX c #B5F5FA",
"gX c #B7EDEE",
"hX c #CAFAFD",
"jX c #C5F6FB",
"kX c #D5FBFE",
"lX c #E3FFFF",
"zX c None",
/* pixels */
"zXzXzXzXzXzXzXzXzXzXzXzXzXzXzXzXzXzXzXzXzXzXzXzXzXzXzXzXzXzXzXzXzXzXzXzXzXzXzXzXzXzXzXzXzXzXzXzXzXzXzXzXzXzXzXzXzXzXzXzXzXzXzXzX",
"zXzXzXzXzXzXzXzXzXzXzXzXzXzXzXzXzXzXzXzXzXzXzXzXzXzXzXzXzXzXzXzXzXzXzXzXzXzXzXzXzXzXzXzXzXzXzXzXzXzXzXzXzXzXzXzXzXzXzXzXzXzXzXzX",
"zXzXzXzXzXzXzXzXzXzXzXzXzXzXzXzXzXzXzXzXzXzXzXzXzXzXzXzXzXzXzXzXzXzXzXzXzXzXzXzXzXzXzXzXzXzXzXzXzXzXzXzXzXzXzXzXzXzXzXzXzXzXzXzX",
"zXzXzXzXzXzXzXzXzXzXzXzXzXzXzXzXzXzXzXzXzXzXzXzXzXzXzXzXzXzXzXzXzXzXzXzXzXzXzXzXzXzXzXzXzXzXzXzXzXzXzXzXzXzXzXzXzXzXzXzXzXzXzXzX",
"zXzXzXzXzXzXzXzXzXzXzXzXzXzXzXzXzXzXzXzXzXzXzXzXzXzXzXzXzXzXzXzXzXzXzXzXzXzXzXzXzXzXzXzXzXzXzXzXzXzXzXzXzXzXzXzXzXzXzXzXzXzXzXzX",
"zXzXzXzXzXzXzXzXzXzXzXzXzXzXzXzXzXzXzXzXzXzXzXzXzXzXzXzXzXzXzXzXzXzXzXzXzXzXzXzXzXzXzXzXzXzXzXzXzXzXzXzXzXzXzXzXzXzXzXzXzXzXzXzX",
"zXzXzXzXzXzXzXzXzXzXzXzXzXzXzXzXzXzXzXzXzXzXzXzXzXzXzXzXzXzXzXzXzXzXzXzXzXzXzXzXzXzXzXzXzXzXzXzXzXzXzXzXzXzXzXzXzXzXzXzXzXzXzXzX",
"zXzXzXzXzXzXzXzXzXzXzXzXzXzXzXzXzXzXzXzXzXzXzXzXzXzXzXzXzXzXzXzXzXzXzXzXzXzXzXzXzXzXzXzXzXzXzXzXzXzXzXzXzXzXzXzXzXzXzXzXzXzXzXzX",
"zXzXzXzXzXzXzXzXzXzXzXzXzXzXzXzXzXzXzXzXzXzXzXzXzXzXzXzXzXzXzXzXzXzXzXzXzXzXzXzXzXzXzXzXzXzXzXzXzXzXzXzXzXzXzXzXzXzXzXzXzXzXzXzX",
"zXzXzXzXzXzXzXzXzXzXzXzXzXzXzXzXzXzXzXzXzXzXzXzXzXzXzXzXzXzXzXzXzXzXzXzXzXzXzXzXzXzXzXzXzXzXzXzXzXzXzXzXzXzXzXzXzXzXzXzXzXzXzXzX",
"zXzXzXzXzXzXzXzXzXzXzXzXzXzXzXzXzXzXzXzXzXzXzXzXzXzXzXzXzXzXzXzXzXzXzXzXzXzXzXzXzXzXzXzXzXzXzXzXzXzXzXzXzXzXzXzXzXzXzXzXzXzXzXzX",
"zXzXzXzXzXzXzXzXzXzXzXzXzXzXzXzXzXzXzXzXzXzXzXzXzXzXzXzXzXzXzXzXzXzXzXzXzXzXzXzXzXzXzXzXzXzXzXzXzXzXzXzXzXzXzXzXzXzXzXzXzXzXzXzX",
"zXzXzXzXzXzXzXzXzXzXzXzXzXzXzXzXzXzXzXzXzXzXzXzXzXzXzXzXzXzXzXzXzXzXzXzXzXzXzXzXzXzXzXzXzXzXzXzXzXzXzXzXzXzXzXzXzXzXzXzXzXzXzXzX",
"zXzXzXzXzXzXzXzXzXzXzXzXzXzXzXzXzXzXzXzXzXzXzXzXzXzXzXzXzXzXzXzXzXzXzXzXzXzXzXzXzXzXzXzXzXzXzXzXzXzXzXzXzXzXzXzXzXzXzXzXzXzXzXzX",
"zXzXzXzXzXzXzXzXzXzXzXzXzXzXzXzXzXzXzXzXzXzXzXzXzXzXzXzXzXzXzXzXzXzXzXzXzXzXzXzXzXzXzXzXzXzXzXzXzXzXzXzXzXzXzXzXzXzXzXzXzXzXzXzX",
"zXzXzXzXzXzXzXzXzXzXzXzXzXzXzXzXzXzXzXzXzXzXzXzXzXzXzXzXzXzXzXzXzXzXzXzXzXzXzXzXzXzXzXzXzXzXzXzXzXzXzXzXzXzXzXzXzXzXzXzXzXzXzXzX",
"zXzXzXzXzXzXzXzXzXzXzXzXzXzXzXzXzXzXzXzXzXzXzXzXzXzXzXzXzXzXzXzXzXzXzXzXzXzXzXzXzXzXzXzXzXzXzXzXzXzXzXzXzXzXzXzXzXzXzXzXzXzXzXzX",
"zXzXzXzXzXzXzXzXzXzXzXzXzXzXzXzXzXzXzXzXzXzXzXzXzXzXzXzXzXzXzXzXzXzXzXzXzXzXzXzXzXzXzXzXzXzXzXzXzXzXzXzXzXzXzXzXzXzXzXzXzXzXzXzX",
"zXzXzXzXzXzXzXzXzXzXzXzXzXzXzXzXzXzXzXzXzXzXzXzXzXzXzXzXzXzXzXzXzXzXzXzXzXzXzXzXzXzXzXzXzXzXzXzXzXzXzXzXzXzXzXzXzXzXzXzXzXzXzXzX",
"zXzXzXzXzXzXzXzXzXzXzXzXzXzXzXzXzXzXzXzXzXzXzXzXzXzXzXzXzXzXzXzXzXzXzXzXzXzXzXzXzXzXzXzXzXzXzXzXzXzXzXzXzXzXzXzXzXzXzXzXzXzXzXzX",
"zXzXzXzXzXzXzXzXzXzXzXzXzXzXzXzXzXzXzXzXzXzXzXzXzXzXzXzXzXzXzXzXzXzXzXzXzXzXzXzXzXzXzXzXzXzXzXzXzXzXzXzXzXzXzXzXzXzXzXzXzXzXzXzX",
"zXzXzXzXzXzXzXzXzXzXzXzXzXzXzXzXzXzXzXzXzXzXzXzXzXzXzXzXzXzXzXzXzXzXzXzXzXzXzXzXzXzXzXzXzXzXzXzXzXzXzXzXzXzXzXzXzXzXzXzXzXzXzXzX",
"zXzXzXzXzXzXo m n M M l n C C V C C B B Z Z S S S S S ` 2.S N N N N N N N N N 2.` S Z C M C A X.F A Z F D D |.|.|.y zXzXzXzXzXzX",
"zXzXzXzXzX> l 4.4.6.6.6.6.6.6.6.3.3.3.6.P.P.I.L.I.I.I.U.7.7.7.7.7.7.7.G.G.Y.Y.U.&X&X8.8.8. X9XpX*X X&X&X*XqXfXfXwXm i zXzXzXzXzX",
"zXzXzXzX> g g 2.L.I.^.>X^.^.^.^.^.`.].{.[.{.{.{.{.{.6X6X7X7X8X8X8X8X8XiXiXiXdXdXdXhXhXhXjXhXkXlXkXhXdXfXaXdXdXaX9XZ / l o zXzXzX",
"zXzXzXj g k _ u.u.u.V.!.Q.Q.R.R.H.H.H.T.T.T.T.T.R.L.P.I.~.>X,X,X,X<X4XeXeXiXuXaXaXfXsXfXsXjXjXkXjXwX0X0X0XtXqX0X<X,X' k j = zXzX",
"zXzXb L K q.h.x.p.j.u.V.n.E.E.W.W.W.H.R.H.W.W.J.R.!.`.[.7X7X3X3X<X4X4X<X<X4X4X<X<XeXeXeXeX4XqXeX<X3X3X2X2X2X0X2X<XqXqX| N 4.zXzX",
"zX. f W 9.z.l.j.j.j.j.j.j.u.h.n.n.T.'.'.'.'.'.'.Q.].[.6X6X:X7X:X7X:X7X3X3X3X4X4X4X4X4X3X:X-X:X:X-X:X7X7X:X4X3XrXuXaXgXpX&X2.l zX",
"zX: f { n.j.g.h.g.g.j.i.h.h.h.h.n.N.E.E.!.).).).6X6X6X6X6X6X;X6X7X:X:X=X;X;X:X:X:X;X(./.(.(.;X=X:X-X:X:X3X3X4XrXyXyXpXgX*X4.) zX",
"zXi f *.i.i.g.f.f.f.1.i.i.j.c.S.S.D.B.S.S.S.(.;X;X6X7X;X;X;X6X6X;X;X:X:X:X:X=X;X(./././.S.B.S././.=X@X,X1X4XeXrXrXrXrXaXaX5.| o ",
"$ a h =.k.f.f.f.f.f.<.i.j.Z.M.B.S.M.Z.Z.D.=X-X-X-X-X;X>X;X;X6X;X6X;X;X;X:X;X=X/.S.S.B.S.B.B.B.B.B.S.S.$X1X4XeXeXrXrXrXrXuXXX| n ",
"- r H =.<.<.<.<.<.0.j.M.M.B.M.Z.M.Z.A.+X#X#X#X#X#X#X-X=X;X=X>X6X;X;X=X=X=XD.S.B.M.M.B.M.B.B.M.S.Z.Z.+X=X#X1X2XeXrXeXrXrXrX4X..X.",
"; p G %.$.,.<.:.<.l.x.x.x.M.x.c.c.A.+X#X#X#X#X#X#X@X@X=X~.{.6X6X6X[._./.S.j.V.M.M.M.M.M.M.M.c.Z.Z.+X@X#X#X%X%X2XeX2XeXqXeXa. .( ",
". e G @.@.%.-.1.k.l.x.x.l.l.l.c.+X+X+X+X+X@X+X+X@X-X=X;X6X6X6X].[.].Q.!.E.N.m.m.m.z.z.x.z.k.x.Z.+X@X#X@X@X#X#X#X2X2X2X4X#X) ( > ",
"X : t o.o.@.#.>.k.k.k.k.k.k.b.v.+X+XA.A.+XC.D.=X=X;X;X;X;X].[.).W.W.J.J.W.J.N.t.m.m.z.z.l.j.v.+X+X+X+X@X+X+X+X+X#X-X#X$Xp.d z X ",
"zX; 4 J ~ o.#.#.-.>.<.<.k.x.OXv.v.v.F.D.=X=X;X_.;X_._._._.).Q.!.K.J.J.J.t.t.t.t.m.m.m.z.j.A.A.A.OX+X+X+Xv.+X+XA.+XA.A.C.} r q zX",
"zX  0 E O.O.#.-.-.-.@.$.1.b.s.oXa.@X(.(.~.(.~.~.~.(.(.).B.E.m.r.r.r.r.r.y.y.y.r.r.z.z.M.A.+X+X+XOXOXv.v.v.v.c.l.c.c.j.l.J t $ zX",
"zXzXq 3 4 +.O.+.+.@.$.<.1.s.oX$XC.C.Z.Z.S.B.S.S.D.F.D.V.M.r.w.w.w.w.w.w.w.w.e.w.0.f.c.A.A.v.v.A.v.v.v.v.b.1.>.:.:.>.,.t < 8 zXzX",
"zXzX  O # < u +.O.>.g.v.+XXX<XuX%XoX.Xa.C.a.a.p.u.i.=.{ *.*.Q ! ! ! Q ! Q Q Q &.9.0.h.i.i.0.i.0.i.i.q.*.W *.;.;.;.o.3 # O   zXzX",
"zXzXzXzX& % < G o./ ^ ( (  .9XdXXX.......... . . .{ { { T P P P P P I I I I I P T E R E R R R Y Y R U U U Y J T U 6 # & zXzXzXzX",
"zXzXzXzXzX& O H =.[ H d p s ) s.c w w r r r p t e 0 0 r e p e r e e r 0 e e 9 5 t 5 9 9 9 7 7 7 2 2 2 2 2 2 5 7 G # + zXzXzXzXzX",
"zXzXzXzXzXzXzX( / / v ^ ^ ^ ) zXzXzXzXzXzX) ( / ( ^ v v x b x x z x s s s s s d a a w : - - - q q q 8 q ; $ ; @ $ + zXzXzXzXzXzX",
"zXzXzXzXzXzXzXzXzXzXzXzXzXzXzXzXzXzXzXzXzXzXzXzXzXzXzXzXzXzXzXzXzXzXzXzXzXzXzXzXzXzXzXzXzXzXzXzXzXzXzXzXzXzXzXzXzXzXzXzXzXzXzXzX",
"zXzXzXzXzXzXzXzXzXzXzXzXzXzXzXzXzXzXzXzXzXzXzXzXzXzXzXzXzXzXzXzXzXzXzXzXzXzXzXzXzXzXzXzXzXzXzXzXzXzXzXzXzXzXzXzXzXzXzXzXzXzXzXzX",
"zXzXzXzXzXzXzXzXzXzXzXzXzXzXzXzXzXzXzXzXzXzXzXzXzXzXzXzXzXzXzXzXzXzXzXzXzXzXzXzXzXzXzXzXzXzXzXzXzXzXzXzXzXzXzXzXzXzXzXzXzXzXzXzX",
"zXzXzXzXzXzXzXzXzXzXzXzXzXzXzXzXzXzXzXzXzXzXzXzXzXzXzXzXzXzXzXzXzXzXzXzXzXzXzXzXzXzXzXzXzXzXzXzXzXzXzXzXzXzXzXzXzXzXzXzXzXzXzXzX",
"zXzXzXzXzXzXzXzXzXzXzXzXzXzXzXzXzXzXzXzXzXzXzXzXzXzXzXzXzXzXzXzXzXzXzXzXzXzXzXzXzXzXzXzXzXzXzXzXzXzXzXzXzXzXzXzXzXzXzXzXzXzXzXzX",
"zXzXzXzXzXzXzXzXzXzXzXzXzXzXzXzXzXzXzXzXzXzXzXzXzXzXzXzXzXzXzXzXzXzXzXzXzXzXzXzXzXzXzXzXzXzXzXzXzXzXzXzXzXzXzXzXzXzXzXzXzXzXzXzX",
"zXzXzXzXzXzXzXzXzXzXzXzXzXzXzXzXzXzXzXzXzXzXzXzXzXzXzXzXzXzXzXzXzXzXzXzXzXzXzXzXzXzXzXzXzXzXzXzXzXzXzXzXzXzXzXzXzXzXzXzXzXzXzXzX",
"zXzXzXzXzXzXzXzXzXzXzXzXzXzXzXzXzXzXzXzXzXzXzXzXzXzXzXzXzXzXzXzXzXzXzXzXzXzXzXzXzXzXzXzXzXzXzXzXzXzXzXzXzXzXzXzXzXzXzXzXzXzXzXzX",
"zXzXzXzXzXzXzXzXzXzXzXzXzXzXzXzXzXzXzXzXzXzXzXzXzXzXzXzXzXzXzXzXzXzXzXzXzXzXzXzXzXzXzXzXzXzXzXzXzXzXzXzXzXzXzXzXzXzXzXzXzXzXzXzX",
"zXzXzXzXzXzXzXzXzXzXzXzXzXzXzXzXzXzXzXzXzXzXzXzXzXzXzXzXzXzXzXzXzXzXzXzXzXzXzXzXzXzXzXzXzXzXzXzXzXzXzXzXzXzXzXzXzXzXzXzXzXzXzXzX",
"zXzXzXzXzXzXzXzXzXzXzXzXzXzXzXzXzXzXzXzXzXzXzXzXzXzXzXzXzXzXzXzXzXzXzXzXzXzXzXzXzXzXzXzXzXzXzXzXzXzXzXzXzXzXzXzXzXzXzXzXzXzXzXzX",
"zXzXzXzXzXzXzXzXzXzXzXzXzXzXzXzXzXzXzXzXzXzXzXzXzXzXzXzXzXzXzXzXzXzXzXzXzXzXzXzXzXzXzXzXzXzXzXzXzXzXzXzXzXzXzXzXzXzXzXzXzXzXzXzX",
"zXzXzXzXzXzXzXzXzXzXzXzXzXzXzXzXzXzXzXzXzXzXzXzXzXzXzXzXzXzXzXzXzXzXzXzXzXzXzXzXzXzXzXzXzXzXzXzXzXzXzXzXzXzXzXzXzXzXzXzXzXzXzXzX",
"zXzXzXzXzXzXzXzXzXzXzXzXzXzXzXzXzXzXzXzXzXzXzXzXzXzXzXzXzXzXzXzXzXzXzXzXzXzXzXzXzXzXzXzXzXzXzXzXzXzXzXzXzXzXzXzXzXzXzXzXzXzXzXzX",
"zXzXzXzXzXzXzXzXzXzXzXzXzXzXzXzXzXzXzXzXzXzXzXzXzXzXzXzXzXzXzXzXzXzXzXzXzXzXzXzXzXzXzXzXzXzXzXzXzXzXzXzXzXzXzXzXzXzXzXzXzXzXzXzX",
"zXzXzXzXzXzXzXzXzXzXzXzXzXzXzXzXzXzXzXzXzXzXzXzXzXzXzXzXzXzXzXzXzXzXzXzXzXzXzXzXzXzXzXzXzXzXzXzXzXzXzXzXzXzXzXzXzXzXzXzXzXzXzXzX",
"zXzXzXzXzXzXzXzXzXzXzXzXzXzXzXzXzXzXzXzXzXzXzXzXzXzXzXzXzXzXzXzXzXzXzXzXzXzXzXzXzXzXzXzXzXzXzXzXzXzXzXzXzXzXzXzXzXzXzXzXzXzXzXzX",
"zXzXzXzXzXzXzXzXzXzXzXzXzXzXzXzXzXzXzXzXzXzXzXzXzXzXzXzXzXzXzXzXzXzXzXzXzXzXzXzXzXzXzXzXzXzXzXzXzXzXzXzXzXzXzXzXzXzXzXzXzXzXzXzX",
"zXzXzXzXzXzXzXzXzXzXzXzXzXzXzXzXzXzXzXzXzXzXzXzXzXzXzXzXzXzXzXzXzXzXzXzXzXzXzXzXzXzXzXzXzXzXzXzXzXzXzXzXzXzXzXzXzXzXzXzXzXzXzXzX",
"zXzXzXzXzXzXzXzXzXzXzXzXzXzXzXzXzXzXzXzXzXzXzXzXzXzXzXzXzXzXzXzXzXzXzXzXzXzXzXzXzXzXzXzXzXzXzXzXzXzXzXzXzXzXzXzXzXzXzXzXzXzXzXzX",
"zXzXzXzXzXzXzXzXzXzXzXzXzXzXzXzXzXzXzXzXzXzXzXzXzXzXzXzXzXzXzXzXzXzXzXzXzXzXzXzXzXzXzXzXzXzXzXzXzXzXzXzXzXzXzXzXzXzXzXzXzXzXzXzX",
"zXzXzXzXzXzXzXzXzXzXzXzXzXzXzXzXzXzXzXzXzXzXzXzXzXzXzXzXzXzXzXzXzXzXzXzXzXzXzXzXzXzXzXzXzXzXzXzXzXzXzXzXzXzXzXzXzXzXzXzXzXzXzXzX"
};
